ply
format ascii 1.0
comment Created by Blender 2.78 (sub 0) - www.blender.org, source file: ''
element vertex 24
property float x
property float y
property float z
property uchar red
property uchar green
property uchar blue
element face 28
property list uchar uint vertex_indices
end_header
-7.500000 7.500000 0.000000 0 204 255
-6.500000 6.500000 0.000000 0 204 255
-6.500000 -6.500000 0.000000 0 204 255
-7.500000 -7.500000 1.000000 0 204 255
-7.500000 7.500000 1.000000 0 204 255
7.500000 7.500000 0.000000 0 204 255
7.500000 -7.500000 0.000000 0 204 255
6.500000 6.500000 0.000000 0 204 255
7.500000 7.500000 1.000000 0 204 255
6.500000 6.500000 1.000000 0 102 204
-6.500000 -6.500000 1.000000 0 102 204
6.500000 -6.500000 1.000000 0 102 204
-7.500000 -7.500000 0.000000 0 204 255
6.500000 -6.500000 0.000000 0 102 204
-6.500000 6.500000 0.000000 0 102 204
6.500000 6.500000 0.000000 0 102 204
7.500000 -7.500000 1.000000 0 204 255
6.500000 6.500000 1.000000 0 204 255
-6.500000 -6.500000 1.000000 0 204 255
6.500000 -6.500000 0.000000 0 204 255
-6.500000 6.500000 1.000000 0 102 204
-6.500000 -6.500000 0.000000 0 102 204
6.500000 -6.500000 1.000000 0 204 255
-6.500000 6.500000 1.000000 0 204 255
3 0 1 2
3 0 3 4
3 5 6 7
3 8 0 4
3 9 10 11
3 6 3 12
3 13 14 15
3 5 16 6
3 17 16 8
3 4 3 18
3 2 12 0
3 0 7 1
3 0 12 3
3 6 12 2
3 6 2 19
3 7 0 5
3 6 19 7
3 8 5 0
3 9 20 10
3 6 16 3
3 13 21 14
3 5 8 16
3 17 22 16
3 8 4 17
3 23 17 4
3 3 16 22
3 18 23 4
3 3 22 18
