ply
format ascii 1.0
comment Created by Blender 2.78 (sub 0) - www.blender.org, source file: ''
element vertex 24
property float x
property float y
property float z
property uchar red
property uchar green
property uchar blue
element face 28
property list uchar uint vertex_indices
end_header
-7.500000 7.500000 0.000000 0 204 255
6.500000 6.500000 0.000000 0 204 255
-6.500000 6.500000 0.000000 0 204 255
-7.500000 7.500000 1.000000 0 204 255
7.500000 7.500000 0.000000 0 204 255
7.500000 -7.500000 0.000000 0 204 255
7.500000 7.500000 1.000000 0 204 255
7.500000 -7.500000 1.000000 0 204 255
6.500000 -6.500000 1.000000 0 102 204
-6.500000 6.500000 1.000000 0 102 204
-6.500000 -6.500000 1.000000 0 102 204
6.500000 6.500000 0.000000 0 102 204
-6.500000 -6.500000 0.000000 0 102 204
-6.500000 6.500000 0.000000 0 102 204
-6.500000 -6.500000 1.000000 0 204 255
-7.500000 -7.500000 1.000000 0 204 255
6.500000 -6.500000 1.000000 0 204 255
-7.500000 -7.500000 0.000000 0 204 255
6.500000 -6.500000 0.000000 0 204 255
6.500000 6.500000 1.000000 0 204 255
6.500000 6.500000 1.000000 0 102 204
6.500000 -6.500000 0.000000 0 102 204
-6.500000 6.500000 1.000000 0 204 255
-6.500000 -6.500000 0.000000 0 204 255
3 0 1 2
3 3 4 0
3 5 6 7
3 8 9 10
3 11 12 13
3 14 15 16
3 17 7 15
3 18 5 17
3 6 3 19
3 15 0 17
3 0 4 1
3 2 17 0
3 3 6 4
3 5 4 6
3 8 20 9
3 11 21 12
3 14 22 15
3 15 7 16
3 17 5 7
3 18 1 4
3 17 2 23
3 18 4 5
3 17 23 18
3 16 7 6
3 3 15 22
3 19 16 6
3 3 22 19
3 15 3 0
