ply
format ascii 1.0
comment Created by Blender 2.78 (sub 0) - www.blender.org, source file: ''
element vertex 24
property float x
property float y
property float z
property uchar red
property uchar green
property uchar blue
element face 28
property list uchar uint vertex_indices
end_header
-6.500000 6.500000 1.000000 0 102 204
6.500000 -6.500000 1.000000 0 102 204
6.500000 6.500000 1.000000 0 102 204
-6.500000 -6.500000 0.000000 0 102 204
6.500000 6.500000 0.000000 0 102 204
6.500000 -6.500000 0.000000 0 102 204
7.500000 -7.500000 1.000000 0 204 255
-7.500000 -7.500000 0.000000 0 204 255
7.500000 -7.500000 0.000000 0 204 255
6.500000 -6.500000 1.000000 0 204 255
7.500000 7.500000 1.000000 0 204 255
6.500000 6.500000 1.000000 0 204 255
6.500000 6.500000 0.000000 0 204 255
-7.500000 7.500000 0.000000 0 204 255
7.500000 7.500000 0.000000 0 204 255
-7.500000 7.500000 1.000000 0 204 255
-7.500000 -7.500000 1.000000 0 204 255
-6.500000 -6.500000 0.000000 0 204 255
-6.500000 6.500000 1.000000 0 204 255
-6.500000 -6.500000 1.000000 0 102 204
-6.500000 6.500000 0.000000 0 102 204
6.500000 -6.500000 0.000000 0 204 255
-6.500000 6.500000 0.000000 0 204 255
-6.500000 -6.500000 1.000000 0 204 255
3 0 1 2
3 3 4 5
3 6 7 8
3 9 10 11
3 12 13 14
3 15 14 13
3 16 13 7
3 10 8 14
3 17 8 7
3 18 15 16
3 0 19 1
3 3 20 4
3 6 16 7
3 9 6 10
3 8 21 12
3 22 7 13
3 14 8 12
3 12 22 13
3 15 10 14
3 16 15 13
3 10 6 8
3 17 21 8
3 7 22 17
3 18 11 10
3 16 6 9
3 16 9 23
3 18 10 15
3 16 23 18
