ply
format ascii 1.0
comment Created by Blender 2.78 (sub 0) - www.blender.org, source file: ''
element vertex 24
property float x
property float y
property float z
property uchar red
property uchar green
property uchar blue
element face 28
property list uchar uint vertex_indices
end_header
-7.500000 7.500000 0.000000 0 204 255
-6.500000 -6.500000 0.000000 0 204 255
-7.500000 -7.500000 0.000000 0 204 255
6.500000 -6.500000 1.000000 0 102 204
-6.500000 6.500000 1.000000 0 102 204
-6.500000 -6.500000 1.000000 0 102 204
6.500000 6.500000 1.000000 0 204 255
7.500000 -7.500000 1.000000 0 204 255
7.500000 7.500000 1.000000 0 204 255
7.500000 -7.500000 0.000000 0 204 255
-7.500000 7.500000 1.000000 0 204 255
-7.500000 -7.500000 1.000000 0 204 255
6.500000 6.500000 0.000000 0 102 204
-6.500000 -6.500000 0.000000 0 102 204
-6.500000 6.500000 0.000000 0 102 204
6.500000 6.500000 0.000000 0 204 255
6.500000 -6.500000 0.000000 0 204 255
-6.500000 6.500000 1.000000 0 204 255
7.500000 7.500000 0.000000 0 204 255
-6.500000 6.500000 0.000000 0 204 255
6.500000 6.500000 1.000000 0 102 204
6.500000 -6.500000 1.000000 0 204 255
6.500000 -6.500000 0.000000 0 102 204
-6.500000 -6.500000 1.000000 0 204 255
3 0 1 2
3 3 4 5
3 6 7 8
3 9 8 7
3 8 0 10
3 10 2 11
3 12 13 14
3 15 9 16
3 2 7 11
3 17 10 11
3 0 18 15
3 0 15 19
3 16 9 2
3 0 19 1
3 1 16 2
3 3 20 4
3 6 21 7
3 9 18 8
3 8 18 0
3 10 0 2
3 12 22 13
3 15 18 9
3 2 9 7
3 17 6 8
3 11 7 21
3 11 21 23
3 17 8 10
3 11 23 17
