ply
format ascii 1.0
comment Created by Blender 2.78 (sub 0) - www.blender.org, source file: ''
element vertex 24
property float x
property float y
property float z
property uchar red
property uchar green
property uchar blue
element face 28
property list uchar uint vertex_indices
end_header
-7.500000 7.500000 1.000000 0 204 255
-7.500000 -7.500000 0.000000 0 204 255
-7.500000 -7.500000 1.000000 0 204 255
7.500000 -7.500000 0.000000 0 204 255
7.500000 -7.500000 1.000000 0 204 255
7.500000 7.500000 1.000000 0 204 255
-7.500000 7.500000 0.000000 0 204 255
6.500000 -6.500000 0.000000 0 204 255
7.500000 7.500000 0.000000 0 204 255
6.500000 -6.500000 1.000000 0 204 255
-6.500000 -6.500000 1.000000 0 204 255
-6.500000 6.500000 1.000000 0 204 255
-6.500000 -6.500000 1.000000 0 102 204
6.500000 6.500000 1.000000 0 102 204
-6.500000 6.500000 1.000000 0 102 204
-6.500000 6.500000 0.000000 0 204 255
-6.500000 6.500000 0.000000 0 102 204
6.500000 -6.500000 0.000000 0 102 204
-6.500000 -6.500000 0.000000 0 102 204
-6.500000 -6.500000 0.000000 0 204 255
6.500000 6.500000 0.000000 0 204 255
6.500000 6.500000 1.000000 0 204 255
6.500000 -6.500000 1.000000 0 102 204
6.500000 6.500000 0.000000 0 102 204
3 0 1 2
3 2 3 4
3 5 6 0
3 3 7 8
3 4 9 2
3 0 10 11
3 12 13 14
3 6 15 1
3 4 8 5
3 16 17 18
3 0 6 1
3 2 1 3
3 5 8 6
3 1 15 19
3 1 19 7
3 20 6 8
3 3 1 7
3 7 20 8
3 4 5 21
3 9 10 2
3 4 21 9
3 21 5 0
3 0 2 10
3 11 21 0
3 12 22 13
3 6 20 15
3 4 3 8
3 16 23 17
