ply
format ascii 1.0
comment Created by Blender 2.78 (sub 0) - www.blender.org, source file: ''
element vertex 24
property float x
property float y
property float z
property uchar red
property uchar green
property uchar blue
element face 28
property list uchar uint vertex_indices
end_header
-7.500000 7.500000 0.000000 0 204 255
-7.500000 -7.500000 1.000000 0 204 255
-7.500000 7.500000 1.000000 0 204 255
7.500000 7.500000 1.000000 0 204 255
7.500000 7.500000 0.000000 0 204 255
7.500000 -7.500000 0.000000 0 204 255
-7.500000 -7.500000 0.000000 0 204 255
6.500000 -6.500000 0.000000 0 204 255
6.500000 6.500000 1.000000 0 102 204
-6.500000 -6.500000 1.000000 0 102 204
6.500000 -6.500000 1.000000 0 102 204
-6.500000 6.500000 1.000000 0 204 255
7.500000 -7.500000 1.000000 0 204 255
-6.500000 6.500000 0.000000 0 204 255
6.500000 6.500000 0.000000 0 204 255
6.500000 -6.500000 0.000000 0 102 204
-6.500000 6.500000 0.000000 0 102 204
6.500000 6.500000 0.000000 0 102 204
6.500000 -6.500000 1.000000 0 204 255
-6.500000 -6.500000 0.000000 0 204 255
-6.500000 6.500000 1.000000 0 102 204
6.500000 6.500000 1.000000 0 204 255
-6.500000 -6.500000 1.000000 0 204 255
-6.500000 -6.500000 0.000000 0 102 204
3 0 1 2
3 0 3 4
3 5 1 6
3 7 5 6
3 8 9 10
3 11 3 2
3 4 12 5
3 13 0 14
3 15 16 17
3 18 1 12
3 0 6 1
3 0 2 3
3 5 12 1
3 7 14 4
3 6 0 19
3 7 4 5
3 6 19 7
3 8 20 9
3 21 12 3
3 2 1 22
3 11 21 3
3 2 22 11
3 4 3 12
3 13 19 0
3 0 4 14
3 15 23 16
3 18 22 1
3 12 21 18
