ply
format ascii 1.0
comment Created by Blender 2.78 (sub 0) - www.blender.org, source file: ''
element vertex 24
property float x
property float y
property float z
property uchar red
property uchar green
property uchar blue
element face 28
property list uchar uint vertex_indices
end_header
7.500000 -7.500000 1.000000 0 204 255
-7.500000 -7.500000 0.000000 0 204 255
7.500000 -7.500000 0.000000 0 204 255
7.500000 7.500000 1.000000 0 204 255
7.500000 7.500000 0.000000 0 204 255
-7.500000 7.500000 1.000000 0 204 255
-7.500000 7.500000 0.000000 0 204 255
6.500000 -6.500000 1.000000 0 204 255
-7.500000 -7.500000 1.000000 0 204 255
-6.500000 -6.500000 0.000000 0 102 204
6.500000 6.500000 0.000000 0 102 204
6.500000 -6.500000 0.000000 0 102 204
-6.500000 6.500000 1.000000 0 204 255
-6.500000 -6.500000 0.000000 0 204 255
-6.500000 6.500000 1.000000 0 102 204
6.500000 -6.500000 1.000000 0 102 204
6.500000 6.500000 1.000000 0 102 204
6.500000 6.500000 0.000000 0 204 255
-6.500000 -6.500000 1.000000 0 204 255
6.500000 6.500000 1.000000 0 204 255
-6.500000 6.500000 0.000000 0 102 204
-6.500000 6.500000 0.000000 0 204 255
-6.500000 -6.500000 1.000000 0 102 204
6.500000 -6.500000 0.000000 0 204 255
3 0 1 2
3 3 2 4
3 5 4 6
3 7 8 0
3 8 6 1
3 9 10 11
3 3 5 12
3 1 13 2
3 14 15 16
3 4 2 17
3 0 8 1
3 3 0 2
3 5 3 4
3 7 18 8
3 0 19 7
3 8 5 6
3 9 20 10
3 19 0 3
3 5 8 18
3 12 19 3
3 5 18 12
3 1 21 13
3 14 22 15
3 21 1 6
3 2 13 23
3 17 21 6
3 2 23 17
3 17 6 4
