ply
format ascii 1.0
comment Created by Blender 2.78 (sub 0) - www.blender.org, source file: ''
element vertex 24
property float x
property float y
property float z
property uchar red
property uchar green
property uchar blue
element face 28
property list uchar uint vertex_indices
end_header
-6.500000 6.500000 1.000000 0 204 255
-7.500000 -7.500000 1.000000 0 204 255
-6.500000 -6.500000 1.000000 0 204 255
-7.500000 7.500000 0.000000 0 204 255
-7.500000 -7.500000 0.000000 0 204 255
-6.500000 6.500000 0.000000 0 204 255
6.500000 6.500000 0.000000 0 204 255
-7.500000 7.500000 1.000000 0 204 255
7.500000 7.500000 0.000000 0 204 255
-6.500000 -6.500000 1.000000 0 102 204
6.500000 6.500000 1.000000 0 102 204
-6.500000 6.500000 1.000000 0 102 204
-6.500000 6.500000 0.000000 0 102 204
6.500000 -6.500000 0.000000 0 102 204
-6.500000 -6.500000 0.000000 0 102 204
7.500000 -7.500000 0.000000 0 204 255
7.500000 -7.500000 1.000000 0 204 255
7.500000 7.500000 1.000000 0 204 255
6.500000 -6.500000 0.000000 0 204 255
6.500000 -6.500000 1.000000 0 204 255
-6.500000 -6.500000 0.000000 0 204 255
6.500000 -6.500000 1.000000 0 102 204
6.500000 6.500000 0.000000 0 102 204
6.500000 6.500000 1.000000 0 204 255
3 0 1 2
3 1 3 4
3 5 3 6
3 7 8 3
3 9 10 11
3 12 13 14
3 1 15 16
3 16 8 17
3 15 4 18
3 17 19 16
3 0 7 1
3 1 7 3
3 5 20 3
3 3 8 6
3 7 17 8
3 9 21 10
3 12 22 13
3 1 4 15
3 16 15 8
3 6 8 15
3 4 3 20
3 18 6 15
3 4 20 18
3 17 7 0
3 17 0 23
3 2 1 16
3 17 23 19
3 19 2 16
