ply
format ascii 1.0
comment Created by Blender 2.78 (sub 0) - www.blender.org, source file: ''
element vertex 132
property float x
property float y
property float z
property uchar red
property uchar green
property uchar blue
element face 276
property list uchar uint vertex_indices
end_header
-4.000000 -4.500000 0.500000 153 102 0
-4.500000 -4.000000 0.500000 153 102 0
-4.000000 -4.000000 0.000000 153 102 0
-3.500000 -4.000000 0.500000 153 102 0
4.000000 -4.500000 0.500000 153 102 0
3.500000 -4.000000 0.500000 153 102 0
4.000000 -4.000000 0.000000 153 102 0
4.500000 -4.000000 0.500000 153 102 0
-4.000000 -3.500000 0.500000 153 102 0
4.000000 -3.500000 0.500000 153 102 0
-4.000000 3.500000 0.500000 153 102 0
-4.500000 4.000000 0.500000 153 102 0
-4.000000 4.000000 0.000000 153 102 0
-3.500000 4.000000 0.500000 153 102 0
4.000000 3.500000 0.500000 153 102 0
3.500000 4.000000 0.500000 153 102 0
4.000000 4.000000 0.000000 153 102 0
4.500000 4.000000 0.500000 153 102 0
-4.000000 4.500000 0.500000 153 102 0
4.000000 4.500000 0.500000 153 102 0
-4.000000 -4.500000 4.500000 153 102 0
-4.000000 -4.500000 3.500000 153 102 0
-3.000000 -4.500000 4.500000 153 102 0
4.000000 -4.500000 4.500000 153 102 0
3.000000 -4.500000 4.500000 153 102 0
4.000000 -4.500000 3.500000 153 102 0
-4.500000 -4.000000 4.500000 153 102 0
-4.500000 -3.000000 4.500000 153 102 0
-4.500000 -4.000000 3.500000 153 102 0
-2.000000 3.500000 10.500000 153 102 0
-1.000000 3.500000 11.500000 153 102 0
-3.000000 3.500000 11.500000 153 102 0
4.500000 -4.000000 4.500000 153 102 0
4.500000 -4.000000 3.500000 153 102 0
4.500000 -3.000000 4.500000 153 102 0
0.000000 3.500000 10.500000 153 102 0
1.000000 3.500000 11.500000 153 102 0
-4.500000 3.000000 4.500000 153 102 0
-4.500000 4.000000 5.500000 153 102 0
-4.500000 4.000000 3.500000 153 102 0
-4.000000 -4.000000 5.000000 153 102 0
4.000000 -4.000000 5.000000 153 102 0
-1.000000 3.500000 5.500000 153 102 0
-2.000000 3.500000 6.500000 153 102 0
-3.000000 3.500000 5.500000 153 102 0
1.000000 4.500000 11.500000 153 102 0
0.000000 4.500000 10.500000 153 102 0
-1.000000 4.500000 11.500000 153 102 0
3.000000 3.500000 5.500000 153 102 0
2.000000 3.500000 6.500000 153 102 0
1.000000 3.500000 5.500000 153 102 0
3.000000 4.500000 11.500000 153 102 0
2.000000 4.500000 10.500000 153 102 0
-4.000000 3.500000 5.500000 153 102 0
-4.000000 3.500000 6.500000 153 102 0
2.000000 3.500000 10.500000 153 102 0
3.000000 3.500000 11.500000 153 102 0
4.000000 3.500000 5.500000 153 102 0
4.000000 3.500000 6.500000 153 102 0
-4.000000 3.500000 11.500000 153 102 0
-4.000000 3.500000 10.500000 153 102 0
-2.000000 4.500000 10.500000 153 102 0
-3.000000 4.500000 11.500000 153 102 0
0.000000 3.500000 6.500000 153 102 0
4.000000 3.500000 11.500000 153 102 0
4.000000 3.500000 10.500000 153 102 0
-4.000000 4.500000 11.500000 153 102 0
-4.000000 4.500000 10.500000 153 102 0
4.500000 4.000000 3.500000 153 102 0
4.500000 4.000000 5.500000 153 102 0
4.500000 3.000000 4.500000 153 102 0
4.000000 4.500000 11.500000 153 102 0
4.000000 4.500000 10.500000 153 102 0
-4.000000 4.000000 12.000000 153 102 0
-4.500000 4.000000 11.500000 153 102 0
4.500000 4.000000 11.500000 153 102 0
4.000000 4.000000 12.000000 153 102 0
4.000000 3.500000 3.500000 153 102 0
3.500000 4.000000 10.500000 153 102 0
3.500000 4.000000 6.500000 153 102 0
-3.500000 4.000000 6.500000 153 102 0
-3.000000 4.000000 6.000000 153 102 0
-1.000000 4.500000 5.500000 153 102 0
-1.500000 4.000000 6.500000 153 102 0
-1.000000 4.000000 6.000000 153 102 0
-3.500000 4.000000 10.500000 153 102 0
4.000000 -3.000000 4.000000 153 102 0
4.000000 3.000000 4.000000 153 102 0
4.000000 -3.500000 3.500000 153 102 0
3.000000 -4.000000 4.000000 153 102 0
-4.000000 3.500000 3.500000 153 102 0
-3.500000 -4.000000 3.500000 153 102 0
-4.000000 -3.500000 3.500000 153 102 0
-1.000000 4.000000 11.000000 153 102 0
-1.500000 4.000000 10.500000 153 102 0
0.500000 4.000000 6.500000 153 102 0
1.000000 4.500000 5.500000 153 102 0
0.000000 4.500000 6.500000 153 102 0
-3.500000 4.000000 3.500000 153 102 0
-3.000000 4.500000 4.500000 153 102 0
-3.000000 4.000000 4.000000 153 102 0
-4.000000 3.000000 4.000000 153 102 0
1.500000 4.000000 10.500000 153 102 0
2.000000 4.500000 6.500000 153 102 0
1.500000 4.000000 6.500000 153 102 0
2.500000 4.000000 10.500000 153 102 0
2.500000 4.000000 6.500000 153 102 0
-4.000000 3.000000 5.000000 153 102 0
-4.000000 4.500000 6.500000 153 102 0
-4.000000 -3.000000 4.000000 153 102 0
-0.500000 4.000000 10.500000 153 102 0
4.000000 4.500000 3.500000 153 102 0
3.500000 4.000000 3.500000 153 102 0
3.000000 4.000000 11.000000 153 102 0
-3.000000 4.000000 11.000000 153 102 0
-2.500000 4.000000 10.500000 153 102 0
-0.500000 4.000000 6.500000 153 102 0
-2.500000 4.000000 6.500000 153 102 0
1.000000 4.000000 11.000000 153 102 0
1.000000 4.000000 6.000000 153 102 0
3.000000 4.000000 6.000000 153 102 0
3.500000 -4.000000 3.500000 153 102 0
-3.000000 -4.000000 4.000000 153 102 0
4.000000 3.000000 5.000000 153 102 0
0.500000 4.000000 10.500000 153 102 0
-3.000000 4.500000 5.500000 153 102 0
-2.000000 4.500000 6.500000 153 102 0
3.000000 4.500000 4.500000 153 102 0
-4.000000 4.500000 3.500000 153 102 0
3.000000 4.500000 5.500000 153 102 0
3.000000 4.000000 4.000000 153 102 0
4.000000 4.500000 6.500000 153 102 0
3 0 1 2
3 3 0 2
3 4 5 6
3 7 4 6
3 2 1 8
3 3 2 8
3 6 5 9
3 7 6 9
3 10 11 12
3 13 10 12
3 14 15 16
3 17 14 16
3 12 11 18
3 13 12 18
3 16 15 19
3 17 16 19
3 20 21 22
3 23 24 25
3 26 27 28
3 29 30 31
3 32 33 34
3 35 36 30
3 37 38 39
3 40 26 20
3 32 41 23
3 42 43 44
3 45 46 47
3 48 49 50
3 45 51 52
3 53 44 54
3 55 56 36
3 57 58 48
3 59 60 31
3 47 61 62
3 42 50 63
3 64 56 65
3 66 62 67
3 68 69 70
3 71 72 51
3 73 74 59
3 75 76 64
3 66 74 73
3 75 71 76
3 17 77 14
3 78 51 72
3 79 65 78
3 80 44 81
3 4 33 25
3 82 83 84
3 85 31 60
3 70 86 87
3 88 89 86
3 90 37 39
3 91 8 92
3 61 93 94
3 95 96 97
3 98 99 100
3 90 100 101
3 102 103 104
3 96 104 103
3 105 49 106
3 40 22 24
3 53 37 107
3 108 85 80
3 37 109 27
3 9 33 7
3 47 110 93
3 111 15 112
3 78 56 113
3 114 61 115
3 49 102 104
3 94 43 83
3 116 42 63
3 58 69 75
3 117 29 115
3 55 118 102
3 52 113 105
3 11 90 39
3 119 49 104
3 49 120 106
3 5 25 121
3 92 27 109
3 121 24 89
3 91 109 122
3 5 88 9
3 72 79 78
3 88 34 33
3 113 55 105
3 91 22 21
3 42 107 123
3 57 70 69
3 77 70 87
3 116 35 110
3 118 35 124
3 15 77 112
3 80 125 108
3 125 117 126
3 127 100 99
3 81 43 117
3 128 38 108
3 45 124 46
3 93 29 94
3 1 21 28
3 118 52 102
3 85 62 114
3 126 115 61
3 43 84 83
3 79 129 120
3 112 87 130
3 129 106 120
3 13 90 10
3 95 35 63
3 98 18 128
3 28 8 1
3 112 127 111
3 91 0 3
3 97 110 46
3 29 114 115
3 126 94 83
3 40 123 107
3 89 22 122
3 56 76 36
3 85 54 80
3 107 27 40
3 82 96 99
3 72 69 131
3 95 50 119
3 35 93 110
3 79 48 58
3 82 116 97
3 41 32 34
3 54 74 38
3 46 95 97
3 105 103 52
3 47 62 73
3 101 130 86
3 17 68 77
3 78 113 51
3 79 58 65
3 80 54 44
3 23 25 33
3 4 7 33
3 33 32 23
3 82 126 83
3 85 114 31
3 70 34 86
3 88 121 89
3 90 101 37
3 91 3 8
3 61 47 93
3 95 119 96
3 98 128 99
3 90 98 100
3 102 52 103
3 96 119 104
3 105 55 49
3 23 41 24
3 40 20 22
3 24 41 40
3 53 38 37
3 108 67 85
3 37 101 109
3 9 88 33
3 47 46 110
3 111 19 15
3 78 65 56
3 114 62 61
3 49 55 102
3 94 29 43
3 116 84 42
3 75 64 65
3 58 57 69
3 75 65 58
3 117 43 29
3 55 36 118
3 52 51 113
3 11 10 90
3 119 50 49
3 49 48 120
3 5 4 25
3 92 28 27
3 121 25 24
3 91 92 109
3 5 121 88
3 72 131 79
3 88 86 34
3 113 56 55
3 91 122 22
3 57 48 123
3 42 44 107
3 123 48 50
3 44 53 107
3 123 50 42
3 57 123 70
3 77 68 70
3 116 63 35
3 118 36 35
3 15 14 77
3 80 81 125
3 125 81 117
3 127 130 100
3 81 44 43
3 66 67 74
3 128 18 11
3 67 108 74
3 38 74 108
3 128 11 39
3 39 38 128
3 45 118 124
3 93 30 29
3 26 28 21
3 1 0 21
3 21 20 26
3 118 45 52
3 85 67 62
3 126 117 115
3 43 42 84
3 79 131 129
3 112 77 87
3 129 103 106
3 13 98 90
3 95 124 35
3 98 13 18
3 28 92 8
3 112 130 127
3 91 21 0
3 97 116 110
3 29 31 114
3 126 61 94
3 40 41 123
3 89 24 22
3 30 36 76
3 56 64 76
3 76 73 30
3 31 30 73
3 73 59 31
3 85 60 54
3 26 40 27
3 107 37 27
3 125 126 82
3 82 97 96
3 96 103 129
3 129 131 111
3 129 111 127
3 125 82 99
3 96 129 127
3 99 128 108
3 96 127 99
3 99 108 125
3 19 111 68
3 72 71 75
3 111 131 69
3 68 17 19
3 72 75 69
3 69 68 111
3 95 63 50
3 35 30 93
3 79 120 48
3 82 84 116
3 34 70 123
3 123 41 34
3 54 60 74
3 59 74 60
3 38 53 54
3 46 124 95
3 105 106 103
3 73 76 47
3 51 45 76
3 76 71 51
3 62 66 73
3 76 45 47
3 86 89 122
3 122 109 101
3 101 100 130
3 130 87 86
3 86 122 101
