ply
format ascii 1.0
comment Created by Blender 2.78 (sub 0) - www.blender.org, source file: ''
element vertex 132
property float x
property float y
property float z
property uchar red
property uchar green
property uchar blue
element face 276
property list uchar uint vertex_indices
end_header
-4.000000 -4.500000 0.500000 153 102 0
-4.500000 -4.000000 0.500000 153 102 0
-4.000000 -4.000000 0.000000 153 102 0
-3.500000 -4.000000 0.500000 153 102 0
4.000000 -4.500000 0.500000 153 102 0
3.500000 -4.000000 0.500000 153 102 0
4.000000 -4.000000 0.000000 153 102 0
4.500000 -4.000000 0.500000 153 102 0
-4.000000 -3.500000 0.500000 153 102 0
4.000000 -3.500000 0.500000 153 102 0
-4.000000 3.500000 0.500000 153 102 0
-4.500000 4.000000 0.500000 153 102 0
-4.000000 4.000000 0.000000 153 102 0
-3.500000 4.000000 0.500000 153 102 0
4.000000 3.500000 0.500000 153 102 0
3.500000 4.000000 0.500000 153 102 0
4.000000 4.000000 0.000000 153 102 0
4.500000 4.000000 0.500000 153 102 0
-4.000000 4.500000 0.500000 153 102 0
4.000000 4.500000 0.500000 153 102 0
-4.000000 -4.500000 3.500000 153 102 0
-4.000000 -3.500000 3.500000 153 102 0
3.500000 -4.000000 3.500000 153 102 0
4.000000 -3.500000 3.500000 153 102 0
3.000000 4.000000 6.000000 153 102 0
2.000000 4.500000 6.500000 153 102 0
2.500000 4.000000 6.500000 153 102 0
-3.500000 4.000000 3.500000 153 102 0
-4.000000 3.500000 3.500000 153 102 0
2.000000 3.500000 6.500000 153 102 0
4.500000 -3.000000 4.500000 153 102 0
4.500000 -4.000000 3.500000 153 102 0
-3.500000 -4.000000 3.500000 153 102 0
-3.000000 -4.500000 4.500000 153 102 0
-4.000000 4.500000 3.500000 153 102 0
3.500000 4.000000 3.500000 153 102 0
0.000000 4.500000 10.500000 153 102 0
1.000000 4.000000 11.000000 153 102 0
0.500000 4.000000 10.500000 153 102 0
-2.000000 4.500000 6.500000 153 102 0
-3.000000 4.000000 6.000000 153 102 0
-2.500000 4.000000 6.500000 153 102 0
3.500000 4.000000 10.500000 153 102 0
3.000000 4.500000 11.500000 153 102 0
4.000000 4.500000 10.500000 153 102 0
-4.000000 -3.000000 4.000000 153 102 0
-3.000000 -4.000000 4.000000 153 102 0
2.000000 3.500000 10.500000 153 102 0
1.500000 4.000000 10.500000 153 102 0
3.000000 -4.500000 4.500000 153 102 0
3.000000 -4.000000 4.000000 153 102 0
0.000000 3.500000 10.500000 153 102 0
-1.000000 4.000000 11.000000 153 102 0
-0.500000 4.000000 10.500000 153 102 0
3.000000 4.500000 4.500000 153 102 0
4.000000 4.500000 3.500000 153 102 0
4.000000 -4.500000 3.500000 153 102 0
-4.500000 4.000000 3.500000 153 102 0
4.500000 4.000000 3.500000 153 102 0
4.000000 3.500000 3.500000 153 102 0
-4.000000 -4.500000 4.500000 153 102 0
4.000000 -4.500000 4.500000 153 102 0
-4.500000 -4.000000 4.500000 153 102 0
-4.500000 -3.000000 4.500000 153 102 0
-4.500000 -4.000000 3.500000 153 102 0
2.000000 4.500000 10.500000 153 102 0
3.000000 4.000000 11.000000 153 102 0
2.500000 4.000000 10.500000 153 102 0
-2.000000 3.500000 10.500000 153 102 0
-1.000000 3.500000 11.500000 153 102 0
-3.000000 3.500000 11.500000 153 102 0
-3.500000 4.000000 10.500000 153 102 0
-4.000000 3.500000 10.500000 153 102 0
4.500000 -4.000000 4.500000 153 102 0
-3.500000 4.000000 6.500000 153 102 0
-3.000000 3.500000 5.500000 153 102 0
-4.000000 3.000000 4.000000 153 102 0
4.000000 3.000000 4.000000 153 102 0
4.000000 -3.000000 4.000000 153 102 0
1.000000 3.500000 11.500000 153 102 0
-2.000000 4.500000 10.500000 153 102 0
-2.500000 4.000000 10.500000 153 102 0
-1.500000 4.000000 6.500000 153 102 0
-2.000000 3.500000 6.500000 153 102 0
-4.500000 3.000000 4.500000 153 102 0
-4.500000 4.000000 5.500000 153 102 0
4.000000 4.000000 12.000000 153 102 0
1.000000 4.500000 11.500000 153 102 0
-4.000000 4.000000 12.000000 153 102 0
-3.000000 4.500000 11.500000 153 102 0
-3.000000 4.000000 11.000000 153 102 0
-3.000000 4.500000 4.500000 153 102 0
3.000000 4.000000 4.000000 153 102 0
-3.000000 4.000000 4.000000 153 102 0
-4.000000 -4.000000 5.000000 153 102 0
4.000000 -4.000000 5.000000 153 102 0
-1.500000 4.000000 10.500000 153 102 0
-4.000000 3.000000 5.000000 153 102 0
4.000000 3.000000 5.000000 153 102 0
0.500000 4.000000 6.500000 153 102 0
1.000000 3.500000 5.500000 153 102 0
1.000000 4.000000 6.000000 153 102 0
-1.000000 3.500000 5.500000 153 102 0
4.000000 3.500000 5.500000 153 102 0
4.500000 3.000000 4.500000 153 102 0
4.500000 4.000000 5.500000 153 102 0
-4.000000 4.500000 6.500000 153 102 0
-1.000000 4.500000 11.500000 153 102 0
3.000000 3.500000 5.500000 153 102 0
-4.000000 3.500000 5.500000 153 102 0
-4.000000 3.500000 6.500000 153 102 0
3.000000 3.500000 11.500000 153 102 0
4.000000 3.500000 6.500000 153 102 0
-3.000000 4.500000 5.500000 153 102 0
4.500000 4.000000 11.500000 153 102 0
4.000000 3.500000 10.500000 153 102 0
1.000000 4.500000 5.500000 153 102 0
3.000000 4.500000 5.500000 153 102 0
-1.000000 4.000000 6.000000 153 102 0
0.000000 4.500000 6.500000 153 102 0
3.500000 4.000000 6.500000 153 102 0
-0.500000 4.000000 6.500000 153 102 0
0.000000 3.500000 6.500000 153 102 0
-4.000000 4.500000 10.500000 153 102 0
1.500000 4.000000 6.500000 153 102 0
-4.000000 3.500000 11.500000 153 102 0
4.000000 4.500000 6.500000 153 102 0
4.000000 3.500000 11.500000 153 102 0
-4.000000 4.500000 11.500000 153 102 0
4.000000 4.500000 11.500000 153 102 0
-4.500000 4.000000 11.500000 153 102 0
-1.000000 4.500000 5.500000 153 102 0
3 0 1 2
3 3 0 2
3 4 5 6
3 7 4 6
3 2 1 8
3 3 2 8
3 6 5 9
3 7 6 9
3 10 11 12
3 13 10 12
3 14 15 16
3 17 14 16
3 12 11 18
3 13 12 18
3 16 15 19
3 17 16 19
3 3 20 0
3 21 3 8
3 9 22 23
3 24 25 26
3 10 27 28
3 29 24 26
3 23 30 31
3 32 33 20
3 34 13 18
3 35 19 15
3 36 37 38
3 39 40 41
3 42 43 44
3 32 45 46
3 47 37 48
3 22 49 50
3 51 52 53
3 35 54 55
3 22 4 56
3 1 21 8
3 7 23 31
3 57 10 28
3 14 58 59
3 60 20 33
3 56 7 31
3 46 49 33
3 61 49 56
3 62 63 64
3 65 26 25
3 65 66 67
3 68 69 70
3 71 70 72
3 73 31 30
3 74 75 40
3 63 76 45
3 77 30 78
3 51 79 69
3 80 41 81
3 82 68 83
3 84 85 57
3 86 87 88
3 71 89 90
3 91 92 93
3 94 62 60
3 49 61 95
3 73 95 61
3 81 83 68
3 80 52 96
3 37 51 38
3 84 63 97
3 97 95 98
3 99 100 101
3 102 83 75
3 50 23 22
3 103 104 105
3 35 14 59
3 106 34 85
3 87 36 107
3 108 29 100
3 87 43 65
3 109 75 110
3 88 69 79
3 109 84 97
3 90 80 81
3 47 111 79
3 103 112 108
3 74 113 106
3 112 114 115
3 116 117 54
3 102 97 98
3 83 118 82
3 99 116 119
3 120 108 112
3 119 118 121
3 45 93 77
3 95 30 98
3 82 80 96
3 93 28 27
3 36 121 53
3 53 122 51
3 28 84 57
3 119 38 99
3 26 47 29
3 74 123 71
3 85 109 110
3 122 38 51
3 35 77 92
3 74 72 110
3 124 47 48
3 42 112 115
3 42 111 66
3 66 47 67
3 124 65 25
3 21 63 45
3 20 62 64
3 52 36 53
3 120 117 24
3 125 72 70
3 107 80 89
3 25 101 124
3 102 100 122
3 27 91 93
3 42 126 120
3 121 102 122
3 127 111 115
3 40 83 41
3 128 89 123
3 118 39 82
3 58 105 104
3 52 68 96
3 68 90 81
3 101 29 124
3 129 44 43
3 88 130 125
3 105 126 44
3 59 104 77
3 37 65 48
3 114 86 127
3 128 130 88
3 114 129 86
3 3 32 20
3 21 32 3
3 9 5 22
3 24 117 25
3 10 13 27
3 29 108 24
3 23 78 30
3 32 46 33
3 34 27 13
3 35 55 19
3 36 87 37
3 39 113 40
3 42 66 43
3 32 21 45
3 47 79 37
3 22 56 49
3 51 69 52
3 35 92 54
3 22 5 4
3 1 64 21
3 7 9 23
3 57 11 10
3 14 17 58
3 73 61 56
3 56 4 7
3 31 73 56
3 46 50 49
3 65 67 26
3 65 43 66
3 71 90 70
3 74 110 75
3 63 84 76
3 77 104 30
3 80 39 41
3 82 96 68
3 128 88 89
3 86 129 43
3 87 107 88
3 86 43 87
3 89 88 107
3 71 123 89
3 91 54 92
3 95 94 33
3 33 49 95
3 94 60 33
3 81 41 83
3 80 107 52
3 37 79 51
3 94 97 63
3 63 62 94
3 97 94 95
3 99 122 100
3 50 78 23
3 103 98 104
3 35 15 14
3 85 130 123
3 123 106 85
3 130 128 123
3 18 11 57
3 57 85 34
3 34 18 57
3 111 127 86
3 86 88 79
3 70 69 88
3 88 125 70
3 79 111 86
3 109 85 84
3 90 89 80
3 74 40 113
3 127 115 114
3 112 103 105
3 105 114 112
3 91 34 106
3 113 39 131
3 91 106 113
3 126 55 54
3 54 91 131
3 131 119 116
3 91 113 131
3 117 126 54
3 116 25 117
3 54 131 116
3 103 108 98
3 102 75 97
3 98 108 100
3 75 109 97
3 98 100 102
3 83 102 118
3 99 101 116
3 120 24 108
3 119 131 118
3 77 78 50
3 50 46 45
3 45 76 93
3 93 92 77
3 77 50 45
3 104 98 30
3 95 73 30
3 82 39 80
3 93 76 28
3 36 119 121
3 53 121 122
3 28 76 84
3 119 36 38
3 26 67 47
3 74 106 123
3 72 125 130
3 130 85 110
3 110 72 130
3 122 99 38
3 35 59 77
3 74 71 72
3 124 29 47
3 42 120 112
3 42 115 111
3 66 111 47
3 124 48 65
3 21 64 63
3 1 0 20
3 20 60 62
3 64 1 20
3 52 107 36
3 120 126 117
3 25 116 101
3 27 34 91
3 42 44 126
3 121 118 102
3 40 75 83
3 118 131 39
3 52 69 68
3 68 70 90
3 101 100 29
3 105 58 55
3 17 19 55
3 55 126 105
3 44 129 114
3 58 17 55
3 44 114 105
3 59 58 104
3 37 87 65
