ply
format ascii 1.0
comment Created by Blender 2.78 (sub 0) - www.blender.org, source file: ''
element vertex 132
property float x
property float y
property float z
property uchar red
property uchar green
property uchar blue
element face 276
property list uchar uint vertex_indices
end_header
-4.000000 -4.500000 0.500000 153 102 0
-4.500000 -4.000000 0.500000 153 102 0
-4.000000 -4.000000 0.000000 153 102 0
-3.500000 -4.000000 0.500000 153 102 0
4.000000 -4.500000 0.500000 153 102 0
3.500000 -4.000000 0.500000 153 102 0
4.000000 -4.000000 0.000000 153 102 0
4.500000 -4.000000 0.500000 153 102 0
-4.000000 -3.500000 0.500000 153 102 0
4.000000 -3.500000 0.500000 153 102 0
-4.000000 3.500000 0.500000 153 102 0
-4.500000 4.000000 0.500000 153 102 0
-4.000000 4.000000 0.000000 153 102 0
-3.500000 4.000000 0.500000 153 102 0
4.000000 3.500000 0.500000 153 102 0
3.500000 4.000000 0.500000 153 102 0
4.000000 4.000000 0.000000 153 102 0
4.500000 4.000000 0.500000 153 102 0
-4.000000 4.500000 0.500000 153 102 0
4.000000 4.500000 0.500000 153 102 0
-4.000000 -4.500000 4.500000 153 102 0
-4.000000 -4.500000 3.500000 153 102 0
-3.000000 -4.500000 4.500000 153 102 0
4.000000 -4.500000 4.500000 153 102 0
3.000000 -4.500000 4.500000 153 102 0
4.000000 -4.500000 3.500000 153 102 0
-4.500000 -4.000000 4.500000 153 102 0
-4.500000 -3.000000 4.500000 153 102 0
-4.500000 -4.000000 3.500000 153 102 0
-2.000000 3.500000 10.500000 153 102 0
-1.000000 3.500000 11.500000 153 102 0
-3.000000 3.500000 11.500000 153 102 0
4.500000 -4.000000 4.500000 153 102 0
4.500000 -4.000000 3.500000 153 102 0
4.500000 -3.000000 4.500000 153 102 0
0.000000 3.500000 10.500000 153 102 0
1.000000 3.500000 11.500000 153 102 0
-4.500000 3.000000 4.500000 153 102 0
-4.500000 4.000000 5.500000 153 102 0
-4.500000 4.000000 3.500000 153 102 0
-4.000000 -4.000000 5.000000 153 102 0
4.000000 -4.000000 5.000000 153 102 0
-1.000000 3.500000 5.500000 153 102 0
-2.000000 3.500000 6.500000 153 102 0
-3.000000 3.500000 5.500000 153 102 0
1.000000 4.500000 11.500000 153 102 0
0.000000 4.500000 10.500000 153 102 0
-1.000000 4.500000 11.500000 153 102 0
3.000000 3.500000 5.500000 153 102 0
2.000000 3.500000 6.500000 153 102 0
1.000000 3.500000 5.500000 153 102 0
3.000000 4.500000 11.500000 153 102 0
2.000000 4.500000 10.500000 153 102 0
-4.000000 3.500000 5.500000 153 102 0
-4.000000 3.500000 6.500000 153 102 0
2.000000 3.500000 10.500000 153 102 0
3.000000 3.500000 11.500000 153 102 0
4.000000 3.500000 5.500000 153 102 0
4.000000 3.500000 6.500000 153 102 0
-4.000000 3.500000 11.500000 153 102 0
-4.000000 3.500000 10.500000 153 102 0
-2.000000 4.500000 10.500000 153 102 0
-3.000000 4.500000 11.500000 153 102 0
0.000000 3.500000 6.500000 153 102 0
4.000000 3.500000 11.500000 153 102 0
4.000000 3.500000 10.500000 153 102 0
-4.000000 4.500000 11.500000 153 102 0
-4.000000 4.500000 10.500000 153 102 0
4.500000 4.000000 3.500000 153 102 0
4.500000 4.000000 5.500000 153 102 0
4.500000 3.000000 4.500000 153 102 0
4.000000 4.500000 11.500000 153 102 0
4.000000 4.500000 10.500000 153 102 0
-4.000000 4.000000 12.000000 153 102 0
-4.500000 4.000000 11.500000 153 102 0
4.500000 4.000000 11.500000 153 102 0
4.000000 4.000000 12.000000 153 102 0
3.000000 -4.000000 4.000000 153 102 0
-3.000000 -4.000000 4.000000 153 102 0
-3.500000 -4.000000 3.500000 153 102 0
3.000000 4.000000 11.000000 153 102 0
2.500000 4.000000 10.500000 153 102 0
-3.000000 4.000000 11.000000 153 102 0
-2.500000 4.000000 10.500000 153 102 0
3.000000 4.500000 4.500000 153 102 0
-3.000000 4.000000 4.000000 153 102 0
-3.000000 4.500000 4.500000 153 102 0
-1.000000 4.500000 5.500000 153 102 0
-0.500000 4.000000 6.500000 153 102 0
0.000000 4.500000 6.500000 153 102 0
3.500000 4.000000 3.500000 153 102 0
4.000000 4.500000 3.500000 153 102 0
-4.000000 4.500000 3.500000 153 102 0
-4.000000 4.500000 6.500000 153 102 0
-4.000000 -3.000000 4.000000 153 102 0
-3.500000 4.000000 10.500000 153 102 0
-3.500000 4.000000 6.500000 153 102 0
3.500000 4.000000 10.500000 153 102 0
3.500000 4.000000 6.500000 153 102 0
4.000000 -3.000000 4.000000 153 102 0
-4.000000 3.000000 4.000000 153 102 0
3.000000 4.500000 5.500000 153 102 0
2.500000 4.000000 6.500000 153 102 0
3.000000 4.000000 6.000000 153 102 0
-1.000000 4.000000 6.000000 153 102 0
-1.500000 4.000000 6.500000 153 102 0
-1.000000 4.000000 11.000000 153 102 0
-1.500000 4.000000 10.500000 153 102 0
4.000000 -3.500000 3.500000 153 102 0
1.000000 4.000000 11.000000 153 102 0
1.500000 4.000000 10.500000 153 102 0
-3.000000 4.000000 6.000000 153 102 0
-0.500000 4.000000 10.500000 153 102 0
0.500000 4.000000 6.500000 153 102 0
1.000000 4.000000 6.000000 153 102 0
-4.000000 3.000000 5.000000 153 102 0
4.000000 3.500000 3.500000 153 102 0
4.000000 3.000000 4.000000 153 102 0
-3.000000 4.500000 5.500000 153 102 0
-2.500000 4.000000 6.500000 153 102 0
-2.000000 4.500000 6.500000 153 102 0
-3.500000 4.000000 3.500000 153 102 0
-4.000000 -3.500000 3.500000 153 102 0
1.500000 4.000000 6.500000 153 102 0
4.000000 4.500000 6.500000 153 102 0
3.500000 -4.000000 3.500000 153 102 0
4.000000 3.000000 5.000000 153 102 0
-4.000000 3.500000 3.500000 153 102 0
3.000000 4.000000 4.000000 153 102 0
2.000000 4.500000 6.500000 153 102 0
1.000000 4.500000 5.500000 153 102 0
0.500000 4.000000 10.500000 153 102 0
3 0 1 2
3 3 0 2
3 4 5 6
3 7 4 6
3 2 1 8
3 3 2 8
3 6 5 9
3 7 6 9
3 10 11 12
3 13 10 12
3 14 15 16
3 17 14 16
3 12 11 18
3 13 12 18
3 16 15 19
3 17 16 19
3 20 21 22
3 23 24 25
3 26 27 28
3 29 30 31
3 32 33 34
3 35 36 30
3 37 38 39
3 40 26 20
3 32 41 23
3 42 43 44
3 45 46 47
3 48 49 50
3 45 51 52
3 53 44 54
3 55 56 36
3 57 58 48
3 59 60 31
3 47 61 62
3 42 50 63
3 64 56 65
3 66 62 67
3 68 69 70
3 71 72 51
3 73 74 59
3 75 76 64
3 66 74 73
3 75 71 76
3 77 22 78
3 79 22 21
3 52 80 81
3 82 61 83
3 84 85 86
3 87 88 89
3 90 84 91
3 92 38 93
3 37 94 27
3 93 95 96
3 97 56 80
3 95 62 82
3 98 65 97
3 29 82 83
3 99 78 100
3 101 102 103
3 43 104 105
3 49 103 102
3 61 106 107
3 87 105 104
3 5 108 9
3 55 109 110
3 56 76 36
3 96 44 111
3 35 106 112
3 3 21 0
3 113 50 114
3 95 31 60
3 115 27 40
3 116 70 117
3 79 94 78
3 118 119 120
3 53 37 115
3 121 18 92
3 88 42 63
3 120 83 61
3 33 23 25
3 79 8 122
3 114 49 123
3 70 99 117
3 72 69 124
3 119 29 83
3 107 43 105
3 95 54 96
3 88 35 112
3 57 70 69
3 97 51 72
3 125 24 77
3 40 126 115
3 13 127 10
3 65 58 75
3 11 127 39
3 17 116 14
3 113 35 63
3 108 34 33
3 90 117 128
3 106 29 107
3 81 129 52
3 81 49 102
3 113 130 89
3 5 25 125
3 121 86 85
3 108 77 99
3 98 101 103
3 89 112 46
3 98 48 58
3 109 35 131
3 110 129 123
3 9 33 7
3 109 52 110
3 122 27 94
3 96 118 93
3 130 123 129
3 45 131 46
3 49 110 123
3 80 55 81
3 40 22 24
3 91 15 90
3 21 26 28
3 62 73 47
3 46 113 89
3 126 50 42
3 47 112 106
3 28 8 1
3 127 85 100
3 72 98 97
3 41 32 34
3 84 86 87
3 111 43 119
3 15 116 90
3 120 107 105
3 60 59 74
3 127 37 39
3 77 24 22
3 79 78 22
3 52 51 80
3 82 62 61
3 84 128 85
3 87 104 88
3 90 128 84
3 66 67 74
3 92 18 11
3 67 93 74
3 38 74 93
3 92 11 39
3 39 38 92
3 37 100 94
3 93 67 95
3 97 65 56
3 95 67 62
3 98 58 65
3 29 31 82
3 100 85 128
3 128 117 99
3 99 77 78
3 78 94 100
3 100 128 99
3 101 129 102
3 43 42 104
3 49 48 103
3 61 47 106
3 87 120 105
3 5 125 108
3 55 36 109
3 30 36 76
3 56 64 76
3 76 73 30
3 31 30 73
3 73 59 31
3 96 54 44
3 35 30 106
3 3 79 21
3 113 63 50
3 95 82 31
3 26 40 27
3 115 37 27
3 116 68 70
3 79 122 94
3 118 111 119
3 53 38 37
3 121 13 18
3 88 104 42
3 120 119 83
3 4 7 33
3 33 32 23
3 25 4 33
3 79 3 8
3 114 50 49
3 70 34 99
3 19 91 68
3 72 71 75
3 91 124 69
3 68 17 19
3 72 75 69
3 69 68 91
3 119 43 29
3 107 29 43
3 95 60 54
3 88 63 35
3 57 126 70
3 97 80 51
3 125 25 24
3 40 41 126
3 13 121 127
3 69 75 58
3 64 65 75
3 57 69 58
3 11 10 127
3 17 68 116
3 113 131 35
3 108 99 34
3 90 116 117
3 106 30 29
3 81 102 129
3 81 55 49
3 113 114 130
3 5 4 25
3 121 92 86
3 108 125 77
3 98 124 101
3 89 88 112
3 98 103 48
3 109 36 35
3 110 52 129
3 9 108 33
3 109 45 52
3 122 28 27
3 96 111 118
3 130 114 123
3 45 109 131
3 49 55 110
3 80 56 55
3 23 41 24
3 40 20 22
3 24 41 40
3 91 19 15
3 1 0 21
3 21 20 26
3 28 1 21
3 45 47 73
3 62 66 73
3 73 76 45
3 51 45 76
3 76 71 51
3 46 131 113
3 44 53 115
3 115 126 42
3 48 50 126
3 126 57 48
3 42 44 115
3 47 46 112
3 28 122 8
3 127 121 85
3 72 124 98
3 34 70 126
3 126 41 34
3 101 124 91
3 101 91 84
3 130 129 101
3 87 89 130
3 118 120 87
3 92 93 118
3 101 84 130
3 86 92 118
3 87 130 84
3 86 118 87
3 111 44 43
3 15 14 116
3 120 61 107
3 74 38 54
3 54 60 74
3 38 53 54
3 127 100 37
