ply
format ascii 1.0
comment Created by Blender 2.78 (sub 0) - www.blender.org, source file: ''
element vertex 132
property float x
property float y
property float z
property uchar red
property uchar green
property uchar blue
element face 276
property list uchar uint vertex_indices
end_header
-4.000000 -4.500000 0.500000 153 102 0
-4.500000 -4.000000 0.500000 153 102 0
-4.000000 -4.000000 0.000000 153 102 0
-3.500000 -4.000000 0.500000 153 102 0
4.000000 -4.500000 0.500000 153 102 0
3.500000 -4.000000 0.500000 153 102 0
4.000000 -4.000000 0.000000 153 102 0
4.500000 -4.000000 0.500000 153 102 0
-4.000000 -3.500000 0.500000 153 102 0
4.000000 -3.500000 0.500000 153 102 0
-4.000000 3.500000 0.500000 153 102 0
-4.500000 4.000000 0.500000 153 102 0
-4.000000 4.000000 0.000000 153 102 0
-3.500000 4.000000 0.500000 153 102 0
4.000000 3.500000 0.500000 153 102 0
3.500000 4.000000 0.500000 153 102 0
4.000000 4.000000 0.000000 153 102 0
4.500000 4.000000 0.500000 153 102 0
-4.000000 4.500000 0.500000 153 102 0
4.000000 4.500000 0.500000 153 102 0
-4.000000 -4.500000 4.500000 153 102 0
-4.000000 -4.500000 3.500000 153 102 0
-3.000000 -4.500000 4.500000 153 102 0
4.000000 -4.500000 4.500000 153 102 0
3.000000 -4.500000 4.500000 153 102 0
4.000000 -4.500000 3.500000 153 102 0
-4.500000 -4.000000 4.500000 153 102 0
-4.500000 -3.000000 4.500000 153 102 0
-4.500000 -4.000000 3.500000 153 102 0
-2.000000 3.500000 10.500000 153 102 0
-1.000000 3.500000 11.500000 153 102 0
-3.000000 3.500000 11.500000 153 102 0
4.500000 -4.000000 4.500000 153 102 0
4.500000 -4.000000 3.500000 153 102 0
4.500000 -3.000000 4.500000 153 102 0
0.000000 3.500000 10.500000 153 102 0
1.000000 3.500000 11.500000 153 102 0
-4.500000 3.000000 4.500000 153 102 0
-4.500000 4.000000 5.500000 153 102 0
-4.500000 4.000000 3.500000 153 102 0
-4.000000 -4.000000 5.000000 153 102 0
4.000000 -4.000000 5.000000 153 102 0
-1.000000 3.500000 5.500000 153 102 0
-2.000000 3.500000 6.500000 153 102 0
-3.000000 3.500000 5.500000 153 102 0
1.000000 4.500000 11.500000 153 102 0
0.000000 4.500000 10.500000 153 102 0
-1.000000 4.500000 11.500000 153 102 0
3.000000 3.500000 5.500000 153 102 0
2.000000 3.500000 6.500000 153 102 0
1.000000 3.500000 5.500000 153 102 0
3.000000 4.500000 11.500000 153 102 0
2.000000 4.500000 10.500000 153 102 0
-4.000000 3.500000 5.500000 153 102 0
-4.000000 3.500000 6.500000 153 102 0
2.000000 3.500000 10.500000 153 102 0
3.000000 3.500000 11.500000 153 102 0
4.000000 3.500000 5.500000 153 102 0
4.000000 3.500000 6.500000 153 102 0
-4.000000 3.500000 11.500000 153 102 0
-4.000000 3.500000 10.500000 153 102 0
-2.000000 4.500000 10.500000 153 102 0
-3.000000 4.500000 11.500000 153 102 0
0.000000 3.500000 6.500000 153 102 0
4.000000 3.500000 11.500000 153 102 0
4.000000 3.500000 10.500000 153 102 0
-4.000000 4.500000 11.500000 153 102 0
-4.000000 4.500000 10.500000 153 102 0
4.500000 4.000000 3.500000 153 102 0
4.500000 4.000000 5.500000 153 102 0
4.500000 3.000000 4.500000 153 102 0
4.000000 4.500000 11.500000 153 102 0
4.000000 4.500000 10.500000 153 102 0
-4.000000 4.000000 12.000000 153 102 0
-4.500000 4.000000 11.500000 153 102 0
4.500000 4.000000 11.500000 153 102 0
4.000000 4.000000 12.000000 153 102 0
3.500000 4.000000 3.500000 153 102 0
4.000000 3.000000 4.000000 153 102 0
3.000000 4.000000 4.000000 153 102 0
3.500000 4.000000 10.500000 153 102 0
-4.000000 4.500000 3.500000 153 102 0
-4.000000 4.500000 6.500000 153 102 0
4.000000 4.500000 3.500000 153 102 0
-4.000000 3.000000 5.000000 153 102 0
-3.500000 4.000000 10.500000 153 102 0
-1.500000 4.000000 6.500000 153 102 0
-2.000000 4.500000 6.500000 153 102 0
1.500000 4.000000 6.500000 153 102 0
-3.000000 4.000000 11.000000 153 102 0
-2.500000 4.000000 10.500000 153 102 0
-1.000000 4.000000 11.000000 153 102 0
-0.500000 4.000000 10.500000 153 102 0
1.000000 4.000000 11.000000 153 102 0
0.500000 4.000000 10.500000 153 102 0
3.000000 4.000000 11.000000 153 102 0
0.000000 4.500000 6.500000 153 102 0
-4.000000 -3.500000 3.500000 153 102 0
-4.000000 -3.000000 4.000000 153 102 0
-4.000000 3.000000 4.000000 153 102 0
-3.500000 4.000000 6.500000 153 102 0
-0.500000 4.000000 6.500000 153 102 0
1.000000 4.000000 6.000000 153 102 0
-1.000000 4.000000 6.000000 153 102 0
-3.500000 -4.000000 3.500000 153 102 0
-3.000000 -4.000000 4.000000 153 102 0
3.500000 -4.000000 3.500000 153 102 0
-1.000000 4.500000 5.500000 153 102 0
4.000000 3.500000 3.500000 153 102 0
2.500000 4.000000 10.500000 153 102 0
1.500000 4.000000 10.500000 153 102 0
3.000000 4.000000 6.000000 153 102 0
2.500000 4.000000 6.500000 153 102 0
4.000000 -3.500000 3.500000 153 102 0
-3.000000 4.000000 6.000000 153 102 0
-3.500000 4.000000 3.500000 153 102 0
3.000000 4.500000 4.500000 153 102 0
3.500000 4.000000 6.500000 153 102 0
-4.000000 3.500000 3.500000 153 102 0
-3.000000 4.500000 4.500000 153 102 0
-2.500000 4.000000 6.500000 153 102 0
4.000000 4.500000 6.500000 153 102 0
-3.000000 4.500000 5.500000 153 102 0
3.000000 -4.000000 4.000000 153 102 0
0.500000 4.000000 6.500000 153 102 0
-1.500000 4.000000 10.500000 153 102 0
-3.000000 4.000000 4.000000 153 102 0
1.000000 4.500000 5.500000 153 102 0
3.000000 4.500000 5.500000 153 102 0
2.000000 4.500000 6.500000 153 102 0
4.000000 3.000000 5.000000 153 102 0
4.000000 -3.000000 4.000000 153 102 0
3 0 1 2
3 3 0 2
3 4 5 6
3 7 4 6
3 2 1 8
3 3 2 8
3 6 5 9
3 7 6 9
3 10 11 12
3 13 10 12
3 14 15 16
3 17 14 16
3 12 11 18
3 13 12 18
3 16 15 19
3 17 16 19
3 20 21 22
3 23 24 25
3 26 27 28
3 29 30 31
3 32 33 34
3 35 36 30
3 37 38 39
3 40 26 20
3 32 41 23
3 42 43 44
3 45 46 47
3 48 49 50
3 45 51 52
3 53 44 54
3 55 56 36
3 57 58 48
3 59 60 31
3 47 61 62
3 42 50 63
3 64 56 65
3 66 62 67
3 68 69 70
3 71 72 51
3 73 74 59
3 75 76 64
3 66 74 73
3 75 71 76
3 77 78 79
3 80 51 72
3 81 38 82
3 19 77 83
3 4 33 25
3 53 37 84
3 85 31 60
3 61 86 87
3 55 88 49
3 89 61 90
3 35 91 92
3 93 35 94
3 80 56 95
3 94 96 46
3 97 27 98
3 99 27 37
3 67 100 82
3 63 92 101
3 45 94 46
3 102 49 88
3 43 103 86
3 104 98 105
3 4 106 5
3 87 103 107
3 3 97 104
3 85 62 89
3 108 70 78
3 29 89 90
3 101 46 96
3 107 101 96
3 95 55 109
3 93 52 110
3 49 111 112
3 113 7 9
3 100 44 114
3 115 10 13
3 52 95 109
3 77 116 83
3 117 48 58
3 118 37 39
3 79 119 116
3 34 78 70
3 55 112 109
3 14 77 15
3 120 61 87
3 114 43 120
3 10 39 11
3 104 22 21
3 68 14 17
3 43 90 120
3 121 80 72
3 37 27 84
3 114 87 122
3 106 24 123
3 55 93 110
3 1 21 28
3 94 63 124
3 47 92 91
3 61 91 125
3 75 65 58
3 113 34 33
3 101 42 63
3 13 81 115
3 100 122 82
3 36 76 73
3 118 126 99
3 104 0 3
3 97 1 28
3 44 84 42
3 112 52 109
3 124 50 102
3 29 86 125
3 73 76 45
3 124 127 96
3 24 40 22
3 24 105 123
3 117 128 111
3 115 119 126
3 102 129 127
3 106 9 5
3 121 72 69
3 91 29 125
3 60 100 85
3 41 34 130
3 98 126 78
3 41 84 40
3 116 119 107
3 58 80 117
3 113 123 131
3 129 111 128
3 52 88 110
3 57 70 69
3 38 53 54
3 77 108 78
3 80 95 51
3 66 67 74
3 81 18 11
3 67 82 74
3 38 74 82
3 81 11 39
3 39 38 81
3 19 15 77
3 23 25 33
3 4 7 33
3 33 32 23
3 53 38 37
3 85 89 31
3 61 125 86
3 55 110 88
3 89 62 61
3 35 30 91
3 93 36 35
3 80 65 56
3 94 124 96
3 97 28 27
3 99 98 27
3 67 85 100
3 63 35 92
3 45 93 94
3 102 50 49
3 43 42 103
3 104 97 98
3 4 25 106
3 87 86 103
3 3 8 97
3 85 67 62
3 108 68 70
3 29 31 89
3 101 92 46
3 107 103 101
3 95 56 55
3 93 45 52
3 49 48 111
3 113 33 7
3 100 54 44
3 115 118 10
3 52 51 95
3 77 79 116
3 117 111 48
3 118 99 37
3 79 126 119
3 34 131 78
3 55 49 112
3 14 108 77
3 120 90 61
3 114 44 43
3 10 118 39
3 104 105 22
3 68 108 14
3 43 29 90
3 121 117 80
3 40 84 27
3 27 26 40
3 114 120 87
3 106 25 24
3 55 36 93
3 26 28 21
3 1 0 21
3 21 20 26
3 94 35 63
3 47 46 92
3 61 47 91
3 57 69 58
3 75 64 65
3 58 69 75
3 113 131 34
3 101 103 42
3 13 18 81
3 100 114 122
3 59 31 73
3 36 56 76
3 73 31 30
3 56 64 76
3 73 30 36
3 118 115 126
3 104 21 0
3 97 8 1
3 130 57 48
3 50 42 84
3 130 48 50
3 53 84 44
3 130 50 84
3 112 129 52
3 124 63 50
3 29 43 86
3 47 62 73
3 66 73 62
3 76 71 51
3 45 47 73
3 76 51 45
3 124 102 127
3 20 22 40
3 24 23 41
3 41 40 24
3 24 22 105
3 117 121 128
3 115 81 119
3 102 88 129
3 106 113 9
3 68 17 19
3 83 121 69
3 68 19 83
3 71 75 72
3 69 68 83
3 72 75 69
3 91 30 29
3 60 54 100
3 70 130 34
3 41 32 34
3 78 131 123
3 123 105 98
3 98 99 126
3 126 79 78
3 78 123 98
3 41 130 84
3 128 121 83
3 128 83 116
3 127 129 128
3 107 96 127
3 122 87 107
3 81 82 122
3 128 116 127
3 119 81 122
3 107 127 116
3 119 122 107
3 58 65 80
3 113 106 123
3 129 112 111
3 52 129 88
3 57 130 70
3 60 59 74
3 74 38 54
3 54 60 74
