ply
format ascii 1.0
comment Created by Blender 2.78 (sub 0) - www.blender.org, source file: ''
element vertex 88
property float x
property float y
property float z
property uchar red
property uchar green
property uchar blue
element face 132
property list uchar uint vertex_indices
end_header
7.500000 7.500000 0.000000 0 220 0
-7.500000 7.500000 1.000000 0 220 0
7.500000 7.500000 1.000000 0 220 0
5.500000 2.500000 1.000000 0 220 0
4.500000 2.500000 2.000000 0 220 0
4.500000 2.500000 1.000000 0 220 0
-1.500000 1.500000 0.000000 0 100 0
-0.500000 0.500000 0.000000 0 100 0
-1.500000 0.500000 0.000000 0 100 0
2.500000 -4.500000 2.000000 0 220 0
3.500000 -5.500000 2.000000 0 220 0
3.500000 -4.500000 2.000000 0 220 0
-7.500000 -7.500000 1.000000 0 220 0
-7.500000 7.500000 0.000000 0 220 0
-7.500000 -7.500000 0.000000 0 220 0
5.500000 3.500000 2.000000 0 220 0
5.500000 2.500000 2.000000 0 220 0
-0.500000 1.500000 2.000000 0 220 0
-1.500000 1.500000 1.000000 0 220 0
-1.500000 1.500000 2.000000 0 220 0
-0.500000 0.500000 2.000000 0 220 0
-1.500000 0.500000 2.000000 0 220 0
2.500000 -5.500000 2.000000 0 220 0
2.500000 -4.500000 1.000000 0 220 0
2.500000 -5.500000 1.000000 0 220 0
3.500000 -4.500000 1.000000 0 220 0
3.500000 -5.500000 1.000000 0 220 0
2.500000 -4.500000 0.000000 0 100 0
3.500000 -5.500000 0.000000 0 100 0
2.500000 -5.500000 0.000000 0 100 0
4.500000 3.500000 0.000000 0 100 0
5.500000 2.500000 0.000000 0 100 0
4.500000 2.500000 0.000000 0 100 0
-5.500000 -1.500000 1.000000 0 220 0
-5.500000 -2.500000 2.000000 0 220 0
-5.500000 -2.500000 1.000000 0 220 0
-1.500000 4.500000 1.000000 0 220 0
-1.500000 3.500000 2.000000 0 220 0
-1.500000 3.500000 1.000000 0 220 0
-1.500000 0.500000 1.000000 0 220 0
-6.500000 -2.500000 2.000000 0 220 0
-6.500000 -1.500000 1.000000 0 220 0
-6.500000 -2.500000 1.000000 0 220 0
-2.500000 3.500000 1.000000 0 220 0
5.500000 3.500000 1.000000 0 220 0
-2.500000 3.500000 2.000000 0 220 0
-2.500000 4.500000 1.000000 0 220 0
-6.500000 -1.500000 2.000000 0 220 0
-2.500000 4.500000 2.000000 0 220 0
4.500000 3.500000 1.000000 0 220 0
7.500000 -7.500000 0.000000 0 220 0
4.500000 3.500000 0.000000 0 220 0
4.500000 2.500000 0.000000 0 220 0
-0.500000 1.500000 0.000000 0 220 0
-0.500000 1.500000 1.000000 0 220 0
-0.500000 0.500000 1.000000 0 220 0
7.500000 -7.500000 1.000000 0 220 0
-5.500000 -1.500000 2.000000 0 220 0
-2.500000 4.500000 0.000000 0 100 0
-1.500000 3.500000 0.000000 0 100 0
-2.500000 3.500000 0.000000 0 100 0
3.500000 -4.500000 0.000000 0 220 0
5.500000 2.500000 0.000000 0 220 0
-6.500000 -1.500000 0.000000 0 100 0
-5.500000 -2.500000 0.000000 0 100 0
-6.500000 -2.500000 0.000000 0 100 0
4.500000 3.500000 2.000000 0 220 0
-0.500000 1.500000 0.000000 0 100 0
3.500000 -4.500000 0.000000 0 100 0
5.500000 3.500000 0.000000 0 100 0
-1.500000 4.500000 2.000000 0 220 0
-6.500000 -2.500000 0.000000 0 220 0
-5.500000 -2.500000 0.000000 0 220 0
-1.500000 3.500000 0.000000 0 220 0
-1.500000 4.500000 0.000000 0 220 0
-2.500000 3.500000 0.000000 0 220 0
-1.500000 1.500000 0.000000 0 220 0
2.500000 -4.500000 0.000000 0 220 0
-1.500000 0.500000 0.000000 0 220 0
-0.500000 0.500000 0.000000 0 220 0
-6.500000 -1.500000 0.000000 0 220 0
-5.500000 -1.500000 0.000000 0 220 0
-1.500000 4.500000 0.000000 0 100 0
2.500000 -5.500000 0.000000 0 220 0
-2.500000 4.500000 0.000000 0 220 0
5.500000 3.500000 0.000000 0 220 0
3.500000 -5.500000 0.000000 0 220 0
-5.500000 -1.500000 0.000000 0 100 0
3 0 1 2
3 3 4 5
3 6 7 8
3 9 10 11
3 12 13 14
3 15 4 16
3 17 18 19
3 20 19 21
3 22 23 24
3 25 10 26
3 27 28 29
3 30 31 32
3 33 34 35
3 36 37 38
3 19 39 21
3 40 41 42
3 37 43 38
3 16 44 15
3 45 46 43
3 34 47 40
3 35 40 42
3 48 36 46
3 4 49 5
3 1 41 43
3 2 50 0
3 51 52 53
3 54 20 55
3 37 48 45
3 26 24 56
3 14 56 12
3 57 41 47
3 58 59 60
3 50 61 62
3 55 21 39
3 25 5 23
3 10 24 26
3 63 64 65
3 15 49 66
3 9 25 23
3 0 13 1
3 3 16 4
3 6 67 7
3 9 22 10
3 12 1 13
3 15 66 4
3 17 54 18
3 20 17 19
3 22 9 23
3 25 11 10
3 27 68 28
3 30 69 31
3 33 57 34
3 36 70 37
3 19 18 39
3 40 47 41
3 37 45 43
3 16 3 44
3 45 48 46
3 34 57 47
3 35 34 40
3 48 70 36
3 4 66 49
3 39 18 33
3 18 38 43
3 41 33 43
3 1 12 41
3 18 43 33
3 2 56 50
3 71 72 14
3 73 74 51
3 52 62 61
3 73 51 53
3 75 73 76
3 52 61 77
3 77 78 79
3 77 79 52
3 71 14 80
3 76 81 75
3 80 14 13
3 80 13 75
3 81 80 75
3 52 79 53
3 53 76 73
3 54 17 20
3 37 70 48
3 36 38 49
3 18 54 38
3 54 5 49
3 38 54 49
3 36 49 2
3 1 43 46
3 1 46 36
3 42 41 12
3 39 33 35
3 35 42 12
3 2 1 36
3 2 49 44
3 35 12 24
3 23 39 35
3 24 23 35
3 56 2 3
3 3 25 56
3 2 44 3
3 24 12 56
3 56 25 26
3 14 50 56
3 57 33 41
3 58 82 59
3 50 14 83
3 72 81 78
3 78 77 72
3 81 76 78
3 84 75 13
3 85 51 0
3 74 84 13
3 72 77 83
3 86 61 50
3 14 72 83
3 50 83 86
3 74 13 0
3 51 74 0
3 0 50 62
3 62 85 0
3 55 20 21
3 39 23 55
3 25 3 5
3 5 54 55
3 55 23 5
3 10 22 24
3 63 87 64
3 15 44 49
3 9 11 25
