ply
format ascii 1.0
comment Created by Blender 2.78 (sub 0) - www.blender.org, source file: ''
element vertex 88
property float x
property float y
property float z
property uchar red
property uchar green
property uchar blue
element face 132
property list uchar uint vertex_indices
end_header
-5.500000 -1.500000 2.000000 0 220 0
-6.500000 -2.500000 2.000000 0 220 0
-5.500000 -2.500000 2.000000 0 220 0
5.500000 2.500000 1.000000 0 220 0
5.500000 3.500000 2.000000 0 220 0
5.500000 2.500000 2.000000 0 220 0
-7.500000 7.500000 1.000000 0 220 0
-7.500000 -7.500000 0.000000 0 220 0
-7.500000 -7.500000 1.000000 0 220 0
5.500000 3.500000 0.000000 0 100 0
4.500000 2.500000 0.000000 0 100 0
4.500000 3.500000 0.000000 0 100 0
2.500000 -5.500000 1.000000 0 220 0
-5.500000 -2.500000 1.000000 0 220 0
-1.500000 1.500000 2.000000 0 220 0
-1.500000 0.500000 1.000000 0 220 0
-1.500000 0.500000 2.000000 0 220 0
-2.500000 4.500000 2.000000 0 220 0
-2.500000 3.500000 1.000000 0 220 0
-2.500000 3.500000 2.000000 0 220 0
-1.500000 4.500000 2.000000 0 220 0
-1.500000 3.500000 2.000000 0 220 0
2.500000 -4.500000 2.000000 0 220 0
3.500000 -5.500000 2.000000 0 220 0
3.500000 -4.500000 2.000000 0 220 0
-0.500000 1.500000 2.000000 0 220 0
-0.500000 0.500000 2.000000 0 220 0
-1.500000 3.500000 1.000000 0 220 0
-1.500000 4.500000 1.000000 0 220 0
-5.500000 -1.500000 1.000000 0 220 0
3.500000 -5.500000 1.000000 0 220 0
3.500000 -4.500000 0.000000 0 100 0
2.500000 -5.500000 0.000000 0 100 0
2.500000 -4.500000 0.000000 0 100 0
-6.500000 -1.500000 2.000000 0 220 0
2.500000 -5.500000 2.000000 0 220 0
-6.500000 -2.500000 1.000000 0 220 0
-7.500000 7.500000 0.000000 0 220 0
7.500000 7.500000 1.000000 0 220 0
7.500000 7.500000 0.000000 0 220 0
5.500000 3.500000 1.000000 0 220 0
4.500000 3.500000 1.000000 0 220 0
4.500000 3.500000 2.000000 0 220 0
3.500000 -4.500000 1.000000 0 220 0
7.500000 -7.500000 1.000000 0 220 0
-1.500000 1.500000 1.000000 0 220 0
4.500000 2.500000 1.000000 0 220 0
-1.500000 3.500000 0.000000 0 220 0
-1.500000 1.500000 0.000000 0 220 0
-2.500000 3.500000 0.000000 0 220 0
-1.500000 4.500000 0.000000 0 100 0
-2.500000 3.500000 0.000000 0 100 0
-2.500000 4.500000 0.000000 0 100 0
-0.500000 0.500000 1.000000 0 220 0
-0.500000 1.500000 1.000000 0 220 0
7.500000 -7.500000 0.000000 0 220 0
2.500000 -4.500000 1.000000 0 220 0
4.500000 2.500000 2.000000 0 220 0
-2.500000 4.500000 1.000000 0 220 0
-0.500000 1.500000 0.000000 0 100 0
-1.500000 0.500000 0.000000 0 100 0
-1.500000 1.500000 0.000000 0 100 0
-5.500000 -1.500000 0.000000 0 100 0
-6.500000 -2.500000 0.000000 0 100 0
-6.500000 -1.500000 0.000000 0 100 0
3.500000 -4.500000 0.000000 0 220 0
4.500000 2.500000 0.000000 0 220 0
5.500000 2.500000 0.000000 0 220 0
-5.500000 -2.500000 0.000000 0 220 0
-6.500000 -2.500000 0.000000 0 220 0
5.500000 2.500000 0.000000 0 100 0
-6.500000 -1.500000 1.000000 0 220 0
3.500000 -5.500000 0.000000 0 100 0
-1.500000 4.500000 0.000000 0 220 0
4.500000 3.500000 0.000000 0 220 0
-0.500000 1.500000 0.000000 0 220 0
-1.500000 0.500000 0.000000 0 220 0
-5.500000 -1.500000 0.000000 0 220 0
-6.500000 -1.500000 0.000000 0 220 0
-1.500000 3.500000 0.000000 0 100 0
-0.500000 0.500000 0.000000 0 100 0
-5.500000 -2.500000 0.000000 0 100 0
-2.500000 4.500000 0.000000 0 220 0
2.500000 -5.500000 0.000000 0 220 0
3.500000 -5.500000 0.000000 0 220 0
5.500000 3.500000 0.000000 0 220 0
2.500000 -4.500000 0.000000 0 220 0
-0.500000 0.500000 0.000000 0 220 0
3 0 1 2
3 3 4 5
3 6 7 8
3 9 10 11
3 8 12 13
3 14 15 16
3 17 18 19
3 20 19 21
3 22 23 24
3 25 16 26
3 20 27 28
3 0 13 29
3 23 12 30
3 31 32 33
3 29 34 0
3 22 12 35
3 2 36 13
3 37 38 39
3 19 27 21
3 40 38 41
3 4 41 42
3 24 30 43
3 44 39 38
3 45 18 29
3 5 46 3
3 47 48 49
3 50 51 52
3 25 53 54
3 55 8 7
3 24 56 22
3 34 36 1
3 4 57 5
3 26 15 53
3 20 58 17
3 25 45 14
3 59 60 61
3 62 63 64
3 42 46 57
3 65 66 67
3 68 7 69
3 0 34 1
3 3 40 4
3 6 37 7
3 9 70 10
3 36 71 8
3 44 3 43
3 44 43 30
3 71 6 8
3 15 29 13
3 13 36 8
3 8 44 12
3 12 56 13
3 44 30 12
3 15 13 56
3 56 53 15
3 14 45 15
3 17 58 18
3 20 17 19
3 22 35 23
3 25 14 16
3 20 21 27
3 0 2 13
3 23 35 12
3 31 72 32
3 29 71 34
3 22 56 12
3 2 1 36
3 37 6 38
3 19 18 27
3 28 27 41
3 40 3 38
3 28 41 38
3 6 18 58
3 6 58 28
3 3 44 38
3 6 28 38
3 4 40 41
3 24 23 30
3 44 55 39
3 54 53 46
3 56 43 46
3 46 41 54
3 43 3 46
3 53 56 46
3 41 27 54
3 18 6 71
3 71 29 18
3 45 54 27
3 29 15 45
3 45 27 18
3 5 57 46
3 47 73 74
3 74 66 75
3 48 76 77
3 74 75 47
3 78 49 77
3 47 75 48
3 48 77 49
3 50 79 51
3 25 26 53
3 55 44 8
3 24 43 56
3 34 71 36
3 4 42 57
3 26 16 15
3 20 28 58
3 25 54 45
3 59 80 60
3 62 81 63
3 42 41 46
3 82 49 37
3 55 7 83
3 55 83 84
3 82 37 73
3 85 74 39
3 73 37 39
3 39 55 67
3 65 86 66
3 55 84 65
3 74 73 39
3 75 66 87
3 67 85 39
3 86 76 87
3 87 66 86
3 67 55 65
3 68 77 76
3 76 86 68
3 37 49 78
3 37 78 7
3 86 83 68
3 68 83 7
3 7 78 69
