ply
format ascii 1.0
comment Created by Blender 2.78 (sub 0) - www.blender.org, source file: ''
element vertex 88
property float x
property float y
property float z
property uchar red
property uchar green
property uchar blue
element face 132
property list uchar uint vertex_indices
end_header
-0.500000 1.500000 1.000000 0 220 0
-0.500000 0.500000 2.000000 0 220 0
-0.500000 0.500000 1.000000 0 220 0
-2.500000 4.500000 0.000000 0 100 0
-1.500000 3.500000 0.000000 0 100 0
-2.500000 3.500000 0.000000 0 100 0
-1.500000 1.500000 2.000000 0 220 0
-1.500000 0.500000 2.000000 0 220 0
4.500000 3.500000 0.000000 0 100 0
5.500000 2.500000 0.000000 0 100 0
4.500000 2.500000 0.000000 0 100 0
-7.500000 -7.500000 0.000000 0 220 0
7.500000 -7.500000 1.000000 0 220 0
-7.500000 -7.500000 1.000000 0 220 0
4.500000 3.500000 2.000000 0 220 0
5.500000 3.500000 1.000000 0 220 0
4.500000 3.500000 1.000000 0 220 0
4.500000 2.500000 2.000000 0 220 0
4.500000 2.500000 1.000000 0 220 0
-1.500000 1.500000 1.000000 0 220 0
7.500000 7.500000 0.000000 0 220 0
-7.500000 7.500000 1.000000 0 220 0
7.500000 7.500000 1.000000 0 220 0
-2.500000 3.500000 2.000000 0 220 0
-2.500000 4.500000 1.000000 0 220 0
-2.500000 3.500000 1.000000 0 220 0
-5.500000 -2.500000 2.000000 0 220 0
-6.500000 -1.500000 2.000000 0 220 0
-6.500000 -2.500000 2.000000 0 220 0
-1.500000 1.500000 0.000000 0 100 0
-0.500000 0.500000 0.000000 0 100 0
-1.500000 0.500000 0.000000 0 100 0
7.500000 -7.500000 0.000000 0 220 0
-2.500000 4.500000 2.000000 0 220 0
-1.500000 4.500000 1.000000 0 220 0
-1.500000 3.500000 2.000000 0 220 0
-1.500000 3.500000 1.000000 0 220 0
-5.500000 -2.500000 1.000000 0 220 0
-6.500000 -2.500000 1.000000 0 220 0
-1.500000 0.500000 1.000000 0 220 0
5.500000 2.500000 1.000000 0 220 0
-7.500000 7.500000 0.000000 0 220 0
2.500000 -5.500000 2.000000 0 220 0
2.500000 -4.500000 1.000000 0 220 0
2.500000 -5.500000 1.000000 0 220 0
2.500000 -4.500000 0.000000 0 100 0
3.500000 -5.500000 0.000000 0 100 0
2.500000 -5.500000 0.000000 0 100 0
-0.500000 1.500000 0.000000 0 220 0
4.500000 2.500000 0.000000 0 220 0
-0.500000 0.500000 0.000000 0 220 0
5.500000 2.500000 2.000000 0 220 0
-5.500000 -2.500000 0.000000 0 220 0
2.500000 -5.500000 0.000000 0 220 0
-5.500000 -1.500000 1.000000 0 220 0
3.500000 -4.500000 2.000000 0 220 0
3.500000 -5.500000 2.000000 0 220 0
-1.500000 1.500000 0.000000 0 220 0
-5.500000 -1.500000 0.000000 0 220 0
-2.500000 3.500000 0.000000 0 220 0
3.500000 -4.500000 1.000000 0 220 0
5.500000 3.500000 2.000000 0 220 0
-6.500000 -1.500000 0.000000 0 100 0
-5.500000 -2.500000 0.000000 0 100 0
-6.500000 -2.500000 0.000000 0 100 0
-5.500000 -1.500000 2.000000 0 220 0
-6.500000 -1.500000 1.000000 0 220 0
3.500000 -5.500000 1.000000 0 220 0
2.500000 -4.500000 2.000000 0 220 0
5.500000 2.500000 0.000000 0 220 0
5.500000 3.500000 0.000000 0 220 0
-0.500000 1.500000 2.000000 0 220 0
-1.500000 4.500000 0.000000 0 100 0
5.500000 3.500000 0.000000 0 100 0
-0.500000 1.500000 0.000000 0 100 0
-1.500000 4.500000 2.000000 0 220 0
3.500000 -4.500000 0.000000 0 100 0
2.500000 -4.500000 0.000000 0 220 0
4.500000 3.500000 0.000000 0 220 0
3.500000 -5.500000 0.000000 0 220 0
-6.500000 -1.500000 0.000000 0 220 0
-6.500000 -2.500000 0.000000 0 220 0
-1.500000 3.500000 0.000000 0 220 0
-1.500000 4.500000 0.000000 0 220 0
-1.500000 0.500000 0.000000 0 220 0
-5.500000 -1.500000 0.000000 0 100 0
3.500000 -4.500000 0.000000 0 220 0
-2.500000 4.500000 0.000000 0 220 0
3 0 1 2
3 3 4 5
3 1 6 7
3 8 9 10
3 11 12 13
3 14 15 16
3 17 16 18
3 6 0 19
3 20 21 22
3 23 24 25
3 26 27 28
3 29 30 31
3 22 32 20
3 33 34 24
3 35 25 36
3 37 28 38
3 7 19 39
3 40 17 18
3 34 35 36
3 13 41 11
3 42 43 44
3 45 46 47
3 48 49 50
3 51 14 17
3 11 52 53
3 54 26 37
3 55 42 56
3 24 21 25
3 57 58 59
3 2 7 39
3 60 18 43
3 51 15 61
3 62 63 64
3 65 66 27
3 0 16 36
3 67 42 44
3 68 60 43
3 60 56 67
3 20 69 70
3 35 33 23
3 28 66 38
3 0 71 1
3 3 72 4
3 1 71 6
3 8 73 9
3 11 32 12
3 14 61 15
3 17 14 16
3 6 71 0
3 20 41 21
3 23 33 24
3 26 65 27
3 29 74 30
3 22 12 32
3 33 75 34
3 35 23 25
3 37 26 28
3 7 6 19
3 40 51 17
3 34 75 35
3 13 21 41
3 42 68 43
3 45 76 46
3 77 50 49
3 48 78 49
3 51 61 14
3 79 32 53
3 11 41 80
3 81 52 11
3 11 80 81
3 53 32 11
3 52 77 53
3 54 65 26
3 55 68 42
3 24 34 21
3 21 66 25
3 54 25 66
3 34 22 21
3 82 83 78
3 78 48 82
3 84 50 77
3 82 48 57
3 84 77 52
3 59 82 57
3 57 84 58
3 58 80 59
3 84 52 58
3 41 59 80
3 2 1 7
3 67 44 12
3 12 22 40
3 40 18 60
3 22 15 40
3 60 67 12
3 39 43 2
3 12 40 60
3 2 43 18
3 51 40 15
3 62 85 63
3 65 54 66
3 44 43 37
3 13 12 44
3 66 21 13
3 38 66 13
3 13 44 37
3 43 39 37
3 37 38 13
3 25 54 19
3 22 34 16
3 36 25 19
3 37 39 54
3 0 2 18
3 54 39 19
3 19 0 36
3 16 15 22
3 0 18 16
3 34 36 16
3 67 56 42
3 68 55 60
3 60 55 56
3 20 32 69
3 86 77 49
3 32 79 86
3 87 59 41
3 70 78 20
3 83 87 41
3 86 49 69
3 78 83 20
3 32 86 69
3 83 41 20
3 35 75 33
3 28 27 66
