ply
format ascii 1.0
comment Created by Blender 2.78 (sub 0) - www.blender.org, source file: ''
element vertex 20
property float x
property float y
property float z
property uchar red
property uchar green
property uchar blue
element face 36
property list uchar uint vertex_indices
end_header
-7.000000 -7.500000 0.500000 153 102 0
-7.500000 -7.000000 0.500000 153 102 0
-7.000000 -7.000000 0.000000 153 102 0
7.500000 -7.000000 0.500000 153 102 0
7.000000 -7.500000 0.500000 153 102 0
7.000000 -7.000000 0.000000 153 102 0
7.500000 -6.000000 0.500000 153 102 0
7.000000 7.500000 13.500000 153 102 0
7.500000 7.000000 13.500000 153 102 0
-7.000000 7.500000 14.500000 153 102 0
-7.500000 7.000000 14.500000 153 102 0
-7.000000 7.000000 15.000000 153 102 0
7.500000 7.000000 14.500000 153 102 0
7.000000 7.500000 14.500000 153 102 0
7.000000 7.000000 15.000000 153 102 0
7.000000 -6.000000 0.000000 153 102 0
-7.000000 7.500000 13.500000 153 102 0
-7.500000 7.000000 13.500000 153 102 0
-7.000000 -6.000000 0.000000 153 102 0
-7.500000 -6.000000 0.500000 153 102 0
3 0 1 2
3 3 4 5
3 6 7 8
3 9 10 11
3 12 13 14
3 11 13 9
3 8 13 12
3 14 0 4
3 15 16 7
3 17 18 19
3 5 0 2
3 0 10 1
3 9 17 10
3 4 12 14
3 18 1 19
3 10 19 1
3 3 15 6
3 5 18 15
3 8 3 6
3 13 16 9
3 6 15 7
3 11 14 13
3 8 7 13
3 14 11 0
3 15 18 16
3 17 16 18
3 5 4 0
3 0 11 10
3 9 16 17
3 4 3 12
3 18 2 1
3 10 17 19
3 3 5 15
3 5 2 18
3 8 12 3
3 13 7 16
