ply
format ascii 1.0
comment Created by Blender 2.78 (sub 0) - www.blender.org, source file: ''
element vertex 20
property float x
property float y
property float z
property uchar red
property uchar green
property uchar blue
element face 36
property list uchar uint vertex_indices
end_header
-7.000000 -7.500000 0.500000 153 102 0
-7.500000 -7.000000 0.500000 153 102 0
-7.000000 -7.000000 0.000000 153 102 0
7.500000 -7.000000 0.500000 153 102 0
7.000000 -7.500000 0.500000 153 102 0
7.000000 -7.000000 0.000000 153 102 0
-7.500000 7.000000 14.500000 153 102 0
-7.000000 7.500000 14.500000 153 102 0
-7.000000 7.000000 15.000000 153 102 0
7.500000 7.000000 14.500000 153 102 0
7.000000 7.500000 14.500000 153 102 0
7.000000 7.000000 15.000000 153 102 0
7.500000 -6.000000 0.500000 153 102 0
7.000000 7.500000 13.500000 153 102 0
7.500000 7.000000 13.500000 153 102 0
-7.000000 7.500000 13.500000 153 102 0
-7.500000 -6.000000 0.500000 153 102 0
-7.000000 -6.000000 0.000000 153 102 0
-7.500000 7.000000 13.500000 153 102 0
7.000000 -6.000000 0.000000 153 102 0
3 0 1 2
3 3 4 5
3 0 6 1
3 7 6 8
3 9 10 11
3 0 11 8
3 5 12 3
3 12 13 14
3 11 7 8
3 15 6 7
3 2 16 17
3 18 17 16
3 4 9 11
3 13 9 14
3 9 12 14
3 0 5 4
3 17 13 19
3 2 19 5
3 18 1 6
3 13 7 10
3 0 8 6
3 0 4 11
3 5 19 12
3 12 19 13
3 11 10 7
3 15 18 6
3 2 1 16
3 18 15 17
3 4 3 9
3 13 10 9
3 9 3 12
3 0 2 5
3 17 15 13
3 2 17 19
3 18 16 1
3 13 15 7
