ply
format ascii 1.0
comment Created by Blender 2.78 (sub 0) - www.blender.org, source file: ''
element vertex 20
property float x
property float y
property float z
property uchar red
property uchar green
property uchar blue
element face 36
property list uchar uint vertex_indices
end_header
-7.000000 -7.500000 0.500000 153 102 0
-7.500000 -7.000000 0.500000 153 102 0
-7.000000 -7.000000 0.000000 153 102 0
7.500000 -7.000000 0.500000 153 102 0
7.000000 -7.500000 0.500000 153 102 0
7.000000 -7.000000 0.000000 153 102 0
-7.000000 7.500000 14.500000 153 102 0
-7.500000 7.000000 14.500000 153 102 0
-7.000000 7.000000 15.000000 153 102 0
7.500000 7.000000 14.500000 153 102 0
7.000000 7.500000 14.500000 153 102 0
7.000000 7.000000 15.000000 153 102 0
7.500000 -6.000000 0.500000 153 102 0
7.000000 -6.000000 0.000000 153 102 0
7.000000 7.500000 13.500000 153 102 0
7.500000 7.000000 13.500000 153 102 0
-7.000000 -6.000000 0.000000 153 102 0
-7.000000 7.500000 13.500000 153 102 0
-7.500000 7.000000 13.500000 153 102 0
-7.500000 -6.000000 0.500000 153 102 0
3 0 1 2
3 3 4 5
3 6 7 8
3 9 10 11
3 12 5 13
3 0 7 1
3 4 9 11
3 12 14 15
3 14 16 17
3 7 17 18
3 19 2 1
3 18 16 19
3 12 9 3
3 6 11 10
3 11 0 4
3 5 0 2
3 1 18 19
3 6 14 17
3 9 14 10
3 13 2 16
3 12 3 5
3 0 8 7
3 4 3 9
3 12 13 14
3 14 13 16
3 7 6 17
3 19 16 2
3 18 17 16
3 12 15 9
3 6 8 11
3 11 8 0
3 5 4 0
3 1 7 18
3 6 10 14
3 9 15 14
3 13 5 2
