ply
format ascii 1.0
comment Created by Blender 2.78 (sub 0) - www.blender.org, source file: ''
element vertex 20
property float x
property float y
property float z
property uchar red
property uchar green
property uchar blue
element face 36
property list uchar uint vertex_indices
end_header
-7.000000 -7.500000 0.500000 153 102 0
-7.500000 -7.000000 0.500000 153 102 0
-7.000000 -7.000000 0.000000 153 102 0
7.500000 -7.000000 0.500000 153 102 0
7.000000 -7.500000 0.500000 153 102 0
7.000000 -7.000000 0.000000 153 102 0
-7.000000 7.500000 14.500000 153 102 0
-7.500000 7.000000 14.500000 153 102 0
-7.000000 7.000000 15.000000 153 102 0
7.500000 7.000000 14.500000 153 102 0
7.000000 7.500000 14.500000 153 102 0
7.000000 7.000000 15.000000 153 102 0
7.000000 7.500000 13.500000 153 102 0
7.500000 -6.000000 0.500000 153 102 0
7.500000 7.000000 13.500000 153 102 0
-7.500000 7.000000 13.500000 153 102 0
-7.000000 -6.000000 0.000000 153 102 0
-7.500000 -6.000000 0.500000 153 102 0
7.000000 -6.000000 0.000000 153 102 0
-7.000000 7.500000 13.500000 153 102 0
3 0 1 2
3 3 4 5
3 6 7 8
3 9 10 11
3 9 12 10
3 13 12 14
3 2 4 0
3 4 9 11
3 15 16 17
3 13 5 18
3 17 2 1
3 7 19 15
3 6 11 10
3 4 8 0
3 12 16 19
3 18 2 16
3 6 12 19
3 0 7 1
3 1 15 17
3 13 9 3
3 9 14 12
3 13 18 12
3 2 5 4
3 4 3 9
3 15 19 16
3 13 3 5
3 17 16 2
3 7 6 19
3 6 8 11
3 4 11 8
3 12 18 16
3 18 5 2
3 6 10 12
3 0 8 7
3 1 7 15
3 13 14 9
