ply
format ascii 1.0
comment Created by Blender 2.78 (sub 0) - www.blender.org, source file: ''
element vertex 20
property float x
property float y
property float z
property uchar red
property uchar green
property uchar blue
element face 36
property list uchar uint vertex_indices
end_header
-7.000000 -7.500000 0.500000 153 102 0
-7.500000 -7.000000 0.500000 153 102 0
-7.000000 -7.000000 0.000000 153 102 0
7.500000 -7.000000 0.500000 153 102 0
7.000000 -7.500000 0.500000 153 102 0
7.000000 -7.000000 0.000000 153 102 0
-7.000000 7.500000 14.500000 153 102 0
-7.500000 7.000000 14.500000 153 102 0
-7.000000 7.000000 15.000000 153 102 0
7.500000 7.000000 14.500000 153 102 0
7.000000 7.500000 14.500000 153 102 0
7.000000 7.000000 15.000000 153 102 0
-7.500000 7.000000 13.500000 153 102 0
-7.000000 -6.000000 0.000000 153 102 0
-7.500000 -6.000000 0.500000 153 102 0
7.000000 -6.000000 0.000000 153 102 0
7.500000 -6.000000 0.500000 153 102 0
7.500000 7.000000 13.500000 153 102 0
-7.000000 7.500000 13.500000 153 102 0
7.000000 7.500000 13.500000 153 102 0
3 0 1 2
3 3 4 5
3 6 7 8
3 9 10 11
3 12 13 14
3 11 0 4
3 5 0 2
3 0 7 1
3 6 12 7
3 8 10 6
3 3 15 16
3 5 13 15
3 17 10 9
3 10 18 6
3 13 1 14
3 17 3 16
3 16 19 17
3 4 9 11
3 15 18 19
3 7 14 1
3 12 18 13
3 11 8 0
3 5 4 0
3 0 8 7
3 6 18 12
3 8 11 10
3 3 5 15
3 5 2 13
3 17 19 10
3 10 19 18
3 13 2 1
3 17 9 3
3 16 15 19
3 4 3 9
3 15 13 18
3 7 12 14
