ply
format ascii 1.0
comment Created by Blender 2.78 (sub 0) - www.blender.org, source file: ''
element vertex 20
property float x
property float y
property float z
property uchar red
property uchar green
property uchar blue
element face 36
property list uchar uint vertex_indices
end_header
-7.000000 -7.500000 0.500000 153 102 0
-7.500000 -7.000000 0.500000 153 102 0
-7.000000 -7.000000 0.000000 153 102 0
7.500000 -7.000000 0.500000 153 102 0
7.000000 -7.500000 0.500000 153 102 0
7.000000 -7.000000 0.000000 153 102 0
7.500000 -6.000000 0.500000 153 102 0
-7.000000 7.500000 14.500000 153 102 0
-7.500000 7.000000 14.500000 153 102 0
-7.000000 7.000000 15.000000 153 102 0
7.500000 7.000000 14.500000 153 102 0
7.000000 7.500000 14.500000 153 102 0
7.000000 7.000000 15.000000 153 102 0
-7.000000 -6.000000 0.000000 153 102 0
7.000000 7.500000 13.500000 153 102 0
7.000000 -6.000000 0.000000 153 102 0
-7.500000 7.000000 13.500000 153 102 0
-7.500000 -6.000000 0.500000 153 102 0
7.500000 7.000000 13.500000 153 102 0
-7.000000 7.500000 13.500000 153 102 0
3 0 1 2
3 3 4 5
3 5 6 3
3 7 8 9
3 10 11 12
3 12 7 9
3 13 14 15
3 16 13 17
3 0 8 1
3 6 14 18
3 19 8 7
3 5 0 2
3 2 17 13
3 12 0 4
3 14 10 18
3 16 1 8
3 4 10 12
3 14 7 11
3 2 15 5
3 10 6 18
3 5 15 6
3 12 11 7
3 13 19 14
3 16 19 13
3 0 9 8
3 6 15 14
3 19 16 8
3 5 4 0
3 2 1 17
3 12 9 0
3 14 11 10
3 16 17 1
3 4 3 10
3 14 19 7
3 2 13 15
3 10 3 6
