ply
format ascii 1.0
comment Created by Blender 2.78 (sub 0) - www.blender.org, source file: ''
element vertex 20
property float x
property float y
property float z
property uchar red
property uchar green
property uchar blue
element face 36
property list uchar uint vertex_indices
end_header
-7.000000 -7.500000 0.500000 153 102 0
-7.500000 -7.000000 0.500000 153 102 0
-7.000000 -7.000000 0.000000 153 102 0
7.500000 -7.000000 0.500000 153 102 0
7.000000 -7.500000 0.500000 153 102 0
7.000000 -7.000000 0.000000 153 102 0
-7.000000 7.000000 15.000000 153 102 0
-7.000000 7.500000 14.500000 153 102 0
-7.500000 7.000000 14.500000 153 102 0
7.500000 7.000000 14.500000 153 102 0
7.000000 7.500000 14.500000 153 102 0
7.000000 7.000000 15.000000 153 102 0
-7.000000 -6.000000 0.000000 153 102 0
-7.500000 7.000000 13.500000 153 102 0
-7.500000 -6.000000 0.500000 153 102 0
7.500000 7.000000 13.500000 153 102 0
7.000000 7.500000 13.500000 153 102 0
7.000000 -6.000000 0.000000 153 102 0
7.500000 -6.000000 0.500000 153 102 0
-7.000000 7.500000 13.500000 153 102 0
3 0 1 2
3 3 4 5
3 4 6 0
3 7 8 6
3 9 10 11
3 10 6 11
3 2 4 0
3 1 12 2
3 13 12 14
3 10 15 16
3 0 8 1
3 4 9 11
3 17 3 5
3 18 16 15
3 19 10 16
3 13 7 19
3 3 15 9
3 12 5 2
3 19 17 12
3 14 8 13
3 4 11 6
3 10 7 6
3 2 5 4
3 1 14 12
3 13 19 12
3 10 9 15
3 0 6 8
3 4 3 9
3 17 18 3
3 18 17 16
3 19 7 10
3 13 8 7
3 3 18 15
3 12 17 5
3 19 16 17
3 14 1 8
