ply
format ascii 1.0
comment Created by Blender 2.78 (sub 0) - www.blender.org, source file: ''
element vertex 20
property float x
property float y
property float z
property uchar red
property uchar green
property uchar blue
element face 36
property list uchar uint vertex_indices
end_header
-7.000000 -7.500000 0.500000 153 102 0
-7.500000 -7.000000 0.500000 153 102 0
-7.000000 -7.000000 0.000000 153 102 0
7.500000 -7.000000 0.500000 153 102 0
7.000000 -7.500000 0.500000 153 102 0
7.000000 -7.000000 0.000000 153 102 0
-7.000000 7.000000 15.000000 153 102 0
-7.500000 7.000000 13.500000 153 102 0
-7.000000 -6.000000 0.000000 153 102 0
-7.500000 -6.000000 0.500000 153 102 0
7.500000 7.000000 14.500000 153 102 0
7.000000 7.000000 15.000000 153 102 0
-7.000000 7.500000 14.500000 153 102 0
-7.500000 7.000000 14.500000 153 102 0
7.000000 7.500000 14.500000 153 102 0
7.500000 -6.000000 0.500000 153 102 0
7.000000 7.500000 13.500000 153 102 0
7.500000 7.000000 13.500000 153 102 0
7.000000 -6.000000 0.000000 153 102 0
-7.000000 7.500000 13.500000 153 102 0
3 0 1 2
3 3 4 5
3 4 6 0
3 7 8 9
3 4 10 11
3 2 4 0
3 12 13 6
3 10 14 11
3 15 16 17
3 18 3 5
3 0 13 1
3 14 6 11
3 7 12 19
3 19 18 8
3 3 17 10
3 14 17 16
3 9 13 7
3 8 5 2
3 1 8 2
3 19 14 16
3 4 11 6
3 7 19 8
3 4 3 10
3 2 5 4
3 15 18 16
3 18 15 3
3 0 6 13
3 14 12 6
3 7 13 12
3 19 16 18
3 3 15 17
3 14 10 17
3 9 1 13
3 8 18 5
3 1 9 8
3 19 12 14
