ply
format ascii 1.0
comment Created by Blender 2.78 (sub 0) - www.blender.org, source file: ''
element vertex 20
property float x
property float y
property float z
property uchar red
property uchar green
property uchar blue
element face 36
property list uchar uint vertex_indices
end_header
-7.000000 -7.500000 0.500000 153 102 0
-7.500000 -7.000000 0.500000 153 102 0
-7.000000 -7.000000 0.000000 153 102 0
7.500000 -7.000000 0.500000 153 102 0
7.000000 -7.500000 0.500000 153 102 0
7.000000 -7.000000 0.000000 153 102 0
-7.000000 -6.000000 0.000000 153 102 0
-7.000000 7.500000 14.500000 153 102 0
-7.500000 7.000000 14.500000 153 102 0
-7.000000 7.000000 15.000000 153 102 0
7.500000 7.000000 14.500000 153 102 0
7.000000 7.500000 14.500000 153 102 0
7.000000 7.000000 15.000000 153 102 0
7.000000 -6.000000 0.000000 153 102 0
-7.000000 7.500000 13.500000 153 102 0
7.500000 7.000000 13.500000 153 102 0
7.000000 7.500000 13.500000 153 102 0
-7.500000 7.000000 13.500000 153 102 0
-7.500000 -6.000000 0.500000 153 102 0
7.500000 -6.000000 0.500000 153 102 0
3 0 1 2
3 3 4 5
3 1 6 2
3 7 8 9
3 10 11 12
3 13 3 5
3 11 9 12
3 0 5 4
3 14 13 6
3 11 15 16
3 17 6 18
3 0 12 9
3 19 16 15
3 17 7 14
3 4 10 12
3 0 8 1
3 6 5 2
3 18 8 17
3 14 11 16
3 3 15 10
3 1 18 6
3 13 19 3
3 11 7 9
3 0 2 5
3 14 16 13
3 11 10 15
3 17 14 6
3 0 4 12
3 19 13 16
3 17 8 7
3 4 3 10
3 0 9 8
3 6 13 5
3 18 1 8
3 14 7 11
3 3 19 15
