ply
format ascii 1.0
comment Created by Blender 2.78 (sub 0) - www.blender.org, source file: ''
element vertex 16
property float x
property float y
property float z
property uchar red
property uchar green
property uchar blue
element face 28
property list uchar uint vertex_indices
end_header
-7.000000 -7.500000 0.500000 153 102 0
-7.500000 -7.000000 0.500000 153 102 0
-7.000000 -7.000000 0.000000 153 102 0
7.500000 -7.000000 0.500000 153 102 0
7.000000 -7.500000 0.500000 153 102 0
7.000000 -7.000000 0.000000 153 102 0
-7.000000 -6.500000 0.500000 153 102 0
7.000000 -6.500000 0.500000 153 102 0
7.000000 -6.500000 24.500000 153 102 0
-7.000000 -7.000000 25.000000 153 102 0
7.000000 -7.000000 25.000000 153 102 0
-7.500000 -7.000000 24.500000 153 102 0
-7.000000 -7.500000 24.500000 153 102 0
7.500000 -7.000000 24.500000 153 102 0
7.000000 -7.500000 24.500000 153 102 0
-7.000000 -6.500000 24.500000 153 102 0
3 0 1 2
3 3 4 5
3 2 1 6
3 3 5 7
3 8 9 10
3 9 11 12
3 13 10 14
3 15 11 9
3 13 8 10
3 2 4 0
3 13 7 8
3 12 10 9
3 12 1 0
3 11 6 1
3 4 12 0
3 7 2 6
3 6 8 7
3 13 4 3
3 8 15 9
3 2 5 4
3 13 3 7
3 12 14 10
3 12 11 1
3 11 15 6
3 4 14 12
3 7 5 2
3 6 15 8
3 13 14 4
