ply
format ascii 1.0
comment Created by Blender 2.78 (sub 0) - www.blender.org, source file: ''
element vertex 16
property float x
property float y
property float z
property uchar red
property uchar green
property uchar blue
element face 28
property list uchar uint vertex_indices
end_header
-7.000000 -7.500000 0.500000 153 102 0
-7.500000 -7.000000 0.500000 153 102 0
-7.000000 -7.000000 0.000000 153 102 0
7.500000 -7.000000 0.500000 153 102 0
7.000000 -7.500000 0.500000 153 102 0
7.000000 -7.000000 0.000000 153 102 0
-7.000000 -6.500000 0.500000 153 102 0
7.000000 -6.500000 0.500000 153 102 0
-7.000000 -7.000000 25.000000 153 102 0
7.000000 -6.500000 24.500000 153 102 0
-7.000000 -6.500000 24.500000 153 102 0
-7.500000 -7.000000 24.500000 153 102 0
-7.000000 -7.500000 24.500000 153 102 0
7.500000 -7.000000 24.500000 153 102 0
7.000000 -7.000000 25.000000 153 102 0
7.000000 -7.500000 24.500000 153 102 0
3 0 1 2
3 3 4 5
3 2 1 6
3 3 5 7
3 8 9 10
3 2 7 5
3 8 11 12
3 13 14 15
3 10 11 8
3 13 9 14
3 14 12 15
3 0 15 12
3 9 6 10
3 0 5 4
3 7 13 3
3 6 11 10
3 0 11 1
3 4 13 15
3 8 14 9
3 2 6 7
3 14 8 12
3 0 4 15
3 9 7 6
3 0 2 5
3 7 9 13
3 6 1 11
3 0 12 11
3 4 3 13
