ply
format ascii 1.0
comment Created by Blender 2.78 (sub 0) - www.blender.org, source file: ''
element vertex 16
property float x
property float y
property float z
property uchar red
property uchar green
property uchar blue
element face 28
property list uchar uint vertex_indices
end_header
-7.000000 -7.500000 0.500000 153 102 0
-7.500000 -7.000000 0.500000 153 102 0
-7.000000 -7.000000 0.000000 153 102 0
7.500000 -7.000000 0.500000 153 102 0
7.000000 -7.500000 0.500000 153 102 0
7.000000 -7.000000 0.000000 153 102 0
-7.000000 -6.500000 0.500000 153 102 0
7.000000 -6.500000 0.500000 153 102 0
-7.000000 -7.000000 25.000000 153 102 0
-7.500000 -7.000000 24.500000 153 102 0
-7.000000 -7.500000 24.500000 153 102 0
7.500000 -7.000000 24.500000 153 102 0
7.000000 -7.000000 25.000000 153 102 0
7.000000 -7.500000 24.500000 153 102 0
-7.000000 -6.500000 24.500000 153 102 0
7.000000 -6.500000 24.500000 153 102 0
3 0 1 2
3 3 4 5
3 2 1 6
3 3 5 7
3 5 0 2
3 8 9 10
3 11 12 13
3 14 9 8
3 11 15 12
3 13 8 10
3 14 7 6
3 3 15 11
3 13 3 11
3 5 6 7
3 14 12 15
3 13 0 4
3 9 0 10
3 14 1 9
3 5 4 0
3 13 12 8
3 14 15 7
3 3 7 15
3 13 4 3
3 5 2 6
3 14 8 12
3 13 10 0
3 9 1 0
3 14 6 1
