ply
format ascii 1.0
comment Created by Blender 2.78 (sub 0) - www.blender.org, source file: ''
element vertex 16
property float x
property float y
property float z
property uchar red
property uchar green
property uchar blue
element face 28
property list uchar uint vertex_indices
end_header
-7.000000 -7.500000 0.500000 153 102 0
-7.500000 -7.000000 0.500000 153 102 0
-7.000000 -7.000000 0.000000 153 102 0
7.500000 -7.000000 0.500000 153 102 0
7.000000 -7.500000 0.500000 153 102 0
7.000000 -7.000000 0.000000 153 102 0
-7.000000 -6.500000 0.500000 153 102 0
7.000000 -6.500000 0.500000 153 102 0
7.000000 -7.500000 24.500000 153 102 0
-7.000000 -7.000000 25.000000 153 102 0
-7.000000 -7.500000 24.500000 153 102 0
-7.500000 -7.000000 24.500000 153 102 0
7.500000 -7.000000 24.500000 153 102 0
7.000000 -7.000000 25.000000 153 102 0
-7.000000 -6.500000 24.500000 153 102 0
7.000000 -6.500000 24.500000 153 102 0
3 0 1 2
3 3 4 5
3 2 1 6
3 3 5 7
3 8 9 10
3 9 11 10
3 12 13 8
3 14 11 9
3 12 15 13
3 14 13 15
3 5 6 7
3 2 4 0
3 3 15 12
3 4 10 0
3 14 7 6
3 10 1 0
3 8 3 12
3 14 1 11
3 8 13 9
3 14 9 13
3 5 2 6
3 2 5 4
3 3 7 15
3 4 8 10
3 14 15 7
3 10 11 1
3 8 4 3
3 14 6 1
