ply
format ascii 1.0
comment Created by Blender 2.78 (sub 0) - www.blender.org, source file: ''
element vertex 565
property float x
property float y
property float z
property uchar red
property uchar green
property uchar blue
element face 928
property list uchar uint vertex_indices
end_header
-2.000000 -1.500000 0.500000 255 255 0
-2.500000 -1.000000 0.500000 255 255 0
-2.000000 -1.000000 0.000000 255 255 0
-1.500000 -1.000000 0.500000 255 255 0
2.000000 -1.500000 0.500000 255 255 0
1.500000 -1.000000 0.500000 255 255 0
2.000000 -1.000000 0.000000 255 255 0
2.500000 -1.000000 0.500000 255 255 0
-2.000000 1.000000 0.000000 255 255 0
-2.500000 1.000000 0.500000 255 255 0
-2.000000 1.500000 0.500000 255 255 0
-1.500000 1.000000 0.500000 255 255 0
2.000000 1.000000 0.000000 255 255 0
1.500000 1.000000 0.500000 255 255 0
2.000000 1.500000 0.500000 255 255 0
2.500000 1.000000 0.500000 255 255 0
-2.000000 -1.000000 1.000000 255 255 0
2.000000 -1.000000 1.000000 255 255 0
-2.500000 0.500000 1.000000 0 255 51
-2.500000 1.000000 1.500000 0 255 51
-2.500000 1.000000 1.000000 0 255 51
-1.500000 0.500000 1.000000 0 255 51
-1.500000 1.000000 1.000000 0 255 51
-1.500000 1.000000 1.500000 0 255 51
1.500000 0.500000 1.000000 0 255 51
1.500000 1.000000 1.500000 0 255 51
1.500000 1.000000 1.000000 0 255 51
0.000000 -3.500000 18.500000 255 204 102
1.000000 -3.500000 19.500000 255 204 102
-1.000000 -3.500000 19.500000 255 204 102
2.500000 0.500000 1.000000 0 255 51
2.500000 1.000000 1.000000 0 255 51
2.500000 1.000000 1.500000 0 255 51
-6.000000 -2.500000 4.500000 255 204 102
-6.500000 -2.000000 4.500000 255 204 102
-6.000000 -2.000000 4.000000 255 204 102
-4.500000 -2.000000 4.500000 255 204 102
-5.000000 -2.500000 4.500000 255 204 102
-5.000000 -2.000000 4.000000 255 204 102
5.000000 -2.500000 4.500000 255 204 102
4.500000 -2.000000 4.500000 255 204 102
5.000000 -2.000000 4.000000 255 204 102
6.500000 -2.000000 4.500000 255 204 102
6.000000 -2.500000 4.500000 255 204 102
6.000000 -2.000000 4.000000 255 204 102
-6.000000 -1.000000 4.000000 255 204 102
-1.000000 -1.500000 4.500000 0 255 51
-1.500000 -1.000000 4.500000 0 255 51
-1.000000 -1.000000 4.000000 0 255 51
1.500000 -1.000000 4.500000 0 255 51
1.000000 -1.500000 4.500000 0 255 51
1.000000 -1.000000 4.000000 0 255 51
6.000000 -1.000000 4.000000 255 204 102
-6.000000 0.000000 4.000000 255 204 102
-6.500000 0.000000 4.500000 255 204 102
-6.000000 0.500000 4.500000 255 204 102
-5.500000 0.000000 4.500000 255 204 102
6.000000 0.000000 4.000000 255 204 102
5.500000 0.000000 4.500000 255 204 102
6.000000 0.500000 4.500000 255 204 102
6.500000 0.000000 4.500000 255 204 102
-1.500000 0.000000 4.500000 0 255 51
-1.500000 0.000000 5.500000 0 255 51
-1.000000 1.000000 5.000000 0 255 51
-2.000000 0.500000 5.500000 0 255 51
-2.000000 0.500000 4.500000 0 255 51
-1.500000 1.000000 4.500000 0 255 51
1.500000 0.000000 4.500000 0 255 51
1.000000 1.000000 5.000000 0 255 51
1.500000 0.000000 5.500000 0 255 51
2.000000 0.500000 5.500000 0 255 51
2.000000 0.500000 4.500000 0 255 51
1.500000 1.000000 4.500000 0 255 51
-1.000000 2.000000 5.000000 0 255 51
-1.500000 2.000000 5.500000 0 255 51
1.000000 2.000000 5.000000 0 255 51
1.500000 2.000000 5.500000 0 255 51
-1.000000 2.500000 5.500000 0 255 51
1.000000 2.500000 5.500000 0 255 51
-1.000000 -1.000000 6.000000 0 255 51
-1.500000 -1.000000 5.500000 0 255 51
-1.000000 -1.500000 5.500000 0 255 51
1.500000 -1.000000 5.500000 0 255 51
1.000000 -1.000000 6.000000 0 255 51
1.000000 -1.500000 5.500000 0 255 51
-5.000000 1.000000 6.000000 255 204 102
-5.000000 0.000000 6.000000 255 204 102
-6.000000 1.000000 6.000000 255 204 102
-1.500000 0.500000 6.000000 0 255 51
-2.000000 0.500000 6.000000 0 255 51
-1.500000 0.500000 6.000000 255 51 51
-1.000000 0.250000 6.250000 255 51 51
-1.000000 0.500000 6.500000 255 51 51
1.500000 0.500000 6.000000 0 255 51
2.000000 0.500000 6.000000 0 255 51
1.500000 0.500000 6.000000 255 51 51
1.000000 0.500000 6.500000 255 51 51
1.000000 0.250000 6.250000 255 51 51
5.000000 1.000000 6.000000 255 204 102
6.000000 1.000000 6.000000 255 204 102
5.000000 0.000000 6.000000 255 204 102
-4.500000 1.000000 6.500000 255 204 102
-5.000000 1.500000 6.500000 255 204 102
-1.500000 1.500000 6.000000 0 255 51
-2.000000 1.500000 5.500000 0 255 51
-2.000000 1.500000 6.000000 0 255 51
-1.500000 1.500000 6.000000 255 51 51
-1.000000 1.500000 6.500000 255 51 51
-1.000000 1.750000 6.250000 255 51 51
1.500000 1.500000 6.000000 0 255 51
2.000000 1.500000 6.000000 0 255 51
2.000000 1.500000 5.500000 0 255 51
1.500000 1.500000 6.000000 255 51 51
1.000000 1.750000 6.250000 255 51 51
1.000000 1.500000 6.500000 255 51 51
4.500000 1.000000 6.500000 255 204 102
5.000000 1.500000 6.500000 255 204 102
-3.500000 -2.000000 6.500000 255 204 102
-4.000000 -2.000000 7.000000 255 204 102
-4.000000 -2.500000 6.500000 255 204 102
4.000000 -2.000000 7.000000 255 204 102
3.500000 -2.000000 6.500000 255 204 102
4.000000 -2.500000 6.500000 255 204 102
-4.000000 -1.000000 7.000000 255 204 102
-5.000000 -2.000000 7.000000 255 204 102
5.000000 -2.000000 7.000000 255 204 102
4.000000 -1.000000 7.000000 255 204 102
-2.000000 -2.500000 16.500000 255 204 102
0.000000 -2.500000 16.500000 255 204 102
-1.000000 -2.500000 17.500000 255 204 102
-1.000000 -4.500000 15.500000 255 204 102
-2.500000 -3.000000 14.500000 255 204 102
-1.000000 -4.500000 14.500000 255 204 102
0.500000 -2.500000 21.000000 255 255 102
0.000000 -2.500000 21.500000 255 255 102
-0.500000 -2.500000 21.000000 255 255 102
1.000000 1.750000 6.250000 0 255 51
1.000000 -0.500000 10.500000 255 51 51
1.000000 -1.500000 11.500000 255 51 51
0.000000 -0.500000 11.500000 255 51 51
5.000000 -1.000000 11.000000 255 204 102
4.500000 -1.000000 10.500000 255 204 102
5.000000 -1.500000 10.500000 255 204 102
-4.000000 -0.500000 11.500000 255 204 102
-5.000000 -0.500000 11.500000 255 204 102
-4.000000 0.000000 11.000000 255 204 102
4.500000 0.000000 10.500000 255 204 102
-3.500000 2.500000 11.000000 255 51 51
-3.250000 3.000000 10.750000 255 51 51
-3.000000 3.000000 11.000000 255 51 51
-3.500000 2.500000 11.000000 255 204 102
-3.750000 2.000000 10.750000 255 204 102
-4.000000 2.000000 11.000000 255 204 102
3.500000 2.500000 11.000000 255 51 51
3.000000 3.000000 11.000000 255 51 51
3.250000 3.000000 10.750000 255 51 51
3.500000 2.500000 11.000000 255 204 102
4.000000 2.000000 11.000000 255 204 102
3.750000 2.000000 10.750000 255 204 102
-1.000000 -1.500000 11.500000 255 51 51
-1.000000 -0.500000 10.500000 255 51 51
-0.500000 -2.000000 25.500000 255 255 102
-0.500000 2.000000 21.500000 255 255 102
-0.500000 -2.000000 21.500000 255 255 102
-1.000000 0.000000 4.000000 0 255 51
-0.500000 -1.500000 14.000000 255 204 102
-1.000000 -2.000000 14.000000 255 204 102
-1.000000 -1.750000 13.750000 255 204 102
0.500000 -1.500000 14.000000 255 204 102
1.000000 -1.750000 13.750000 255 204 102
1.000000 -2.000000 14.000000 255 204 102
-6.000000 0.000000 14.000000 255 204 102
-6.500000 0.000000 13.500000 255 204 102
-6.000000 -0.500000 13.500000 255 204 102
0.500000 2.500000 21.000000 255 255 102
-0.500000 2.500000 21.000000 255 255 102
0.000000 2.500000 21.500000 255 255 102
6.500000 0.000000 13.500000 255 204 102
6.000000 0.000000 14.000000 255 204 102
6.000000 -0.500000 13.500000 255 204 102
-2.500000 0.500000 14.000000 255 51 51
-3.000000 0.000000 14.000000 255 51 51
-2.750000 0.000000 14.250000 255 51 51
-1.500000 1.500000 14.000000 255 51 51
-1.833330 0.833333 14.333300 255 51 51
2.500000 0.500000 14.000000 255 51 51
2.750000 0.000000 14.250000 255 51 51
3.000000 0.000000 14.000000 255 51 51
2.500000 1.000000 8.500000 255 51 51
2.500000 2.000000 9.500000 255 51 51
2.500000 0.000000 9.500000 255 51 51
-1.000000 1.750000 14.250000 255 51 51
-1.000000 2.000000 14.000000 255 51 51
1.500000 1.500000 14.000000 255 51 51
1.000000 2.000000 14.000000 255 51 51
1.000000 1.750000 14.250000 255 51 51
-2.500000 2.000000 9.500000 255 51 51
-2.500000 1.000000 8.500000 255 51 51
-2.500000 0.000000 9.500000 255 51 51
-6.000000 2.500000 13.500000 255 204 102
-6.500000 2.000000 13.500000 255 204 102
-6.000000 2.000000 14.000000 255 204 102
6.500000 2.000000 13.500000 255 204 102
6.000000 2.500000 13.500000 255 204 102
6.000000 2.000000 14.000000 255 204 102
-1.000000 1.500000 14.500000 255 204 102
-1.000000 1.500000 15.500000 255 204 102
0.000000 1.500000 14.500000 255 204 102
1.000000 1.500000 14.500000 255 204 102
1.000000 1.500000 15.500000 255 204 102
1.000000 0.000000 4.000000 0 255 51
0.000000 -4.500000 17.500000 255 204 102
-0.500000 -4.000000 17.500000 255 204 102
0.000000 -4.000000 17.000000 255 204 102
0.500000 -4.000000 17.500000 255 204 102
-0.500000 -3.000000 17.500000 255 204 102
-0.500000 -3.000000 18.500000 255 204 102
0.500000 -3.000000 17.500000 255 204 102
0.500000 -3.000000 18.500000 255 204 102
2.000000 -2.500000 16.500000 255 204 102
1.000000 -2.500000 17.500000 255 204 102
-1.500000 -1.500000 18.000000 255 204 102
-1.500000 -2.000000 17.500000 255 204 102
-1.500000 -2.000000 18.000000 255 204 102
1.500000 -1.500000 18.000000 255 204 102
1.500000 -2.000000 18.000000 255 204 102
1.500000 -2.000000 17.500000 255 204 102
3.750000 0.000000 10.750000 255 51 51
0.500000 2.000000 21.500000 255 255 102
0.500000 -2.000000 25.500000 255 255 102
0.500000 -2.000000 21.500000 255 255 102
1.833330 0.833333 14.333300 255 51 51
0.000000 -2.000000 26.000000 255 255 102
0.000000 -2.500000 25.500000 255 255 102
-2.000000 0.500000 1.500000 0 255 51
5.500000 -1.000000 4.500000 255 204 102
6.000000 2.500000 12.500000 255 204 102
6.500000 3.000000 11.500000 255 204 102
6.000000 3.500000 11.500000 255 204 102
-2.000000 0.500000 6.000000 255 51 51
-2.500000 1.000000 6.000000 255 51 51
2.000000 -3.000000 16.000000 255 204 102
6.000000 0.500000 5.500000 255 204 102
5.500000 0.000000 5.500000 255 204 102
2.500000 2.000000 17.500000 255 204 102
1.500000 -1.000000 18.500000 255 204 102
2.500000 -1.000000 17.500000 255 204 102
2.000000 0.500000 8.500000 255 51 51
2.500000 1.000000 6.000000 255 51 51
-2.500000 2.000000 17.500000 255 204 102
-1.500000 -1.000000 18.500000 255 204 102
-1.500000 2.000000 18.500000 255 204 102
-6.000000 1.500000 7.500000 255 204 102
-5.000000 3.500000 9.500000 255 204 102
-5.000000 1.500000 7.500000 255 204 102
4.000000 -0.500000 11.500000 255 204 102
6.000000 -0.500000 11.500000 255 204 102
1.500000 -2.000000 18.000000 204 255 255
0.750000 -2.750000 18.500000 204 255 255
0.750000 -2.750000 18.000000 204 255 255
-2.000000 1.500000 6.000000 255 51 51
-2.000000 1.500000 8.500000 255 51 51
2.000000 1.500000 6.000000 255 51 51
2.000000 1.500000 8.500000 255 51 51
4.500000 0.000000 6.500000 255 204 102
4.000000 -1.000000 6.000000 255 204 102
3.500000 -1.000000 6.500000 255 204 102
-2.000000 2.500000 17.500000 255 204 102
2.000000 0.500000 1.500000 0 255 51
2.000000 0.250000 1.250000 0 255 51
-4.000000 -1.000000 6.000000 255 204 102
-3.500000 -1.000000 6.500000 255 204 102
-6.000000 1.500000 6.500000 255 204 102
-3.750000 0.000000 10.750000 255 51 51
-6.500000 1.000000 6.500000 255 204 102
-6.500000 1.000000 7.500000 255 204 102
0.000000 -3.000000 17.000000 255 204 102
-2.500000 1.000000 6.000000 0 255 51
-5.500000 -1.000000 5.500000 255 204 102
-5.500000 -1.000000 4.500000 255 204 102
1.000000 -4.500000 14.500000 255 204 102
3.833330 2.833330 12.333300 255 204 102
4.000000 2.500000 12.500000 255 204 102
4.000000 3.500000 11.500000 255 204 102
4.000000 2.500000 13.500000 255 204 102
4.000000 -0.500000 13.500000 255 204 102
3.500000 -0.500000 14.000000 255 204 102
3.750000 -0.750000 13.500000 255 204 102
5.000000 -1.500000 9.500000 255 204 102
4.500000 -1.000000 9.500000 255 204 102
-5.000000 -1.500000 10.500000 255 204 102
-6.000000 -0.500000 11.500000 255 204 102
-6.000000 -1.500000 10.500000 255 204 102
-6.000000 3.500000 9.500000 255 204 102
-6.500000 3.000000 11.500000 255 204 102
-6.000000 3.500000 11.500000 255 204 102
2.000000 -2.000000 14.000000 255 204 102
2.500000 -1.500000 14.000000 255 204 102
2.500000 -1.000000 14.500000 255 204 102
-6.000000 0.500000 5.500000 255 204 102
-1.000000 -4.000000 14.000000 255 204 102
2.000000 1.500000 4.500000 0 255 51
-1.000000 1.750000 6.250000 0 255 51
-4.000000 2.500000 12.500000 255 204 102
-3.833330 2.833330 12.333300 255 204 102
-4.000000 3.500000 11.500000 255 204 102
2.500000 -3.000000 15.500000 255 204 102
2.500000 -3.000000 14.500000 255 204 102
-0.750000 2.000000 21.250000 255 204 102
-1.500000 -2.000000 20.500000 255 204 102
-0.750000 -2.000000 21.250000 255 204 102
1.500000 0.000000 0.500000 255 255 0
0.750000 -2.000000 21.250000 255 255 102
-3.000000 -1.000000 14.000000 255 51 51
-2.000000 0.000000 1.000000 255 255 0
-2.500000 0.500000 1.000000 255 255 0
-2.500000 0.000000 0.500000 255 255 0
6.500000 2.000000 12.500000 255 204 102
0.000000 2.500000 15.500000 255 204 102
1.500000 -2.000000 18.500000 204 255 255
1.500000 -1.500000 18.000000 204 255 255
1.500000 -1.500000 19.000000 204 255 255
1.000000 2.500000 18.500000 255 204 102
1.500000 2.000000 20.500000 255 204 102
1.500000 2.000000 18.500000 255 204 102
-3.750000 -0.750000 13.500000 255 51 51
-3.000000 -1.500000 11.500000 255 51 51
-3.000000 -1.500000 13.500000 255 51 51
-5.000000 -0.500000 8.500000 255 204 102
-4.500000 -1.000000 9.500000 255 204 102
-5.000000 -1.500000 9.500000 255 204 102
2.500000 0.000000 0.500000 255 255 0
2.500000 1.000000 1.000000 255 255 0
1.000000 -4.000000 14.000000 255 204 102
-3.500000 3.500000 11.000000 255 204 102
1.500000 0.500000 1.000000 255 255 0
-2.000000 1.500000 4.500000 0 255 51
2.000000 -3.000000 14.000000 255 204 102
-4.000000 -0.500000 13.500000 255 204 102
-3.500000 -0.500000 14.000000 255 204 102
-4.000000 0.000000 14.000000 255 204 102
3.000000 -0.500000 10.500000 255 51 51
3.000000 -1.500000 11.500000 255 51 51
0.750000 -2.000000 21.250000 255 204 102
1.500000 -2.000000 20.500000 255 204 102
-2.000000 -2.000000 14.000000 255 204 102
-2.000000 -3.000000 14.000000 255 204 102
6.500000 1.000000 6.500000 255 204 102
1.000000 -4.000000 16.000000 255 204 102
-1.000000 -4.000000 16.000000 255 204 102
6.000000 -0.500000 8.500000 255 204 102
6.500000 -1.000000 9.500000 255 204 102
6.000000 -1.500000 9.500000 255 204 102
0.000000 -0.500000 13.500000 255 51 51
-2.000000 -3.000000 16.000000 255 204 102
-2.000000 0.250000 1.250000 0 255 51
-4.500000 -1.000000 10.500000 255 204 102
2.500000 0.000000 14.500000 255 204 102
2.500000 0.000000 15.500000 255 204 102
-4.500000 -2.000000 5.500000 255 204 102
-4.000000 -2.000000 6.000000 255 204 102
-1.500000 1.000000 1.000000 255 255 0
0.750000 2.000000 21.250000 255 255 102
0.500000 -2.500000 21.000000 255 204 102
1.000000 -2.500000 20.500000 255 204 102
4.500000 -2.000000 5.500000 255 204 102
2.500000 0.500000 1.000000 255 255 0
2.500000 1.000000 6.000000 0 255 51
-2.500000 -1.000000 14.500000 255 204 102
-2.750000 -1.000000 14.250000 255 204 102
-2.500000 -1.500000 14.000000 255 204 102
-4.000000 2.500000 13.500000 255 204 102
-3.750000 2.750000 12.500000 255 204 102
3.000000 3.500000 13.500000 255 51 51
3.750000 2.750000 12.500000 255 51 51
3.000000 3.500000 12.500000 255 51 51
-6.000000 -0.500000 8.500000 255 204 102
-4.500000 1.000000 7.500000 255 204 102
-2.000000 1.500000 1.000000 255 255 0
2.000000 1.500000 1.000000 255 255 0
-1.500000 0.000000 0.500000 255 255 0
-3.500000 2.500000 14.000000 255 204 102
-3.750000 2.750000 13.500000 255 204 102
-1.000000 0.000000 6.000000 0 255 51
-1.500000 0.500000 1.000000 255 255 0
-2.000000 0.250000 1.250000 255 255 0
-6.500000 -1.000000 10.500000 255 204 102
-5.500000 0.000000 5.500000 255 204 102
-5.000000 -1.000000 6.000000 255 204 102
-4.500000 0.000000 6.500000 255 204 102
5.000000 -1.000000 6.000000 255 204 102
5.500000 -1.000000 5.500000 255 204 102
-3.000000 -0.500000 10.500000 255 51 51
3.000000 -1.500000 13.500000 255 51 51
3.750000 -0.750000 11.500000 255 51 51
3.750000 -0.750000 13.500000 255 51 51
5.000000 1.500000 7.500000 255 204 102
4.500000 1.000000 7.500000 255 204 102
6.000000 3.500000 9.500000 255 204 102
5.000000 3.500000 9.500000 255 204 102
-1.500000 -2.000000 18.000000 204 255 255
-0.750000 -2.750000 18.500000 204 255 255
-1.500000 -2.000000 18.500000 204 255 255
3.750000 2.750000 13.500000 255 204 102
2.750000 0.000000 14.250000 255 204 102
-0.750000 -2.750000 18.000000 255 204 102
-3.750000 0.000000 10.750000 255 204 102
-3.500000 -0.500000 11.000000 255 204 102
2.000000 0.000000 1.000000 255 255 0
2.000000 0.250000 1.250000 255 255 0
-6.000000 2.500000 12.500000 255 204 102
6.000000 -2.500000 6.500000 255 204 102
6.500000 -2.000000 6.500000 255 204 102
6.500000 0.000000 5.500000 255 204 102
-0.750000 2.000000 21.250000 255 255 102
3.000000 2.500000 10.500000 255 51 51
2.000000 2.500000 17.500000 255 204 102
1.000000 2.500000 20.500000 255 204 102
0.750000 2.000000 21.250000 255 204 102
-6.500000 3.000000 9.500000 255 204 102
-3.000000 3.000000 14.000000 255 51 51
-3.000000 3.500000 13.500000 255 51 51
5.000000 -0.500000 8.500000 255 204 102
4.500000 0.000000 8.500000 255 204 102
-3.750000 2.750000 13.500000 255 51 51
3.250000 3.000000 10.750000 255 204 102
4.500000 2.000000 10.500000 255 204 102
-1.500000 -1.500000 18.000000 204 255 255
4.000000 0.000000 11.000000 255 204 102
3.000000 3.000000 14.000000 255 51 51
3.750000 2.750000 13.500000 255 51 51
-4.500000 2.000000 10.500000 255 204 102
-4.500000 0.000000 8.500000 255 204 102
6.000000 1.500000 7.500000 255 204 102
6.500000 3.000000 9.500000 255 204 102
6.500000 1.000000 7.500000 255 204 102
-2.000000 2.500000 9.500000 255 51 51
-3.000000 2.500000 10.500000 255 51 51
-1.500000 -2.500000 19.000000 204 255 255
-0.833333 -2.833330 18.666700 204 255 255
6.500000 0.000000 8.500000 255 204 102
2.500000 -1.750000 13.750000 255 204 102
-1.500000 -3.000000 19.500000 255 204 102
-0.833333 -2.833330 18.666700 255 204 102
6.500000 -1.000000 10.500000 255 204 102
-6.000000 -1.500000 9.500000 255 204 102
-6.500000 -1.000000 9.500000 255 204 102
0.000000 -1.000000 14.000000 255 204 102
-0.166667 -0.833333 13.666700 255 204 102
0.000000 -0.750000 13.750000 255 204 102
-1.000000 -2.500000 20.500000 255 204 102
4.000000 0.000000 14.000000 255 204 102
4.000000 2.000000 14.000000 255 204 102
3.500000 2.500000 14.000000 255 204 102
3.750000 2.000000 10.750000 255 51 51
1.500000 -1.500000 19.000000 255 204 102
1.000000 0.000000 6.000000 0 255 51
-1.000000 0.250000 6.250000 0 255 51
-3.500000 3.500000 11.000000 255 51 51
-3.000000 3.500000 11.500000 255 51 51
1.000000 -1.500000 13.500000 255 51 51
0.500000 -1.500000 14.000000 255 51 51
0.166667 -0.833333 13.666700 255 51 51
-4.500000 -1.000000 7.500000 255 204 102
3.500000 3.500000 11.000000 255 51 51
3.000000 -1.000000 14.000000 255 51 51
-3.000000 3.500000 12.500000 255 51 51
4.000000 -2.000000 6.000000 255 204 102
-1.000000 2.500000 18.500000 255 204 102
-1.833330 0.833333 14.333300 255 204 102
-2.500000 0.000000 14.500000 255 204 102
1.000000 1.750000 14.250000 255 204 102
-1.000000 1.750000 14.250000 255 204 102
2.000000 1.500000 1.000000 0 255 51
-6.500000 0.000000 8.500000 255 204 102
-6.500000 2.000000 12.500000 255 204 102
-0.166667 -0.833333 13.666700 255 51 51
-1.000000 -1.500000 13.500000 255 51 51
0.166667 -0.833333 13.666700 255 204 102
-6.500000 0.000000 11.500000 255 204 102
-0.500000 -2.500000 21.000000 255 204 102
-6.500000 0.000000 5.500000 255 204 102
-3.500000 3.500000 12.000000 255 51 51
-3.750000 2.750000 12.500000 255 51 51
6.500000 0.000000 11.500000 255 204 102
-5.000000 -2.500000 5.500000 255 204 102
3.000000 3.500000 11.500000 255 51 51
4.500000 3.000000 9.500000 255 204 102
3.500000 3.500000 11.000000 255 204 102
4.500000 -1.000000 7.500000 255 204 102
2.000000 2.500000 9.500000 255 51 51
-2.500000 -1.500000 14.000000 255 51 51
0.750000 -2.750000 18.000000 255 204 102
-2.000000 -0.500000 9.500000 255 51 51
-2.000000 0.500000 8.500000 255 51 51
-2.500000 0.000000 15.500000 255 204 102
-2.500000 -3.000000 15.500000 255 204 102
0.833333 -2.833330 18.666700 255 204 102
-1.000000 2.500000 20.500000 255 204 102
-1.500000 2.000000 20.500000 255 204 102
3.750000 -0.750000 11.500000 255 204 102
-3.750000 -0.750000 13.500000 255 204 102
3.500000 -0.500000 11.000000 255 204 102
-2.500000 -1.750000 13.750000 255 51 51
-1.000000 -1.750000 13.750000 255 51 51
1.500000 -2.500000 19.000000 204 255 255
-4.000000 2.000000 14.000000 255 204 102
-3.250000 3.000000 10.750000 255 204 102
-4.500000 3.000000 9.500000 255 204 102
5.000000 -2.500000 5.500000 255 204 102
-1.500000 -1.500000 19.000000 255 204 102
2.500000 -1.750000 13.750000 255 51 51
-6.500000 -2.000000 6.500000 255 204 102
-6.000000 -2.500000 6.500000 255 204 102
3.500000 3.500000 12.000000 255 51 51
-2.000000 1.500000 1.000000 0 255 51
2.750000 -1.000000 14.250000 255 51 51
1.833330 0.833333 14.333300 255 204 102
2.000000 -0.500000 9.500000 255 51 51
-2.500000 -1.000000 17.500000 255 204 102
3.500000 -0.500000 11.000000 255 51 51
2.000000 0.500000 6.000000 255 51 51
6.000000 -1.500000 10.500000 255 204 102
-3.750000 2.000000 10.750000 255 51 51
1.000000 -4.500000 15.500000 255 204 102
3.750000 2.750000 12.500000 255 204 102
3.500000 3.500000 12.000000 255 204 102
2.750000 -1.000000 14.250000 255 204 102
-3.500000 3.500000 12.000000 255 204 102
-2.750000 -1.000000 14.250000 255 51 51
-3.750000 -0.750000 11.500000 255 51 51
1.500000 1.000000 1.000000 255 255 0
-0.750000 -2.000000 21.250000 255 255 102
6.000000 1.500000 6.500000 255 204 102
1.500000 -3.000000 19.500000 255 204 102
-2.500000 -1.750000 13.750000 255 204 102
-2.500000 1.000000 1.000000 255 255 0
-3.500000 -0.500000 11.000000 255 51 51
-0.750000 -2.750000 18.000000 204 255 255
-0.750000 -2.750000 18.500000 255 204 102
-3.750000 -0.750000 11.500000 255 204 102
0.500000 2.500000 21.000000 255 204 102
-3.500000 2.500000 14.000000 255 51 51
-1.500000 -1.500000 19.000000 204 255 255
3.750000 0.000000 10.750000 255 204 102
3.500000 2.500000 14.000000 255 51 51
-1.500000 -2.500000 19.000000 255 204 102
1.500000 -2.500000 19.000000 255 204 102
1.000000 0.250000 6.250000 0 255 51
1.000000 -1.750000 13.750000 255 51 51
0.000000 -0.750000 13.750000 255 51 51
2.500000 -1.500000 14.000000 255 51 51
3.500000 -0.500000 14.000000 255 51 51
-0.500000 2.500000 21.000000 255 204 102
-2.750000 0.000000 14.250000 255 204 102
-2.500000 0.500000 14.000000 255 204 102
-1.500000 1.500000 14.000000 255 204 102
-0.500000 -1.500000 14.000000 255 51 51
-3.833330 2.833330 12.333300 255 51 51
-3.500000 -0.500000 14.000000 255 51 51
0.750000 -2.750000 18.500000 255 204 102
0.833333 -2.833330 18.666700 204 255 255
3.833330 2.833330 12.333300 255 51 51
2.500000 0.500000 14.000000 255 204 102
1.500000 1.500000 14.000000 255 204 102
3 0 1 2
3 3 0 2
3 4 5 6
3 7 4 6
3 8 9 10
3 11 8 10
3 12 13 14
3 15 12 14
3 1 0 16
3 16 0 3
3 17 5 4
3 7 17 4
3 18 19 20
3 21 22 23
3 24 25 26
3 27 28 29
3 30 31 32
3 33 34 35
3 36 37 38
3 39 40 41
3 42 43 44
3 35 45 38
3 46 47 48
3 49 50 51
3 44 41 52
3 53 54 55
3 56 53 55
3 57 58 59
3 60 57 59
3 61 62 63
3 62 64 63
3 64 65 63
3 63 65 66
3 67 68 69
3 69 68 70
3 70 68 71
3 68 72 71
3 73 63 74
3 75 76 68
3 73 74 77
3 76 75 78
3 79 80 81
3 82 83 84
3 85 86 87
3 88 89 64
3 90 91 92
3 93 70 94
3 95 96 97
3 98 99 100
3 101 85 102
3 103 104 105
3 106 107 108
3 109 110 111
3 112 113 114
3 98 115 116
3 117 118 119
3 120 121 122
3 118 123 124
3 120 125 126
3 127 128 129
3 130 131 132
3 133 134 135
3 77 136 78
3 137 138 139
3 140 141 142
3 143 144 145
3 141 140 146
3 147 148 149
3 150 151 152
3 153 154 155
3 156 157 158
3 159 160 139
3 161 162 163
3 61 63 164
3 165 166 167
3 168 169 170
3 171 172 173
3 174 175 176
3 177 178 179
3 180 181 182
3 183 180 184
3 185 186 187
3 188 189 190
3 183 191 192
3 193 194 195
3 196 197 198
3 199 200 201
3 202 203 204
3 205 206 207
3 208 207 209
3 68 67 210
3 211 212 213
3 214 211 213
3 215 212 216
3 217 218 214
3 128 219 220
3 221 222 223
3 224 225 226
3 189 227 190
3 228 229 230
3 193 231 185
3 232 161 233
3 229 232 233
3 66 234 23
3 235 41 40
3 236 237 238
3 25 71 72
3 239 197 240
3 219 128 241
3 242 58 243
3 244 245 246
3 247 248 188
3 249 250 251
3 252 253 254
3 255 140 256
3 257 258 259
3 260 197 261
3 188 262 263
3 264 265 266
3 251 267 249
3 268 24 269
3 117 270 271
3 272 85 87
3 273 196 198
3 252 274 275
3 276 220 217
3 64 89 277
3 278 36 279
3 280 130 132
3 281 282 283
3 203 282 284
3 285 286 287
3 214 276 217
3 288 141 289
3 290 291 292
3 293 294 295
3 282 238 283
3 296 297 298
3 299 274 87
3 279 38 45
3 131 300 132
3 301 68 76
3 302 74 103
3 303 304 305
3 306 280 307
3 308 309 310
3 6 311 12
3 42 52 60
3 100 242 243
3 230 133 312
3 313 182 181
3 314 315 316
3 317 203 202
3 126 264 266
3 41 43 39
3 206 267 318
3 319 320 321
3 322 323 324
3 151 145 152
3 325 326 327
3 328 329 330
3 12 331 6
3 53 45 54
3 14 332 15
3 333 132 300
3 192 195 194
3 305 334 253
3 285 256 179
3 92 97 96
3 335 13 311
3 104 336 277
3 170 300 166
3 296 307 337
3 338 339 340
3 138 341 342
3 46 80 47
3 164 47 61
3 163 135 134
3 323 343 344
3 131 345 346
3 99 347 242
3 219 246 226
3 130 348 349
3 120 266 121
3 350 351 352
3 353 159 139
3 349 241 354
3 234 18 355
3 86 299 87
3 79 62 80
3 356 330 329
3 357 209 358
3 359 360 119
3 10 361 11
3 16 316 1
3 362 230 312
3 343 363 364
3 171 338 340
3 39 365 40
3 345 167 166
3 366 15 332
3 70 71 367
3 368 369 370
3 371 372 303
3 373 374 375
3 138 353 139
3 330 376 328
3 101 254 377
3 69 83 82
3 9 378 10
3 13 379 14
3 11 380 8
3 371 381 382
3 62 383 88
3 314 384 385
3 291 386 292
3 124 119 118
3 387 388 278
3 270 389 271
3 365 390 391
3 392 273 198
3 279 387 278
3 393 394 395
3 396 115 397
3 268 30 32
3 398 396 399
3 400 401 402
3 282 403 284
3 298 404 357
3 210 63 68
3 201 371 199
3 405 129 215
3 27 212 211
3 145 406 407
3 229 134 230
3 359 388 360
3 279 53 56
3 408 366 409
3 371 410 199
3 411 42 412
3 75 77 78
3 254 272 252
3 60 242 413
3 414 163 162
3 35 37 33
3 389 123 271
3 415 149 154
3 416 324 244
3 417 418 323
3 252 419 293
3 420 373 421
3 422 289 423
3 201 172 171
3 424 420 421
3 265 121 266
3 425 426 156
3 427 400 402
3 50 81 46
3 134 161 163
3 428 158 157
3 429 430 373
3 209 416 244
3 301 367 32
3 431 356 432
3 1 316 2
3 145 431 152
3 433 434 435
3 415 436 437
3 352 142 288
3 125 350 422
3 62 47 80
3 438 401 439
3 350 412 440
3 276 212 215
3 296 169 441
3 442 443 29
3 27 214 218
3 234 21 23
3 444 352 351
3 445 386 446
3 447 448 449
3 159 327 326
3 17 311 5
3 359 37 36
3 28 450 29
3 451 452 286
3 284 453 452
3 380 16 3
3 415 454 189
3 434 238 237
3 245 323 455
3 83 383 79
3 456 457 383
3 49 210 67
3 149 458 459
3 460 461 462
3 463 328 124
3 154 464 155
3 393 395 465
3 109 76 136
3 255 146 140
3 466 424 421
3 365 122 467
3 350 288 422
3 389 85 101
3 468 417 322
3 205 469 470
3 285 178 451
3 471 472 207
3 271 118 117
3 408 335 311
3 98 264 115
3 473 26 25
3 376 446 474
3 56 299 387
3 199 475 200
3 353 476 477
3 474 419 275
3 390 243 391
3 478 447 449
3 173 479 291
3 364 480 450
3 299 54 481
3 210 48 164
3 393 138 342
3 482 483 466
3 256 444 484
3 63 336 74
3 243 235 391
3 388 270 360
3 384 11 361
3 33 37 485
3 466 375 486
3 114 108 107
3 487 488 399
3 81 83 79
3 422 423 489
3 261 490 263
3 294 410 295
3 391 40 365
3 313 327 491
3 331 17 7
3 492 220 225
3 433 116 396
3 247 493 494
3 495 368 496
3 497 28 218
3 308 498 499
3 176 229 228
3 420 192 194
3 283 399 488
3 285 500 255
3 295 303 305
3 450 310 309
3 129 276 215
3 143 501 338
3 498 251 499
3 470 369 368
3 487 397 423
3 502 428 255
3 503 477 504
3 505 258 319
3 92 96 247
3 506 340 381
3 315 9 316
3 265 390 467
3 334 507 508
3 330 292 445
3 49 69 82
3 202 178 177
3 411 509 43
3 291 144 173
3 434 484 440
3 51 46 48
3 428 426 146
3 307 333 337
3 510 499 250
3 511 460 393
3 376 512 513
3 175 162 176
3 374 514 375
3 69 70 93
3 326 160 159
3 82 50 49
3 177 256 484
3 75 63 73
3 306 298 358
3 347 433 435
3 23 22 515
3 203 452 204
3 144 356 145
3 187 516 465
3 517 208 357
3 263 107 261
3 137 518 341
3 512 33 513
3 127 519 496
3 57 235 58
3 436 261 196
3 431 507 150
3 116 99 98
3 341 227 520
3 206 470 495
3 130 496 131
3 77 302 136
3 189 454 227
3 66 65 234
3 235 52 41
3 236 317 237
3 25 268 71
3 239 494 197
3 354 241 128
3 128 127 354
3 242 59 58
3 244 324 245
3 247 521 248
3 249 519 250
3 252 293 253
3 522 256 140
3 140 142 522
3 257 319 258
3 260 240 197
3 188 248 262
3 264 100 265
3 251 468 267
3 268 25 24
3 117 360 270
3 272 102 85
3 273 523 196
3 252 272 274
3 276 128 220
3 277 19 65
3 65 64 277
3 19 234 65
3 278 359 36
3 280 524 130
3 281 525 282
3 283 526 281
3 203 236 282
3 285 451 286
3 214 213 276
3 288 142 141
3 290 144 291
3 293 419 294
3 282 236 238
3 296 441 297
3 297 527 298
3 272 87 274
3 299 481 274
3 279 36 38
3 131 346 300
3 301 72 68
3 104 103 74
3 302 77 74
3 303 372 304
3 304 528 305
3 306 524 280
3 308 499 309
3 13 12 311
3 6 5 311
3 57 60 52
3 42 44 52
3 100 99 242
3 230 134 133
3 313 529 182
3 314 385 315
3 317 236 203
3 126 489 264
3 41 44 43
3 206 495 249
3 249 267 206
3 318 207 206
3 319 257 320
3 321 505 319
3 322 417 323
3 151 406 145
3 325 530 326
3 328 432 329
3 7 6 331
3 12 15 331
3 34 54 45
3 45 35 34
3 14 379 332
3 333 280 132
3 192 191 195
3 253 293 295
3 305 528 334
3 253 295 305
3 285 255 256
3 92 91 97
3 335 531 13
3 104 74 336
3 336 515 19
3 19 277 336
3 515 20 19
3 277 105 104
3 447 168 165
3 170 296 337
3 337 333 170
3 300 346 166
3 166 165 168
3 346 345 166
3 170 333 300
3 166 168 170
3 296 298 307
3 338 501 339
3 138 137 341
3 46 81 80
3 164 48 47
3 163 532 135
3 323 418 343
3 131 368 345
3 413 242 347
3 99 533 347
3 226 220 219
3 241 348 524
3 224 226 246
3 241 524 306
3 245 224 246
3 219 241 306
3 306 246 219
3 130 524 348
3 120 126 266
3 350 440 351
3 353 477 159
3 349 348 241
3 234 19 18
3 86 387 299
3 79 383 62
3 356 290 330
3 357 208 209
3 119 485 359
3 360 117 119
3 10 378 361
3 16 314 316
3 362 228 230
3 28 534 364
3 344 343 364
3 364 534 344
3 171 173 338
3 39 509 365
3 345 535 167
3 366 331 15
3 32 367 71
3 94 70 367
3 71 268 32
3 345 368 370
3 370 535 345
3 371 382 372
3 373 430 374
3 138 460 353
3 330 445 376
3 101 102 254
3 69 456 83
3 9 536 378
3 13 531 379
3 2 8 380
3 380 3 2
3 371 506 381
3 457 88 383
3 64 62 88
3 314 380 384
3 291 479 386
3 124 328 376
3 513 119 124
3 124 376 513
3 387 86 388
3 270 86 389
3 365 467 390
3 197 494 198
3 392 326 537
3 198 494 493
3 537 273 392
3 326 530 537
3 198 493 392
3 279 56 387
3 393 342 394
3 396 116 115
3 268 269 30
3 398 433 396
3 400 538 401
3 282 525 403
3 298 527 404
3 210 164 63
3 201 506 371
3 215 216 405
3 405 223 129
3 216 539 405
3 223 222 129
3 27 216 212
3 407 540 143
3 143 145 407
3 229 233 134
3 359 278 388
3 279 45 53
3 408 331 366
3 371 303 410
3 411 43 42
3 75 73 77
3 254 102 272
3 60 59 242
3 414 532 163
3 35 38 37
3 389 463 123
3 486 154 149
3 415 437 149
3 149 459 486
3 416 322 324
3 417 541 418
3 252 275 419
3 420 429 373
3 422 288 289
3 201 200 172
3 424 542 420
3 265 467 121
3 157 156 426
3 425 487 426
3 543 427 402
3 402 438 543
3 50 84 81
3 134 233 161
3 428 544 158
3 429 545 430
3 209 207 318
3 318 416 209
3 244 358 209
3 301 76 111
3 111 110 367
3 32 31 473
3 111 367 301
3 32 473 301
3 463 389 377
3 377 508 431
3 389 101 377
3 356 329 432
3 432 463 377
3 377 431 432
3 8 2 316
3 316 9 8
3 145 356 431
3 433 398 434
3 415 490 436
3 352 522 142
3 125 120 122
3 411 350 125
3 125 122 411
3 62 61 47
3 438 402 401
3 350 411 412
3 276 213 212
3 296 170 169
3 27 29 216
3 442 546 443
3 443 539 216
3 216 29 443
3 27 211 214
3 234 355 21
3 444 522 352
3 445 292 386
3 447 165 448
3 159 477 327
3 17 408 311
3 359 485 37
3 28 364 450
3 451 178 204
3 452 453 286
3 451 204 452
3 284 403 453
3 380 314 16
3 188 263 189
3 415 154 153
3 189 263 490
3 153 454 415
3 490 415 189
3 434 398 238
3 245 324 323
3 323 344 455
3 534 547 344
3 455 224 245
3 344 547 455
3 83 456 383
3 456 548 457
3 49 51 210
3 149 148 458
3 353 460 462
3 549 461 460
3 462 550 353
3 463 432 328
3 124 123 463
3 154 486 464
3 516 551 465
3 511 393 551
3 395 552 465
3 465 551 393
3 78 136 76
3 109 111 76
3 255 428 146
3 466 483 424
3 121 467 122
3 365 509 122
3 350 352 288
3 389 86 85
3 416 318 322
3 468 498 417
3 318 267 468
3 541 417 498
3 322 318 468
3 498 553 541
3 554 470 555
3 205 472 556
3 469 555 470
3 205 556 469
3 285 179 178
3 205 207 472
3 208 471 207
3 271 123 118
3 408 409 335
3 98 100 264
3 25 72 301
3 301 473 25
3 376 445 446
3 56 55 299
3 199 410 475
3 353 550 476
3 476 557 477
3 504 477 557
3 481 54 34
3 34 512 481
3 474 446 386
3 479 172 475
3 474 386 479
3 481 512 474
3 275 274 481
3 294 419 479
3 172 200 475
3 475 294 479
3 275 481 474
3 474 479 419
3 390 100 243
3 478 168 447
3 173 172 479
3 364 363 480
3 299 55 54
3 210 51 48
3 393 460 138
3 482 558 483
3 256 522 444
3 63 66 336
3 243 58 235
3 388 86 270
3 384 380 11
3 513 33 485
3 485 119 513
3 458 482 459
3 466 421 373
3 375 514 486
3 466 373 375
3 459 482 466
3 514 464 486
3 486 459 466
3 114 113 108
3 399 396 487
3 487 425 488
3 396 397 487
3 81 84 83
3 125 422 489
3 489 126 125
3 261 436 490
3 294 475 410
3 391 235 40
3 503 491 327
3 313 559 325
3 491 529 313
3 325 327 313
3 331 408 17
3 226 225 220
3 492 560 218
3 217 220 492
3 492 218 217
3 433 533 116
3 247 518 493
3 496 519 495
3 495 470 368
3 519 249 495
3 368 131 496
3 218 560 497
3 497 547 534
3 534 28 497
3 27 218 28
3 308 553 498
3 362 174 228
3 176 232 229
3 228 174 176
3 193 545 429
3 187 465 552
3 552 545 187
3 429 420 194
3 542 559 181
3 181 180 542
3 559 313 181
3 187 545 185
3 194 193 429
3 542 180 183
3 542 183 420
3 185 545 193
3 183 192 420
3 283 238 399
3 398 399 238
3 488 526 283
3 285 287 500
3 295 410 303
3 309 442 450
3 450 480 310
3 442 29 450
3 129 128 276
3 143 540 501
3 498 468 251
3 470 554 369
3 423 289 146
3 146 426 423
3 289 141 146
3 264 489 423
3 397 115 264
3 426 487 423
3 397 264 423
3 255 500 502
3 502 544 428
3 503 327 477
3 505 561 258
3 247 494 92
3 239 90 92
3 96 95 521
3 494 239 92
3 96 521 247
3 506 201 171
3 340 339 381
3 506 171 340
3 315 536 9
3 265 100 390
3 377 254 508
3 253 334 508
3 508 254 253
3 330 290 292
3 49 67 69
3 202 204 178
3 411 122 509
3 509 39 43
3 338 173 144
3 144 143 338
3 413 347 435
3 435 434 440
3 317 202 177
3 434 237 484
3 42 60 413
3 413 435 440
3 317 177 484
3 484 444 351
3 440 412 413
3 484 351 440
3 237 317 484
3 412 42 413
3 51 50 46
3 428 157 426
3 307 280 333
3 510 546 309
3 442 309 546
3 499 251 250
3 250 221 510
3 510 309 499
3 511 549 460
3 376 474 512
3 232 176 162
3 175 414 162
3 162 161 232
3 374 562 514
3 93 548 456
3 456 69 93
3 326 392 160
3 82 84 50
3 177 179 256
3 75 68 63
3 244 246 358
3 306 307 298
3 298 357 358
3 358 246 306
3 347 533 433
3 515 336 23
3 66 23 336
3 203 284 452
3 144 290 356
3 187 186 516
3 404 563 357
3 517 564 208
3 471 208 564
3 357 563 517
3 260 261 107
3 263 262 114
3 262 112 114
3 107 106 260
3 263 114 107
3 137 139 160
3 160 392 493
3 493 518 137
3 137 160 493
3 512 34 33
3 127 129 222
3 221 250 519
3 127 222 519
3 130 349 354
3 222 221 519
3 496 130 354
3 354 127 496
3 57 52 235
3 523 147 437
3 437 436 196
3 147 149 437
3 261 197 196
3 196 523 437
3 150 152 431
3 431 508 507
3 116 533 99
3 394 342 520
3 341 518 190
3 247 188 190
3 190 227 341
3 520 342 341
3 518 247 190
3 206 205 470
