ply
format ascii 1.0
comment Created by Blender 2.78 (sub 0) - www.blender.org, source file: ''
element vertex 565
property float x
property float y
property float z
property uchar red
property uchar green
property uchar blue
element face 928
property list uchar uint vertex_indices
end_header
-2.000000 -1.500000 0.500000 255 255 0
-2.500000 -1.000000 0.500000 255 255 0
-2.000000 -1.000000 0.000000 255 255 0
-1.500000 -1.000000 0.500000 255 255 0
2.000000 -1.500000 0.500000 255 255 0
1.500000 -1.000000 0.500000 255 255 0
2.000000 -1.000000 0.000000 255 255 0
2.500000 -1.000000 0.500000 255 255 0
-2.000000 1.000000 0.000000 255 255 0
-2.500000 1.000000 0.500000 255 255 0
-2.000000 1.500000 0.500000 255 255 0
-1.500000 1.000000 0.500000 255 255 0
2.000000 1.000000 0.000000 255 255 0
1.500000 1.000000 0.500000 255 255 0
2.000000 1.500000 0.500000 255 255 0
2.500000 1.000000 0.500000 255 255 0
-2.000000 -1.000000 1.000000 255 255 0
2.000000 -1.000000 1.000000 255 255 0
-2.500000 0.500000 1.000000 0 255 51
-2.500000 1.000000 1.500000 0 255 51
-2.500000 1.000000 1.000000 0 255 51
-1.500000 0.500000 1.000000 0 255 51
-1.500000 1.000000 1.000000 0 255 51
-1.500000 1.000000 1.500000 0 255 51
1.500000 0.500000 1.000000 0 255 51
1.500000 1.000000 1.500000 0 255 51
1.500000 1.000000 1.000000 0 255 51
0.000000 -3.500000 18.500000 255 204 102
1.000000 -3.500000 19.500000 255 204 102
-1.000000 -3.500000 19.500000 255 204 102
2.500000 0.500000 1.000000 0 255 51
2.500000 1.000000 1.000000 0 255 51
2.500000 1.000000 1.500000 0 255 51
-6.000000 -2.500000 4.500000 255 204 102
-6.500000 -2.000000 4.500000 255 204 102
-6.000000 -2.000000 4.000000 255 204 102
-4.500000 -2.000000 4.500000 255 204 102
-5.000000 -2.500000 4.500000 255 204 102
-5.000000 -2.000000 4.000000 255 204 102
5.000000 -2.500000 4.500000 255 204 102
4.500000 -2.000000 4.500000 255 204 102
5.000000 -2.000000 4.000000 255 204 102
6.500000 -2.000000 4.500000 255 204 102
6.000000 -2.500000 4.500000 255 204 102
6.000000 -2.000000 4.000000 255 204 102
-6.000000 -1.000000 4.000000 255 204 102
-1.000000 -1.500000 4.500000 0 255 51
-1.500000 -1.000000 4.500000 0 255 51
-1.000000 -1.000000 4.000000 0 255 51
1.500000 -1.000000 4.500000 0 255 51
1.000000 -1.500000 4.500000 0 255 51
1.000000 -1.000000 4.000000 0 255 51
6.000000 -1.000000 4.000000 255 204 102
-6.000000 0.000000 4.000000 255 204 102
-6.500000 0.000000 4.500000 255 204 102
-6.000000 0.500000 4.500000 255 204 102
-5.500000 0.000000 4.500000 255 204 102
6.000000 0.000000 4.000000 255 204 102
5.500000 0.000000 4.500000 255 204 102
6.000000 0.500000 4.500000 255 204 102
6.500000 0.000000 4.500000 255 204 102
-1.500000 0.000000 4.500000 0 255 51
-1.500000 0.000000 5.500000 0 255 51
-1.000000 1.000000 5.000000 0 255 51
-2.000000 0.500000 5.500000 0 255 51
-2.000000 0.500000 4.500000 0 255 51
-1.500000 1.000000 4.500000 0 255 51
1.500000 0.000000 4.500000 0 255 51
1.000000 1.000000 5.000000 0 255 51
1.500000 0.000000 5.500000 0 255 51
2.000000 0.500000 5.500000 0 255 51
2.000000 0.500000 4.500000 0 255 51
1.500000 1.000000 4.500000 0 255 51
-1.000000 2.000000 5.000000 0 255 51
-1.500000 2.000000 5.500000 0 255 51
1.000000 2.000000 5.000000 0 255 51
1.500000 2.000000 5.500000 0 255 51
-1.000000 2.500000 5.500000 0 255 51
1.000000 2.500000 5.500000 0 255 51
-1.000000 -1.000000 6.000000 0 255 51
-1.500000 -1.000000 5.500000 0 255 51
-1.000000 -1.500000 5.500000 0 255 51
1.500000 -1.000000 5.500000 0 255 51
1.000000 -1.000000 6.000000 0 255 51
1.000000 -1.500000 5.500000 0 255 51
-5.000000 1.000000 6.000000 255 204 102
-5.000000 0.000000 6.000000 255 204 102
-6.000000 1.000000 6.000000 255 204 102
-1.500000 0.500000 6.000000 0 255 51
-2.000000 0.500000 6.000000 0 255 51
-1.500000 0.500000 6.000000 255 51 51
-1.000000 0.250000 6.250000 255 51 51
-1.000000 0.500000 6.500000 255 51 51
1.500000 0.500000 6.000000 0 255 51
2.000000 0.500000 6.000000 0 255 51
1.500000 0.500000 6.000000 255 51 51
1.000000 0.500000 6.500000 255 51 51
1.000000 0.250000 6.250000 255 51 51
5.000000 1.000000 6.000000 255 204 102
6.000000 1.000000 6.000000 255 204 102
5.000000 0.000000 6.000000 255 204 102
-4.500000 1.000000 6.500000 255 204 102
-5.000000 1.500000 6.500000 255 204 102
-1.500000 1.500000 6.000000 0 255 51
-2.000000 1.500000 5.500000 0 255 51
-2.000000 1.500000 6.000000 0 255 51
-1.500000 1.500000 6.000000 255 51 51
-1.000000 1.500000 6.500000 255 51 51
-1.000000 1.750000 6.250000 255 51 51
1.500000 1.500000 6.000000 0 255 51
2.000000 1.500000 6.000000 0 255 51
2.000000 1.500000 5.500000 0 255 51
1.500000 1.500000 6.000000 255 51 51
1.000000 1.750000 6.250000 255 51 51
1.000000 1.500000 6.500000 255 51 51
4.500000 1.000000 6.500000 255 204 102
5.000000 1.500000 6.500000 255 204 102
-3.500000 -2.000000 6.500000 255 204 102
-4.000000 -2.000000 7.000000 255 204 102
-4.000000 -2.500000 6.500000 255 204 102
4.000000 -2.000000 7.000000 255 204 102
3.500000 -2.000000 6.500000 255 204 102
4.000000 -2.500000 6.500000 255 204 102
-4.000000 -1.000000 7.000000 255 204 102
-5.000000 -2.000000 7.000000 255 204 102
5.000000 -2.000000 7.000000 255 204 102
4.000000 -1.000000 7.000000 255 204 102
-2.000000 -2.500000 16.500000 255 204 102
0.000000 -2.500000 16.500000 255 204 102
-1.000000 -2.500000 17.500000 255 204 102
0.500000 -2.500000 21.000000 255 255 102
0.000000 -2.500000 21.500000 255 255 102
-0.500000 -2.500000 21.000000 255 255 102
1.000000 -0.500000 10.500000 255 51 51
1.000000 -1.500000 11.500000 255 51 51
0.000000 -0.500000 11.500000 255 51 51
5.000000 -1.000000 11.000000 255 204 102
4.500000 -1.000000 10.500000 255 204 102
5.000000 -1.500000 10.500000 255 204 102
-4.000000 -0.500000 11.500000 255 204 102
-5.000000 -0.500000 11.500000 255 204 102
-4.000000 0.000000 11.000000 255 204 102
4.500000 0.000000 10.500000 255 204 102
-3.500000 2.500000 11.000000 255 51 51
-3.250000 3.000000 10.750000 255 51 51
-3.000000 3.000000 11.000000 255 51 51
-3.500000 2.500000 11.000000 255 204 102
-3.750000 2.000000 10.750000 255 204 102
-4.000000 2.000000 11.000000 255 204 102
3.500000 2.500000 11.000000 255 51 51
3.000000 3.000000 11.000000 255 51 51
3.250000 3.000000 10.750000 255 51 51
3.500000 2.500000 11.000000 255 204 102
4.000000 2.000000 11.000000 255 204 102
3.750000 2.000000 10.750000 255 204 102
-1.000000 -1.500000 11.500000 255 51 51
-1.000000 -0.500000 10.500000 255 51 51
-0.500000 -2.000000 25.500000 255 255 102
-0.500000 2.000000 21.500000 255 255 102
-0.500000 -2.000000 21.500000 255 255 102
-1.000000 0.000000 4.000000 0 255 51
-0.500000 -1.500000 14.000000 255 204 102
-1.000000 -2.000000 14.000000 255 204 102
-1.000000 -1.750000 13.750000 255 204 102
0.500000 -1.500000 14.000000 255 204 102
1.000000 -1.750000 13.750000 255 204 102
1.000000 -2.000000 14.000000 255 204 102
-6.000000 0.000000 14.000000 255 204 102
-6.500000 0.000000 13.500000 255 204 102
-6.000000 -0.500000 13.500000 255 204 102
0.500000 2.500000 21.000000 255 255 102
-0.500000 2.500000 21.000000 255 255 102
0.000000 2.500000 21.500000 255 255 102
6.500000 0.000000 13.500000 255 204 102
6.000000 0.000000 14.000000 255 204 102
6.000000 -0.500000 13.500000 255 204 102
-2.500000 0.500000 14.000000 255 51 51
-3.000000 0.000000 14.000000 255 51 51
-2.750000 0.000000 14.250000 255 51 51
-1.500000 1.500000 14.000000 255 51 51
-1.833330 0.833333 14.333300 255 51 51
2.500000 0.500000 14.000000 255 51 51
2.750000 0.000000 14.250000 255 51 51
3.000000 0.000000 14.000000 255 51 51
2.500000 1.000000 8.500000 255 51 51
2.500000 2.000000 9.500000 255 51 51
2.500000 0.000000 9.500000 255 51 51
-1.000000 1.750000 14.250000 255 51 51
-1.000000 2.000000 14.000000 255 51 51
1.500000 1.500000 14.000000 255 51 51
1.000000 2.000000 14.000000 255 51 51
1.000000 1.750000 14.250000 255 51 51
-2.500000 2.000000 9.500000 255 51 51
-2.500000 1.000000 8.500000 255 51 51
-2.500000 0.000000 9.500000 255 51 51
-6.000000 2.500000 13.500000 255 204 102
-6.500000 2.000000 13.500000 255 204 102
-6.000000 2.000000 14.000000 255 204 102
6.500000 2.000000 13.500000 255 204 102
6.000000 2.500000 13.500000 255 204 102
6.000000 2.000000 14.000000 255 204 102
-1.000000 1.500000 14.500000 255 204 102
-1.000000 1.500000 15.500000 255 204 102
0.000000 1.500000 14.500000 255 204 102
1.000000 1.500000 14.500000 255 204 102
1.000000 1.500000 15.500000 255 204 102
1.000000 0.000000 4.000000 0 255 51
0.000000 -4.500000 17.500000 255 204 102
-0.500000 -4.000000 17.500000 255 204 102
0.000000 -4.000000 17.000000 255 204 102
0.500000 -4.000000 17.500000 255 204 102
-0.500000 -3.000000 17.500000 255 204 102
-0.500000 -3.000000 18.500000 255 204 102
0.500000 -3.000000 17.500000 255 204 102
0.500000 -3.000000 18.500000 255 204 102
2.000000 -2.500000 16.500000 255 204 102
1.000000 -2.500000 17.500000 255 204 102
-1.500000 -1.500000 18.000000 255 204 102
-1.500000 -2.000000 17.500000 255 204 102
-1.500000 -2.000000 18.000000 255 204 102
1.500000 -1.500000 18.000000 255 204 102
1.500000 -2.000000 18.000000 255 204 102
1.500000 -2.000000 17.500000 255 204 102
0.500000 2.000000 21.500000 255 255 102
0.500000 -2.000000 25.500000 255 255 102
0.500000 -2.000000 21.500000 255 255 102
1.833330 0.833333 14.333300 255 51 51
0.000000 -2.000000 26.000000 255 255 102
0.000000 -2.500000 25.500000 255 255 102
3.750000 -0.750000 13.500000 255 51 51
3.000000 -1.500000 11.500000 255 51 51
3.750000 -0.750000 11.500000 255 51 51
2.500000 -3.000000 14.500000 255 204 102
1.000000 -4.500000 15.500000 255 204 102
1.000000 -4.500000 14.500000 255 204 102
-2.500000 0.000000 15.500000 255 204 102
-2.500000 0.000000 14.500000 255 204 102
-3.750000 2.000000 10.750000 255 51 51
3.833330 2.833330 12.333300 255 204 102
4.000000 2.500000 12.500000 255 204 102
4.000000 3.500000 11.500000 255 204 102
2.000000 -2.000000 14.000000 255 204 102
2.000000 -3.000000 14.000000 255 204 102
1.500000 -2.000000 20.500000 255 204 102
0.750000 2.000000 21.250000 255 204 102
0.750000 -2.000000 21.250000 255 204 102
1.000000 -2.500000 20.500000 255 204 102
-1.000000 -2.500000 20.500000 255 204 102
-0.750000 -2.000000 21.250000 255 204 102
-1.500000 2.000000 20.500000 255 204 102
-1.500000 -2.000000 20.500000 255 204 102
6.000000 1.500000 6.500000 255 204 102
2.000000 1.500000 8.500000 255 51 51
2.500000 1.000000 6.000000 255 51 51
2.000000 1.500000 6.000000 255 51 51
-3.000000 -1.500000 13.500000 255 51 51
-3.750000 -0.750000 11.500000 255 51 51
-3.000000 -1.500000 11.500000 255 51 51
6.000000 1.500000 7.500000 255 204 102
6.500000 3.000000 9.500000 255 204 102
6.500000 1.000000 7.500000 255 204 102
-4.500000 1.000000 7.500000 255 204 102
-5.000000 1.500000 7.500000 255 204 102
4.000000 -0.500000 13.500000 255 204 102
3.500000 -0.500000 14.000000 255 204 102
3.750000 -0.750000 13.500000 255 204 102
-2.000000 0.000000 1.000000 255 255 0
-2.500000 0.500000 1.000000 255 255 0
-2.500000 0.000000 0.500000 255 255 0
-1.000000 -4.500000 14.500000 255 204 102
-2.500000 -3.000000 15.500000 255 204 102
-2.500000 -3.000000 14.500000 255 204 102
-6.000000 0.500000 5.500000 255 204 102
4.500000 0.000000 6.500000 255 204 102
4.000000 -1.000000 6.000000 255 204 102
3.500000 -1.000000 6.500000 255 204 102
2.000000 0.500000 6.000000 255 51 51
4.000000 -2.000000 6.000000 255 204 102
4.500000 -2.000000 5.500000 255 204 102
-2.000000 0.500000 1.500000 0 255 51
2.500000 0.000000 14.500000 255 204 102
2.750000 -1.000000 14.250000 255 204 102
2.750000 0.000000 14.250000 255 204 102
-1.000000 1.750000 6.250000 0 255 51
1.000000 1.750000 6.250000 0 255 51
1.000000 -4.000000 14.000000 255 204 102
2.000000 0.500000 1.500000 0 255 51
4.000000 -0.500000 11.500000 255 204 102
3.500000 -0.500000 11.000000 255 204 102
4.000000 0.000000 11.000000 255 204 102
0.000000 -3.000000 17.000000 255 204 102
-1.500000 -2.000000 18.500000 204 255 255
-0.750000 -2.750000 18.000000 204 255 255
-0.750000 -2.750000 18.500000 204 255 255
5.000000 -0.500000 8.500000 255 204 102
4.500000 -1.000000 9.500000 255 204 102
4.500000 0.000000 8.500000 255 204 102
5.000000 -1.500000 9.500000 255 204 102
6.000000 -1.500000 10.500000 255 204 102
-4.000000 2.500000 12.500000 255 204 102
-3.833330 2.833330 12.333300 255 204 102
-4.000000 3.500000 11.500000 255 204 102
-4.500000 -2.000000 5.500000 255 204 102
-5.000000 -1.000000 6.000000 255 204 102
-4.000000 -2.000000 6.000000 255 204 102
3.000000 -1.000000 14.000000 255 51 51
2.750000 -1.000000 14.250000 255 51 51
-5.000000 -2.500000 5.500000 255 204 102
6.000000 2.500000 12.500000 255 204 102
6.000000 3.500000 11.500000 255 204 102
2.000000 0.000000 1.000000 255 255 0
1.500000 0.000000 0.500000 255 255 0
6.500000 0.000000 8.500000 255 204 102
6.500000 0.000000 11.500000 255 204 102
2.500000 -1.500000 14.000000 255 204 102
2.500000 -1.000000 14.500000 255 204 102
-6.000000 2.500000 12.500000 255 204 102
-4.000000 2.000000 14.000000 255 204 102
-4.000000 0.000000 14.000000 255 204 102
-6.500000 1.000000 7.500000 255 204 102
-6.000000 1.500000 6.500000 255 204 102
-6.500000 1.000000 6.500000 255 204 102
-6.500000 0.000000 8.500000 255 204 102
-6.500000 3.000000 9.500000 255 204 102
2.500000 0.500000 1.000000 255 255 0
2.000000 0.250000 1.250000 255 255 0
-2.000000 1.500000 4.500000 0 255 51
-2.000000 1.500000 1.000000 0 255 51
2.000000 1.500000 1.000000 0 255 51
2.000000 1.500000 4.500000 0 255 51
-6.000000 -0.500000 8.500000 255 204 102
-6.500000 -2.000000 6.500000 255 204 102
-6.000000 -2.500000 6.500000 255 204 102
5.500000 -1.000000 4.500000 255 204 102
1.500000 -2.000000 18.500000 204 255 255
1.500000 -1.500000 18.000000 204 255 255
1.500000 -1.500000 19.000000 204 255 255
-1.000000 -4.000000 16.000000 255 204 102
1.000000 -4.000000 16.000000 255 204 102
2.500000 0.000000 15.500000 255 204 102
2.000000 2.500000 17.500000 255 204 102
1.500000 2.000000 18.500000 255 204 102
2.500000 2.000000 17.500000 255 204 102
-1.500000 2.000000 18.500000 255 204 102
-2.500000 -1.000000 17.500000 255 204 102
-1.500000 -1.000000 18.500000 255 204 102
-4.000000 2.500000 13.500000 255 204 102
-3.500000 2.500000 14.000000 255 204 102
-3.750000 2.750000 13.500000 255 204 102
-5.500000 -1.000000 4.500000 255 204 102
6.000000 -2.500000 6.500000 255 204 102
5.000000 -2.500000 5.500000 255 204 102
0.750000 -2.750000 18.000000 204 255 255
0.750000 -2.750000 18.500000 204 255 255
0.750000 -2.000000 21.250000 255 255 102
-0.750000 -2.000000 21.250000 255 255 102
-5.000000 -0.500000 8.500000 255 204 102
-4.500000 -1.000000 9.500000 255 204 102
-5.000000 -1.500000 9.500000 255 204 102
-6.000000 -1.500000 9.500000 255 204 102
2.000000 -3.000000 16.000000 255 204 102
-2.000000 -3.000000 16.000000 255 204 102
-1.500000 0.000000 0.500000 255 255 0
-3.750000 2.750000 13.500000 255 51 51
-3.000000 3.000000 14.000000 255 51 51
-3.000000 3.500000 13.500000 255 51 51
6.000000 -0.500000 11.500000 255 204 102
1.000000 0.000000 6.000000 0 255 51
-4.000000 -0.500000 13.500000 255 204 102
-3.500000 -0.500000 14.000000 255 204 102
-1.000000 0.000000 6.000000 0 255 51
-1.000000 2.500000 18.500000 255 204 102
4.000000 2.500000 13.500000 255 204 102
3.500000 2.500000 14.000000 255 204 102
4.000000 2.000000 14.000000 255 204 102
-4.500000 0.000000 6.500000 255 204 102
-3.500000 -1.000000 6.500000 255 204 102
2.500000 -1.000000 17.500000 255 204 102
1.500000 -1.000000 18.500000 255 204 102
5.000000 3.500000 9.500000 255 204 102
5.000000 1.500000 7.500000 255 204 102
2.500000 0.000000 0.500000 255 255 0
3.000000 3.000000 14.000000 255 51 51
3.750000 2.750000 13.500000 255 51 51
3.000000 3.500000 13.500000 255 51 51
2.500000 1.000000 1.000000 255 255 0
1.000000 2.500000 20.500000 255 204 102
1.500000 2.000000 20.500000 255 204 102
1.000000 -1.500000 13.500000 255 51 51
0.500000 -1.500000 14.000000 255 51 51
0.166667 -0.833333 13.666700 255 51 51
-4.000000 -1.000000 6.000000 255 204 102
3.750000 2.750000 12.500000 255 204 102
3.750000 2.750000 13.500000 255 204 102
-3.750000 0.000000 10.750000 255 204 102
-4.500000 2.000000 10.500000 255 204 102
-4.500000 3.000000 9.500000 255 204 102
-3.250000 3.000000 10.750000 255 204 102
2.000000 0.500000 8.500000 255 51 51
-2.000000 -2.000000 14.000000 255 204 102
-2.000000 -3.000000 14.000000 255 204 102
-4.500000 -1.000000 7.500000 255 204 102
-6.000000 -1.500000 10.500000 255 204 102
-6.000000 -0.500000 11.500000 255 204 102
3.000000 3.500000 12.500000 255 51 51
3.750000 2.750000 12.500000 255 51 51
1.000000 1.750000 14.250000 255 204 102
-1.000000 1.750000 14.250000 255 204 102
0.000000 -0.500000 13.500000 255 51 51
3.750000 -0.750000 11.500000 255 204 102
-2.000000 2.500000 9.500000 255 51 51
2.000000 2.500000 9.500000 255 51 51
-3.750000 2.750000 12.500000 255 51 51
-3.500000 -0.500000 11.000000 255 204 102
4.500000 1.000000 7.500000 255 204 102
3.750000 0.000000 10.750000 255 204 102
3.000000 3.500000 11.500000 255 51 51
-3.000000 3.500000 12.500000 255 51 51
-2.000000 2.500000 17.500000 255 204 102
-2.500000 2.000000 17.500000 255 204 102
-6.000000 1.500000 7.500000 255 204 102
-6.000000 3.500000 9.500000 255 204 102
-6.500000 -1.000000 9.500000 255 204 102
5.500000 0.000000 5.500000 255 204 102
2.500000 -3.000000 15.500000 255 204 102
3.000000 -1.500000 13.500000 255 51 51
-1.000000 -4.000000 14.000000 255 204 102
-2.500000 1.000000 1.000000 255 255 0
-2.000000 1.500000 1.000000 255 255 0
-3.500000 3.500000 12.000000 255 51 51
-4.500000 -1.000000 10.500000 255 204 102
4.500000 2.000000 10.500000 255 204 102
6.500000 3.000000 11.500000 255 204 102
6.000000 3.500000 9.500000 255 204 102
-6.500000 0.000000 5.500000 255 204 102
-0.166667 -0.833333 13.666700 255 51 51
-1.000000 -1.500000 13.500000 255 51 51
1.000000 0.250000 6.250000 0 255 51
-1.000000 0.250000 6.250000 0 255 51
-2.500000 1.000000 6.000000 255 51 51
-2.000000 0.500000 8.500000 255 51 51
-3.750000 -0.750000 11.500000 255 204 102
-3.750000 -0.750000 13.500000 255 204 102
-1.500000 0.500000 1.000000 255 255 0
-2.000000 0.250000 1.250000 255 255 0
1.500000 0.500000 1.000000 255 255 0
2.000000 -0.500000 9.500000 255 51 51
-2.000000 -0.500000 9.500000 255 51 51
-5.500000 0.000000 5.500000 255 204 102
-3.000000 3.500000 11.500000 255 51 51
-6.500000 0.000000 11.500000 255 204 102
4.500000 -1.000000 7.500000 255 204 102
-3.000000 -0.500000 10.500000 255 51 51
6.500000 -1.000000 10.500000 255 204 102
-5.000000 -1.500000 10.500000 255 204 102
-1.500000 -1.500000 18.000000 204 255 255
-1.500000 -2.000000 18.000000 204 255 255
-2.500000 -1.000000 14.500000 255 204 102
-2.750000 -1.000000 14.250000 255 204 102
-2.500000 -1.500000 14.000000 255 204 102
-6.000000 3.500000 11.500000 255 204 102
-6.500000 3.000000 11.500000 255 204 102
-2.500000 1.000000 6.000000 0 255 51
-3.750000 2.750000 12.500000 255 204 102
6.500000 -2.000000 6.500000 255 204 102
-4.500000 0.000000 8.500000 255 204 102
0.166667 -0.833333 13.666700 255 204 102
0.000000 -1.000000 14.000000 255 204 102
0.000000 -0.750000 13.750000 255 204 102
-1.000000 -4.500000 15.500000 255 204 102
-2.500000 -1.750000 13.750000 255 51 51
-1.000000 -1.750000 13.750000 255 51 51
3.000000 -0.500000 10.500000 255 51 51
1.500000 -1.500000 19.000000 255 204 102
6.500000 1.000000 6.500000 255 204 102
6.500000 0.000000 5.500000 255 204 102
6.000000 0.500000 5.500000 255 204 102
3.000000 2.500000 10.500000 255 51 51
6.000000 -0.500000 8.500000 255 204 102
3.750000 2.000000 10.750000 255 51 51
3.750000 0.000000 10.750000 255 51 51
-1.500000 -1.500000 19.000000 255 204 102
2.500000 1.000000 6.000000 0 255 51
4.000000 0.000000 14.000000 255 204 102
1.833330 0.833333 14.333300 255 204 102
-0.750000 -2.750000 18.000000 255 204 102
-1.500000 -3.000000 19.500000 255 204 102
-0.833333 -2.833330 18.666700 255 204 102
-2.000000 0.250000 1.250000 0 255 51
-1.500000 1.500000 14.000000 255 204 102
-1.833330 0.833333 14.333300 255 204 102
2.500000 -1.750000 13.750000 255 204 102
6.500000 -1.000000 9.500000 255 204 102
6.000000 -1.500000 9.500000 255 204 102
3.500000 3.500000 12.000000 255 51 51
5.000000 -1.000000 6.000000 255 204 102
5.500000 -1.000000 5.500000 255 204 102
1.500000 1.000000 1.000000 255 255 0
2.000000 1.500000 1.000000 255 255 0
-3.000000 2.500000 10.500000 255 51 51
-3.500000 3.500000 11.000000 255 51 51
0.750000 -2.750000 18.000000 255 204 102
-0.166667 -0.833333 13.666700 255 204 102
-0.750000 2.000000 21.250000 255 255 102
0.000000 2.500000 15.500000 255 204 102
1.000000 2.500000 18.500000 255 204 102
-1.000000 2.500000 20.500000 255 204 102
-5.000000 3.500000 9.500000 255 204 102
-5.500000 -1.000000 5.500000 255 204 102
3.250000 3.000000 10.750000 255 204 102
4.500000 3.000000 9.500000 255 204 102
-2.750000 -1.000000 14.250000 255 51 51
-3.500000 3.500000 11.000000 255 204 102
0.500000 -2.500000 21.000000 255 204 102
-1.500000 1.000000 1.000000 255 255 0
-0.500000 -2.500000 21.000000 255 204 102
-6.500000 2.000000 12.500000 255 204 102
-6.500000 -1.000000 10.500000 255 204 102
2.500000 -1.750000 13.750000 255 51 51
1.500000 -2.500000 19.000000 204 255 255
-0.750000 2.000000 21.250000 255 204 102
-1.500000 -2.500000 19.000000 204 255 255
-0.833333 -2.833330 18.666700 204 255 255
-2.750000 0.000000 14.250000 255 204 102
0.833333 -2.833330 18.666700 255 204 102
-2.500000 -1.500000 14.000000 255 51 51
-3.000000 -1.000000 14.000000 255 51 51
3.500000 3.500000 11.000000 255 204 102
2.000000 0.250000 1.250000 0 255 51
-2.000000 1.500000 8.500000 255 51 51
3.500000 3.500000 11.000000 255 51 51
3.500000 -0.500000 11.000000 255 51 51
-3.750000 0.000000 10.750000 255 51 51
3.500000 3.500000 12.000000 255 204 102
-3.750000 -0.750000 13.500000 255 51 51
-3.500000 3.500000 12.000000 255 204 102
6.500000 2.000000 12.500000 255 204 102
1.500000 -2.000000 18.000000 204 255 255
0.750000 2.000000 21.250000 255 255 102
-3.500000 2.500000 14.000000 255 51 51
3.500000 2.500000 14.000000 255 51 51
1.000000 -1.750000 13.750000 255 51 51
0.000000 -0.750000 13.750000 255 51 51
-2.000000 0.500000 6.000000 255 51 51
2.500000 -1.500000 14.000000 255 51 51
3.500000 -0.500000 14.000000 255 51 51
-3.833330 2.833330 12.333300 255 51 51
0.500000 2.500000 21.000000 255 204 102
-0.500000 -1.500000 14.000000 255 51 51
-3.500000 -0.500000 11.000000 255 51 51
-1.500000 -1.500000 19.000000 204 255 255
-2.500000 -1.750000 13.750000 255 204 102
1.500000 -3.000000 19.500000 255 204 102
1.500000 -2.500000 19.000000 255 204 102
-1.500000 -2.500000 19.000000 255 204 102
1.500000 1.500000 14.000000 255 204 102
2.500000 0.500000 14.000000 255 204 102
-0.750000 -2.750000 18.500000 255 204 102
-2.500000 0.500000 14.000000 255 204 102
3.833330 2.833330 12.333300 255 51 51
0.750000 -2.750000 18.500000 255 204 102
-0.500000 2.500000 21.000000 255 204 102
0.833333 -2.833330 18.666700 204 255 255
-3.500000 -0.500000 14.000000 255 51 51
-2.000000 1.500000 6.000000 255 51 51
3 0 1 2
3 3 0 2
3 4 5 6
3 7 4 6
3 8 9 10
3 11 8 10
3 12 13 14
3 15 12 14
3 1 0 16
3 16 0 3
3 17 5 4
3 7 17 4
3 18 19 20
3 21 22 23
3 24 25 26
3 27 28 29
3 30 31 32
3 33 34 35
3 36 37 38
3 39 40 41
3 42 43 44
3 35 45 38
3 46 47 48
3 49 50 51
3 44 41 52
3 53 54 55
3 56 53 55
3 57 58 59
3 60 57 59
3 61 62 63
3 62 64 63
3 64 65 63
3 63 65 66
3 67 68 69
3 69 68 70
3 70 68 71
3 68 72 71
3 73 63 74
3 75 76 68
3 73 74 77
3 76 75 78
3 79 80 81
3 82 83 84
3 85 86 87
3 88 89 64
3 90 91 92
3 93 70 94
3 95 96 97
3 98 99 100
3 101 85 102
3 103 104 105
3 106 107 108
3 109 110 111
3 112 113 114
3 98 115 116
3 117 118 119
3 120 121 122
3 118 123 124
3 120 125 126
3 127 128 129
3 130 131 132
3 133 134 135
3 136 137 138
3 139 140 141
3 137 136 142
3 143 144 145
3 146 147 148
3 149 150 151
3 152 153 154
3 155 156 135
3 157 158 159
3 61 63 160
3 161 162 163
3 164 165 166
3 167 168 169
3 170 171 172
3 173 174 175
3 176 177 178
3 179 176 180
3 181 182 183
3 184 185 186
3 179 187 188
3 189 190 191
3 192 193 194
3 195 196 197
3 198 199 200
3 201 202 203
3 204 203 205
3 68 67 206
3 207 208 209
3 210 207 209
3 211 208 212
3 213 214 210
3 128 215 216
3 217 218 219
3 220 221 222
3 223 224 225
3 189 226 181
3 227 157 228
3 224 227 228
3 229 230 231
3 232 233 234
3 235 201 236
3 194 237 192
3 238 239 240
3 241 232 242
3 243 244 245
3 29 246 247
3 248 249 250
3 98 251 99
3 252 253 254
3 255 256 257
3 258 259 260
3 261 102 262
3 263 264 265
3 225 228 131
3 266 267 268
3 269 270 271
3 86 272 87
3 273 274 275
3 184 276 253
3 44 52 42
3 122 277 278
3 279 21 23
3 280 281 282
3 78 283 284
3 242 234 285
3 72 286 71
3 287 288 289
3 213 209 290
3 291 292 293
3 294 295 296
3 297 298 138
3 299 300 301
3 159 228 157
3 302 303 304
3 305 182 306
3 3 266 16
3 33 37 307
3 240 308 309
3 5 310 311
3 312 259 313
3 314 315 241
3 301 316 299
3 317 167 318
3 319 320 321
3 322 323 319
3 190 187 191
3 310 324 325
3 326 327 19
3 2 1 268
3 173 200 174
3 23 65 279
3 328 25 329
3 330 331 332
3 278 333 40
3 334 335 336
3 337 233 338
3 339 204 205
3 340 341 342
3 343 344 345
3 346 347 348
3 167 196 168
3 211 209 208
3 349 302 36
3 350 351 43
3 352 334 353
3 354 223 225
3 158 355 159
3 61 48 47
3 356 357 358
3 79 84 83
3 356 359 330
3 360 128 361
3 8 362 2
3 349 38 45
3 363 364 365
3 117 123 118
3 290 216 213
3 175 287 366
3 82 367 83
3 368 369 318
3 80 370 62
3 249 371 343
3 372 373 374
3 375 123 376
3 33 38 37
3 377 341 378
3 6 5 311
3 379 258 380
3 12 15 381
3 333 41 40
3 382 383 384
3 324 15 385
3 225 130 354
3 341 386 387
3 388 389 390
3 365 382 384
3 1 266 268
3 391 375 376
3 372 392 393
3 47 81 80
3 148 394 141
3 395 396 397
3 398 92 96
3 58 52 333
3 271 399 400
3 124 401 356
3 7 310 17
3 402 140 403
3 404 383 405
3 406 407 203
3 135 388 408
3 287 265 409
3 252 410 411
3 365 412 363
3 376 304 391
3 275 277 121
3 126 273 275
3 141 413 139
3 74 66 326
3 414 116 115
3 153 415 154
3 416 417 404
3 343 418 419
3 420 323 421
3 330 422 322
3 423 59 58
3 424 315 339
3 229 305 425
3 27 208 207
3 426 234 269
3 10 427 428
3 429 412 417
3 386 244 387
3 49 84 50
3 269 400 426
3 140 430 141
3 142 153 431
3 432 433 309
3 434 55 54
3 76 72 68
3 408 435 436
3 370 437 438
3 332 34 33
3 439 440 193
3 350 125 122
3 368 441 442
3 159 132 131
3 266 443 444
3 310 445 311
3 295 138 137
3 440 446 447
3 448 55 272
3 200 372 374
3 449 150 145
3 403 168 450
3 307 304 119
3 56 45 53
3 82 67 69
3 308 432 309
3 451 294 296
3 452 194 447
3 366 453 313
3 357 454 358
3 455 456 291
3 457 458 459
3 195 299 316
3 136 289 142
3 460 323 461
3 67 51 206
3 78 73 77
3 64 462 65
3 368 169 140
3 318 169 368
3 48 50 46
3 299 348 463
3 464 43 42
3 430 465 395
3 313 175 366
3 88 64 62
3 466 467 468
3 309 433 379
3 372 308 239
3 79 367 370
3 303 391 304
3 461 316 460
3 269 233 469
3 470 436 471
3 73 68 63
3 230 133 472
3 243 473 387
3 474 475 476
3 185 411 477
3 478 464 312
3 40 351 278
3 260 251 258
3 100 476 423
3 186 479 480
3 345 481 249
3 70 71 482
3 483 175 174
3 54 45 34
3 280 484 204
3 485 129 211
3 272 321 87
3 486 487 29
3 279 18 488
3 366 136 298
3 101 86 85
3 129 290 211
3 201 489 490
3 135 436 155
3 241 165 491
3 344 235 457
3 359 454 402
3 492 298 493
3 405 494 404
3 278 495 496
3 121 126 275
3 14 497 498
3 499 411 410
3 145 500 449
3 213 501 214
3 496 100 423
3 69 93 367
3 467 502 468
3 205 340 342
3 133 156 447
3 483 200 374
3 171 503 158
3 475 59 476
3 286 30 32
3 504 203 202
3 267 9 268
3 247 248 250
3 380 251 116
3 505 506 386
3 507 460 301
3 215 377 222
3 23 327 326
3 87 102 85
3 80 61 47
3 508 56 448
3 509 510 431
3 115 100 273
3 198 308 199
3 496 58 333
3 257 436 255
3 103 283 74
3 124 330 332
3 445 13 311
3 160 51 48
3 420 102 320
3 262 421 507
3 177 511 178
3 27 210 214
3 512 397 396
3 245 513 246
3 11 428 514
3 361 338 360
3 141 395 148
3 247 513 515
3 196 316 516
3 403 517 402
3 155 452 156
3 195 317 346
3 518 388 425
3 274 495 277
3 519 353 334
3 68 160 63
3 520 506 249
3 39 44 43
3 521 293 522
3 127 344 270
3 15 498 385
3 457 523 458
3 190 364 188
3 524 28 214
3 443 11 514
3 422 402 517
3 107 113 108
3 36 307 37
3 329 482 32
3 525 526 255
3 399 163 162
3 166 285 426
3 379 510 527
3 172 224 223
3 114 107 252
3 46 84 81
3 296 510 414
3 230 388 134
3 96 91 97
3 508 86 303
3 286 24 528
3 109 111 76
3 410 529 192
3 150 530 151
3 478 492 493
3 294 493 297
3 472 480 531
3 529 439 193
3 229 425 230
3 232 424 233
3 235 202 201
3 194 532 237
3 238 392 239
3 240 533 238
3 241 315 232
3 243 387 244
3 29 28 246
3 248 520 249
3 98 116 251
3 252 184 253
3 255 534 256
3 258 433 259
3 261 101 102
3 263 483 264
3 225 224 228
3 266 444 267
3 269 469 270
3 86 448 272
3 273 100 274
3 184 398 276
3 60 42 52
3 52 57 60
3 278 351 122
3 122 121 277
3 279 488 21
3 280 315 281
3 78 77 283
3 242 232 234
3 72 25 286
3 415 289 288
3 287 409 288
3 213 210 209
3 291 456 292
3 294 297 295
3 297 493 298
3 299 463 300
3 300 535 301
3 159 131 228
3 302 508 303
3 305 183 182
3 3 362 266
3 332 33 307
3 307 119 332
3 240 239 308
3 5 17 310
3 312 464 260
3 42 60 475
3 475 474 260
3 260 259 312
3 536 198 173
3 259 432 313
3 42 475 464
3 453 492 312
3 464 475 260
3 432 536 313
3 313 453 312
3 536 173 313
3 314 281 315
3 241 491 314
3 301 460 316
3 369 347 317
3 317 197 167
3 318 369 317
3 319 420 320
3 434 54 34
3 34 331 434
3 322 422 517
3 450 168 516
3 322 517 450
3 434 331 322
3 319 321 434
3 461 323 450
3 168 196 516
3 516 461 450
3 319 434 322
3 322 450 323
3 190 188 187
3 310 381 324
3 19 462 326
3 104 74 326
3 462 105 104
3 327 20 19
3 462 104 326
3 268 9 8
3 8 2 268
3 173 198 200
3 23 66 65
3 72 329 25
3 328 26 25
3 330 322 331
3 278 496 333
3 334 537 335
3 336 519 334
3 337 469 233
3 339 280 204
3 340 505 341
3 343 419 344
3 346 317 347
3 167 197 196
3 211 290 209
3 349 508 302
3 350 122 351
3 351 39 43
3 352 537 334
3 354 538 223
3 158 503 355
3 61 160 48
3 356 465 357
3 79 81 84
3 356 358 359
3 127 361 128
3 360 215 128
3 3 2 362
3 8 11 362
3 349 36 38
3 363 539 364
3 117 376 123
3 290 128 216
3 175 263 287
3 82 69 367
3 368 442 369
3 80 79 370
3 249 506 371
3 372 393 373
3 375 401 123
3 33 35 38
3 377 342 341
3 311 13 12
3 12 6 311
3 379 433 258
3 381 7 6
3 6 12 381
3 333 52 41
3 382 540 383
3 324 381 15
3 225 131 130
3 341 505 386
3 408 388 390
3 541 389 388
3 390 542 408
3 365 364 382
3 1 16 266
3 391 86 375
3 372 239 392
3 47 46 81
3 148 147 394
3 397 146 395
3 148 395 146
3 95 276 96
3 398 440 92
3 543 90 92
3 96 276 398
3 440 543 92
3 58 57 52
3 271 457 399
3 124 123 401
3 401 465 356
3 7 381 310
3 402 454 140
3 404 384 383
3 201 203 407
3 204 406 203
3 135 134 388
3 287 263 265
3 252 529 410
3 365 417 412
3 376 117 304
3 275 274 277
3 126 451 273
3 441 139 413
3 141 394 413
3 74 63 66
3 414 380 116
3 153 289 415
3 449 500 429
3 417 365 384
3 449 429 417
3 494 530 416
3 416 449 417
3 417 384 404
3 404 494 416
3 343 371 418
3 420 319 323
3 330 359 422
3 423 476 59
3 342 377 339
3 424 232 315
3 315 280 339
3 339 377 424
3 518 425 544
3 229 545 305
3 305 306 544
3 544 425 305
3 27 212 208
3 426 285 234
3 10 9 427
3 429 546 412
3 386 547 244
3 49 82 84
3 269 271 400
3 140 454 430
3 142 289 153
3 432 259 433
3 434 272 55
3 76 329 72
3 408 542 435
3 435 548 436
3 471 436 548
3 370 367 437
3 332 331 34
3 439 543 440
3 350 478 125
3 125 120 122
3 478 294 125
3 368 139 441
3 159 355 132
3 266 362 443
3 310 325 445
3 295 297 138
3 440 398 446
3 448 56 55
3 200 199 372
3 499 145 150
3 449 416 150
3 150 477 499
3 403 169 168
3 117 119 304
3 307 302 304
3 56 349 45
3 82 49 67
3 308 536 432
3 451 126 125
3 125 294 451
3 440 447 194
3 452 257 549
3 549 532 452
3 257 256 549
3 194 193 440
3 452 532 194
3 366 298 453
3 357 430 454
3 550 455 291
3 291 521 550
3 399 457 459
3 459 551 399
3 195 346 299
3 136 287 289
3 460 421 323
3 67 49 51
3 78 75 73
3 279 65 19
3 64 89 462
3 462 19 65
3 403 140 169
3 139 368 140
3 318 167 169
3 48 51 50
3 299 346 348
3 464 350 43
3 396 395 465
3 430 357 465
3 465 401 375
3 375 101 261
3 261 396 465
3 465 375 261
3 313 173 175
3 62 370 88
3 438 88 370
3 466 164 467
3 379 527 240
3 240 309 379
3 527 533 240
3 372 199 308
3 79 83 367
3 303 86 391
3 461 516 316
3 269 234 233
3 470 255 436
3 73 75 68
3 230 134 133
3 341 387 378
3 243 552 553
3 473 220 378
3 243 553 473
3 378 387 473
3 476 99 474
3 251 474 99
3 150 149 477
3 185 184 252
3 477 149 479
3 252 411 185
3 477 479 185
3 478 350 464
3 40 39 351
3 260 474 251
3 100 99 476
3 186 185 479
3 345 217 481
3 481 554 250
3 486 250 554
3 249 343 345
3 481 250 249
3 32 482 71
3 94 70 482
3 71 286 32
3 483 263 175
3 35 34 45
3 54 53 45
3 406 204 555
3 280 282 556
3 484 555 204
3 280 556 484
3 211 212 485
3 485 219 129
3 212 557 485
3 219 218 129
3 320 87 321
3 272 434 321
3 27 29 212
3 486 554 487
3 487 557 212
3 212 29 487
3 279 19 18
3 138 298 136
3 366 287 136
3 101 375 86
3 129 128 290
3 558 523 236
3 236 201 490
3 407 489 201
3 490 558 236
3 135 408 436
3 241 166 165
3 271 270 457
3 344 419 235
3 235 236 457
3 457 270 344
3 359 358 454
3 492 453 298
3 405 559 494
3 278 277 495
3 121 120 126
3 14 13 497
3 499 477 411
3 145 144 500
3 213 216 501
3 222 221 216
3 501 560 214
3 216 221 501
3 496 495 100
3 437 367 93
3 69 70 93
3 467 161 502
3 205 203 504
3 504 340 205
3 342 339 205
3 447 446 133
3 133 135 156
3 446 472 133
3 156 452 447
3 373 264 483
3 483 174 200
3 374 373 483
3 157 227 158
3 172 171 158
3 158 227 172
3 475 60 59
3 286 528 30
3 235 419 202
3 418 504 202
3 202 419 418
3 267 427 9
3 250 486 247
3 247 515 248
3 486 29 247
3 380 258 251
3 547 386 561
3 505 340 504
3 504 418 371
3 371 506 505
3 561 386 506
3 505 504 371
3 535 512 301
3 507 421 460
3 301 512 507
3 360 338 233
3 424 377 215
3 377 378 220
3 360 233 424
3 222 216 215
3 215 360 424
3 377 220 222
3 326 66 23
3 23 22 327
3 87 320 102
3 80 62 61
3 508 349 56
3 431 153 152
3 152 509 431
3 115 98 100
3 198 536 308
3 496 423 58
3 257 155 436
3 77 74 283
3 104 103 74
3 332 119 124
3 124 356 330
3 119 118 124
3 445 497 13
3 160 206 51
3 420 262 102
3 262 420 421
3 177 526 511
3 27 207 210
3 261 262 396
3 507 512 396
3 396 262 507
3 28 552 246
3 243 245 246
3 246 552 243
3 11 10 428
3 361 337 338
3 141 430 395
3 247 246 513
3 196 195 316
3 403 450 517
3 155 257 452
3 195 197 317
3 518 541 388
3 274 100 495
3 519 562 353
3 68 206 160
3 520 561 506
3 39 41 44
3 521 291 293
3 127 129 218
3 217 345 344
3 127 218 344
3 469 337 361
3 218 217 344
3 270 469 361
3 361 127 270
3 15 14 498
3 457 236 523
3 539 563 177
3 177 176 539
3 563 526 177
3 382 364 190
3 545 540 183
3 183 305 545
3 190 189 382
3 183 540 181
3 189 540 382
3 539 176 179
3 539 179 364
3 181 540 189
3 179 188 364
3 214 560 524
3 524 553 552
3 552 28 524
3 27 214 28
3 443 362 11
3 422 359 402
3 107 114 113
3 36 302 307
3 329 76 111
3 111 110 482
3 32 31 328
3 111 482 329
3 32 328 329
3 534 255 526
3 470 525 255
3 526 563 534
3 525 511 526
3 399 551 163
3 162 161 164
3 467 164 161
3 400 399 162
3 162 164 166
3 166 241 242
3 242 285 166
3 426 400 162
3 162 166 426
3 379 380 510
3 510 509 527
3 380 414 510
3 538 170 223
3 172 227 224
3 223 170 172
3 107 106 564
3 564 529 107
3 252 254 114
3 254 112 114
3 107 529 252
3 46 50 84
3 296 295 142
3 142 431 296
3 295 137 142
3 273 451 296
3 414 115 273
3 431 510 296
3 414 273 296
3 230 425 388
3 96 92 91
3 508 448 86
3 286 25 24
3 76 78 284
3 284 109 76
3 237 143 499
3 499 410 192
3 143 145 499
3 529 193 192
3 192 237 499
3 150 416 530
3 478 312 492
3 294 478 493
3 231 230 531
3 472 446 186
3 398 184 186
3 186 480 472
3 531 230 472
3 446 398 186
3 529 564 439
