ply
format ascii 1.0
comment Created by Blender 2.78 (sub 0) - www.blender.org, source file: ''
element vertex 565
property float x
property float y
property float z
property uchar red
property uchar green
property uchar blue
element face 928
property list uchar uint vertex_indices
end_header
-2.000000 -1.500000 0.500000 255 255 0
-2.500000 -1.000000 0.500000 255 255 0
-2.000000 -1.000000 0.000000 255 255 0
-1.500000 -1.000000 0.500000 255 255 0
2.000000 -1.500000 0.500000 255 255 0
1.500000 -1.000000 0.500000 255 255 0
2.000000 -1.000000 0.000000 255 255 0
2.500000 -1.000000 0.500000 255 255 0
-2.000000 1.000000 0.000000 255 255 0
-2.500000 1.000000 0.500000 255 255 0
-2.000000 1.500000 0.500000 255 255 0
-1.500000 1.000000 0.500000 255 255 0
2.000000 1.000000 0.000000 255 255 0
1.500000 1.000000 0.500000 255 255 0
2.000000 1.500000 0.500000 255 255 0
2.500000 1.000000 0.500000 255 255 0
-2.000000 -1.000000 1.000000 255 255 0
2.000000 -1.000000 1.000000 255 255 0
-2.500000 0.500000 1.000000 0 255 51
-2.500000 1.000000 1.500000 0 255 51
-2.500000 1.000000 1.000000 0 255 51
-1.500000 0.500000 1.000000 0 255 51
-1.500000 1.000000 1.000000 0 255 51
-1.500000 1.000000 1.500000 0 255 51
1.500000 0.500000 1.000000 0 255 51
1.500000 1.000000 1.500000 0 255 51
1.500000 1.000000 1.000000 0 255 51
0.000000 -3.500000 18.500000 255 204 102
1.000000 -3.500000 19.500000 255 204 102
-1.000000 -3.500000 19.500000 255 204 102
2.500000 0.500000 1.000000 0 255 51
2.500000 1.000000 1.000000 0 255 51
2.500000 1.000000 1.500000 0 255 51
-6.000000 -2.500000 4.500000 255 204 102
-6.500000 -2.000000 4.500000 255 204 102
-6.000000 -2.000000 4.000000 255 204 102
-4.500000 -2.000000 4.500000 255 204 102
-5.000000 -2.500000 4.500000 255 204 102
-5.000000 -2.000000 4.000000 255 204 102
5.000000 -2.500000 4.500000 255 204 102
4.500000 -2.000000 4.500000 255 204 102
5.000000 -2.000000 4.000000 255 204 102
6.500000 -2.000000 4.500000 255 204 102
6.000000 -2.500000 4.500000 255 204 102
6.000000 -2.000000 4.000000 255 204 102
-6.000000 -1.000000 4.000000 255 204 102
-1.000000 -1.500000 4.500000 0 255 51
-1.500000 -1.000000 4.500000 0 255 51
-1.000000 -1.000000 4.000000 0 255 51
1.500000 -1.000000 4.500000 0 255 51
1.000000 -1.500000 4.500000 0 255 51
1.000000 -1.000000 4.000000 0 255 51
6.000000 -1.000000 4.000000 255 204 102
-6.000000 0.000000 4.000000 255 204 102
-6.500000 0.000000 4.500000 255 204 102
-6.000000 0.500000 4.500000 255 204 102
-5.500000 0.000000 4.500000 255 204 102
6.000000 0.000000 4.000000 255 204 102
5.500000 0.000000 4.500000 255 204 102
6.000000 0.500000 4.500000 255 204 102
6.500000 0.000000 4.500000 255 204 102
-1.500000 0.000000 4.500000 0 255 51
-1.500000 0.000000 5.500000 0 255 51
-1.000000 1.000000 5.000000 0 255 51
-2.000000 0.500000 5.500000 0 255 51
-2.000000 0.500000 4.500000 0 255 51
-1.500000 1.000000 4.500000 0 255 51
1.500000 0.000000 4.500000 0 255 51
1.000000 1.000000 5.000000 0 255 51
1.500000 0.000000 5.500000 0 255 51
2.000000 0.500000 5.500000 0 255 51
2.000000 0.500000 4.500000 0 255 51
1.500000 1.000000 4.500000 0 255 51
-1.000000 2.000000 5.000000 0 255 51
-1.500000 2.000000 5.500000 0 255 51
1.000000 2.000000 5.000000 0 255 51
1.500000 2.000000 5.500000 0 255 51
-1.000000 2.500000 5.500000 0 255 51
1.000000 2.500000 5.500000 0 255 51
-1.000000 -1.000000 6.000000 0 255 51
-1.500000 -1.000000 5.500000 0 255 51
-1.000000 -1.500000 5.500000 0 255 51
1.500000 -1.000000 5.500000 0 255 51
1.000000 -1.000000 6.000000 0 255 51
1.000000 -1.500000 5.500000 0 255 51
-5.000000 1.000000 6.000000 255 204 102
-5.000000 0.000000 6.000000 255 204 102
-6.000000 1.000000 6.000000 255 204 102
-1.500000 0.500000 6.000000 0 255 51
-2.000000 0.500000 6.000000 0 255 51
-1.500000 0.500000 6.000000 255 51 51
-1.000000 0.250000 6.250000 255 51 51
-1.000000 0.500000 6.500000 255 51 51
1.500000 0.500000 6.000000 0 255 51
2.000000 0.500000 6.000000 0 255 51
1.500000 0.500000 6.000000 255 51 51
1.000000 0.500000 6.500000 255 51 51
1.000000 0.250000 6.250000 255 51 51
5.000000 1.000000 6.000000 255 204 102
6.000000 1.000000 6.000000 255 204 102
5.000000 0.000000 6.000000 255 204 102
-4.500000 1.000000 6.500000 255 204 102
-5.000000 1.500000 6.500000 255 204 102
-1.500000 1.500000 6.000000 0 255 51
-2.000000 1.500000 5.500000 0 255 51
-2.000000 1.500000 6.000000 0 255 51
-1.500000 1.500000 6.000000 255 51 51
-1.000000 1.500000 6.500000 255 51 51
-1.000000 1.750000 6.250000 255 51 51
1.500000 1.500000 6.000000 0 255 51
2.000000 1.500000 6.000000 0 255 51
2.000000 1.500000 5.500000 0 255 51
1.500000 1.500000 6.000000 255 51 51
1.000000 1.750000 6.250000 255 51 51
1.000000 1.500000 6.500000 255 51 51
4.500000 1.000000 6.500000 255 204 102
5.000000 1.500000 6.500000 255 204 102
-3.500000 -2.000000 6.500000 255 204 102
-4.000000 -2.000000 7.000000 255 204 102
-4.000000 -2.500000 6.500000 255 204 102
4.000000 -2.000000 7.000000 255 204 102
3.500000 -2.000000 6.500000 255 204 102
4.000000 -2.500000 6.500000 255 204 102
-4.000000 -1.000000 7.000000 255 204 102
-5.000000 -2.000000 7.000000 255 204 102
5.000000 -2.000000 7.000000 255 204 102
4.000000 -1.000000 7.000000 255 204 102
-2.000000 -2.500000 16.500000 255 204 102
0.000000 -2.500000 16.500000 255 204 102
-1.000000 -2.500000 17.500000 255 204 102
2.500000 1.000000 8.500000 255 51 51
2.000000 0.500000 6.000000 255 51 51
2.500000 1.000000 6.000000 255 51 51
0.500000 -2.500000 21.000000 255 255 102
0.000000 -2.500000 21.500000 255 255 102
-0.500000 -2.500000 21.000000 255 255 102
1.000000 -0.500000 10.500000 255 51 51
1.000000 -1.500000 11.500000 255 51 51
0.000000 -0.500000 11.500000 255 51 51
5.000000 -1.000000 11.000000 255 204 102
4.500000 -1.000000 10.500000 255 204 102
5.000000 -1.500000 10.500000 255 204 102
-4.000000 -0.500000 11.500000 255 204 102
-5.000000 -0.500000 11.500000 255 204 102
-4.000000 0.000000 11.000000 255 204 102
4.500000 0.000000 10.500000 255 204 102
-3.500000 2.500000 11.000000 255 51 51
-3.250000 3.000000 10.750000 255 51 51
-3.000000 3.000000 11.000000 255 51 51
-3.500000 2.500000 11.000000 255 204 102
-3.750000 2.000000 10.750000 255 204 102
-4.000000 2.000000 11.000000 255 204 102
3.500000 2.500000 11.000000 255 51 51
3.000000 3.000000 11.000000 255 51 51
3.250000 3.000000 10.750000 255 51 51
3.500000 2.500000 11.000000 255 204 102
4.000000 2.000000 11.000000 255 204 102
3.750000 2.000000 10.750000 255 204 102
-1.000000 -1.500000 11.500000 255 51 51
-1.000000 -0.500000 10.500000 255 51 51
-0.500000 -2.000000 25.500000 255 255 102
-0.500000 2.000000 21.500000 255 255 102
-0.500000 -2.000000 21.500000 255 255 102
-1.000000 0.000000 4.000000 0 255 51
-0.500000 -1.500000 14.000000 255 204 102
-1.000000 -2.000000 14.000000 255 204 102
-1.000000 -1.750000 13.750000 255 204 102
0.500000 -1.500000 14.000000 255 204 102
1.000000 -1.750000 13.750000 255 204 102
1.000000 -2.000000 14.000000 255 204 102
-6.000000 0.000000 14.000000 255 204 102
-6.500000 0.000000 13.500000 255 204 102
-6.000000 -0.500000 13.500000 255 204 102
0.500000 2.500000 21.000000 255 255 102
-0.500000 2.500000 21.000000 255 255 102
0.000000 2.500000 21.500000 255 255 102
6.500000 0.000000 13.500000 255 204 102
6.000000 0.000000 14.000000 255 204 102
6.000000 -0.500000 13.500000 255 204 102
-2.500000 0.500000 14.000000 255 51 51
-3.000000 0.000000 14.000000 255 51 51
-2.750000 0.000000 14.250000 255 51 51
-1.500000 1.500000 14.000000 255 51 51
-1.833330 0.833333 14.333300 255 51 51
2.500000 0.500000 14.000000 255 51 51
2.750000 0.000000 14.250000 255 51 51
3.000000 0.000000 14.000000 255 51 51
2.500000 2.000000 9.500000 255 51 51
2.500000 0.000000 9.500000 255 51 51
-1.000000 1.750000 14.250000 255 51 51
-1.000000 2.000000 14.000000 255 51 51
1.500000 1.500000 14.000000 255 51 51
1.000000 2.000000 14.000000 255 51 51
1.000000 1.750000 14.250000 255 51 51
-2.500000 2.000000 9.500000 255 51 51
-2.500000 1.000000 8.500000 255 51 51
-2.500000 0.000000 9.500000 255 51 51
-6.000000 2.500000 13.500000 255 204 102
-6.500000 2.000000 13.500000 255 204 102
-6.000000 2.000000 14.000000 255 204 102
6.500000 2.000000 13.500000 255 204 102
6.000000 2.500000 13.500000 255 204 102
6.000000 2.000000 14.000000 255 204 102
-1.000000 1.500000 14.500000 255 204 102
-1.000000 1.500000 15.500000 255 204 102
0.000000 1.500000 14.500000 255 204 102
1.000000 1.500000 14.500000 255 204 102
1.000000 1.500000 15.500000 255 204 102
1.000000 0.000000 4.000000 0 255 51
0.000000 -4.500000 17.500000 255 204 102
-0.500000 -4.000000 17.500000 255 204 102
0.000000 -4.000000 17.000000 255 204 102
0.500000 -4.000000 17.500000 255 204 102
-0.500000 -3.000000 17.500000 255 204 102
-0.500000 -3.000000 18.500000 255 204 102
0.500000 -3.000000 17.500000 255 204 102
0.500000 -3.000000 18.500000 255 204 102
2.000000 -2.500000 16.500000 255 204 102
1.000000 -2.500000 17.500000 255 204 102
-1.500000 -1.500000 18.000000 255 204 102
-1.500000 -2.000000 17.500000 255 204 102
-1.500000 -2.000000 18.000000 255 204 102
1.500000 -1.500000 18.000000 255 204 102
1.500000 -2.000000 18.000000 255 204 102
1.500000 -2.000000 17.500000 255 204 102
0.500000 2.000000 21.500000 255 255 102
0.500000 -2.000000 25.500000 255 255 102
0.500000 -2.000000 21.500000 255 255 102
1.833330 0.833333 14.333300 255 51 51
0.000000 -2.000000 26.000000 255 255 102
0.000000 -2.500000 25.500000 255 255 102
-2.000000 0.500000 1.500000 0 255 51
-2.000000 0.000000 1.000000 255 255 0
-1.500000 0.500000 1.000000 255 255 0
-2.000000 0.250000 1.250000 255 255 0
-0.750000 -2.000000 21.250000 255 204 102
-1.500000 2.000000 20.500000 255 204 102
-1.500000 -2.000000 20.500000 255 204 102
6.000000 1.500000 7.500000 255 204 102
6.500000 3.000000 9.500000 255 204 102
6.500000 1.000000 7.500000 255 204 102
-1.000000 -4.500000 14.500000 255 204 102
-2.500000 -3.000000 15.500000 255 204 102
-2.500000 -3.000000 14.500000 255 204 102
-3.000000 3.500000 13.500000 255 51 51
3.000000 3.000000 14.000000 255 51 51
3.000000 3.500000 13.500000 255 51 51
-2.500000 0.000000 0.500000 255 255 0
2.500000 0.000000 15.500000 255 204 102
-3.750000 2.750000 12.500000 255 51 51
-3.750000 2.750000 13.500000 255 51 51
-1.000000 1.750000 6.250000 0 255 51
1.000000 1.750000 6.250000 0 255 51
-6.000000 0.500000 5.500000 255 204 102
-5.500000 0.000000 5.500000 255 204 102
4.500000 0.000000 6.500000 255 204 102
-2.000000 1.500000 8.500000 255 51 51
-2.500000 1.000000 6.000000 255 51 51
5.500000 -1.000000 4.500000 255 204 102
4.000000 3.500000 11.500000 255 204 102
3.833330 2.833330 12.333300 255 204 102
4.000000 2.500000 12.500000 255 204 102
6.000000 0.500000 5.500000 255 204 102
5.500000 0.000000 5.500000 255 204 102
6.000000 1.500000 6.500000 255 204 102
4.000000 -0.500000 11.500000 255 204 102
3.750000 -0.750000 13.500000 255 204 102
3.750000 -0.750000 11.500000 255 204 102
0.750000 -2.000000 21.250000 255 204 102
0.500000 -2.500000 21.000000 255 204 102
1.000000 -2.500000 20.500000 255 204 102
-5.500000 -1.000000 4.500000 255 204 102
-4.500000 -2.000000 5.500000 255 204 102
-6.000000 1.500000 7.500000 255 204 102
-6.500000 3.000000 9.500000 255 204 102
-6.000000 3.500000 9.500000 255 204 102
-4.000000 2.500000 12.500000 255 204 102
-3.750000 2.750000 13.500000 255 204 102
-3.750000 2.750000 12.500000 255 204 102
-3.833330 2.833330 12.333300 255 204 102
-4.000000 3.500000 11.500000 255 204 102
3.750000 -0.750000 13.500000 255 51 51
3.000000 -1.500000 11.500000 255 51 51
3.750000 -0.750000 11.500000 255 51 51
2.000000 1.500000 8.500000 255 51 51
2.000000 1.500000 6.000000 255 51 51
1.500000 0.000000 0.500000 255 255 0
-4.500000 -1.000000 9.500000 255 204 102
-5.000000 -1.500000 10.500000 255 204 102
-5.000000 -1.500000 9.500000 255 204 102
4.000000 -2.000000 6.000000 255 204 102
4.500000 -2.000000 5.500000 255 204 102
-4.000000 -1.000000 6.000000 255 204 102
-4.500000 0.000000 6.500000 255 204 102
-3.500000 -1.000000 6.500000 255 204 102
1.500000 -1.500000 19.000000 204 255 255
1.500000 -2.000000 18.500000 204 255 255
1.500000 -1.500000 18.000000 204 255 255
-6.500000 0.000000 11.500000 255 204 102
-6.500000 0.000000 8.500000 255 204 102
-2.500000 0.000000 15.500000 255 204 102
-2.500000 0.000000 14.500000 255 204 102
0.000000 2.500000 15.500000 255 204 102
3.500000 3.500000 11.000000 255 51 51
-2.000000 -3.000000 14.000000 255 204 102
-1.000000 -4.000000 14.000000 255 204 102
-6.500000 3.000000 11.500000 255 204 102
-6.000000 2.500000 12.500000 255 204 102
-6.000000 3.500000 11.500000 255 204 102
4.500000 0.000000 8.500000 255 204 102
4.500000 3.000000 9.500000 255 204 102
4.500000 1.000000 7.500000 255 204 102
4.000000 0.000000 14.000000 255 204 102
1.000000 -4.500000 14.500000 255 204 102
6.500000 1.000000 6.500000 255 204 102
6.500000 0.000000 5.500000 255 204 102
5.000000 3.500000 9.500000 255 204 102
5.000000 1.500000 7.500000 255 204 102
-1.000000 -4.000000 16.000000 255 204 102
1.000000 -4.500000 15.500000 255 204 102
1.000000 -4.000000 16.000000 255 204 102
0.000000 -3.000000 17.000000 255 204 102
2.500000 -3.000000 14.500000 255 204 102
-5.000000 -2.500000 5.500000 255 204 102
-0.750000 2.000000 21.250000 255 204 102
-1.000000 2.500000 20.500000 255 204 102
-6.000000 -2.500000 6.500000 255 204 102
-4.000000 2.000000 14.000000 255 204 102
-4.000000 2.500000 13.500000 255 204 102
-2.000000 0.500000 8.500000 255 51 51
-1.000000 0.000000 6.000000 0 255 51
-5.000000 -1.000000 6.000000 255 204 102
-4.000000 -2.000000 6.000000 255 204 102
-3.000000 -0.500000 10.500000 255 51 51
-2.000000 -0.500000 9.500000 255 51 51
2.000000 0.500000 1.500000 0 255 51
4.500000 -1.000000 9.500000 255 204 102
-5.000000 -0.500000 8.500000 255 204 102
-6.000000 -1.500000 9.500000 255 204 102
-6.000000 -0.500000 8.500000 255 204 102
0.750000 -2.750000 18.000000 204 255 255
0.750000 -2.750000 18.500000 204 255 255
-1.000000 -1.500000 13.500000 255 51 51
6.000000 -0.500000 8.500000 255 204 102
6.500000 -1.000000 9.500000 255 204 102
6.000000 -1.500000 9.500000 255 204 102
6.500000 0.000000 11.500000 255 204 102
6.000000 -0.500000 11.500000 255 204 102
4.000000 2.500000 13.500000 255 204 102
3.500000 2.500000 14.000000 255 204 102
4.000000 2.000000 14.000000 255 204 102
-2.500000 1.000000 1.000000 255 255 0
-2.000000 1.500000 1.000000 255 255 0
-6.500000 2.000000 12.500000 255 204 102
-1.500000 2.000000 18.500000 255 204 102
-2.500000 -1.000000 17.500000 255 204 102
-1.500000 -1.000000 18.500000 255 204 102
2.000000 -2.000000 14.000000 255 204 102
2.000000 -3.000000 14.000000 255 204 102
3.000000 3.500000 12.500000 255 51 51
3.750000 2.750000 13.500000 255 51 51
3.750000 2.750000 12.500000 255 51 51
-3.500000 -0.500000 11.000000 255 204 102
6.500000 -2.000000 6.500000 255 204 102
6.500000 0.000000 8.500000 255 204 102
0.166667 -0.833333 13.666700 255 204 102
0.000000 -1.000000 14.000000 255 204 102
0.000000 -0.750000 13.750000 255 204 102
1.500000 -2.000000 20.500000 255 204 102
0.750000 2.000000 21.250000 255 204 102
-3.000000 3.000000 14.000000 255 51 51
-6.500000 -2.000000 6.500000 255 204 102
3.750000 0.000000 10.750000 255 204 102
-6.000000 -0.500000 11.500000 255 204 102
-6.500000 -1.000000 10.500000 255 204 102
-6.000000 -1.500000 10.500000 255 204 102
1.000000 2.500000 20.500000 255 204 102
1.500000 2.000000 20.500000 255 204 102
0.750000 -2.000000 21.250000 255 255 102
3.000000 -1.000000 14.000000 255 51 51
2.750000 -1.000000 14.250000 255 51 51
-1.000000 -4.500000 15.500000 255 204 102
5.000000 -2.500000 5.500000 255 204 102
6.000000 -2.500000 6.500000 255 204 102
6.000000 -1.500000 10.500000 255 204 102
-6.500000 1.000000 7.500000 255 204 102
-6.000000 1.500000 6.500000 255 204 102
-6.500000 1.000000 6.500000 255 204 102
-2.000000 0.250000 1.250000 0 255 51
-2.000000 2.500000 9.500000 255 51 51
2.000000 2.500000 9.500000 255 51 51
1.000000 -1.500000 13.500000 255 51 51
0.000000 -0.500000 13.500000 255 51 51
-4.500000 -1.000000 10.500000 255 204 102
4.000000 -0.500000 13.500000 255 204 102
3.500000 -0.500000 14.000000 255 204 102
-3.000000 -1.500000 13.500000 255 51 51
-3.750000 -0.750000 11.500000 255 51 51
-3.000000 -1.500000 11.500000 255 51 51
2.000000 -3.000000 16.000000 255 204 102
-2.000000 -3.000000 16.000000 255 204 102
-2.500000 1.000000 6.000000 0 255 51
1.000000 0.000000 6.000000 0 255 51
-3.500000 2.500000 14.000000 255 204 102
1.500000 1.000000 1.000000 255 255 0
2.000000 1.500000 1.000000 255 255 0
1.833330 0.833333 14.333300 255 204 102
2.500000 0.000000 14.500000 255 204 102
-2.000000 -2.000000 14.000000 255 204 102
2.000000 -0.500000 9.500000 255 51 51
6.000000 2.500000 12.500000 255 204 102
6.500000 3.000000 11.500000 255 204 102
6.000000 3.500000 11.500000 255 204 102
-6.500000 -1.000000 9.500000 255 204 102
5.000000 -0.500000 8.500000 255 204 102
4.500000 -1.000000 7.500000 255 204 102
3.500000 3.500000 12.000000 255 51 51
-0.750000 -2.750000 18.000000 255 204 102
1.000000 -4.000000 14.000000 255 204 102
6.000000 3.500000 9.500000 255 204 102
-1.000000 -2.500000 20.500000 255 204 102
3.500000 3.500000 11.000000 255 204 102
3.500000 3.500000 12.000000 255 204 102
6.500000 -1.000000 10.500000 255 204 102
-1.500000 -3.000000 19.500000 255 204 102
-4.000000 -0.500000 13.500000 255 204 102
-3.500000 -0.500000 14.000000 255 204 102
-4.000000 0.000000 14.000000 255 204 102
-3.750000 2.000000 10.750000 255 51 51
-1.500000 -1.500000 19.000000 255 204 102
1.500000 -1.500000 19.000000 255 204 102
-0.750000 -2.000000 21.250000 255 255 102
-2.500000 0.500000 1.000000 255 255 0
2.500000 0.000000 0.500000 255 255 0
-0.166667 -0.833333 13.666700 255 204 102
5.000000 -1.500000 9.500000 255 204 102
-5.000000 1.500000 7.500000 255 204 102
-5.000000 3.500000 9.500000 255 204 102
3.250000 3.000000 10.750000 255 204 102
4.500000 2.000000 10.500000 255 204 102
4.000000 -1.000000 6.000000 255 204 102
3.500000 -1.000000 6.500000 255 204 102
2.000000 2.500000 17.500000 255 204 102
1.500000 2.000000 18.500000 255 204 102
2.500000 2.000000 17.500000 255 204 102
5.500000 -1.000000 5.500000 255 204 102
-2.000000 2.500000 17.500000 255 204 102
-2.500000 2.000000 17.500000 255 204 102
2.500000 -1.000000 17.500000 255 204 102
1.500000 -1.000000 18.500000 255 204 102
2.500000 -1.750000 13.750000 255 204 102
2.000000 0.000000 1.000000 255 255 0
1.500000 0.500000 1.000000 255 255 0
3.000000 2.500000 10.500000 255 51 51
5.000000 -1.000000 6.000000 255 204 102
-1.833330 0.833333 14.333300 255 204 102
-3.000000 2.500000 10.500000 255 51 51
1.000000 0.250000 6.250000 0 255 51
-1.000000 0.250000 6.250000 0 255 51
2.500000 1.000000 1.000000 255 255 0
2.750000 -1.000000 14.250000 255 204 102
2.750000 0.000000 14.250000 255 204 102
-2.500000 -1.000000 14.500000 255 204 102
-2.750000 0.000000 14.250000 255 204 102
-2.750000 -1.000000 14.250000 255 204 102
-2.750000 -1.000000 14.250000 255 51 51
-1.500000 1.000000 1.000000 255 255 0
-3.500000 3.500000 12.000000 255 51 51
-3.000000 3.500000 12.500000 255 51 51
3.000000 -0.500000 10.500000 255 51 51
-5.500000 -1.000000 5.500000 255 204 102
2.500000 0.500000 1.000000 255 255 0
3.750000 2.750000 12.500000 255 204 102
3.750000 2.750000 13.500000 255 204 102
4.000000 0.000000 11.000000 255 204 102
3.500000 -0.500000 11.000000 255 204 102
-6.500000 0.000000 5.500000 255 204 102
-3.000000 3.500000 11.500000 255 51 51
-1.500000 -2.500000 19.000000 204 255 255
-0.750000 -2.750000 18.500000 204 255 255
-0.833333 -2.833330 18.666700 204 255 255
-3.750000 0.000000 10.750000 255 204 102
3.750000 2.000000 10.750000 255 51 51
3.750000 0.000000 10.750000 255 51 51
2.000000 0.500000 8.500000 255 51 51
-2.000000 1.500000 4.500000 0 255 51
-2.500000 -1.500000 14.000000 255 204 102
-1.500000 0.000000 0.500000 255 255 0
-3.500000 3.500000 11.000000 255 51 51
0.750000 -2.750000 18.000000 255 204 102
-1.500000 -2.000000 18.500000 204 255 255
-1.500000 -1.500000 18.000000 204 255 255
-1.500000 -2.000000 18.000000 204 255 255
1.000000 1.750000 14.250000 255 204 102
-1.000000 1.750000 14.250000 255 204 102
2.000000 0.250000 1.250000 0 255 51
-4.500000 1.000000 7.500000 255 204 102
-2.000000 1.500000 1.000000 0 255 51
2.500000 1.000000 6.000000 0 255 51
-3.750000 -0.750000 11.500000 255 204 102
-3.750000 -0.750000 13.500000 255 204 102
-4.500000 0.000000 8.500000 255 204 102
-4.500000 2.000000 10.500000 255 204 102
1.500000 -2.500000 19.000000 204 255 255
-0.833333 -2.833330 18.666700 255 204 102
2.500000 -3.000000 15.500000 255 204 102
2.500000 -1.000000 14.500000 255 204 102
2.500000 -1.500000 14.000000 255 204 102
2.000000 1.500000 4.500000 0 255 51
-1.000000 2.500000 18.500000 255 204 102
2.000000 1.500000 1.000000 0 255 51
-0.500000 -2.500000 21.000000 255 204 102
-0.166667 -0.833333 13.666700 255 51 51
1.000000 2.500000 18.500000 255 204 102
0.833333 -2.833330 18.666700 255 204 102
-3.500000 3.500000 11.000000 255 204 102
-3.250000 3.000000 10.750000 255 204 102
-4.500000 3.000000 9.500000 255 204 102
2.000000 0.250000 1.250000 255 255 0
-2.500000 -1.500000 14.000000 255 51 51
-3.000000 -1.000000 14.000000 255 51 51
3.000000 -1.500000 13.500000 255 51 51
-2.500000 -1.750000 13.750000 255 51 51
-1.000000 -1.750000 13.750000 255 51 51
0.500000 -1.500000 14.000000 255 51 51
0.166667 -0.833333 13.666700 255 51 51
2.500000 -1.750000 13.750000 255 51 51
-4.500000 -1.000000 7.500000 255 204 102
3.500000 -0.500000 11.000000 255 51 51
-0.750000 -2.750000 18.000000 204 255 255
-2.000000 1.500000 6.000000 255 51 51
1.500000 -3.000000 19.500000 255 204 102
-3.500000 3.500000 12.000000 255 204 102
1.500000 -2.000000 18.000000 204 255 255
3.000000 3.500000 11.500000 255 51 51
-0.500000 2.500000 21.000000 255 204 102
-2.000000 0.500000 6.000000 255 51 51
-3.500000 -0.500000 11.000000 255 51 51
-3.750000 0.000000 10.750000 255 51 51
-3.500000 2.500000 14.000000 255 51 51
0.500000 2.500000 21.000000 255 204 102
0.750000 2.000000 21.250000 255 255 102
-3.750000 -0.750000 13.500000 255 51 51
2.500000 0.500000 14.000000 255 204 102
1.500000 1.500000 14.000000 255 204 102
6.500000 2.000000 12.500000 255 204 102
3.833330 2.833330 12.333300 255 51 51
-0.750000 -2.750000 18.500000 255 204 102
-1.500000 -2.500000 19.000000 255 204 102
1.500000 -2.500000 19.000000 255 204 102
-0.750000 2.000000 21.250000 255 255 102
-1.500000 1.500000 14.000000 255 204 102
-2.500000 0.500000 14.000000 255 204 102
-3.833330 2.833330 12.333300 255 51 51
-2.500000 -1.750000 13.750000 255 204 102
0.750000 -2.750000 18.500000 255 204 102
-1.500000 -1.500000 19.000000 204 255 255
3.500000 2.500000 14.000000 255 51 51
0.833333 -2.833330 18.666700 204 255 255
0.000000 -0.750000 13.750000 255 51 51
-0.500000 -1.500000 14.000000 255 51 51
-3.500000 -0.500000 14.000000 255 51 51
2.500000 -1.500000 14.000000 255 51 51
3.500000 -0.500000 14.000000 255 51 51
1.000000 -1.750000 13.750000 255 51 51
3 0 1 2
3 3 0 2
3 4 5 6
3 7 4 6
3 8 9 10
3 11 8 10
3 12 13 14
3 15 12 14
3 1 0 16
3 16 0 3
3 17 5 4
3 7 17 4
3 18 19 20
3 21 22 23
3 24 25 26
3 27 28 29
3 30 31 32
3 33 34 35
3 36 37 38
3 39 40 41
3 42 43 44
3 35 45 38
3 46 47 48
3 49 50 51
3 44 41 52
3 53 54 55
3 56 53 55
3 57 58 59
3 60 57 59
3 61 62 63
3 62 64 63
3 64 65 63
3 63 65 66
3 67 68 69
3 69 68 70
3 70 68 71
3 68 72 71
3 73 63 74
3 75 76 68
3 73 74 77
3 76 75 78
3 79 80 81
3 82 83 84
3 85 86 87
3 88 89 64
3 90 91 92
3 93 70 94
3 95 96 97
3 98 99 100
3 101 85 102
3 103 104 105
3 106 107 108
3 109 110 111
3 112 113 114
3 98 115 116
3 117 118 119
3 120 121 122
3 118 123 124
3 120 125 126
3 127 128 129
3 130 131 132
3 133 134 135
3 136 137 138
3 139 140 141
3 142 143 144
3 140 139 145
3 146 147 148
3 149 150 151
3 152 153 154
3 155 156 157
3 158 159 138
3 160 161 162
3 61 63 163
3 164 165 166
3 167 168 169
3 170 171 172
3 173 174 175
3 176 177 178
3 179 180 181
3 182 179 183
3 184 185 186
3 130 187 188
3 182 189 190
3 191 192 193
3 194 195 196
3 197 198 199
3 200 201 202
3 203 204 205
3 206 205 207
3 68 67 208
3 209 210 211
3 212 209 211
3 213 210 214
3 215 216 212
3 128 217 218
3 219 220 221
3 222 223 224
3 225 226 227
3 191 228 184
3 229 160 230
3 226 229 230
3 23 65 231
3 232 233 234
3 235 236 237
3 238 239 240
3 241 242 243
3 244 245 246
3 1 232 247
3 248 206 207
3 244 249 250
3 78 251 252
3 86 253 87
3 254 55 253
3 115 100 255
3 256 257 195
3 258 41 40
3 259 260 261
3 100 262 263
3 240 264 238
3 265 266 267
3 268 269 270
3 271 272 36
3 273 274 275
3 3 232 16
3 276 277 278
3 279 280 276
3 281 282 283
3 284 132 285
3 6 5 286
3 287 288 289
3 122 290 291
3 292 293 294
3 295 296 297
3 298 274 299
3 300 203 301
3 176 202 177
3 302 205 204
3 153 303 154
3 241 304 305
3 306 307 308
3 309 310 311
3 312 178 177
3 305 313 241
3 314 315 262
3 316 238 317
3 318 319 320
3 321 218 215
3 322 319 313
3 119 323 272
3 324 325 236
3 326 34 33
3 197 327 328
3 257 329 195
3 27 210 209
3 215 211 321
3 80 330 62
3 272 331 332
3 56 45 53
3 333 196 334
3 72 335 71
3 336 141 140
3 337 338 339
3 340 296 341
3 138 342 158
3 49 84 50
3 343 344 345
3 346 178 347
3 348 349 350
3 10 351 352
3 198 307 353
3 354 355 356
3 357 322 358
3 359 360 361
3 144 362 142
3 343 363 364
3 76 72 68
3 293 123 294
3 263 59 58
3 365 366 367
3 231 21 23
3 368 369 268
3 250 370 244
3 339 371 326
3 68 163 63
3 156 372 157
3 373 374 375
3 376 369 377
3 363 43 42
3 378 225 227
3 48 50 46
3 291 258 40
3 311 116 115
3 47 81 80
3 379 185 380
3 192 189 193
3 241 319 381
3 382 43 383
3 124 119 118
3 344 384 345
3 385 386 387
3 79 84 83
3 231 18 388
3 284 389 390
3 138 391 392
3 294 332 292
3 143 393 144
3 394 395 266
3 396 397 398
3 399 128 400
3 265 139 347
3 19 65 401
3 308 274 306
3 82 402 83
3 328 403 277
3 33 38 37
3 14 404 405
3 406 206 407
3 315 59 262
3 243 408 304
3 337 287 289
3 329 409 334
3 202 348 350
3 410 411 412
3 339 413 299
3 414 309 415
3 8 2 247
3 350 312 202
3 158 333 159
3 88 64 62
3 361 416 359
3 117 123 118
3 417 213 214
3 213 211 210
3 358 313 418
3 33 37 323
3 79 402 330
3 387 386 87
3 78 73 77
3 411 419 412
3 29 270 420
3 421 422 259
3 347 423 346
3 39 44 43
3 163 51 48
3 424 29 420
3 67 51 208
3 425 426 427
3 196 428 194
3 236 429 237
3 368 430 377
3 161 431 162
3 232 432 247
3 42 44 52
3 12 15 433
3 366 434 367
3 335 30 32
3 414 345 435
3 436 275 437
3 225 175 229
3 438 310 439
3 255 440 441
3 442 443 444
3 80 61 47
3 445 100 263
3 271 38 45
3 280 307 276
3 354 446 447
3 448 443 449
3 357 168 450
3 451 452 286
3 187 390 453
3 440 454 290
3 227 230 134
3 162 230 160
3 455 301 203
3 375 143 373
3 456 390 389
3 308 280 437
3 330 457 458
3 15 405 459
3 27 212 216
3 170 198 171
3 407 460 461
3 462 463 464
3 227 133 378
3 413 375 374
3 180 465 181
3 172 143 425
3 373 171 298
3 233 11 466
3 467 249 468
3 136 409 469
3 282 136 469
3 470 86 331
3 471 15 459
3 348 472 473
3 474 265 475
3 398 342 396
3 476 55 54
3 359 477 468
3 101 86 85
3 477 153 148
3 73 68 63
3 478 479 480
3 61 48 47
3 5 451 286
3 151 481 144
3 188 482 483
3 355 242 127
3 11 352 466
3 162 135 134
3 484 92 96
3 54 45 34
3 139 474 145
3 74 66 485
3 427 172 425
3 486 462 464
3 8 487 2
3 418 165 169
3 148 488 477
3 489 215 218
3 129 321 213
3 490 491 492
3 200 410 201
3 444 248 207
3 493 494 205
3 335 24 495
3 496 102 436
3 448 224 217
3 145 156 439
3 485 497 19
3 441 290 121
3 121 126 441
3 245 360 246
3 77 74 251
3 414 336 309
3 71 32 498
3 425 499 500
3 501 496 502
3 452 13 286
3 400 320 399
3 316 310 421
3 445 58 258
3 259 410 412
3 58 52 258
3 503 341 296
3 470 56 254
3 7 451 17
3 424 504 29
3 174 161 175
3 282 391 137
3 331 292 332
3 338 288 375
3 505 506 248
3 327 427 403
3 87 102 85
3 291 454 445
3 114 107 256
3 432 9 247
3 443 376 377
3 357 507 506
3 508 498 32
3 236 509 354
3 126 255 441
3 510 25 508
3 69 93 402
3 40 382 291
3 317 264 116
3 178 265 347
3 420 269 511
3 392 512 342
3 509 376 513
3 96 91 97
3 197 276 307
3 514 28 216
3 109 111 76
3 515 516 517
3 451 471 518
3 383 125 122
3 396 519 520
3 281 379 521
3 300 462 242
3 435 384 141
3 82 67 69
3 46 84 81
3 36 323 37
3 522 342 523
3 348 410 261
3 391 524 525
3 190 370 182
3 273 102 386
3 408 166 165
3 364 315 240
3 144 502 151
3 526 391 521
3 502 517 516
3 98 264 99
3 389 256 194
3 23 497 485
3 124 527 337
3 107 113 108
3 483 528 469
3 490 529 479
3 130 484 131
3 23 66 65
3 232 487 233
3 235 324 236
3 238 419 239
3 241 381 242
3 244 370 245
3 1 16 232
3 248 407 206
3 244 468 249
3 78 77 251
3 86 254 253
3 254 56 55
3 115 98 100
3 256 530 257
3 258 52 41
3 259 422 260
3 260 472 261
3 100 99 262
3 240 314 264
3 265 394 266
3 28 531 270
3 368 268 270
3 270 531 368
3 271 470 272
3 273 385 274
3 3 487 232
3 276 328 277
3 279 532 280
3 276 278 279
3 281 521 282
3 284 130 132
3 286 13 12
3 12 6 286
3 287 393 288
3 291 382 122
3 122 121 290
3 292 86 293
3 295 503 296
3 296 533 297
3 54 34 476
3 299 413 374
3 476 34 371
3 385 387 476
3 306 274 298
3 171 198 353
3 353 306 298
3 385 476 371
3 299 374 298
3 385 371 299
3 171 353 298
3 385 299 274
3 300 204 203
3 176 200 202
3 300 447 204
3 446 302 204
3 204 447 446
3 153 534 303
3 241 243 304
3 306 353 307
3 309 336 145
3 145 439 309
3 336 140 145
3 255 415 309
3 311 115 255
3 439 310 309
3 311 255 309
3 312 394 178
3 305 418 313
3 262 99 314
3 264 314 99
3 316 419 238
3 318 381 319
3 321 128 218
3 322 505 319
3 272 332 119
3 117 119 332
3 324 535 325
3 326 371 34
3 197 199 327
3 257 536 329
3 27 214 210
3 215 212 211
3 80 79 330
3 272 470 331
3 56 271 45
3 329 334 196
3 333 398 537
3 537 538 333
3 398 397 537
3 196 195 329
3 333 538 196
3 72 25 335
3 336 435 141
3 337 289 338
3 340 533 296
3 138 392 342
3 49 82 84
3 343 364 344
3 346 176 178
3 348 473 349
3 10 9 351
3 198 197 307
3 354 447 355
3 357 506 322
3 359 246 360
3 499 142 362
3 144 481 362
3 343 383 363
3 76 508 72
3 293 527 123
3 263 262 59
3 365 167 366
3 231 388 21
3 368 377 369
3 250 539 370
3 339 299 371
3 68 208 163
3 156 474 372
3 373 298 374
3 376 540 369
3 363 383 43
3 378 541 225
3 48 51 50
3 291 445 258
3 311 317 116
3 47 46 81
3 379 186 185
3 192 190 189
3 241 313 319
3 382 39 43
3 383 122 382
3 124 337 339
3 326 119 124
3 124 339 326
3 344 423 384
3 385 273 386
3 79 81 84
3 231 19 18
3 284 256 389
3 138 137 391
3 294 117 332
3 143 288 393
3 394 312 395
3 396 542 397
3 127 400 128
3 399 217 128
3 384 347 139
3 139 141 384
3 89 401 64
3 19 231 65
3 65 64 401
3 308 275 274
3 82 69 402
3 328 327 403
3 33 35 38
3 14 13 404
3 461 543 407
3 406 544 206
3 493 206 544
3 407 543 406
3 315 60 59
3 243 462 408
3 337 501 287
3 329 484 409
3 202 201 348
3 410 545 411
3 339 338 413
3 125 414 415
3 415 126 125
3 1 247 2
3 9 8 247
3 350 349 395
3 312 177 202
3 350 395 312
3 158 398 333
3 62 330 88
3 458 88 330
3 361 546 416
3 117 294 123
3 417 221 129
3 220 129 221
3 214 547 417
3 417 129 213
3 213 321 211
3 358 322 313
3 326 33 323
3 323 119 326
3 79 83 402
3 87 253 476
3 476 387 87
3 78 75 73
3 411 239 419
3 29 28 270
3 412 419 316
3 316 421 259
3 259 412 316
3 347 384 423
3 39 41 44
3 163 208 51
3 511 235 420
3 237 424 420
3 420 235 237
3 67 49 51
3 425 500 426
3 196 538 428
3 424 237 548
3 236 354 356
3 356 219 429
3 429 548 237
3 236 356 429
3 443 377 449
3 368 531 549
3 430 222 449
3 368 549 430
3 449 377 430
3 161 550 431
3 232 234 432
3 52 57 60
3 60 42 52
3 433 7 6
3 6 12 433
3 366 164 434
3 335 495 30
3 414 343 345
3 436 273 275
3 225 541 173
3 173 175 225
3 229 226 225
3 439 156 155
3 155 438 439
3 255 100 440
3 442 513 443
3 80 62 61
3 445 454 100
3 271 36 38
3 280 308 307
3 354 509 446
3 448 444 443
3 357 169 168
3 451 518 452
3 153 152 453
3 187 130 284
3 453 152 482
3 284 390 187
3 453 482 187
3 440 100 454
3 227 226 230
3 162 134 230
3 203 494 551
3 455 552 301
3 203 551 455
3 463 301 552
3 375 288 143
3 456 453 390
3 515 437 280
3 275 308 437
3 280 532 515
3 330 402 457
3 15 14 405
3 27 209 212
3 170 199 198
3 407 506 460
3 462 301 463
3 227 134 133
3 413 338 375
3 180 520 465
3 142 425 143
3 172 373 143
3 373 172 171
3 233 487 11
3 467 553 249
3 136 138 159
3 159 333 334
3 334 409 136
3 136 159 334
3 282 137 136
3 470 254 86
3 471 433 15
3 348 261 472
3 267 475 265
3 372 474 475
3 398 158 342
3 476 253 55
3 359 416 534
3 416 303 534
3 244 246 359
3 488 467 477
3 468 244 359
3 359 534 477
3 477 467 468
3 101 293 86
3 456 148 153
3 477 534 153
3 153 453 456
3 73 75 68
3 478 490 479
3 61 163 48
3 5 17 451
3 151 150 481
3 188 187 482
3 127 129 220
3 219 356 355
3 127 220 355
3 381 318 400
3 220 219 355
3 242 381 400
3 400 127 242
3 11 10 352
3 162 431 135
3 95 131 96
3 484 329 92
3 536 90 92
3 96 131 484
3 329 536 92
3 35 34 45
3 54 53 45
3 139 265 474
3 74 63 66
3 427 170 172
3 486 554 408
3 408 462 486
3 3 2 487
3 8 11 487
3 357 358 169
3 418 305 165
3 304 408 165
3 164 366 167
3 305 304 165
3 165 164 167
3 169 358 418
3 165 167 169
3 148 147 488
3 218 224 223
3 489 555 216
3 218 223 489
3 489 216 215
3 129 128 321
3 490 478 556
3 556 491 490
3 200 545 410
3 205 302 207
3 442 444 207
3 207 302 442
3 203 205 494
3 206 493 205
3 335 25 24
3 496 101 102
3 505 448 217
3 448 449 222
3 320 319 505
3 399 320 505
3 448 222 224
3 224 218 217
3 217 399 505
3 145 474 156
3 19 401 485
3 104 74 485
3 401 105 104
3 497 20 19
3 401 104 485
3 441 440 290
3 121 120 126
3 245 557 360
3 103 251 74
3 74 104 103
3 414 435 336
3 498 94 70
3 71 335 32
3 498 70 71
3 425 142 499
3 501 527 293
3 293 101 496
3 496 517 502
3 502 393 287
3 501 293 496
3 502 287 501
3 452 404 13
3 400 318 320
3 316 317 310
3 310 438 421
3 317 311 310
3 445 263 58
3 259 261 410
3 58 57 52
3 503 558 341
3 470 271 56
3 7 433 451
3 27 29 214
3 424 548 504
3 504 547 214
3 214 29 504
3 229 175 161
3 174 550 161
3 161 160 229
3 282 521 391
3 331 86 292
3 338 289 288
3 444 448 248
3 505 322 506
3 506 407 248
3 248 448 505
3 327 199 170
3 427 426 403
3 327 170 427
3 87 386 102
3 291 290 454
3 256 284 114
3 285 112 114
3 107 106 530
3 284 285 114
3 107 530 256
3 432 351 9
3 443 513 376
3 357 450 507
3 507 460 506
3 508 76 111
3 111 110 498
3 32 31 510
3 111 498 508
3 32 510 508
3 236 325 509
3 126 415 255
3 72 508 25
3 510 26 25
3 457 402 93
3 69 70 93
3 40 39 382
3 317 238 264
3 178 394 265
3 420 270 269
3 392 559 512
3 512 560 342
3 523 342 560
3 442 302 513
3 509 325 376
3 302 446 509
3 540 376 325
3 513 302 509
3 325 535 540
3 96 92 91
3 197 328 276
3 216 555 514
3 514 549 531
3 531 28 514
3 27 216 28
3 76 78 252
3 252 109 76
3 496 436 517
3 437 515 517
3 517 436 437
3 451 433 471
3 383 343 125
3 125 120 122
3 343 414 125
3 561 542 520
3 396 522 519
3 519 465 520
3 520 542 396
3 526 521 562
3 281 563 379
3 379 380 562
3 562 521 379
3 242 355 300
3 300 301 462
3 355 447 300
3 462 243 242
3 435 345 384
3 82 49 67
3 46 50 84
3 36 272 323
3 522 396 342
3 348 201 410
3 392 391 525
3 564 524 391
3 525 559 392
3 179 182 539
3 192 191 245
3 180 179 539
3 191 557 245
3 186 379 563
3 563 557 186
3 245 370 190
3 539 561 180
3 561 520 180
3 186 557 184
3 184 557 191
3 539 182 370
3 190 192 245
3 273 436 102
3 408 554 166
3 346 423 344
3 364 363 315
3 346 344 364
3 200 176 545
3 239 411 346
3 545 176 346
3 545 346 411
3 240 239 364
3 315 314 240
3 42 60 315
3 239 346 364
3 363 42 315
3 144 393 502
3 526 564 391
3 516 149 502
3 151 502 149
3 98 116 264
3 428 146 456
3 456 389 194
3 146 148 456
3 256 195 194
3 194 428 456
3 485 66 23
3 23 22 497
3 124 123 527
3 527 501 337
3 107 114 113
3 469 409 188
3 484 130 188
3 188 483 469
3 528 283 282
3 409 484 188
3 528 282 469
3 490 492 529
