ply
format ascii 1.0
comment Created by Blender 2.78 (sub 0) - www.blender.org, source file: ''
element vertex 565
property float x
property float y
property float z
property uchar red
property uchar green
property uchar blue
element face 928
property list uchar uint vertex_indices
end_header
-2.000000 -1.500000 0.500000 255 255 0
-2.500000 -1.000000 0.500000 255 255 0
-2.000000 -1.000000 0.000000 255 255 0
-1.500000 -1.000000 0.500000 255 255 0
2.000000 -1.500000 0.500000 255 255 0
1.500000 -1.000000 0.500000 255 255 0
2.000000 -1.000000 0.000000 255 255 0
2.500000 -1.000000 0.500000 255 255 0
-2.000000 1.000000 0.000000 255 255 0
-2.500000 1.000000 0.500000 255 255 0
-2.000000 1.500000 0.500000 255 255 0
-1.500000 1.000000 0.500000 255 255 0
2.000000 1.000000 0.000000 255 255 0
1.500000 1.000000 0.500000 255 255 0
2.000000 1.500000 0.500000 255 255 0
2.500000 1.000000 0.500000 255 255 0
-2.000000 -1.000000 1.000000 255 255 0
2.000000 -1.000000 1.000000 255 255 0
-2.500000 0.500000 1.000000 0 255 51
-2.500000 1.000000 1.500000 0 255 51
-2.500000 1.000000 1.000000 0 255 51
-1.500000 0.500000 1.000000 0 255 51
-1.500000 1.000000 1.000000 0 255 51
-1.500000 1.000000 1.500000 0 255 51
1.500000 0.500000 1.000000 0 255 51
1.500000 1.000000 1.500000 0 255 51
1.500000 1.000000 1.000000 0 255 51
0.000000 -3.500000 18.500000 255 204 102
1.000000 -3.500000 19.500000 255 204 102
-1.000000 -3.500000 19.500000 255 204 102
2.500000 0.500000 1.000000 0 255 51
2.500000 1.000000 1.000000 0 255 51
2.500000 1.000000 1.500000 0 255 51
-6.000000 -2.500000 4.500000 255 204 102
-6.500000 -2.000000 4.500000 255 204 102
-6.000000 -2.000000 4.000000 255 204 102
-4.500000 -2.000000 4.500000 255 204 102
-5.000000 -2.500000 4.500000 255 204 102
-5.000000 -2.000000 4.000000 255 204 102
5.000000 -2.500000 4.500000 255 204 102
4.500000 -2.000000 4.500000 255 204 102
5.000000 -2.000000 4.000000 255 204 102
6.500000 -2.000000 4.500000 255 204 102
6.000000 -2.500000 4.500000 255 204 102
6.000000 -2.000000 4.000000 255 204 102
-6.000000 -1.000000 4.000000 255 204 102
-1.000000 -1.500000 4.500000 0 255 51
-1.500000 -1.000000 4.500000 0 255 51
-1.000000 -1.000000 4.000000 0 255 51
1.500000 -1.000000 4.500000 0 255 51
1.000000 -1.500000 4.500000 0 255 51
1.000000 -1.000000 4.000000 0 255 51
6.000000 -1.000000 4.000000 255 204 102
-6.000000 0.000000 4.000000 255 204 102
-6.500000 0.000000 4.500000 255 204 102
-6.000000 0.500000 4.500000 255 204 102
-5.500000 0.000000 4.500000 255 204 102
6.000000 0.000000 4.000000 255 204 102
5.500000 0.000000 4.500000 255 204 102
6.000000 0.500000 4.500000 255 204 102
6.500000 0.000000 4.500000 255 204 102
-1.500000 0.000000 4.500000 0 255 51
-1.500000 0.000000 5.500000 0 255 51
-1.000000 1.000000 5.000000 0 255 51
-2.000000 0.500000 5.500000 0 255 51
-2.000000 0.500000 4.500000 0 255 51
-1.500000 1.000000 4.500000 0 255 51
1.500000 0.000000 4.500000 0 255 51
1.000000 1.000000 5.000000 0 255 51
1.500000 0.000000 5.500000 0 255 51
2.000000 0.500000 5.500000 0 255 51
2.000000 0.500000 4.500000 0 255 51
1.500000 1.000000 4.500000 0 255 51
-1.000000 2.000000 5.000000 0 255 51
-1.500000 2.000000 5.500000 0 255 51
1.000000 2.000000 5.000000 0 255 51
1.500000 2.000000 5.500000 0 255 51
-1.000000 2.500000 5.500000 0 255 51
1.000000 2.500000 5.500000 0 255 51
-1.000000 -1.000000 6.000000 0 255 51
-1.500000 -1.000000 5.500000 0 255 51
-1.000000 -1.500000 5.500000 0 255 51
1.500000 -1.000000 5.500000 0 255 51
1.000000 -1.000000 6.000000 0 255 51
1.000000 -1.500000 5.500000 0 255 51
-5.000000 1.000000 6.000000 255 204 102
-5.000000 0.000000 6.000000 255 204 102
-6.000000 1.000000 6.000000 255 204 102
-1.500000 0.500000 6.000000 0 255 51
-2.000000 0.500000 6.000000 0 255 51
-1.500000 0.500000 6.000000 255 51 51
-1.000000 0.250000 6.250000 255 51 51
-1.000000 0.500000 6.500000 255 51 51
1.500000 0.500000 6.000000 0 255 51
2.000000 0.500000 6.000000 0 255 51
1.500000 0.500000 6.000000 255 51 51
1.000000 0.500000 6.500000 255 51 51
1.000000 0.250000 6.250000 255 51 51
5.000000 1.000000 6.000000 255 204 102
6.000000 1.000000 6.000000 255 204 102
5.000000 0.000000 6.000000 255 204 102
-4.500000 1.000000 6.500000 255 204 102
-5.000000 1.500000 6.500000 255 204 102
-1.500000 1.500000 6.000000 0 255 51
-2.000000 1.500000 5.500000 0 255 51
-2.000000 1.500000 6.000000 0 255 51
-1.500000 1.500000 6.000000 255 51 51
-1.000000 1.500000 6.500000 255 51 51
-1.000000 1.750000 6.250000 255 51 51
1.500000 1.500000 6.000000 0 255 51
2.000000 1.500000 6.000000 0 255 51
2.000000 1.500000 5.500000 0 255 51
1.500000 1.500000 6.000000 255 51 51
1.000000 1.750000 6.250000 255 51 51
1.000000 1.500000 6.500000 255 51 51
4.500000 1.000000 6.500000 255 204 102
5.000000 1.500000 6.500000 255 204 102
-3.500000 -2.000000 6.500000 255 204 102
-4.000000 -2.000000 7.000000 255 204 102
-4.000000 -2.500000 6.500000 255 204 102
4.000000 -2.000000 7.000000 255 204 102
3.500000 -2.000000 6.500000 255 204 102
4.000000 -2.500000 6.500000 255 204 102
-4.000000 -1.000000 7.000000 255 204 102
-5.000000 -2.000000 7.000000 255 204 102
5.000000 -2.000000 7.000000 255 204 102
4.000000 -1.000000 7.000000 255 204 102
-2.000000 -2.500000 16.500000 255 204 102
0.000000 -2.500000 16.500000 255 204 102
-1.000000 -2.500000 17.500000 255 204 102
0.500000 -2.500000 21.000000 255 255 102
0.000000 -2.500000 21.500000 255 255 102
-0.500000 -2.500000 21.000000 255 255 102
1.000000 -0.500000 10.500000 255 51 51
1.000000 -1.500000 11.500000 255 51 51
0.000000 -0.500000 11.500000 255 51 51
5.000000 -1.000000 11.000000 255 204 102
4.500000 -1.000000 10.500000 255 204 102
5.000000 -1.500000 10.500000 255 204 102
-4.000000 -0.500000 11.500000 255 204 102
-5.000000 -0.500000 11.500000 255 204 102
-4.000000 0.000000 11.000000 255 204 102
4.500000 0.000000 10.500000 255 204 102
-3.500000 2.500000 11.000000 255 51 51
-3.250000 3.000000 10.750000 255 51 51
-3.000000 3.000000 11.000000 255 51 51
-3.500000 2.500000 11.000000 255 204 102
-3.750000 2.000000 10.750000 255 204 102
-4.000000 2.000000 11.000000 255 204 102
3.500000 2.500000 11.000000 255 51 51
3.000000 3.000000 11.000000 255 51 51
3.250000 3.000000 10.750000 255 51 51
3.500000 2.500000 11.000000 255 204 102
4.000000 2.000000 11.000000 255 204 102
3.750000 2.000000 10.750000 255 204 102
-1.000000 -1.500000 11.500000 255 51 51
-1.000000 -0.500000 10.500000 255 51 51
-0.500000 -2.000000 25.500000 255 255 102
-0.500000 2.000000 21.500000 255 255 102
-0.500000 -2.000000 21.500000 255 255 102
-1.000000 0.000000 4.000000 0 255 51
-0.500000 -1.500000 14.000000 255 204 102
-1.000000 -2.000000 14.000000 255 204 102
-1.000000 -1.750000 13.750000 255 204 102
0.500000 -1.500000 14.000000 255 204 102
1.000000 -1.750000 13.750000 255 204 102
1.000000 -2.000000 14.000000 255 204 102
-6.000000 0.000000 14.000000 255 204 102
-6.500000 0.000000 13.500000 255 204 102
-6.000000 -0.500000 13.500000 255 204 102
0.500000 2.500000 21.000000 255 255 102
-0.500000 2.500000 21.000000 255 255 102
0.000000 2.500000 21.500000 255 255 102
6.500000 0.000000 13.500000 255 204 102
6.000000 0.000000 14.000000 255 204 102
6.000000 -0.500000 13.500000 255 204 102
-2.500000 0.500000 14.000000 255 51 51
-3.000000 0.000000 14.000000 255 51 51
-2.750000 0.000000 14.250000 255 51 51
-1.500000 1.500000 14.000000 255 51 51
-1.833330 0.833333 14.333300 255 51 51
2.500000 0.500000 14.000000 255 51 51
2.750000 0.000000 14.250000 255 51 51
3.000000 0.000000 14.000000 255 51 51
2.500000 1.000000 8.500000 255 51 51
2.500000 2.000000 9.500000 255 51 51
2.500000 0.000000 9.500000 255 51 51
-1.000000 1.750000 14.250000 255 51 51
-1.000000 2.000000 14.000000 255 51 51
1.500000 1.500000 14.000000 255 51 51
1.000000 2.000000 14.000000 255 51 51
1.000000 1.750000 14.250000 255 51 51
-2.500000 2.000000 9.500000 255 51 51
-2.500000 1.000000 8.500000 255 51 51
-2.500000 0.000000 9.500000 255 51 51
-6.000000 2.500000 13.500000 255 204 102
-6.500000 2.000000 13.500000 255 204 102
-6.000000 2.000000 14.000000 255 204 102
6.500000 2.000000 13.500000 255 204 102
6.000000 2.500000 13.500000 255 204 102
6.000000 2.000000 14.000000 255 204 102
-1.000000 1.500000 14.500000 255 204 102
-1.000000 1.500000 15.500000 255 204 102
0.000000 1.500000 14.500000 255 204 102
1.000000 1.500000 14.500000 255 204 102
1.000000 1.500000 15.500000 255 204 102
1.000000 0.000000 4.000000 0 255 51
0.000000 -4.500000 17.500000 255 204 102
-0.500000 -4.000000 17.500000 255 204 102
0.000000 -4.000000 17.000000 255 204 102
0.500000 -4.000000 17.500000 255 204 102
-0.500000 -3.000000 17.500000 255 204 102
-0.500000 -3.000000 18.500000 255 204 102
0.500000 -3.000000 17.500000 255 204 102
0.500000 -3.000000 18.500000 255 204 102
2.000000 -2.500000 16.500000 255 204 102
1.000000 -2.500000 17.500000 255 204 102
-1.500000 -1.500000 18.000000 255 204 102
-1.500000 -2.000000 17.500000 255 204 102
-1.500000 -2.000000 18.000000 255 204 102
1.500000 -1.500000 18.000000 255 204 102
1.500000 -2.000000 18.000000 255 204 102
1.500000 -2.000000 17.500000 255 204 102
0.500000 2.000000 21.500000 255 255 102
0.500000 -2.000000 25.500000 255 255 102
0.500000 -2.000000 21.500000 255 255 102
1.833330 0.833333 14.333300 255 51 51
0.000000 -2.000000 26.000000 255 255 102
0.000000 -2.500000 25.500000 255 255 102
-2.000000 1.500000 6.000000 255 51 51
-2.500000 1.000000 6.000000 255 51 51
1.500000 -1.000000 18.500000 255 204 102
2.500000 2.000000 17.500000 255 204 102
1.500000 2.000000 18.500000 255 204 102
3.750000 0.000000 10.750000 255 51 51
3.750000 2.000000 10.750000 255 51 51
-0.750000 -2.750000 18.500000 204 255 255
-1.500000 -2.000000 18.000000 204 255 255
-0.750000 -2.750000 18.000000 204 255 255
6.000000 -0.500000 11.500000 255 204 102
6.500000 -1.000000 10.500000 255 204 102
6.500000 0.000000 11.500000 255 204 102
-1.000000 0.000000 6.000000 0 255 51
-1.000000 0.250000 6.250000 0 255 51
-1.500000 0.000000 0.500000 255 255 0
2.500000 1.000000 6.000000 255 51 51
2.000000 0.500000 8.500000 255 51 51
2.000000 0.500000 6.000000 255 51 51
3.500000 -0.500000 11.000000 255 204 102
3.750000 0.000000 10.750000 255 204 102
4.000000 0.000000 11.000000 255 204 102
-2.000000 0.500000 6.000000 255 51 51
-2.000000 0.500000 8.500000 255 51 51
0.000000 2.500000 15.500000 255 204 102
-2.000000 2.500000 17.500000 255 204 102
2.500000 0.500000 1.000000 255 255 0
2.500000 1.000000 1.000000 255 255 0
1.000000 -4.500000 14.500000 255 204 102
2.500000 -3.000000 15.500000 255 204 102
1.000000 -4.500000 15.500000 255 204 102
-6.000000 -0.500000 11.500000 255 204 102
-5.000000 -1.500000 10.500000 255 204 102
0.750000 -2.000000 21.250000 255 204 102
1.500000 2.000000 20.500000 255 204 102
0.750000 2.000000 21.250000 255 204 102
3.750000 2.750000 12.500000 255 51 51
3.000000 3.500000 13.500000 255 51 51
3.750000 2.750000 13.500000 255 51 51
-2.000000 0.500000 1.500000 0 255 51
-2.500000 -3.000000 14.500000 255 204 102
-1.000000 -4.500000 15.500000 255 204 102
-2.500000 -3.000000 15.500000 255 204 102
2.000000 0.500000 1.500000 0 255 51
2.500000 0.000000 0.500000 255 255 0
1.500000 0.000000 0.500000 255 255 0
1.500000 -1.500000 19.000000 204 255 255
1.500000 -2.000000 18.500000 204 255 255
1.500000 -1.500000 18.000000 204 255 255
-3.750000 0.000000 10.750000 255 51 51
-3.750000 2.000000 10.750000 255 51 51
0.000000 -0.500000 13.500000 255 51 51
1.000000 -1.500000 13.500000 255 51 51
6.000000 -0.500000 8.500000 255 204 102
6.500000 -1.000000 9.500000 255 204 102
6.000000 -1.500000 9.500000 255 204 102
-4.000000 -0.500000 13.500000 255 204 102
-5.000000 -0.500000 8.500000 255 204 102
-4.500000 -1.000000 9.500000 255 204 102
-5.000000 -1.500000 9.500000 255 204 102
2.000000 -3.000000 16.000000 255 204 102
-2.000000 -3.000000 16.000000 255 204 102
6.000000 0.500000 5.500000 255 204 102
5.500000 0.000000 5.500000 255 204 102
-1.000000 1.750000 14.250000 255 204 102
1.000000 1.750000 14.250000 255 204 102
-3.750000 2.750000 13.500000 255 51 51
-3.000000 3.500000 12.500000 255 51 51
-3.750000 2.750000 12.500000 255 51 51
5.000000 -1.500000 9.500000 255 204 102
-6.500000 3.000000 11.500000 255 204 102
-6.000000 3.500000 9.500000 255 204 102
-6.500000 3.000000 9.500000 255 204 102
-3.000000 -1.500000 11.500000 255 51 51
-3.750000 -0.750000 13.500000 255 51 51
-3.750000 -0.750000 11.500000 255 51 51
-5.500000 -1.000000 4.500000 255 204 102
-4.000000 3.500000 11.500000 255 204 102
-5.000000 3.500000 9.500000 255 204 102
-6.000000 3.500000 11.500000 255 204 102
2.000000 1.500000 4.500000 0 255 51
2.500000 1.000000 6.000000 0 255 51
-2.500000 0.000000 0.500000 255 255 0
-6.000000 0.500000 5.500000 255 204 102
4.000000 -0.500000 11.500000 255 204 102
-4.000000 2.500000 12.500000 255 204 102
-6.000000 2.500000 12.500000 255 204 102
-4.000000 -1.000000 6.000000 255 204 102
-4.500000 0.000000 6.500000 255 204 102
-3.500000 -1.000000 6.500000 255 204 102
6.000000 1.500000 6.500000 255 204 102
3.000000 -1.500000 13.500000 255 51 51
3.750000 -0.750000 13.500000 255 51 51
3.000000 -1.000000 14.000000 255 51 51
0.000000 -3.000000 17.000000 255 204 102
0.750000 -2.750000 18.500000 204 255 255
1.500000 -2.000000 18.000000 204 255 255
6.000000 3.500000 11.500000 255 204 102
6.500000 3.000000 9.500000 255 204 102
6.000000 3.500000 9.500000 255 204 102
-2.000000 0.000000 1.000000 255 255 0
1.000000 2.500000 18.500000 255 204 102
1.000000 2.500000 20.500000 255 204 102
5.500000 -1.000000 4.500000 255 204 102
-6.500000 -2.000000 6.500000 255 204 102
-6.500000 1.000000 6.500000 255 204 102
-6.000000 1.500000 7.500000 255 204 102
-6.000000 1.500000 6.500000 255 204 102
-3.500000 -0.500000 14.000000 255 204 102
-4.000000 0.000000 14.000000 255 204 102
2.750000 0.000000 14.250000 255 204 102
2.500000 -1.000000 14.500000 255 204 102
2.750000 -1.000000 14.250000 255 204 102
6.500000 1.000000 6.500000 255 204 102
6.000000 -2.500000 6.500000 255 204 102
-1.500000 0.500000 1.000000 255 255 0
-2.000000 0.250000 1.250000 255 255 0
2.000000 2.500000 17.500000 255 204 102
-2.000000 0.250000 1.250000 0 255 51
4.000000 -0.500000 13.500000 255 204 102
3.750000 2.750000 13.500000 255 204 102
4.000000 2.500000 12.500000 255 204 102
3.750000 2.750000 12.500000 255 204 102
-2.000000 -2.000000 14.000000 255 204 102
-2.000000 -3.000000 14.000000 255 204 102
3.750000 -0.750000 11.500000 255 51 51
3.000000 -1.500000 11.500000 255 51 51
4.000000 -1.000000 6.000000 255 204 102
4.000000 -2.000000 6.000000 255 204 102
2.000000 -2.000000 14.000000 255 204 102
2.500000 -3.000000 14.500000 255 204 102
2.000000 -3.000000 14.000000 255 204 102
-5.000000 1.500000 7.500000 255 204 102
-1.500000 2.000000 18.500000 255 204 102
-1.000000 2.500000 20.500000 255 204 102
-1.000000 2.500000 18.500000 255 204 102
-0.750000 2.000000 21.250000 255 204 102
-1.500000 2.000000 20.500000 255 204 102
2.000000 2.500000 9.500000 255 51 51
-2.000000 1.500000 8.500000 255 51 51
-2.000000 2.500000 9.500000 255 51 51
-5.000000 -2.500000 5.500000 255 204 102
2.000000 0.000000 1.000000 255 255 0
2.000000 0.250000 1.250000 255 255 0
4.500000 -2.000000 5.500000 255 204 102
5.000000 -2.500000 5.500000 255 204 102
-6.000000 -0.500000 8.500000 255 204 102
-6.000000 -2.500000 6.500000 255 204 102
-3.750000 0.000000 10.750000 255 204 102
-6.500000 2.000000 12.500000 255 204 102
-6.000000 -1.500000 9.500000 255 204 102
-3.000000 -0.500000 10.500000 255 51 51
1.000000 0.000000 6.000000 0 255 51
1.000000 -4.000000 16.000000 255 204 102
-6.500000 -1.000000 10.500000 255 204 102
-6.000000 -1.500000 10.500000 255 204 102
2.000000 0.250000 1.250000 0 255 51
-2.500000 2.000000 17.500000 255 204 102
-3.500000 3.500000 11.000000 255 51 51
-3.000000 3.500000 11.500000 255 51 51
-0.750000 2.000000 21.250000 255 255 102
-0.750000 -2.000000 21.250000 255 255 102
-2.500000 0.000000 14.500000 255 204 102
-4.500000 -2.000000 5.500000 255 204 102
-5.000000 -1.000000 6.000000 255 204 102
-4.000000 -2.000000 6.000000 255 204 102
-1.500000 -2.000000 20.500000 255 204 102
3.500000 3.500000 11.000000 255 51 51
3.500000 3.500000 12.000000 255 51 51
3.000000 3.500000 12.500000 255 51 51
-0.500000 -2.500000 21.000000 255 204 102
1.000000 -2.500000 20.500000 255 204 102
0.500000 -2.500000 21.000000 255 204 102
-4.000000 2.500000 13.500000 255 204 102
-3.500000 2.500000 14.000000 255 204 102
-3.750000 2.750000 13.500000 255 204 102
2.000000 1.500000 1.000000 255 255 0
1.500000 1.000000 1.000000 255 255 0
-3.833330 2.833330 12.333300 255 204 102
-3.000000 -1.000000 14.000000 255 51 51
-2.750000 -1.000000 14.250000 255 51 51
1.000000 1.750000 6.250000 0 255 51
-1.000000 -1.500000 13.500000 255 51 51
-4.500000 -1.000000 10.500000 255 204 102
2.750000 -1.000000 14.250000 255 51 51
-3.500000 -0.500000 11.000000 255 204 102
0.750000 2.000000 21.250000 255 255 102
-4.000000 2.000000 14.000000 255 204 102
3.000000 3.000000 14.000000 255 51 51
-3.000000 3.000000 14.000000 255 51 51
5.500000 -1.000000 5.500000 255 204 102
2.000000 1.500000 6.000000 255 51 51
0.833333 -2.833330 18.666700 255 204 102
-1.000000 -4.000000 16.000000 255 204 102
-3.000000 3.500000 13.500000 255 51 51
-2.000000 1.500000 1.000000 255 255 0
-2.500000 1.000000 1.000000 255 255 0
1.500000 0.500000 1.000000 255 255 0
3.000000 2.500000 10.500000 255 51 51
2.500000 0.000000 15.500000 255 204 102
5.000000 -1.000000 6.000000 255 204 102
-6.500000 -1.000000 9.500000 255 204 102
-6.500000 0.000000 8.500000 255 204 102
-1.000000 1.750000 6.250000 0 255 51
5.000000 1.500000 7.500000 255 204 102
6.000000 1.500000 7.500000 255 204 102
2.500000 0.000000 14.500000 255 204 102
2.500000 -1.000000 17.500000 255 204 102
-3.000000 -1.500000 13.500000 255 51 51
-4.500000 0.000000 8.500000 255 204 102
-4.500000 2.000000 10.500000 255 204 102
5.000000 -0.500000 8.500000 255 204 102
4.500000 -1.000000 9.500000 255 204 102
4.500000 0.000000 8.500000 255 204 102
3.500000 -1.000000 6.500000 255 204 102
-1.000000 -2.500000 20.500000 255 204 102
3.500000 -0.500000 14.000000 255 204 102
3.750000 -0.750000 13.500000 255 204 102
4.500000 2.000000 10.500000 255 204 102
2.500000 -1.500000 14.000000 255 204 102
1.000000 -4.000000 14.000000 255 204 102
4.000000 2.000000 14.000000 255 204 102
4.000000 2.500000 13.500000 255 204 102
-1.500000 -1.500000 18.000000 204 255 255
-1.500000 -2.000000 18.500000 204 255 255
0.166667 -0.833333 13.666700 255 51 51
0.500000 -1.500000 14.000000 255 51 51
-1.500000 1.000000 1.000000 255 255 0
-6.500000 0.000000 11.500000 255 204 102
6.500000 1.000000 7.500000 255 204 102
4.500000 -1.000000 7.500000 255 204 102
-2.500000 -1.750000 13.750000 255 51 51
-1.000000 -1.750000 13.750000 255 51 51
3.500000 2.500000 14.000000 255 204 102
-3.250000 3.000000 10.750000 255 204 102
-2.500000 -1.000000 17.500000 255 204 102
-2.500000 0.000000 15.500000 255 204 102
-2.500000 -1.000000 14.500000 255 204 102
-3.750000 2.750000 12.500000 255 204 102
1.000000 0.250000 6.250000 0 255 51
-6.500000 0.000000 5.500000 255 204 102
6.500000 2.000000 12.500000 255 204 102
6.000000 2.500000 12.500000 255 204 102
-1.500000 -1.000000 18.500000 255 204 102
-3.750000 -0.750000 13.500000 255 204 102
-3.750000 -0.750000 11.500000 255 204 102
-1.000000 -4.500000 14.500000 255 204 102
4.500000 0.000000 6.500000 255 204 102
3.750000 -0.750000 11.500000 255 204 102
6.000000 -1.500000 10.500000 255 204 102
3.000000 3.500000 11.500000 255 51 51
-1.500000 -3.000000 19.500000 255 204 102
-0.833333 -2.833330 18.666700 255 204 102
-3.500000 3.500000 11.000000 255 204 102
-4.500000 3.000000 9.500000 255 204 102
4.500000 1.000000 7.500000 255 204 102
5.000000 3.500000 9.500000 255 204 102
4.500000 3.000000 9.500000 255 204 102
3.500000 3.500000 11.000000 255 204 102
4.000000 0.000000 14.000000 255 204 102
-2.000000 -0.500000 9.500000 255 51 51
2.000000 -0.500000 9.500000 255 51 51
-0.166667 -0.833333 13.666700 255 51 51
-1.500000 -2.500000 19.000000 204 255 255
-0.833333 -2.833330 18.666700 204 255 255
-0.750000 -2.000000 21.250000 255 204 102
-3.500000 3.500000 12.000000 255 51 51
-2.500000 0.500000 1.000000 255 255 0
-2.500000 1.000000 6.000000 0 255 51
-0.750000 -2.750000 18.000000 255 204 102
6.500000 -2.000000 6.500000 255 204 102
6.500000 0.000000 8.500000 255 204 102
-2.000000 1.500000 1.000000 0 255 51
2.500000 -1.750000 13.750000 255 51 51
-4.500000 -1.000000 7.500000 255 204 102
3.000000 -0.500000 10.500000 255 51 51
1.500000 -1.500000 19.000000 255 204 102
-2.500000 0.500000 14.000000 255 204 102
-2.750000 0.000000 14.250000 255 204 102
-2.750000 -1.000000 14.250000 255 204 102
-2.500000 -1.500000 14.000000 255 204 102
2.500000 -1.750000 13.750000 255 204 102
6.500000 3.000000 11.500000 255 204 102
-1.000000 -4.000000 14.000000 255 204 102
1.500000 -2.500000 19.000000 204 255 255
3.250000 3.000000 10.750000 255 204 102
0.000000 -1.000000 14.000000 255 204 102
-0.166667 -0.833333 13.666700 255 204 102
0.000000 -0.750000 13.750000 255 204 102
1.833330 0.833333 14.333300 255 204 102
2.500000 0.500000 14.000000 255 204 102
-2.000000 1.500000 4.500000 0 255 51
4.000000 3.500000 11.500000 255 204 102
0.750000 -2.000000 21.250000 255 255 102
2.000000 1.500000 1.000000 0 255 51
3.833330 2.833330 12.333300 255 204 102
-1.500000 -1.500000 19.000000 255 204 102
-0.500000 2.500000 21.000000 255 204 102
-5.500000 0.000000 5.500000 255 204 102
0.166667 -0.833333 13.666700 255 204 102
-5.500000 -1.000000 5.500000 255 204 102
-2.500000 -1.500000 14.000000 255 51 51
-3.000000 2.500000 10.500000 255 51 51
0.750000 -2.750000 18.000000 255 204 102
3.500000 -0.500000 11.000000 255 51 51
1.500000 -2.000000 20.500000 255 204 102
6.500000 0.000000 5.500000 255 204 102
-3.500000 3.500000 12.000000 255 204 102
2.500000 -1.500000 14.000000 255 51 51
3.500000 -0.500000 14.000000 255 51 51
0.750000 -2.750000 18.000000 204 255 255
-6.500000 1.000000 7.500000 255 204 102
-4.500000 1.000000 7.500000 255 204 102
-2.500000 -1.750000 13.750000 255 204 102
2.000000 1.500000 8.500000 255 51 51
3.833330 2.833330 12.333300 255 51 51
3.500000 2.500000 14.000000 255 51 51
-3.500000 2.500000 14.000000 255 51 51
-3.500000 -0.500000 14.000000 255 51 51
0.750000 -2.750000 18.500000 255 204 102
1.500000 -2.500000 19.000000 255 204 102
1.500000 -3.000000 19.500000 255 204 102
-1.500000 -1.500000 19.000000 204 255 255
0.000000 -0.750000 13.750000 255 51 51
1.000000 -1.750000 13.750000 255 51 51
-1.500000 -2.500000 19.000000 255 204 102
-0.750000 -2.750000 18.500000 255 204 102
-3.500000 -0.500000 11.000000 255 51 51
-0.500000 -1.500000 14.000000 255 51 51
-3.833330 2.833330 12.333300 255 51 51
0.500000 2.500000 21.000000 255 204 102
-1.833330 0.833333 14.333300 255 204 102
-1.500000 1.500000 14.000000 255 204 102
0.833333 -2.833330 18.666700 204 255 255
1.500000 1.500000 14.000000 255 204 102
3.500000 3.500000 12.000000 255 204 102
3 0 1 2
3 3 0 2
3 4 5 6
3 7 4 6
3 8 9 10
3 11 8 10
3 12 13 14
3 15 12 14
3 1 0 16
3 16 0 3
3 17 5 4
3 7 17 4
3 18 19 20
3 21 22 23
3 24 25 26
3 27 28 29
3 30 31 32
3 33 34 35
3 36 37 38
3 39 40 41
3 42 43 44
3 35 45 38
3 46 47 48
3 49 50 51
3 44 41 52
3 53 54 55
3 56 53 55
3 57 58 59
3 60 57 59
3 61 62 63
3 62 64 63
3 64 65 63
3 63 65 66
3 67 68 69
3 69 68 70
3 70 68 71
3 68 72 71
3 73 63 74
3 75 76 68
3 73 74 77
3 76 75 78
3 79 80 81
3 82 83 84
3 85 86 87
3 88 89 64
3 90 91 92
3 93 70 94
3 95 96 97
3 98 99 100
3 101 85 102
3 103 104 105
3 106 107 108
3 109 110 111
3 112 113 114
3 98 115 116
3 117 118 119
3 120 121 122
3 118 123 124
3 120 125 126
3 127 128 129
3 130 131 132
3 133 134 135
3 136 137 138
3 139 140 141
3 137 136 142
3 143 144 145
3 146 147 148
3 149 150 151
3 152 153 154
3 155 156 135
3 157 158 159
3 61 63 160
3 161 162 163
3 164 165 166
3 167 168 169
3 170 171 172
3 173 174 175
3 176 177 178
3 179 176 180
3 181 182 183
3 184 185 186
3 179 187 188
3 189 190 191
3 192 193 194
3 195 196 197
3 198 199 200
3 201 202 203
3 204 203 205
3 68 67 206
3 207 208 209
3 210 207 209
3 211 208 212
3 213 214 210
3 128 215 216
3 217 218 219
3 220 221 222
3 223 224 225
3 189 226 181
3 227 157 228
3 224 227 228
3 193 229 230
3 231 232 233
3 234 185 235
3 236 237 238
3 239 240 241
3 242 243 88
3 11 244 8
3 245 246 247
3 248 249 250
3 193 251 252
3 253 202 254
3 255 15 256
3 257 258 259
3 260 261 140
3 262 263 264
3 265 266 267
3 268 66 65
3 269 270 271
3 71 25 272
3 15 273 12
3 6 274 12
3 275 276 277
3 192 278 279
3 83 81 84
3 280 134 281
3 37 35 38
3 168 197 196
3 282 283 284
3 169 140 285
3 286 287 288
3 289 128 290
3 131 224 228
3 100 291 292
3 293 203 294
3 295 296 297
3 291 60 59
3 298 282 284
3 157 131 228
3 299 300 301
3 302 303 304
3 53 305 45
3 306 307 308
3 309 310 32
3 2 1 311
3 86 312 87
3 239 313 136
3 137 298 138
3 314 308 315
3 316 317 318
3 99 116 319
3 320 321 322
3 323 216 213
3 108 114 113
3 324 325 276
3 50 82 84
3 326 327 328
3 311 16 329
3 263 330 331
3 332 41 40
3 33 333 34
3 334 335 336
3 285 337 338
3 339 340 341
3 174 198 200
3 342 291 99
3 42 343 43
3 329 344 345
3 346 233 232
3 268 18 347
3 174 348 175
3 80 46 81
3 349 350 351
3 269 352 353
3 354 320 355
3 118 318 123
3 121 356 357
3 358 359 360
3 46 51 50
3 361 101 102
3 352 163 162
3 305 38 45
3 362 363 364
3 191 188 187
3 365 363 366
3 367 368 369
3 33 37 370
3 371 255 372
3 373 39 374
3 375 333 376
3 141 147 377
3 378 195 315
3 27 208 207
3 317 123 318
3 44 52 42
3 335 301 300
3 54 312 55
3 375 288 379
3 85 336 102
3 156 302 380
3 121 357 122
3 239 173 175
3 242 83 381
3 382 270 259
3 383 379 384
3 272 24 385
3 362 254 386
3 145 387 388
3 159 389 390
3 391 202 201
3 392 393 394
3 395 365 366
3 27 210 214
3 150 396 151
3 119 392 394
3 265 397 398
3 399 400 401
3 402 403 404
3 142 313 250
3 97 92 91
3 405 13 406
3 407 306 314
3 178 408 409
3 384 288 261
3 109 76 410
3 54 45 34
3 316 117 394
3 155 280 411
3 140 412 141
3 413 183 182
3 141 377 414
3 77 75 73
3 58 291 59
3 225 415 223
3 402 197 416
3 417 418 188
3 285 167 169
3 239 348 313
3 40 419 332
3 420 184 245
3 421 28 214
3 289 422 382
3 223 170 172
3 295 418 423
3 424 9 425
3 426 13 274
3 427 235 185
3 232 428 205
3 373 429 419
3 375 430 431
3 410 77 432
3 87 312 334
3 433 328 434
3 260 383 384
3 205 435 204
3 48 206 51
3 262 401 400
3 215 436 222
3 437 155 411
3 412 438 439
3 440 441 442
3 83 69 381
3 443 120 126
3 307 335 300
3 444 28 400
3 348 445 446
3 268 21 23
3 447 250 153
3 434 342 319
3 68 309 72
3 358 448 340
3 449 359 257
3 376 124 375
3 450 199 451
3 69 70 93
3 141 439 148
3 452 237 453
3 454 281 455
3 456 10 424
3 457 169 168
3 434 327 458
3 159 132 131
3 440 442 459
3 460 411 461
3 114 107 368
3 451 462 450
3 439 463 146
3 17 273 371
3 464 465 466
3 374 43 343
3 467 402 404
3 63 75 68
3 243 381 468
3 116 434 319
3 315 402 314
3 125 282 440
3 77 74 432
3 292 429 100
3 469 333 431
3 270 257 259
3 206 49 51
3 154 250 249
3 199 470 471
3 472 386 464
3 473 139 474
3 475 449 257
3 16 244 329
3 126 476 443
3 323 210 209
3 449 162 166
3 129 323 211
3 477 348 446
3 326 350 471
3 284 240 478
3 47 62 61
3 47 160 48
3 464 271 127
3 296 398 479
3 344 11 456
3 480 481 29
3 332 292 58
3 81 50 84
3 356 429 357
3 336 361 102
3 63 206 160
3 482 463 483
3 194 380 278
3 274 17 371
3 476 356 443
3 476 442 484
3 393 316 394
3 417 267 266
3 312 56 55
3 171 389 158
3 485 486 487
3 488 450 445
3 489 246 490
3 280 491 411
3 492 236 493
3 444 494 395
3 495 297 296
3 37 392 370
3 329 496 311
3 497 19 65
3 476 98 100
3 62 79 242
3 496 9 311
3 331 264 263
3 299 315 308
3 208 323 209
3 288 412 261
3 71 32 310
3 498 129 211
3 282 499 500
3 23 22 501
3 502 281 320
3 43 41 44
3 503 286 124
3 504 134 133
3 231 263 505
3 506 507 391
3 466 508 509
3 358 165 510
3 416 167 338
3 471 511 326
3 512 269 353
3 513 324 276
3 369 427 367
3 340 428 436
3 138 284 478
3 514 447 152
3 241 327 511
3 92 96 252
3 350 199 471
3 69 49 67
3 272 30 32
3 515 516 517
3 518 435 519
3 332 57 52
3 427 145 150
3 520 63 66
3 521 485 487
3 225 130 522
3 523 26 25
3 521 524 350
3 134 320 281
3 366 525 395
3 363 526 331
3 490 133 156
3 527 305 56
3 528 515 517
3 85 317 86
3 36 529 392
3 256 14 405
3 393 527 86
3 530 408 437
3 531 279 143
3 532 216 221
3 504 234 533
3 508 391 507
3 520 501 19
3 371 426 274
3 115 433 116
3 266 418 417
3 193 368 229
3 231 436 232
3 234 186 185
3 236 453 237
3 239 478 240
3 88 64 62
3 62 242 88
3 2 8 244
3 244 3 2
3 245 184 246
3 250 313 248
3 477 248 313
3 193 230 251
3 386 254 202
3 253 203 202
3 202 465 386
3 255 273 15
3 257 359 258
3 260 384 261
3 262 534 263
3 265 398 266
3 268 23 66
3 269 475 270
3 71 72 25
3 6 12 273
3 273 7 6
3 13 12 274
3 6 5 274
3 275 513 276
3 276 325 277
3 192 194 278
3 83 79 81
3 280 135 134
3 37 33 35
3 168 167 197
3 282 500 283
3 139 285 140
3 169 260 140
3 286 438 287
3 127 290 128
3 289 215 128
3 131 225 224
3 100 99 291
3 204 294 203
3 293 201 203
3 295 423 296
3 291 535 60
3 298 440 282
3 157 159 131
3 299 308 300
3 302 437 303
3 53 56 305
3 306 536 482
3 482 307 306
3 300 308 307
3 309 76 111
3 111 110 310
3 32 31 523
3 111 310 309
3 32 523 309
3 311 9 8
3 8 2 311
3 86 527 312
3 136 138 478
3 478 239 136
3 137 441 298
3 314 306 308
3 316 86 317
3 99 98 116
3 413 537 322
3 502 320 537
3 321 538 322
3 322 537 320
3 323 128 216
3 108 107 114
3 324 539 325
3 50 49 82
3 326 511 327
3 311 1 16
3 263 233 330
3 332 52 41
3 33 376 333
3 334 540 335
3 285 473 337
3 339 435 340
3 174 173 198
3 99 319 342
3 342 535 291
3 42 499 343
3 329 244 344
3 346 330 233
3 268 19 18
3 174 488 348
3 80 47 46
3 349 451 350
3 269 466 352
3 354 321 320
3 118 117 318
3 121 443 356
3 358 340 359
3 46 48 51
3 361 541 101
3 352 542 163
3 305 36 38
3 362 366 363
3 191 190 188
3 365 526 363
3 367 543 368
3 376 33 370
3 370 119 376
3 371 273 255
3 373 40 39
3 375 431 333
3 141 148 147
3 378 196 195
3 27 212 208
3 317 503 123
3 60 42 52
3 52 57 60
3 335 540 301
3 54 469 312
3 375 286 288
3 85 87 336
3 156 155 302
3 374 122 357
3 357 373 374
3 239 241 173
3 242 79 83
3 382 422 270
3 383 430 379
3 272 25 24
3 362 364 254
3 145 144 387
3 159 158 389
3 391 465 202
3 392 529 393
3 395 494 365
3 27 207 210
3 150 479 396
3 394 117 119
3 119 370 392
3 265 544 397
3 399 444 400
3 402 416 403
3 142 136 313
3 97 96 92
3 405 14 13
3 407 536 306
3 314 467 407
3 178 177 408
3 384 379 288
3 78 410 76
3 109 111 76
3 35 34 45
3 54 53 45
3 316 318 117
3 155 135 280
3 140 261 412
3 413 322 183
3 414 474 139
3 139 141 414
3 77 78 75
3 58 292 291
3 225 522 415
3 402 195 197
3 190 189 417
3 183 322 538
3 189 181 545
3 183 538 545
3 545 417 189
3 418 546 179
3 547 408 177
3 176 179 546
3 546 547 177
3 177 176 546
3 181 183 545
3 418 179 188
3 188 190 417
3 285 338 167
3 239 175 348
3 40 373 419
3 420 543 184
3 214 548 421
3 421 549 550
3 550 28 421
3 27 214 28
3 289 290 422
3 172 227 223
3 223 415 170
3 227 224 223
3 295 546 418
3 424 10 9
3 426 406 13
3 184 543 185
3 427 150 149
3 185 543 367
3 149 235 427
3 367 427 185
3 203 253 205
3 346 232 205
3 205 253 346
3 373 357 429
3 375 379 430
3 410 78 77
3 469 334 312
3 336 87 334
3 433 485 328
3 260 457 383
3 205 428 435
3 48 160 206
3 28 550 400
3 534 262 400
3 400 550 534
3 222 216 215
3 289 382 259
3 220 222 436
3 289 259 258
3 231 220 436
3 215 289 258
3 258 436 215
3 437 302 155
3 483 439 438
3 412 287 438
3 438 503 317
3 317 101 541
3 541 483 438
3 438 317 541
3 440 298 441
3 83 82 69
3 443 121 120
3 307 361 335
3 444 29 28
3 348 488 445
3 268 347 21
3 447 142 250
3 434 458 342
3 68 76 309
3 358 510 448
3 448 341 340
3 449 360 359
3 376 119 124
3 124 286 375
3 119 118 124
3 450 200 199
3 93 468 381
3 381 69 93
3 141 412 439
3 551 452 453
3 453 492 551
3 454 552 280
3 280 281 454
3 553 455 281
3 456 11 10
3 457 260 169
3 434 328 327
3 159 390 132
3 125 440 459
3 459 126 125
3 460 437 411
3 368 543 114
3 420 112 114
3 107 106 229
3 543 420 114
3 107 229 368
3 451 349 462
3 146 148 439
3 439 483 463
3 17 7 273
3 269 271 466
3 464 386 465
3 465 391 466
3 466 271 464
3 374 39 43
3 343 122 374
3 467 314 402
3 63 73 75
3 243 242 381
3 116 433 434
3 315 195 402
3 125 120 122
3 343 282 125
3 125 122 343
3 103 432 74
3 74 104 103
3 292 419 429
3 457 168 378
3 378 299 457
3 168 196 378
3 430 383 457
3 34 333 469
3 431 430 457
3 457 299 301
3 540 334 469
3 457 301 431
3 431 301 540
3 469 54 34
3 431 540 469
3 270 475 257
3 206 67 49
3 154 153 250
3 199 198 470
3 472 362 386
3 473 285 139
3 475 512 449
3 16 3 244
3 126 459 476
3 323 213 210
3 358 360 166
3 449 512 162
3 353 352 162
3 161 515 164
3 512 353 162
3 162 161 164
3 166 360 449
3 162 164 166
3 129 128 323
3 477 313 348
3 326 521 350
3 284 283 240
3 47 80 62
3 47 61 160
3 217 472 464
3 271 270 422
3 271 422 290
3 217 464 218
3 127 129 218
3 218 464 127
3 271 290 127
3 387 495 388
3 296 423 266
3 398 397 479
3 296 266 398
3 388 495 296
3 397 396 479
3 479 388 296
3 344 244 11
3 27 29 212
3 480 554 481
3 481 555 212
3 212 29 481
3 332 419 292
3 81 46 50
3 356 100 429
3 336 335 361
3 63 68 206
3 541 361 483
3 307 482 483
3 483 361 307
3 556 278 380
3 194 193 252
3 252 489 194
3 380 302 556
3 304 556 302
3 194 489 380
3 274 5 17
3 476 100 356
3 142 447 442
3 484 115 476
3 447 486 442
3 441 137 142
3 476 459 442
3 442 441 142
3 486 484 442
3 393 86 316
3 417 545 267
3 312 527 56
3 157 227 158
3 172 171 158
3 158 227 172
3 485 433 486
3 486 514 487
3 433 484 486
3 488 174 200
3 450 462 445
3 488 200 450
3 489 252 246
3 280 552 491
3 491 557 411
3 461 411 557
3 492 453 236
3 395 480 444
3 444 399 494
3 480 29 444
3 495 558 297
3 37 36 392
3 329 345 496
3 65 64 497
3 89 497 64
3 19 268 65
3 476 115 98
3 62 80 79
3 496 425 9
3 331 559 264
3 299 378 315
3 208 211 323
3 288 287 412
3 310 94 70
3 71 272 32
3 310 70 71
3 211 212 498
3 498 219 129
3 212 555 498
3 219 218 129
3 282 343 499
3 501 520 23
3 66 23 520
3 502 553 281
3 43 39 41
3 503 438 286
3 124 123 503
3 504 355 134
3 231 233 263
3 263 534 505
3 550 549 534
3 505 220 231
3 534 549 505
3 391 201 560
3 293 561 201
3 560 506 391
3 201 561 560
3 352 466 509
3 509 542 352
3 358 166 165
3 337 403 416
3 416 197 167
3 338 337 416
3 471 470 511
3 512 475 269
3 513 562 324
3 369 531 427
3 436 258 340
3 340 435 428
3 258 359 340
3 428 232 436
3 138 298 284
3 153 152 447
3 514 486 447
3 458 327 500
3 470 198 173
3 327 241 500
3 535 342 458
3 42 60 535
3 500 499 535
3 240 283 500
3 470 173 241
3 241 240 500
3 499 42 535
3 535 458 500
3 470 241 511
3 96 95 247
3 247 246 96
3 252 251 92
3 251 90 92
3 96 246 252
3 350 451 199
3 69 82 49
3 272 385 30
3 515 161 516
3 518 563 204
3 294 204 563
3 435 339 519
3 518 204 435
3 332 58 57
3 479 150 145
3 427 531 145
3 145 388 479
3 520 74 63
3 521 326 485
3 328 485 326
3 487 564 521
3 225 131 130
3 25 72 309
3 309 523 25
3 521 564 524
3 524 351 350
3 134 355 320
3 480 395 554
3 366 362 472
3 472 217 525
3 525 554 395
3 366 472 525
3 330 346 253
3 253 254 364
3 364 363 331
3 526 559 331
3 331 330 364
3 253 364 330
3 380 489 156
3 490 504 133
3 133 135 156
3 156 489 490
3 527 529 305
3 528 164 515
3 85 101 317
3 36 305 529
3 256 15 14
3 393 529 527
3 303 437 408
3 460 530 437
3 408 547 303
3 530 409 408
3 531 369 192
3 368 193 192
3 192 279 531
3 143 145 531
3 369 368 192
3 222 221 216
3 532 548 214
3 213 216 532
3 532 214 213
3 354 355 533
3 504 490 186
3 246 184 186
3 186 234 504
3 533 355 504
3 490 246 186
3 508 466 391
3 19 497 520
3 104 74 520
3 497 105 104
3 501 20 19
3 497 104 520
3 371 372 426
3 115 484 433
3 266 423 418
