ply
format ascii 1.0
comment Created by Blender 2.78 (sub 0) - www.blender.org, source file: ''
element vertex 565
property float x
property float y
property float z
property uchar red
property uchar green
property uchar blue
element face 928
property list uchar uint vertex_indices
end_header
-2 -1.5 0.5 255 255 0
-2.5 -1 0.5 255 255 0
-2 -1 0 255 255 0
-1.5 -1 0.5 255 255 0
2 -1.5 0.5 255 255 0
1.5 -1 0.5 255 255 0
2 -1 0 255 255 0
2.5 -1 0.5 255 255 0
2 1 0 255 255 0
2.5 0 0.5 255 255 0
-2.5 0 0.5 255 255 0
-2 1 0 255 255 0
-1.5 0 0.5 255 255 0
1.5 0 0.5 255 255 0
-2.5 1 0.5 255 255 0
-2 1.5 0.5 255 255 0
-1.5 1 0.5 255 255 0
1.5 1 0.5 255 255 0
2 1.5 0.5 255 255 0
2.5 1 0.5 255 255 0
-2 -1 1 255 255 0
2 -1 1 255 255 0
-2 1.5 4.5 0 255 51
-1 1 5 0 255 51
-1.5 1 4.5 0 255 51
1 -1 6 0 255 51
1.5 0 5.5 0 255 51
1 0 6 0 255 51
-1.5 0.5 1 255 255 0
-1.5 1 1 255 255 0
-2.5 0.5 1 0 255 51
-2.5 1 1.5 0 255 51
-2.5 1 1 0 255 51
6 -2.5 4.5 255 204 102
5 -2 4 255 204 102
6 -2 4 255 204 102
-5 -1 6 255 204 102
-5.5 0 5.5 255 204 102
-5 0 6 255 204 102
-1.5 0.5 1 0 255 51
-1.5 1 1 0 255 51
-1.5 1 1.5 0 255 51
5 1.5 6.5 255 204 102
6 1.5 7.5 255 204 102
6 1.5 6.5 255 204 102
1.5 0.5 1 0 255 51
1.5 1 1.5 0 255 51
1.5 1 1 0 255 51
0 -3.5 18.5 255 204 102
1 -3.5 19.5 255 204 102
-1 -3.5 19.5 255 204 102
2.5 0.5 1 0 255 51
2.5 1 1 0 255 51
2.5 1 1.5 0 255 51
-1 0 6 0 255 51
-1.5 0.5 6 0 255 51
-1.5 0 5.5 0 255 51
2 0 1 255 255 0
1.5 0.5 1 255 255 0
-2 1.5 1 0 255 51
-2 -3 16 255 204 102
2 -3 16 255 204 102
0 -2.5 16.5 255 204 102
0.75 -2.75 18.5 204 255 255
1.5 -2 18 204 255 255
1.5 -2 18.5 204 255 255
-2 0.5 1.5 0 255 51
-2 0.5 4.5 0 255 51
-6 -2.5 4.5 255 204 102
-6.5 -2 4.5 255 204 102
-6 -2 4 255 204 102
-6.5 -1 10.5 255 204 102
-6 -1.5 9.5 255 204 102
-6 -1.5 10.5 255 204 102
-4.5 -2 4.5 255 204 102
-5 -2.5 4.5 255 204 102
-5 -2 4 255 204 102
5 -2.5 4.5 255 204 102
4.5 -2 4.5 255 204 102
6.5 -2 4.5 255 204 102
4.5 -2 5.5 255 204 102
5 -2.5 5.5 255 204 102
-6 0 4 255 204 102
-5.5 -1 4.5 255 204 102
-6 -1 4 255 204 102
-1 -1.5 4.5 0 255 51
-1.5 -1 4.5 0 255 51
-1 -1 4 0 255 51
1 -1 4 0 255 51
1 -1.5 4.5 0 255 51
1.5 -1 4.5 0 255 51
6 -1 4 255 204 102
-6.5 0 4.5 255 204 102
6.5 0 4.5 255 204 102
-1 -4.5 14.5 255 204 102
1 -4 14 255 204 102
1 -4.5 14.5 255 204 102
-6 0.5 4.5 255 204 102
-5.5 0 4.5 255 204 102
1 0 4 0 255 51
-1 0 4 0 255 51
2 0.5 4.5 0 255 51
2 0.5 1.5 0 255 51
6 0 4 255 204 102
5.5 0 4.5 255 204 102
6 0.5 4.5 255 204 102
2 1.5 1 0 255 51
6.5 1 6.5 255 204 102
4 -1 6 255 204 102
5 -1 6 255 204 102
4 -2 6 255 204 102
1.5 -1 5.5 0 255 51
1 -1.5 5.5 0 255 51
-5.5 -1 5.5 255 204 102
-4.5 -2 5.5 255 204 102
-1 -1.5 5.5 0 255 51
5.5 -1 5.5 255 204 102
5.5 -1 4.5 255 204 102
2.5 0.5 1 255 255 0
2.5 1 1 255 255 0
-6 1.5 6.5 255 204 102
-5 1.5 7.5 255 204 102
-5 1.5 6.5 255 204 102
-4 0 14 255 204 102
-3.5 2.5 14 255 204 102
-4 2 14 255 204 102
-5 -2.5 5.5 255 204 102
-1.5 0 4.5 0 255 51
-2 0.5 5.5 0 255 51
1.5 0 4.5 0 255 51
1 1 5 0 255 51
2 0.5 5.5 0 255 51
1.5 1 4.5 0 255 51
-1 2 5 0 255 51
-1.5 2 5.5 0 255 51
1 2 5 0 255 51
2 -2 14 255 204 102
2.5 -3 14.5 255 204 102
2 -3 14 255 204 102
1.5 2 5.5 0 255 51
2 1.5 4.5 0 255 51
2 1.5 5.5 0 255 51
2.5 1 6 0 255 51
-1 2.5 5.5 0 255 51
1 2.5 5.5 0 255 51
-6.5 -2 6.5 255 204 102
-5 1 6 255 204 102
-4 -2.5 6.5 255 204 102
-4 -2 6 255 204 102
6 -2.5 6.5 255 204 102
-1 -1 6 0 255 51
-1.5 -1 5.5 0 255 51
-4 -1 6 255 204 102
-2.5 1 8.5 255 51 51
-2 1.5 6 255 51 51
-2.5 1 6 255 51 51
-2 1.5 1 255 255 0
-2.5 1 1 255 255 0
-4.5 0 6.5 255 204 102
-3.5 -1 6.5 255 204 102
0.5 -2 21.5 255 255 102
0.5 -2.5 21 255 255 102
0.75 -2 21.25 255 255 102
4.5 0 6.5 255 204 102
3.5 -1 6.5 255 204 102
-6 1 6 255 204 102
-6 0.5 5.5 255 204 102
-6.5 1 6.5 255 204 102
2 0.25 1.25 0 255 51
5 -2 7 255 204 102
4 -2.5 6.5 255 204 102
5 -0.5 8.5 255 204 102
4.5 -1 9.5 255 204 102
4.5 0 8.5 255 204 102
2.75 -1 14.25 255 51 51
3 0 14 255 51 51
2.75 0 14.25 255 51 51
-2 0.5 6 0 255 51
0 -3 17 255 204 102
1 -2.5 17.5 255 204 102
0.5 -3 17.5 255 204 102
-1.5 0.5 6 255 51 51
-1 0.25 6.25 255 51 51
-1 0.5 6.5 255 51 51
-1 0.25 6.25 0 255 51
1 0.25 6.25 0 255 51
1 0.25 6.25 255 51 51
1 0.5 6.5 255 51 51
2 0.5 8.5 255 51 51
-2 0.5 8.5 255 51 51
1.5 0.5 6 0 255 51
2 0.5 6 0 255 51
1.5 0.5 6 255 51 51
-4.5 1 6.5 255 204 102
1.5 -2.5 19 204 255 255
4.5 1 6.5 255 204 102
5 1.5 7.5 255 204 102
5 1 6 255 204 102
6 1 6 255 204 102
5 0 6 255 204 102
6.5 0 5.5 255 204 102
6 0.5 5.5 255 204 102
-1.5 1.5 6 0 255 51
-2 1.5 5.5 0 255 51
-2 1.5 6 0 255 51
-1.5 1.5 6 255 51 51
-1 1.5 6.5 255 51 51
-1 1.75 6.25 255 51 51
2.5 1 6 255 51 51
2 0.5 6 255 51 51
1 1.5 6.5 255 51 51
1 1.75 6.25 255 51 51
1 1.75 6.25 0 255 51
-1 1.75 6.25 0 255 51
-2.75 -1 14.25 255 204 102
-2.5 0 14.5 255 204 102
-2.75 0 14.25 255 204 102
1.5 1.5 6 0 255 51
2 1.5 6 0 255 51
1.5 1.5 6 255 51 51
-3 -0.5 10.5 255 51 51
-3.75 0 10.75 255 51 51
-2.5 0 9.5 255 51 51
-3.5 -2 6.5 255 204 102
-4 -2 7 255 204 102
4 -2 7 255 204 102
3.5 -2 6.5 255 204 102
-4 -1 7 255 204 102
-5 -2 7 255 204 102
-2 0 1 255 255 0
4 -1 7 255 204 102
6 3.5 11.5 255 204 102
4 2.5 12.5 255 204 102
6 2.5 12.5 255 204 102
-2 0.5 6 255 51 51
0 -0.5 13.5 255 51 51
-0.17 -0.83 13.67 255 51 51
-1 -1.5 13.5 255 51 51
1 -2.5 20.5 255 204 102
1.5 -2 20.5 255 204 102
0.75 -2 21.25 255 204 102
-2 -2.5 16.5 255 204 102
-1 -2.5 17.5 255 204 102
5 -1.5 10.5 255 204 102
6 -1.5 9.5 255 204 102
6 -1.5 10.5 255 204 102
3.75 2.75 13.5 255 204 102
3.75 2.75 12.5 255 204 102
-2.5 1 6 0 255 51
-1.5 -3 19.5 255 204 102
-1 -2.5 20.5 255 204 102
-1.5 -2 20.5 255 204 102
-4.5 0 8.5 255 204 102
-4.5 1 7.5 255 204 102
-4.5 2 10.5 255 204 102
-5 3.5 9.5 255 204 102
-4.5 3 9.5 255 204 102
-0.5 -2 25.5 255 255 102
0 -2.5 21.5 255 255 102
0 -2.5 25.5 255 255 102
2 1.5 8.5 255 51 51
-2 1.5 8.5 255 51 51
2 1.5 6 255 51 51
2.5 1 8.5 255 51 51
6 3.5 9.5 255 204 102
-6 -0.5 8.5 255 204 102
-6.5 -1 9.5 255 204 102
-6.5 0 8.5 255 204 102
-5 -1.5 9.5 255 204 102
-5 -0.5 8.5 255 204 102
-4.5 -1 9.5 255 204 102
6 -0.5 8.5 255 204 102
6.5 -1 9.5 255 204 102
-2 -0.5 9.5 255 51 51
2 -0.5 9.5 255 51 51
5 -1.5 9.5 255 204 102
-3.75 2.75 12.5 255 204 102
-4 2.5 13.5 255 204 102
-3.75 2.75 13.5 255 204 102
-6 1.5 7.5 255 204 102
-6.5 3 9.5 255 204 102
-6 3.5 9.5 255 204 102
0 2.5 21.5 255 255 102
-0.5 2.5 21 255 255 102
-0.5 2 21.5 255 255 102
6.5 -2 6.5 255 204 102
6.5 0 8.5 255 204 102
5 3.5 9.5 255 204 102
4.5 3 9.5 255 204 102
3.5 3.5 11 255 204 102
-0.5 -3 17.5 255 204 102
-4 2.5 12.5 255 204 102
-3.83 2.83 12.33 255 204 102
-4 3.5 11.5 255 204 102
-0.5 -2.5 21 255 255 102
-0.5 -2 21.5 255 255 102
0.5 -2 25.5 255 255 102
1 -0.5 10.5 255 51 51
-1 -0.5 10.5 255 51 51
6.5 3 9.5 255 204 102
6.5 1 7.5 255 204 102
-2 0.25 1.25 0 255 51
3.75 0 10.75 255 51 51
2.5 2 9.5 255 51 51
3.75 2 10.75 255 51 51
-3.75 2 10.75 255 51 51
-3.5 2.5 11 255 51 51
-3 2.5 10.5 255 51 51
-2 2.5 9.5 255 51 51
3 2.5 10.5 255 51 51
2 2.5 9.5 255 51 51
-3.5 2.5 11 255 204 102
-3.25 3 10.75 255 204 102
-6.5 3 11.5 255 204 102
-6 3.5 11.5 255 204 102
2.75 0 14.25 255 204 102
2.5 -1 14.5 255 204 102
2.75 -1 14.25 255 204 102
2 1.5 1 255 255 0
3.5 3.5 12 255 204 102
4 3.5 11.5 255 204 102
-6 -0.5 11.5 255 204 102
-5 -1.5 10.5 255 204 102
-5 -0.5 11.5 255 204 102
-3 -1.5 11.5 255 51 51
1 -1.5 11.5 255 51 51
0 -0.5 11.5 255 51 51
5 -1 11 255 204 102
4.5 -1 10.5 255 204 102
-4.5 -1 10.5 255 204 102
-4 0 11 255 204 102
-4 -0.5 11.5 255 204 102
-3.5 -0.5 11 255 204 102
-3.75 -0.75 11.5 255 204 102
3 -0.5 10.5 255 51 51
3.5 -0.5 11 255 51 51
3.5 -0.5 11 255 204 102
3.75 0 10.75 255 204 102
4 0 11 255 204 102
4.5 0 10.5 255 204 102
6 -0.5 11.5 255 204 102
6.5 -1 10.5 255 204 102
6.5 0 11.5 255 204 102
-6.5 2 12.5 255 204 102
-6 2.5 13.5 255 204 102
-6 2.5 12.5 255 204 102
4.5 2 10.5 255 204 102
4 2 11 255 204 102
-3.75 2 10.75 255 204 102
-3.75 0 10.75 255 204 102
3.75 2 10.75 255 204 102
-3.25 3 10.75 255 51 51
-3 3 11 255 51 51
-2.5 2 9.5 255 51 51
-4 2 11 255 204 102
0.5 -1.5 14 255 51 51
0.17 -0.83 13.67 255 51 51
1 -1.5 13.5 255 51 51
2 0.25 1.25 255 255 0
3.5 2.5 11 255 51 51
3 3 11 255 51 51
3.25 3 10.75 255 51 51
3.5 2.5 11 255 204 102
-1 -1.5 11.5 255 51 51
3 3.5 11.5 255 51 51
-2 0.25 1.25 255 255 0
-3 3.5 12.5 255 51 51
3 3.5 12.5 255 51 51
6 2.5 13.5 255 204 102
6.5 2 12.5 255 204 102
-3.75 -0.75 13.5 255 204 102
3.75 -0.75 11.5 255 204 102
4 -0.5 13.5 255 204 102
3.75 -0.75 13.5 255 204 102
4 -0.5 11.5 255 204 102
-3.5 3.5 12 255 51 51
-3.75 2.75 12.5 255 51 51
6.5 3 11.5 255 204 102
-2.75 0 14.25 255 51 51
-3 -1 14 255 51 51
-2.75 -1 14.25 255 51 51
3.75 2.75 12.5 255 51 51
3.5 3.5 12 255 51 51
5.5 0 5.5 255 204 102
3 -1.5 13.5 255 51 51
3.75 -0.75 11.5 255 51 51
3 -1.5 11.5 255 51 51
-3.75 -0.75 13.5 255 51 51
-3.75 -0.75 11.5 255 51 51
0.5 -4 17.5 255 204 102
0 -4 17 255 204 102
6.5 0 13.5 255 204 102
6 -0.5 13.5 255 204 102
-6.5 1 7.5 255 204 102
-6.5 0 5.5 255 204 102
-0.5 -4 17.5 255 204 102
0 -4.5 17.5 255 204 102
3 3.5 13.5 255 51 51
3.75 2.75 13.5 255 51 51
-3.75 2.75 13.5 255 51 51
-6 -0.5 13.5 255 204 102
-1 -4 14 255 204 102
-2.5 -3 14.5 255 204 102
-2 -3 14 255 204 102
-1 -2 14 255 204 102
1 -2 14 255 204 102
-3.5 3.5 11 255 51 51
-3 3.5 11.5 255 51 51
0.5 -3 18.5 255 204 102
0.83 -2.83 18.67 255 204 102
-2 -2 14 255 204 102
-1 -1.75 13.75 255 204 102
-2.5 -1.75 13.75 255 51 51
-1 -1.75 13.75 255 51 51
-2.5 -1.5 14 255 204 102
-2.5 -1 14.5 255 204 102
-2.5 -1.5 14 255 51 51
-3 -1.5 13.5 255 51 51
-0.5 -1.5 14 255 204 102
0 -1 14 255 204 102
-0.17 -0.83 13.67 255 204 102
0 -0.75 13.75 255 204 102
0.17 -0.83 13.67 255 204 102
0.5 -1.5 14 255 204 102
1 -1.75 13.75 255 204 102
2.5 -1.75 13.75 255 51 51
2.5 -1.75 13.75 255 204 102
2.5 -1.5 14 255 204 102
-4.5 -1 7.5 255 204 102
-6 0 14 255 204 102
-6.5 0 13.5 255 204 102
-4 -0.5 13.5 255 204 102
0.5 2.5 21 255 255 102
3.75 -0.75 13.5 255 51 51
3 -1 14 255 51 51
6 0 14 255 204 102
-2.5 0.5 14 255 51 51
-3 0 14 255 51 51
-1.83 0.83 14.33 255 204 102
-1 1.5 14.5 255 204 102
-1.5 1.5 14 255 204 102
-0.5 -2.5 21 255 204 102
0.5 -2.5 21 255 204 102
-1.5 1.5 14 255 51 51
-1.83 0.83 14.33 255 51 51
2.5 0.5 14 255 51 51
4 0 14 255 204 102
6 2 14 255 204 102
4 2 14 255 204 102
6.5 2 13.5 255 204 102
-6 2 14 255 204 102
-6.5 2 13.5 255 204 102
2.5 0 9.5 255 51 51
-1 1.75 14.25 255 51 51
-1 2 14 255 51 51
3.5 3.5 11 255 51 51
-1 1.75 14.25 255 204 102
0 1.5 14.5 255 204 102
1 1.75 14.25 255 204 102
-2.5 0.5 1 255 255 0
1 1.75 14.25 255 51 51
-6 -2.5 6.5 255 204 102
4.5 1 7.5 255 204 102
1.5 1.5 14 255 51 51
1 2 14 255 51 51
1.5 1.5 14 255 204 102
1 1.5 14.5 255 204 102
-3 3 14 255 51 51
-3 3.5 13.5 255 51 51
3 3 14 255 51 51
4 2.5 13.5 255 204 102
-1 -4.5 15.5 255 204 102
-2.5 -3 15.5 255 204 102
1 -4.5 15.5 255 204 102
2.5 -3 15.5 255 204 102
2.5 0 15.5 255 204 102
1 1.5 15.5 255 204 102
2.5 0 14.5 255 204 102
-1 1.5 15.5 255 204 102
1 -4 16 255 204 102
3.25 3 10.75 255 204 102
-1 -4 16 255 204 102
1.5 1 1 255 255 0
2 2.5 17.5 255 204 102
2.5 2 17.5 255 204 102
-2.5 2 17.5 255 204 102
-2 2.5 17.5 255 204 102
-3.5 -0.5 14 255 204 102
2 -2.5 16.5 255 204 102
2.5 -1 17.5 255 204 102
1.5 -2 17.5 255 204 102
-2.5 -1 17.5 255 204 102
-2.5 0 15.5 255 204 102
0.75 2 21.25 255 255 102
0.5 2 21.5 255 255 102
-0.5 -3 18.5 255 204 102
-0.75 -2.75 18.5 204 255 255
-1.5 -2 18 204 255 255
-0.75 -2.75 18 204 255 255
-0.75 -2.75 18 255 204 102
0.75 -2.75 18 255 204 102
-1.5 -1.5 18 255 204 102
-1.5 -2 17.5 255 204 102
-1.5 -2 18 255 204 102
1.5 -1.5 19 204 255 255
1.5 -1.5 18 204 255 255
1.5 -1.5 18 255 204 102
1.5 -2 18 255 204 102
-1.5 -1 18.5 255 204 102
-6.5 0 11.5 255 204 102
1.5 -1 18.5 255 204 102
1.5 2 18.5 255 204 102
-1.5 2 18.5 255 204 102
4.5 -1 7.5 255 204 102
-1.5 -1.5 19 255 204 102
-1.5 -2.5 19 255 204 102
-1.5 -1.5 18 204 255 255
-1.5 -2 18.5 204 255 255
-1.5 -2.5 19 204 255 255
-0.83 -2.83 18.67 204 255 255
-0.83 -2.83 18.67 255 204 102
1.5 -1.5 19 255 204 102
1.5 2 20.5 255 204 102
-1 2.5 18.5 255 204 102
1 2.5 20.5 255 204 102
1 2.5 18.5 255 204 102
3.5 -0.5 14 255 204 102
-1 2.5 20.5 255 204 102
3.5 2.5 14 255 204 102
1.83 0.83 14.33 255 51 51
0.75 2 21.25 255 204 102
-0.75 2 21.25 255 204 102
-1.5 2 20.5 255 204 102
-0.75 2 21.25 255 255 102
-0.75 -2 21.25 255 255 102
3.83 2.83 12.33 255 204 102
0 -2 26 255 255 102
0.75 -2.75 18 204 255 255
0.83 -2.83 18.67 204 255 255
-3.5 -0.5 11 255 51 51
0 -0.75 13.75 255 51 51
-0.5 -1.5 14 255 51 51
1.5 -3 19.5 255 204 102
-0.75 -2 21.25 255 204 102
-3.5 3.5 11 255 204 102
-3.5 3.5 12 255 204 102
1 -1.75 13.75 255 51 51
-3.83 2.83 12.33 255 51 51
3.83 2.83 12.33 255 51 51
1.5 -2.5 19 255 204 102
0.75 -2.75 18.5 255 204 102
-2.5 -1.75 13.75 255 204 102
-3.5 -0.5 14 255 51 51
2.5 -1.5 14 255 51 51
3.5 -0.5 14 255 51 51
-2.5 0.5 14 255 204 102
1.83 0.83 14.33 255 204 102
2.5 0.5 14 255 204 102
-3.5 2.5 14 255 51 51
3.5 2.5 14 255 51 51
0 2.5 15.5 255 204 102
-0.75 -2.75 18.5 255 204 102
-1.5 -1.5 19 204 255 255
0.5 2.5 21 255 204 102
-0.5 2.5 21 255 204 102
3 0 1 2
3 3 0 2
3 4 5 6
3 7 4 6
3 8 9 6
3 1 10 2
3 11 12 2
3 5 13 6
3 11 14 15
3 16 11 15
3 8 17 18
3 19 8 18
3 1 0 20
3 20 0 3
3 21 5 4
3 7 21 4
3 22 23 24
3 25 26 27
3 28 16 29
3 30 31 32
3 33 34 35
3 36 37 38
3 39 40 41
3 42 43 44
3 45 46 47
3 48 49 50
3 51 52 53
3 54 55 56
3 57 58 13
3 41 40 59
3 60 61 62
3 63 64 65
3 66 24 67
3 68 69 70
3 71 72 73
3 74 75 76
3 77 78 34
3 79 33 35
3 80 77 81
3 82 83 84
3 70 84 76
3 83 76 84
3 85 86 87
3 85 88 89
3 90 89 88
3 35 34 91
3 69 92 84
3 91 93 79
3 94 95 96
3 82 92 97
3 98 82 97
3 23 99 100
3 101 46 102
3 103 104 105
3 93 103 105
3 47 46 106
3 43 107 44
3 108 109 110
3 89 111 112
3 74 113 114
3 115 89 112
3 78 116 117
3 118 19 119
3 120 121 122
3 123 124 125
3 126 68 75
3 127 56 23
3 56 128 23
3 128 67 23
3 23 67 24
3 129 130 26
3 26 130 131
3 131 130 101
3 130 132 101
3 133 23 134
3 23 135 130
3 136 137 138
3 135 139 130
3 140 141 142
3 133 134 143
3 143 135 133
3 139 135 144
3 68 145 69
3 146 120 122
3 147 114 148
3 81 33 149
3 79 149 33
3 114 36 148
3 75 114 126
3 150 151 115
3 25 115 112
3 111 25 112
3 36 152 148
3 153 154 155
3 156 14 157
3 152 158 159
3 54 25 27
3 160 161 162
3 163 108 164
3 165 166 167
3 102 45 168
3 146 38 165
3 169 170 149
3 171 172 173
3 174 175 176
3 55 177 128
3 178 179 180
3 181 182 183
3 184 27 185
3 186 183 182
3 187 188 189
3 190 131 191
3 192 187 186
3 121 193 122
3 194 63 65
3 53 142 101
3 195 196 42
3 197 198 199
3 107 200 201
3 193 146 122
3 202 203 204
3 205 206 207
3 208 188 209
3 207 210 211
3 212 143 213
3 214 215 216
3 217 218 141
3 219 211 210
3 197 195 42
3 220 221 222
3 141 139 217
3 223 224 147
3 225 226 170
3 224 227 228
3 10 20 229
3 225 169 230
3 231 232 233
3 158 227 159
3 153 234 189
3 235 236 237
3 238 239 240
3 241 62 242
3 243 244 245
3 246 232 247
3 203 22 248
3 249 250 251
3 252 253 254
3 99 90 88
3 255 256 121
3 86 100 87
3 257 258 259
3 260 206 261
3 262 263 208
3 196 264 43
3 265 266 267
3 265 268 72
3 269 270 268
3 104 201 105
3 271 272 244
3 21 9 57
3 273 188 274
3 224 159 227
3 275 271 244
3 117 34 78
3 276 277 278
3 167 279 120
3 279 280 281
3 198 42 44
3 282 283 284
3 271 285 286
3 287 288 289
3 242 178 290
3 291 292 293
3 161 258 294
3 295 294 258
3 258 296 259
3 297 298 273
3 43 299 300
3 66 30 301
3 302 303 304
3 305 306 307
3 308 309 310
3 311 254 312
3 313 281 280
3 314 293 255
3 315 316 317
3 119 18 318
3 289 319 320
3 321 322 323
3 298 324 220
3 297 325 326
3 152 223 148
3 327 328 243
3 323 329 330
3 331 323 330
3 332 333 331
3 321 71 73
3 334 302 335
3 230 163 164
3 336 337 338
3 328 327 339
3 340 341 342
3 343 344 345
3 20 12 229
3 80 170 110
3 346 338 347
3 330 348 349
3 350 338 337
3 37 83 98
3 13 21 57
3 306 351 352
3 151 85 115
3 353 221 305
3 311 348 354
3 355 356 357
3 57 118 358
3 359 360 361
3 362 347 350
3 303 309 304
3 363 298 326
3 352 364 360
3 229 28 365
3 364 366 367
3 231 299 264
3 363 235 237
3 102 51 53
3 368 369 233
3 370 331 333
3 371 372 373
3 340 372 374
3 334 325 297
3 375 376 366
3 233 377 231
3 291 314 345
3 255 279 281
3 378 379 380
3 381 382 367
3 117 383 104
3 166 38 37
3 58 17 13
3 235 325 357
3 325 384 357
3 385 384 386
3 324 387 388
3 178 389 390
3 340 391 392
3 393 394 267
3 48 395 396
3 330 254 354
3 345 277 291
3 313 345 314
3 381 397 398
3 395 178 390
3 232 368 233
3 399 366 376
3 321 323 400
3 401 402 403
3 95 137 96
3 404 405 95
3 257 284 295
3 352 406 407
3 49 408 409
3 410 411 404
3 412 237 413
3 214 414 415
3 416 379 417
3 127 23 100
3 80 109 116
3 418 404 411
3 419 420 421
3 422 419 421
3 423 424 405
3 425 357 384
3 75 70 76
3 136 424 426
3 136 427 316
3 228 428 269
3 429 430 400
3 431 429 400
3 432 283 282
3 384 433 434
3 435 372 392
3 391 435 392
3 436 437 378
3 250 49 238
3 438 439 440
3 441 238 442
3 443 436 444
3 445 176 175
3 446 447 448
3 435 449 447
3 430 450 451
3 26 190 27
3 263 303 452
3 73 268 322
3 443 453 454
3 360 455 361
3 456 457 458
3 229 459 10
3 460 454 453
3 265 145 461
3 173 288 462
3 463 464 460
3 465 458 466
3 353 153 222
3 344 451 450
3 277 450 125
3 399 467 468
3 469 467 454
3 469 398 397
3 448 368 470
3 449 368 447
3 397 467 469
3 166 98 97
3 402 471 472
3 471 96 473
3 417 363 237
3 268 329 322
3 474 316 475
3 476 477 466
3 439 478 457
3 466 457 476
3 130 129 99
3 164 225 230
3 479 471 473
3 480 346 362
3 61 481 479
3 310 261 308
3 318 17 482
3 87 99 88
3 483 484 476
3 478 485 486
3 396 395 390
3 389 396 390
3 299 342 286
3 431 487 123
3 117 103 91
3 488 489 490
3 92 166 97
3 472 491 492
3 201 93 105
3 160 493 494
3 402 410 403
3 146 158 38
3 290 395 495
3 180 408 389
3 48 389 408
3 226 108 110
3 29 15 156
3 496 497 498
3 290 499 242
3 66 39 41
3 180 500 408
3 128 177 248
3 472 241 491
3 62 488 179
3 501 502 503
3 504 65 505
3 506 507 490
3 508 485 491
3 509 400 430
3 510 484 511
3 512 486 485
3 86 56 127
3 56 150 54
3 383 109 199
3 483 511 484
3 173 513 171
3 26 90 129
3 514 515 251
3 516 497 517
3 518 496 519
3 520 249 515
3 494 296 160
3 521 522 239
3 523 524 525
3 215 478 439
3 522 525 524
3 372 526 373
3 244 341 245
3 130 140 132
3 512 527 523
3 328 275 243
3 459 14 10
3 470 528 448
3 134 202 213
3 277 124 278
3 163 197 199
3 199 201 383
3 463 529 445
3 228 147 224
3 240 522 530
3 251 531 532
3 339 374 338
3 295 533 534
3 96 474 473
3 531 527 532
3 524 530 522
3 340 327 245
3 535 232 320
3 494 432 282
3 536 257 259
3 296 536 259
3 7 6 9
3 8 19 9
3 11 2 10
3 10 14 11
3 3 2 12
3 11 16 12
3 8 6 13
3 13 17 8
3 22 134 23
3 25 111 26
3 28 12 16
3 33 77 34
3 36 113 37
3 42 196 43
3 128 56 55
3 54 184 55
3 57 358 58
3 59 22 41
3 24 41 22
3 488 62 61
3 241 60 62
3 63 537 64
3 66 41 24
3 71 266 72
3 80 78 77
3 82 98 83
3 83 74 76
3 85 87 88
3 82 84 92
3 70 69 84
3 79 35 91
3 91 103 93
3 94 401 95
3 23 130 99
3 101 132 46
3 140 106 46
3 46 132 140
3 43 300 107
3 108 199 109
3 89 90 111
3 74 83 113
3 115 85 89
3 78 80 116
3 118 9 19
3 120 279 121
3 450 429 123
3 123 487 124
3 125 450 123
3 126 147 461
3 461 68 126
3 23 133 135
3 136 316 137
3 53 52 106
3 140 139 141
3 53 106 140
3 218 142 141
3 53 140 142
3 143 144 135
3 68 461 145
3 146 165 120
3 148 223 147
3 147 126 114
3 81 77 33
3 149 170 81
3 79 285 149
3 114 113 36
3 75 74 114
3 25 150 115
3 36 38 152
3 153 261 154
3 156 15 14
3 152 38 158
3 54 150 25
3 160 258 161
3 163 199 108
3 394 167 166
3 120 165 167
3 102 46 45
3 271 171 169
3 169 225 170
3 149 271 169
3 171 275 172
3 174 434 175
3 178 62 179
3 184 54 27
3 186 187 183
3 234 181 183
3 187 192 209
3 189 234 183
3 187 209 188
3 189 183 187
3 121 253 193
3 194 538 63
3 131 101 142
3 102 53 101
3 142 191 131
3 195 462 196
3 201 198 107
3 44 107 198
3 208 263 188
3 207 206 210
3 212 144 143
3 214 415 215
3 153 189 222
3 220 324 539
3 222 189 273
3 539 221 220
3 324 388 539
3 222 273 220
3 212 217 139
3 139 144 212
3 10 1 20
3 231 320 232
3 158 428 227
3 153 155 234
3 235 540 236
3 236 541 237
3 413 237 541
3 238 49 542
3 542 239 238
3 240 442 238
3 243 275 244
3 246 470 232
3 32 31 59
3 248 204 203
3 203 134 22
3 22 59 31
3 31 248 22
3 543 251 250
3 249 50 250
3 250 441 543
3 252 428 158
3 158 193 253
3 253 256 254
3 254 329 270
3 252 158 253
3 254 270 252
3 99 129 90
3 255 544 256
3 256 253 121
3 544 312 256
3 86 127 100
3 257 295 258
3 154 261 206
3 260 262 210
3 262 219 210
3 206 205 154
3 260 210 206
3 262 260 263
3 196 287 264
3 265 72 266
3 265 269 268
3 269 252 270
3 104 383 201
3 271 286 272
3 21 7 9
3 273 189 188
3 224 223 159
3 275 171 271
3 117 91 34
3 276 291 277
3 167 393 279
3 279 393 280
3 198 197 42
3 284 257 536
3 536 282 284
3 283 533 284
3 271 149 285
3 287 196 288
3 288 480 289
3 196 462 288
3 242 62 178
3 291 276 292
3 292 545 293
3 295 534 294
3 258 160 296
3 273 274 297
3 297 326 298
3 274 334 297
3 298 220 273
3 43 264 299
3 66 31 30
3 302 452 303
3 308 261 353
3 353 305 307
3 261 153 353
3 306 352 307
3 307 308 353
3 308 307 309
3 256 312 254
3 311 354 254
3 313 314 281
3 544 255 293
3 281 314 255
3 293 545 544
3 315 477 316
3 119 19 18
3 231 264 287
3 287 289 320
3 320 231 287
3 321 73 322
3 298 363 324
3 152 159 223
3 323 322 329
3 331 330 332
3 349 332 330
3 321 509 71
3 385 386 335
3 334 274 452
3 188 263 452
3 452 302 334
3 335 386 334
3 274 188 452
3 230 513 163
3 338 374 336
3 371 336 374
3 340 245 341
3 343 451 344
3 20 3 12
3 226 110 170
3 80 81 170
3 346 339 338
3 330 354 348
3 350 347 338
3 37 113 83
3 13 5 21
3 151 86 85
3 353 222 221
3 235 357 356
3 546 355 357
3 356 540 235
3 57 9 118
3 359 304 309
3 303 263 260
3 260 310 303
3 309 360 359
3 303 310 309
3 360 309 307
3 352 407 364
3 360 307 352
3 229 12 28
3 407 406 375
3 366 468 397
3 407 375 366
3 382 455 364
3 364 407 366
3 366 397 367
3 367 382 364
3 231 377 299
3 363 326 235
3 102 168 51
3 368 449 369
3 370 431 331
3 371 374 372
3 340 392 372
3 334 386 325
3 375 547 376
3 233 369 377
3 291 293 314
3 255 121 279
3 378 437 379
3 381 548 382
3 117 116 383
3 166 165 38
3 58 482 17
3 235 326 325
3 325 386 384
3 385 433 384
3 324 417 387
3 178 180 389
3 340 342 391
3 343 313 509
3 393 167 394
3 313 280 509
3 430 451 343
3 266 71 509
3 509 430 343
3 280 393 267
3 394 92 69
3 69 145 394
3 267 266 509
3 394 145 267
3 267 509 280
3 48 495 395
3 330 329 254
3 345 344 277
3 313 343 345
3 381 367 397
3 395 290 178
3 232 470 368
3 399 468 366
3 431 400 323
3 323 331 431
3 401 94 402
3 95 138 137
3 95 401 404
3 403 410 404
3 418 419 423
3 401 403 404
3 404 418 423
3 405 136 138
3 404 423 405
3 138 95 405
3 352 351 406
3 409 549 542
3 542 49 409
3 408 550 409
3 49 48 408
3 410 551 411
3 412 417 237
3 410 415 414
3 414 551 410
3 387 417 379
3 412 416 417
3 379 552 387
3 416 380 379
3 80 110 109
3 419 418 420
3 422 423 419
3 425 546 357
3 75 68 70
3 136 405 424
3 317 316 427
3 136 426 427
3 252 269 428
3 228 227 428
3 431 123 429
3 174 553 434
3 425 384 553
3 433 554 434
3 434 553 384
3 435 446 372
3 250 50 49
3 438 555 215
3 216 215 555
3 439 456 440
3 438 215 439
3 441 250 238
3 448 528 526
3 446 435 447
3 448 526 446
3 435 391 449
3 430 429 450
3 185 27 190
3 26 131 190
3 73 72 268
3 360 364 455
3 466 458 457
3 456 439 457
3 229 365 459
3 460 464 454
3 265 267 145
3 462 195 163
3 163 513 173
3 173 172 339
3 339 346 173
3 172 328 339
3 462 163 173
3 346 288 173
3 466 477 556
3 315 557 477
3 556 465 466
3 477 557 556
3 277 344 450
3 399 558 467
3 464 463 469
3 175 434 554
3 463 445 559
3 175 554 559
3 559 469 463
3 467 558 443
3 552 379 437
3 436 443 558
3 558 552 437
3 437 436 558
3 445 175 559
3 467 443 454
3 454 464 469
3 469 559 398
3 448 447 368
3 397 468 467
3 166 37 98
3 402 94 471
3 471 94 96
3 417 324 363
3 268 270 329
3 484 489 475
3 474 137 316
3 316 477 475
3 475 489 474
3 476 475 477
3 164 226 225
3 479 481 471
3 347 362 346
3 480 288 346
3 61 60 481
3 310 260 261
3 318 18 17
3 87 100 99
3 476 457 560
3 560 483 476
3 484 475 476
3 486 560 478
3 478 492 485
3 560 457 478
3 79 93 200
3 200 107 300
3 300 299 286
3 369 449 391
3 299 377 342
3 79 200 285
3 286 285 300
3 341 272 286
3 369 391 342
3 342 341 286
3 285 200 300
3 377 369 342
3 431 370 487
3 117 104 103
3 490 179 488
3 61 479 473
3 506 490 489
3 61 473 474
3 510 506 489
3 488 61 474
3 474 489 488
3 92 394 166
3 215 415 492
3 402 472 415
3 491 485 492
3 492 415 472
3 201 200 93
3 160 162 493
3 402 415 410
3 146 193 158
3 48 396 389
3 226 164 108
3 29 16 15
3 496 517 497
3 290 495 499
3 499 503 242
3 495 561 499
3 503 502 242
3 66 301 39
3 180 179 500
3 490 507 179
3 500 550 408
3 179 507 500
3 248 31 67
3 67 128 248
3 31 66 67
3 472 471 481
3 472 481 60
3 508 491 501
3 501 491 502
3 472 60 241
3 241 242 502
3 502 491 241
3 64 505 65
3 504 194 65
3 508 512 485
3 509 321 400
3 510 489 484
3 512 523 486
3 86 151 56
3 56 151 150
3 383 116 109
3 483 525 511
3 169 171 513
3 513 230 169
3 26 111 90
3 251 532 514
3 508 501 514
3 532 512 508
3 515 249 251
3 532 508 514
3 562 516 517
3 517 518 562
3 518 517 496
3 520 561 495
3 495 48 50
3 50 249 520
3 520 495 50
3 239 542 549
3 521 506 510
3 239 549 521
3 511 522 510
3 521 510 522
3 483 560 525
3 523 527 524
3 560 486 523
3 563 524 527
3 525 560 523
3 527 564 563
3 215 492 478
3 522 511 525
3 372 446 526
3 244 272 341
3 130 139 140
3 512 532 527
3 328 172 275
3 459 157 14
3 470 246 528
3 213 143 134
3 134 203 202
3 277 125 124
3 163 195 197
3 199 198 201
3 228 269 265
3 461 147 228
3 228 265 461
3 240 239 522
3 251 543 531
3 339 327 374
3 295 284 533
3 96 137 474
3 531 564 527
3 524 563 530
3 243 245 327
3 340 374 327
3 535 247 232
3 320 319 535
3 282 536 494
3 494 493 432
3 536 296 494
