ply
format ascii 1.0
comment Created by Blender 2.78 (sub 0) - www.blender.org, source file: ''
element vertex 110
property float x
property float y
property float z
property uchar red
property uchar green
property uchar blue
element face 172
property list uchar uint vertex_indices
end_header
-2.000000 -2.500000 16.500000 255 204 102
-2.500000 -2.000000 16.500000 255 204 102
-2.000000 -2.000000 16.000000 255 204 102
2.500000 -2.000000 16.500000 255 204 102
2.000000 -2.500000 16.500000 255 204 102
2.000000 -2.000000 16.000000 255 204 102
1.000000 2.000000 16.000000 255 204 102
0.000000 1.000000 16.000000 255 204 102
0.000000 2.000000 15.000000 255 204 102
0.000000 -4.500000 17.500000 255 204 102
-0.500000 -4.000000 17.500000 255 204 102
0.000000 -4.000000 17.000000 255 204 102
0.500000 -4.000000 17.500000 255 204 102
0.000000 -3.500000 18.500000 255 204 102
1.000000 -3.500000 19.500000 255 204 102
-1.000000 -3.500000 19.500000 255 204 102
-0.500000 -3.000000 17.500000 255 204 102
-0.500000 -3.000000 18.500000 255 204 102
0.500000 -3.000000 17.500000 255 204 102
0.500000 -3.000000 18.500000 255 204 102
-1.500000 -1.500000 18.000000 255 204 102
-1.500000 -2.000000 17.500000 255 204 102
-1.500000 -2.000000 18.000000 255 204 102
0.500000 -2.000000 25.500000 255 255 102
0.500000 -2.000000 21.500000 255 255 102
0.500000 2.000000 21.500000 255 255 102
1.500000 -1.500000 18.000000 255 204 102
1.500000 -2.000000 18.000000 255 204 102
1.500000 -2.000000 17.500000 255 204 102
0.500000 2.500000 21.000000 255 255 102
-0.500000 2.500000 21.000000 255 255 102
0.000000 2.500000 21.500000 255 255 102
0.500000 -2.500000 21.000000 255 255 102
0.000000 -2.500000 21.500000 255 255 102
-0.500000 -2.500000 21.000000 255 255 102
1.000000 -2.500000 17.500000 255 204 102
0.000000 -2.500000 16.500000 255 204 102
-1.000000 2.000000 16.000000 255 204 102
-0.500000 -2.000000 21.500000 255 255 102
-0.500000 -2.000000 25.500000 255 255 102
-0.500000 2.000000 21.500000 255 255 102
-1.000000 -2.500000 17.500000 255 204 102
0.000000 -2.000000 26.000000 255 255 102
0.000000 -2.500000 25.500000 255 255 102
-1.000000 -2.500000 20.500000 255 204 102
0.500000 -2.500000 21.000000 255 204 102
-0.500000 -2.500000 21.000000 255 204 102
-0.750000 2.000000 21.250000 255 204 102
-1.500000 -2.000000 20.500000 255 204 102
-0.750000 -2.000000 21.250000 255 204 102
-1.500000 -2.000000 18.500000 204 255 255
-0.750000 -2.750000 18.000000 204 255 255
-0.750000 -2.750000 18.500000 204 255 255
0.000000 -3.000000 17.000000 255 204 102
2.500000 -1.000000 17.500000 255 204 102
1.500000 2.000000 18.500000 255 204 102
1.500000 -1.000000 18.500000 255 204 102
-2.500000 1.000000 16.500000 255 204 102
-2.500000 -1.000000 17.500000 255 204 102
-2.500000 2.000000 17.500000 255 204 102
2.500000 1.000000 16.500000 255 204 102
1.500000 2.000000 20.500000 255 204 102
0.750000 -2.000000 21.250000 255 204 102
1.500000 -2.000000 20.500000 255 204 102
1.000000 2.500000 18.500000 255 204 102
0.000000 2.500000 15.500000 255 204 102
-1.000000 2.500000 18.500000 255 204 102
-1.500000 2.000000 18.500000 255 204 102
-2.000000 2.500000 17.500000 255 204 102
1.500000 -2.000000 18.500000 204 255 255
1.500000 -1.500000 18.000000 204 255 255
1.500000 -1.500000 19.000000 204 255 255
1.000000 -2.500000 20.500000 255 204 102
0.750000 -2.750000 18.000000 204 255 255
0.750000 -2.750000 18.500000 204 255 255
-1.000000 2.500000 20.500000 255 204 102
-1.500000 2.000000 20.500000 255 204 102
-1.500000 -1.000000 18.500000 255 204 102
-1.500000 -3.000000 19.500000 255 204 102
1.000000 2.500000 20.500000 255 204 102
0.750000 -2.000000 21.250000 255 255 102
0.833333 -2.833330 18.666700 255 204 102
2.000000 2.500000 17.500000 255 204 102
2.500000 2.000000 17.500000 255 204 102
-1.500000 -1.500000 18.000000 204 255 255
-1.500000 -2.000000 18.000000 204 255 255
-2.000000 1.000000 16.000000 255 204 102
0.750000 -2.750000 18.000000 255 204 102
-0.750000 -2.750000 18.000000 255 204 102
-0.750000 2.000000 21.250000 255 255 102
-0.750000 -2.000000 21.250000 255 255 102
0.750000 2.000000 21.250000 255 204 102
-1.500000 -1.500000 19.000000 255 204 102
1.500000 -1.500000 19.000000 255 204 102
1.500000 -2.500000 19.000000 255 204 102
1.500000 -2.500000 19.000000 204 255 255
-1.500000 -2.500000 19.000000 204 255 255
-0.833333 -2.833330 18.666700 204 255 255
-0.833333 -2.833330 18.666700 255 204 102
2.000000 1.000000 16.000000 255 204 102
-0.500000 2.500000 21.000000 255 204 102
0.500000 2.500000 21.000000 255 204 102
1.500000 -2.000000 18.000000 204 255 255
1.500000 -3.000000 19.500000 255 204 102
0.750000 2.000000 21.250000 255 255 102
0.750000 -2.750000 18.500000 255 204 102
-1.500000 -1.500000 19.000000 204 255 255
-0.750000 -2.750000 18.500000 255 204 102
-1.500000 -2.500000 19.000000 255 204 102
0.833333 -2.833330 18.666700 204 255 255
3 0 1 2
3 3 4 5
3 6 7 8
3 9 10 11
3 12 9 11
3 13 14 15
3 16 10 17
3 18 19 12
3 20 21 22
3 23 24 25
3 26 27 28
3 29 30 31
3 32 33 34
3 4 35 36
3 7 37 8
3 38 39 40
3 0 36 41
3 42 39 43
3 23 42 43
3 44 45 46
3 47 48 49
3 24 43 33
3 50 51 52
3 53 35 18
3 54 55 56
3 57 58 59
3 5 60 3
3 61 62 63
3 64 65 66
3 16 11 10
3 18 11 53
3 67 68 59
3 69 70 71
3 62 45 72
3 73 69 74
3 13 10 9
3 47 75 76
3 38 34 33
3 67 58 77
3 78 15 44
3 5 4 36
3 61 64 79
3 25 29 31
3 41 53 16
3 24 32 80
3 14 19 81
3 82 55 83
3 60 54 3
3 50 84 85
3 15 72 44
3 28 3 54
3 2 86 7
3 18 87 19
3 37 65 8
3 13 12 19
3 88 41 16
3 38 89 90
3 79 91 61
3 76 77 92
3 93 63 94
3 95 74 69
3 6 82 83
3 80 25 24
3 66 76 75
3 21 1 0
3 96 52 97
3 78 98 15
3 38 43 39
3 30 40 31
3 2 57 86
3 44 72 45
3 47 76 48
3 24 23 43
3 50 85 51
3 53 36 35
3 54 83 55
3 57 1 58
3 5 99 60
3 61 91 62
3 66 75 64
3 100 101 79
3 64 82 65
3 100 79 75
3 65 68 66
3 75 79 64
3 16 53 11
3 18 12 11
3 67 66 68
3 69 102 70
3 71 95 69
3 14 103 72
3 63 62 72
3 72 103 63
3 73 102 69
3 13 17 10
3 47 100 75
3 38 90 34
3 67 59 58
3 46 49 44
3 48 78 44
3 44 49 48
3 36 0 2
3 2 5 36
3 61 55 64
3 31 42 25
3 25 104 29
3 42 23 25
3 41 36 53
3 24 33 32
3 94 103 81
3 14 13 19
3 19 105 81
3 81 103 14
3 82 64 55
3 60 83 54
3 50 96 106
3 106 84 50
3 15 14 72
3 28 35 4
3 4 3 28
3 54 56 26
3 26 28 54
3 6 99 7
3 5 2 7
3 86 37 7
3 7 99 5
3 18 35 87
3 28 27 35
3 87 105 19
3 35 27 87
3 37 86 57
3 57 59 37
3 68 65 37
3 37 59 68
3 13 9 12
3 16 17 88
3 88 22 41
3 17 107 88
3 22 21 41
3 38 40 89
3 79 101 91
3 108 78 48
3 48 76 92
3 77 20 92
3 76 67 77
3 92 108 48
3 103 94 63
3 93 26 56
3 56 55 61
3 61 63 93
3 93 56 61
3 95 109 74
3 60 99 83
3 6 8 65
3 65 82 6
3 83 99 6
3 80 104 25
3 66 67 76
3 20 77 58
3 58 1 21
3 0 41 21
3 21 20 58
3 96 50 52
3 13 15 17
3 78 108 98
3 98 107 17
3 17 15 98
3 38 33 43
3 42 31 40
3 30 89 40
3 40 39 42
3 2 1 57
