ply
format ascii 1.0
comment Created by Blender 2.78 (sub 0) - www.blender.org, source file: ''
element vertex 110
property float x
property float y
property float z
property uchar red
property uchar green
property uchar blue
element face 172
property list uchar uint vertex_indices
end_header
-2.000000 -2.500000 16.500000 255 204 102
-2.500000 -2.000000 16.500000 255 204 102
-2.000000 -2.000000 16.000000 255 204 102
2.500000 -2.000000 16.500000 255 204 102
2.000000 -2.500000 16.500000 255 204 102
2.000000 -2.000000 16.000000 255 204 102
1.000000 2.000000 16.000000 255 204 102
0.000000 1.000000 16.000000 255 204 102
0.000000 2.000000 15.000000 255 204 102
0.000000 -4.500000 17.500000 255 204 102
-0.500000 -4.000000 17.500000 255 204 102
0.000000 -4.000000 17.000000 255 204 102
0.500000 -4.000000 17.500000 255 204 102
0.000000 -3.500000 18.500000 255 204 102
1.000000 -3.500000 19.500000 255 204 102
-1.000000 -3.500000 19.500000 255 204 102
-0.500000 -3.000000 17.500000 255 204 102
-0.500000 -3.000000 18.500000 255 204 102
0.500000 -3.000000 17.500000 255 204 102
0.500000 -3.000000 18.500000 255 204 102
-1.500000 -1.500000 18.000000 255 204 102
-1.500000 -2.000000 17.500000 255 204 102
-1.500000 -2.000000 18.000000 255 204 102
0.500000 -2.000000 25.500000 255 255 102
0.500000 -2.000000 21.500000 255 255 102
0.500000 2.000000 21.500000 255 255 102
1.500000 -1.500000 18.000000 255 204 102
1.500000 -2.000000 18.000000 255 204 102
1.500000 -2.000000 17.500000 255 204 102
0.500000 2.500000 21.000000 255 255 102
-0.500000 2.500000 21.000000 255 255 102
0.000000 2.500000 21.500000 255 255 102
0.500000 -2.500000 21.000000 255 255 102
0.000000 -2.500000 21.500000 255 255 102
-0.500000 -2.500000 21.000000 255 255 102
1.000000 -2.500000 17.500000 255 204 102
0.000000 -2.500000 16.500000 255 204 102
-1.000000 2.000000 16.000000 255 204 102
-0.500000 -2.000000 21.500000 255 255 102
-0.500000 -2.000000 25.500000 255 255 102
-0.500000 2.000000 21.500000 255 255 102
-1.000000 -2.500000 17.500000 255 204 102
0.000000 -2.000000 26.000000 255 255 102
0.000000 -2.500000 25.500000 255 255 102
2.500000 -1.000000 17.500000 255 204 102
-0.500000 -2.500000 21.000000 255 204 102
1.000000 -2.500000 20.500000 255 204 102
0.500000 -2.500000 21.000000 255 204 102
2.000000 1.000000 16.000000 255 204 102
2.500000 1.000000 16.500000 255 204 102
0.750000 -2.750000 18.500000 204 255 255
1.500000 -2.000000 18.000000 204 255 255
1.500000 -2.000000 18.500000 204 255 255
-0.750000 -2.750000 18.500000 204 255 255
-1.500000 -2.000000 18.000000 204 255 255
-0.750000 -2.750000 18.000000 204 255 255
0.000000 -3.000000 17.000000 255 204 102
-2.000000 1.000000 16.000000 255 204 102
-2.500000 1.000000 16.500000 255 204 102
-1.500000 -1.000000 18.500000 255 204 102
-2.500000 2.000000 17.500000 255 204 102
-2.500000 -1.000000 17.500000 255 204 102
-1.500000 -1.500000 18.000000 204 255 255
-1.500000 -2.000000 18.500000 204 255 255
-1.000000 -2.500000 20.500000 255 204 102
0.750000 2.000000 21.250000 255 255 102
-0.750000 -2.000000 21.250000 255 255 102
-0.750000 2.000000 21.250000 255 255 102
1.500000 -1.000000 18.500000 255 204 102
2.500000 2.000000 17.500000 255 204 102
1.500000 2.000000 18.500000 255 204 102
0.750000 -2.000000 21.250000 255 255 102
-1.500000 2.000000 18.500000 255 204 102
-2.000000 2.500000 17.500000 255 204 102
1.000000 2.500000 20.500000 255 204 102
1.000000 2.500000 18.500000 255 204 102
-0.750000 2.000000 21.250000 255 204 102
-1.000000 2.500000 20.500000 255 204 102
-1.500000 2.000000 20.500000 255 204 102
1.500000 -1.500000 18.000000 204 255 255
1.500000 -1.500000 19.000000 204 255 255
2.000000 2.500000 17.500000 255 204 102
0.750000 -2.000000 21.250000 255 204 102
0.750000 2.000000 21.250000 255 204 102
1.500000 2.000000 20.500000 255 204 102
-0.750000 -2.000000 21.250000 255 204 102
-1.500000 -2.000000 20.500000 255 204 102
0.750000 -2.750000 18.000000 255 204 102
-1.500000 -3.000000 19.500000 255 204 102
-0.833333 -2.833330 18.666700 255 204 102
-0.750000 -2.750000 18.000000 255 204 102
-1.500000 -1.500000 19.000000 255 204 102
1.500000 -2.500000 19.000000 204 255 255
0.833333 -2.833330 18.666700 255 204 102
1.500000 -2.000000 20.500000 255 204 102
1.500000 -1.500000 19.000000 255 204 102
-1.000000 2.500000 18.500000 255 204 102
-1.500000 -2.500000 19.000000 204 255 255
-0.833333 -2.833330 18.666700 204 255 255
0.750000 -2.750000 18.000000 204 255 255
-1.500000 -1.500000 19.000000 204 255 255
-0.500000 2.500000 21.000000 255 204 102
1.500000 -3.000000 19.500000 255 204 102
0.500000 2.500000 21.000000 255 204 102
0.750000 -2.750000 18.500000 255 204 102
0.000000 2.500000 15.500000 255 204 102
-1.500000 -2.500000 19.000000 255 204 102
-0.750000 -2.750000 18.500000 255 204 102
0.833333 -2.833330 18.666700 204 255 255
1.500000 -2.500000 19.000000 255 204 102
3 0 1 2
3 3 4 5
3 6 7 8
3 9 10 11
3 12 9 11
3 13 14 15
3 16 10 17
3 18 19 12
3 20 21 22
3 23 24 25
3 26 27 28
3 29 30 31
3 32 33 34
3 4 35 36
3 7 37 8
3 38 39 40
3 0 36 41
3 42 39 43
3 23 42 43
3 44 26 28
3 45 46 47
3 3 48 49
3 50 51 52
3 53 54 55
3 13 12 19
3 10 56 11
3 57 1 58
3 56 12 11
3 33 23 43
3 59 60 61
3 62 54 63
3 64 14 46
3 24 65 25
3 66 40 67
3 13 10 9
3 41 56 16
3 68 69 70
3 5 4 36
3 56 35 18
3 24 32 71
3 2 57 7
3 20 61 21
3 72 73 60
3 74 70 75
3 76 77 78
3 52 79 80
3 81 70 69
3 82 47 46
3 74 83 84
3 58 61 60
3 85 78 86
3 18 35 87
3 49 44 3
3 38 34 33
3 77 72 78
3 37 58 60
3 88 89 15
3 90 16 17
3 59 91 78
3 92 50 52
3 93 14 19
3 94 95 84
3 6 81 69
3 39 33 43
3 96 74 75
3 30 67 40
3 97 53 98
3 25 29 31
3 88 64 86
3 94 83 82
3 35 4 28
3 3 44 28
3 44 68 26
3 28 4 3
3 45 64 46
3 3 5 48
3 50 99 51
3 53 63 54
3 13 9 12
3 10 16 56
3 57 2 1
3 56 18 12
3 33 24 23
3 59 72 60
3 100 62 63
3 63 97 100
3 64 15 14
3 24 71 65
3 66 38 40
3 13 17 10
3 41 36 56
3 68 44 69
3 36 0 2
3 2 5 36
3 56 36 35
3 24 33 32
3 6 48 7
3 5 2 7
3 57 37 7
3 7 48 5
3 1 0 21
3 0 41 21
3 59 61 20
3 1 21 61
3 72 96 73
3 74 84 70
3 76 101 77
3 52 51 79
3 80 92 52
3 81 75 70
3 14 102 46
3 94 82 46
3 46 102 94
3 74 103 83
3 58 1 61
3 85 76 78
3 104 19 87
3 35 28 27
3 87 19 18
3 35 27 87
3 49 69 44
3 38 66 34
3 77 96 72
3 60 73 37
3 105 8 37
3 37 57 58
3 73 105 37
3 13 15 17
3 88 106 89
3 89 107 17
3 17 15 89
3 90 22 41
3 21 41 22
3 17 107 90
3 90 41 16
3 59 20 91
3 91 106 86
3 88 86 106
3 78 72 59
3 91 86 78
3 92 108 50
3 19 104 93
3 93 109 102
3 102 14 93
3 13 19 14
3 70 84 68
3 94 102 109
3 95 26 68
3 94 109 95
3 68 84 95
3 49 48 69
3 6 8 105
3 105 81 6
3 69 48 6
3 39 38 33
3 81 105 75
3 96 77 74
3 105 73 96
3 103 74 77
3 75 105 96
3 77 101 103
3 39 42 40
3 31 30 40
3 40 42 31
3 97 63 53
3 31 42 25
3 25 65 29
3 42 23 25
3 85 86 64
3 88 15 64
3 64 45 85
3 94 84 83
