ply
format ascii 1.0
comment Created by Blender 2.78 (sub 0) - www.blender.org, source file: ''
element vertex 110
property float x
property float y
property float z
property uchar red
property uchar green
property uchar blue
element face 172
property list uchar uint vertex_indices
end_header
-2.000000 -2.500000 16.500000 255 204 102
-2.500000 -2.000000 16.500000 255 204 102
-2.000000 -2.000000 16.000000 255 204 102
2.500000 -2.000000 16.500000 255 204 102
2.000000 -2.500000 16.500000 255 204 102
2.000000 -2.000000 16.000000 255 204 102
1.000000 2.000000 16.000000 255 204 102
0.000000 1.000000 16.000000 255 204 102
0.000000 2.000000 15.000000 255 204 102
0.000000 -4.500000 17.500000 255 204 102
-0.500000 -4.000000 17.500000 255 204 102
0.000000 -4.000000 17.000000 255 204 102
0.500000 -4.000000 17.500000 255 204 102
0.000000 -3.500000 18.500000 255 204 102
1.000000 -3.500000 19.500000 255 204 102
-1.000000 -3.500000 19.500000 255 204 102
-0.500000 -3.000000 17.500000 255 204 102
-0.500000 -3.000000 18.500000 255 204 102
0.500000 -3.000000 17.500000 255 204 102
0.500000 -3.000000 18.500000 255 204 102
-1.500000 -1.500000 18.000000 255 204 102
-1.500000 -2.000000 17.500000 255 204 102
-1.500000 -2.000000 18.000000 255 204 102
0.500000 -2.000000 25.500000 255 255 102
0.500000 -2.000000 21.500000 255 255 102
0.500000 2.000000 21.500000 255 255 102
1.500000 -1.500000 18.000000 255 204 102
1.500000 -2.000000 18.000000 255 204 102
1.500000 -2.000000 17.500000 255 204 102
0.500000 2.500000 21.000000 255 255 102
-0.500000 2.500000 21.000000 255 255 102
0.000000 2.500000 21.500000 255 255 102
0.500000 -2.500000 21.000000 255 255 102
0.000000 -2.500000 21.500000 255 255 102
-0.500000 -2.500000 21.000000 255 255 102
1.000000 -2.500000 17.500000 255 204 102
0.000000 -2.500000 16.500000 255 204 102
-1.000000 2.000000 16.000000 255 204 102
-0.500000 -2.000000 21.500000 255 255 102
-0.500000 -2.000000 25.500000 255 255 102
-0.500000 2.000000 21.500000 255 255 102
-1.000000 -2.500000 17.500000 255 204 102
0.000000 -2.000000 26.000000 255 255 102
0.000000 -2.500000 25.500000 255 255 102
0.750000 -2.750000 18.500000 204 255 255
1.500000 -2.000000 18.000000 204 255 255
1.500000 -2.000000 18.500000 204 255 255
-0.750000 -2.750000 18.500000 204 255 255
-1.500000 -2.000000 18.000000 204 255 255
-0.750000 -2.750000 18.000000 204 255 255
1.500000 -1.000000 18.500000 255 204 102
2.500000 2.000000 17.500000 255 204 102
1.500000 2.000000 18.500000 255 204 102
1.500000 -2.000000 20.500000 255 204 102
0.750000 2.000000 21.250000 255 204 102
0.750000 -2.000000 21.250000 255 204 102
1.500000 -1.500000 18.000000 204 255 255
1.500000 -1.500000 19.000000 204 255 255
0.000000 -3.000000 17.000000 255 204 102
-2.000000 1.000000 16.000000 255 204 102
-2.500000 1.000000 16.500000 255 204 102
-0.750000 2.000000 21.250000 255 204 102
-1.000000 2.500000 20.500000 255 204 102
-1.500000 2.000000 20.500000 255 204 102
-1.500000 -1.000000 18.500000 255 204 102
-2.500000 2.000000 17.500000 255 204 102
-2.500000 -1.000000 17.500000 255 204 102
1.500000 -2.500000 19.000000 204 255 255
-1.000000 -2.500000 20.500000 255 204 102
-0.750000 -2.000000 21.250000 255 204 102
-1.500000 -2.000000 20.500000 255 204 102
-0.750000 -2.000000 21.250000 255 255 102
-0.750000 2.000000 21.250000 255 255 102
1.000000 2.500000 20.500000 255 204 102
1.500000 2.000000 20.500000 255 204 102
1.000000 -2.500000 20.500000 255 204 102
1.000000 2.500000 18.500000 255 204 102
0.500000 -2.500000 21.000000 255 204 102
-1.500000 2.000000 18.500000 255 204 102
2.500000 1.000000 16.500000 255 204 102
2.500000 -1.000000 17.500000 255 204 102
-1.500000 -2.000000 18.500000 204 255 255
-1.500000 -1.500000 18.000000 204 255 255
0.833333 -2.833330 18.666700 255 204 102
-0.750000 -2.750000 18.000000 255 204 102
-2.000000 2.500000 17.500000 255 204 102
0.750000 2.000000 21.250000 255 255 102
-0.500000 -2.500000 21.000000 255 204 102
-1.500000 -1.500000 19.000000 255 204 102
2.000000 2.500000 17.500000 255 204 102
-1.000000 2.500000 18.500000 255 204 102
-1.500000 -2.500000 19.000000 204 255 255
-0.833333 -2.833330 18.666700 204 255 255
1.500000 -1.500000 19.000000 255 204 102
1.500000 -2.500000 19.000000 255 204 102
0.750000 -2.000000 21.250000 255 255 102
-1.500000 -3.000000 19.500000 255 204 102
-0.833333 -2.833330 18.666700 255 204 102
0.000000 2.500000 15.500000 255 204 102
0.750000 -2.750000 18.000000 255 204 102
2.000000 1.000000 16.000000 255 204 102
0.750000 -2.750000 18.000000 204 255 255
-0.500000 2.500000 21.000000 255 204 102
0.833333 -2.833330 18.666700 204 255 255
0.500000 2.500000 21.000000 255 204 102
1.500000 -3.000000 19.500000 255 204 102
-1.500000 -1.500000 19.000000 204 255 255
0.750000 -2.750000 18.500000 255 204 102
-0.750000 -2.750000 18.500000 255 204 102
-1.500000 -2.500000 19.000000 255 204 102
3 0 1 2
3 3 4 5
3 6 7 8
3 9 10 11
3 12 9 11
3 13 14 15
3 16 10 17
3 18 19 12
3 20 21 22
3 23 24 25
3 26 27 28
3 29 30 31
3 32 33 34
3 4 35 36
3 7 37 8
3 38 39 40
3 0 36 41
3 42 39 43
3 23 42 43
3 44 45 46
3 47 48 49
3 50 51 52
3 53 54 55
3 46 56 57
3 58 35 18
3 59 1 60
3 61 62 63
3 64 65 66
3 67 44 46
3 10 58 11
3 68 69 70
3 13 12 19
3 38 34 33
3 39 33 43
3 58 12 11
3 71 40 72
3 73 54 74
3 60 66 65
3 2 59 7
3 33 23 43
3 68 14 75
3 73 52 76
3 55 77 75
3 41 58 16
3 62 78 63
3 13 10 9
3 69 63 70
3 79 80 3
3 81 82 48
3 80 26 28
3 2 5 36
3 14 19 83
3 84 16 17
3 78 85 65
3 21 1 0
3 31 23 25
3 24 86 25
3 87 75 77
3 64 88 63
3 89 52 51
3 6 89 51
3 90 73 76
3 91 47 92
3 93 53 94
3 24 32 95
3 96 97 15
3 37 98 8
3 99 35 27
3 30 72 40
3 3 100 79
3 44 101 45
3 47 81 48
3 50 80 51
3 53 74 54
3 46 45 56
3 57 67 46
3 58 36 35
3 59 2 1
3 61 102 62
3 64 78 65
3 67 103 44
3 10 16 58
3 70 96 68
3 68 87 69
3 96 15 68
3 13 9 12
3 38 71 34
3 39 38 33
3 58 18 12
3 71 38 40
3 73 104 54
3 60 1 66
3 6 100 7
3 5 2 7
3 59 37 7
3 7 100 5
3 33 24 23
3 68 15 14
3 73 74 52
3 14 105 75
3 53 55 75
3 75 105 53
3 41 36 58
3 62 90 78
3 13 17 10
3 69 61 63
3 79 51 80
3 81 91 106
3 106 82 81
3 35 4 28
3 3 80 28
3 80 50 26
3 28 4 3
3 4 36 5
3 0 2 36
3 94 105 83
3 14 13 19
3 19 107 83
3 83 105 14
3 84 22 41
3 21 41 22
3 17 108 84
3 84 41 16
3 78 90 85
3 20 64 66
3 66 1 21
3 0 41 21
3 21 20 66
3 86 29 25
3 31 42 23
3 25 29 31
3 24 95 86
3 87 68 75
3 64 20 88
3 88 109 70
3 96 70 109
3 63 78 64
3 88 70 63
3 89 76 52
3 79 100 51
3 6 8 98
3 98 89 6
3 51 100 6
3 89 98 76
3 90 62 73
3 98 85 90
3 104 73 62
3 76 98 90
3 62 102 104
3 91 81 47
3 93 26 50
3 50 52 74
3 74 53 93
3 105 94 53
3 93 50 74
3 24 33 32
3 13 15 17
3 96 109 97
3 97 108 17
3 17 15 97
3 37 59 60
3 60 65 37
3 85 98 37
3 37 65 85
3 28 27 35
3 99 107 19
3 18 35 99
3 99 19 18
3 39 42 40
3 31 30 40
3 40 42 31
3 3 5 100
