ply
format ascii 1.0
comment Created by Blender 2.78 (sub 0) - www.blender.org, source file: ''
element vertex 32
property float x
property float y
property float z
property uchar red
property uchar green
property uchar blue
element face 60
property list uchar uint vertex_indices
end_header
1.000000 -4.000000 16.000000 255 204 102
-1.000000 -4.500000 15.500000 255 204 102
1.000000 -4.500000 15.500000 255 204 102
-1.000000 1.500000 14.500000 255 204 102
1.000000 1.500000 15.500000 255 204 102
1.000000 1.500000 14.500000 255 204 102
1.000000 1.000000 14.000000 255 204 102
1.000000 -4.500000 14.500000 255 204 102
2.000000 -3.000000 14.000000 255 204 102
2.500000 -3.000000 14.500000 255 204 102
-2.000000 0.000000 14.000000 255 204 102
-1.000000 1.000000 14.000000 255 204 102
2.000000 0.000000 14.000000 255 204 102
-2.000000 -3.000000 14.000000 255 204 102
-2.500000 0.000000 14.500000 255 204 102
2.500000 0.000000 14.500000 255 204 102
-1.000000 -4.500000 14.500000 255 204 102
1.000000 -4.000000 14.000000 255 204 102
-2.000000 -3.000000 16.000000 255 204 102
-2.500000 0.000000 15.500000 255 204 102
-2.500000 -3.000000 15.500000 255 204 102
2.000000 -3.000000 16.000000 255 204 102
2.500000 -3.000000 15.500000 255 204 102
-2.500000 -3.000000 14.500000 255 204 102
2.000000 0.000000 16.000000 255 204 102
1.000000 1.000000 16.000000 255 204 102
-1.000000 -4.000000 16.000000 255 204 102
2.500000 0.000000 15.500000 255 204 102
-2.000000 0.000000 16.000000 255 204 102
-1.000000 1.500000 15.500000 255 204 102
-1.000000 -4.000000 14.000000 255 204 102
-1.000000 1.000000 16.000000 255 204 102
3 0 1 2
3 3 4 5
3 6 3 5
3 7 8 9
3 10 3 11
3 5 12 6
3 13 14 10
3 8 15 9
3 16 17 7
3 18 19 20
3 14 20 19
3 21 2 22
3 16 20 23
3 24 4 25
3 26 20 1
3 24 22 27
3 28 29 19
3 23 30 16
3 7 22 2
3 16 2 1
3 4 31 25
3 4 15 5
3 13 10 8
3 9 27 22
3 24 25 28
3 14 29 3
3 0 26 1
3 3 29 4
3 6 11 3
3 7 17 8
3 10 14 3
3 5 15 12
3 13 23 14
3 8 12 15
3 16 30 17
3 18 28 19
3 14 23 20
3 21 0 2
3 16 1 20
3 24 27 4
3 26 18 20
3 24 21 22
3 28 31 29
3 23 13 30
3 7 9 22
3 16 7 2
3 4 29 31
3 4 27 15
3 6 12 10
3 8 17 30
3 30 13 8
3 10 11 6
3 12 8 10
3 9 15 27
3 28 18 21
3 26 0 21
3 21 24 28
3 25 31 28
3 18 26 21
3 14 19 29
