ply
format ascii 1.0
comment Created by Blender 2.78 (sub 0) - www.blender.org, source file: ''
element vertex 32
property float x
property float y
property float z
property uchar red
property uchar green
property uchar blue
element face 60
property list uchar uint vertex_indices
end_header
1.000000 -4.000000 16.000000 255 204 102
2.500000 -3.000000 15.500000 255 204 102
2.000000 -3.000000 16.000000 255 204 102
-2.500000 0.000000 15.500000 255 204 102
-1.000000 1.500000 14.500000 255 204 102
-2.500000 0.000000 14.500000 255 204 102
-2.000000 0.000000 16.000000 255 204 102
-2.500000 -3.000000 15.500000 255 204 102
-2.000000 -3.000000 16.000000 255 204 102
-2.000000 -3.000000 14.000000 255 204 102
-1.000000 -4.500000 14.500000 255 204 102
-2.500000 -3.000000 14.500000 255 204 102
-1.000000 -4.000000 16.000000 255 204 102
1.000000 -4.500000 15.500000 255 204 102
-1.000000 1.000000 16.000000 255 204 102
1.000000 -4.000000 14.000000 255 204 102
2.500000 -3.000000 14.500000 255 204 102
1.000000 -4.500000 14.500000 255 204 102
2.500000 0.000000 14.500000 255 204 102
1.000000 1.000000 14.000000 255 204 102
1.000000 1.500000 14.500000 255 204 102
-2.000000 0.000000 14.000000 255 204 102
-1.000000 1.000000 14.000000 255 204 102
2.500000 0.000000 15.500000 255 204 102
1.000000 1.500000 15.500000 255 204 102
2.000000 0.000000 16.000000 255 204 102
1.000000 1.000000 16.000000 255 204 102
-1.000000 1.500000 15.500000 255 204 102
-1.000000 -4.000000 14.000000 255 204 102
-1.000000 -4.500000 15.500000 255 204 102
2.000000 0.000000 14.000000 255 204 102
2.000000 -3.000000 14.000000 255 204 102
3 0 1 2
3 3 4 5
3 6 7 8
3 9 10 11
3 12 13 0
3 14 3 6
3 15 16 17
3 18 19 20
3 21 4 22
3 9 5 21
3 22 20 19
3 23 20 24
3 16 13 17
3 25 24 26
3 27 26 24
3 28 17 10
3 8 12 2
3 25 1 23
3 8 29 12
3 22 30 21
3 29 11 10
3 18 1 16
3 27 20 4
3 17 29 10
3 5 7 3
3 30 16 31
3 0 13 1
3 3 27 4
3 6 3 7
3 9 28 10
3 12 29 13
3 14 27 3
3 15 31 16
3 18 30 19
3 21 5 4
3 9 11 5
3 22 4 20
3 23 18 20
3 16 1 13
3 25 23 24
3 27 14 26
3 28 15 17
3 2 25 6
3 26 14 6
3 6 8 2
3 12 0 2
3 25 26 6
3 25 2 1
3 8 7 29
3 15 28 9
3 9 21 30
3 22 19 30
3 30 31 9
3 15 9 31
3 29 7 11
3 18 23 1
3 27 24 20
3 17 13 29
3 5 11 7
3 30 18 16
