ply
format ascii 1.0
comment Created by Blender 2.78 (sub 0) - www.blender.org, source file: ''
element vertex 32
property float x
property float y
property float z
property uchar red
property uchar green
property uchar blue
element face 60
property list uchar uint vertex_indices
end_header
2.000000 -3.000000 16.000000 255 204 102
1.000000 -4.500000 15.500000 255 204 102
2.500000 -3.000000 15.500000 255 204 102
2.500000 0.000000 15.500000 255 204 102
-2.500000 -3.000000 14.500000 255 204 102
-1.000000 -4.000000 14.000000 255 204 102
-1.000000 -4.500000 14.500000 255 204 102
1.000000 -4.500000 14.500000 255 204 102
2.000000 -3.000000 14.000000 255 204 102
2.500000 -3.000000 14.500000 255 204 102
1.000000 -4.000000 14.000000 255 204 102
2.000000 0.000000 16.000000 255 204 102
1.000000 1.500000 15.500000 255 204 102
1.000000 1.000000 16.000000 255 204 102
-1.000000 1.000000 16.000000 255 204 102
1.000000 1.500000 14.500000 255 204 102
2.000000 0.000000 14.000000 255 204 102
1.000000 1.000000 14.000000 255 204 102
-2.500000 -3.000000 15.500000 255 204 102
2.500000 0.000000 14.500000 255 204 102
-2.000000 0.000000 16.000000 255 204 102
-1.000000 1.500000 15.500000 255 204 102
-2.500000 0.000000 15.500000 255 204 102
-1.000000 1.500000 14.500000 255 204 102
-2.000000 -3.000000 16.000000 255 204 102
1.000000 -4.000000 16.000000 255 204 102
-1.000000 -4.500000 15.500000 255 204 102
-1.000000 -4.000000 16.000000 255 204 102
-2.000000 0.000000 14.000000 255 204 102
-2.500000 0.000000 14.500000 255 204 102
-1.000000 1.000000 14.000000 255 204 102
-2.000000 -3.000000 14.000000 255 204 102
3 0 1 2
3 3 0 2
3 4 5 6
3 7 8 9
3 6 10 7
3 11 12 13
3 12 14 13
3 15 16 17
3 6 18 4
3 12 19 15
3 7 2 1
3 20 21 22
3 9 3 2
3 17 23 15
3 24 22 18
3 25 26 1
3 27 18 26
3 28 4 29
3 28 23 30
3 29 21 23
3 16 8 28
3 11 20 24
3 22 4 18
3 6 1 26
3 23 12 15
3 8 19 9
3 0 25 1
3 3 11 0
3 4 31 5
3 7 10 8
3 6 5 10
3 11 3 12
3 12 21 14
3 15 19 16
3 6 26 18
3 12 3 19
3 7 9 2
3 20 14 21
3 9 19 3
3 17 30 23
3 24 20 22
3 25 27 26
3 27 24 18
3 28 31 4
3 28 29 23
3 29 22 21
3 5 31 8
3 28 30 17
3 17 16 28
3 8 10 5
3 31 28 8
3 24 27 25
3 25 0 24
3 11 13 14
3 14 20 11
3 24 0 11
3 22 29 4
3 6 7 1
3 23 21 12
3 8 16 19
