ply
format ascii 1.0
comment Created by Blender 2.78 (sub 0) - www.blender.org, source file: ''
element vertex 88
property float x
property float y
property float z
property uchar red
property uchar green
property uchar blue
element face 172
property list uchar uint vertex_indices
end_header
5.000000 -2.500000 4.500000 255 204 102
4.500000 -2.000000 4.500000 255 204 102
5.000000 -2.000000 4.000000 255 204 102
6.500000 -2.000000 4.500000 255 204 102
6.000000 -2.500000 4.500000 255 204 102
6.000000 -2.000000 4.000000 255 204 102
6.000000 -1.000000 4.000000 255 204 102
6.000000 0.000000 4.000000 255 204 102
5.500000 0.000000 4.500000 255 204 102
6.000000 0.500000 4.500000 255 204 102
6.500000 0.000000 4.500000 255 204 102
5.000000 1.000000 6.000000 255 204 102
6.000000 1.000000 6.000000 255 204 102
5.000000 0.000000 6.000000 255 204 102
4.500000 1.000000 6.500000 255 204 102
5.000000 1.500000 6.500000 255 204 102
4.000000 -2.000000 7.000000 255 204 102
3.500000 -2.000000 6.500000 255 204 102
4.000000 -2.500000 6.500000 255 204 102
5.000000 -2.000000 7.000000 255 204 102
4.000000 -1.000000 7.000000 255 204 102
5.000000 -1.000000 11.000000 255 204 102
4.500000 -1.000000 10.500000 255 204 102
5.000000 -1.500000 10.500000 255 204 102
4.500000 0.000000 10.500000 255 204 102
6.000000 -2.500000 6.500000 255 204 102
5.000000 -2.500000 5.500000 255 204 102
4.000000 0.000000 14.000000 255 204 102
3.500000 0.000000 13.500000 255 204 102
4.000000 -0.500000 13.500000 255 204 102
6.500000 0.000000 13.500000 255 204 102
6.000000 0.000000 14.000000 255 204 102
6.000000 -0.500000 13.500000 255 204 102
4.000000 2.500000 13.500000 255 204 102
3.500000 2.000000 13.500000 255 204 102
4.000000 2.000000 14.000000 255 204 102
6.500000 2.000000 13.500000 255 204 102
6.000000 2.500000 13.500000 255 204 102
6.000000 2.000000 14.000000 255 204 102
6.500000 -1.000000 9.500000 255 204 102
6.000000 -1.500000 10.500000 255 204 102
6.000000 -1.500000 9.500000 255 204 102
4.500000 0.000000 6.500000 255 204 102
3.500000 -1.000000 6.500000 255 204 102
5.500000 -1.000000 4.500000 255 204 102
4.000000 2.500000 12.500000 255 204 102
3.500000 2.000000 12.500000 255 204 102
4.500000 2.000000 10.500000 255 204 102
3.500000 3.000000 10.500000 255 204 102
4.500000 3.000000 9.500000 255 204 102
6.500000 1.000000 7.500000 255 204 102
6.000000 1.500000 6.500000 255 204 102
6.000000 1.500000 7.500000 255 204 102
6.500000 3.000000 9.500000 255 204 102
6.000000 3.500000 9.500000 255 204 102
3.500000 2.000000 11.500000 255 204 102
5.000000 -0.500000 8.500000 255 204 102
4.500000 0.000000 8.500000 255 204 102
4.500000 -1.000000 7.500000 255 204 102
6.500000 3.000000 11.500000 255 204 102
6.000000 2.500000 12.500000 255 204 102
6.500000 2.000000 12.500000 255 204 102
5.500000 0.000000 5.500000 255 204 102
6.000000 -0.500000 11.500000 255 204 102
6.500000 0.000000 11.500000 255 204 102
4.000000 -0.500000 11.500000 255 204 102
4.500000 1.000000 7.500000 255 204 102
4.000000 -1.000000 6.000000 255 204 102
6.500000 -1.000000 10.500000 255 204 102
6.500000 1.000000 6.500000 255 204 102
6.000000 -0.500000 8.500000 255 204 102
4.000000 -2.000000 6.000000 255 204 102
3.500000 3.000000 11.500000 255 204 102
4.000000 3.500000 10.500000 255 204 102
6.000000 0.500000 5.500000 255 204 102
6.500000 0.000000 5.500000 255 204 102
4.500000 -1.000000 9.500000 255 204 102
4.000000 3.500000 11.500000 255 204 102
4.500000 -2.000000 5.500000 255 204 102
5.000000 -1.500000 9.500000 255 204 102
5.500000 -1.000000 5.500000 255 204 102
5.000000 -1.000000 6.000000 255 204 102
6.000000 3.500000 11.500000 255 204 102
5.000000 1.500000 7.500000 255 204 102
3.500000 0.000000 11.500000 255 204 102
5.000000 3.500000 9.500000 255 204 102
6.500000 -2.000000 6.500000 255 204 102
6.500000 0.000000 8.500000 255 204 102
3 0 1 2
3 3 4 5
3 5 2 6
3 7 8 9
3 10 7 9
3 11 12 13
3 11 14 15
3 16 17 18
3 16 19 20
3 21 22 23
3 22 21 24
3 25 26 4
3 27 28 29
3 30 31 32
3 33 34 35
3 36 37 38
3 39 40 41
3 20 42 43
3 3 25 4
3 44 2 1
3 34 45 46
3 47 48 49
3 8 6 44
3 50 51 52
3 53 52 54
3 24 55 47
3 2 4 0
3 56 57 58
3 59 60 61
3 62 9 8
3 26 1 0
3 30 63 64
3 65 24 21
3 66 15 14
3 42 67 43
3 63 68 64
3 12 51 69
3 19 70 56
3 70 39 41
3 43 71 17
3 36 60 37
3 11 51 12
3 72 73 48
3 13 74 62
3 30 38 31
3 32 27 29
3 75 9 74
3 65 21 63
3 56 76 57
3 72 45 77
3 78 44 1
3 17 20 43
3 79 40 23
3 33 60 45
3 80 13 62
3 67 81 71
3 59 54 82
3 78 81 80
3 83 51 15
3 56 41 79
3 37 35 38
3 34 27 35
3 17 71 18
3 3 5 6
3 76 23 22
3 27 38 35
3 29 84 65
3 83 66 49
3 83 54 52
3 46 84 28
3 73 82 85
3 60 77 45
3 14 13 42
3 64 53 59
3 70 86 87
3 29 63 32
3 66 57 47
3 80 8 44
3 25 18 26
3 26 0 4
3 39 68 40
3 20 58 42
3 3 86 25
3 44 6 2
3 34 33 45
3 47 55 48
3 8 7 6
3 50 69 51
3 53 50 52
3 24 84 55
3 2 5 4
3 19 56 58
3 58 20 19
3 59 82 60
3 62 74 9
3 26 78 1
3 30 32 63
3 65 84 24
3 66 83 15
3 42 13 67
3 63 40 68
3 69 75 74
3 74 12 69
3 19 16 18
3 25 70 19
3 19 18 25
3 70 87 39
3 43 67 71
3 36 61 60
3 11 15 51
3 72 77 73
3 13 12 74
3 30 36 38
3 32 31 27
3 75 10 9
3 40 63 21
3 21 23 40
3 56 79 76
3 72 46 45
3 78 80 44
3 17 16 20
3 79 41 40
3 33 37 60
3 80 81 13
3 67 13 81
3 59 53 54
3 78 71 81
3 83 52 51
3 56 70 41
3 37 33 35
3 34 28 27
3 26 18 71
3 71 78 26
3 6 7 10
3 10 3 6
3 76 79 23
3 27 31 38
3 29 28 84
3 48 73 49
3 85 83 49
3 49 73 85
3 83 85 54
3 46 72 55
3 55 84 46
3 72 48 55
3 28 34 46
3 54 85 82
3 73 77 82
3 60 82 77
3 14 11 13
3 50 53 87
3 61 36 30
3 53 64 87
3 75 69 50
3 3 10 75
3 87 86 75
3 68 39 87
3 61 30 64
3 64 68 87
3 86 3 75
3 75 50 87
3 61 64 59
3 70 25 86
3 29 65 63
3 47 49 66
3 66 14 42
3 42 58 57
3 57 76 24
3 24 47 57
3 76 22 24
3 66 42 57
3 80 62 8
