ply
format ascii 1.0
comment Created by Blender 2.78 (sub 0) - www.blender.org, source file: ''
element vertex 32
property float x
property float y
property float z
property uchar red
property uchar green
property uchar blue
element face 48
property list uchar uint vertex_indices
end_header
2.000000 -1.500000 0.500000 255 255 0
1.500000 -1.000000 0.500000 255 255 0
2.000000 -1.000000 0.000000 255 255 0
2.500000 -1.000000 0.500000 255 255 0
2.000000 1.000000 0.000000 255 255 0
1.500000 1.000000 0.500000 255 255 0
2.000000 1.500000 0.500000 255 255 0
2.500000 1.000000 0.500000 255 255 0
2.000000 -1.000000 1.000000 255 255 0
1.500000 0.500000 1.000000 0 255 51
1.500000 1.000000 1.500000 0 255 51
1.500000 1.000000 1.000000 0 255 51
2.500000 0.500000 1.000000 0 255 51
2.500000 1.000000 1.000000 0 255 51
2.500000 1.000000 1.500000 0 255 51
2.000000 1.000000 6.000000 0 255 51
1.500000 1.000000 5.500000 0 255 51
2.000000 0.500000 5.500000 0 255 51
2.500000 1.000000 5.500000 0 255 51
2.000000 1.500000 5.500000 0 255 51
2.000000 0.000000 1.000000 255 255 0
1.500000 0.500000 1.000000 255 255 0
1.500000 0.000000 0.500000 255 255 0
2.500000 0.500000 1.000000 255 255 0
2.000000 0.250000 1.250000 255 255 0
2.500000 1.000000 1.000000 255 255 0
2.000000 1.500000 1.000000 255 255 0
2.500000 0.000000 0.500000 255 255 0
2.000000 0.500000 1.500000 0 255 51
2.000000 0.250000 1.250000 0 255 51
2.000000 1.500000 1.000000 0 255 51
1.500000 1.000000 1.000000 255 255 0
3 0 1 2
3 3 0 2
3 4 5 6
3 7 4 6
3 1 0 8
3 8 0 3
3 9 10 11
3 12 13 14
3 15 16 17
3 18 15 17
3 19 16 15
3 18 19 15
3 10 17 16
3 20 21 22
3 20 23 24
3 25 6 26
3 4 27 2
3 2 22 4
3 28 9 29
3 14 13 30
3 28 12 14
3 22 8 20
3 26 5 31
3 8 27 20
3 23 7 25
3 30 10 19
3 14 17 28
3 21 5 22
3 10 28 17
3 20 24 21
3 20 27 23
3 25 7 6
3 3 2 27
3 4 7 27
3 5 4 22
3 2 1 22
3 28 10 9
3 30 19 14
3 18 14 19
3 28 29 12
3 22 1 8
3 26 6 5
3 8 3 27
3 23 27 7
3 16 19 10
3 30 11 10
3 14 18 17
3 21 31 5
