ply
format ascii 1.0
comment Created by Blender 2.78 (sub 0) - www.blender.org, source file: ''
element vertex 32
property float x
property float y
property float z
property uchar red
property uchar green
property uchar blue
element face 48
property list uchar uint vertex_indices
end_header
2.000000 -1.500000 0.500000 255 255 0
1.500000 -1.000000 0.500000 255 255 0
2.000000 -1.000000 0.000000 255 255 0
2.500000 -1.000000 0.500000 255 255 0
2.000000 1.000000 0.000000 255 255 0
1.500000 1.000000 0.500000 255 255 0
2.000000 1.500000 0.500000 255 255 0
2.500000 1.000000 0.500000 255 255 0
2.000000 -1.000000 1.000000 255 255 0
1.500000 0.500000 1.000000 0 255 51
1.500000 1.000000 1.500000 0 255 51
1.500000 1.000000 1.000000 0 255 51
2.500000 0.500000 1.000000 0 255 51
2.500000 1.000000 1.000000 0 255 51
2.500000 1.000000 1.500000 0 255 51
2.000000 1.000000 6.000000 0 255 51
1.500000 1.000000 5.500000 0 255 51
2.000000 0.500000 5.500000 0 255 51
2.500000 1.000000 5.500000 0 255 51
2.000000 1.500000 5.500000 0 255 51
1.500000 0.000000 0.500000 255 255 0
2.000000 0.500000 1.500000 0 255 51
2.500000 0.000000 0.500000 255 255 0
2.000000 0.000000 1.000000 255 255 0
2.500000 0.500000 1.000000 255 255 0
2.000000 0.250000 1.250000 255 255 0
2.500000 1.000000 1.000000 255 255 0
2.000000 1.500000 1.000000 255 255 0
1.500000 1.000000 1.000000 255 255 0
1.500000 0.500000 1.000000 255 255 0
2.000000 0.250000 1.250000 0 255 51
2.000000 1.500000 1.000000 0 255 51
3 0 1 2
3 3 0 2
3 4 5 6
3 7 4 6
3 1 0 8
3 8 0 3
3 9 10 11
3 12 13 14
3 15 16 17
3 18 15 17
3 19 16 15
3 18 19 15
3 2 20 4
3 21 12 14
3 8 22 23
3 23 24 25
3 26 6 27
3 4 22 2
3 10 17 16
3 20 8 23
3 14 17 21
3 27 5 28
3 29 5 20
3 19 18 14
3 23 29 20
3 21 9 30
3 10 19 31
3 24 7 26
3 5 4 20
3 2 1 20
3 21 30 12
3 8 3 22
3 23 22 24
3 26 7 6
3 3 2 22
3 4 7 22
3 10 21 17
3 20 1 8
3 14 18 17
3 27 6 5
3 29 28 5
3 14 13 31
3 31 19 14
3 23 25 29
3 21 10 9
3 31 11 10
3 10 16 19
3 24 22 7
