ply
format ascii 1.0
comment Created by Blender 2.78 (sub 0) - www.blender.org, source file: ''
element vertex 32
property float x
property float y
property float z
property uchar red
property uchar green
property uchar blue
element face 48
property list uchar uint vertex_indices
end_header
2.000000 -1.500000 0.500000 255 255 0
1.500000 -1.000000 0.500000 255 255 0
2.000000 -1.000000 0.000000 255 255 0
2.500000 -1.000000 0.500000 255 255 0
2.000000 1.000000 0.000000 255 255 0
1.500000 1.000000 0.500000 255 255 0
2.000000 1.500000 0.500000 255 255 0
2.500000 1.000000 0.500000 255 255 0
2.000000 -1.000000 1.000000 255 255 0
1.500000 0.500000 1.000000 0 255 51
1.500000 1.000000 1.500000 0 255 51
1.500000 1.000000 1.000000 0 255 51
2.500000 0.500000 1.000000 0 255 51
2.500000 1.000000 1.000000 0 255 51
2.500000 1.000000 1.500000 0 255 51
2.000000 1.000000 6.000000 0 255 51
1.500000 1.000000 5.500000 0 255 51
2.000000 0.500000 5.500000 0 255 51
2.500000 1.000000 5.500000 0 255 51
2.000000 1.500000 5.500000 0 255 51
2.000000 0.000000 1.000000 255 255 0
1.500000 0.500000 1.000000 255 255 0
1.500000 0.000000 0.500000 255 255 0
2.000000 0.500000 1.500000 0 255 51
2.500000 0.500000 1.000000 255 255 0
2.000000 0.250000 1.250000 255 255 0
2.000000 0.250000 1.250000 0 255 51
1.500000 1.000000 1.000000 255 255 0
2.000000 1.500000 1.000000 255 255 0
2.000000 1.500000 1.000000 0 255 51
2.500000 0.000000 0.500000 255 255 0
2.500000 1.000000 1.000000 255 255 0
3 0 1 2
3 3 0 2
3 4 5 6
3 7 4 6
3 1 0 8
3 8 0 3
3 9 10 11
3 12 13 14
3 15 16 17
3 18 15 17
3 19 16 15
3 18 19 15
3 20 21 22
3 3 20 8
3 23 12 14
3 23 16 10
3 20 24 25
3 23 9 26
3 6 27 28
3 29 11 10
3 21 5 22
3 7 30 4
3 2 1 22
3 7 28 31
3 14 29 19
3 18 23 14
3 1 20 22
3 24 7 31
3 20 25 21
3 3 30 20
3 23 26 12
3 23 17 16
3 20 30 24
3 23 10 9
3 6 5 27
3 10 16 19
3 19 29 10
3 21 27 5
3 2 4 30
3 30 3 2
3 22 5 4
3 4 2 22
3 7 6 28
3 19 18 14
3 14 13 29
3 18 17 23
3 1 8 20
3 24 30 7
