ply
format ascii 1.0
comment Created by Blender 2.78 (sub 0) - www.blender.org, source file: ''
element vertex 88
property float x
property float y
property float z
property uchar red
property uchar green
property uchar blue
element face 172
property list uchar uint vertex_indices
end_header
-6.000000 -2.500000 4.500000 255 204 102
-6.500000 -2.000000 4.500000 255 204 102
-6.000000 -2.000000 4.000000 255 204 102
-4.500000 -2.000000 4.500000 255 204 102
-5.000000 -2.500000 4.500000 255 204 102
-5.000000 -2.000000 4.000000 255 204 102
-6.000000 -1.000000 4.000000 255 204 102
-6.000000 0.000000 4.000000 255 204 102
-6.500000 0.000000 4.500000 255 204 102
-6.000000 0.500000 4.500000 255 204 102
-5.500000 0.000000 4.500000 255 204 102
-5.000000 -1.000000 6.000000 255 204 102
-5.500000 0.000000 5.500000 255 204 102
-5.000000 0.000000 6.000000 255 204 102
-6.000000 -0.500000 11.500000 255 204 102
-5.000000 -0.500000 11.500000 255 204 102
-6.000000 -0.500000 13.500000 255 204 102
-5.000000 1.000000 6.000000 255 204 102
-6.000000 1.000000 6.000000 255 204 102
-4.500000 1.000000 6.500000 255 204 102
-5.000000 1.500000 6.500000 255 204 102
-3.500000 -2.000000 6.500000 255 204 102
-4.000000 -2.000000 7.000000 255 204 102
-4.000000 -2.500000 6.500000 255 204 102
-4.000000 -1.000000 7.000000 255 204 102
-5.000000 -2.000000 7.000000 255 204 102
-4.000000 -0.500000 11.500000 255 204 102
-4.000000 0.000000 11.000000 255 204 102
-3.500000 0.000000 11.500000 255 204 102
-6.000000 0.000000 14.000000 255 204 102
-6.500000 0.000000 13.500000 255 204 102
-3.500000 0.000000 13.500000 255 204 102
-4.000000 0.000000 14.000000 255 204 102
-4.000000 -0.500000 13.500000 255 204 102
-6.000000 2.500000 13.500000 255 204 102
-6.500000 2.000000 13.500000 255 204 102
-6.000000 2.000000 14.000000 255 204 102
-3.500000 2.000000 13.500000 255 204 102
-4.000000 2.500000 13.500000 255 204 102
-4.000000 2.000000 14.000000 255 204 102
-6.000000 0.500000 5.500000 255 204 102
-6.500000 1.000000 6.500000 255 204 102
-6.000000 1.500000 7.500000 255 204 102
-5.000000 3.500000 9.500000 255 204 102
-5.000000 1.500000 7.500000 255 204 102
-6.000000 -0.500000 8.500000 255 204 102
-6.500000 -2.000000 6.500000 255 204 102
-6.000000 -2.500000 6.500000 255 204 102
-4.500000 -1.000000 10.500000 255 204 102
-6.000000 2.500000 12.500000 255 204 102
-4.000000 3.500000 11.500000 255 204 102
-6.000000 3.500000 11.500000 255 204 102
-5.500000 -1.000000 5.500000 255 204 102
-4.500000 -2.000000 5.500000 255 204 102
-3.500000 3.000000 11.500000 255 204 102
-4.000000 2.500000 12.500000 255 204 102
-3.500000 2.000000 12.500000 255 204 102
-5.000000 -1.500000 9.500000 255 204 102
-5.000000 -1.500000 10.500000 255 204 102
-6.000000 1.500000 6.500000 255 204 102
-3.500000 2.000000 11.500000 255 204 102
-4.500000 2.000000 10.500000 255 204 102
-5.000000 -2.500000 5.500000 255 204 102
-4.000000 -2.000000 6.000000 255 204 102
-6.500000 2.000000 12.500000 255 204 102
-6.000000 -1.500000 9.500000 255 204 102
-5.000000 -0.500000 8.500000 255 204 102
-3.500000 -1.000000 6.500000 255 204 102
-6.500000 -1.000000 9.500000 255 204 102
-6.500000 0.000000 8.500000 255 204 102
-4.000000 -1.000000 6.000000 255 204 102
-4.500000 0.000000 6.500000 255 204 102
-6.500000 3.000000 11.500000 255 204 102
-6.000000 3.500000 9.500000 255 204 102
-6.500000 3.000000 9.500000 255 204 102
-3.500000 3.000000 10.500000 255 204 102
-6.500000 0.000000 11.500000 255 204 102
-4.500000 -1.000000 7.500000 255 204 102
-5.500000 -1.000000 4.500000 255 204 102
-4.000000 3.500000 10.500000 255 204 102
-6.500000 -1.000000 10.500000 255 204 102
-6.000000 -1.500000 10.500000 255 204 102
-4.500000 -1.000000 9.500000 255 204 102
-4.500000 3.000000 9.500000 255 204 102
-4.500000 0.000000 8.500000 255 204 102
-6.500000 1.000000 7.500000 255 204 102
-6.500000 0.000000 5.500000 255 204 102
-4.500000 1.000000 7.500000 255 204 102
3 0 1 2
3 3 4 5
3 2 6 5
3 7 8 9
3 10 7 9
3 11 12 13
3 14 15 16
3 17 13 18
3 19 17 20
3 21 22 23
3 22 24 25
3 26 15 27
3 28 26 27
3 29 30 16
3 31 32 33
3 34 35 36
3 37 38 39
3 40 41 18
3 32 16 33
3 42 43 44
3 45 46 47
3 15 48 27
3 49 50 51
3 3 52 53
3 54 55 56
3 57 48 58
3 47 1 0
3 14 58 15
3 17 59 20
3 32 37 39
3 38 56 55
3 60 27 61
3 62 63 23
3 64 34 49
3 65 66 57
3 53 11 63
3 22 67 24
3 45 68 69
3 70 71 67
3 71 24 67
3 13 40 18
3 72 73 74
3 40 10 9
3 61 75 60
3 16 76 14
3 70 21 63
3 25 77 66
3 6 1 8
3 17 71 13
3 7 78 6
3 50 75 79
3 5 78 3
3 14 80 81
3 26 31 33
3 49 72 64
3 80 65 81
3 66 82 57
3 44 19 20
3 0 4 62
3 8 40 9
3 38 36 39
3 49 38 55
3 81 57 58
3 59 44 20
3 12 78 10
3 42 74 73
3 41 42 59
3 36 30 29
3 0 5 4
3 51 79 43
3 83 79 75
3 11 70 63
3 28 60 56
3 32 36 29
3 48 84 61
3 69 74 85
3 4 53 62
3 25 45 47
3 11 52 12
3 33 16 15
3 15 26 33
3 59 18 41
3 40 86 41
3 32 29 16
3 42 73 43
3 45 69 46
3 15 58 48
3 49 55 50
3 3 78 52
3 54 50 55
3 57 82 48
3 47 46 1
3 14 81 58
3 17 18 59
3 32 31 37
3 38 37 56
3 48 61 27
3 60 28 27
3 21 23 63
3 62 53 63
3 64 35 34
3 65 45 66
3 53 52 11
3 22 21 67
3 45 65 68
3 70 13 71
3 71 77 24
3 13 12 40
3 72 51 73
3 40 12 10
3 61 83 75
3 16 30 76
3 70 67 21
3 25 24 77
3 77 84 66
3 8 7 6
3 6 2 1
3 17 19 71
3 7 10 78
3 50 54 75
3 5 6 78
3 14 76 80
3 26 28 31
3 49 51 72
3 80 68 65
3 66 84 82
3 44 87 19
3 47 0 62
3 62 23 47
3 8 86 40
3 38 34 36
3 49 34 38
3 81 65 57
3 59 42 44
3 12 52 78
3 42 85 74
3 41 85 42
3 36 35 30
3 0 2 5
3 43 73 51
3 51 50 79
3 83 87 44
3 43 79 83
3 83 44 43
3 11 13 70
3 37 31 56
3 60 75 54
3 56 31 28
3 60 54 56
3 32 39 36
3 83 61 84
3 48 82 84
3 84 77 71
3 71 19 87
3 87 83 84
3 84 71 87
3 69 68 80
3 76 30 64
3 69 80 76
3 1 46 86
3 86 8 1
3 85 41 86
3 72 74 76
3 30 35 64
3 64 72 76
3 85 86 46
3 69 76 74
3 85 46 69
3 4 3 53
3 47 23 25
3 25 66 45
3 23 22 25
