ply
format ascii 1.0
comment Created by Blender 2.78 (sub 0) - www.blender.org, source file: ''
element vertex 88
property float x
property float y
property float z
property uchar red
property uchar green
property uchar blue
element face 172
property list uchar uint vertex_indices
end_header
-6.000000 -2.500000 4.500000 255 204 102
-6.500000 -2.000000 4.500000 255 204 102
-6.000000 -2.000000 4.000000 255 204 102
-4.500000 -2.000000 4.500000 255 204 102
-5.000000 -2.500000 4.500000 255 204 102
-5.000000 -2.000000 4.000000 255 204 102
-6.000000 -1.000000 4.000000 255 204 102
-6.000000 0.000000 4.000000 255 204 102
-6.500000 0.000000 4.500000 255 204 102
-6.000000 0.500000 4.500000 255 204 102
-5.500000 0.000000 4.500000 255 204 102
-3.500000 0.000000 13.500000 255 204 102
-4.000000 2.000000 14.000000 255 204 102
-4.000000 0.000000 14.000000 255 204 102
-5.000000 -2.500000 5.500000 255 204 102
-5.000000 1.000000 6.000000 255 204 102
-5.000000 0.000000 6.000000 255 204 102
-6.000000 1.000000 6.000000 255 204 102
-4.500000 1.000000 6.500000 255 204 102
-5.000000 1.500000 6.500000 255 204 102
-3.500000 -2.000000 6.500000 255 204 102
-4.000000 -2.000000 7.000000 255 204 102
-4.000000 -2.500000 6.500000 255 204 102
-4.000000 -1.000000 7.000000 255 204 102
-5.000000 -2.000000 7.000000 255 204 102
-6.000000 -0.500000 8.500000 255 204 102
-6.500000 -2.000000 6.500000 255 204 102
-6.000000 -2.500000 6.500000 255 204 102
-4.000000 -0.500000 11.500000 255 204 102
-5.000000 -0.500000 11.500000 255 204 102
-4.000000 0.000000 11.000000 255 204 102
-3.500000 0.000000 11.500000 255 204 102
-6.000000 0.000000 14.000000 255 204 102
-6.500000 0.000000 13.500000 255 204 102
-6.000000 -0.500000 13.500000 255 204 102
-4.000000 -0.500000 13.500000 255 204 102
-6.000000 2.500000 13.500000 255 204 102
-6.500000 2.000000 13.500000 255 204 102
-6.000000 2.000000 14.000000 255 204 102
-3.500000 2.000000 13.500000 255 204 102
-4.000000 2.500000 13.500000 255 204 102
-4.500000 0.000000 6.500000 255 204 102
-3.500000 -1.000000 6.500000 255 204 102
-4.500000 -2.000000 5.500000 255 204 102
-4.000000 -2.000000 6.000000 255 204 102
-4.000000 2.500000 12.500000 255 204 102
-6.000000 2.500000 12.500000 255 204 102
-5.000000 -0.500000 8.500000 255 204 102
-4.500000 -1.000000 9.500000 255 204 102
-5.000000 -1.500000 9.500000 255 204 102
-5.500000 -1.000000 4.500000 255 204 102
-6.000000 1.500000 7.500000 255 204 102
-6.500000 3.000000 9.500000 255 204 102
-6.000000 3.500000 9.500000 255 204 102
-6.000000 -1.500000 10.500000 255 204 102
-6.000000 -0.500000 11.500000 255 204 102
-4.000000 -1.000000 6.000000 255 204 102
-4.500000 -1.000000 7.500000 255 204 102
-5.000000 -1.000000 6.000000 255 204 102
-6.500000 3.000000 11.500000 255 204 102
-6.500000 2.000000 12.500000 255 204 102
-6.500000 -1.000000 9.500000 255 204 102
-6.500000 0.000000 8.500000 255 204 102
-6.500000 1.000000 7.500000 255 204 102
-6.000000 1.500000 6.500000 255 204 102
-6.500000 1.000000 6.500000 255 204 102
-6.000000 0.500000 5.500000 255 204 102
-6.500000 -1.000000 10.500000 255 204 102
-5.500000 -1.000000 5.500000 255 204 102
-3.500000 3.000000 11.500000 255 204 102
-3.500000 2.000000 12.500000 255 204 102
-6.000000 3.500000 11.500000 255 204 102
-5.000000 1.500000 7.500000 255 204 102
-5.000000 -1.500000 10.500000 255 204 102
-5.000000 3.500000 9.500000 255 204 102
-4.500000 3.000000 9.500000 255 204 102
-5.500000 0.000000 5.500000 255 204 102
-4.500000 2.000000 10.500000 255 204 102
-3.500000 3.000000 10.500000 255 204 102
-3.500000 2.000000 11.500000 255 204 102
-6.500000 0.000000 5.500000 255 204 102
-4.500000 -1.000000 10.500000 255 204 102
-4.000000 3.500000 10.500000 255 204 102
-6.000000 -1.500000 9.500000 255 204 102
-4.500000 1.000000 7.500000 255 204 102
-4.500000 0.000000 8.500000 255 204 102
-4.000000 3.500000 11.500000 255 204 102
-6.500000 0.000000 11.500000 255 204 102
3 0 1 2
3 3 4 5
3 2 6 5
3 7 8 9
3 10 7 9
3 11 12 13
3 3 14 4
3 15 16 17
3 18 15 19
3 20 21 22
3 21 23 24
3 20 23 21
3 25 26 27
3 28 29 30
3 31 28 30
3 32 33 34
3 11 13 35
3 36 37 38
3 39 40 12
3 17 19 15
3 31 35 28
3 36 12 40
3 41 23 42
3 43 44 22
3 36 45 46
3 47 48 49
3 50 43 3
3 51 52 53
3 26 0 27
3 54 29 55
3 33 55 34
3 56 41 42
3 57 47 24
3 18 16 15
3 43 58 44
3 46 59 60
3 25 61 62
3 63 64 65
3 8 6 1
3 39 45 40
3 16 66 17
3 55 67 54
3 51 19 64
3 68 16 58
3 2 4 0
3 5 50 3
3 17 66 65
3 69 45 70
3 45 71 46
3 53 72 51
3 37 46 60
3 48 73 49
3 74 75 72
3 68 10 76
3 77 78 79
3 80 9 8
3 10 6 7
3 42 44 56
3 0 4 14
3 29 81 30
3 71 52 59
3 37 32 38
3 79 31 30
3 58 56 44
3 61 54 67
3 24 25 27
3 71 82 74
3 76 9 66
3 25 49 83
3 34 29 35
3 32 35 13
3 84 19 72
3 12 32 13
3 63 80 62
3 83 73 54
3 84 85 41
3 69 82 86
3 31 79 70
3 11 39 12
3 3 43 14
3 20 42 23
3 25 62 26
3 17 64 19
3 31 11 35
3 36 38 12
3 41 57 23
3 22 14 43
3 44 20 22
3 36 40 45
3 47 85 48
3 50 68 43
3 51 63 52
3 26 1 0
3 54 73 29
3 33 87 55
3 56 16 41
3 57 85 47
3 24 23 57
3 18 41 16
3 43 68 58
3 46 71 59
3 25 83 61
3 63 51 64
3 2 1 6
3 8 7 6
3 39 70 45
3 16 76 66
3 55 87 67
3 51 72 19
3 68 76 16
3 2 5 4
3 5 6 50
3 80 65 66
3 64 17 65
3 69 86 45
3 45 86 71
3 53 74 72
3 37 36 46
3 48 81 73
3 74 82 75
3 75 84 72
3 82 78 75
3 68 50 10
3 77 75 78
3 80 66 9
3 10 50 6
3 42 20 44
3 27 0 14
3 14 22 27
3 29 73 81
3 71 53 52
3 37 33 32
3 30 81 77
3 77 79 30
3 58 16 56
3 61 83 54
3 27 22 24
3 24 47 25
3 22 21 24
3 74 53 71
3 71 86 82
3 76 10 9
3 25 47 49
3 28 35 29
3 34 55 29
3 32 34 35
3 84 18 19
3 12 38 32
3 61 67 87
3 87 33 60
3 60 59 87
3 33 37 60
3 62 61 87
3 1 26 80
3 80 8 1
3 63 65 80
3 59 52 87
3 62 87 52
3 80 26 62
3 52 63 62
3 83 49 73
3 84 75 77
3 77 81 48
3 85 57 41
3 77 48 85
3 41 18 84
3 84 77 85
3 69 78 82
3 39 11 70
3 79 78 69
3 70 11 31
3 79 69 70
