ply
format ascii 1.0
comment Created by Blender 2.78 (sub 0) - www.blender.org, source file: ''
element vertex 88
property float x
property float y
property float z
property uchar red
property uchar green
property uchar blue
element face 172
property list uchar uint vertex_indices
end_header
-6.000000 -2.500000 4.500000 255 204 102
-6.500000 -2.000000 4.500000 255 204 102
-6.000000 -2.000000 4.000000 255 204 102
-4.500000 -2.000000 4.500000 255 204 102
-5.000000 -2.500000 4.500000 255 204 102
-5.000000 -2.000000 4.000000 255 204 102
-6.000000 -1.000000 4.000000 255 204 102
-6.000000 0.000000 4.000000 255 204 102
-6.500000 0.000000 4.500000 255 204 102
-6.000000 0.500000 4.500000 255 204 102
-5.500000 0.000000 4.500000 255 204 102
-6.500000 1.000000 6.500000 255 204 102
-6.000000 1.500000 7.500000 255 204 102
-6.000000 1.500000 6.500000 255 204 102
-6.500000 3.000000 9.500000 255 204 102
-6.000000 3.500000 9.500000 255 204 102
-5.000000 1.000000 6.000000 255 204 102
-5.000000 0.000000 6.000000 255 204 102
-6.000000 1.000000 6.000000 255 204 102
-4.500000 1.000000 6.500000 255 204 102
-5.000000 1.500000 6.500000 255 204 102
-3.500000 -2.000000 6.500000 255 204 102
-4.000000 -2.000000 7.000000 255 204 102
-4.000000 -2.500000 6.500000 255 204 102
-4.000000 -1.000000 7.000000 255 204 102
-5.000000 -2.000000 7.000000 255 204 102
-3.500000 3.000000 11.500000 255 204 102
-4.000000 2.500000 12.500000 255 204 102
-3.500000 2.000000 12.500000 255 204 102
-5.000000 -0.500000 8.500000 255 204 102
-4.500000 -1.000000 9.500000 255 204 102
-5.000000 -1.500000 9.500000 255 204 102
-4.000000 -0.500000 11.500000 255 204 102
-5.000000 -0.500000 11.500000 255 204 102
-4.000000 0.000000 11.000000 255 204 102
-3.500000 0.000000 11.500000 255 204 102
-6.000000 0.000000 14.000000 255 204 102
-6.500000 0.000000 13.500000 255 204 102
-6.000000 -0.500000 13.500000 255 204 102
-3.500000 0.000000 13.500000 255 204 102
-4.000000 0.000000 14.000000 255 204 102
-4.000000 -0.500000 13.500000 255 204 102
-6.000000 2.500000 13.500000 255 204 102
-6.500000 2.000000 13.500000 255 204 102
-6.000000 2.000000 14.000000 255 204 102
-3.500000 2.000000 13.500000 255 204 102
-4.000000 2.500000 13.500000 255 204 102
-4.000000 2.000000 14.000000 255 204 102
-6.000000 2.500000 12.500000 255 204 102
-4.000000 3.500000 11.500000 255 204 102
-6.000000 3.500000 11.500000 255 204 102
-4.500000 2.000000 10.500000 255 204 102
-3.500000 3.000000 10.500000 255 204 102
-3.500000 2.000000 11.500000 255 204 102
-4.000000 -1.000000 6.000000 255 204 102
-4.500000 0.000000 6.500000 255 204 102
-3.500000 -1.000000 6.500000 255 204 102
-5.000000 3.500000 9.500000 255 204 102
-5.000000 1.500000 7.500000 255 204 102
-6.000000 -1.500000 9.500000 255 204 102
-5.500000 -1.000000 4.500000 255 204 102
-6.500000 -1.000000 10.500000 255 204 102
-6.000000 -1.500000 10.500000 255 204 102
-4.500000 -1.000000 7.500000 255 204 102
-6.000000 -0.500000 11.500000 255 204 102
-5.000000 -2.500000 5.500000 255 204 102
-4.000000 -2.000000 6.000000 255 204 102
-4.500000 -1.000000 10.500000 255 204 102
-6.000000 -0.500000 8.500000 255 204 102
-6.500000 -2.000000 6.500000 255 204 102
-6.000000 -2.500000 6.500000 255 204 102
-4.500000 -2.000000 5.500000 255 204 102
-5.000000 -1.000000 6.000000 255 204 102
-6.500000 3.000000 11.500000 255 204 102
-6.500000 2.000000 12.500000 255 204 102
-4.000000 3.500000 10.500000 255 204 102
-6.000000 0.500000 5.500000 255 204 102
-6.500000 -1.000000 9.500000 255 204 102
-6.500000 0.000000 8.500000 255 204 102
-5.000000 -1.500000 10.500000 255 204 102
-6.500000 0.000000 5.500000 255 204 102
-5.500000 -1.000000 5.500000 255 204 102
-5.500000 0.000000 5.500000 255 204 102
-6.500000 1.000000 7.500000 255 204 102
-6.500000 0.000000 11.500000 255 204 102
-4.500000 3.000000 9.500000 255 204 102
-4.500000 0.000000 8.500000 255 204 102
-4.500000 1.000000 7.500000 255 204 102
3 0 1 2
3 3 4 5
3 2 6 5
3 7 8 9
3 10 7 9
3 11 12 13
3 12 14 15
3 16 17 18
3 19 16 20
3 21 22 23
3 22 24 25
3 26 27 28
3 29 30 31
3 32 33 34
3 35 32 34
3 36 37 38
3 39 40 41
3 42 43 44
3 45 46 47
3 48 49 50
3 32 39 41
3 51 52 53
3 54 55 56
3 16 55 17
3 12 57 58
3 59 29 31
3 7 60 6
3 61 59 62
3 16 13 20
3 25 63 29
3 64 61 62
3 53 34 51
3 46 44 47
3 65 66 23
3 40 38 41
3 33 67 34
3 68 69 70
3 71 72 66
3 48 73 74
3 40 45 47
3 49 52 75
3 54 21 66
3 70 25 68
3 4 71 65
3 48 46 27
3 17 76 18
3 68 77 78
3 64 33 38
3 76 10 9
3 22 56 24
3 46 28 27
3 5 60 3
3 69 0 70
3 31 67 79
3 74 42 48
3 8 76 9
3 7 6 8
3 76 80 11
3 62 31 79
3 75 57 50
3 44 37 36
3 3 81 71
3 64 79 33
3 72 82 17
3 13 58 20
3 28 35 53
3 83 78 14
3 82 60 10
3 38 84 64
3 40 44 36
3 55 24 56
3 2 4 0
3 58 19 20
3 0 4 65
3 85 75 52
3 67 86 51
3 72 54 66
3 73 15 14
3 11 83 12
3 12 83 14
3 26 49 27
3 29 86 30
3 48 27 49
3 32 35 39
3 51 85 52
3 54 17 55
3 16 19 55
3 12 15 57
3 59 68 29
3 7 10 60
3 61 77 59
3 16 18 13
3 25 24 63
3 63 86 29
3 64 84 61
3 67 51 34
3 53 35 34
3 46 42 44
3 21 23 66
3 65 71 66
3 40 36 38
3 33 79 67
3 68 78 69
3 71 81 72
3 48 50 73
3 40 39 45
3 49 26 52
3 54 56 21
3 70 23 25
3 25 29 68
3 23 22 25
3 4 3 71
3 48 42 46
3 17 82 76
3 68 59 77
3 41 38 33
3 33 32 41
3 76 82 10
3 22 21 56
3 46 45 28
3 5 6 60
3 69 1 0
3 31 30 67
3 74 43 42
3 8 80 76
3 1 8 6
3 6 2 1
3 11 13 18
3 18 76 11
3 62 59 31
3 15 50 57
3 49 75 50
3 44 43 37
3 3 60 81
3 64 62 79
3 72 81 82
3 13 12 58
3 52 26 53
3 28 45 39
3 39 35 28
3 53 26 28
3 73 14 84
3 83 11 80
3 80 8 1
3 1 69 80
3 78 77 61
3 84 37 74
3 78 61 84
3 80 69 78
3 74 73 84
3 83 80 78
3 78 84 14
3 43 74 37
3 82 81 60
3 38 37 84
3 40 47 44
3 55 63 24
3 2 5 4
3 58 87 19
3 70 0 65
3 65 23 70
3 85 87 58
3 57 75 85
3 85 58 57
3 85 51 86
3 67 30 86
3 86 63 55
3 55 19 87
3 87 85 86
3 86 55 87
3 72 17 54
3 73 50 15
