ply
format ascii 1.0
comment Created by Blender 2.78 (sub 0) - www.blender.org, source file: ''
element vertex 114
property float x
property float y
property float z
property uchar red
property uchar green
property uchar blue
element face 202
property list uchar uint vertex_indices
end_header
-1.000000 -1.500000 4.500000 0 255 51
-1.500000 -1.000000 4.500000 0 255 51
-1.000000 -1.000000 4.000000 0 255 51
1.500000 -1.000000 4.500000 0 255 51
1.000000 -1.500000 4.500000 0 255 51
1.000000 -1.000000 4.000000 0 255 51
-1.000000 2.000000 5.000000 0 255 51
-1.500000 2.000000 5.500000 0 255 51
-1.000000 2.500000 5.500000 0 255 51
1.500000 2.000000 5.500000 0 255 51
1.000000 2.000000 5.000000 0 255 51
1.000000 2.500000 5.500000 0 255 51
-1.000000 -1.000000 6.000000 0 255 51
-1.500000 -1.000000 5.500000 0 255 51
-1.000000 -1.500000 5.500000 0 255 51
1.500000 -1.000000 5.500000 0 255 51
1.000000 -1.000000 6.000000 0 255 51
1.000000 -1.500000 5.500000 0 255 51
1.750000 0.500000 5.750000 255 51 51
1.750000 1.000000 5.750000 255 51 51
2.000000 1.000000 6.000000 255 51 51
2.000000 0.500000 6.500000 255 51 51
1.000000 0.500000 6.500000 255 51 51
2.500000 1.000000 6.500000 255 51 51
-1.500000 1.000000 5.500000 0 255 51
-1.000000 2.000000 6.000000 0 255 51
1.000000 2.000000 6.000000 0 255 51
1.500000 1.000000 5.500000 0 255 51
-2.500000 2.000000 9.500000 255 51 51
-2.500000 1.000000 8.500000 255 51 51
-2.500000 0.000000 9.500000 255 51 51
1.000000 -0.500000 10.500000 255 51 51
1.000000 -1.500000 11.500000 255 51 51
0.000000 -0.500000 11.500000 255 51 51
-1.000000 -1.500000 11.500000 255 51 51
-1.000000 -0.500000 10.500000 255 51 51
-3.000000 -1.000000 14.000000 255 51 51
-3.500000 -1.000000 13.500000 255 51 51
-3.000000 -1.500000 13.500000 255 51 51
3.500000 -1.000000 13.500000 255 51 51
3.000000 -1.000000 14.000000 255 51 51
3.000000 -1.500000 13.500000 255 51 51
2.500000 1.000000 8.500000 255 51 51
2.500000 2.000000 9.500000 255 51 51
2.500000 0.000000 9.500000 255 51 51
-3.000000 3.500000 13.500000 255 51 51
-3.500000 3.000000 13.500000 255 51 51
-3.000000 3.000000 14.000000 255 51 51
3.500000 3.000000 13.500000 255 51 51
3.000000 3.500000 13.500000 255 51 51
3.000000 3.000000 14.000000 255 51 51
1.000000 1.000000 5.000000 0 255 51
-1.000000 1.000000 5.000000 0 255 51
1.500000 1.500000 6.000000 0 255 51
-2.000000 1.500000 6.500000 255 51 51
-2.000000 1.500000 8.500000 255 51 51
2.000000 2.500000 9.500000 255 51 51
-2.000000 2.500000 9.500000 255 51 51
1.500000 0.000000 5.500000 0 255 51
1.000000 0.000000 6.000000 0 255 51
-1.000000 0.000000 6.000000 0 255 51
1.500000 0.500000 6.000000 255 51 51
-3.500000 2.000000 10.500000 255 51 51
-3.500000 0.000000 10.500000 255 51 51
3.500000 3.000000 11.500000 255 51 51
3.000000 2.500000 10.500000 255 51 51
1.000000 0.000000 4.000000 0 255 51
2.000000 -0.500000 9.500000 255 51 51
2.000000 0.500000 8.500000 255 51 51
-1.500000 0.000000 4.500000 0 255 51
-1.000000 0.000000 4.000000 0 255 51
0.000000 -0.500000 13.500000 255 51 51
-2.000000 -0.500000 9.500000 255 51 51
1.000000 -1.000000 14.000000 255 51 51
1.000000 -1.500000 13.500000 255 51 51
-3.000000 -1.500000 11.500000 255 51 51
-3.000000 -0.500000 10.500000 255 51 51
2.000000 1.500000 6.500000 255 51 51
2.000000 1.500000 8.500000 255 51 51
-1.000000 -1.500000 13.500000 255 51 51
-1.000000 -1.000000 14.000000 255 51 51
1.500000 1.750000 6.250000 255 51 51
-1.500000 1.750000 6.250000 255 51 51
-2.000000 0.500000 6.500000 255 51 51
-2.000000 0.500000 8.500000 255 51 51
3.000000 -1.500000 11.500000 255 51 51
3.500000 0.000000 10.500000 255 51 51
3.500000 2.000000 10.500000 255 51 51
-1.500000 0.250000 6.250000 0 255 51
-1.500000 0.500000 6.000000 0 255 51
-3.500000 3.000000 11.500000 255 51 51
-3.000000 3.500000 11.500000 255 51 51
-1.500000 0.500000 6.000000 255 51 51
-1.750000 1.000000 5.750000 255 51 51
1.500000 0.000000 4.500000 0 255 51
1.000000 0.250000 6.250000 0 255 51
-1.500000 0.250000 6.250000 255 51 51
0.000000 0.000000 14.000000 255 51 51
1.500000 0.500000 6.000000 0 255 51
-1.500000 1.500000 6.000000 0 255 51
-1.750000 1.000000 5.750000 0 255 51
-1.500000 1.500000 6.000000 255 51 51
1.750000 0.500000 5.750000 0 255 51
1.750000 1.000000 5.750000 0 255 51
3.000000 3.500000 11.500000 255 51 51
-3.000000 2.500000 10.500000 255 51 51
1.500000 1.500000 6.000000 255 51 51
-3.500000 -1.000000 11.500000 255 51 51
1.500000 1.750000 6.250000 0 255 51
-2.500000 1.000000 6.500000 255 51 51
1.000000 0.250000 6.250000 255 51 51
3.000000 -0.500000 10.500000 255 51 51
3.500000 -1.000000 11.500000 255 51 51
-1.500000 1.750000 6.250000 0 255 51
3 0 1 2
3 3 4 5
3 6 7 8
3 9 10 11
3 12 13 14
3 15 16 17
3 18 19 20
3 21 22 20
3 23 21 20
3 7 24 25
3 9 26 27
3 8 7 25
3 9 11 26
3 28 29 30
3 31 32 33
3 34 35 33
3 36 37 38
3 39 40 41
3 42 43 44
3 45 46 47
3 48 49 50
3 6 51 52
3 26 53 27
3 54 29 55
3 56 55 57
3 16 58 59
3 60 16 59
3 17 12 14
3 22 61 20
3 62 30 63
3 64 49 48
3 10 27 51
3 57 65 56
3 66 3 5
3 44 67 68
3 69 52 70
3 32 71 33
3 72 68 67
3 21 42 68
3 73 71 74
3 10 8 11
3 37 75 38
3 76 30 72
3 77 55 78
3 75 79 38
3 34 76 35
3 71 80 79
3 54 81 82
3 51 70 52
3 29 83 84
3 85 39 41
3 86 43 87
3 67 31 35
3 71 34 33
3 41 73 74
3 24 6 52
3 60 88 89
3 90 45 91
3 47 49 45
3 4 14 0
3 92 83 93
3 94 51 27
3 31 85 32
3 4 15 17
3 46 36 47
3 74 85 41
3 94 58 15
3 2 66 5
3 60 95 88
3 60 13 12
3 23 78 42
3 36 79 80
3 96 22 83
3 14 1 0
3 47 36 97
3 58 98 59
3 99 24 100
3 93 54 101
3 102 27 103
3 69 13 24
3 91 49 104
3 68 84 22
3 39 50 40
3 105 62 90
3 1 70 2
3 64 39 86
3 106 77 20
3 107 46 62
3 0 5 4
3 43 65 87
3 25 26 8
3 65 91 104
3 6 10 51
3 26 108 53
3 53 103 27
3 54 109 29
3 56 78 55
3 16 15 58
3 60 12 16
3 17 16 12
3 18 20 61
3 22 110 61
3 62 28 30
3 64 104 49
3 10 9 27
3 57 105 65
3 66 94 3
3 44 86 111
3 112 85 111
3 111 67 44
3 68 42 44
3 86 112 111
3 69 24 52
3 32 74 71
3 72 84 68
3 21 23 42
3 73 97 71
3 10 6 8
3 37 107 75
3 76 75 107
3 107 63 76
3 30 29 84
3 84 72 30
3 76 63 30
3 77 54 55
3 75 34 79
3 34 75 76
3 71 97 80
3 54 77 81
3 51 66 70
3 29 109 83
3 85 112 39
3 86 44 43
3 76 72 35
3 67 111 31
3 31 33 35
3 35 72 67
3 71 79 34
3 41 40 73
3 24 7 6
3 89 100 24
3 24 60 89
3 90 46 45
3 47 50 49
3 4 17 14
3 109 93 83
3 92 96 83
3 94 66 51
3 31 111 85
3 4 3 15
3 46 37 36
3 74 32 85
3 15 3 94
3 94 27 58
3 2 70 66
3 60 59 95
3 60 24 13
3 23 77 78
3 36 38 79
3 96 110 22
3 14 13 1
3 73 40 50
3 50 47 97
3 36 80 97
3 97 73 50
3 95 59 98
3 58 102 98
3 99 113 25
3 25 24 99
3 82 101 54
3 93 109 54
3 102 58 27
3 69 1 13
3 91 45 49
3 83 22 84
3 21 68 22
3 39 48 50
3 105 57 28
3 55 29 28
3 28 62 105
3 90 91 105
3 57 55 28
3 1 69 70
3 86 87 64
3 64 48 39
3 39 112 86
3 23 20 77
3 19 106 20
3 81 77 106
3 62 63 107
3 107 37 46
3 46 90 62
3 0 2 5
3 64 87 65
3 43 42 78
3 78 56 43
3 65 104 64
3 43 56 65
3 25 113 108
3 26 11 8
3 25 108 26
3 65 105 91
