ply
format ascii 1.0
comment Created by Blender 2.78 (sub 0) - www.blender.org, source file: ''
element vertex 114
property float x
property float y
property float z
property uchar red
property uchar green
property uchar blue
element face 202
property list uchar uint vertex_indices
end_header
-1.000000 -1.500000 4.500000 0 255 51
-1.500000 -1.000000 4.500000 0 255 51
-1.000000 -1.000000 4.000000 0 255 51
1.500000 -1.000000 4.500000 0 255 51
1.000000 -1.500000 4.500000 0 255 51
1.000000 -1.000000 4.000000 0 255 51
-1.000000 2.000000 5.000000 0 255 51
-1.500000 2.000000 5.500000 0 255 51
-1.000000 2.500000 5.500000 0 255 51
1.500000 2.000000 5.500000 0 255 51
1.000000 2.000000 5.000000 0 255 51
1.000000 2.500000 5.500000 0 255 51
-1.000000 -1.000000 6.000000 0 255 51
-1.500000 -1.000000 5.500000 0 255 51
-1.000000 -1.500000 5.500000 0 255 51
1.500000 -1.000000 5.500000 0 255 51
1.000000 -1.000000 6.000000 0 255 51
1.000000 -1.500000 5.500000 0 255 51
1.750000 0.500000 5.750000 255 51 51
1.750000 1.000000 5.750000 255 51 51
2.000000 1.000000 6.000000 255 51 51
2.000000 0.500000 6.500000 255 51 51
1.000000 0.500000 6.500000 255 51 51
2.500000 1.000000 6.500000 255 51 51
-1.500000 1.000000 5.500000 0 255 51
-1.000000 2.000000 6.000000 0 255 51
1.000000 2.000000 6.000000 0 255 51
1.500000 1.000000 5.500000 0 255 51
-2.500000 2.000000 9.500000 255 51 51
-2.500000 1.000000 8.500000 255 51 51
-2.500000 0.000000 9.500000 255 51 51
1.000000 -0.500000 10.500000 255 51 51
1.000000 -1.500000 11.500000 255 51 51
0.000000 -0.500000 11.500000 255 51 51
-1.000000 -1.500000 11.500000 255 51 51
-1.000000 -0.500000 10.500000 255 51 51
-3.000000 -1.000000 14.000000 255 51 51
-3.500000 -1.000000 13.500000 255 51 51
-3.000000 -1.500000 13.500000 255 51 51
3.500000 -1.000000 13.500000 255 51 51
3.000000 -1.000000 14.000000 255 51 51
3.000000 -1.500000 13.500000 255 51 51
2.500000 1.000000 8.500000 255 51 51
2.500000 2.000000 9.500000 255 51 51
2.500000 0.000000 9.500000 255 51 51
-3.000000 3.500000 13.500000 255 51 51
-3.500000 3.000000 13.500000 255 51 51
-3.000000 3.000000 14.000000 255 51 51
3.500000 3.000000 13.500000 255 51 51
3.000000 3.500000 13.500000 255 51 51
3.000000 3.000000 14.000000 255 51 51
1.000000 0.000000 6.000000 0 255 51
-3.000000 2.500000 10.500000 255 51 51
3.000000 3.500000 11.500000 255 51 51
3.000000 2.500000 10.500000 255 51 51
1.500000 1.500000 6.000000 0 255 51
2.000000 2.500000 9.500000 255 51 51
-2.000000 0.500000 8.500000 255 51 51
-2.000000 0.500000 6.500000 255 51 51
1.000000 -1.500000 13.500000 255 51 51
1.500000 0.000000 4.500000 0 255 51
1.500000 0.000000 5.500000 0 255 51
-2.500000 1.000000 6.500000 255 51 51
-3.500000 0.000000 10.500000 255 51 51
-3.500000 2.000000 10.500000 255 51 51
-2.000000 1.500000 8.500000 255 51 51
-2.000000 1.500000 6.500000 255 51 51
-1.000000 -1.500000 13.500000 255 51 51
0.000000 -0.500000 13.500000 255 51 51
-1.000000 1.000000 5.000000 0 255 51
1.000000 1.000000 5.000000 0 255 51
-3.500000 -1.000000 11.500000 255 51 51
2.000000 1.500000 6.500000 255 51 51
1.500000 0.500000 6.000000 0 255 51
2.000000 0.500000 8.500000 255 51 51
-1.000000 0.000000 6.000000 0 255 51
-1.500000 0.500000 6.000000 0 255 51
-1.750000 1.000000 5.750000 0 255 51
-1.500000 1.500000 6.000000 0 255 51
1.000000 -1.000000 14.000000 255 51 51
3.500000 -1.000000 11.500000 255 51 51
3.500000 2.000000 10.500000 255 51 51
-1.500000 0.000000 4.500000 0 255 51
-1.000000 0.000000 4.000000 0 255 51
3.000000 -1.500000 11.500000 255 51 51
3.500000 3.000000 11.500000 255 51 51
1.750000 0.500000 5.750000 0 255 51
1.750000 1.000000 5.750000 0 255 51
-2.000000 2.500000 9.500000 255 51 51
-3.000000 3.500000 11.500000 255 51 51
-3.500000 3.000000 11.500000 255 51 51
-3.000000 -1.500000 11.500000 255 51 51
-1.000000 -1.000000 14.000000 255 51 51
1.000000 0.000000 4.000000 0 255 51
0.000000 0.000000 14.000000 255 51 51
2.000000 -0.500000 9.500000 255 51 51
-2.000000 -0.500000 9.500000 255 51 51
3.000000 -0.500000 10.500000 255 51 51
-3.000000 -0.500000 10.500000 255 51 51
2.000000 1.500000 8.500000 255 51 51
-1.500000 0.250000 6.250000 255 51 51
1.500000 0.500000 6.000000 255 51 51
1.000000 0.250000 6.250000 255 51 51
1.500000 1.500000 6.000000 255 51 51
1.000000 0.250000 6.250000 0 255 51
-1.500000 0.250000 6.250000 0 255 51
-1.500000 1.750000 6.250000 255 51 51
3.500000 0.000000 10.500000 255 51 51
-1.500000 0.500000 6.000000 255 51 51
-1.500000 1.500000 6.000000 255 51 51
1.500000 1.750000 6.250000 0 255 51
-1.500000 1.750000 6.250000 0 255 51
1.500000 1.750000 6.250000 255 51 51
-1.750000 1.000000 5.750000 255 51 51
3 0 1 2
3 3 4 5
3 6 7 8
3 9 10 11
3 12 13 14
3 15 16 17
3 18 19 20
3 21 22 20
3 23 21 20
3 7 24 25
3 9 26 27
3 8 7 25
3 9 11 26
3 28 29 30
3 31 32 33
3 34 35 33
3 36 37 38
3 39 40 41
3 42 43 44
3 45 46 47
3 48 49 50
3 15 51 16
3 52 53 54
3 55 27 26
3 43 56 54
3 16 14 17
3 57 58 22
3 59 33 32
3 60 27 61
3 62 57 29
3 0 5 4
3 28 63 64
3 62 65 66
3 67 33 68
3 7 69 24
3 9 70 10
3 71 38 37
3 72 42 23
3 73 51 61
3 23 74 21
3 75 76 24
3 24 77 78
3 79 68 59
3 48 80 81
3 82 69 83
3 14 1 0
3 80 41 84
3 40 59 41
3 82 13 24
3 53 48 85
3 86 27 87
3 52 56 88
3 46 89 90
3 91 35 34
3 45 53 89
3 38 92 36
3 93 69 70
3 60 5 93
3 47 94 50
3 57 95 96
3 60 70 27
3 88 65 28
3 68 92 67
3 31 95 97
3 34 38 91
3 98 63 30
3 82 2 1
3 99 88 56
3 48 40 39
3 3 17 4
3 75 13 12
3 100 22 58
3 10 69 6
3 4 14 0
3 83 5 2
3 97 32 31
3 32 41 59
3 101 22 102
3 72 20 103
3 6 11 10
3 37 47 46
3 90 63 37
3 75 104 105
3 12 51 75
3 72 106 66
3 66 99 72
3 26 8 25
3 44 81 107
3 44 95 74
3 108 100 58
3 66 106 109
3 50 45 47
3 15 61 51
3 52 89 53
3 55 87 27
3 26 110 55
3 53 85 54
3 43 42 99
3 54 85 81
3 99 56 43
3 54 81 43
3 16 12 14
3 22 21 74
3 74 57 22
3 59 68 33
3 61 15 3
3 3 60 61
3 62 58 57
3 0 2 5
3 28 30 63
3 62 29 65
3 67 34 33
3 7 6 69
3 9 27 70
3 71 91 38
3 72 99 42
3 61 86 73
3 73 104 51
3 23 42 74
3 77 24 76
3 75 105 76
3 25 24 78
3 78 111 25
3 79 94 68
3 81 85 48
3 48 39 80
3 80 107 81
3 82 24 69
3 14 13 1
3 80 39 41
3 40 79 59
3 82 1 13
3 53 49 48
3 86 61 27
3 52 54 56
3 46 45 89
3 91 98 35
3 45 49 53
3 38 67 92
3 93 83 69
3 60 3 5
3 40 50 94
3 47 36 92
3 94 79 40
3 47 92 94
3 57 74 95
3 60 93 70
3 28 64 52
3 90 89 52
3 52 88 28
3 65 29 28
3 64 90 52
3 68 94 92
3 31 33 35
3 35 98 96
3 96 95 31
3 31 35 96
3 34 67 38
3 29 57 30
3 98 91 71
3 30 57 96
3 71 63 98
3 30 96 98
3 82 83 2
3 99 65 88
3 48 50 40
3 3 15 17
3 75 24 13
3 100 102 22
3 10 70 69
3 4 17 14
3 83 93 5
3 97 84 32
3 32 84 41
3 101 18 20
3 20 22 101
3 103 112 72
3 72 23 20
3 20 19 103
3 6 8 11
3 37 36 47
3 37 46 90
3 90 64 63
3 63 71 37
3 75 51 104
3 12 16 51
3 72 112 106
3 66 65 99
3 111 110 26
3 26 11 8
3 25 111 26
3 44 43 81
3 44 107 97
3 80 84 97
3 97 95 44
3 74 42 44
3 107 80 97
3 58 62 113
3 113 108 58
3 109 113 66
3 62 66 113
3 50 49 45
