ply
format ascii 1.0
comment Created by Blender 2.78 (sub 0) - www.blender.org, source file: ''
element vertex 114
property float x
property float y
property float z
property uchar red
property uchar green
property uchar blue
element face 202
property list uchar uint vertex_indices
end_header
-1.000000 -1.500000 4.500000 0 255 51
-1.500000 -1.000000 4.500000 0 255 51
-1.000000 -1.000000 4.000000 0 255 51
1.500000 -1.000000 4.500000 0 255 51
1.000000 -1.500000 4.500000 0 255 51
1.000000 -1.000000 4.000000 0 255 51
-1.000000 2.000000 5.000000 0 255 51
-1.500000 2.000000 5.500000 0 255 51
-1.000000 2.500000 5.500000 0 255 51
1.500000 2.000000 5.500000 0 255 51
1.000000 2.000000 5.000000 0 255 51
1.000000 2.500000 5.500000 0 255 51
-1.000000 -1.000000 6.000000 0 255 51
-1.500000 -1.000000 5.500000 0 255 51
-1.000000 -1.500000 5.500000 0 255 51
1.500000 -1.000000 5.500000 0 255 51
1.000000 -1.000000 6.000000 0 255 51
1.000000 -1.500000 5.500000 0 255 51
1.750000 0.500000 5.750000 255 51 51
1.750000 1.000000 5.750000 255 51 51
2.000000 1.000000 6.000000 255 51 51
2.000000 0.500000 6.500000 255 51 51
1.000000 0.500000 6.500000 255 51 51
2.500000 1.000000 6.500000 255 51 51
-1.500000 1.000000 5.500000 0 255 51
-1.000000 2.000000 6.000000 0 255 51
1.000000 2.000000 6.000000 0 255 51
1.500000 1.000000 5.500000 0 255 51
-2.500000 2.000000 9.500000 255 51 51
-2.500000 1.000000 8.500000 255 51 51
-2.500000 0.000000 9.500000 255 51 51
1.000000 -0.500000 10.500000 255 51 51
1.000000 -1.500000 11.500000 255 51 51
0.000000 -0.500000 11.500000 255 51 51
-1.000000 -1.500000 11.500000 255 51 51
-1.000000 -0.500000 10.500000 255 51 51
-3.000000 -1.000000 14.000000 255 51 51
-3.500000 -1.000000 13.500000 255 51 51
-3.000000 -1.500000 13.500000 255 51 51
3.500000 -1.000000 13.500000 255 51 51
3.000000 -1.000000 14.000000 255 51 51
3.000000 -1.500000 13.500000 255 51 51
2.500000 1.000000 8.500000 255 51 51
2.500000 2.000000 9.500000 255 51 51
2.500000 0.000000 9.500000 255 51 51
-3.000000 3.500000 13.500000 255 51 51
-3.500000 3.000000 13.500000 255 51 51
-3.000000 3.000000 14.000000 255 51 51
3.500000 3.000000 13.500000 255 51 51
3.000000 3.500000 13.500000 255 51 51
3.000000 3.000000 14.000000 255 51 51
1.500000 1.500000 6.000000 0 255 51
2.000000 1.500000 8.500000 255 51 51
1.500000 0.000000 4.500000 0 255 51
1.500000 0.000000 5.500000 0 255 51
-1.000000 0.000000 6.000000 0 255 51
1.000000 0.000000 6.000000 0 255 51
-3.500000 3.000000 11.500000 255 51 51
-3.000000 3.500000 11.500000 255 51 51
-3.000000 -0.500000 10.500000 255 51 51
-1.000000 1.000000 5.000000 0 255 51
1.000000 -1.000000 14.000000 255 51 51
1.000000 -1.500000 13.500000 255 51 51
3.000000 -1.500000 11.500000 255 51 51
-2.000000 1.500000 6.500000 255 51 51
-2.000000 1.500000 8.500000 255 51 51
-1.500000 0.500000 6.000000 0 255 51
1.000000 1.000000 5.000000 0 255 51
-3.000000 -1.500000 11.500000 255 51 51
-1.000000 -1.500000 13.500000 255 51 51
0.000000 -0.500000 13.500000 255 51 51
-1.000000 -1.000000 14.000000 255 51 51
2.000000 2.500000 9.500000 255 51 51
-2.000000 2.500000 9.500000 255 51 51
2.000000 1.500000 6.500000 255 51 51
-1.750000 1.000000 5.750000 0 255 51
-1.500000 1.500000 6.000000 0 255 51
-2.000000 0.500000 8.500000 255 51 51
2.000000 0.500000 8.500000 255 51 51
-3.500000 2.000000 10.500000 255 51 51
-3.500000 0.000000 10.500000 255 51 51
1.500000 0.500000 6.000000 0 255 51
-3.500000 -1.000000 11.500000 255 51 51
-1.000000 0.000000 4.000000 0 255 51
1.500000 1.750000 6.250000 255 51 51
-1.500000 1.750000 6.250000 255 51 51
-2.000000 0.500000 6.500000 255 51 51
-1.750000 1.000000 5.750000 255 51 51
-1.500000 0.500000 6.000000 255 51 51
1.000000 0.250000 6.250000 255 51 51
1.500000 0.500000 6.000000 255 51 51
1.000000 0.250000 6.250000 0 255 51
-1.500000 0.250000 6.250000 0 255 51
3.000000 3.500000 11.500000 255 51 51
-2.000000 -0.500000 9.500000 255 51 51
2.000000 -0.500000 9.500000 255 51 51
3.000000 2.500000 10.500000 255 51 51
3.500000 3.000000 11.500000 255 51 51
3.500000 0.000000 10.500000 255 51 51
3.000000 -0.500000 10.500000 255 51 51
3.500000 2.000000 10.500000 255 51 51
-1.500000 0.000000 4.500000 0 255 51
1.000000 0.000000 4.000000 0 255 51
1.750000 0.500000 5.750000 0 255 51
1.750000 1.000000 5.750000 0 255 51
1.500000 1.500000 6.000000 255 51 51
-1.500000 1.500000 6.000000 255 51 51
-1.500000 0.250000 6.250000 255 51 51
1.500000 1.750000 6.250000 0 255 51
-1.500000 1.750000 6.250000 0 255 51
-2.500000 1.000000 6.500000 255 51 51
3.500000 -1.000000 11.500000 255 51 51
0.000000 0.000000 14.000000 255 51 51
-3.000000 2.500000 10.500000 255 51 51
3 0 1 2
3 3 4 5
3 6 7 8
3 9 10 11
3 12 13 14
3 15 16 17
3 18 19 20
3 21 22 20
3 23 21 20
3 7 24 25
3 9 26 27
3 8 7 25
3 9 11 26
3 28 29 30
3 31 32 33
3 34 35 33
3 36 37 38
3 39 40 41
3 42 43 44
3 45 46 47
3 48 49 50
3 51 27 26
3 25 26 8
3 23 52 42
3 47 49 45
3 53 54 15
3 55 16 56
3 57 45 58
3 34 59 35
3 10 8 11
3 24 6 60
3 41 61 62
3 0 13 1
3 31 63 32
3 64 29 65
3 63 39 41
3 55 66 24
3 53 67 27
3 68 69 38
3 70 71 69
3 10 27 67
3 72 65 73
3 16 54 56
3 74 65 52
3 24 75 76
3 32 70 33
3 77 22 78
3 79 30 80
3 62 63 41
3 39 50 40
3 21 42 78
3 37 68 38
3 54 81 56
3 82 46 79
3 67 83 60
3 64 84 85
3 29 86 77
3 86 87 88
3 55 13 12
3 89 90 22
3 55 91 92
3 58 49 93
3 36 69 71
3 70 34 33
3 94 78 95
3 96 58 93
3 97 39 98
3 0 17 14
3 31 95 99
3 4 15 17
3 6 67 60
3 73 96 72
3 43 96 100
3 97 49 48
3 101 13 24
3 101 60 83
3 2 102 5
3 5 0 2
3 95 78 44
3 103 27 104
3 61 70 62
3 61 40 50
3 59 30 94
3 17 12 14
3 1 83 2
3 73 65 28
3 20 105 74
3 46 36 47
3 64 85 106
3 98 43 100
3 102 3 5
3 107 22 86
3 51 104 27
3 26 108 51
3 25 109 108
3 26 11 8
3 25 108 26
3 23 74 52
3 47 50 49
3 15 3 53
3 53 27 54
3 55 12 16
3 57 46 45
3 34 68 59
3 10 6 8
3 24 7 6
3 41 40 61
3 0 14 13
3 31 99 63
3 64 110 29
3 63 111 39
3 75 24 66
3 55 92 66
3 53 102 67
3 68 34 69
3 70 112 71
3 10 9 27
3 72 52 65
3 16 15 54
3 74 64 65
3 25 24 76
3 76 109 25
3 32 62 70
3 21 78 22
3 77 86 22
3 79 28 30
3 62 32 63
3 39 48 50
3 21 23 42
3 37 82 68
3 91 56 81
3 54 103 81
3 79 80 82
3 82 37 46
3 46 57 79
3 67 102 83
3 64 74 84
3 29 110 86
3 88 107 86
3 86 110 87
3 55 24 13
3 20 22 90
3 90 18 20
3 55 56 91
3 58 45 49
3 36 38 69
3 70 69 34
3 94 77 78
3 96 113 58
3 98 100 97
3 97 48 39
3 39 111 98
3 0 4 17
3 31 33 35
3 35 59 94
3 94 95 31
3 31 35 94
3 4 3 15
3 6 10 67
3 73 113 96
3 97 100 96
3 43 42 52
3 52 72 43
3 96 93 97
3 43 72 96
3 97 93 49
3 101 1 13
3 101 24 60
3 2 83 102
3 5 4 0
3 98 111 99
3 99 95 44
3 111 63 99
3 78 42 44
3 44 98 99
3 103 54 27
3 61 112 70
3 50 47 112
3 36 71 112
3 112 61 50
3 47 36 112
3 77 94 30
3 59 68 82
3 82 80 59
3 30 29 77
3 59 80 30
3 17 16 12
3 1 101 83
3 28 79 113
3 57 58 113
3 113 73 28
3 65 29 28
3 79 57 113
3 84 74 105
3 23 20 74
3 19 105 20
3 46 37 36
3 106 87 64
3 110 64 87
3 98 44 43
3 102 53 3
3 107 89 22
