ply
format ascii 1.0
comment Created by Blender 2.78 (sub 0) - www.blender.org, source file: ''
element vertex 64
property float x
property float y
property float z
property uchar red
property uchar green
property uchar blue
element face 124
property list uchar uint vertex_indices
end_header
-3.500000 6.000000 1.500000 51 0 102
-4.000000 6.500000 1.500000 51 0 102
-3.500000 6.500000 1.000000 51 0 102
2.500000 6.000000 3.500000 51 0 102
-3.500000 5.000000 4.500000 51 0 102
-3.500000 6.000000 3.500000 51 0 102
3.000000 6.500000 1.500000 51 0 102
2.500000 6.000000 1.500000 51 0 102
2.500000 6.500000 1.000000 51 0 102
-3.500000 7.000000 1.500000 51 0 102
2.500000 7.000000 1.500000 51 0 102
-3.500000 6.000000 8.500000 51 0 102
-3.500000 6.000000 5.500000 51 0 102
-4.000000 5.500000 7.500000 51 0 102
2.500000 7.000000 4.500000 51 0 102
2.500000 6.000000 5.500000 51 0 102
-3.500000 3.000000 13.500000 51 0 102
2.500000 3.000000 11.500000 51 0 102
2.500000 3.000000 13.500000 51 0 102
3.000000 5.500000 7.500000 51 0 102
3.000000 5.500000 5.500000 51 0 102
-3.500000 5.000000 11.500000 51 0 102
2.500000 5.000000 9.500000 51 0 102
-3.500000 5.000000 9.500000 51 0 102
-3.500000 5.000000 7.500000 51 0 102
-4.000000 4.500000 8.500000 51 0 102
-4.000000 5.500000 5.500000 51 0 102
3.000000 4.500000 11.500000 51 0 102
3.000000 3.500000 11.500000 51 0 102
3.000000 4.500000 10.500000 51 0 102
-3.500000 3.500000 14.000000 51 0 102
2.500000 4.000000 13.500000 51 0 102
-3.500000 4.000000 13.500000 51 0 102
-3.500000 4.000000 10.500000 51 0 102
-3.500000 3.000000 11.500000 51 0 102
3.000000 3.500000 13.500000 51 0 102
2.500000 4.000000 12.500000 51 0 102
-4.000000 5.500000 8.500000 51 0 102
2.500000 5.000000 4.500000 51 0 102
3.000000 5.500000 4.500000 51 0 102
2.500000 5.000000 7.500000 51 0 102
3.000000 4.500000 8.500000 51 0 102
2.500000 4.000000 8.500000 51 0 102
-4.000000 6.500000 3.500000 51 0 102
-4.000000 5.500000 4.500000 51 0 102
-4.000000 6.500000 4.500000 51 0 102
2.500000 6.000000 8.500000 51 0 102
2.500000 4.000000 10.500000 51 0 102
-3.500000 4.000000 12.500000 51 0 102
-4.000000 4.500000 10.500000 51 0 102
-4.000000 4.500000 9.500000 51 0 102
-4.000000 3.500000 13.500000 51 0 102
-4.000000 3.500000 12.500000 51 0 102
3.000000 4.500000 9.500000 51 0 102
3.000000 6.500000 4.500000 51 0 102
-4.000000 3.500000 11.500000 51 0 102
-4.000000 4.500000 11.500000 51 0 102
2.500000 5.000000 11.500000 51 0 102
3.000000 3.500000 12.500000 51 0 102
-3.500000 4.000000 8.500000 51 0 102
3.000000 6.500000 3.500000 51 0 102
2.500000 3.500000 14.000000 51 0 102
3.000000 5.500000 8.500000 51 0 102
-3.500000 7.000000 4.500000 51 0 102
3 0 1 2
3 3 4 5
3 6 7 8
3 2 1 9
3 6 8 10
3 11 12 13
3 14 12 15
3 16 17 18
3 19 20 15
3 21 22 23
3 24 25 13
3 24 26 4
3 27 28 29
3 6 3 7
3 30 31 32
3 33 17 34
3 35 36 31
3 25 37 13
3 11 15 12
3 38 39 20
3 9 14 10
3 2 7 0
3 40 41 42
3 9 1 43
3 44 45 43
3 11 22 46
3 47 28 17
3 0 3 5
3 12 45 26
3 36 21 48
3 33 49 50
3 51 48 52
3 41 53 42
3 15 54 14
3 55 56 49
3 57 27 29
3 16 52 34
3 28 58 17
3 27 36 58
3 37 23 11
3 47 59 42
3 5 44 43
3 14 54 60
3 54 39 60
3 30 51 16
3 2 10 8
3 35 61 18
3 32 51 30
3 16 61 30
3 4 40 24
3 35 31 61
3 21 23 49
3 62 41 19
3 32 36 48
3 22 62 46
3 3 39 38
3 43 0 5
3 33 55 49
3 56 48 21
3 59 40 42
3 3 38 4
3 26 13 12
3 37 11 13
3 14 63 12
3 16 34 17
3 15 46 19
3 62 19 46
3 21 57 22
3 24 59 25
3 44 4 26
3 24 13 26
3 27 58 28
3 6 60 3
3 30 61 31
3 33 47 17
3 35 58 36
3 25 50 37
3 11 46 15
3 20 19 40
3 40 38 20
3 9 63 14
3 2 8 7
3 40 19 41
3 43 45 63
3 63 9 43
3 44 26 45
3 11 23 22
3 47 29 28
3 0 7 3
3 12 63 45
3 36 57 21
3 50 25 59
3 59 33 50
3 51 32 48
3 47 42 53
3 53 29 47
3 15 20 54
3 55 52 56
3 29 53 22
3 22 57 29
3 55 34 52
3 16 51 52
3 18 17 58
3 58 35 18
3 27 57 36
3 37 50 23
3 47 33 59
3 5 4 44
3 60 6 10
3 10 14 60
3 54 20 39
3 2 9 10
3 16 18 61
3 4 38 40
3 50 49 23
3 56 21 49
3 62 53 41
3 32 31 36
3 22 53 62
3 3 60 39
3 43 1 0
3 33 34 55
3 56 52 48
3 59 24 40
