ply
format ascii 1.0
comment Created by Blender 2.78 (sub 0) - www.blender.org, source file: ''
element vertex 565
property float x
property float y
property float z
property uchar red
property uchar green
property uchar blue
element face 928
property list uchar uint vertex_indices
end_header
-2.000000 -1.500000 0.500000 255 255 0
-2.500000 -1.000000 0.500000 255 255 0
-2.000000 -1.000000 0.000000 255 255 0
-1.500000 -1.000000 0.500000 255 255 0
2.000000 -1.500000 0.500000 255 255 0
1.500000 -1.000000 0.500000 255 255 0
2.000000 -1.000000 0.000000 255 255 0
2.500000 -1.000000 0.500000 255 255 0
-2.000000 1.000000 0.000000 255 255 0
-2.500000 1.000000 0.500000 255 255 0
-2.000000 1.500000 0.500000 255 255 0
-1.500000 1.000000 0.500000 255 255 0
2.000000 1.000000 0.000000 255 255 0
1.500000 1.000000 0.500000 255 255 0
2.000000 1.500000 0.500000 255 255 0
2.500000 1.000000 0.500000 255 255 0
-2.000000 -1.000000 1.000000 255 255 0
2.000000 -1.000000 1.000000 255 255 0
-2.500000 0.500000 1.000000 0 255 51
-2.500000 1.000000 1.500000 0 255 51
-2.500000 1.000000 1.000000 0 255 51
-1.500000 0.500000 1.000000 0 255 51
-1.500000 1.000000 1.000000 0 255 51
-1.500000 1.000000 1.500000 0 255 51
1.500000 0.500000 1.000000 0 255 51
1.500000 1.000000 1.500000 0 255 51
1.500000 1.000000 1.000000 0 255 51
0.000000 -3.500000 18.500000 255 204 102
1.000000 -3.500000 19.500000 255 204 102
-1.000000 -3.500000 19.500000 255 204 102
2.500000 0.500000 1.000000 0 255 51
2.500000 1.000000 1.000000 0 255 51
2.500000 1.000000 1.500000 0 255 51
-6.000000 -2.500000 4.500000 255 204 102
-6.500000 -2.000000 4.500000 255 204 102
-6.000000 -2.000000 4.000000 255 204 102
-4.500000 -2.000000 4.500000 255 204 102
-5.000000 -2.500000 4.500000 255 204 102
-5.000000 -2.000000 4.000000 255 204 102
5.000000 -2.500000 4.500000 255 204 102
4.500000 -2.000000 4.500000 255 204 102
5.000000 -2.000000 4.000000 255 204 102
6.500000 -2.000000 4.500000 255 204 102
6.000000 -2.500000 4.500000 255 204 102
6.000000 -2.000000 4.000000 255 204 102
-6.000000 -1.000000 4.000000 255 204 102
-1.000000 -1.500000 4.500000 0 255 51
-1.500000 -1.000000 4.500000 0 255 51
-1.000000 -1.000000 4.000000 0 255 51
1.500000 -1.000000 4.500000 0 255 51
1.000000 -1.500000 4.500000 0 255 51
1.000000 -1.000000 4.000000 0 255 51
6.000000 -1.000000 4.000000 255 204 102
-6.000000 0.000000 4.000000 255 204 102
-6.500000 0.000000 4.500000 255 204 102
-6.000000 0.500000 4.500000 255 204 102
-5.500000 0.000000 4.500000 255 204 102
6.000000 0.000000 4.000000 255 204 102
5.500000 0.000000 4.500000 255 204 102
6.000000 0.500000 4.500000 255 204 102
6.500000 0.000000 4.500000 255 204 102
-1.500000 0.000000 4.500000 0 255 51
-1.500000 0.000000 5.500000 0 255 51
-1.000000 1.000000 5.000000 0 255 51
-2.000000 0.500000 5.500000 0 255 51
-2.000000 0.500000 4.500000 0 255 51
-1.500000 1.000000 4.500000 0 255 51
1.500000 0.000000 4.500000 0 255 51
1.000000 1.000000 5.000000 0 255 51
1.500000 0.000000 5.500000 0 255 51
2.000000 0.500000 5.500000 0 255 51
2.000000 0.500000 4.500000 0 255 51
1.500000 1.000000 4.500000 0 255 51
-1.000000 2.000000 5.000000 0 255 51
-1.500000 2.000000 5.500000 0 255 51
1.000000 2.000000 5.000000 0 255 51
1.500000 2.000000 5.500000 0 255 51
-1.000000 2.500000 5.500000 0 255 51
1.000000 2.500000 5.500000 0 255 51
-1.000000 -1.000000 6.000000 0 255 51
-1.500000 -1.000000 5.500000 0 255 51
-1.000000 -1.500000 5.500000 0 255 51
1.500000 -1.000000 5.500000 0 255 51
1.000000 -1.000000 6.000000 0 255 51
1.000000 -1.500000 5.500000 0 255 51
-5.000000 1.000000 6.000000 255 204 102
-5.000000 0.000000 6.000000 255 204 102
-6.000000 1.000000 6.000000 255 204 102
-1.500000 0.500000 6.000000 0 255 51
-2.000000 0.500000 6.000000 0 255 51
-1.500000 0.500000 6.000000 255 51 51
-1.000000 0.250000 6.250000 255 51 51
-1.000000 0.500000 6.500000 255 51 51
1.500000 0.500000 6.000000 0 255 51
2.000000 0.500000 6.000000 0 255 51
1.500000 0.500000 6.000000 255 51 51
1.000000 0.500000 6.500000 255 51 51
1.000000 0.250000 6.250000 255 51 51
5.000000 1.000000 6.000000 255 204 102
6.000000 1.000000 6.000000 255 204 102
5.000000 0.000000 6.000000 255 204 102
-4.500000 1.000000 6.500000 255 204 102
-5.000000 1.500000 6.500000 255 204 102
-1.500000 1.500000 6.000000 0 255 51
-2.000000 1.500000 5.500000 0 255 51
-2.000000 1.500000 6.000000 0 255 51
-1.500000 1.500000 6.000000 255 51 51
-1.000000 1.500000 6.500000 255 51 51
-1.000000 1.750000 6.250000 255 51 51
1.500000 1.500000 6.000000 0 255 51
2.000000 1.500000 6.000000 0 255 51
2.000000 1.500000 5.500000 0 255 51
1.500000 1.500000 6.000000 255 51 51
1.000000 1.750000 6.250000 255 51 51
1.000000 1.500000 6.500000 255 51 51
4.500000 1.000000 6.500000 255 204 102
5.000000 1.500000 6.500000 255 204 102
-3.500000 -2.000000 6.500000 255 204 102
-4.000000 -2.000000 7.000000 255 204 102
-4.000000 -2.500000 6.500000 255 204 102
4.000000 -2.000000 7.000000 255 204 102
3.500000 -2.000000 6.500000 255 204 102
4.000000 -2.500000 6.500000 255 204 102
-4.000000 -1.000000 7.000000 255 204 102
-5.000000 -2.000000 7.000000 255 204 102
5.000000 -2.000000 7.000000 255 204 102
4.000000 -1.000000 7.000000 255 204 102
-2.000000 -2.500000 16.500000 255 204 102
0.000000 -2.500000 16.500000 255 204 102
-1.000000 -2.500000 17.500000 255 204 102
0.500000 -2.500000 21.000000 255 255 102
0.000000 -2.500000 21.500000 255 255 102
-0.500000 -2.500000 21.000000 255 255 102
1.000000 -0.500000 10.500000 255 51 51
1.000000 -1.500000 11.500000 255 51 51
0.000000 -0.500000 11.500000 255 51 51
5.000000 -1.000000 11.000000 255 204 102
4.500000 -1.000000 10.500000 255 204 102
5.000000 -1.500000 10.500000 255 204 102
-4.000000 -0.500000 11.500000 255 204 102
-5.000000 -0.500000 11.500000 255 204 102
-4.000000 0.000000 11.000000 255 204 102
4.500000 0.000000 10.500000 255 204 102
-3.500000 2.500000 11.000000 255 51 51
-3.250000 3.000000 10.750000 255 51 51
-3.000000 3.000000 11.000000 255 51 51
-3.500000 2.500000 11.000000 255 204 102
-3.750000 2.000000 10.750000 255 204 102
-4.000000 2.000000 11.000000 255 204 102
3.500000 2.500000 11.000000 255 51 51
3.000000 3.000000 11.000000 255 51 51
3.250000 3.000000 10.750000 255 51 51
3.500000 2.500000 11.000000 255 204 102
4.000000 2.000000 11.000000 255 204 102
3.750000 2.000000 10.750000 255 204 102
-1.000000 -1.500000 11.500000 255 51 51
-1.000000 -0.500000 10.500000 255 51 51
-0.500000 -2.000000 25.500000 255 255 102
-0.500000 2.000000 21.500000 255 255 102
-0.500000 -2.000000 21.500000 255 255 102
-1.000000 0.000000 4.000000 0 255 51
-0.500000 -1.500000 14.000000 255 204 102
-1.000000 -2.000000 14.000000 255 204 102
-1.000000 -1.750000 13.750000 255 204 102
0.500000 -1.500000 14.000000 255 204 102
1.000000 -1.750000 13.750000 255 204 102
1.000000 -2.000000 14.000000 255 204 102
-6.000000 0.000000 14.000000 255 204 102
-6.500000 0.000000 13.500000 255 204 102
-6.000000 -0.500000 13.500000 255 204 102
0.500000 2.500000 21.000000 255 255 102
-0.500000 2.500000 21.000000 255 255 102
0.000000 2.500000 21.500000 255 255 102
6.500000 0.000000 13.500000 255 204 102
6.000000 0.000000 14.000000 255 204 102
6.000000 -0.500000 13.500000 255 204 102
-2.500000 0.500000 14.000000 255 51 51
-3.000000 0.000000 14.000000 255 51 51
-2.750000 0.000000 14.250000 255 51 51
-1.500000 1.500000 14.000000 255 51 51
-1.833330 0.833333 14.333300 255 51 51
2.500000 0.500000 14.000000 255 51 51
2.750000 0.000000 14.250000 255 51 51
3.000000 0.000000 14.000000 255 51 51
2.500000 1.000000 8.500000 255 51 51
2.500000 2.000000 9.500000 255 51 51
2.500000 0.000000 9.500000 255 51 51
-1.000000 1.750000 14.250000 255 51 51
-1.000000 2.000000 14.000000 255 51 51
1.500000 1.500000 14.000000 255 51 51
1.000000 2.000000 14.000000 255 51 51
1.000000 1.750000 14.250000 255 51 51
-2.500000 2.000000 9.500000 255 51 51
-2.500000 1.000000 8.500000 255 51 51
-2.500000 0.000000 9.500000 255 51 51
-6.000000 2.500000 13.500000 255 204 102
-6.500000 2.000000 13.500000 255 204 102
-6.000000 2.000000 14.000000 255 204 102
6.500000 2.000000 13.500000 255 204 102
6.000000 2.500000 13.500000 255 204 102
6.000000 2.000000 14.000000 255 204 102
-1.000000 1.500000 14.500000 255 204 102
-1.000000 1.500000 15.500000 255 204 102
0.000000 1.500000 14.500000 255 204 102
1.000000 1.500000 14.500000 255 204 102
1.000000 1.500000 15.500000 255 204 102
1.000000 0.000000 4.000000 0 255 51
0.000000 -4.500000 17.500000 255 204 102
-0.500000 -4.000000 17.500000 255 204 102
0.000000 -4.000000 17.000000 255 204 102
0.500000 -4.000000 17.500000 255 204 102
-0.500000 -3.000000 17.500000 255 204 102
-0.500000 -3.000000 18.500000 255 204 102
0.500000 -3.000000 17.500000 255 204 102
0.500000 -3.000000 18.500000 255 204 102
2.000000 -2.500000 16.500000 255 204 102
1.000000 -2.500000 17.500000 255 204 102
-1.500000 -1.500000 18.000000 255 204 102
-1.500000 -2.000000 17.500000 255 204 102
-1.500000 -2.000000 18.000000 255 204 102
1.500000 -1.500000 18.000000 255 204 102
1.500000 -2.000000 18.000000 255 204 102
1.500000 -2.000000 17.500000 255 204 102
0.500000 2.000000 21.500000 255 255 102
0.500000 -2.000000 25.500000 255 255 102
0.500000 -2.000000 21.500000 255 255 102
1.833330 0.833333 14.333300 255 51 51
0.000000 -2.000000 26.000000 255 255 102
0.000000 -2.500000 25.500000 255 255 102
1.500000 -2.000000 20.500000 255 204 102
0.750000 2.000000 21.250000 255 204 102
0.750000 -2.000000 21.250000 255 204 102
3.750000 2.000000 10.750000 255 51 51
3.750000 0.000000 10.750000 255 51 51
3.000000 3.500000 12.500000 255 51 51
3.750000 2.750000 13.500000 255 51 51
3.750000 2.750000 12.500000 255 51 51
-0.750000 -2.000000 21.250000 255 204 102
-1.500000 2.000000 20.500000 255 204 102
-1.500000 -2.000000 20.500000 255 204 102
-1.000000 -4.500000 14.500000 255 204 102
-2.500000 -3.000000 15.500000 255 204 102
-2.500000 -3.000000 14.500000 255 204 102
-2.500000 1.000000 6.000000 255 51 51
-2.000000 0.500000 8.500000 255 51 51
-1.000000 1.750000 6.250000 0 255 51
1.000000 1.750000 6.250000 0 255 51
-6.000000 2.500000 12.500000 255 204 102
-6.500000 2.000000 12.500000 255 204 102
2.500000 0.000000 15.500000 255 204 102
-3.000000 3.500000 13.500000 255 51 51
3.000000 3.000000 14.000000 255 51 51
3.000000 3.500000 13.500000 255 51 51
2.000000 1.500000 1.000000 255 255 0
2.500000 1.000000 1.000000 255 255 0
6.000000 -0.500000 11.500000 255 204 102
6.500000 -1.000000 10.500000 255 204 102
6.500000 0.000000 11.500000 255 204 102
-6.000000 -1.500000 10.500000 255 204 102
-6.000000 -0.500000 11.500000 255 204 102
-5.500000 -1.000000 5.500000 255 204 102
-5.000000 -1.000000 6.000000 255 204 102
-6.500000 -1.000000 9.500000 255 204 102
-6.500000 -1.000000 10.500000 255 204 102
6.000000 2.500000 12.500000 255 204 102
6.500000 3.000000 11.500000 255 204 102
6.000000 3.500000 11.500000 255 204 102
3.750000 -0.750000 13.500000 255 51 51
3.000000 -1.500000 11.500000 255 51 51
3.750000 -0.750000 11.500000 255 51 51
-2.500000 -1.500000 14.000000 255 51 51
-3.000000 -1.000000 14.000000 255 51 51
-3.000000 -1.500000 13.500000 255 51 51
4.500000 -2.000000 5.500000 255 204 102
5.500000 -1.000000 4.500000 255 204 102
2.000000 0.500000 1.500000 0 255 51
6.000000 3.500000 9.500000 255 204 102
-2.000000 1.500000 4.500000 0 255 51
1.000000 -1.500000 13.500000 255 51 51
0.000000 -0.500000 13.500000 255 51 51
-6.000000 0.500000 5.500000 255 204 102
-6.500000 1.000000 6.500000 255 204 102
2.000000 0.000000 1.000000 255 255 0
1.500000 0.000000 0.500000 255 255 0
-3.000000 2.500000 10.500000 255 51 51
-1.500000 -2.000000 18.500000 204 255 255
-0.750000 -2.750000 18.000000 204 255 255
-0.750000 -2.750000 18.500000 204 255 255
6.500000 -2.000000 6.500000 255 204 102
6.000000 1.500000 7.500000 255 204 102
6.500000 3.000000 9.500000 255 204 102
6.500000 1.000000 7.500000 255 204 102
-3.750000 2.750000 12.500000 255 51 51
-3.750000 2.750000 13.500000 255 51 51
2.000000 1.500000 8.500000 255 51 51
2.500000 1.000000 6.000000 255 51 51
2.000000 1.500000 6.000000 255 51 51
-5.000000 -2.500000 5.500000 255 204 102
-4.500000 -2.000000 5.500000 255 204 102
2.500000 -3.000000 14.500000 255 204 102
1.000000 -4.500000 15.500000 255 204 102
1.000000 -4.500000 14.500000 255 204 102
-5.000000 -0.500000 8.500000 255 204 102
-4.500000 -1.000000 9.500000 255 204 102
-5.000000 -1.500000 9.500000 255 204 102
-3.750000 2.000000 10.750000 255 51 51
4.000000 -0.500000 11.500000 255 204 102
3.750000 -0.750000 13.500000 255 204 102
3.750000 -0.750000 11.500000 255 204 102
-1.500000 0.000000 0.500000 255 255 0
-2.500000 -1.000000 17.500000 255 204 102
-4.500000 1.000000 7.500000 255 204 102
-5.000000 1.500000 7.500000 255 204 102
-4.500000 2.000000 10.500000 255 204 102
1.000000 0.000000 6.000000 0 255 51
-4.000000 2.500000 13.500000 255 204 102
-3.500000 2.500000 14.000000 255 204 102
-3.750000 2.750000 13.500000 255 204 102
-1.000000 1.750000 14.250000 255 204 102
-2.000000 0.000000 1.000000 255 255 0
-1.500000 0.500000 1.000000 255 255 0
-2.000000 0.250000 1.250000 255 255 0
5.000000 1.500000 7.500000 255 204 102
6.000000 1.500000 6.500000 255 204 102
2.000000 -3.000000 16.000000 255 204 102
-2.500000 0.000000 0.500000 255 255 0
0.000000 -3.000000 17.000000 255 204 102
6.000000 -2.500000 6.500000 255 204 102
5.000000 -2.500000 5.500000 255 204 102
-3.000000 3.000000 14.000000 255 51 51
-5.500000 -1.000000 4.500000 255 204 102
2.500000 -1.000000 17.500000 255 204 102
1.500000 2.000000 18.500000 255 204 102
1.500000 -1.000000 18.500000 255 204 102
4.000000 2.500000 13.500000 255 204 102
4.000000 2.000000 14.000000 255 204 102
5.000000 -1.000000 6.000000 255 204 102
5.500000 -1.000000 5.500000 255 204 102
-1.000000 0.000000 6.000000 0 255 51
-0.750000 -2.750000 18.000000 255 204 102
-0.750000 -2.000000 21.250000 255 255 102
0.750000 -2.000000 21.250000 255 255 102
4.500000 0.000000 6.500000 255 204 102
-1.500000 1.000000 1.000000 255 255 0
-2.000000 1.500000 1.000000 255 255 0
-3.750000 -0.750000 11.500000 255 51 51
-3.000000 -1.500000 11.500000 255 51 51
4.000000 0.000000 14.000000 255 204 102
-2.000000 1.500000 8.500000 255 51 51
-6.000000 -0.500000 8.500000 255 204 102
-6.500000 0.000000 8.500000 255 204 102
2.000000 -2.000000 14.000000 255 204 102
2.000000 -3.000000 14.000000 255 204 102
-4.500000 -1.000000 10.500000 255 204 102
-4.500000 0.000000 8.500000 255 204 102
6.500000 -1.000000 9.500000 255 204 102
6.000000 -1.500000 10.500000 255 204 102
6.000000 -1.500000 9.500000 255 204 102
6.500000 0.000000 5.500000 255 204 102
6.000000 0.500000 5.500000 255 204 102
2.000000 1.500000 4.500000 0 255 51
2.500000 1.000000 6.000000 0 255 51
2.000000 -0.500000 9.500000 255 51 51
-2.000000 -0.500000 9.500000 255 51 51
6.500000 1.000000 6.500000 255 204 102
-6.000000 -2.500000 6.500000 255 204 102
4.000000 3.500000 11.500000 255 204 102
-4.000000 3.500000 11.500000 255 204 102
-4.000000 2.500000 12.500000 255 204 102
3.500000 2.500000 14.000000 255 204 102
-2.000000 1.500000 1.000000 0 255 51
-1.000000 2.500000 18.500000 255 204 102
-1.500000 2.000000 18.500000 255 204 102
-2.500000 0.000000 15.500000 255 204 102
-2.500000 0.000000 14.500000 255 204 102
3.833330 2.833330 12.333300 255 204 102
4.000000 2.500000 12.500000 255 204 102
-4.000000 2.000000 14.000000 255 204 102
-2.000000 2.500000 9.500000 255 51 51
2.000000 2.500000 9.500000 255 51 51
-6.000000 3.500000 9.500000 255 204 102
-5.000000 3.500000 9.500000 255 204 102
-1.000000 -2.500000 20.500000 255 204 102
0.500000 -2.500000 21.000000 255 204 102
-0.500000 -2.500000 21.000000 255 204 102
-2.500000 0.500000 1.000000 255 255 0
5.500000 0.000000 5.500000 255 204 102
5.000000 -0.500000 8.500000 255 204 102
5.000000 -1.500000 9.500000 255 204 102
-3.500000 3.500000 11.000000 255 51 51
-3.000000 3.500000 11.500000 255 51 51
-2.000000 2.500000 17.500000 255 204 102
-2.500000 2.000000 17.500000 255 204 102
-2.000000 0.500000 1.500000 0 255 51
-6.000000 -1.500000 9.500000 255 204 102
-3.500000 -1.000000 6.500000 255 204 102
-4.000000 -2.000000 6.000000 255 204 102
-4.000000 -1.000000 6.000000 255 204 102
6.000000 -0.500000 8.500000 255 204 102
1.000000 2.500000 20.500000 255 204 102
1.500000 2.000000 20.500000 255 204 102
2.500000 0.000000 0.500000 255 255 0
-6.500000 0.000000 5.500000 255 204 102
-5.000000 -1.500000 10.500000 255 204 102
1.500000 -1.500000 19.000000 204 255 255
1.500000 -2.000000 18.500000 204 255 255
1.500000 -1.500000 18.000000 204 255 255
1.500000 0.500000 1.000000 255 255 0
-1.000000 -4.000000 16.000000 255 204 102
1.000000 -4.000000 16.000000 255 204 102
2.500000 2.000000 17.500000 255 204 102
2.000000 2.500000 17.500000 255 204 102
3.000000 -0.500000 10.500000 255 51 51
3.500000 -1.000000 6.500000 255 204 102
4.500000 -1.000000 9.500000 255 204 102
-4.000000 0.000000 14.000000 255 204 102
-4.000000 -0.500000 13.500000 255 204 102
-4.500000 0.000000 6.500000 255 204 102
4.000000 -2.000000 6.000000 255 204 102
3.500000 3.500000 12.000000 255 51 51
6.500000 0.000000 8.500000 255 204 102
1.000000 -2.500000 20.500000 255 204 102
-6.000000 3.500000 11.500000 255 204 102
-6.500000 3.000000 9.500000 255 204 102
-6.500000 3.000000 11.500000 255 204 102
-5.500000 0.000000 5.500000 255 204 102
-2.750000 -1.000000 14.250000 255 51 51
-2.500000 1.000000 1.000000 255 255 0
4.500000 1.000000 7.500000 255 204 102
3.750000 2.750000 12.500000 255 204 102
3.750000 2.750000 13.500000 255 204 102
-6.500000 -2.000000 6.500000 255 204 102
-1.000000 -1.500000 13.500000 255 51 51
-6.000000 1.500000 7.500000 255 204 102
-3.500000 -0.500000 14.000000 255 204 102
-3.500000 3.500000 11.000000 255 204 102
-3.250000 3.000000 10.750000 255 204 102
-4.500000 3.000000 9.500000 255 204 102
2.500000 -1.500000 14.000000 255 204 102
2.500000 -1.000000 14.500000 255 204 102
5.000000 3.500000 9.500000 255 204 102
3.500000 3.500000 11.000000 255 204 102
-3.750000 0.000000 10.750000 255 204 102
-1.000000 -4.500000 15.500000 255 204 102
-2.500000 -1.000000 14.500000 255 204 102
-2.750000 -1.000000 14.250000 255 204 102
-2.500000 -1.500000 14.000000 255 204 102
0.000000 2.500000 15.500000 255 204 102
4.000000 0.000000 11.000000 255 204 102
-3.000000 3.500000 12.500000 255 51 51
3.000000 3.500000 11.500000 255 51 51
1.000000 2.500000 18.500000 255 204 102
4.500000 2.000000 10.500000 255 204 102
1.000000 0.250000 6.250000 0 255 51
-1.000000 0.250000 6.250000 0 255 51
-2.500000 1.000000 6.000000 0 255 51
0.166667 -0.833333 13.666700 255 51 51
0.500000 -1.500000 14.000000 255 51 51
-3.750000 2.750000 12.500000 255 204 102
-0.750000 2.000000 21.250000 255 255 102
4.500000 3.000000 9.500000 255 204 102
1.833330 0.833333 14.333300 255 204 102
2.500000 0.000000 14.500000 255 204 102
2.500000 0.500000 14.000000 255 204 102
-2.500000 -1.750000 13.750000 255 51 51
-1.000000 -1.750000 13.750000 255 51 51
-1.000000 -4.000000 14.000000 255 204 102
-1.500000 -3.000000 19.500000 255 204 102
-0.833333 -2.833330 18.666700 255 204 102
-3.500000 3.500000 12.000000 255 51 51
-2.000000 -2.000000 14.000000 255 204 102
-2.000000 -3.000000 14.000000 255 204 102
-2.000000 0.250000 1.250000 0 255 51
-3.000000 -0.500000 10.500000 255 51 51
-3.833330 2.833330 12.333300 255 204 102
2.500000 -3.000000 15.500000 255 204 102
4.500000 -1.000000 7.500000 255 204 102
4.500000 0.000000 8.500000 255 204 102
0.750000 -2.750000 18.000000 255 204 102
-1.500000 -1.000000 18.500000 255 204 102
-6.500000 1.000000 7.500000 255 204 102
-6.000000 1.500000 6.500000 255 204 102
3.000000 -1.000000 14.000000 255 51 51
3.500000 -0.500000 14.000000 255 51 51
-6.500000 0.000000 11.500000 255 204 102
0.000000 -1.000000 14.000000 255 204 102
-0.166667 -0.833333 13.666700 255 204 102
0.000000 -0.750000 13.750000 255 204 102
3.500000 -0.500000 11.000000 255 204 102
4.000000 -1.000000 6.000000 255 204 102
-2.500000 0.500000 14.000000 255 204 102
-2.750000 0.000000 14.250000 255 204 102
3.750000 0.000000 10.750000 255 204 102
2.000000 1.500000 1.000000 0 255 51
4.000000 -0.500000 13.500000 255 204 102
3.500000 -0.500000 14.000000 255 204 102
-0.750000 2.000000 21.250000 255 204 102
-1.000000 2.500000 20.500000 255 204 102
1.500000 1.000000 1.000000 255 255 0
-4.500000 -1.000000 7.500000 255 204 102
-3.750000 0.000000 10.750000 255 51 51
0.833333 -2.833330 18.666700 255 204 102
3.250000 3.000000 10.750000 255 204 102
2.750000 -1.000000 14.250000 255 51 51
1.500000 -1.500000 19.000000 255 204 102
1.500000 -2.500000 19.000000 255 204 102
-3.500000 -0.500000 11.000000 255 204 102
2.000000 0.250000 1.250000 0 255 51
2.500000 0.500000 1.000000 255 255 0
2.500000 -1.750000 13.750000 255 204 102
1.000000 -4.000000 14.000000 255 204 102
-1.500000 -1.500000 18.000000 204 255 255
-1.500000 -2.000000 18.000000 204 255 255
-2.000000 -3.000000 16.000000 255 204 102
2.000000 0.500000 8.500000 255 51 51
3.000000 2.500000 10.500000 255 51 51
0.166667 -0.833333 13.666700 255 204 102
-1.500000 -1.500000 19.000000 255 204 102
2.750000 -1.000000 14.250000 255 204 102
2.750000 0.000000 14.250000 255 204 102
3.500000 3.500000 11.000000 255 51 51
2.500000 -1.750000 13.750000 255 51 51
3.000000 -1.500000 13.500000 255 51 51
1.500000 -2.500000 19.000000 204 255 255
0.750000 -2.750000 18.500000 204 255 255
2.000000 0.250000 1.250000 255 255 0
-0.166667 -0.833333 13.666700 255 51 51
2.000000 0.500000 6.000000 255 51 51
-3.750000 -0.750000 11.500000 255 204 102
-3.750000 -0.750000 13.500000 255 204 102
-1.500000 -2.500000 19.000000 204 255 255
-0.833333 -2.833330 18.666700 204 255 255
3.500000 -0.500000 11.000000 255 51 51
0.750000 -2.750000 18.000000 204 255 255
-2.000000 0.500000 6.000000 255 51 51
6.500000 2.000000 12.500000 255 204 102
-3.500000 -0.500000 14.000000 255 51 51
-3.750000 -0.750000 13.500000 255 51 51
1.000000 1.750000 14.250000 255 204 102
-3.500000 2.500000 14.000000 255 51 51
-0.750000 -2.750000 18.500000 255 204 102
0.750000 2.000000 21.250000 255 255 102
-2.000000 1.500000 6.000000 255 51 51
3.500000 3.500000 12.000000 255 204 102
1.500000 -2.000000 18.000000 204 255 255
3.833330 2.833330 12.333300 255 51 51
1.500000 -3.000000 19.500000 255 204 102
0.500000 2.500000 21.000000 255 204 102
-2.500000 -1.750000 13.750000 255 204 102
3.500000 2.500000 14.000000 255 51 51
-0.500000 2.500000 21.000000 255 204 102
0.000000 -0.750000 13.750000 255 51 51
1.000000 -1.750000 13.750000 255 51 51
1.500000 1.500000 14.000000 255 204 102
-1.500000 -2.500000 19.000000 255 204 102
-3.833330 2.833330 12.333300 255 51 51
-3.500000 3.500000 12.000000 255 204 102
0.750000 -2.750000 18.500000 255 204 102
2.500000 -1.500000 14.000000 255 51 51
-1.833330 0.833333 14.333300 255 204 102
-1.500000 1.500000 14.000000 255 204 102
-3.500000 -0.500000 11.000000 255 51 51
-1.500000 -1.500000 19.000000 204 255 255
0.833333 -2.833330 18.666700 204 255 255
-0.500000 -1.500000 14.000000 255 51 51
3 0 1 2
3 3 0 2
3 4 5 6
3 7 4 6
3 8 9 10
3 11 8 10
3 12 13 14
3 15 12 14
3 1 0 16
3 16 0 3
3 17 5 4
3 7 17 4
3 18 19 20
3 21 22 23
3 24 25 26
3 27 28 29
3 30 31 32
3 33 34 35
3 36 37 38
3 39 40 41
3 42 43 44
3 35 45 38
3 46 47 48
3 49 50 51
3 44 41 52
3 53 54 55
3 56 53 55
3 57 58 59
3 60 57 59
3 61 62 63
3 62 64 63
3 64 65 63
3 63 65 66
3 67 68 69
3 69 68 70
3 70 68 71
3 68 72 71
3 73 63 74
3 75 76 68
3 73 74 77
3 76 75 78
3 79 80 81
3 82 83 84
3 85 86 87
3 88 89 64
3 90 91 92
3 93 70 94
3 95 96 97
3 98 99 100
3 101 85 102
3 103 104 105
3 106 107 108
3 109 110 111
3 112 113 114
3 98 115 116
3 117 118 119
3 120 121 122
3 118 123 124
3 120 125 126
3 127 128 129
3 130 131 132
3 133 134 135
3 136 137 138
3 139 140 141
3 137 136 142
3 143 144 145
3 146 147 148
3 149 150 151
3 152 153 154
3 155 156 135
3 157 158 159
3 61 63 160
3 161 162 163
3 164 165 166
3 167 168 169
3 170 171 172
3 173 174 175
3 176 177 178
3 179 176 180
3 181 182 183
3 184 185 186
3 179 187 188
3 189 190 191
3 192 193 194
3 195 196 197
3 198 199 200
3 201 202 203
3 204 203 205
3 68 67 206
3 207 208 209
3 210 207 209
3 211 208 212
3 213 214 210
3 128 215 216
3 217 218 219
3 220 221 222
3 223 224 225
3 189 226 181
3 227 157 228
3 224 227 228
3 229 230 231
3 186 232 233
3 234 235 236
3 237 238 239
3 240 241 242
3 243 244 193
3 78 245 246
3 196 247 248
3 249 204 205
3 250 251 252
3 15 253 254
3 255 256 257
3 258 140 259
3 260 86 261
3 262 258 263
3 73 68 63
3 264 265 266
3 267 268 269
3 270 271 272
3 273 274 40
3 72 275 71
3 265 276 266
3 74 66 277
3 135 278 279
3 87 280 281
3 173 200 174
3 5 282 283
3 150 284 145
3 68 160 63
3 285 286 287
3 56 45 53
3 288 43 42
3 289 290 291
3 250 292 293
3 294 295 296
3 119 297 298
3 299 300 301
3 302 303 304
3 87 102 85
3 194 305 192
3 306 307 308
3 8 309 2
3 49 84 50
3 127 310 241
3 36 297 37
3 311 102 312
3 141 313 148
3 82 314 83
3 315 316 317
3 318 201 203
3 159 228 157
3 319 320 321
3 6 5 283
3 322 323 116
3 324 215 128
3 2 1 325
3 7 282 17
3 326 216 213
3 327 328 43
3 293 329 250
3 330 298 36
3 331 332 333
3 42 52 60
3 200 334 335
3 273 336 337
3 80 338 62
3 211 212 339
3 158 340 159
3 225 130 341
3 190 187 191
3 115 100 342
3 320 11 343
3 172 224 223
3 11 344 343
3 48 50 46
3 272 345 346
3 347 175 174
3 348 243 193
3 349 262 350
3 351 299 352
3 47 81 80
3 275 30 32
3 140 353 141
3 354 311 313
3 355 356 357
3 358 59 359
3 360 361 32
3 244 362 363
3 99 323 364
3 365 34 33
3 259 140 169
3 39 44 43
3 366 264 266
3 367 247 368
3 341 223 225
3 79 84 83
3 334 369 335
3 79 314 338
3 23 370 277
3 3 319 16
3 238 371 372
3 373 201 374
3 375 376 366
3 195 377 315
3 294 378 379
3 312 380 381
3 382 383 384
3 319 385 325
3 100 359 386
3 274 41 40
3 387 357 388
3 145 389 390
3 372 391 392
3 23 65 393
3 302 394 349
3 395 396 397
3 398 355 357
3 332 399 400
3 159 132 131
3 6 12 401
3 96 91 97
3 402 55 54
3 303 403 304
3 404 405 406
3 407 13 283
3 261 397 396
3 88 64 62
3 408 300 409
3 410 205 411
3 259 263 258
3 198 264 199
3 268 133 412
3 126 342 413
3 414 138 137
3 415 169 416
3 417 123 395
3 213 209 326
3 121 418 122
3 236 419 234
3 398 288 420
3 421 229 231
3 422 423 424
3 413 418 121
3 424 247 422
3 425 55 280
3 330 38 45
3 177 426 178
3 29 421 382
3 10 427 344
3 428 116 115
3 54 53 45
3 334 429 430
3 349 431 365
3 382 237 239
3 346 432 272
3 433 423 380
3 416 434 415
3 167 196 168
3 435 436 437
3 351 438 439
3 385 9 325
3 260 56 425
3 366 440 441
3 399 230 400
3 148 442 141
3 240 300 443
3 225 228 131
3 109 76 246
3 444 445 446
3 58 52 274
3 329 190 251
3 202 391 447
3 136 448 142
3 449 234 450
3 371 399 451
3 142 153 452
3 338 453 454
3 61 48 47
3 19 65 455
3 456 278 457
3 119 118 124
3 397 417 395
3 69 93 314
3 393 21 23
3 86 280 87
3 98 323 99
3 368 317 458
3 171 459 158
3 282 407 283
3 460 441 440
3 461 462 463
3 464 432 465
3 67 51 206
3 291 323 289
3 466 301 240
3 467 468 29
3 469 292 449
3 242 470 471
3 393 18 472
3 251 235 252
3 155 473 156
3 129 326 211
3 470 163 162
3 368 474 367
3 33 38 37
3 475 439 249
3 27 208 207
3 476 387 477
3 478 213 216
3 372 310 479
3 101 86 85
3 121 126 413
3 480 481 281
3 482 267 483
3 46 84 81
3 240 471 466
3 387 414 477
3 259 168 484
3 485 486 487
3 107 348 294
3 82 67 69
3 306 488 448
3 440 289 322
3 298 261 396
3 342 489 413
3 313 437 436
3 411 332 410
3 136 255 306
3 297 33 37
3 490 491 374
3 153 492 154
3 493 25 360
3 494 495 307
3 386 59 58
3 496 497 238
3 103 245 74
3 14 498 253
3 444 491 445
3 124 499 302
3 194 473 500
3 70 71 361
3 211 209 208
3 501 28 214
3 489 336 418
3 422 367 381
3 502 460 452
3 482 182 503
3 117 123 118
3 107 113 108
3 284 379 378
3 373 444 241
3 504 229 505
3 350 423 480
3 290 257 420
3 277 370 19
3 141 442 506
3 275 24 507
3 508 15 254
3 78 73 77
3 351 165 509
3 166 510 466
3 40 328 273
3 511 512 285
3 513 409 324
3 92 96 514
3 257 175 255
3 1 319 325
3 185 379 515
3 394 403 258
3 516 485 487
3 76 72 68
3 195 368 247
3 238 517 239
3 334 264 376
3 175 306 255
3 462 518 519
3 150 520 151
3 268 278 134
3 521 278 522
3 523 524 405
3 160 51 48
3 337 100 386
3 80 61 47
3 347 335 495
3 282 508 525
3 279 526 432
3 27 210 214
3 477 452 428
3 184 527 295
3 156 363 133
3 398 387 125
3 377 415 316
3 215 331 222
3 416 528 529
3 530 287 531
3 337 58 274
3 388 356 138
3 433 102 481
3 135 432 155
3 378 348 192
3 352 301 510
3 233 532 412
3 533 405 524
3 229 400 230
3 186 185 232
3 234 252 235
3 237 496 238
3 240 443 241
3 243 534 244
3 78 77 245
3 196 195 247
3 249 462 204
3 250 329 251
3 15 14 253
3 255 356 256
3 258 403 140
3 260 425 86
3 262 394 258
3 73 75 68
3 264 535 265
3 267 522 268
3 272 464 270
3 270 426 271
3 271 536 537
3 537 272 271
3 273 337 274
3 72 25 275
3 265 290 276
3 74 63 66
3 135 134 278
3 402 281 280
3 481 87 281
3 173 198 200
3 5 17 282
3 390 450 150
3 150 515 284
3 145 390 150
3 68 206 160
3 285 512 286
3 56 330 45
3 288 327 43
3 289 276 290
3 250 449 292
3 294 184 295
3 298 396 119
3 117 119 396
3 299 475 300
3 302 354 303
3 87 481 102
3 194 500 305
3 306 494 307
3 3 2 309
3 8 11 309
3 49 82 84
3 443 408 513
3 127 129 218
3 241 443 513
3 127 218 310
3 241 513 127
3 479 310 217
3 218 217 310
3 36 298 297
3 311 101 102
3 141 353 313
3 82 69 314
3 315 377 316
3 203 204 538
3 538 318 203
3 159 131 228
3 319 309 320
3 283 13 12
3 12 6 283
3 322 289 323
3 128 127 513
3 513 324 128
3 325 9 8
3 8 2 325
3 7 401 282
3 326 128 216
3 327 122 328
3 328 39 43
3 293 539 329
3 330 260 298
3 331 410 332
3 57 60 52
3 42 44 52
3 200 199 334
3 273 418 336
3 80 79 338
3 339 219 129
3 218 129 219
3 212 540 339
3 339 129 211
3 158 459 340
3 225 131 130
3 190 188 187
3 115 98 100
3 320 309 11
3 541 170 223
3 172 227 224
3 223 170 172
3 11 10 344
3 48 51 50
3 272 537 345
3 347 494 175
3 348 542 243
3 349 394 262
3 351 439 299
3 47 46 81
3 275 507 30
3 140 403 353
3 354 499 417
3 417 101 311
3 311 437 313
3 313 353 303
3 354 417 311
3 313 303 354
3 355 256 356
3 358 60 59
3 360 76 111
3 111 110 361
3 32 31 493
3 111 361 360
3 32 493 360
3 244 514 362
3 364 358 359
3 359 99 364
3 365 431 34
3 416 169 140
3 140 139 416
3 39 41 44
3 366 376 264
3 367 422 247
3 341 541 223
3 79 81 84
3 334 430 369
3 79 83 314
3 277 66 23
3 23 22 370
3 3 309 319
3 238 497 371
3 373 202 201
3 375 429 376
3 366 543 375
3 195 197 377
3 294 348 378
3 312 433 380
3 382 421 383
3 319 321 385
3 100 99 359
3 274 52 41
3 387 398 357
3 145 144 389
3 372 371 391
3 23 66 65
3 302 304 394
3 395 117 396
3 398 420 355
3 332 451 399
3 159 340 132
3 15 401 12
3 7 6 401
3 96 92 91
3 402 280 55
3 303 353 403
3 404 523 405
3 405 544 406
3 407 498 13
3 261 86 397
3 62 338 88
3 454 88 338
3 408 443 300
3 447 411 205
3 410 249 205
3 205 203 447
3 259 484 263
3 198 535 264
3 268 134 133
3 126 476 342
3 414 388 138
3 415 167 169
3 417 499 123
3 213 210 209
3 328 122 418
3 418 273 328
3 236 545 419
3 398 327 288
3 421 28 546
3 546 229 421
3 231 383 421
3 422 380 423
3 413 489 418
3 424 248 247
3 425 56 55
3 330 36 38
3 177 271 426
3 29 28 421
3 10 9 427
3 428 322 116
3 45 35 34
3 34 54 45
3 334 376 429
3 349 350 431
3 239 467 382
3 382 384 237
3 467 29 382
3 346 155 432
3 433 480 423
3 416 529 434
3 167 197 196
3 311 312 437
3 381 435 437
3 437 312 381
3 351 509 438
3 438 518 439
3 385 427 9
3 260 330 56
3 366 266 440
3 276 440 266
3 441 543 366
3 399 547 230
3 148 147 442
3 240 301 300
3 225 224 228
3 78 246 76
3 109 111 76
3 470 444 446
3 446 548 470
3 58 57 52
3 549 251 189
3 329 539 179
3 536 271 177
3 176 179 539
3 539 536 177
3 177 176 539
3 482 483 183
3 189 181 549
3 183 483 549
3 329 179 188
3 190 189 251
3 329 188 190
3 181 183 549
3 202 373 392
3 392 391 202
3 447 203 202
3 136 306 448
3 449 250 252
3 234 419 450
3 449 252 234
3 389 469 390
3 390 469 449
3 419 520 450
3 450 390 449
3 411 447 451
3 371 497 399
3 447 391 371
3 547 399 497
3 451 447 371
3 497 550 547
3 142 448 153
3 338 314 453
3 61 160 48
3 89 455 64
3 19 393 65
3 65 64 455
3 456 551 279
3 279 278 456
3 552 457 278
3 302 349 124
3 365 119 124
3 124 349 365
3 397 86 417
3 453 314 93
3 69 70 93
3 393 472 21
3 86 425 280
3 98 116 323
3 368 315 317
3 157 227 158
3 172 171 158
3 158 227 172
3 282 525 407
3 440 322 460
3 460 502 441
3 322 428 460
3 461 553 204
3 538 204 553
3 462 519 463
3 461 204 462
3 464 272 432
3 67 49 51
3 291 364 323
3 466 510 301
3 27 29 212
3 467 554 468
3 468 540 212
3 212 29 468
3 469 555 292
3 242 444 470
3 393 19 18
3 251 549 235
3 155 346 473
3 129 128 326
3 470 548 163
3 368 458 474
3 474 556 367
3 33 35 38
3 410 331 249
3 475 299 439
3 439 462 249
3 249 331 475
3 27 212 208
3 476 126 125
3 125 387 476
3 216 222 221
3 478 557 214
3 216 221 478
3 478 214 213
3 372 392 310
3 101 417 86
3 121 120 126
3 480 433 481
3 482 503 558
3 558 521 522
3 522 267 482
3 482 558 522
3 46 50 84
3 240 242 471
3 387 388 414
3 259 169 168
3 485 161 486
3 294 296 114
3 296 112 114
3 542 348 107
3 107 106 542
3 294 114 107
3 82 49 67
3 492 448 488
3 306 308 488
3 440 276 289
3 298 260 261
3 342 100 489
3 436 146 313
3 148 313 146
3 411 451 332
3 136 138 356
3 356 255 136
3 297 119 365
3 365 33 297
3 374 201 559
3 318 560 201
3 559 490 374
3 201 560 559
3 153 448 492
3 72 360 25
3 493 26 25
3 494 347 495
3 386 359 59
3 496 550 497
3 77 74 245
3 104 103 74
3 14 13 498
3 444 374 491
3 124 123 499
3 499 354 302
3 194 193 244
3 244 363 194
3 473 346 561
3 561 500 473
3 346 345 561
3 194 363 473
3 32 361 71
3 94 70 361
3 71 275 32
3 211 326 209
3 214 557 501
3 501 505 546
3 546 28 501
3 27 214 28
3 489 100 336
3 435 381 367
3 380 422 381
3 367 556 435
3 452 153 152
3 152 502 452
3 482 183 182
3 117 395 123
3 107 114 113
3 284 515 379
3 241 310 373
3 373 374 444
3 310 392 373
3 444 242 241
3 504 220 333
3 333 332 400
3 400 229 504
3 546 505 229
3 504 333 400
3 34 431 402
3 350 262 263
3 484 168 248
3 350 263 484
3 402 54 34
3 480 281 402
3 424 423 484
3 168 196 248
3 248 424 484
3 480 402 431
3 350 484 423
3 480 431 350
3 420 288 291
3 42 60 358
3 358 364 291
3 291 290 420
3 535 198 173
3 290 265 257
3 42 358 288
3 256 355 420
3 288 358 291
3 265 535 257
3 257 256 420
3 535 173 257
3 19 455 277
3 104 74 277
3 455 105 104
3 370 20 19
3 455 104 277
3 506 528 139
3 139 141 506
3 275 25 24
3 508 401 15
3 78 75 73
3 351 166 165
3 162 161 164
3 485 164 161
3 471 470 162
3 162 164 166
3 166 351 352
3 352 510 166
3 466 471 162
3 162 166 466
3 40 39 328
3 562 511 285
3 285 530 562
3 513 408 409
3 514 244 92
3 534 90 92
3 96 95 527
3 244 534 92
3 96 527 514
3 257 173 175
3 1 16 319
3 150 149 515
3 185 184 294
3 515 149 232
3 294 379 185
3 515 232 185
3 394 304 403
3 516 164 485
3 76 360 72
3 195 315 368
3 467 239 554
3 238 372 479
3 479 217 517
3 517 554 239
3 238 479 517
3 334 199 264
3 175 494 306
3 462 439 518
3 150 450 520
3 268 522 278
3 521 552 278
3 523 563 524
3 160 206 51
3 337 336 100
3 80 62 61
3 347 174 200
3 335 369 495
3 347 200 335
3 282 401 508
3 279 551 526
3 526 564 432
3 465 432 564
3 27 207 210
3 115 342 428
3 477 414 142
3 342 476 428
3 452 460 428
3 428 476 477
3 414 137 142
3 142 452 477
3 184 514 527
3 156 473 363
3 363 362 133
3 133 135 156
3 362 412 133
3 120 122 125
3 327 398 125
3 125 122 327
3 377 197 167
3 415 434 316
3 377 167 415
3 222 216 215
3 324 409 300
3 220 222 331
3 324 300 475
3 333 220 331
3 215 324 475
3 475 331 215
3 416 139 528
3 530 285 287
3 337 386 58
3 388 357 356
3 433 312 102
3 135 279 432
3 305 143 284
3 284 378 192
3 143 145 284
3 348 193 192
3 192 305 284
3 352 299 301
3 412 362 186
3 514 184 186
3 186 233 412
3 532 269 268
3 362 514 186
3 532 268 412
3 533 544 405
