ply
format ascii 1.0
comment Created by Blender 2.78 (sub 0) - www.blender.org, source file: ''
element vertex 565
property float x
property float y
property float z
property uchar red
property uchar green
property uchar blue
element face 928
property list uchar uint vertex_indices
end_header
-2.000000 -1.500000 0.500000 255 255 0
-2.500000 -1.000000 0.500000 255 255 0
-2.000000 -1.000000 0.000000 255 255 0
-1.500000 -1.000000 0.500000 255 255 0
2.000000 -1.500000 0.500000 255 255 0
1.500000 -1.000000 0.500000 255 255 0
2.000000 -1.000000 0.000000 255 255 0
2.500000 -1.000000 0.500000 255 255 0
-2.000000 1.000000 0.000000 255 255 0
-2.500000 1.000000 0.500000 255 255 0
-2.000000 1.500000 0.500000 255 255 0
-1.500000 1.000000 0.500000 255 255 0
2.000000 1.000000 0.000000 255 255 0
1.500000 1.000000 0.500000 255 255 0
2.000000 1.500000 0.500000 255 255 0
2.500000 1.000000 0.500000 255 255 0
-2.000000 -1.000000 1.000000 255 255 0
2.000000 -1.000000 1.000000 255 255 0
-2.500000 0.500000 1.000000 0 255 51
-2.500000 1.000000 1.500000 0 255 51
-2.500000 1.000000 1.000000 0 255 51
-1.500000 0.500000 1.000000 0 255 51
-1.500000 1.000000 1.000000 0 255 51
-1.500000 1.000000 1.500000 0 255 51
1.500000 0.500000 1.000000 0 255 51
1.500000 1.000000 1.500000 0 255 51
1.500000 1.000000 1.000000 0 255 51
0.000000 -3.500000 18.500000 255 204 102
1.000000 -3.500000 19.500000 255 204 102
-1.000000 -3.500000 19.500000 255 204 102
2.500000 0.500000 1.000000 0 255 51
2.500000 1.000000 1.000000 0 255 51
2.500000 1.000000 1.500000 0 255 51
-6.000000 -2.500000 4.500000 255 204 102
-6.500000 -2.000000 4.500000 255 204 102
-6.000000 -2.000000 4.000000 255 204 102
-4.500000 -2.000000 4.500000 255 204 102
-5.000000 -2.500000 4.500000 255 204 102
-5.000000 -2.000000 4.000000 255 204 102
5.000000 -2.500000 4.500000 255 204 102
4.500000 -2.000000 4.500000 255 204 102
5.000000 -2.000000 4.000000 255 204 102
6.500000 -2.000000 4.500000 255 204 102
6.000000 -2.500000 4.500000 255 204 102
6.000000 -2.000000 4.000000 255 204 102
-6.000000 -1.000000 4.000000 255 204 102
-1.000000 -1.500000 4.500000 0 255 51
-1.500000 -1.000000 4.500000 0 255 51
-1.000000 -1.000000 4.000000 0 255 51
1.500000 -1.000000 4.500000 0 255 51
1.000000 -1.500000 4.500000 0 255 51
1.000000 -1.000000 4.000000 0 255 51
6.000000 -1.000000 4.000000 255 204 102
-6.000000 0.000000 4.000000 255 204 102
-6.500000 0.000000 4.500000 255 204 102
-6.000000 0.500000 4.500000 255 204 102
-5.500000 0.000000 4.500000 255 204 102
6.000000 0.000000 4.000000 255 204 102
5.500000 0.000000 4.500000 255 204 102
6.000000 0.500000 4.500000 255 204 102
6.500000 0.000000 4.500000 255 204 102
-1.500000 0.000000 4.500000 0 255 51
-1.500000 0.000000 5.500000 0 255 51
-1.000000 1.000000 5.000000 0 255 51
-2.000000 0.500000 5.500000 0 255 51
-2.000000 0.500000 4.500000 0 255 51
-1.500000 1.000000 4.500000 0 255 51
1.500000 0.000000 4.500000 0 255 51
1.000000 1.000000 5.000000 0 255 51
1.500000 0.000000 5.500000 0 255 51
2.000000 0.500000 5.500000 0 255 51
2.000000 0.500000 4.500000 0 255 51
1.500000 1.000000 4.500000 0 255 51
-1.000000 2.000000 5.000000 0 255 51
-1.500000 2.000000 5.500000 0 255 51
1.000000 2.000000 5.000000 0 255 51
1.500000 2.000000 5.500000 0 255 51
-1.000000 2.500000 5.500000 0 255 51
1.000000 2.500000 5.500000 0 255 51
-1.000000 -1.000000 6.000000 0 255 51
-1.500000 -1.000000 5.500000 0 255 51
-1.000000 -1.500000 5.500000 0 255 51
1.500000 -1.000000 5.500000 0 255 51
1.000000 -1.000000 6.000000 0 255 51
1.000000 -1.500000 5.500000 0 255 51
-5.000000 1.000000 6.000000 255 204 102
-5.000000 0.000000 6.000000 255 204 102
-6.000000 1.000000 6.000000 255 204 102
-1.500000 0.500000 6.000000 0 255 51
-2.000000 0.500000 6.000000 0 255 51
-1.500000 0.500000 6.000000 255 51 51
-1.000000 0.250000 6.250000 255 51 51
-1.000000 0.500000 6.500000 255 51 51
1.500000 0.500000 6.000000 0 255 51
2.000000 0.500000 6.000000 0 255 51
1.500000 0.500000 6.000000 255 51 51
1.000000 0.500000 6.500000 255 51 51
1.000000 0.250000 6.250000 255 51 51
5.000000 1.000000 6.000000 255 204 102
6.000000 1.000000 6.000000 255 204 102
5.000000 0.000000 6.000000 255 204 102
-4.500000 1.000000 6.500000 255 204 102
-5.000000 1.500000 6.500000 255 204 102
-1.500000 1.500000 6.000000 0 255 51
-2.000000 1.500000 5.500000 0 255 51
-2.000000 1.500000 6.000000 0 255 51
-1.500000 1.500000 6.000000 255 51 51
-1.000000 1.500000 6.500000 255 51 51
-1.000000 1.750000 6.250000 255 51 51
1.500000 1.500000 6.000000 0 255 51
2.000000 1.500000 6.000000 0 255 51
2.000000 1.500000 5.500000 0 255 51
1.500000 1.500000 6.000000 255 51 51
1.000000 1.750000 6.250000 255 51 51
1.000000 1.500000 6.500000 255 51 51
4.500000 1.000000 6.500000 255 204 102
5.000000 1.500000 6.500000 255 204 102
-3.500000 -2.000000 6.500000 255 204 102
-4.000000 -2.000000 7.000000 255 204 102
-4.000000 -2.500000 6.500000 255 204 102
4.000000 -2.000000 7.000000 255 204 102
3.500000 -2.000000 6.500000 255 204 102
4.000000 -2.500000 6.500000 255 204 102
-4.000000 -1.000000 7.000000 255 204 102
-5.000000 -2.000000 7.000000 255 204 102
5.000000 -2.000000 7.000000 255 204 102
4.000000 -1.000000 7.000000 255 204 102
-2.000000 -2.500000 16.500000 255 204 102
0.000000 -2.500000 16.500000 255 204 102
-1.000000 -2.500000 17.500000 255 204 102
0.500000 -2.500000 21.000000 255 255 102
0.000000 -2.500000 21.500000 255 255 102
-0.500000 -2.500000 21.000000 255 255 102
1.000000 -0.500000 10.500000 255 51 51
1.000000 -1.500000 11.500000 255 51 51
0.000000 -0.500000 11.500000 255 51 51
5.000000 -1.000000 11.000000 255 204 102
4.500000 -1.000000 10.500000 255 204 102
5.000000 -1.500000 10.500000 255 204 102
-4.000000 -0.500000 11.500000 255 204 102
-5.000000 -0.500000 11.500000 255 204 102
-4.000000 0.000000 11.000000 255 204 102
4.500000 0.000000 10.500000 255 204 102
-3.500000 2.500000 11.000000 255 51 51
-3.250000 3.000000 10.750000 255 51 51
-3.000000 3.000000 11.000000 255 51 51
-3.500000 2.500000 11.000000 255 204 102
-3.750000 2.000000 10.750000 255 204 102
-4.000000 2.000000 11.000000 255 204 102
3.500000 2.500000 11.000000 255 51 51
3.000000 3.000000 11.000000 255 51 51
3.250000 3.000000 10.750000 255 51 51
3.500000 2.500000 11.000000 255 204 102
4.000000 2.000000 11.000000 255 204 102
3.750000 2.000000 10.750000 255 204 102
-1.000000 -1.500000 11.500000 255 51 51
-1.000000 -0.500000 10.500000 255 51 51
-0.500000 -2.000000 25.500000 255 255 102
-0.500000 2.000000 21.500000 255 255 102
-0.500000 -2.000000 21.500000 255 255 102
-1.000000 0.000000 4.000000 0 255 51
-0.500000 -1.500000 14.000000 255 204 102
-1.000000 -2.000000 14.000000 255 204 102
-1.000000 -1.750000 13.750000 255 204 102
0.500000 -1.500000 14.000000 255 204 102
1.000000 -1.750000 13.750000 255 204 102
1.000000 -2.000000 14.000000 255 204 102
-6.000000 0.000000 14.000000 255 204 102
-6.500000 0.000000 13.500000 255 204 102
-6.000000 -0.500000 13.500000 255 204 102
0.500000 2.500000 21.000000 255 255 102
-0.500000 2.500000 21.000000 255 255 102
0.000000 2.500000 21.500000 255 255 102
6.500000 0.000000 13.500000 255 204 102
6.000000 0.000000 14.000000 255 204 102
6.000000 -0.500000 13.500000 255 204 102
-2.500000 0.500000 14.000000 255 51 51
-3.000000 0.000000 14.000000 255 51 51
-2.750000 0.000000 14.250000 255 51 51
-1.500000 1.500000 14.000000 255 51 51
-1.833330 0.833333 14.333300 255 51 51
2.500000 0.500000 14.000000 255 51 51
2.750000 0.000000 14.250000 255 51 51
3.000000 0.000000 14.000000 255 51 51
2.500000 1.000000 8.500000 255 51 51
2.500000 2.000000 9.500000 255 51 51
2.500000 0.000000 9.500000 255 51 51
-1.000000 1.750000 14.250000 255 51 51
-1.000000 2.000000 14.000000 255 51 51
1.500000 1.500000 14.000000 255 51 51
1.000000 2.000000 14.000000 255 51 51
1.000000 1.750000 14.250000 255 51 51
-2.500000 2.000000 9.500000 255 51 51
-2.500000 1.000000 8.500000 255 51 51
-2.500000 0.000000 9.500000 255 51 51
-6.000000 2.500000 13.500000 255 204 102
-6.500000 2.000000 13.500000 255 204 102
-6.000000 2.000000 14.000000 255 204 102
6.500000 2.000000 13.500000 255 204 102
6.000000 2.500000 13.500000 255 204 102
6.000000 2.000000 14.000000 255 204 102
-1.000000 1.500000 14.500000 255 204 102
-1.000000 1.500000 15.500000 255 204 102
0.000000 1.500000 14.500000 255 204 102
1.000000 1.500000 14.500000 255 204 102
1.000000 1.500000 15.500000 255 204 102
1.000000 0.000000 4.000000 0 255 51
0.000000 -4.500000 17.500000 255 204 102
-0.500000 -4.000000 17.500000 255 204 102
0.000000 -4.000000 17.000000 255 204 102
0.500000 -4.000000 17.500000 255 204 102
-0.500000 -3.000000 17.500000 255 204 102
-0.500000 -3.000000 18.500000 255 204 102
0.500000 -3.000000 17.500000 255 204 102
0.500000 -3.000000 18.500000 255 204 102
2.000000 -2.500000 16.500000 255 204 102
1.000000 -2.500000 17.500000 255 204 102
-1.500000 -1.500000 18.000000 255 204 102
-1.500000 -2.000000 17.500000 255 204 102
-1.500000 -2.000000 18.000000 255 204 102
1.500000 -1.500000 18.000000 255 204 102
1.500000 -2.000000 18.000000 255 204 102
1.500000 -2.000000 17.500000 255 204 102
0.500000 2.000000 21.500000 255 255 102
0.500000 -2.000000 25.500000 255 255 102
0.500000 -2.000000 21.500000 255 255 102
1.833330 0.833333 14.333300 255 51 51
0.000000 -2.000000 26.000000 255 255 102
0.000000 -2.500000 25.500000 255 255 102
1.500000 -1.000000 18.500000 255 204 102
2.500000 2.000000 17.500000 255 204 102
1.500000 2.000000 18.500000 255 204 102
-2.500000 0.000000 14.500000 255 204 102
-2.500000 -3.000000 14.500000 255 204 102
-1.000000 -4.500000 15.500000 255 204 102
-2.500000 -3.000000 15.500000 255 204 102
2.500000 1.000000 6.000000 255 51 51
2.000000 0.500000 8.500000 255 51 51
2.000000 0.500000 6.000000 255 51 51
-3.750000 0.000000 10.750000 255 51 51
-3.750000 2.000000 10.750000 255 51 51
2.000000 1.500000 6.000000 255 51 51
2.500000 0.000000 14.500000 255 204 102
3.750000 -0.750000 11.500000 255 51 51
3.000000 -1.500000 13.500000 255 51 51
3.000000 -1.500000 11.500000 255 51 51
-0.750000 -2.750000 18.500000 204 255 255
-1.500000 -2.000000 18.000000 204 255 255
-0.750000 -2.750000 18.000000 204 255 255
-6.000000 -0.500000 11.500000 255 204 102
-6.500000 -1.000000 10.500000 255 204 102
-6.000000 -1.500000 10.500000 255 204 102
2.000000 -2.000000 14.000000 255 204 102
2.500000 -1.500000 14.000000 255 204 102
2.500000 -1.000000 14.500000 255 204 102
6.000000 1.500000 7.500000 255 204 102
6.500000 3.000000 9.500000 255 204 102
6.500000 1.000000 7.500000 255 204 102
6.000000 -2.500000 6.500000 255 204 102
-5.000000 -1.000000 6.000000 255 204 102
-4.000000 -1.000000 6.000000 255 204 102
-4.000000 -2.000000 6.000000 255 204 102
-5.500000 0.000000 5.500000 255 204 102
-2.000000 1.500000 6.000000 255 51 51
-2.500000 1.000000 6.000000 255 51 51
2.750000 -1.000000 14.250000 255 51 51
-2.000000 0.500000 1.500000 0 255 51
-2.000000 0.250000 1.250000 0 255 51
0.750000 -2.750000 18.500000 204 255 255
1.500000 -2.000000 18.000000 204 255 255
1.500000 -2.000000 18.500000 204 255 255
3.500000 -0.500000 11.000000 255 204 102
3.750000 0.000000 10.750000 255 204 102
4.000000 0.000000 11.000000 255 204 102
-1.500000 2.000000 18.500000 255 204 102
-1.000000 2.500000 20.500000 255 204 102
-1.000000 2.500000 18.500000 255 204 102
-4.500000 -1.000000 10.500000 255 204 102
-2.000000 -2.000000 14.000000 255 204 102
-2.000000 -3.000000 14.000000 255 204 102
5.000000 -0.500000 8.500000 255 204 102
4.500000 -1.000000 9.500000 255 204 102
4.500000 0.000000 8.500000 255 204 102
-6.500000 1.000000 6.500000 255 204 102
-6.000000 0.500000 5.500000 255 204 102
-1.000000 0.250000 6.250000 0 255 51
1.000000 0.000000 6.000000 0 255 51
1.000000 0.250000 6.250000 0 255 51
0.000000 -0.500000 13.500000 255 51 51
-1.000000 -1.500000 13.500000 255 51 51
-3.000000 -1.500000 11.500000 255 51 51
-3.750000 -0.750000 13.500000 255 51 51
-3.750000 -0.750000 11.500000 255 51 51
1.500000 -1.500000 19.000000 204 255 255
1.500000 -1.500000 18.000000 204 255 255
4.000000 -0.500000 13.500000 255 204 102
5.000000 -1.500000 9.500000 255 204 102
-6.000000 -0.500000 8.500000 255 204 102
-6.500000 -2.000000 6.500000 255 204 102
-6.000000 -2.500000 6.500000 255 204 102
0.000000 -3.000000 17.000000 255 204 102
5.000000 1.500000 7.500000 255 204 102
1.000000 2.500000 20.500000 255 204 102
0.750000 2.000000 21.250000 255 204 102
1.500000 2.000000 20.500000 255 204 102
-0.750000 2.000000 21.250000 255 255 102
-0.750000 -2.000000 21.250000 255 255 102
6.000000 -1.500000 9.500000 255 204 102
6.500000 -1.000000 10.500000 255 204 102
6.000000 -1.500000 10.500000 255 204 102
1.000000 -4.000000 14.000000 255 204 102
2.500000 -3.000000 14.500000 255 204 102
1.000000 -4.500000 14.500000 255 204 102
1.000000 1.750000 6.250000 0 255 51
-1.000000 1.750000 6.250000 0 255 51
3.000000 3.500000 13.500000 255 51 51
-3.000000 3.000000 14.000000 255 51 51
3.000000 3.000000 14.000000 255 51 51
0.750000 -2.750000 18.000000 255 204 102
-4.500000 -2.000000 5.500000 255 204 102
0.750000 -2.000000 21.250000 255 204 102
-3.750000 2.750000 12.500000 255 204 102
-4.000000 2.500000 13.500000 255 204 102
-3.750000 2.750000 13.500000 255 204 102
-4.500000 0.000000 6.500000 255 204 102
-3.500000 -1.000000 6.500000 255 204 102
-1.000000 0.000000 6.000000 0 255 51
4.500000 0.000000 6.500000 255 204 102
3.500000 -1.000000 6.500000 255 204 102
-1.500000 -2.000000 20.500000 255 204 102
-0.750000 2.000000 21.250000 255 204 102
-1.500000 2.000000 20.500000 255 204 102
-1.500000 1.000000 1.000000 255 255 0
-2.000000 1.500000 1.000000 255 255 0
-1.500000 0.000000 0.500000 255 255 0
6.000000 3.500000 11.500000 255 204 102
4.000000 2.500000 12.500000 255 204 102
6.000000 2.500000 12.500000 255 204 102
4.500000 -2.000000 5.500000 255 204 102
5.000000 -2.500000 5.500000 255 204 102
-2.750000 -1.000000 14.250000 255 204 102
-2.750000 0.000000 14.250000 255 204 102
-2.000000 1.500000 4.500000 0 255 51
-2.500000 0.500000 1.000000 255 255 0
-2.500000 0.000000 0.500000 255 255 0
1.000000 2.500000 18.500000 255 204 102
0.000000 2.500000 15.500000 255 204 102
-3.750000 2.750000 13.500000 255 51 51
-3.000000 3.500000 13.500000 255 51 51
-2.000000 2.500000 9.500000 255 51 51
3.000000 2.500000 10.500000 255 51 51
2.000000 2.500000 9.500000 255 51 51
-4.000000 2.000000 14.000000 255 204 102
2.500000 -3.000000 15.500000 255 204 102
1.000000 -4.500000 15.500000 255 204 102
-1.000000 1.750000 14.250000 255 204 102
1.000000 1.750000 14.250000 255 204 102
-2.000000 0.000000 1.000000 255 255 0
1.500000 0.000000 0.500000 255 255 0
1.500000 -2.500000 19.000000 204 255 255
2.000000 -3.000000 16.000000 255 204 102
-2.000000 -3.000000 16.000000 255 204 102
2.750000 0.000000 14.250000 255 204 102
2.750000 -1.000000 14.250000 255 204 102
-2.500000 -1.000000 17.500000 255 204 102
6.500000 3.000000 11.500000 255 204 102
2.000000 0.500000 1.500000 0 255 51
-1.500000 -1.000000 18.500000 255 204 102
-2.500000 2.000000 17.500000 255 204 102
4.000000 -0.500000 11.500000 255 204 102
6.000000 -0.500000 11.500000 255 204 102
6.000000 -0.500000 8.500000 255 204 102
6.500000 -1.000000 9.500000 255 204 102
2.000000 0.000000 1.000000 255 255 0
2.500000 0.500000 1.000000 255 255 0
2.000000 0.250000 1.250000 255 255 0
-5.000000 -2.500000 5.500000 255 204 102
-6.500000 -1.000000 9.500000 255 204 102
-6.500000 0.000000 8.500000 255 204 102
3.750000 2.750000 13.500000 255 204 102
3.750000 2.750000 12.500000 255 204 102
2.000000 0.250000 1.250000 0 255 51
-5.000000 1.500000 7.500000 255 204 102
-3.000000 3.500000 12.500000 255 51 51
-3.750000 2.750000 12.500000 255 51 51
3.500000 3.500000 11.000000 255 51 51
3.750000 2.750000 12.500000 255 51 51
3.750000 2.750000 13.500000 255 51 51
-4.500000 -1.000000 7.500000 255 204 102
-5.000000 -0.500000 8.500000 255 204 102
-1.833330 0.833333 14.333300 255 204 102
-1.500000 1.500000 14.000000 255 204 102
-3.500000 3.500000 11.000000 255 51 51
-3.000000 3.500000 11.500000 255 51 51
6.000000 3.500000 9.500000 255 204 102
2.000000 1.500000 1.000000 255 255 0
1.500000 1.000000 1.000000 255 255 0
4.500000 2.000000 10.500000 255 204 102
-5.000000 -1.500000 9.500000 255 204 102
-6.000000 -1.500000 9.500000 255 204 102
-4.500000 2.000000 10.500000 255 204 102
-4.500000 0.000000 8.500000 255 204 102
-0.750000 -2.750000 18.000000 255 204 102
2.000000 1.500000 4.500000 0 255 51
2.500000 1.000000 6.000000 0 255 51
6.500000 1.000000 6.500000 255 204 102
6.000000 0.500000 5.500000 255 204 102
-5.000000 3.500000 9.500000 255 204 102
-6.000000 1.500000 7.500000 255 204 102
-6.000000 3.500000 9.500000 255 204 102
4.000000 2.000000 14.000000 255 204 102
4.000000 2.500000 13.500000 255 204 102
-4.000000 -0.500000 13.500000 255 204 102
-6.500000 2.000000 12.500000 255 204 102
-6.000000 2.500000 12.500000 255 204 102
-5.000000 -1.500000 10.500000 255 204 102
6.000000 1.500000 6.500000 255 204 102
3.250000 3.000000 10.750000 255 204 102
3.750000 -0.750000 11.500000 255 204 102
3.750000 -0.750000 13.500000 255 204 102
2.000000 -3.000000 14.000000 255 204 102
-3.500000 3.500000 12.000000 255 51 51
5.500000 -1.000000 4.500000 255 204 102
4.500000 -1.000000 7.500000 255 204 102
3.833330 2.833330 12.333300 255 204 102
4.000000 3.500000 11.500000 255 204 102
5.500000 0.000000 5.500000 255 204 102
6.500000 2.000000 12.500000 255 204 102
-2.500000 1.000000 1.000000 255 255 0
1.500000 0.500000 1.000000 255 255 0
0.166667 -0.833333 13.666700 255 204 102
0.000000 -1.000000 14.000000 255 204 102
0.000000 -0.750000 13.750000 255 204 102
-1.000000 -2.500000 20.500000 255 204 102
1.000000 -2.500000 20.500000 255 204 102
0.750000 2.000000 21.250000 255 255 102
-2.000000 -0.500000 9.500000 255 51 51
2.000000 -0.500000 9.500000 255 51 51
3.750000 0.000000 10.750000 255 51 51
3.750000 2.000000 10.750000 255 51 51
-4.500000 -1.000000 9.500000 255 204 102
5.000000 -1.000000 6.000000 255 204 102
3.500000 2.500000 14.000000 255 204 102
2.500000 0.000000 0.500000 255 255 0
3.000000 -1.000000 14.000000 255 51 51
3.750000 -0.750000 13.500000 255 51 51
3.500000 -0.500000 14.000000 255 51 51
-5.500000 -1.000000 4.500000 255 204 102
-3.000000 -0.500000 10.500000 255 51 51
0.833333 -2.833330 18.666700 255 204 102
-6.000000 3.500000 11.500000 255 204 102
-4.000000 3.500000 11.500000 255 204 102
-3.750000 0.000000 10.750000 255 204 102
-2.500000 0.000000 15.500000 255 204 102
-2.500000 -1.000000 14.500000 255 204 102
-3.250000 3.000000 10.750000 255 204 102
2.000000 2.500000 17.500000 255 204 102
-1.500000 0.500000 1.000000 255 255 0
-2.000000 0.250000 1.250000 255 255 0
5.000000 3.500000 9.500000 255 204 102
4.500000 3.000000 9.500000 255 204 102
3.500000 3.500000 11.000000 255 204 102
4.000000 -1.000000 6.000000 255 204 102
-3.000000 -1.500000 13.500000 255 51 51
-6.000000 1.500000 6.500000 255 204 102
-3.000000 -1.000000 14.000000 255 51 51
-2.500000 -1.500000 14.000000 255 51 51
4.000000 -2.000000 6.000000 255 204 102
-4.000000 2.500000 12.500000 255 204 102
1.500000 -2.000000 20.500000 255 204 102
-5.500000 -1.000000 5.500000 255 204 102
-6.500000 1.000000 7.500000 255 204 102
-6.500000 0.000000 5.500000 255 204 102
-1.000000 -4.500000 14.500000 255 204 102
-6.500000 0.000000 11.500000 255 204 102
2.500000 1.000000 1.000000 255 255 0
-2.750000 -1.000000 14.250000 255 51 51
-6.500000 3.000000 9.500000 255 204 102
-2.500000 1.000000 6.000000 0 255 51
-3.500000 -0.500000 14.000000 255 204 102
-4.000000 0.000000 14.000000 255 204 102
5.500000 -1.000000 5.500000 255 204 102
-0.750000 -2.000000 21.250000 255 204 102
-6.500000 3.000000 11.500000 255 204 102
6.500000 0.000000 11.500000 255 204 102
3.500000 -0.500000 14.000000 255 204 102
2.500000 -1.750000 13.750000 255 51 51
1.000000 -1.500000 13.500000 255 51 51
-2.500000 -1.500000 14.000000 255 204 102
-1.500000 -2.000000 18.500000 204 255 255
-1.500000 -1.500000 18.000000 204 255 255
-2.000000 2.500000 17.500000 255 204 102
-1.500000 -2.500000 19.000000 204 255 255
-0.833333 -2.833330 18.666700 204 255 255
-2.500000 -1.750000 13.750000 255 51 51
-1.000000 -1.750000 13.750000 255 51 51
1.500000 -1.500000 19.000000 255 204 102
-1.500000 -1.500000 19.000000 255 204 102
0.500000 -1.500000 14.000000 255 51 51
0.166667 -0.833333 13.666700 255 51 51
-2.000000 1.500000 1.000000 0 255 51
-0.833333 -2.833330 18.666700 255 204 102
-1.500000 -3.000000 19.500000 255 204 102
-1.500000 -2.500000 19.000000 255 204 102
1.000000 -4.000000 16.000000 255 204 102
6.500000 -2.000000 6.500000 255 204 102
6.500000 0.000000 8.500000 255 204 102
3.000000 3.500000 12.500000 255 51 51
3.500000 3.500000 12.000000 255 51 51
-0.166667 -0.833333 13.666700 255 204 102
-2.000000 1.500000 8.500000 255 51 51
-3.750000 -0.750000 13.500000 255 204 102
-3.750000 -0.750000 11.500000 255 204 102
2.000000 1.500000 1.000000 0 255 51
2.500000 0.500000 14.000000 255 204 102
1.833330 0.833333 14.333300 255 204 102
4.000000 0.000000 14.000000 255 204 102
3.000000 -0.500000 10.500000 255 51 51
-0.166667 -0.833333 13.666700 255 51 51
4.500000 1.000000 7.500000 255 204 102
0.750000 -2.000000 21.250000 255 255 102
-1.000000 -4.000000 14.000000 255 204 102
-0.500000 -2.500000 21.000000 255 204 102
0.500000 -2.500000 21.000000 255 204 102
2.500000 -1.000000 17.500000 255 204 102
-3.500000 2.500000 14.000000 255 204 102
2.500000 -1.750000 13.750000 255 204 102
-3.833330 2.833330 12.333300 255 204 102
2.500000 0.000000 15.500000 255 204 102
2.000000 1.500000 8.500000 255 51 51
-1.000000 -4.000000 16.000000 255 204 102
-3.500000 -0.500000 11.000000 255 204 102
-3.500000 3.500000 11.000000 255 204 102
-4.500000 3.000000 9.500000 255 204 102
3.500000 -0.500000 11.000000 255 51 51
-2.000000 0.500000 6.000000 255 51 51
-2.000000 0.500000 8.500000 255 51 51
0.750000 -2.750000 18.000000 204 255 255
0.500000 2.500000 21.000000 255 204 102
0.750000 -2.750000 18.500000 255 204 102
-0.500000 2.500000 21.000000 255 204 102
-3.500000 2.500000 14.000000 255 51 51
-3.000000 2.500000 10.500000 255 51 51
0.833333 -2.833330 18.666700 204 255 255
-4.500000 1.000000 7.500000 255 204 102
3.000000 3.500000 11.500000 255 51 51
-2.500000 0.500000 14.000000 255 204 102
-0.750000 -2.750000 18.500000 255 204 102
6.500000 0.000000 5.500000 255 204 102
-3.833330 2.833330 12.333300 255 51 51
3.500000 3.500000 12.000000 255 204 102
2.500000 -1.500000 14.000000 255 51 51
-3.500000 -0.500000 11.000000 255 51 51
-2.500000 -1.750000 13.750000 255 204 102
1.500000 -2.500000 19.000000 255 204 102
1.500000 -3.000000 19.500000 255 204 102
-3.500000 3.500000 12.000000 255 204 102
-3.500000 -0.500000 14.000000 255 51 51
1.000000 -1.750000 13.750000 255 51 51
-1.500000 -1.500000 19.000000 204 255 255
3.500000 2.500000 14.000000 255 51 51
0.000000 -0.750000 13.750000 255 51 51
3.833330 2.833330 12.333300 255 51 51
1.500000 1.500000 14.000000 255 204 102
-0.500000 -1.500000 14.000000 255 51 51
3 0 1 2
3 3 0 2
3 4 5 6
3 7 4 6
3 8 9 10
3 11 8 10
3 12 13 14
3 15 12 14
3 1 0 16
3 16 0 3
3 17 5 4
3 7 17 4
3 18 19 20
3 21 22 23
3 24 25 26
3 27 28 29
3 30 31 32
3 33 34 35
3 36 37 38
3 39 40 41
3 42 43 44
3 35 45 38
3 46 47 48
3 49 50 51
3 44 41 52
3 53 54 55
3 56 53 55
3 57 58 59
3 60 57 59
3 61 62 63
3 62 64 63
3 64 65 63
3 63 65 66
3 67 68 69
3 69 68 70
3 70 68 71
3 68 72 71
3 73 63 74
3 75 76 68
3 73 74 77
3 76 75 78
3 79 80 81
3 82 83 84
3 85 86 87
3 88 89 64
3 90 91 92
3 93 70 94
3 95 96 97
3 98 99 100
3 101 85 102
3 103 104 105
3 106 107 108
3 109 110 111
3 112 113 114
3 98 115 116
3 117 118 119
3 120 121 122
3 118 123 124
3 120 125 126
3 127 128 129
3 130 131 132
3 133 134 135
3 136 137 138
3 139 140 141
3 137 136 142
3 143 144 145
3 146 147 148
3 149 150 151
3 152 153 154
3 155 156 135
3 157 158 159
3 61 63 160
3 161 162 163
3 164 165 166
3 167 168 169
3 170 171 172
3 173 174 175
3 176 177 178
3 179 176 180
3 181 182 183
3 184 185 186
3 179 187 188
3 189 190 191
3 192 193 194
3 195 196 197
3 198 199 200
3 201 202 203
3 204 203 205
3 68 67 206
3 207 208 209
3 210 207 209
3 211 208 212
3 213 214 210
3 128 215 216
3 217 218 219
3 220 221 222
3 223 224 225
3 189 226 181
3 227 157 228
3 224 227 228
3 229 230 231
3 232 202 201
3 233 234 235
3 236 237 238
3 192 239 240
3 241 184 236
3 205 242 204
3 80 46 81
3 243 244 245
3 246 247 248
3 249 250 251
3 252 253 254
3 97 92 91
3 255 256 257
3 42 258 43
3 259 260 261
3 259 262 86
3 193 263 264
3 265 183 182
3 266 18 267
3 268 269 270
3 271 272 273
3 274 275 276
3 140 277 141
3 233 278 279
3 280 281 282
3 283 87 284
3 285 286 287
3 155 288 289
3 290 291 292
3 293 270 294
3 174 295 175
3 137 296 138
3 266 66 65
3 297 298 299
3 300 210 209
3 115 301 116
3 302 303 304
3 159 305 306
3 307 308 309
3 310 311 312
3 313 77 314
3 315 316 317
3 318 216 221
3 261 119 319
3 320 304 303
3 321 322 323
3 260 324 325
3 62 79 326
3 126 327 328
3 329 330 331
3 332 10 333
3 8 11 334
3 335 336 337
3 338 39 339
3 54 284 55
3 340 232 341
3 342 63 66
3 343 9 344
3 260 117 261
3 276 345 346
3 347 316 348
3 349 350 351
3 322 197 352
3 85 324 86
3 312 353 354
3 355 203 356
3 37 35 38
3 16 334 357
3 6 358 12
3 359 268 270
3 360 128 361
3 8 2 344
3 362 254 363
3 364 235 127
3 337 365 335
3 339 43 258
3 86 284 87
3 366 30 32
3 367 368 364
3 44 52 42
3 369 136 370
3 371 372 307
3 373 374 375
3 37 319 376
3 297 377 378
3 379 336 380
3 327 98 100
3 324 123 325
3 33 37 376
3 172 224 223
3 366 24 381
3 382 101 102
3 347 383 384
3 344 16 357
3 150 385 151
3 386 315 387
3 124 388 389
3 390 201 391
3 145 392 393
3 301 394 255
3 395 13 396
3 397 273 153
3 297 398 399
3 400 277 401
3 27 210 214
3 168 197 196
3 131 224 228
3 402 129 211
3 403 404 32
3 77 75 73
3 99 405 406
3 407 408 409
3 410 199 411
3 169 140 412
3 413 195 414
3 157 131 228
3 249 415 140
3 255 405 416
3 417 397 152
3 418 295 419
3 252 311 420
3 77 74 314
3 421 384 383
3 422 57 52
3 280 282 423
3 58 406 59
3 358 17 373
3 71 25 366
3 424 336 425
3 68 403 72
3 398 277 415
3 406 60 59
3 422 426 58
3 199 427 337
3 333 9 428
3 174 198 200
3 373 429 358
3 27 208 207
3 430 431 432
3 433 28 434
3 296 371 307
3 412 167 169
3 225 435 223
3 436 237 437
3 438 185 439
3 389 440 398
3 426 441 100
3 411 442 410
3 357 343 344
3 300 216 213
3 443 6 12
3 444 445 446
3 53 447 45
3 194 436 448
3 32 404 71
3 319 259 261
3 336 199 337
3 69 70 93
3 278 163 162
3 46 51 50
3 28 214 449
3 407 450 451
3 141 147 452
3 116 255 416
3 453 454 235
3 206 49 51
3 108 114 113
3 400 455 146
3 456 231 230
3 357 457 458
3 459 460 461
3 422 41 40
3 262 447 56
3 142 369 273
3 327 462 328
3 463 155 289
3 85 464 102
3 465 463 466
3 122 467 338
3 63 75 68
3 468 450 414
3 320 434 469
3 36 470 319
3 284 56 55
3 471 472 378
3 81 50 84
3 462 441 467
3 473 310 312
3 414 322 468
3 121 462 467
3 474 169 168
3 63 206 160
3 475 14 395
3 178 465 476
3 250 399 251
3 43 41 44
3 408 477 409
3 104 342 478
3 118 325 123
3 34 54 45
3 330 275 331
3 17 443 373
3 412 479 480
3 141 400 148
3 370 173 175
3 40 481 422
3 433 482 329
3 483 409 477
3 154 273 272
3 119 118 124
3 370 308 484
3 234 312 354
3 374 15 475
3 429 13 358
3 461 425 459
3 295 485 419
3 304 345 302
3 486 487 244
3 338 441 481
3 109 111 76
3 310 162 166
3 488 454 340
3 489 490 247
3 83 81 84
3 92 96 237
3 335 256 394
3 346 202 491
3 464 382 102
3 33 298 34
3 492 246 493
3 69 49 67
3 494 289 495
3 288 134 487
3 483 414 450
3 185 351 350
3 316 188 190
3 469 496 304
3 48 206 51
3 191 188 187
3 497 331 367
3 283 408 464
3 484 256 365
3 64 478 65
3 487 498 499
3 457 11 332
3 23 22 500
3 83 69 286
3 501 502 503
3 504 234 354
3 99 116 416
3 371 505 506
3 507 393 383
3 386 508 507
3 431 509 432
3 266 21 23
3 208 300 209
3 328 120 126
3 351 510 349
3 171 305 158
3 511 139 512
3 513 26 25
3 242 514 515
3 326 83 286
3 410 516 200
3 326 88 62
3 517 134 133
3 288 518 289
3 519 282 397
3 134 244 487
3 156 290 448
3 225 130 520
3 447 38 45
3 350 145 150
3 156 436 133
3 47 62 61
3 371 280 125
3 521 233 279
3 352 167 480
3 522 434 523
3 524 222 215
3 317 387 315
3 159 132 131
3 322 525 323
3 47 160 48
3 274 491 368
3 252 165 526
3 370 295 369
3 468 527 451
3 100 406 426
3 230 528 205
3 107 510 529
3 138 307 309
3 251 398 415
3 353 254 528
3 360 530 504
3 129 300 211
3 349 510 192
3 50 82 84
3 141 531 139
3 532 455 533
3 517 438 534
3 193 535 536
3 229 524 230
3 232 453 202
3 233 473 234
3 236 184 237
3 192 194 239
3 241 529 184
3 205 528 242
3 80 47 46
3 243 445 244
3 246 489 247
3 249 474 250
3 252 526 253
3 253 363 254
3 97 96 92
3 255 394 256
3 42 505 258
3 259 86 260
3 259 470 262
3 193 510 263
3 265 444 183
3 266 19 18
3 268 537 269
3 273 369 271
3 418 271 369
3 274 331 275
3 140 415 277
3 233 454 278
3 280 296 281
3 284 472 283
3 283 464 87
3 285 326 286
3 155 135 288
3 290 463 291
3 293 359 270
3 270 269 294
3 174 516 295
3 137 281 296
3 266 23 66
3 297 378 298
3 300 213 210
3 115 519 301
3 302 538 303
3 159 158 305
3 307 372 308
3 310 420 311
3 313 78 77
3 315 348 316
3 222 221 216
3 318 539 214
3 213 216 318
3 318 214 213
3 376 319 119
3 261 117 119
3 320 469 304
3 321 468 322
3 260 86 324
3 62 80 79
3 126 423 327
3 329 482 330
3 332 11 10
3 334 3 2
3 2 8 334
3 335 425 336
3 338 40 39
3 54 472 284
3 340 454 232
3 342 74 63
3 343 428 9
3 260 325 117
3 276 275 345
3 540 538 302
3 345 456 346
3 540 302 275
3 346 491 276
3 275 302 345
3 347 541 316
3 349 542 350
3 322 195 197
3 85 101 324
3 312 311 353
3 204 356 203
3 355 201 203
3 37 33 35
3 16 3 334
3 13 12 358
3 6 5 358
3 359 543 268
3 127 361 128
3 360 215 128
3 1 344 2
3 9 8 344
3 362 242 254
3 217 367 364
3 235 234 530
3 235 530 361
3 217 364 218
3 127 129 218
3 218 364 127
3 235 361 127
3 337 427 365
3 339 39 43
3 258 122 339
3 86 262 284
3 366 381 30
3 367 274 368
3 60 42 52
3 52 57 60
3 309 370 136
3 136 138 309
3 371 506 372
3 373 443 374
3 37 36 319
3 297 399 377
3 379 411 336
3 327 115 98
3 324 388 123
3 299 33 376
3 376 119 299
3 435 170 223
3 172 227 224
3 223 170 172
3 366 25 24
3 382 544 101
3 347 348 383
3 344 1 16
3 150 545 385
3 386 507 315
3 124 123 388
3 388 401 389
3 390 546 232
3 341 232 546
3 201 355 391
3 390 232 201
3 145 144 392
3 301 459 394
3 395 14 13
3 397 142 273
3 297 389 398
3 388 324 544
3 544 533 400
3 324 101 544
3 277 440 401
3 401 388 544
3 544 400 401
3 27 207 210
3 168 167 197
3 131 225 224
3 211 212 402
3 402 219 129
3 212 547 402
3 219 218 129
3 403 76 111
3 111 110 404
3 32 31 513
3 111 404 403
3 32 513 403
3 77 78 75
3 548 406 405
3 99 416 405
3 407 382 408
3 410 200 199
3 139 412 140
3 169 249 140
3 413 196 195
3 157 159 131
3 249 251 415
3 255 257 405
3 153 152 397
3 417 460 397
3 418 369 295
3 252 254 311
3 103 314 74
3 74 104 103
3 421 549 384
3 422 58 57
3 125 280 423
3 423 126 125
3 58 426 406
3 358 5 17
3 71 72 25
3 424 380 336
3 425 550 424
3 68 76 403
3 398 440 277
3 406 548 60
3 422 481 426
3 199 198 427
3 333 10 9
3 174 173 198
3 373 375 429
3 27 212 208
3 430 164 431
3 433 29 28
3 296 280 371
3 412 480 167
3 225 520 435
3 436 536 237
3 438 186 185
3 389 401 440
3 426 481 441
3 411 379 442
3 357 458 343
3 300 128 216
3 12 15 443
3 443 7 6
3 444 265 551
3 551 486 244
3 244 445 444
3 444 551 244
3 53 56 447
3 448 290 552
3 552 239 448
3 290 292 552
3 536 436 194
3 194 193 536
3 448 239 194
3 70 71 404
3 366 32 71
3 404 94 70
3 319 470 259
3 336 411 199
3 93 287 286
3 286 69 93
3 278 553 163
3 46 48 51
3 554 555 449
3 28 27 214
3 214 539 449
3 449 555 28
3 556 532 451
3 407 409 450
3 451 532 407
3 141 148 147
3 116 301 255
3 235 364 453
3 453 232 454
3 364 368 453
3 454 233 235
3 206 67 49
3 108 107 114
3 146 148 400
3 400 533 455
3 456 345 231
3 357 334 457
3 459 301 460
3 460 417 461
3 301 519 460
3 422 52 41
3 262 470 447
3 142 136 369
3 327 100 462
3 463 290 155
3 85 87 464
3 494 466 463
3 465 557 291
3 466 476 465
3 291 463 465
3 338 339 122
3 122 121 467
3 63 73 75
3 468 451 450
3 555 469 434
3 320 523 434
3 434 28 555
3 36 447 470
3 284 262 56
3 413 483 474
3 471 283 472
3 483 477 474
3 168 196 413
3 377 250 474
3 474 168 413
3 477 471 378
3 472 54 34
3 34 298 472
3 378 377 474
3 472 298 378
3 378 474 477
3 81 46 50
3 462 100 441
3 473 521 310
3 414 195 322
3 121 328 462
3 474 249 169
3 63 68 206
3 475 15 14
3 178 177 465
3 250 377 399
3 43 39 41
3 408 471 477
3 104 74 342
3 342 500 19
3 19 478 342
3 500 20 19
3 478 105 104
3 118 117 325
3 53 45 54
3 35 34 45
3 330 540 275
3 17 7 443
3 412 511 479
3 141 277 400
3 370 484 173
3 40 338 481
3 329 502 433
3 433 522 482
3 502 29 433
3 483 450 409
3 154 153 273
3 389 297 124
3 299 119 124
3 124 297 299
3 370 309 308
3 234 473 312
3 374 443 15
3 429 396 13
3 394 459 335
3 461 550 425
3 425 335 459
3 295 516 485
3 304 231 345
3 486 558 487
3 338 467 441
3 76 78 313
3 313 109 76
3 252 420 166
3 310 521 162
3 279 278 162
3 161 431 164
3 521 279 162
3 162 161 164
3 166 420 310
3 162 164 166
3 488 553 278
3 278 454 488
3 489 492 559
3 559 490 489
3 83 79 81
3 237 536 92
3 535 90 92
3 96 95 238
3 536 535 92
3 96 238 237
3 335 365 256
3 368 491 202
3 346 203 202
3 202 453 368
3 464 408 382
3 33 299 298
3 492 489 246
3 69 82 49
3 494 463 289
3 288 135 134
3 483 413 414
3 150 149 350
3 185 184 529
3 350 149 439
3 529 351 185
3 350 439 185
3 189 560 317
3 183 444 446
3 446 560 183
3 317 316 190
3 541 557 177
3 177 176 541
3 557 465 177
3 183 560 181
3 190 189 317
3 541 176 179
3 541 179 316
3 181 560 189
3 179 188 316
3 231 304 229
3 469 555 554
3 496 220 229
3 469 554 496
3 229 304 496
3 48 160 206
3 191 190 188
3 497 503 329
3 502 329 503
3 331 274 367
3 367 217 497
3 497 329 331
3 283 471 408
3 257 256 506
3 427 198 173
3 256 484 506
3 548 405 257
3 42 60 548
3 506 505 548
3 308 372 506
3 427 173 484
3 484 308 506
3 505 42 548
3 548 257 506
3 427 484 365
3 266 65 19
3 64 89 478
3 478 19 65
3 288 487 499
3 558 498 487
3 499 561 288
3 457 334 11
3 500 342 23
3 66 23 342
3 83 82 69
3 501 547 212
3 212 27 29
3 29 502 501
3 501 212 29
3 504 530 234
3 99 98 116
3 371 258 505
3 507 508 545
3 508 385 545
3 348 315 507
3 392 421 393
3 383 348 507
3 507 545 393
3 393 421 383
3 386 562 508
3 431 161 509
3 266 267 21
3 208 211 300
3 328 121 120
3 351 529 510
3 157 227 158
3 172 171 158
3 158 227 172
3 511 412 139
3 25 72 403
3 403 513 25
3 563 356 204
3 204 242 515
3 362 514 242
3 515 563 204
3 326 79 83
3 410 442 485
3 516 174 200
3 410 485 516
3 64 62 88
3 326 285 88
3 517 245 134
3 288 561 518
3 518 564 289
3 495 289 564
3 137 142 281
3 397 460 519
3 519 115 327
3 327 423 282
3 282 281 142
3 142 397 282
3 519 327 282
3 134 245 244
3 156 155 290
3 225 131 130
3 447 36 38
3 545 150 145
3 350 542 145
3 145 393 545
3 156 448 436
3 436 437 133
3 133 135 156
3 437 517 133
3 47 80 62
3 120 122 125
3 258 371 125
3 125 122 258
3 521 473 233
3 479 525 352
3 352 197 167
3 480 479 352
3 522 433 434
3 353 524 215
3 524 229 220
3 504 354 353
3 360 504 353
3 524 220 222
3 222 216 215
3 215 360 353
3 317 560 387
3 159 306 132
3 322 352 525
3 47 61 160
3 274 276 491
3 252 166 165
3 370 175 295
3 468 321 527
3 527 556 451
3 100 99 406
3 203 346 205
3 456 230 205
3 205 346 456
3 529 241 114
3 241 112 114
3 263 510 107
3 107 106 263
3 529 114 107
3 138 296 307
3 251 399 398
3 230 524 528
3 353 311 254
3 254 242 528
3 528 524 353
3 360 361 530
3 129 128 300
3 240 143 542
3 542 349 192
3 143 145 542
3 510 193 192
3 192 240 542
3 50 49 82
3 512 139 531
3 141 452 531
3 544 382 533
3 407 532 533
3 533 382 407
3 243 245 534
3 517 437 186
3 237 184 186
3 186 438 517
3 534 245 517
3 437 237 186
3 193 264 535
