ply
format ascii 1.0
comment Created by Blender 2.78 (sub 0) - www.blender.org, source file: ''
element vertex 565
property float x
property float y
property float z
property uchar red
property uchar green
property uchar blue
element face 928
property list uchar uint vertex_indices
end_header
-2.000000 -1.500000 0.500000 255 255 0
-2.500000 -1.000000 0.500000 255 255 0
-2.000000 -1.000000 0.000000 255 255 0
-1.500000 -1.000000 0.500000 255 255 0
2.000000 -1.500000 0.500000 255 255 0
1.500000 -1.000000 0.500000 255 255 0
2.000000 -1.000000 0.000000 255 255 0
2.500000 -1.000000 0.500000 255 255 0
-2.000000 1.000000 0.000000 255 255 0
-2.500000 1.000000 0.500000 255 255 0
-2.000000 1.500000 0.500000 255 255 0
-1.500000 1.000000 0.500000 255 255 0
2.000000 1.000000 0.000000 255 255 0
1.500000 1.000000 0.500000 255 255 0
2.000000 1.500000 0.500000 255 255 0
2.500000 1.000000 0.500000 255 255 0
-2.000000 -1.000000 1.000000 255 255 0
2.000000 -1.000000 1.000000 255 255 0
-2.500000 0.500000 1.000000 0 255 51
-2.500000 1.000000 1.500000 0 255 51
-2.500000 1.000000 1.000000 0 255 51
-1.500000 0.500000 1.000000 0 255 51
-1.500000 1.000000 1.000000 0 255 51
-1.500000 1.000000 1.500000 0 255 51
1.500000 0.500000 1.000000 0 255 51
1.500000 1.000000 1.500000 0 255 51
1.500000 1.000000 1.000000 0 255 51
0.000000 -3.500000 18.500000 255 204 102
1.000000 -3.500000 19.500000 255 204 102
-1.000000 -3.500000 19.500000 255 204 102
2.500000 0.500000 1.000000 0 255 51
2.500000 1.000000 1.000000 0 255 51
2.500000 1.000000 1.500000 0 255 51
-6.000000 -2.500000 4.500000 255 204 102
-6.500000 -2.000000 4.500000 255 204 102
-6.000000 -2.000000 4.000000 255 204 102
-4.500000 -2.000000 4.500000 255 204 102
-5.000000 -2.500000 4.500000 255 204 102
-5.000000 -2.000000 4.000000 255 204 102
5.000000 -2.500000 4.500000 255 204 102
4.500000 -2.000000 4.500000 255 204 102
5.000000 -2.000000 4.000000 255 204 102
6.500000 -2.000000 4.500000 255 204 102
6.000000 -2.500000 4.500000 255 204 102
6.000000 -2.000000 4.000000 255 204 102
-6.000000 -1.000000 4.000000 255 204 102
-1.000000 -1.500000 4.500000 0 255 51
-1.500000 -1.000000 4.500000 0 255 51
-1.000000 -1.000000 4.000000 0 255 51
1.500000 -1.000000 4.500000 0 255 51
1.000000 -1.500000 4.500000 0 255 51
1.000000 -1.000000 4.000000 0 255 51
6.000000 -1.000000 4.000000 255 204 102
-6.000000 0.000000 4.000000 255 204 102
-6.500000 0.000000 4.500000 255 204 102
-6.000000 0.500000 4.500000 255 204 102
-5.500000 0.000000 4.500000 255 204 102
6.000000 0.000000 4.000000 255 204 102
5.500000 0.000000 4.500000 255 204 102
6.000000 0.500000 4.500000 255 204 102
6.500000 0.000000 4.500000 255 204 102
-1.500000 0.000000 4.500000 0 255 51
-1.500000 0.000000 5.500000 0 255 51
-1.000000 1.000000 5.000000 0 255 51
-2.000000 0.500000 5.500000 0 255 51
-2.000000 0.500000 4.500000 0 255 51
-1.500000 1.000000 4.500000 0 255 51
1.500000 0.000000 4.500000 0 255 51
1.000000 1.000000 5.000000 0 255 51
1.500000 0.000000 5.500000 0 255 51
2.000000 0.500000 5.500000 0 255 51
2.000000 0.500000 4.500000 0 255 51
1.500000 1.000000 4.500000 0 255 51
-1.000000 2.000000 5.000000 0 255 51
-1.500000 2.000000 5.500000 0 255 51
1.000000 2.000000 5.000000 0 255 51
1.500000 2.000000 5.500000 0 255 51
-1.000000 2.500000 5.500000 0 255 51
1.000000 2.500000 5.500000 0 255 51
-1.000000 -1.000000 6.000000 0 255 51
-1.500000 -1.000000 5.500000 0 255 51
-1.000000 -1.500000 5.500000 0 255 51
1.500000 -1.000000 5.500000 0 255 51
1.000000 -1.000000 6.000000 0 255 51
1.000000 -1.500000 5.500000 0 255 51
-5.000000 1.000000 6.000000 255 204 102
-5.000000 0.000000 6.000000 255 204 102
-6.000000 1.000000 6.000000 255 204 102
-1.500000 0.500000 6.000000 0 255 51
-2.000000 0.500000 6.000000 0 255 51
-1.500000 0.500000 6.000000 255 51 51
-1.000000 0.250000 6.250000 255 51 51
-1.000000 0.500000 6.500000 255 51 51
1.500000 0.500000 6.000000 0 255 51
2.000000 0.500000 6.000000 0 255 51
1.500000 0.500000 6.000000 255 51 51
1.000000 0.500000 6.500000 255 51 51
1.000000 0.250000 6.250000 255 51 51
5.000000 1.000000 6.000000 255 204 102
6.000000 1.000000 6.000000 255 204 102
5.000000 0.000000 6.000000 255 204 102
-4.500000 1.000000 6.500000 255 204 102
-5.000000 1.500000 6.500000 255 204 102
-1.500000 1.500000 6.000000 0 255 51
-2.000000 1.500000 5.500000 0 255 51
-2.000000 1.500000 6.000000 0 255 51
-1.500000 1.500000 6.000000 255 51 51
-1.000000 1.500000 6.500000 255 51 51
-1.000000 1.750000 6.250000 255 51 51
1.500000 1.500000 6.000000 0 255 51
2.000000 1.500000 6.000000 0 255 51
2.000000 1.500000 5.500000 0 255 51
1.500000 1.500000 6.000000 255 51 51
1.000000 1.750000 6.250000 255 51 51
1.000000 1.500000 6.500000 255 51 51
4.500000 1.000000 6.500000 255 204 102
5.000000 1.500000 6.500000 255 204 102
-3.500000 -2.000000 6.500000 255 204 102
-4.000000 -2.000000 7.000000 255 204 102
-4.000000 -2.500000 6.500000 255 204 102
4.000000 -2.000000 7.000000 255 204 102
3.500000 -2.000000 6.500000 255 204 102
4.000000 -2.500000 6.500000 255 204 102
-4.000000 -1.000000 7.000000 255 204 102
-5.000000 -2.000000 7.000000 255 204 102
5.000000 -2.000000 7.000000 255 204 102
4.000000 -1.000000 7.000000 255 204 102
-2.000000 -2.500000 16.500000 255 204 102
0.000000 -2.500000 16.500000 255 204 102
-1.000000 -2.500000 17.500000 255 204 102
0.500000 -2.500000 21.000000 255 255 102
0.000000 -2.500000 21.500000 255 255 102
-0.500000 -2.500000 21.000000 255 255 102
1.000000 -0.500000 10.500000 255 51 51
1.000000 -1.500000 11.500000 255 51 51
0.000000 -0.500000 11.500000 255 51 51
5.000000 -1.000000 11.000000 255 204 102
4.500000 -1.000000 10.500000 255 204 102
5.000000 -1.500000 10.500000 255 204 102
-4.000000 -0.500000 11.500000 255 204 102
-5.000000 -0.500000 11.500000 255 204 102
-4.000000 0.000000 11.000000 255 204 102
4.500000 0.000000 10.500000 255 204 102
-3.500000 2.500000 11.000000 255 51 51
-3.250000 3.000000 10.750000 255 51 51
-3.000000 3.000000 11.000000 255 51 51
-3.500000 2.500000 11.000000 255 204 102
-3.750000 2.000000 10.750000 255 204 102
-4.000000 2.000000 11.000000 255 204 102
3.500000 2.500000 11.000000 255 51 51
3.000000 3.000000 11.000000 255 51 51
3.250000 3.000000 10.750000 255 51 51
3.500000 2.500000 11.000000 255 204 102
4.000000 2.000000 11.000000 255 204 102
3.750000 2.000000 10.750000 255 204 102
-1.000000 -1.500000 11.500000 255 51 51
-1.000000 -0.500000 10.500000 255 51 51
-0.500000 -2.000000 25.500000 255 255 102
-0.500000 2.000000 21.500000 255 255 102
-0.500000 -2.000000 21.500000 255 255 102
-1.000000 0.000000 4.000000 0 255 51
-0.500000 -1.500000 14.000000 255 204 102
-1.000000 -2.000000 14.000000 255 204 102
-1.000000 -1.750000 13.750000 255 204 102
0.500000 -1.500000 14.000000 255 204 102
1.000000 -1.750000 13.750000 255 204 102
1.000000 -2.000000 14.000000 255 204 102
-6.000000 0.000000 14.000000 255 204 102
-6.500000 0.000000 13.500000 255 204 102
-6.000000 -0.500000 13.500000 255 204 102
0.500000 2.500000 21.000000 255 255 102
-0.500000 2.500000 21.000000 255 255 102
0.000000 2.500000 21.500000 255 255 102
6.500000 0.000000 13.500000 255 204 102
6.000000 0.000000 14.000000 255 204 102
6.000000 -0.500000 13.500000 255 204 102
-2.500000 0.500000 14.000000 255 51 51
-3.000000 0.000000 14.000000 255 51 51
-2.750000 0.000000 14.250000 255 51 51
-1.500000 1.500000 14.000000 255 51 51
-1.833330 0.833333 14.333300 255 51 51
2.500000 0.500000 14.000000 255 51 51
2.750000 0.000000 14.250000 255 51 51
3.000000 0.000000 14.000000 255 51 51
2.500000 1.000000 8.500000 255 51 51
2.500000 2.000000 9.500000 255 51 51
2.500000 0.000000 9.500000 255 51 51
-1.000000 1.750000 14.250000 255 51 51
-1.000000 2.000000 14.000000 255 51 51
1.500000 1.500000 14.000000 255 51 51
1.000000 2.000000 14.000000 255 51 51
1.000000 1.750000 14.250000 255 51 51
-2.500000 2.000000 9.500000 255 51 51
-2.500000 1.000000 8.500000 255 51 51
-2.500000 0.000000 9.500000 255 51 51
-6.000000 2.500000 13.500000 255 204 102
-6.500000 2.000000 13.500000 255 204 102
-6.000000 2.000000 14.000000 255 204 102
6.500000 2.000000 13.500000 255 204 102
6.000000 2.500000 13.500000 255 204 102
6.000000 2.000000 14.000000 255 204 102
-1.000000 1.500000 14.500000 255 204 102
-1.000000 1.500000 15.500000 255 204 102
0.000000 1.500000 14.500000 255 204 102
1.000000 1.500000 14.500000 255 204 102
1.000000 1.500000 15.500000 255 204 102
1.000000 0.000000 4.000000 0 255 51
0.000000 -4.500000 17.500000 255 204 102
-0.500000 -4.000000 17.500000 255 204 102
0.000000 -4.000000 17.000000 255 204 102
0.500000 -4.000000 17.500000 255 204 102
-0.500000 -3.000000 17.500000 255 204 102
-0.500000 -3.000000 18.500000 255 204 102
0.500000 -3.000000 17.500000 255 204 102
0.500000 -3.000000 18.500000 255 204 102
2.000000 -2.500000 16.500000 255 204 102
1.000000 -2.500000 17.500000 255 204 102
-1.500000 -1.500000 18.000000 255 204 102
-1.500000 -2.000000 17.500000 255 204 102
-1.500000 -2.000000 18.000000 255 204 102
1.500000 -1.500000 18.000000 255 204 102
1.500000 -2.000000 18.000000 255 204 102
1.500000 -2.000000 17.500000 255 204 102
0.500000 2.000000 21.500000 255 255 102
0.500000 -2.000000 25.500000 255 255 102
0.500000 -2.000000 21.500000 255 255 102
1.833330 0.833333 14.333300 255 51 51
0.000000 -2.000000 26.000000 255 255 102
0.000000 -2.500000 25.500000 255 255 102
2.500000 0.000000 15.500000 255 204 102
-2.000000 0.500000 1.500000 0 255 51
-1.000000 1.750000 6.250000 0 255 51
1.000000 1.750000 6.250000 0 255 51
-3.000000 -1.500000 13.500000 255 51 51
-3.750000 -0.750000 11.500000 255 51 51
-3.000000 -1.500000 11.500000 255 51 51
-1.000000 -4.500000 14.500000 255 204 102
-2.500000 -3.000000 15.500000 255 204 102
-2.500000 -3.000000 14.500000 255 204 102
0.750000 -2.750000 18.000000 204 255 255
1.500000 -2.000000 18.500000 204 255 255
0.750000 -2.750000 18.500000 204 255 255
-4.500000 -2.000000 5.500000 255 204 102
-5.000000 -1.000000 6.000000 255 204 102
-4.000000 -2.000000 6.000000 255 204 102
-1.500000 2.000000 18.500000 255 204 102
-2.500000 -1.000000 17.500000 255 204 102
-1.500000 -1.000000 18.500000 255 204 102
-1.500000 -2.000000 18.500000 204 255 255
-0.750000 -2.750000 18.000000 204 255 255
-0.750000 -2.750000 18.500000 204 255 255
0.000000 -3.000000 17.000000 255 204 102
5.500000 -1.000000 5.500000 255 204 102
5.500000 0.000000 5.500000 255 204 102
1.500000 -2.000000 20.500000 255 204 102
0.750000 2.000000 21.250000 255 204 102
0.750000 -2.000000 21.250000 255 204 102
5.500000 -1.000000 4.500000 255 204 102
3.000000 3.500000 12.500000 255 51 51
3.750000 2.750000 13.500000 255 51 51
3.750000 2.750000 12.500000 255 51 51
0.750000 -2.000000 21.250000 255 255 102
2.500000 -1.500000 14.000000 255 204 102
2.500000 -1.000000 14.500000 255 204 102
2.000000 -2.000000 14.000000 255 204 102
-2.000000 0.500000 8.500000 255 51 51
2.000000 -0.500000 9.500000 255 51 51
-2.000000 -0.500000 9.500000 255 51 51
4.000000 -0.500000 13.500000 255 204 102
3.500000 -0.500000 14.000000 255 204 102
3.750000 -0.750000 13.500000 255 204 102
-1.000000 -4.000000 16.000000 255 204 102
1.000000 -4.500000 15.500000 255 204 102
1.000000 -4.000000 16.000000 255 204 102
2.500000 -1.000000 17.500000 255 204 102
1.500000 2.000000 18.500000 255 204 102
1.500000 -1.000000 18.500000 255 204 102
-5.000000 1.500000 7.500000 255 204 102
-6.000000 3.500000 9.500000 255 204 102
-5.000000 3.500000 9.500000 255 204 102
2.500000 0.000000 14.500000 255 204 102
2.750000 -1.000000 14.250000 255 204 102
2.750000 0.000000 14.250000 255 204 102
-6.000000 -2.500000 6.500000 255 204 102
-0.750000 -2.000000 21.250000 255 204 102
-1.500000 2.000000 20.500000 255 204 102
-1.500000 -2.000000 20.500000 255 204 102
3.750000 2.000000 10.750000 255 51 51
3.750000 0.000000 10.750000 255 51 51
2.000000 -3.000000 14.000000 255 204 102
1.000000 -4.500000 14.500000 255 204 102
1.000000 -4.000000 14.000000 255 204 102
3.750000 -0.750000 13.500000 255 51 51
3.000000 -1.500000 11.500000 255 51 51
3.750000 -0.750000 11.500000 255 51 51
2.500000 -3.000000 14.500000 255 204 102
6.500000 -1.000000 9.500000 255 204 102
6.000000 -1.500000 10.500000 255 204 102
6.000000 -1.500000 9.500000 255 204 102
-6.000000 -0.500000 8.500000 255 204 102
-6.500000 -1.000000 9.500000 255 204 102
-6.500000 0.000000 8.500000 255 204 102
-2.500000 1.000000 6.000000 255 51 51
-2.000000 -3.000000 14.000000 255 204 102
-1.000000 -4.000000 14.000000 255 204 102
-4.000000 2.000000 14.000000 255 204 102
-4.000000 2.500000 13.500000 255 204 102
4.000000 -1.000000 6.000000 255 204 102
5.000000 -1.000000 6.000000 255 204 102
4.000000 -2.000000 6.000000 255 204 102
3.833330 2.833330 12.333300 255 204 102
4.000000 2.500000 12.500000 255 204 102
4.000000 3.500000 11.500000 255 204 102
6.000000 1.500000 6.500000 255 204 102
6.500000 1.000000 6.500000 255 204 102
-5.000000 -2.500000 5.500000 255 204 102
-6.500000 1.000000 7.500000 255 204 102
-6.000000 1.500000 6.500000 255 204 102
-6.500000 1.000000 6.500000 255 204 102
-3.000000 3.500000 13.500000 255 51 51
3.000000 3.000000 14.000000 255 51 51
3.000000 3.500000 13.500000 255 51 51
4.500000 0.000000 6.500000 255 204 102
3.000000 -0.500000 10.500000 255 51 51
-4.500000 0.000000 6.500000 255 204 102
-3.500000 -1.000000 6.500000 255 204 102
-1.000000 -2.500000 20.500000 255 204 102
-4.000000 -1.000000 6.000000 255 204 102
-5.000000 -0.500000 8.500000 255 204 102
-4.500000 -1.000000 9.500000 255 204 102
-5.000000 -1.500000 9.500000 255 204 102
-3.500000 2.500000 14.000000 255 204 102
-3.750000 2.750000 13.500000 255 204 102
-6.000000 -0.500000 11.500000 255 204 102
2.000000 0.500000 1.500000 0 255 51
3.500000 -1.000000 6.500000 255 204 102
1.500000 -1.500000 19.000000 204 255 255
1.500000 -1.500000 18.000000 204 255 255
2.000000 0.000000 1.000000 255 255 0
1.500000 0.500000 1.000000 255 255 0
1.500000 0.000000 0.500000 255 255 0
-4.000000 2.500000 12.500000 255 204 102
-6.000000 2.500000 12.500000 255 204 102
-6.500000 0.000000 5.500000 255 204 102
-1.500000 -2.500000 19.000000 204 255 255
-0.833333 -2.833330 18.666700 204 255 255
-3.000000 -0.500000 10.500000 255 51 51
6.000000 -0.500000 11.500000 255 204 102
6.000000 1.500000 7.500000 255 204 102
6.500000 3.000000 9.500000 255 204 102
6.500000 1.000000 7.500000 255 204 102
-4.500000 -1.000000 10.500000 255 204 102
6.000000 -0.500000 8.500000 255 204 102
-1.000000 0.000000 6.000000 0 255 51
1.000000 0.250000 6.250000 0 255 51
-1.000000 0.250000 6.250000 0 255 51
2.000000 1.500000 1.000000 255 255 0
2.500000 1.000000 1.000000 255 255 0
-2.000000 1.500000 1.000000 0 255 51
-2.000000 1.500000 4.500000 0 255 51
-3.750000 0.000000 10.750000 255 204 102
-2.000000 0.000000 1.000000 255 255 0
-1.500000 0.500000 1.000000 255 255 0
-2.000000 0.250000 1.250000 255 255 0
6.500000 0.000000 5.500000 255 204 102
6.000000 0.500000 5.500000 255 204 102
-4.000000 -0.500000 13.500000 255 204 102
-3.750000 -0.750000 11.500000 255 204 102
-3.750000 -0.750000 13.500000 255 204 102
-6.500000 -2.000000 6.500000 255 204 102
-1.000000 -4.500000 15.500000 255 204 102
4.500000 -2.000000 5.500000 255 204 102
-3.750000 2.750000 12.500000 255 51 51
-3.750000 2.750000 13.500000 255 51 51
-2.000000 1.500000 8.500000 255 51 51
-2.000000 1.500000 1.000000 255 255 0
-1.500000 1.000000 1.000000 255 255 0
-6.500000 0.000000 11.500000 255 204 102
-2.000000 2.500000 17.500000 255 204 102
-2.500000 2.000000 17.500000 255 204 102
-6.500000 3.000000 9.500000 255 204 102
-5.500000 0.000000 5.500000 255 204 102
-6.000000 0.500000 5.500000 255 204 102
-3.750000 2.750000 12.500000 255 204 102
4.000000 2.500000 13.500000 255 204 102
3.750000 2.750000 12.500000 255 204 102
3.750000 2.750000 13.500000 255 204 102
1.000000 2.500000 20.500000 255 204 102
1.500000 2.000000 20.500000 255 204 102
4.000000 -0.500000 11.500000 255 204 102
3.500000 -0.500000 11.000000 255 204 102
4.000000 0.000000 11.000000 255 204 102
4.500000 1.000000 7.500000 255 204 102
3.500000 3.500000 12.000000 255 51 51
-2.500000 0.500000 1.000000 255 255 0
-2.500000 0.000000 0.500000 255 255 0
1.000000 -1.500000 13.500000 255 51 51
0.000000 -0.500000 13.500000 255 51 51
-2.000000 -2.000000 14.000000 255 204 102
5.000000 3.500000 9.500000 255 204 102
5.000000 1.500000 7.500000 255 204 102
-5.500000 -1.000000 4.500000 255 204 102
-3.750000 2.000000 10.750000 255 51 51
-1.500000 0.000000 0.500000 255 255 0
4.000000 2.000000 14.000000 255 204 102
-3.500000 -0.500000 11.000000 255 204 102
-2.500000 -1.000000 14.500000 255 204 102
-2.750000 0.000000 14.250000 255 204 102
-2.750000 -1.000000 14.250000 255 204 102
1.000000 0.000000 6.000000 0 255 51
3.500000 3.500000 11.000000 255 51 51
2.500000 0.000000 0.500000 255 255 0
-5.500000 -1.000000 5.500000 255 204 102
-5.000000 -1.500000 10.500000 255 204 102
6.500000 3.000000 11.500000 255 204 102
6.000000 3.500000 9.500000 255 204 102
6.000000 3.500000 11.500000 255 204 102
2.000000 0.250000 1.250000 0 255 51
4.500000 2.000000 10.500000 255 204 102
6.000000 2.500000 12.500000 255 204 102
-6.000000 3.500000 11.500000 255 204 102
-6.500000 3.000000 11.500000 255 204 102
-3.750000 0.000000 10.750000 255 51 51
0.500000 -2.500000 21.000000 255 204 102
-0.500000 -2.500000 21.000000 255 204 102
4.500000 -1.000000 7.500000 255 204 102
5.000000 -0.500000 8.500000 255 204 102
4.500000 0.000000 8.500000 255 204 102
3.750000 0.000000 10.750000 255 204 102
6.500000 0.000000 11.500000 255 204 102
6.500000 0.000000 8.500000 255 204 102
-3.833330 2.833330 12.333300 255 204 102
-4.000000 3.500000 11.500000 255 204 102
4.500000 -1.000000 9.500000 255 204 102
2.500000 -1.750000 13.750000 255 51 51
3.000000 -1.500000 13.500000 255 51 51
1.000000 -2.500000 20.500000 255 204 102
-6.000000 -1.500000 10.500000 255 204 102
-6.500000 -1.000000 10.500000 255 204 102
-2.500000 0.000000 15.500000 255 204 102
-2.500000 0.000000 14.500000 255 204 102
6.500000 -2.000000 6.500000 255 204 102
-1.000000 1.750000 14.250000 255 204 102
-2.000000 0.250000 1.250000 0 255 51
5.000000 -1.500000 9.500000 255 204 102
-0.750000 -2.750000 18.000000 255 204 102
-3.500000 -0.500000 14.000000 255 204 102
-4.000000 0.000000 14.000000 255 204 102
0.166667 -0.833333 13.666700 255 204 102
0.000000 -1.000000 14.000000 255 204 102
0.000000 -0.750000 13.750000 255 204 102
0.166667 -0.833333 13.666700 255 51 51
0.500000 -1.500000 14.000000 255 51 51
2.000000 -3.000000 16.000000 255 204 102
-6.000000 -1.500000 9.500000 255 204 102
-1.500000 -1.500000 18.000000 204 255 255
-1.500000 -2.000000 18.000000 204 255 255
3.500000 2.500000 14.000000 255 204 102
-2.500000 -1.750000 13.750000 255 51 51
-1.000000 -1.500000 13.500000 255 51 51
-1.000000 -1.750000 13.750000 255 51 51
-0.166667 -0.833333 13.666700 255 51 51
3.000000 -1.000000 14.000000 255 51 51
-3.500000 3.500000 11.000000 255 51 51
-3.000000 3.500000 11.500000 255 51 51
3.000000 2.500000 10.500000 255 51 51
2.000000 2.500000 9.500000 255 51 51
-2.000000 -3.000000 16.000000 255 204 102
-4.500000 1.000000 7.500000 255 204 102
2.500000 0.500000 1.000000 255 255 0
2.000000 0.250000 1.250000 255 255 0
-6.500000 2.000000 12.500000 255 204 102
6.000000 -2.500000 6.500000 255 204 102
5.000000 -2.500000 5.500000 255 204 102
4.000000 0.000000 14.000000 255 204 102
-3.000000 3.000000 14.000000 255 51 51
3.250000 3.000000 10.750000 255 204 102
4.500000 3.000000 9.500000 255 204 102
2.750000 -1.000000 14.250000 255 51 51
-4.500000 2.000000 10.500000 255 204 102
-1.833330 0.833333 14.333300 255 204 102
6.500000 -1.000000 10.500000 255 204 102
2.000000 2.500000 17.500000 255 204 102
2.500000 2.000000 17.500000 255 204 102
2.000000 1.500000 8.500000 255 51 51
2.500000 1.000000 6.000000 255 51 51
2.000000 1.500000 6.000000 255 51 51
0.750000 -2.750000 18.000000 255 204 102
-0.750000 -2.000000 21.250000 255 255 102
-4.500000 3.000000 9.500000 255 204 102
-3.250000 3.000000 10.750000 255 204 102
1.500000 -1.500000 19.000000 255 204 102
1.500000 -2.500000 19.000000 255 204 102
-3.000000 2.500000 10.500000 255 51 51
-1.000000 2.500000 18.500000 255 204 102
1.000000 2.500000 18.500000 255 204 102
2.000000 1.500000 4.500000 0 255 51
2.500000 1.000000 6.000000 0 255 51
-2.000000 2.500000 9.500000 255 51 51
-2.500000 1.000000 1.000000 255 255 0
1.500000 1.000000 1.000000 255 255 0
-1.500000 -1.500000 19.000000 255 204 102
-2.500000 -1.500000 14.000000 255 204 102
3.500000 3.500000 11.000000 255 204 102
1.833330 0.833333 14.333300 255 204 102
2.500000 0.500000 14.000000 255 204 102
2.000000 0.500000 8.500000 255 51 51
2.000000 1.500000 1.000000 0 255 51
1.500000 -2.500000 19.000000 204 255 255
3.750000 -0.750000 11.500000 255 204 102
-6.000000 1.500000 7.500000 255 204 102
2.000000 0.500000 6.000000 255 51 51
-0.166667 -0.833333 13.666700 255 204 102
-2.500000 1.000000 6.000000 0 255 51
-2.750000 -1.000000 14.250000 255 51 51
-0.750000 2.000000 21.250000 255 204 102
-1.000000 2.500000 20.500000 255 204 102
0.833333 -2.833330 18.666700 255 204 102
2.500000 -3.000000 15.500000 255 204 102
-3.500000 3.500000 12.000000 255 51 51
-3.000000 3.500000 12.500000 255 51 51
3.000000 3.500000 11.500000 255 51 51
2.500000 -1.750000 13.750000 255 204 102
-4.500000 -1.000000 7.500000 255 204 102
-4.500000 0.000000 8.500000 255 204 102
-1.500000 -3.000000 19.500000 255 204 102
-0.833333 -2.833330 18.666700 255 204 102
-2.500000 -1.500000 14.000000 255 51 51
-3.000000 -1.000000 14.000000 255 51 51
-3.500000 3.500000 11.000000 255 204 102
3.500000 -0.500000 11.000000 255 51 51
-3.750000 -0.750000 13.500000 255 51 51
1.500000 -2.000000 18.000000 204 255 255
0.750000 2.000000 21.250000 255 255 102
-2.000000 0.500000 6.000000 255 51 51
3.500000 3.500000 12.000000 255 204 102
-2.000000 1.500000 6.000000 255 51 51
3.500000 2.500000 14.000000 255 51 51
0.500000 2.500000 21.000000 255 204 102
3.833330 2.833330 12.333300 255 51 51
6.500000 2.000000 12.500000 255 204 102
-3.500000 -0.500000 11.000000 255 51 51
-3.500000 3.500000 12.000000 255 204 102
1.000000 -1.750000 13.750000 255 51 51
1.000000 1.750000 14.250000 255 204 102
-0.750000 -2.750000 18.500000 255 204 102
0.000000 -0.750000 13.750000 255 51 51
-1.500000 -1.500000 19.000000 204 255 255
-0.500000 -1.500000 14.000000 255 51 51
2.500000 -1.500000 14.000000 255 51 51
3.500000 -0.500000 14.000000 255 51 51
-3.500000 2.500000 14.000000 255 51 51
-1.500000 1.500000 14.000000 255 204 102
-2.500000 0.500000 14.000000 255 204 102
0.750000 -2.750000 18.500000 255 204 102
0.000000 2.500000 15.500000 255 204 102
-0.750000 2.000000 21.250000 255 255 102
1.500000 -3.000000 19.500000 255 204 102
-0.500000 2.500000 21.000000 255 204 102
-1.500000 -2.500000 19.000000 255 204 102
-2.500000 -1.750000 13.750000 255 204 102
-3.500000 -0.500000 14.000000 255 51 51
1.500000 1.500000 14.000000 255 204 102
0.833333 -2.833330 18.666700 204 255 255
-3.833330 2.833330 12.333300 255 51 51
3 0 1 2
3 3 0 2
3 4 5 6
3 7 4 6
3 8 9 10
3 11 8 10
3 12 13 14
3 15 12 14
3 1 0 16
3 16 0 3
3 17 5 4
3 7 17 4
3 18 19 20
3 21 22 23
3 24 25 26
3 27 28 29
3 30 31 32
3 33 34 35
3 36 37 38
3 39 40 41
3 42 43 44
3 35 45 38
3 46 47 48
3 49 50 51
3 44 41 52
3 53 54 55
3 56 53 55
3 57 58 59
3 60 57 59
3 61 62 63
3 62 64 63
3 64 65 63
3 63 65 66
3 67 68 69
3 69 68 70
3 70 68 71
3 68 72 71
3 73 63 74
3 75 76 68
3 73 74 77
3 76 75 78
3 79 80 81
3 82 83 84
3 85 86 87
3 88 89 64
3 90 91 92
3 93 70 94
3 95 96 97
3 98 99 100
3 101 85 102
3 103 104 105
3 106 107 108
3 109 110 111
3 112 113 114
3 98 115 116
3 117 118 119
3 120 121 122
3 118 123 124
3 120 125 126
3 127 128 129
3 130 131 132
3 133 134 135
3 136 137 138
3 139 140 141
3 137 136 142
3 143 144 145
3 146 147 148
3 149 150 151
3 152 153 154
3 155 156 135
3 157 158 159
3 61 63 160
3 161 162 163
3 164 165 166
3 167 168 169
3 170 171 172
3 173 174 175
3 176 177 178
3 179 176 180
3 181 182 183
3 184 185 186
3 179 187 188
3 189 190 191
3 192 193 194
3 195 196 197
3 198 199 200
3 201 202 203
3 204 203 205
3 68 67 206
3 207 208 209
3 210 207 209
3 211 208 212
3 213 214 210
3 128 215 216
3 217 218 219
3 220 221 222
3 223 224 225
3 189 226 181
3 227 157 228
3 224 227 228
3 229 204 205
3 23 65 230
3 78 231 232
3 233 234 235
3 236 237 238
3 239 240 241
3 242 243 244
3 101 86 85
3 245 246 247
3 248 249 250
3 213 209 251
3 252 100 253
3 254 255 256
3 252 58 257
3 258 259 260
3 261 223 225
3 262 263 264
3 265 266 267
3 159 132 131
3 268 269 270
3 271 272 273
3 274 275 276
3 277 278 279
3 280 281 282
3 283 34 33
3 284 285 286
3 211 209 208
3 186 287 288
3 289 290 291
3 292 293 294
3 264 295 289
3 296 297 298
3 299 300 301
3 173 200 174
3 302 265 193
3 58 52 257
3 236 303 304
3 117 123 118
3 195 305 306
3 307 308 309
3 310 311 312
3 99 313 314
3 36 315 37
3 316 317 318
3 319 320 321
3 115 100 322
3 293 133 323
3 324 123 325
3 326 284 286
3 327 324 325
3 77 74 231
3 79 84 83
3 328 329 330
3 54 53 45
3 306 331 332
3 169 333 140
3 72 334 71
3 222 215 274
3 304 290 236
3 121 126 335
3 336 240 337
3 225 130 261
3 159 228 157
3 318 317 87
3 338 339 340
3 195 341 342
3 343 55 54
3 344 250 345
3 155 346 156
3 347 136 297
3 295 272 290
3 348 349 350
3 140 351 141
3 352 296 298
3 78 73 77
3 353 354 355
3 15 356 357
3 96 91 97
3 257 41 40
3 23 358 359
3 148 360 141
3 361 362 363
3 364 59 365
3 73 68 63
3 366 367 368
3 47 81 80
3 299 369 283
3 236 272 370
3 371 308 252
3 319 372 373
3 374 302 193
3 11 375 376
3 320 259 321
3 333 168 377
3 322 307 335
3 245 378 379
3 301 380 316
3 381 55 382
3 230 21 23
3 341 332 383
3 384 385 386
3 387 255 388
3 175 389 347
3 389 390 391
3 392 116 115
3 260 393 258
3 27 208 207
3 361 394 395
3 135 396 397
3 1 361 395
3 238 398 303
3 399 348 400
3 253 59 58
3 275 387 388
3 401 38 45
3 194 402 192
3 76 72 68
3 8 403 2
3 200 384 404
3 405 367 139
3 406 407 408
3 400 313 116
3 82 409 83
3 150 410 151
3 12 411 6
3 412 86 243
3 329 413 330
3 414 415 416
3 334 24 417
3 142 153 418
3 419 414 416
3 420 380 421
3 119 315 242
3 86 382 87
3 129 251 211
3 422 194 346
3 326 423 424
3 425 426 427
3 153 428 154
3 349 429 430
3 88 62 353
3 341 431 432
3 87 102 85
3 433 138 137
3 434 396 435
3 421 342 420
3 29 436 326
3 300 437 438
3 333 438 437
3 439 201 440
3 325 244 327
3 352 441 430
3 122 121 309
3 442 201 203
3 427 418 392
3 230 18 443
3 444 297 138
3 167 196 168
3 6 5 340
3 33 38 37
3 445 129 211
3 416 415 399
3 339 13 340
3 366 446 447
3 448 449 450
3 451 396 452
3 384 419 311
3 453 215 128
3 328 454 299
3 455 456 248
3 395 8 2
3 7 338 17
3 384 457 404
3 458 459 460
3 397 461 459
3 435 292 462
3 145 463 464
3 251 216 213
3 465 185 466
3 467 273 453
3 48 50 46
3 468 102 277
3 338 469 470
3 196 342 471
3 225 228 131
3 472 473 43
3 293 396 134
3 61 48 47
3 429 175 347
3 474 175 174
3 426 433 427
3 373 475 319
3 476 477 418
3 462 182 478
3 49 84 50
3 141 479 148
3 69 93 409
3 441 43 42
3 480 440 201
3 347 481 429
3 482 275 483
3 484 485 486
3 487 213 216
3 202 379 378
3 158 488 159
3 479 489 490
3 42 52 60
3 491 254 492
3 150 493 145
3 235 459 233
3 494 387 495
3 100 365 253
3 496 497 32
3 484 498 466
3 437 140 333
3 107 113 108
3 334 30 32
3 10 499 375
3 412 56 381
3 285 494 245
3 352 426 125
3 14 500 356
3 135 459 155
3 70 71 497
3 285 501 286
3 133 266 323
3 502 406 408
3 475 188 190
3 477 503 399
3 107 374 484
3 504 280 505
3 394 9 395
3 312 419 416
3 198 419 199
3 74 66 359
3 315 33 37
3 82 67 69
3 398 163 162
3 79 409 353
3 335 309 121
3 96 506 265
3 404 269 474
3 493 466 498
3 507 25 496
3 508 241 240
3 39 44 43
3 5 338 340
3 432 342 341
3 3 361 16
3 126 322 335
3 401 242 36
3 223 170 172
3 447 305 167
3 389 270 509
3 362 11 376
3 510 380 278
3 184 511 485
3 98 313 99
3 449 512 450
3 447 169 366
3 104 359 513
3 40 473 371
3 177 514 178
3 56 45 53
3 171 158 172
3 67 51 206
3 124 299 283
3 160 51 48
3 469 15 357
3 515 516 285
3 28 214 517
3 243 327 244
3 510 102 317
3 229 518 263
3 64 513 65
3 246 439 406
3 519 372 520
3 279 420 432
3 521 520 258
3 454 413 437
3 350 313 348
3 483 229 205
3 264 165 522
3 124 523 328
3 136 391 142
3 371 257 40
3 190 187 191
3 68 160 63
3 80 353 62
3 46 84 81
3 80 61 47
3 291 162 166
3 479 351 524
3 525 526 29
3 233 527 528
3 529 490 489
3 232 109 76
3 426 298 444
3 498 374 192
3 256 423 436
3 27 210 214
3 246 237 127
3 323 288 530
3 229 280 204
3 23 66 65
3 78 77 231
3 233 531 234
3 236 370 237
3 239 532 240
3 242 412 243
3 101 324 86
3 245 379 246
3 248 456 249
3 213 210 209
3 252 308 100
3 254 388 255
3 252 253 58
3 258 321 259
3 261 533 223
3 262 281 263
3 264 522 262
3 265 506 266
3 159 488 132
3 268 474 269
3 271 370 272
3 274 483 275
3 277 510 278
3 280 263 281
3 283 369 34
3 284 515 285
3 211 251 209
3 186 185 287
3 289 295 290
3 292 435 293
3 264 263 295
3 296 481 297
3 299 454 300
3 173 198 200
3 302 534 265
3 58 57 52
3 236 238 303
3 117 325 123
3 195 197 305
3 307 100 308
3 310 385 311
3 312 535 310
3 314 364 365
3 365 99 314
3 36 242 315
3 316 510 317
3 319 475 320
3 115 98 100
3 293 134 133
3 324 523 123
3 286 525 326
3 326 424 284
3 525 29 326
3 327 86 324
3 103 231 74
3 74 104 103
3 79 81 84
3 328 524 329
3 45 35 34
3 34 54 45
3 306 305 331
3 140 139 366
3 366 169 140
3 72 25 334
3 274 276 220
3 222 216 215
3 274 220 222
3 273 272 518
3 453 273 518
3 518 274 215
3 215 453 518
3 304 291 290
3 121 120 126
3 336 508 240
3 240 532 337
3 225 131 130
3 159 131 228
3 87 382 343
3 343 318 87
3 338 470 339
3 195 306 341
3 343 382 55
3 344 248 250
3 155 235 346
3 138 297 136
3 347 389 136
3 295 518 272
3 348 415 349
3 140 413 351
3 352 430 296
3 78 75 73
3 353 409 354
3 15 14 356
3 96 92 91
3 257 52 41
3 359 66 23
3 23 22 358
3 148 147 360
3 361 403 362
3 364 60 59
3 73 75 68
3 366 139 367
3 47 46 81
3 299 301 369
3 236 290 272
3 371 309 308
3 319 520 372
3 374 536 302
3 11 10 375
3 320 537 259
3 333 169 168
3 322 100 307
3 245 494 378
3 343 54 34
3 34 369 343
3 301 300 438
3 377 168 471
3 301 438 377
3 343 369 301
3 316 318 343
3 421 380 377
3 168 196 471
3 471 421 377
3 316 343 301
3 301 377 380
3 381 56 55
3 230 443 21
3 341 306 332
3 384 311 385
3 387 538 255
3 175 268 389
3 428 391 390
3 389 509 390
3 392 400 116
3 260 539 393
3 27 212 208
3 361 363 394
3 135 134 396
3 1 16 361
3 238 406 398
3 399 415 348
3 253 365 59
3 275 495 387
3 401 36 38
3 194 422 402
3 76 496 72
3 3 2 403
3 8 11 403
3 200 199 384
3 139 141 405
3 360 405 141
3 406 440 407
3 400 348 313
3 82 69 409
3 150 521 410
3 7 6 411
3 12 15 411
3 412 381 86
3 329 351 413
3 414 349 415
3 334 25 24
3 142 391 153
3 419 540 414
3 420 278 380
3 242 244 119
3 117 119 244
3 86 381 382
3 129 128 251
3 235 234 541
3 541 422 346
3 194 193 265
3 265 267 194
3 346 235 541
3 194 267 346
3 326 436 423
3 425 126 125
3 125 426 425
3 153 391 428
3 430 441 350
3 42 60 364
3 364 314 350
3 350 349 430
3 540 198 173
3 349 414 429
3 42 364 441
3 481 296 430
3 441 364 350
3 414 540 429
3 429 481 430
3 540 173 429
3 353 355 88
3 88 64 62
3 341 383 431
3 431 542 432
3 87 317 102
3 433 444 138
3 434 543 396
3 421 471 342
3 29 28 436
3 300 454 437
3 333 377 438
3 439 202 201
3 325 117 244
3 352 472 441
3 309 371 473
3 473 122 309
3 203 204 544
3 544 442 203
3 115 322 392
3 427 433 142
3 322 425 392
3 418 477 392
3 392 425 427
3 433 137 142
3 142 418 427
3 230 19 18
3 444 298 297
3 167 197 196
3 340 13 12
3 12 6 340
3 33 35 38
3 211 212 445
3 445 219 129
3 212 545 445
3 219 218 129
3 399 503 312
3 312 416 399
3 503 535 312
3 339 500 13
3 366 368 446
3 448 164 449
3 451 546 397
3 397 396 451
3 543 452 396
3 384 199 419
3 128 127 467
3 467 453 128
3 328 330 454
3 547 455 248
3 248 344 547
3 2 1 395
3 395 9 8
3 7 411 338
3 384 386 457
3 458 233 459
3 397 546 461
3 461 548 459
3 460 459 548
3 478 549 462
3 434 435 549
3 292 550 462
3 462 549 435
3 145 144 463
3 251 128 216
3 484 466 185
3 465 150 149
3 149 287 465
3 185 184 484
3 465 287 185
3 467 271 273
3 48 51 50
3 468 101 102
3 338 411 469
3 196 195 342
3 225 224 228
3 472 122 473
3 473 39 43
3 293 435 396
3 61 160 48
3 429 173 175
3 474 268 175
3 426 444 433
3 373 551 475
3 418 153 152
3 152 476 418
3 462 183 182
3 49 82 84
3 141 351 479
3 354 409 93
3 69 70 93
3 441 472 43
3 442 552 201
3 480 553 440
3 407 440 553
3 201 552 480
3 347 297 481
3 482 495 275
3 484 184 485
3 216 222 221
3 487 554 214
3 216 221 487
3 487 214 213
3 378 555 202
3 202 439 379
3 555 203 202
3 158 556 488
3 490 146 479
3 148 479 146
3 57 60 52
3 42 44 52
3 491 220 276
3 276 275 388
3 388 254 491
3 557 492 254
3 491 276 388
3 145 464 521
3 150 465 493
3 145 521 150
3 235 155 459
3 482 555 495
3 494 516 387
3 555 378 494
3 538 387 516
3 495 555 494
3 516 558 538
3 100 99 365
3 496 76 111
3 111 110 497
3 32 31 507
3 111 497 496
3 32 507 496
3 484 374 498
3 437 413 140
3 107 114 113
3 334 417 30
3 10 9 499
3 412 401 56
3 285 516 494
3 120 122 125
3 472 352 125
3 125 122 472
3 14 13 500
3 135 397 459
3 32 497 71
3 94 70 497
3 71 334 32
3 525 286 559
3 285 245 247
3 247 217 501
3 501 559 286
3 285 247 501
3 133 135 156
3 156 346 267
3 267 266 133
3 133 156 267
3 502 560 398
3 398 406 502
3 189 537 320
3 183 462 550
3 550 537 183
3 320 475 190
3 551 561 177
3 177 176 551
3 561 528 177
3 183 537 181
3 190 189 320
3 551 176 179
3 551 179 475
3 181 537 189
3 179 188 475
3 399 400 477
3 477 476 503
3 400 392 477
3 484 486 114
3 486 112 114
3 536 374 107
3 107 106 536
3 484 114 107
3 504 562 204
3 544 204 562
3 280 282 505
3 504 204 280
3 394 499 9
3 312 311 419
3 198 540 419
3 74 63 66
3 315 119 283
3 283 33 315
3 82 49 67
3 398 560 163
3 79 83 409
3 335 307 309
3 265 534 92
3 534 90 92
3 511 506 96
3 96 95 511
3 265 92 96
3 174 200 404
3 404 457 269
3 474 174 404
3 493 465 466
3 72 496 25
3 507 26 25
3 508 563 241
3 39 41 44
3 5 17 338
3 432 420 342
3 3 403 361
3 126 425 322
3 401 412 242
3 172 227 223
3 223 533 170
3 227 224 223
3 447 446 331
3 305 197 167
3 447 331 305
3 389 268 270
3 362 403 11
3 510 316 380
3 184 506 511
3 98 116 313
3 449 161 512
3 447 167 169
3 104 74 359
3 359 358 19
3 19 513 359
3 358 20 19
3 513 105 104
3 40 39 473
3 177 528 514
3 56 401 45
3 227 172 158
3 171 556 158
3 158 157 227
3 67 49 51
3 283 119 124
3 124 328 299
3 119 118 124
3 160 206 51
3 469 411 15
3 515 558 516
3 492 557 517
3 28 27 214
3 214 554 517
3 517 557 28
3 243 86 327
3 510 277 102
3 295 263 518
3 229 483 274
3 263 280 229
3 274 518 229
3 230 65 19
3 64 89 513
3 513 19 65
3 238 237 406
3 246 379 439
3 439 440 406
3 406 237 246
3 519 564 372
3 542 529 432
3 279 278 420
3 432 529 279
3 464 463 519
3 520 319 321
3 464 519 520
3 393 410 521
3 521 464 520
3 520 321 258
3 258 393 521
3 454 330 413
3 350 314 313
3 203 555 205
3 482 483 205
3 205 555 482
3 264 166 165
3 124 123 523
3 523 524 328
3 136 389 391
3 371 252 257
3 190 188 187
3 68 206 160
3 80 79 353
3 46 50 84
3 80 62 61
3 264 289 166
3 291 304 162
3 303 398 162
3 161 449 164
3 304 303 162
3 162 161 164
3 166 289 291
3 162 164 166
3 523 324 468
3 468 489 479
3 324 101 468
3 351 329 524
3 524 523 468
3 468 479 524
3 27 29 212
3 525 559 526
3 526 545 212
3 212 29 526
3 561 531 528
3 233 458 527
3 527 514 528
3 528 531 233
3 468 277 489
3 279 529 489
3 489 277 279
3 111 76 109
3 78 232 76
3 426 352 298
3 402 143 493
3 493 498 192
3 143 145 493
3 374 193 192
3 192 402 493
3 28 557 436
3 254 256 436
3 436 557 254
3 27 207 210
3 217 247 246
3 237 370 271
3 237 271 467
3 217 246 218
3 127 129 218
3 218 246 127
3 237 467 127
3 294 293 530
3 323 266 186
3 506 184 186
3 186 288 323
3 530 293 323
3 266 506 186
