ply
format ascii 1.0
comment Created by Blender 2.78 (sub 0) - www.blender.org, source file: ''
element vertex 565
property float x
property float y
property float z
property uchar red
property uchar green
property uchar blue
element face 928
property list uchar uint vertex_indices
end_header
-2.000000 -1.500000 0.500000 255 255 0
-2.500000 -1.000000 0.500000 255 255 0
-2.000000 -1.000000 0.000000 255 255 0
-1.500000 -1.000000 0.500000 255 255 0
2.000000 -1.500000 0.500000 255 255 0
1.500000 -1.000000 0.500000 255 255 0
2.000000 -1.000000 0.000000 255 255 0
2.500000 -1.000000 0.500000 255 255 0
-2.000000 1.000000 0.000000 255 255 0
-2.500000 1.000000 0.500000 255 255 0
-2.000000 1.500000 0.500000 255 255 0
-1.500000 1.000000 0.500000 255 255 0
2.000000 1.000000 0.000000 255 255 0
1.500000 1.000000 0.500000 255 255 0
2.000000 1.500000 0.500000 255 255 0
2.500000 1.000000 0.500000 255 255 0
-2.000000 -1.000000 1.000000 255 255 0
2.000000 -1.000000 1.000000 255 255 0
-2.500000 0.500000 1.000000 0 255 51
-2.500000 1.000000 1.500000 0 255 51
-2.500000 1.000000 1.000000 0 255 51
-1.500000 0.500000 1.000000 0 255 51
-1.500000 1.000000 1.000000 0 255 51
-1.500000 1.000000 1.500000 0 255 51
1.500000 0.500000 1.000000 0 255 51
1.500000 1.000000 1.500000 0 255 51
1.500000 1.000000 1.000000 0 255 51
0.000000 -3.500000 18.500000 255 204 102
1.000000 -3.500000 19.500000 255 204 102
-1.000000 -3.500000 19.500000 255 204 102
2.500000 0.500000 1.000000 0 255 51
2.500000 1.000000 1.000000 0 255 51
2.500000 1.000000 1.500000 0 255 51
-6.000000 -2.500000 4.500000 255 204 102
-6.500000 -2.000000 4.500000 255 204 102
-6.000000 -2.000000 4.000000 255 204 102
-4.500000 -2.000000 4.500000 255 204 102
-5.000000 -2.500000 4.500000 255 204 102
-5.000000 -2.000000 4.000000 255 204 102
5.000000 -2.500000 4.500000 255 204 102
4.500000 -2.000000 4.500000 255 204 102
5.000000 -2.000000 4.000000 255 204 102
6.500000 -2.000000 4.500000 255 204 102
6.000000 -2.500000 4.500000 255 204 102
6.000000 -2.000000 4.000000 255 204 102
-6.000000 -1.000000 4.000000 255 204 102
-1.000000 -1.500000 4.500000 0 255 51
-1.500000 -1.000000 4.500000 0 255 51
-1.000000 -1.000000 4.000000 0 255 51
1.500000 -1.000000 4.500000 0 255 51
1.000000 -1.500000 4.500000 0 255 51
1.000000 -1.000000 4.000000 0 255 51
6.000000 -1.000000 4.000000 255 204 102
-6.000000 0.000000 4.000000 255 204 102
-6.500000 0.000000 4.500000 255 204 102
-6.000000 0.500000 4.500000 255 204 102
-5.500000 0.000000 4.500000 255 204 102
6.000000 0.000000 4.000000 255 204 102
5.500000 0.000000 4.500000 255 204 102
6.000000 0.500000 4.500000 255 204 102
6.500000 0.000000 4.500000 255 204 102
-1.500000 0.000000 4.500000 0 255 51
-1.500000 0.000000 5.500000 0 255 51
-1.000000 1.000000 5.000000 0 255 51
-2.000000 0.500000 5.500000 0 255 51
-2.000000 0.500000 4.500000 0 255 51
-1.500000 1.000000 4.500000 0 255 51
1.500000 0.000000 4.500000 0 255 51
1.000000 1.000000 5.000000 0 255 51
1.500000 0.000000 5.500000 0 255 51
2.000000 0.500000 5.500000 0 255 51
2.000000 0.500000 4.500000 0 255 51
1.500000 1.000000 4.500000 0 255 51
-1.000000 2.000000 5.000000 0 255 51
-1.500000 2.000000 5.500000 0 255 51
1.000000 2.000000 5.000000 0 255 51
1.500000 2.000000 5.500000 0 255 51
-1.000000 2.500000 5.500000 0 255 51
1.000000 2.500000 5.500000 0 255 51
-1.000000 -1.000000 6.000000 0 255 51
-1.500000 -1.000000 5.500000 0 255 51
-1.000000 -1.500000 5.500000 0 255 51
1.500000 -1.000000 5.500000 0 255 51
1.000000 -1.000000 6.000000 0 255 51
1.000000 -1.500000 5.500000 0 255 51
-5.000000 1.000000 6.000000 255 204 102
-5.000000 0.000000 6.000000 255 204 102
-6.000000 1.000000 6.000000 255 204 102
-1.500000 0.500000 6.000000 0 255 51
-2.000000 0.500000 6.000000 0 255 51
-1.500000 0.500000 6.000000 255 51 51
-1.000000 0.250000 6.250000 255 51 51
-1.000000 0.500000 6.500000 255 51 51
1.500000 0.500000 6.000000 0 255 51
2.000000 0.500000 6.000000 0 255 51
1.500000 0.500000 6.000000 255 51 51
1.000000 0.500000 6.500000 255 51 51
1.000000 0.250000 6.250000 255 51 51
5.000000 1.000000 6.000000 255 204 102
6.000000 1.000000 6.000000 255 204 102
5.000000 0.000000 6.000000 255 204 102
-4.500000 1.000000 6.500000 255 204 102
-5.000000 1.500000 6.500000 255 204 102
-1.500000 1.500000 6.000000 0 255 51
-2.000000 1.500000 5.500000 0 255 51
-2.000000 1.500000 6.000000 0 255 51
-1.500000 1.500000 6.000000 255 51 51
-1.000000 1.500000 6.500000 255 51 51
-1.000000 1.750000 6.250000 255 51 51
1.500000 1.500000 6.000000 0 255 51
2.000000 1.500000 6.000000 0 255 51
2.000000 1.500000 5.500000 0 255 51
1.500000 1.500000 6.000000 255 51 51
1.000000 1.750000 6.250000 255 51 51
1.000000 1.500000 6.500000 255 51 51
4.500000 1.000000 6.500000 255 204 102
5.000000 1.500000 6.500000 255 204 102
-3.500000 -2.000000 6.500000 255 204 102
-4.000000 -2.000000 7.000000 255 204 102
-4.000000 -2.500000 6.500000 255 204 102
4.000000 -2.000000 7.000000 255 204 102
3.500000 -2.000000 6.500000 255 204 102
4.000000 -2.500000 6.500000 255 204 102
-4.000000 -1.000000 7.000000 255 204 102
-5.000000 -2.000000 7.000000 255 204 102
5.000000 -2.000000 7.000000 255 204 102
4.000000 -1.000000 7.000000 255 204 102
-2.000000 -2.500000 16.500000 255 204 102
0.000000 -2.500000 16.500000 255 204 102
-1.000000 -2.500000 17.500000 255 204 102
0.500000 -2.500000 21.000000 255 255 102
0.000000 -2.500000 21.500000 255 255 102
-0.500000 -2.500000 21.000000 255 255 102
1.000000 -0.500000 10.500000 255 51 51
1.000000 -1.500000 11.500000 255 51 51
0.000000 -0.500000 11.500000 255 51 51
5.000000 -1.000000 11.000000 255 204 102
4.500000 -1.000000 10.500000 255 204 102
5.000000 -1.500000 10.500000 255 204 102
-4.000000 -0.500000 11.500000 255 204 102
-5.000000 -0.500000 11.500000 255 204 102
-4.000000 0.000000 11.000000 255 204 102
4.500000 0.000000 10.500000 255 204 102
-3.500000 2.500000 11.000000 255 51 51
-3.250000 3.000000 10.750000 255 51 51
-3.000000 3.000000 11.000000 255 51 51
-3.500000 2.500000 11.000000 255 204 102
-3.750000 2.000000 10.750000 255 204 102
-4.000000 2.000000 11.000000 255 204 102
3.500000 2.500000 11.000000 255 51 51
3.000000 3.000000 11.000000 255 51 51
3.250000 3.000000 10.750000 255 51 51
3.500000 2.500000 11.000000 255 204 102
4.000000 2.000000 11.000000 255 204 102
3.750000 2.000000 10.750000 255 204 102
-1.000000 -1.500000 11.500000 255 51 51
-1.000000 -0.500000 10.500000 255 51 51
-0.500000 -2.000000 25.500000 255 255 102
-0.500000 2.000000 21.500000 255 255 102
-0.500000 -2.000000 21.500000 255 255 102
-1.000000 0.000000 4.000000 0 255 51
-0.500000 -1.500000 14.000000 255 204 102
-1.000000 -2.000000 14.000000 255 204 102
-1.000000 -1.750000 13.750000 255 204 102
0.500000 -1.500000 14.000000 255 204 102
1.000000 -1.750000 13.750000 255 204 102
1.000000 -2.000000 14.000000 255 204 102
-6.000000 0.000000 14.000000 255 204 102
-6.500000 0.000000 13.500000 255 204 102
-6.000000 -0.500000 13.500000 255 204 102
0.500000 2.500000 21.000000 255 255 102
-0.500000 2.500000 21.000000 255 255 102
0.000000 2.500000 21.500000 255 255 102
6.500000 0.000000 13.500000 255 204 102
6.000000 0.000000 14.000000 255 204 102
6.000000 -0.500000 13.500000 255 204 102
-2.500000 0.500000 14.000000 255 51 51
-3.000000 0.000000 14.000000 255 51 51
-2.750000 0.000000 14.250000 255 51 51
-1.500000 1.500000 14.000000 255 51 51
-1.833330 0.833333 14.333300 255 51 51
2.500000 0.500000 14.000000 255 51 51
2.750000 0.000000 14.250000 255 51 51
3.000000 0.000000 14.000000 255 51 51
2.500000 1.000000 8.500000 255 51 51
2.500000 2.000000 9.500000 255 51 51
2.500000 0.000000 9.500000 255 51 51
-1.000000 1.750000 14.250000 255 51 51
-1.000000 2.000000 14.000000 255 51 51
1.500000 1.500000 14.000000 255 51 51
1.000000 2.000000 14.000000 255 51 51
1.000000 1.750000 14.250000 255 51 51
-2.500000 2.000000 9.500000 255 51 51
-2.500000 1.000000 8.500000 255 51 51
-2.500000 0.000000 9.500000 255 51 51
-6.000000 2.500000 13.500000 255 204 102
-6.500000 2.000000 13.500000 255 204 102
-6.000000 2.000000 14.000000 255 204 102
6.500000 2.000000 13.500000 255 204 102
6.000000 2.500000 13.500000 255 204 102
6.000000 2.000000 14.000000 255 204 102
-1.000000 1.500000 14.500000 255 204 102
-1.000000 1.500000 15.500000 255 204 102
0.000000 1.500000 14.500000 255 204 102
1.000000 1.500000 14.500000 255 204 102
1.000000 1.500000 15.500000 255 204 102
1.000000 0.000000 4.000000 0 255 51
0.000000 -4.500000 17.500000 255 204 102
-0.500000 -4.000000 17.500000 255 204 102
0.000000 -4.000000 17.000000 255 204 102
0.500000 -4.000000 17.500000 255 204 102
-0.500000 -3.000000 17.500000 255 204 102
-0.500000 -3.000000 18.500000 255 204 102
0.500000 -3.000000 17.500000 255 204 102
0.500000 -3.000000 18.500000 255 204 102
2.000000 -2.500000 16.500000 255 204 102
1.000000 -2.500000 17.500000 255 204 102
-1.500000 -1.500000 18.000000 255 204 102
-1.500000 -2.000000 17.500000 255 204 102
-1.500000 -2.000000 18.000000 255 204 102
1.500000 -1.500000 18.000000 255 204 102
1.500000 -2.000000 18.000000 255 204 102
1.500000 -2.000000 17.500000 255 204 102
0.500000 2.000000 21.500000 255 255 102
0.500000 -2.000000 25.500000 255 255 102
0.500000 -2.000000 21.500000 255 255 102
1.833330 0.833333 14.333300 255 51 51
0.000000 -2.000000 26.000000 255 255 102
0.000000 -2.500000 25.500000 255 255 102
-0.750000 2.000000 21.250000 255 204 102
-1.500000 -2.000000 20.500000 255 204 102
-0.750000 -2.000000 21.250000 255 204 102
2.500000 0.000000 14.500000 255 204 102
2.500000 0.000000 15.500000 255 204 102
-2.500000 0.000000 14.500000 255 204 102
-2.500000 0.000000 15.500000 255 204 102
-2.000000 0.500000 6.000000 255 51 51
-2.500000 1.000000 6.000000 255 51 51
1.500000 -2.000000 18.000000 204 255 255
0.750000 -2.750000 18.500000 204 255 255
0.750000 -2.750000 18.000000 204 255 255
-2.000000 0.500000 1.500000 0 255 51
-3.750000 -0.750000 13.500000 255 51 51
-3.000000 -1.500000 11.500000 255 51 51
-3.000000 -1.500000 13.500000 255 51 51
0.000000 -0.500000 13.500000 255 51 51
-1.000000 -4.500000 15.500000 255 204 102
-2.500000 -3.000000 14.500000 255 204 102
-1.000000 -4.500000 14.500000 255 204 102
2.000000 1.500000 6.000000 255 51 51
2.000000 1.500000 8.500000 255 51 51
-6.000000 0.500000 5.500000 255 204 102
-6.500000 0.000000 5.500000 255 204 102
-0.833333 -2.833330 18.666700 255 204 102
-1.500000 -3.000000 19.500000 255 204 102
-1.500000 -2.500000 19.000000 255 204 102
-6.500000 -2.000000 6.500000 255 204 102
-6.000000 -2.500000 6.500000 255 204 102
-6.500000 1.000000 6.500000 255 204 102
-5.000000 -0.500000 8.500000 255 204 102
-4.500000 -1.000000 9.500000 255 204 102
-5.000000 -1.500000 9.500000 255 204 102
-4.000000 2.500000 13.500000 255 204 102
-3.500000 2.500000 14.000000 255 204 102
-3.750000 2.750000 13.500000 255 204 102
3.000000 -1.500000 13.500000 255 51 51
3.750000 -0.750000 11.500000 255 51 51
3.750000 -0.750000 13.500000 255 51 51
2.000000 0.500000 8.500000 255 51 51
2.500000 1.000000 6.000000 255 51 51
-3.750000 0.000000 10.750000 255 51 51
-4.500000 -1.000000 7.500000 255 204 102
-3.000000 3.000000 14.000000 255 51 51
3.000000 3.500000 13.500000 255 51 51
-3.000000 3.500000 13.500000 255 51 51
-5.500000 -1.000000 5.500000 255 204 102
-5.500000 -1.000000 4.500000 255 204 102
2.750000 -1.000000 14.250000 255 51 51
3.000000 -1.000000 14.000000 255 51 51
3.750000 2.750000 12.500000 255 51 51
3.000000 3.500000 12.500000 255 51 51
5.500000 -1.000000 4.500000 255 204 102
-1.500000 0.000000 0.500000 255 255 0
4.000000 -0.500000 11.500000 255 204 102
2.000000 1.500000 4.500000 0 255 51
-4.500000 -2.000000 5.500000 255 204 102
1.000000 -4.000000 14.000000 255 204 102
-1.000000 -4.000000 14.000000 255 204 102
6.000000 -0.500000 11.500000 255 204 102
6.500000 -1.000000 10.500000 255 204 102
6.500000 0.000000 11.500000 255 204 102
1.500000 0.000000 0.500000 255 255 0
2.000000 -3.000000 16.000000 255 204 102
-2.000000 -3.000000 16.000000 255 204 102
-2.500000 0.000000 0.500000 255 255 0
-4.500000 0.000000 6.500000 255 204 102
-3.500000 -1.000000 6.500000 255 204 102
5.000000 -2.500000 5.500000 255 204 102
6.000000 -2.500000 6.500000 255 204 102
4.000000 -0.500000 13.500000 255 204 102
4.000000 0.000000 14.000000 255 204 102
-2.500000 2.000000 17.500000 255 204 102
-1.500000 -1.000000 18.500000 255 204 102
-1.500000 2.000000 18.500000 255 204 102
-2.000000 1.500000 6.000000 255 51 51
-2.000000 1.500000 8.500000 255 51 51
-2.000000 0.000000 1.000000 255 255 0
-1.500000 0.500000 1.000000 255 255 0
-2.000000 0.250000 1.250000 255 255 0
-1.500000 -2.000000 18.000000 204 255 255
-0.750000 -2.750000 18.500000 204 255 255
-1.500000 -2.000000 18.500000 204 255 255
6.000000 1.500000 7.500000 255 204 102
6.500000 3.000000 9.500000 255 204 102
6.500000 1.000000 7.500000 255 204 102
4.500000 0.000000 6.500000 255 204 102
-4.500000 -1.000000 10.500000 255 204 102
2.500000 1.000000 6.000000 0 255 51
-6.000000 1.500000 7.500000 255 204 102
-5.000000 3.500000 9.500000 255 204 102
-5.000000 1.500000 7.500000 255 204 102
6.500000 1.000000 6.500000 255 204 102
6.000000 0.500000 5.500000 255 204 102
6.000000 3.500000 9.500000 255 204 102
5.000000 1.500000 7.500000 255 204 102
5.000000 3.500000 9.500000 255 204 102
6.000000 -0.500000 8.500000 255 204 102
6.500000 -2.000000 6.500000 255 204 102
6.500000 0.000000 8.500000 255 204 102
-5.500000 0.000000 5.500000 255 204 102
4.000000 2.000000 14.000000 255 204 102
-6.500000 2.000000 12.500000 255 204 102
6.500000 -1.000000 9.500000 255 204 102
6.000000 -1.500000 9.500000 255 204 102
-4.000000 -0.500000 13.500000 255 204 102
-4.000000 0.000000 14.000000 255 204 102
-6.000000 -0.500000 8.500000 255 204 102
-6.500000 -1.000000 9.500000 255 204 102
-6.500000 0.000000 8.500000 255 204 102
1.000000 1.750000 6.250000 0 255 51
-5.000000 -1.000000 6.000000 255 204 102
-4.000000 -2.000000 6.000000 255 204 102
4.000000 2.500000 12.500000 255 204 102
6.000000 3.500000 11.500000 255 204 102
4.000000 3.500000 11.500000 255 204 102
3.500000 -0.500000 14.000000 255 204 102
3.750000 -0.750000 13.500000 255 204 102
-1.000000 2.500000 20.500000 255 204 102
-1.500000 2.000000 20.500000 255 204 102
-0.750000 2.000000 21.250000 255 255 102
2.500000 2.000000 17.500000 255 204 102
1.500000 -1.000000 18.500000 255 204 102
2.500000 -1.000000 17.500000 255 204 102
-3.750000 2.750000 12.500000 255 204 102
-4.000000 2.500000 12.500000 255 204 102
0.000000 -3.000000 17.000000 255 204 102
4.000000 2.500000 13.500000 255 204 102
3.500000 2.500000 14.000000 255 204 102
2.500000 0.000000 0.500000 255 255 0
5.000000 -1.500000 9.500000 255 204 102
5.000000 -0.500000 8.500000 255 204 102
1.500000 -2.000000 18.500000 204 255 255
1.500000 -1.500000 18.000000 204 255 255
1.500000 -1.500000 19.000000 204 255 255
3.833330 2.833330 12.333300 255 204 102
-1.000000 0.000000 6.000000 0 255 51
-2.000000 -0.500000 9.500000 255 51 51
-2.000000 0.500000 8.500000 255 51 51
0.750000 2.000000 21.250000 255 255 102
0.750000 -2.000000 21.250000 255 255 102
2.500000 -3.000000 14.500000 255 204 102
2.000000 -3.000000 14.000000 255 204 102
-2.000000 -2.000000 14.000000 255 204 102
-2.000000 -3.000000 14.000000 255 204 102
-6.500000 3.000000 11.500000 255 204 102
-6.000000 2.500000 12.500000 255 204 102
-6.000000 3.500000 11.500000 255 204 102
4.500000 1.000000 7.500000 255 204 102
5.500000 0.000000 5.500000 255 204 102
5.500000 -1.000000 5.500000 255 204 102
-1.000000 -2.500000 20.500000 255 204 102
-6.000000 -0.500000 11.500000 255 204 102
-6.500000 -1.000000 10.500000 255 204 102
-6.000000 -1.500000 10.500000 255 204 102
6.500000 2.000000 12.500000 255 204 102
2.500000 -1.000000 14.500000 255 204 102
2.750000 0.000000 14.250000 255 204 102
2.000000 0.500000 1.500000 0 255 51
2.000000 0.250000 1.250000 0 255 51
3.500000 -1.000000 6.500000 255 204 102
2.000000 2.500000 17.500000 255 204 102
1.500000 2.000000 18.500000 255 204 102
1.000000 0.000000 6.000000 0 255 51
-1.000000 0.250000 6.250000 0 255 51
2.500000 -1.500000 14.000000 255 204 102
2.000000 -2.000000 14.000000 255 204 102
-2.500000 0.500000 1.000000 255 255 0
1.000000 2.500000 18.500000 255 204 102
1.500000 2.000000 20.500000 255 204 102
4.500000 -2.000000 5.500000 255 204 102
3.000000 2.500000 10.500000 255 51 51
-2.000000 2.500000 9.500000 255 51 51
-3.000000 2.500000 10.500000 255 51 51
-3.500000 3.500000 11.000000 255 51 51
-3.000000 3.500000 11.500000 255 51 51
-2.500000 -1.000000 14.500000 255 204 102
-2.750000 -1.000000 14.250000 255 204 102
-2.500000 -1.500000 14.000000 255 204 102
4.500000 -1.000000 9.500000 255 204 102
-3.500000 -0.500000 11.000000 255 204 102
-6.500000 3.000000 9.500000 255 204 102
-6.000000 3.500000 9.500000 255 204 102
-2.500000 1.000000 6.000000 0 255 51
2.000000 1.500000 1.000000 0 255 51
-5.000000 -1.500000 10.500000 255 204 102
-6.000000 -1.500000 9.500000 255 204 102
1.000000 2.500000 20.500000 255 204 102
0.750000 2.000000 21.250000 255 204 102
4.500000 3.000000 9.500000 255 204 102
3.500000 3.500000 11.000000 255 204 102
2.000000 1.500000 1.000000 255 255 0
-1.833330 0.833333 14.333300 255 204 102
-1.500000 1.500000 14.000000 255 204 102
3.500000 3.500000 11.000000 255 51 51
0.000000 -1.000000 14.000000 255 204 102
-0.166667 -0.833333 13.666700 255 204 102
0.000000 -0.750000 13.750000 255 204 102
4.000000 -1.000000 6.000000 255 204 102
2.500000 -3.000000 15.500000 255 204 102
1.000000 -4.500000 14.500000 255 204 102
-4.500000 1.000000 7.500000 255 204 102
1.000000 -4.000000 16.000000 255 204 102
-1.000000 -4.000000 16.000000 255 204 102
3.750000 -0.750000 11.500000 255 204 102
3.500000 -0.500000 11.000000 255 204 102
2.000000 0.000000 1.000000 255 255 0
1.500000 0.500000 1.000000 255 255 0
6.500000 3.000000 11.500000 255 204 102
6.000000 2.500000 12.500000 255 204 102
-5.000000 -2.500000 5.500000 255 204 102
-2.000000 1.500000 1.000000 255 255 0
-4.000000 3.500000 11.500000 255 204 102
-3.000000 -0.500000 10.500000 255 51 51
-3.750000 -0.750000 13.500000 255 204 102
-2.500000 -1.000000 17.500000 255 204 102
-2.500000 -3.000000 15.500000 255 204 102
-3.500000 -0.500000 14.000000 255 204 102
2.000000 2.500000 9.500000 255 51 51
-3.500000 3.500000 12.000000 255 51 51
-3.750000 2.750000 12.500000 255 51 51
-3.000000 3.500000 12.500000 255 51 51
-1.500000 -1.500000 18.000000 204 255 255
-3.500000 3.500000 11.000000 255 204 102
-3.250000 3.000000 10.750000 255 204 102
-4.500000 3.000000 9.500000 255 204 102
0.166667 -0.833333 13.666700 255 204 102
3.000000 -0.500000 10.500000 255 51 51
3.000000 -1.500000 11.500000 255 51 51
-6.000000 1.500000 6.500000 255 204 102
-4.000000 -1.000000 6.000000 255 204 102
-6.500000 0.000000 11.500000 255 204 102
-2.500000 -1.750000 13.750000 255 51 51
-1.000000 -1.500000 13.500000 255 51 51
-1.000000 -1.750000 13.750000 255 51 51
5.000000 -1.000000 6.000000 255 204 102
-1.500000 -1.500000 19.000000 255 204 102
0.750000 -2.000000 21.250000 255 204 102
1.500000 -2.000000 20.500000 255 204 102
2.500000 -1.750000 13.750000 255 51 51
1.000000 -1.500000 13.500000 255 51 51
3.500000 3.500000 12.000000 255 51 51
4.000000 0.000000 11.000000 255 204 102
-1.500000 1.000000 1.000000 255 255 0
3.750000 0.000000 10.750000 255 51 51
4.500000 0.000000 8.500000 255 204 102
-4.500000 2.000000 10.500000 255 204 102
-1.000000 1.750000 14.250000 255 204 102
1.000000 1.750000 14.250000 255 204 102
3.000000 3.500000 11.500000 255 51 51
4.000000 -2.000000 6.000000 255 204 102
-3.833330 2.833330 12.333300 255 204 102
-3.000000 -1.000000 14.000000 255 51 51
2.500000 -1.750000 13.750000 255 204 102
0.500000 -2.500000 21.000000 255 204 102
1.000000 -2.500000 20.500000 255 204 102
-6.500000 1.000000 7.500000 255 204 102
-2.000000 1.500000 4.500000 0 255 51
-0.500000 -2.500000 21.000000 255 204 102
-2.000000 2.500000 17.500000 255 204 102
-1.000000 2.500000 18.500000 255 204 102
0.000000 2.500000 15.500000 255 204 102
1.500000 -2.500000 19.000000 204 255 255
3.250000 3.000000 10.750000 255 204 102
4.500000 2.000000 10.500000 255 204 102
0.500000 -1.500000 14.000000 255 51 51
0.166667 -0.833333 13.666700 255 51 51
-4.500000 0.000000 8.500000 255 204 102
3.000000 3.000000 14.000000 255 51 51
3.750000 2.750000 13.500000 255 51 51
-2.500000 -1.500000 14.000000 255 51 51
6.000000 -1.500000 10.500000 255 204 102
2.500000 0.500000 1.000000 255 255 0
2.500000 1.000000 1.000000 255 255 0
2.500000 0.500000 14.000000 255 204 102
1.833330 0.833333 14.333300 255 204 102
0.833333 -2.833330 18.666700 255 204 102
-2.000000 1.500000 1.000000 0 255 51
-1.000000 1.750000 6.250000 0 255 51
3.750000 2.750000 13.500000 255 204 102
6.500000 0.000000 5.500000 255 204 102
-0.166667 -0.833333 13.666700 255 51 51
1.500000 -1.500000 19.000000 255 204 102
-1.500000 -2.500000 19.000000 204 255 255
-0.833333 -2.833330 18.666700 204 255 255
0.750000 -2.750000 18.000000 255 204 102
2.000000 0.250000 1.250000 255 255 0
-4.000000 2.000000 14.000000 255 204 102
-3.750000 2.750000 13.500000 255 51 51
4.500000 -1.000000 7.500000 255 204 102
-2.000000 0.250000 1.250000 0 255 51
-3.750000 2.000000 10.750000 255 51 51
3.500000 -0.500000 11.000000 255 51 51
-0.750000 -2.750000 18.000000 255 204 102
-3.750000 -0.750000 11.500000 255 51 51
-0.750000 -2.750000 18.500000 255 204 102
2.000000 0.500000 6.000000 255 51 51
-3.750000 0.000000 10.750000 255 204 102
-0.750000 -2.750000 18.000000 204 255 255
1.000000 0.250000 6.250000 0 255 51
6.000000 1.500000 6.500000 255 204 102
-0.500000 2.500000 21.000000 255 204 102
-0.750000 -2.000000 21.250000 255 255 102
3.500000 3.500000 12.000000 255 204 102
3.750000 2.750000 12.500000 255 204 102
2.000000 -0.500000 9.500000 255 51 51
2.750000 -1.000000 14.250000 255 204 102
-2.500000 1.000000 1.000000 255 255 0
-2.500000 -1.750000 13.750000 255 204 102
-3.750000 -0.750000 11.500000 255 204 102
0.500000 2.500000 21.000000 255 204 102
1.500000 1.000000 1.000000 255 255 0
-2.500000 0.500000 14.000000 255 204 102
-2.750000 0.000000 14.250000 255 204 102
1.000000 -4.500000 15.500000 255 204 102
3.750000 0.000000 10.750000 255 204 102
-3.500000 -0.500000 11.000000 255 51 51
-3.833330 2.833330 12.333300 255 51 51
-1.500000 -1.500000 19.000000 204 255 255
3.500000 2.500000 14.000000 255 51 51
3.500000 -0.500000 14.000000 255 51 51
-3.500000 2.500000 14.000000 255 51 51
-3.500000 -0.500000 14.000000 255 51 51
1.000000 -1.750000 13.750000 255 51 51
3.833330 2.833330 12.333300 255 51 51
3.750000 2.000000 10.750000 255 51 51
-3.500000 3.500000 12.000000 255 204 102
-2.750000 -1.000000 14.250000 255 51 51
1.500000 -3.000000 19.500000 255 204 102
0.833333 -2.833330 18.666700 204 255 255
0.000000 -0.750000 13.750000 255 51 51
2.500000 -1.500000 14.000000 255 51 51
1.500000 1.500000 14.000000 255 204 102
0.750000 -2.750000 18.500000 255 204 102
1.500000 -2.500000 19.000000 255 204 102
-0.500000 -1.500000 14.000000 255 51 51
3 0 1 2
3 3 0 2
3 4 5 6
3 7 4 6
3 8 9 10
3 11 8 10
3 12 13 14
3 15 12 14
3 1 0 16
3 16 0 3
3 17 5 4
3 7 17 4
3 18 19 20
3 21 22 23
3 24 25 26
3 27 28 29
3 30 31 32
3 33 34 35
3 36 37 38
3 39 40 41
3 42 43 44
3 35 45 38
3 46 47 48
3 49 50 51
3 44 41 52
3 53 54 55
3 56 53 55
3 57 58 59
3 60 57 59
3 61 62 63
3 62 64 63
3 64 65 63
3 63 65 66
3 67 68 69
3 69 68 70
3 70 68 71
3 68 72 71
3 73 63 74
3 75 76 68
3 73 74 77
3 76 75 78
3 79 80 81
3 82 83 84
3 85 86 87
3 88 89 64
3 90 91 92
3 93 70 94
3 95 96 97
3 98 99 100
3 101 85 102
3 103 104 105
3 106 107 108
3 109 110 111
3 112 113 114
3 98 115 116
3 117 118 119
3 120 121 122
3 118 123 124
3 120 125 126
3 127 128 129
3 130 131 132
3 133 134 135
3 136 137 138
3 139 140 141
3 137 136 142
3 143 144 145
3 146 147 148
3 149 150 151
3 152 153 154
3 155 156 135
3 157 158 159
3 61 63 160
3 161 162 163
3 164 165 166
3 167 168 169
3 170 171 172
3 173 174 175
3 176 177 178
3 179 176 180
3 181 182 183
3 184 185 186
3 179 187 188
3 189 190 191
3 192 193 194
3 195 196 197
3 198 199 200
3 201 202 203
3 204 203 205
3 68 67 206
3 207 208 209
3 210 207 209
3 211 208 212
3 213 214 210
3 128 215 216
3 217 218 219
3 220 221 222
3 223 224 225
3 189 226 181
3 227 157 228
3 224 227 228
3 229 230 231
3 232 205 233
3 202 234 235
3 236 193 237
3 238 239 240
3 66 241 23
3 25 71 72
3 242 243 244
3 188 191 190
3 134 245 135
3 131 157 159
3 241 21 23
3 246 247 248
3 69 83 82
3 184 249 250
3 251 54 252
3 253 254 255
3 256 33 257
3 258 87 251
3 259 260 261
3 262 263 264
3 265 266 267
3 197 168 167
3 268 269 184
3 270 192 194
3 271 259 124
3 272 273 274
3 275 36 276
3 183 277 278
3 273 279 280
3 57 281 58
3 8 11 282
3 283 142 136
3 284 68 76
3 285 37 36
3 286 248 287
3 288 289 290
3 160 47 61
3 6 291 12
3 155 244 243
3 292 128 293
3 2 294 8
3 295 123 296
3 297 43 298
3 299 174 300
3 301 302 303
3 44 52 42
3 92 97 96
3 247 287 248
3 17 291 5
3 41 43 39
3 147 141 148
3 304 193 305
3 306 307 308
3 309 310 311
3 312 313 314
3 98 315 115
3 69 70 93
3 140 316 141
3 284 317 32
3 318 319 320
3 99 321 322
3 323 324 325
3 326 327 328
3 56 251 329
3 199 330 200
3 195 331 196
3 326 332 333
3 206 48 160
3 167 334 335
3 336 337 338
3 77 339 78
3 285 340 341
3 342 343 344
3 62 47 80
3 299 345 346
3 229 347 348
3 347 303 348
3 111 76 109
3 349 159 158
3 350 351 352
3 262 353 354
3 298 42 327
3 35 37 33
3 129 355 211
3 356 357 330
3 12 15 358
3 326 359 360
3 336 256 257
3 361 362 363
3 344 364 342
3 365 88 62
3 268 366 367
3 206 63 68
3 368 225 369
3 370 286 371
3 247 372 373
3 374 375 376
3 324 115 377
3 378 281 379
3 28 380 29
3 381 382 383
3 384 199 198
3 385 386 232
3 387 24 388
3 120 389 121
3 329 340 275
3 390 391 350
3 392 393 365
3 225 130 369
3 355 208 211
3 358 17 7
3 27 210 214
3 173 288 290
3 380 231 230
3 394 385 395
3 50 81 46
3 396 9 294
3 397 398 391
3 39 399 40
3 400 401 402
3 387 30 32
3 145 403 404
3 405 406 407
3 359 137 408
3 262 375 195
3 141 409 139
3 318 410 411
3 321 312 314
3 64 412 65
3 166 286 162
3 413 26 25
3 282 16 3
3 289 333 332
3 414 381 383
3 415 382 337
3 416 417 398
3 172 224 223
3 418 419 325
3 83 365 79
3 13 420 14
3 306 396 294
3 276 329 275
3 421 201 422
3 150 423 151
3 355 216 213
3 197 262 195
3 16 294 1
3 424 425 426
3 427 121 389
3 119 118 124
3 428 429 370
3 281 41 40
3 101 320 430
3 400 145 150
3 246 431 432
3 27 208 207
3 234 406 405
3 432 292 293
3 283 433 434
3 435 436 291
3 210 355 213
3 313 343 437
3 438 437 343
3 33 37 439
3 330 300 200
3 299 433 283
3 9 440 10
3 295 85 101
3 376 354 441
3 276 38 45
3 243 156 155
3 442 270 194
3 139 443 334
3 429 246 248
3 444 445 127
3 334 446 335
3 75 77 78
3 46 80 47
3 305 447 250
3 448 449 450
3 86 251 87
3 451 309 311
3 272 188 190
3 82 50 49
3 452 453 454
3 79 62 80
3 455 424 426
3 134 456 457
3 49 206 67
3 320 458 318
3 117 459 296
3 169 460 381
3 461 462 463
3 399 464 379
3 465 348 302
3 398 466 467
3 379 40 399
3 312 116 324
3 468 469 265
3 279 470 280
3 81 83 79
3 471 154 153
3 100 322 378
3 10 472 11
3 185 473 186
3 119 285 341
3 360 408 474
3 475 453 146
3 476 203 477
3 296 118 117
3 116 99 98
3 333 138 359
3 316 261 260
3 307 11 472
3 478 450 280
3 198 174 173
3 427 464 479
3 354 480 441
3 372 163 162
3 261 336 259
3 481 178 177
3 334 169 140
3 298 125 122
3 395 165 482
3 126 315 389
3 205 390 350
3 399 122 479
3 466 483 484
3 54 45 34
3 318 258 485
3 51 46 48
3 63 486 74
3 344 325 419
3 159 132 131
3 315 427 389
3 484 487 380
3 340 459 341
3 202 301 488
3 489 397 490
3 199 342 356
3 114 108 107
3 491 239 361
3 224 131 225
3 459 295 296
3 171 158 172
3 492 493 152
3 265 134 457
3 469 494 495
3 475 316 496
3 436 13 291
3 233 428 385
3 497 498 273
3 267 278 265
3 464 378 379
3 499 481 244
3 114 107 250
3 303 488 301
3 245 155 135
3 288 136 500
3 501 15 502
3 299 288 175
3 232 503 504
3 505 28 214
3 23 22 506
3 395 370 371
3 74 103 507
3 276 53 56
3 342 508 356
3 71 32 317
3 60 322 509
3 245 510 462
3 441 319 376
3 458 85 87
3 511 398 467
3 49 69 82
3 141 475 148
3 313 290 328
3 512 310 513
3 261 383 415
3 104 486 412
3 471 493 142
3 485 338 410
3 514 216 221
3 377 474 493
3 92 96 268
3 435 501 515
3 14 502 15
3 185 447 400
3 156 366 133
3 75 63 73
3 235 444 301
3 335 516 167
3 517 272 274
3 411 374 376
3 215 352 222
3 360 474 518
3 241 18 519
3 520 143 402
3 322 58 378
3 473 521 456
3 129 211 522
3 450 517 274
3 229 348 230
3 232 204 205
3 202 201 234
3 236 367 193
3 238 361 239
3 66 65 241
3 25 387 71
3 242 523 243
3 188 187 191
3 134 469 245
3 131 228 157
3 241 519 21
3 246 445 247
3 69 392 83
3 184 269 249
3 251 55 54
3 253 524 212
3 212 27 29
3 29 254 253
3 253 212 29
3 256 34 33
3 251 252 258
3 258 458 87
3 259 496 260
3 262 516 263
3 265 457 266
3 197 196 168
3 268 525 269
3 270 520 192
3 271 496 259
3 124 123 271
3 272 497 273
3 275 285 36
3 183 182 277
3 273 498 279
3 57 52 281
3 282 3 2
3 2 8 282
3 283 471 142
3 284 72 68
3 285 439 37
3 286 429 248
3 288 500 289
3 160 48 47
3 13 12 291
3 6 5 291
3 155 462 244
3 127 293 128
3 292 215 128
3 9 8 294
3 2 1 294
3 295 271 123
3 297 39 43
3 298 122 297
3 299 175 174
3 301 444 302
3 60 42 52
3 52 57 60
3 92 91 97
3 247 373 287
3 17 435 291
3 41 44 43
3 147 526 141
3 304 237 193
3 306 282 307
3 309 527 310
3 312 323 313
3 98 100 315
3 93 528 392
3 392 69 93
3 140 414 316
3 284 76 111
3 111 110 317
3 32 31 413
3 111 317 284
3 32 413 284
3 318 411 319
3 509 322 321
3 99 529 321
3 323 312 324
3 326 298 327
3 56 55 251
3 199 356 330
3 195 375 331
3 326 328 332
3 206 51 48
3 167 169 334
3 336 415 337
3 77 507 339
3 285 275 340
3 342 438 343
3 62 61 47
3 299 300 345
3 229 530 347
3 347 489 303
3 339 109 76
3 76 78 339
3 349 531 159
3 350 391 351
3 262 264 353
3 298 43 42
3 35 38 37
3 129 128 355
3 356 508 357
3 358 7 6
3 6 12 358
3 326 333 359
3 336 338 256
3 361 238 362
3 363 491 361
3 344 532 364
3 364 533 342
3 64 62 88
3 365 393 88
3 268 534 366
3 206 160 63
3 368 223 225
3 370 429 286
3 247 405 372
3 374 331 375
3 324 116 115
3 378 58 281
3 28 484 380
3 381 460 382
3 384 438 199
3 385 535 386
3 387 25 24
3 120 126 389
3 329 86 340
3 390 397 391
3 392 528 393
3 225 131 130
3 355 209 208
3 358 435 17
3 27 207 210
3 173 175 288
3 230 254 380
3 380 487 231
3 254 29 380
3 394 535 385
3 395 482 394
3 50 84 81
3 396 536 9
3 397 416 398
3 39 297 399
3 400 447 401
3 387 388 30
3 145 144 403
3 372 405 407
3 407 537 372
3 359 138 137
3 262 354 375
3 538 139 409
3 141 526 409
3 318 485 410
3 321 529 312
3 241 65 19
3 64 89 412
3 412 19 65
3 161 424 164
3 166 395 371
3 161 164 166
3 373 372 162
3 162 161 166
3 166 371 286
3 286 287 162
3 373 162 287
3 25 72 284
3 284 413 25
3 282 306 16
3 289 500 333
3 414 140 381
3 415 383 382
3 416 539 417
3 368 170 223
3 172 227 224
3 223 170 172
3 325 324 418
3 418 492 419
3 324 377 418
3 83 392 365
3 13 540 420
3 306 308 396
3 276 56 329
3 421 541 234
3 542 234 541
3 201 476 422
3 421 234 201
3 150 478 423
3 355 128 216
3 197 516 262
3 16 306 294
3 424 161 425
3 427 479 121
3 259 336 124
3 257 119 124
3 124 336 257
3 428 543 429
3 281 52 41
3 101 102 320
3 478 150 145
3 400 402 145
3 145 404 478
3 246 543 431
3 27 212 208
3 234 542 406
3 432 431 292
3 434 544 471
3 471 283 434
3 435 515 436
3 210 209 355
3 313 323 343
3 438 384 437
3 257 33 439
3 439 119 257
3 330 357 345
3 300 174 200
3 330 345 300
3 299 346 433
3 9 536 440
3 295 86 85
3 376 375 354
3 276 36 38
3 243 442 156
3 193 367 194
3 442 243 545
3 194 367 366
3 545 270 442
3 243 523 545
3 194 366 442
3 139 538 443
3 429 543 246
3 127 129 218
3 217 302 444
3 127 218 444
3 246 432 293
3 218 217 444
3 445 246 293
3 293 127 445
3 334 443 446
3 75 73 77
3 46 81 80
3 305 401 447
3 448 546 449
3 86 329 251
3 547 451 311
3 311 512 547
3 189 548 497
3 183 278 549
3 549 548 183
3 497 272 190
3 550 551 177
3 177 176 550
3 551 481 177
3 183 548 181
3 190 189 497
3 550 176 179
3 550 179 272
3 181 548 189
3 179 188 272
3 82 84 50
3 430 320 454
3 319 452 454
3 454 320 319
3 79 365 62
3 455 164 424
3 134 133 456
3 49 51 206
3 320 102 458
3 117 341 459
3 169 168 460
3 461 244 462
3 399 479 464
3 465 255 230
3 254 230 255
3 348 303 302
3 302 217 465
3 465 230 348
3 398 417 466
3 379 281 40
3 312 529 116
3 468 552 469
3 279 553 470
3 81 84 83
3 471 544 154
3 100 99 322
3 10 440 472
3 185 554 473
3 341 117 119
3 119 439 285
3 360 359 408
3 146 148 475
3 475 454 453
3 204 477 203
3 476 201 203
3 296 123 118
3 116 529 99
3 333 500 138
3 316 414 261
3 307 282 11
3 404 403 448
3 450 274 273
3 404 448 450
3 470 423 478
3 478 404 450
3 450 273 280
3 280 470 478
3 198 200 174
3 427 100 464
3 354 353 480
3 480 555 441
3 372 537 163
3 261 415 336
3 481 556 178
3 381 140 169
3 139 334 140
3 298 326 125
3 125 120 122
3 326 360 125
3 395 166 165
3 126 518 315
3 205 203 490
3 490 390 205
3 350 233 205
3 121 479 122
3 399 297 122
3 28 557 484
3 467 466 484
3 484 557 467
3 35 34 45
3 54 53 45
3 318 458 258
3 51 50 46
3 63 66 486
3 344 343 325
3 323 325 343
3 419 532 344
3 159 531 132
3 315 100 427
3 484 483 487
3 340 86 459
3 488 490 202
3 202 235 301
3 490 203 202
3 489 347 397
3 530 539 416
3 397 390 490
3 530 416 347
3 490 488 489
3 347 416 397
3 199 438 342
3 114 113 108
3 491 558 239
3 224 228 131
3 459 86 295
3 227 172 158
3 171 349 158
3 158 157 227
3 153 152 493
3 492 418 493
3 265 469 134
3 245 469 495
3 552 494 469
3 495 559 245
3 271 295 430
3 430 454 475
3 295 101 430
3 316 260 496
3 496 271 430
3 430 475 496
3 436 540 13
3 370 385 428
3 233 350 352
3 385 232 233
3 352 428 233
3 497 548 498
3 468 265 560
3 267 549 278
3 278 277 560
3 560 265 278
3 464 100 378
3 242 244 481
3 461 499 244
3 481 551 242
3 499 556 481
3 107 106 304
3 304 305 107
3 250 249 114
3 249 112 114
3 107 305 250
3 303 489 488
3 245 462 155
3 138 500 136
3 288 283 136
3 501 358 15
3 299 283 288
3 561 477 204
3 204 232 504
3 386 503 232
3 504 561 204
3 214 562 505
3 505 563 557
3 557 28 505
3 27 214 28
3 506 486 23
3 66 23 486
3 395 385 370
3 507 77 74
3 74 104 103
3 276 45 53
3 342 533 508
3 317 94 70
3 71 387 32
3 317 70 71
3 60 59 322
3 245 559 510
3 510 564 462
3 463 462 564
3 441 555 452
3 452 319 441
3 411 376 319
3 458 102 85
3 467 557 563
3 511 220 351
3 467 563 511
3 391 398 351
3 511 351 398
3 49 67 69
3 141 316 475
3 509 321 314
3 314 313 328
3 384 198 173
3 313 437 290
3 42 60 509
3 509 314 328
3 384 173 290
3 290 289 332
3 328 327 509
3 290 332 328
3 437 384 290
3 327 42 509
3 512 311 310
3 261 414 383
3 104 74 486
3 486 506 19
3 19 412 486
3 506 20 19
3 412 105 104
3 471 153 493
3 485 258 252
3 252 54 34
3 34 256 252
3 338 337 382
3 460 168 331
3 338 382 460
3 252 256 338
3 374 410 460
3 485 252 338
3 338 460 410
3 331 374 460
3 168 196 331
3 222 221 216
3 514 562 214
3 213 216 514
3 514 214 213
3 137 142 408
3 493 418 377
3 377 115 315
3 315 518 474
3 474 408 142
3 142 493 474
3 377 315 474
3 268 367 92
3 236 90 92
3 96 95 525
3 367 236 92
3 96 525 268
3 435 358 501
3 14 420 502
3 150 149 400
3 185 184 250
3 400 149 554
3 250 447 185
3 400 554 185
3 156 442 366
3 366 534 133
3 133 135 156
3 534 456 133
3 75 68 63
3 235 234 405
3 405 247 445
3 445 444 235
3 235 405 445
3 335 446 263
3 516 197 167
3 335 263 516
3 517 550 272
3 411 410 374
3 292 431 543
3 428 352 215
3 352 351 220
3 292 543 428
3 222 216 215
3 215 292 428
3 352 220 222
3 125 360 518
3 518 126 125
3 241 19 18
3 401 305 192
3 192 520 402
3 305 193 192
3 143 145 402
3 402 401 192
3 322 59 58
3 456 534 186
3 268 184 186
3 186 473 456
3 521 266 457
3 534 268 186
3 521 457 456
3 219 218 129
3 211 212 522
3 522 219 129
3 212 524 522
3 450 449 517
