ply
format ascii 1.0
comment Created by Blender 2.78 (sub 0) - www.blender.org, source file: ''
element vertex 565
property float x
property float y
property float z
property uchar red
property uchar green
property uchar blue
element face 928
property list uchar uint vertex_indices
end_header
-2.000000 -1.500000 0.500000 255 255 0
-2.500000 -1.000000 0.500000 255 255 0
-2.000000 -1.000000 0.000000 255 255 0
-1.500000 -1.000000 0.500000 255 255 0
2.000000 -1.500000 0.500000 255 255 0
1.500000 -1.000000 0.500000 255 255 0
2.000000 -1.000000 0.000000 255 255 0
2.500000 -1.000000 0.500000 255 255 0
-2.000000 1.000000 0.000000 255 255 0
-2.500000 1.000000 0.500000 255 255 0
-2.000000 1.500000 0.500000 255 255 0
-1.500000 1.000000 0.500000 255 255 0
2.000000 1.000000 0.000000 255 255 0
1.500000 1.000000 0.500000 255 255 0
2.000000 1.500000 0.500000 255 255 0
2.500000 1.000000 0.500000 255 255 0
-2.000000 -1.000000 1.000000 255 255 0
2.000000 -1.000000 1.000000 255 255 0
-2.500000 0.500000 1.000000 0 255 51
-2.500000 1.000000 1.500000 0 255 51
-2.500000 1.000000 1.000000 0 255 51
-1.500000 0.500000 1.000000 0 255 51
-1.500000 1.000000 1.000000 0 255 51
-1.500000 1.000000 1.500000 0 255 51
1.500000 0.500000 1.000000 0 255 51
1.500000 1.000000 1.500000 0 255 51
1.500000 1.000000 1.000000 0 255 51
0.000000 -3.500000 18.500000 255 204 102
1.000000 -3.500000 19.500000 255 204 102
-1.000000 -3.500000 19.500000 255 204 102
2.500000 0.500000 1.000000 0 255 51
2.500000 1.000000 1.000000 0 255 51
2.500000 1.000000 1.500000 0 255 51
-6.000000 -2.500000 4.500000 255 204 102
-6.500000 -2.000000 4.500000 255 204 102
-6.000000 -2.000000 4.000000 255 204 102
-4.500000 -2.000000 4.500000 255 204 102
-5.000000 -2.500000 4.500000 255 204 102
-5.000000 -2.000000 4.000000 255 204 102
5.000000 -2.500000 4.500000 255 204 102
4.500000 -2.000000 4.500000 255 204 102
5.000000 -2.000000 4.000000 255 204 102
6.500000 -2.000000 4.500000 255 204 102
6.000000 -2.500000 4.500000 255 204 102
6.000000 -2.000000 4.000000 255 204 102
-6.000000 -1.000000 4.000000 255 204 102
-1.000000 -1.500000 4.500000 0 255 51
-1.500000 -1.000000 4.500000 0 255 51
-1.000000 -1.000000 4.000000 0 255 51
1.500000 -1.000000 4.500000 0 255 51
1.000000 -1.500000 4.500000 0 255 51
1.000000 -1.000000 4.000000 0 255 51
6.000000 -1.000000 4.000000 255 204 102
-6.000000 0.000000 4.000000 255 204 102
-6.500000 0.000000 4.500000 255 204 102
-6.000000 0.500000 4.500000 255 204 102
-5.500000 0.000000 4.500000 255 204 102
6.000000 0.000000 4.000000 255 204 102
5.500000 0.000000 4.500000 255 204 102
6.000000 0.500000 4.500000 255 204 102
6.500000 0.000000 4.500000 255 204 102
-1.500000 0.000000 4.500000 0 255 51
-1.500000 0.000000 5.500000 0 255 51
-1.000000 1.000000 5.000000 0 255 51
-2.000000 0.500000 5.500000 0 255 51
-2.000000 0.500000 4.500000 0 255 51
-1.500000 1.000000 4.500000 0 255 51
1.500000 0.000000 4.500000 0 255 51
1.000000 1.000000 5.000000 0 255 51
1.500000 0.000000 5.500000 0 255 51
2.000000 0.500000 5.500000 0 255 51
2.000000 0.500000 4.500000 0 255 51
1.500000 1.000000 4.500000 0 255 51
-1.000000 2.000000 5.000000 0 255 51
-1.500000 2.000000 5.500000 0 255 51
1.000000 2.000000 5.000000 0 255 51
1.500000 2.000000 5.500000 0 255 51
-1.000000 2.500000 5.500000 0 255 51
1.000000 2.500000 5.500000 0 255 51
-1.000000 -1.000000 6.000000 0 255 51
-1.500000 -1.000000 5.500000 0 255 51
-1.000000 -1.500000 5.500000 0 255 51
1.500000 -1.000000 5.500000 0 255 51
1.000000 -1.000000 6.000000 0 255 51
1.000000 -1.500000 5.500000 0 255 51
-5.000000 1.000000 6.000000 255 204 102
-5.000000 0.000000 6.000000 255 204 102
-6.000000 1.000000 6.000000 255 204 102
-1.500000 0.500000 6.000000 0 255 51
-2.000000 0.500000 6.000000 0 255 51
-1.500000 0.500000 6.000000 255 51 51
-1.000000 0.250000 6.250000 255 51 51
-1.000000 0.500000 6.500000 255 51 51
1.500000 0.500000 6.000000 0 255 51
2.000000 0.500000 6.000000 0 255 51
1.500000 0.500000 6.000000 255 51 51
1.000000 0.500000 6.500000 255 51 51
1.000000 0.250000 6.250000 255 51 51
5.000000 1.000000 6.000000 255 204 102
6.000000 1.000000 6.000000 255 204 102
5.000000 0.000000 6.000000 255 204 102
-4.500000 1.000000 6.500000 255 204 102
-5.000000 1.500000 6.500000 255 204 102
-1.500000 1.500000 6.000000 0 255 51
-2.000000 1.500000 5.500000 0 255 51
-2.000000 1.500000 6.000000 0 255 51
-1.500000 1.500000 6.000000 255 51 51
-1.000000 1.500000 6.500000 255 51 51
-1.000000 1.750000 6.250000 255 51 51
1.500000 1.500000 6.000000 0 255 51
2.000000 1.500000 6.000000 0 255 51
2.000000 1.500000 5.500000 0 255 51
1.500000 1.500000 6.000000 255 51 51
1.000000 1.750000 6.250000 255 51 51
1.000000 1.500000 6.500000 255 51 51
4.500000 1.000000 6.500000 255 204 102
5.000000 1.500000 6.500000 255 204 102
-3.500000 -2.000000 6.500000 255 204 102
-4.000000 -2.000000 7.000000 255 204 102
-4.000000 -2.500000 6.500000 255 204 102
4.000000 -2.000000 7.000000 255 204 102
3.500000 -2.000000 6.500000 255 204 102
4.000000 -2.500000 6.500000 255 204 102
-4.000000 -1.000000 7.000000 255 204 102
-5.000000 -2.000000 7.000000 255 204 102
5.000000 -2.000000 7.000000 255 204 102
4.000000 -1.000000 7.000000 255 204 102
-2.000000 -2.500000 16.500000 255 204 102
0.000000 -2.500000 16.500000 255 204 102
-1.000000 -2.500000 17.500000 255 204 102
0.500000 -2.500000 21.000000 255 255 102
0.000000 -2.500000 21.500000 255 255 102
-0.500000 -2.500000 21.000000 255 255 102
1.000000 -0.500000 10.500000 255 51 51
1.000000 -1.500000 11.500000 255 51 51
0.000000 -0.500000 11.500000 255 51 51
5.000000 -1.000000 11.000000 255 204 102
4.500000 -1.000000 10.500000 255 204 102
5.000000 -1.500000 10.500000 255 204 102
-4.000000 -0.500000 11.500000 255 204 102
-5.000000 -0.500000 11.500000 255 204 102
-4.000000 0.000000 11.000000 255 204 102
4.500000 0.000000 10.500000 255 204 102
-3.500000 2.500000 11.000000 255 51 51
-3.250000 3.000000 10.750000 255 51 51
-3.000000 3.000000 11.000000 255 51 51
-3.500000 2.500000 11.000000 255 204 102
-3.750000 2.000000 10.750000 255 204 102
-4.000000 2.000000 11.000000 255 204 102
3.500000 2.500000 11.000000 255 51 51
3.000000 3.000000 11.000000 255 51 51
3.250000 3.000000 10.750000 255 51 51
3.500000 2.500000 11.000000 255 204 102
4.000000 2.000000 11.000000 255 204 102
3.750000 2.000000 10.750000 255 204 102
-1.000000 -1.500000 11.500000 255 51 51
-1.000000 -0.500000 10.500000 255 51 51
-0.500000 -2.000000 25.500000 255 255 102
-0.500000 2.000000 21.500000 255 255 102
-0.500000 -2.000000 21.500000 255 255 102
-1.000000 0.000000 4.000000 0 255 51
-0.500000 -1.500000 14.000000 255 204 102
-1.000000 -2.000000 14.000000 255 204 102
-1.000000 -1.750000 13.750000 255 204 102
0.500000 -1.500000 14.000000 255 204 102
1.000000 -1.750000 13.750000 255 204 102
1.000000 -2.000000 14.000000 255 204 102
-6.000000 0.000000 14.000000 255 204 102
-6.500000 0.000000 13.500000 255 204 102
-6.000000 -0.500000 13.500000 255 204 102
0.500000 2.500000 21.000000 255 255 102
-0.500000 2.500000 21.000000 255 255 102
0.000000 2.500000 21.500000 255 255 102
6.500000 0.000000 13.500000 255 204 102
6.000000 0.000000 14.000000 255 204 102
6.000000 -0.500000 13.500000 255 204 102
-2.500000 0.500000 14.000000 255 51 51
-3.000000 0.000000 14.000000 255 51 51
-2.750000 0.000000 14.250000 255 51 51
-1.500000 1.500000 14.000000 255 51 51
-1.833330 0.833333 14.333300 255 51 51
2.500000 0.500000 14.000000 255 51 51
2.750000 0.000000 14.250000 255 51 51
3.000000 0.000000 14.000000 255 51 51
2.500000 1.000000 8.500000 255 51 51
2.500000 2.000000 9.500000 255 51 51
2.500000 0.000000 9.500000 255 51 51
-1.000000 1.750000 14.250000 255 51 51
-1.000000 2.000000 14.000000 255 51 51
1.500000 1.500000 14.000000 255 51 51
1.000000 2.000000 14.000000 255 51 51
1.000000 1.750000 14.250000 255 51 51
-2.500000 2.000000 9.500000 255 51 51
-2.500000 1.000000 8.500000 255 51 51
-2.500000 0.000000 9.500000 255 51 51
-6.000000 2.500000 13.500000 255 204 102
-6.500000 2.000000 13.500000 255 204 102
-6.000000 2.000000 14.000000 255 204 102
6.500000 2.000000 13.500000 255 204 102
6.000000 2.500000 13.500000 255 204 102
6.000000 2.000000 14.000000 255 204 102
-1.000000 1.500000 14.500000 255 204 102
-1.000000 1.500000 15.500000 255 204 102
0.000000 1.500000 14.500000 255 204 102
1.000000 1.500000 14.500000 255 204 102
1.000000 1.500000 15.500000 255 204 102
1.000000 0.000000 4.000000 0 255 51
0.000000 -4.500000 17.500000 255 204 102
-0.500000 -4.000000 17.500000 255 204 102
0.000000 -4.000000 17.000000 255 204 102
0.500000 -4.000000 17.500000 255 204 102
-0.500000 -3.000000 17.500000 255 204 102
-0.500000 -3.000000 18.500000 255 204 102
0.500000 -3.000000 17.500000 255 204 102
0.500000 -3.000000 18.500000 255 204 102
2.000000 -2.500000 16.500000 255 204 102
1.000000 -2.500000 17.500000 255 204 102
-1.500000 -1.500000 18.000000 255 204 102
-1.500000 -2.000000 17.500000 255 204 102
-1.500000 -2.000000 18.000000 255 204 102
1.500000 -1.500000 18.000000 255 204 102
1.500000 -2.000000 18.000000 255 204 102
1.500000 -2.000000 17.500000 255 204 102
0.500000 2.000000 21.500000 255 255 102
0.500000 -2.000000 25.500000 255 255 102
0.500000 -2.000000 21.500000 255 255 102
1.833330 0.833333 14.333300 255 51 51
0.000000 -2.000000 26.000000 255 255 102
0.000000 -2.500000 25.500000 255 255 102
-0.750000 2.000000 21.250000 255 204 102
-1.500000 -2.000000 20.500000 255 204 102
-0.750000 -2.000000 21.250000 255 204 102
-1.500000 -2.000000 18.000000 204 255 255
-0.750000 -2.750000 18.500000 204 255 255
-1.500000 -2.000000 18.500000 204 255 255
2.500000 2.000000 17.500000 255 204 102
1.500000 -1.000000 18.500000 255 204 102
2.500000 -1.000000 17.500000 255 204 102
-2.000000 1.500000 6.000000 255 51 51
-2.000000 1.500000 8.500000 255 51 51
-2.000000 0.500000 6.000000 255 51 51
-2.500000 1.000000 6.000000 255 51 51
4.000000 2.500000 12.500000 255 204 102
3.750000 2.750000 13.500000 255 204 102
4.000000 2.500000 13.500000 255 204 102
1.000000 1.750000 6.250000 0 255 51
1.500000 2.000000 20.500000 255 204 102
0.750000 -2.000000 21.250000 255 204 102
1.500000 -2.000000 20.500000 255 204 102
-4.500000 -1.000000 7.500000 255 204 102
-5.000000 -0.500000 8.500000 255 204 102
-1.000000 -4.500000 15.500000 255 204 102
-2.500000 -3.000000 14.500000 255 204 102
-1.000000 -4.500000 14.500000 255 204 102
-6.500000 3.000000 11.500000 255 204 102
-6.000000 2.500000 12.500000 255 204 102
-6.000000 3.500000 11.500000 255 204 102
2.500000 -1.500000 14.000000 255 204 102
2.500000 -1.000000 14.500000 255 204 102
2.000000 -2.000000 14.000000 255 204 102
-1.500000 -3.000000 19.500000 255 204 102
-1.000000 -2.500000 20.500000 255 204 102
-6.500000 0.000000 5.500000 255 204 102
-6.500000 -2.000000 6.500000 255 204 102
-6.500000 0.000000 8.500000 255 204 102
6.000000 -2.500000 6.500000 255 204 102
6.500000 -2.000000 6.500000 255 204 102
6.000000 -0.500000 11.500000 255 204 102
6.500000 0.000000 11.500000 255 204 102
-3.750000 0.000000 10.750000 255 51 51
0.000000 -3.000000 17.000000 255 204 102
0.750000 2.000000 21.250000 255 255 102
0.750000 -2.000000 21.250000 255 255 102
-6.000000 0.500000 5.500000 255 204 102
0.000000 -1.000000 14.000000 255 204 102
-0.166667 -0.833333 13.666700 255 204 102
0.000000 -0.750000 13.750000 255 204 102
-6.000000 -0.500000 11.500000 255 204 102
-6.500000 -1.000000 10.500000 255 204 102
-6.000000 -1.500000 10.500000 255 204 102
2.500000 -3.000000 15.500000 255 204 102
1.000000 -4.500000 14.500000 255 204 102
2.500000 -3.000000 14.500000 255 204 102
-4.500000 -1.000000 10.500000 255 204 102
-5.000000 -1.500000 9.500000 255 204 102
-4.500000 -1.000000 9.500000 255 204 102
-2.000000 0.500000 1.500000 0 255 51
-2.500000 0.000000 0.500000 255 255 0
-1.000000 -4.000000 14.000000 255 204 102
4.000000 0.000000 11.000000 255 204 102
-3.750000 -0.750000 13.500000 255 51 51
-3.000000 -1.500000 11.500000 255 51 51
-3.000000 -1.500000 13.500000 255 51 51
4.000000 -0.500000 11.500000 255 204 102
3.750000 -0.750000 11.500000 255 204 102
3.500000 -0.500000 11.000000 255 204 102
5.500000 -1.000000 4.500000 255 204 102
4.000000 0.000000 14.000000 255 204 102
4.000000 2.000000 14.000000 255 204 102
3.500000 -0.500000 14.000000 255 204 102
-1.000000 2.500000 18.500000 255 204 102
1.000000 2.500000 18.500000 255 204 102
0.000000 2.500000 15.500000 255 204 102
-4.500000 0.000000 6.500000 255 204 102
-5.500000 0.000000 5.500000 255 204 102
1.500000 -2.000000 18.000000 204 255 255
0.750000 -2.750000 18.500000 204 255 255
0.750000 -2.750000 18.000000 204 255 255
-6.000000 3.500000 9.500000 255 204 102
2.000000 0.000000 1.000000 255 255 0
1.500000 0.500000 1.000000 255 255 0
1.500000 0.000000 0.500000 255 255 0
-6.500000 1.000000 6.500000 255 204 102
-6.000000 -1.500000 9.500000 255 204 102
-6.500000 -1.000000 9.500000 255 204 102
1.000000 -4.000000 14.000000 255 204 102
2.000000 -3.000000 14.000000 255 204 102
2.000000 0.500000 8.500000 255 51 51
2.500000 1.000000 6.000000 255 51 51
0.000000 -0.500000 13.500000 255 51 51
4.500000 2.000000 10.500000 255 204 102
1.500000 -2.000000 18.500000 204 255 255
1.500000 -1.500000 18.000000 204 255 255
1.500000 -1.500000 19.000000 204 255 255
-5.000000 -1.500000 10.500000 255 204 102
-4.000000 2.500000 13.500000 255 204 102
-5.000000 1.500000 7.500000 255 204 102
-4.500000 1.000000 7.500000 255 204 102
2.000000 0.500000 1.500000 0 255 51
3.000000 -1.500000 13.500000 255 51 51
3.750000 -0.750000 11.500000 255 51 51
3.750000 -0.750000 13.500000 255 51 51
-3.000000 -1.000000 14.000000 255 51 51
4.000000 -0.500000 13.500000 255 204 102
3.750000 -0.750000 13.500000 255 204 102
6.000000 -0.500000 8.500000 255 204 102
6.500000 0.000000 8.500000 255 204 102
-0.750000 2.000000 21.250000 255 255 102
-4.000000 -1.000000 6.000000 255 204 102
-3.500000 -1.000000 6.500000 255 204 102
-2.000000 1.500000 1.000000 255 255 0
-2.000000 1.500000 4.500000 0 255 51
6.000000 1.500000 7.500000 255 204 102
5.000000 1.500000 7.500000 255 204 102
-2.500000 2.000000 17.500000 255 204 102
-2.000000 2.500000 17.500000 255 204 102
2.500000 0.000000 0.500000 255 255 0
5.500000 0.000000 5.500000 255 204 102
5.500000 -1.000000 5.500000 255 204 102
2.500000 0.000000 14.500000 255 204 102
2.500000 0.000000 15.500000 255 204 102
3.000000 3.500000 13.500000 255 51 51
3.750000 2.750000 12.500000 255 51 51
3.000000 3.500000 12.500000 255 51 51
4.500000 0.000000 6.500000 255 204 102
4.000000 -1.000000 6.000000 255 204 102
3.500000 -1.000000 6.500000 255 204 102
3.000000 3.000000 14.000000 255 51 51
3.750000 2.750000 13.500000 255 51 51
-6.000000 -0.500000 8.500000 255 204 102
-3.000000 2.500000 10.500000 255 51 51
2.000000 1.500000 1.000000 255 255 0
4.500000 -2.000000 5.500000 255 204 102
-4.500000 2.000000 10.500000 255 204 102
3.500000 3.500000 11.000000 255 51 51
-2.500000 0.000000 14.500000 255 204 102
-2.750000 -1.000000 14.250000 255 204 102
-2.500000 -1.000000 14.500000 255 204 102
-2.000000 0.250000 1.250000 0 255 51
-1.500000 2.000000 18.500000 255 204 102
6.500000 2.000000 12.500000 255 204 102
5.000000 -1.000000 6.000000 255 204 102
3.750000 0.000000 10.750000 255 51 51
-1.500000 0.000000 0.500000 255 255 0
6.500000 3.000000 9.500000 255 204 102
6.500000 1.000000 7.500000 255 204 102
-3.500000 -0.500000 11.000000 255 204 102
-5.000000 -1.000000 6.000000 255 204 102
-5.500000 -1.000000 5.500000 255 204 102
2.000000 1.500000 4.500000 0 255 51
-6.000000 1.500000 7.500000 255 204 102
-6.500000 3.000000 9.500000 255 204 102
-4.000000 -2.000000 6.000000 255 204 102
-4.500000 -2.000000 5.500000 255 204 102
5.000000 -1.500000 9.500000 255 204 102
5.000000 -0.500000 8.500000 255 204 102
3.500000 2.500000 14.000000 255 204 102
-3.000000 -0.500000 10.500000 255 51 51
-2.000000 -0.500000 9.500000 255 51 51
-1.500000 -2.500000 19.000000 204 255 255
-0.833333 -2.833330 18.666700 204 255 255
3.000000 -1.000000 14.000000 255 51 51
3.500000 -0.500000 14.000000 255 51 51
-1.000000 2.500000 20.500000 255 204 102
-1.500000 2.000000 20.500000 255 204 102
-1.000000 0.000000 6.000000 0 255 51
-4.000000 2.500000 12.500000 255 204 102
-3.833330 2.833330 12.333300 255 204 102
-4.000000 3.500000 11.500000 255 204 102
4.500000 0.000000 8.500000 255 204 102
4.500000 -1.000000 7.500000 255 204 102
2.750000 0.000000 14.250000 255 204 102
1.000000 -1.500000 13.500000 255 51 51
0.500000 -1.500000 14.000000 255 51 51
0.166667 -0.833333 13.666700 255 51 51
6.000000 3.500000 9.500000 255 204 102
5.000000 3.500000 9.500000 255 204 102
2.500000 1.000000 1.000000 255 255 0
-3.750000 2.750000 13.500000 255 51 51
-3.000000 3.000000 14.000000 255 51 51
-3.000000 3.500000 13.500000 255 51 51
-3.000000 3.500000 12.500000 255 51 51
6.000000 0.500000 5.500000 255 204 102
6.500000 0.000000 5.500000 255 204 102
4.000000 -2.000000 6.000000 255 204 102
-1.000000 1.750000 14.250000 255 204 102
1.000000 1.750000 14.250000 255 204 102
-2.000000 0.000000 1.000000 255 255 0
-2.500000 0.500000 1.000000 255 255 0
4.000000 3.500000 11.500000 255 204 102
3.500000 3.500000 11.000000 255 204 102
2.000000 1.500000 1.000000 0 255 51
2.000000 -3.000000 16.000000 255 204 102
-2.000000 -3.000000 16.000000 255 204 102
-1.500000 1.000000 1.000000 255 255 0
5.000000 -2.500000 5.500000 255 204 102
-2.500000 -1.750000 13.750000 255 51 51
-1.000000 -1.500000 13.500000 255 51 51
-1.000000 -1.750000 13.750000 255 51 51
6.500000 -1.000000 10.500000 255 204 102
1.500000 2.000000 18.500000 255 204 102
3.000000 -1.500000 11.500000 255 51 51
-3.750000 2.750000 12.500000 255 204 102
-1.500000 -1.000000 18.500000 255 204 102
-3.750000 -0.750000 13.500000 255 204 102
-4.000000 -0.500000 13.500000 255 204 102
3.250000 3.000000 10.750000 255 204 102
-2.500000 0.000000 15.500000 255 204 102
-2.500000 -1.000000 17.500000 255 204 102
-6.500000 2.000000 12.500000 255 204 102
-5.500000 -1.000000 4.500000 255 204 102
6.000000 3.500000 11.500000 255 204 102
2.500000 0.500000 1.000000 255 255 0
2.000000 0.250000 1.250000 255 255 0
6.000000 -1.500000 9.500000 255 204 102
6.500000 -1.000000 9.500000 255 204 102
-2.500000 -1.500000 14.000000 255 204 102
1.500000 -2.500000 19.000000 204 255 255
2.500000 0.500000 14.000000 255 204 102
1.833330 0.833333 14.333300 255 204 102
-5.000000 3.500000 9.500000 255 204 102
-5.000000 -2.500000 5.500000 255 204 102
4.500000 1.000000 7.500000 255 204 102
-1.500000 0.500000 1.000000 255 255 0
-2.000000 0.250000 1.250000 255 255 0
-6.500000 0.000000 11.500000 255 204 102
4.500000 -1.000000 9.500000 255 204 102
3.500000 3.500000 12.000000 255 51 51
2.000000 2.500000 9.500000 255 51 51
2.000000 1.500000 8.500000 255 51 51
3.000000 2.500000 10.500000 255 51 51
-2.000000 2.500000 9.500000 255 51 51
2.500000 -1.750000 13.750000 255 51 51
2.000000 2.500000 17.500000 255 204 102
1.000000 2.500000 20.500000 255 204 102
0.750000 2.000000 21.250000 255 204 102
3.000000 3.500000 11.500000 255 51 51
0.750000 -2.750000 18.000000 255 204 102
-4.000000 0.000000 14.000000 255 204 102
6.500000 1.000000 6.500000 255 204 102
-2.000000 0.500000 8.500000 255 51 51
-1.000000 1.750000 6.250000 0 255 51
-3.250000 3.000000 10.750000 255 204 102
2.500000 -1.750000 13.750000 255 204 102
-1.000000 -4.000000 16.000000 255 204 102
-6.000000 1.500000 6.500000 255 204 102
-3.500000 -0.500000 14.000000 255 204 102
-3.500000 3.500000 11.000000 255 204 102
-4.500000 3.000000 9.500000 255 204 102
1.000000 -4.000000 16.000000 255 204 102
-0.750000 -2.750000 18.000000 255 204 102
-6.000000 -2.500000 6.500000 255 204 102
-1.500000 -1.500000 18.000000 204 255 255
-0.166667 -0.833333 13.666700 255 51 51
1.000000 0.000000 6.000000 0 255 51
-1.000000 0.250000 6.250000 0 255 51
3.750000 2.000000 10.750000 255 51 51
-2.000000 -2.000000 14.000000 255 204 102
-1.833330 0.833333 14.333300 255 204 102
-1.500000 1.500000 14.000000 255 204 102
0.500000 -2.500000 21.000000 255 204 102
1.000000 -2.500000 20.500000 255 204 102
-4.000000 2.000000 14.000000 255 204 102
1.500000 -1.500000 19.000000 255 204 102
3.833330 2.833330 12.333300 255 204 102
-3.500000 3.500000 11.000000 255 51 51
-3.000000 3.500000 11.500000 255 51 51
2.500000 1.000000 6.000000 0 255 51
-1.500000 -1.500000 19.000000 255 204 102
2.750000 -1.000000 14.250000 255 51 51
-2.000000 -3.000000 14.000000 255 204 102
-6.500000 1.000000 7.500000 255 204 102
-2.500000 -3.000000 15.500000 255 204 102
-3.500000 3.500000 12.000000 255 51 51
-3.750000 2.750000 12.500000 255 51 51
-0.500000 -2.500000 21.000000 255 204 102
4.500000 3.000000 9.500000 255 204 102
2.000000 0.250000 1.250000 0 255 51
6.000000 2.500000 12.500000 255 204 102
6.500000 3.000000 11.500000 255 204 102
-2.500000 1.000000 6.000000 0 255 51
-2.000000 1.500000 1.000000 0 255 51
0.833333 -2.833330 18.666700 255 204 102
-4.500000 0.000000 8.500000 255 204 102
0.166667 -0.833333 13.666700 255 204 102
-0.833333 -2.833330 18.666700 255 204 102
-2.500000 -1.500000 14.000000 255 51 51
3.000000 -0.500000 10.500000 255 51 51
-3.500000 2.500000 14.000000 255 204 102
-3.750000 2.750000 13.500000 255 204 102
3.500000 -0.500000 11.000000 255 51 51
2.000000 1.500000 6.000000 255 51 51
-0.750000 -2.750000 18.000000 204 255 255
3.750000 2.750000 12.500000 255 204 102
2.750000 -1.000000 14.250000 255 204 102
-3.750000 2.000000 10.750000 255 51 51
1.000000 -4.500000 15.500000 255 204 102
3.750000 0.000000 10.750000 255 204 102
-3.750000 -0.750000 11.500000 255 51 51
-0.500000 2.500000 21.000000 255 204 102
0.500000 2.500000 21.000000 255 204 102
2.000000 0.500000 6.000000 255 51 51
6.000000 -1.500000 10.500000 255 204 102
-2.750000 -1.000000 14.250000 255 51 51
-0.750000 -2.000000 21.250000 255 255 102
-2.500000 1.000000 1.000000 255 255 0
6.000000 1.500000 6.500000 255 204 102
3.500000 2.500000 14.000000 255 51 51
1.500000 1.000000 1.000000 255 255 0
-2.750000 0.000000 14.250000 255 204 102
-3.750000 -0.750000 11.500000 255 204 102
-3.750000 0.000000 10.750000 255 204 102
-3.500000 -0.500000 11.000000 255 51 51
2.500000 -1.500000 14.000000 255 51 51
-3.500000 3.500000 12.000000 255 204 102
1.000000 -1.750000 13.750000 255 51 51
0.000000 -0.750000 13.750000 255 51 51
-3.500000 2.500000 14.000000 255 51 51
3.500000 3.500000 12.000000 255 204 102
-2.500000 -1.750000 13.750000 255 204 102
0.833333 -2.833330 18.666700 204 255 255
1.500000 1.500000 14.000000 255 204 102
-3.500000 -0.500000 14.000000 255 51 51
3.833330 2.833330 12.333300 255 51 51
0.750000 -2.750000 18.500000 255 204 102
2.000000 -0.500000 9.500000 255 51 51
1.000000 0.250000 6.250000 0 255 51
-0.750000 -2.750000 18.500000 255 204 102
-1.500000 -1.500000 19.000000 204 255 255
-0.500000 -1.500000 14.000000 255 51 51
-2.500000 0.500000 14.000000 255 204 102
1.500000 -3.000000 19.500000 255 204 102
1.500000 -2.500000 19.000000 255 204 102
-1.500000 -2.500000 19.000000 255 204 102
-3.833330 2.833330 12.333300 255 51 51
3 0 1 2
3 3 0 2
3 4 5 6
3 7 4 6
3 8 9 10
3 11 8 10
3 12 13 14
3 15 12 14
3 1 0 16
3 16 0 3
3 17 5 4
3 7 17 4
3 18 19 20
3 21 22 23
3 24 25 26
3 27 28 29
3 30 31 32
3 33 34 35
3 36 37 38
3 39 40 41
3 42 43 44
3 35 45 38
3 46 47 48
3 49 50 51
3 44 41 52
3 53 54 55
3 56 53 55
3 57 58 59
3 60 57 59
3 61 62 63
3 62 64 63
3 64 65 63
3 63 65 66
3 67 68 69
3 69 68 70
3 70 68 71
3 68 72 71
3 73 63 74
3 75 76 68
3 73 74 77
3 76 75 78
3 79 80 81
3 82 83 84
3 85 86 87
3 88 89 64
3 90 91 92
3 93 70 94
3 95 96 97
3 98 99 100
3 101 85 102
3 103 104 105
3 106 107 108
3 109 110 111
3 112 113 114
3 98 115 116
3 117 118 119
3 120 121 122
3 118 123 124
3 120 125 126
3 127 128 129
3 130 131 132
3 133 134 135
3 136 137 138
3 139 140 141
3 137 136 142
3 143 144 145
3 146 147 148
3 149 150 151
3 152 153 154
3 155 156 135
3 157 158 159
3 61 63 160
3 161 162 163
3 164 165 166
3 167 168 169
3 170 171 172
3 173 174 175
3 176 177 178
3 179 176 180
3 181 182 183
3 184 185 186
3 179 187 188
3 189 190 191
3 192 193 194
3 195 196 197
3 198 199 200
3 201 202 203
3 204 203 205
3 68 67 206
3 207 208 209
3 210 207 209
3 211 208 212
3 213 214 210
3 128 215 216
3 217 218 219
3 220 221 222
3 223 224 225
3 189 226 181
3 227 157 228
3 224 227 228
3 229 230 231
3 232 233 234
3 235 236 237
3 238 193 239
3 240 193 241
3 242 243 244
3 77 245 78
3 246 247 248
3 124 249 250
3 160 47 61
3 251 252 253
3 25 71 72
3 254 255 256
3 257 258 259
3 260 261 230
3 262 263 264
3 265 42 266
3 173 267 268
3 269 192 194
3 270 216 213
3 271 225 272
3 273 54 262
3 274 275 276
3 277 278 279
3 280 281 282
3 283 284 285
3 66 286 23
3 16 287 1
3 27 208 207
3 252 288 253
3 289 154 153
3 290 291 292
3 293 294 295
3 296 41 40
3 270 208 211
3 297 298 299
3 300 301 302
3 303 85 101
3 56 273 304
3 305 306 307
3 286 21 23
3 308 254 256
3 309 310 311
3 312 87 273
3 313 278 314
3 282 315 316
3 54 45 34
3 281 251 253
3 317 318 184
3 319 155 135
3 289 320 142
3 321 322 323
3 324 277 279
3 197 325 195
3 101 326 327
3 328 30 32
3 134 319 135
3 267 293 136
3 329 330 331
3 293 142 136
3 332 178 177
3 259 282 316
3 333 299 334
3 335 266 336
3 337 159 158
3 117 338 339
3 9 340 10
3 63 341 74
3 342 116 343
3 202 344 345
3 346 17 7
3 347 296 348
3 349 205 350
3 351 352 353
3 354 355 356
3 79 62 80
3 82 50 49
3 357 358 351
3 359 314 264
3 150 360 145
3 13 361 14
3 348 40 362
3 57 296 58
3 141 363 148
3 150 364 151
3 365 366 367
3 286 18 368
3 98 354 115
3 369 345 344
3 370 199 198
3 371 347 348
3 185 372 186
3 291 156 155
3 11 373 8
3 342 374 375
3 141 376 139
3 304 377 378
3 224 131 225
3 15 346 12
3 379 68 76
3 129 270 211
3 355 121 356
3 380 381 308
3 382 119 383
3 335 384 385
3 244 386 298
3 387 194 388
3 389 233 390
3 391 331 392
3 229 393 394
3 62 395 88
3 396 397 398
3 385 399 400
3 258 401 349
3 325 255 195
3 402 403 404
3 405 343 406
3 14 407 15
3 408 409 410
3 411 408 410
3 60 412 413
3 122 414 362
3 415 203 416
3 339 118 117
3 417 418 287
3 6 311 12
3 75 63 73
3 419 406 420
3 421 26 25
3 114 108 107
3 377 338 382
3 422 128 423
3 8 2 287
3 69 83 82
3 120 356 121
3 225 130 272
3 210 270 213
3 10 424 11
3 373 16 3
3 425 43 265
3 426 427 428
3 315 253 288
3 267 429 268
3 206 63 68
3 301 246 430
3 329 134 431
3 325 432 396
3 140 283 141
3 344 433 369
3 139 434 435
3 436 320 152
3 44 52 42
3 437 438 344
3 195 439 196
3 378 36 440
3 393 369 394
3 242 441 419
3 28 261 29
3 199 242 244
3 309 442 443
3 429 444 445
3 367 366 446
3 303 123 339
3 447 306 321
3 349 448 449
3 380 450 326
3 250 285 284
3 33 37 451
3 155 292 291
3 442 15 407
3 126 354 356
3 343 115 452
3 417 453 454
3 169 455 277
3 49 206 67
3 357 409 190
3 335 445 444
3 333 267 175
3 385 456 399
3 202 365 437
3 46 80 47
3 352 457 353
3 131 157 159
3 51 46 48
3 383 37 36
3 158 172 171
3 239 458 459
3 310 13 311
3 460 461 360
3 27 210 214
3 462 402 329
3 159 132 131
3 463 430 235
3 464 465 246
3 92 97 96
3 466 411 353
3 467 216 221
3 75 77 78
3 124 119 118
3 384 137 456
3 256 396 398
3 198 174 173
3 167 435 468
3 49 69 82
3 99 469 412
3 317 388 470
3 333 294 293
3 103 471 74
3 41 43 39
3 169 140 435
3 69 70 93
3 39 362 40
3 50 81 46
3 440 53 56
3 197 168 167
3 363 472 146
3 259 165 473
3 412 58 347
3 474 422 423
3 326 475 380
3 435 476 468
3 475 85 87
3 362 371 348
3 100 412 347
3 477 472 478
3 116 99 98
3 284 359 250
3 383 377 382
3 336 413 375
3 81 83 79
3 156 388 133
3 469 342 375
3 399 320 452
3 284 279 313
3 251 479 474
3 480 129 211
3 237 222 215
3 359 263 481
3 234 482 232
3 319 483 427
3 83 395 79
3 440 38 45
3 484 485 395
3 17 311 5
3 460 486 185
3 487 163 162
3 338 303 339
3 450 256 398
3 488 201 489
3 188 191 190
3 247 490 491
3 492 167 468
3 147 141 148
3 35 37 33
3 236 246 493
3 409 351 410
3 419 494 242
3 145 495 496
3 379 497 32
3 335 385 125
3 32 497 71
3 498 394 433
3 183 499 391
3 252 487 500
3 355 371 414
3 380 312 501
3 502 127 438
3 107 239 459
3 503 504 411
3 444 138 384
3 96 317 470
3 491 505 261
3 506 420 406
3 223 172 227
3 328 24 507
3 453 11 424
3 508 509 441
3 104 341 510
3 374 441 509
3 86 273 87
3 23 22 511
3 418 9 287
3 512 28 214
3 283 513 363
3 510 19 65
3 440 304 378
3 206 48 160
3 62 47 80
3 514 274 276
3 235 205 463
3 109 111 76
3 166 315 288
3 350 280 258
3 260 515 29
3 516 332 292
3 263 33 481
3 199 298 200
3 461 239 192
3 134 517 431
3 325 518 519
3 333 174 297
3 372 520 517
3 184 521 459
3 229 394 230
3 232 522 233
3 235 430 236
3 238 241 193
3 240 470 193
3 242 523 243
3 77 471 245
3 246 465 247
3 124 123 249
3 249 513 250
3 160 48 47
3 251 502 252
3 25 328 71
3 254 439 255
3 257 524 258
3 259 473 257
3 231 230 261
3 260 29 261
3 261 505 231
3 455 168 439
3 439 254 455
3 168 196 439
3 314 278 455
3 34 263 262
3 264 314 455
3 455 254 381
3 501 312 262
3 455 381 264
3 264 381 501
3 262 54 34
3 264 501 262
3 265 43 42
3 173 175 267
3 269 525 192
3 270 128 216
3 271 223 225
3 273 55 54
3 274 161 275
3 277 455 278
3 280 526 281
3 283 324 284
3 66 65 286
3 16 417 287
3 27 212 208
3 252 500 288
3 289 527 154
3 290 528 291
3 295 527 289
3 289 293 295
3 296 52 41
3 270 209 208
3 297 174 200
3 298 386 299
3 297 200 298
3 300 393 301
3 529 530 464
3 301 463 302
3 529 464 393
3 302 345 300
3 393 464 301
3 303 86 85
3 56 55 273
3 305 321 306
3 286 368 21
3 308 381 254
3 309 443 310
3 273 262 312
3 312 475 87
3 313 279 278
3 282 281 315
3 35 34 45
3 54 53 45
3 281 526 251
3 317 531 318
3 319 427 155
3 289 153 320
3 321 305 322
3 323 447 321
3 324 140 277
3 197 492 325
3 101 102 326
3 328 507 30
3 134 402 319
3 136 138 532
3 532 267 136
3 329 431 330
3 293 289 142
3 332 533 178
3 259 258 282
3 333 297 299
3 335 265 266
3 337 534 159
3 117 382 338
3 9 535 340
3 63 66 341
3 342 536 116
3 345 302 202
3 202 437 344
3 302 203 202
3 346 309 17
3 347 58 296
3 349 204 205
3 351 358 352
3 354 100 355
3 79 395 62
3 82 84 50
3 357 537 358
3 359 313 314
3 496 466 150
3 150 460 360
3 145 496 150
3 13 538 361
3 348 296 40
3 57 52 296
3 141 283 363
3 150 466 364
3 365 539 366
3 286 19 18
3 98 100 354
3 369 300 345
3 370 508 199
3 371 100 347
3 185 486 372
3 291 387 156
3 2 8 373
3 373 3 2
3 342 405 374
3 540 139 376
3 141 541 376
3 304 86 377
3 224 228 131
3 6 12 346
3 346 7 6
3 379 72 68
3 129 128 270
3 355 414 121
3 380 501 381
3 451 383 119
3 382 117 119
3 335 444 384
3 244 243 386
3 470 388 194
3 387 291 542
3 542 269 387
3 291 528 542
3 194 193 470
3 387 269 194
3 389 234 233
3 391 499 543
3 543 462 329
3 329 331 391
3 391 543 329
3 229 529 393
3 485 88 395
3 64 62 88
3 396 432 397
3 397 544 398
3 125 385 400
3 400 126 125
3 258 524 401
3 325 396 255
3 319 402 404
3 545 403 402
3 404 546 319
3 405 342 343
3 14 361 407
3 408 547 409
3 411 504 408
3 60 59 412
3 362 425 122
3 122 121 414
3 204 416 203
3 415 201 203
3 339 123 118
3 417 454 418
3 13 12 311
3 6 5 311
3 75 68 63
3 419 441 406
3 405 406 441
3 420 548 419
3 25 72 379
3 379 421 25
3 114 113 108
3 377 86 338
3 127 423 128
3 422 215 128
3 1 287 2
3 9 8 287
3 69 484 83
3 120 126 356
3 225 131 130
3 210 209 270
3 10 340 424
3 373 417 16
3 425 39 43
3 265 122 425
3 426 292 427
3 315 281 253
3 267 532 429
3 206 160 63
3 301 464 246
3 329 402 134
3 325 519 432
3 140 324 283
3 344 438 433
3 139 540 434
3 153 152 320
3 436 506 320
3 60 42 52
3 52 57 60
3 437 365 367
3 367 252 502
3 502 438 437
3 437 367 502
3 195 255 439
3 378 383 36
3 393 300 369
3 242 508 441
3 28 491 261
3 199 508 242
3 309 346 442
3 429 532 444
3 487 367 446
3 446 549 487
3 303 249 123
3 447 550 306
3 551 416 204
3 204 349 449
3 401 448 349
3 449 551 204
3 380 308 450
3 250 513 285
3 481 33 451
3 451 119 481
3 155 427 292
3 442 346 15
3 126 400 354
3 343 116 115
3 417 373 453
3 169 168 455
3 49 51 206
3 391 392 183
3 537 357 189
3 409 547 179
3 552 332 177
3 176 179 547
3 547 552 177
3 177 176 547
3 183 392 537
3 190 189 357
3 181 183 537
3 409 179 188
3 189 181 537
3 409 188 190
3 335 336 445
3 333 293 267
3 385 384 456
3 202 201 365
3 46 81 80
3 352 553 457
3 131 228 157
3 51 50 46
3 383 451 37
3 158 157 227
3 227 172 158
3 171 337 158
3 239 461 458
3 310 538 13
3 460 458 461
3 27 207 210
3 462 545 402
3 159 534 132
3 463 301 430
3 464 530 465
3 92 91 97
3 496 495 503
3 411 410 351
3 496 503 411
3 457 364 466
3 466 496 411
3 411 351 353
3 353 457 466
3 222 221 216
3 467 554 214
3 213 216 467
3 467 214 213
3 75 73 77
3 124 250 359
3 481 119 124
3 124 359 481
3 384 138 137
3 256 255 396
3 198 200 174
3 167 169 435
3 49 67 69
3 413 412 469
3 99 536 469
3 317 555 388
3 333 334 294
3 77 74 471
3 104 103 74
3 41 44 43
3 139 435 140
3 169 277 140
3 93 556 484
3 484 69 93
3 39 425 362
3 50 84 81
3 440 45 53
3 197 196 168
3 146 148 363
3 363 478 472
3 259 166 165
3 412 59 58
3 474 479 422
3 326 102 475
3 435 434 476
3 475 102 85
3 362 414 371
3 100 99 412
3 327 326 478
3 450 477 478
3 478 326 450
3 116 536 99
3 284 313 359
3 383 378 377
3 268 429 445
3 336 266 413
3 268 445 336
3 198 173 370
3 374 509 268
3 370 173 268
3 370 268 509
3 375 374 336
3 413 469 375
3 42 60 413
3 374 268 336
3 266 42 413
3 81 84 83
3 156 387 388
3 388 555 133
3 133 135 156
3 555 517 133
3 469 536 342
3 354 400 399
3 399 456 142
3 142 320 399
3 456 137 142
3 115 354 452
3 320 506 452
3 452 354 399
3 284 324 279
3 251 526 479
3 211 212 480
3 480 219 129
3 212 557 480
3 219 218 129
3 280 237 215
3 237 236 220
3 479 526 280
3 422 479 280
3 237 220 222
3 222 216 215
3 215 422 280
3 359 264 263
3 234 389 558
3 558 482 234
3 319 546 483
3 483 559 427
3 428 427 559
3 83 484 395
3 440 36 38
3 484 556 485
3 17 309 311
3 184 459 185
3 460 150 149
3 185 459 458
3 149 486 460
3 458 460 185
3 487 549 163
3 338 86 303
3 544 477 398
3 450 308 256
3 398 477 450
3 488 560 365
3 539 365 560
3 201 415 489
3 488 365 201
3 188 187 191
3 28 561 491
3 248 247 491
3 491 561 248
3 476 518 492
3 492 197 167
3 468 476 492
3 147 541 141
3 35 38 37
3 236 430 246
3 246 248 493
3 561 562 248
3 493 220 236
3 248 562 493
3 409 357 351
3 419 548 494
3 494 523 242
3 145 144 495
3 379 76 111
3 111 110 497
3 32 31 421
3 111 497 379
3 32 421 379
3 120 122 125
3 265 335 125
3 125 122 265
3 70 71 497
3 328 32 71
3 497 94 70
3 498 563 230
3 260 230 563
3 394 369 433
3 433 217 498
3 498 230 394
3 183 182 499
3 252 367 487
3 355 100 371
3 380 475 312
3 433 438 217
3 502 251 474
3 502 474 423
3 217 438 218
3 127 129 218
3 218 438 127
3 502 423 127
3 459 521 114
3 521 112 114
3 238 239 107
3 107 106 238
3 459 114 107
3 503 564 504
3 444 532 138
3 470 240 92
3 240 90 92
3 531 317 96
3 96 95 531
3 470 92 96
3 491 490 505
3 406 343 506
3 506 436 420
3 343 452 506
3 223 271 170
3 170 172 223
3 227 224 223
3 328 25 24
3 453 373 11
3 508 370 509
3 104 74 341
3 341 511 19
3 19 510 341
3 511 20 19
3 510 105 104
3 374 405 441
3 86 304 273
3 511 341 23
3 66 23 341
3 418 535 9
3 214 554 512
3 512 562 561
3 561 28 512
3 27 214 28
3 478 363 513
3 283 285 513
3 513 249 303
3 303 101 327
3 327 478 513
3 513 303 327
3 65 64 510
3 89 510 64
3 19 286 65
3 440 56 304
3 206 51 48
3 62 61 47
3 514 164 274
3 302 463 205
3 235 350 205
3 205 203 302
3 76 78 245
3 245 109 76
3 162 161 164
3 274 164 161
3 500 487 162
3 162 164 166
3 166 259 316
3 316 315 166
3 288 500 162
3 162 166 288
3 282 258 280
3 350 235 237
3 258 349 350
3 237 280 350
3 27 29 212
3 260 563 515
3 515 557 212
3 212 29 515
3 290 292 332
3 426 516 292
3 332 552 290
3 516 533 332
3 263 34 33
3 199 244 298
3 525 143 360
3 360 461 192
3 143 145 360
3 239 193 192
3 192 525 360
3 134 133 517
3 325 492 518
3 333 175 174
3 517 555 186
3 317 184 186
3 186 372 517
3 520 330 431
3 555 317 186
3 520 431 517
3 184 318 521
