ply
format ascii 1.0
comment Created by Blender 2.78 (sub 0) - www.blender.org, source file: ''
element vertex 565
property float x
property float y
property float z
property uchar red
property uchar green
property uchar blue
element face 928
property list uchar uint vertex_indices
end_header
-2.000000 -1.500000 0.500000 255 255 0
-2.500000 -1.000000 0.500000 255 255 0
-2.000000 -1.000000 0.000000 255 255 0
-1.500000 -1.000000 0.500000 255 255 0
2.000000 -1.500000 0.500000 255 255 0
1.500000 -1.000000 0.500000 255 255 0
2.000000 -1.000000 0.000000 255 255 0
2.500000 -1.000000 0.500000 255 255 0
-2.000000 1.000000 0.000000 255 255 0
-2.500000 1.000000 0.500000 255 255 0
-2.000000 1.500000 0.500000 255 255 0
-1.500000 1.000000 0.500000 255 255 0
2.000000 1.000000 0.000000 255 255 0
1.500000 1.000000 0.500000 255 255 0
2.000000 1.500000 0.500000 255 255 0
2.500000 1.000000 0.500000 255 255 0
-2.000000 -1.000000 1.000000 255 255 0
2.000000 -1.000000 1.000000 255 255 0
-2.500000 0.500000 1.000000 0 255 51
-2.500000 1.000000 1.500000 0 255 51
-2.500000 1.000000 1.000000 0 255 51
-1.500000 0.500000 1.000000 0 255 51
-1.500000 1.000000 1.000000 0 255 51
-1.500000 1.000000 1.500000 0 255 51
1.500000 0.500000 1.000000 0 255 51
1.500000 1.000000 1.500000 0 255 51
1.500000 1.000000 1.000000 0 255 51
0.000000 -3.500000 18.500000 255 204 102
1.000000 -3.500000 19.500000 255 204 102
-1.000000 -3.500000 19.500000 255 204 102
2.500000 0.500000 1.000000 0 255 51
2.500000 1.000000 1.000000 0 255 51
2.500000 1.000000 1.500000 0 255 51
-6.000000 -2.500000 4.500000 255 204 102
-6.500000 -2.000000 4.500000 255 204 102
-6.000000 -2.000000 4.000000 255 204 102
-4.500000 -2.000000 4.500000 255 204 102
-5.000000 -2.500000 4.500000 255 204 102
-5.000000 -2.000000 4.000000 255 204 102
5.000000 -2.500000 4.500000 255 204 102
4.500000 -2.000000 4.500000 255 204 102
5.000000 -2.000000 4.000000 255 204 102
6.500000 -2.000000 4.500000 255 204 102
6.000000 -2.500000 4.500000 255 204 102
6.000000 -2.000000 4.000000 255 204 102
-6.000000 -1.000000 4.000000 255 204 102
-1.000000 -1.500000 4.500000 0 255 51
-1.500000 -1.000000 4.500000 0 255 51
-1.000000 -1.000000 4.000000 0 255 51
1.500000 -1.000000 4.500000 0 255 51
1.000000 -1.500000 4.500000 0 255 51
1.000000 -1.000000 4.000000 0 255 51
6.000000 -1.000000 4.000000 255 204 102
-6.000000 0.000000 4.000000 255 204 102
-6.500000 0.000000 4.500000 255 204 102
-6.000000 0.500000 4.500000 255 204 102
-5.500000 0.000000 4.500000 255 204 102
6.000000 0.000000 4.000000 255 204 102
5.500000 0.000000 4.500000 255 204 102
6.000000 0.500000 4.500000 255 204 102
6.500000 0.000000 4.500000 255 204 102
-1.500000 0.000000 4.500000 0 255 51
-1.500000 0.000000 5.500000 0 255 51
-1.000000 1.000000 5.000000 0 255 51
-2.000000 0.500000 5.500000 0 255 51
-2.000000 0.500000 4.500000 0 255 51
-1.500000 1.000000 4.500000 0 255 51
1.500000 0.000000 4.500000 0 255 51
1.000000 1.000000 5.000000 0 255 51
1.500000 0.000000 5.500000 0 255 51
2.000000 0.500000 5.500000 0 255 51
2.000000 0.500000 4.500000 0 255 51
1.500000 1.000000 4.500000 0 255 51
-1.000000 2.000000 5.000000 0 255 51
-1.500000 2.000000 5.500000 0 255 51
1.000000 2.000000 5.000000 0 255 51
1.500000 2.000000 5.500000 0 255 51
-1.000000 2.500000 5.500000 0 255 51
1.000000 2.500000 5.500000 0 255 51
-1.000000 -1.000000 6.000000 0 255 51
-1.500000 -1.000000 5.500000 0 255 51
-1.000000 -1.500000 5.500000 0 255 51
1.500000 -1.000000 5.500000 0 255 51
1.000000 -1.000000 6.000000 0 255 51
1.000000 -1.500000 5.500000 0 255 51
-5.000000 1.000000 6.000000 255 204 102
-5.000000 0.000000 6.000000 255 204 102
-6.000000 1.000000 6.000000 255 204 102
-1.500000 0.500000 6.000000 0 255 51
-2.000000 0.500000 6.000000 0 255 51
-1.500000 0.500000 6.000000 255 51 51
-1.000000 0.250000 6.250000 255 51 51
-1.000000 0.500000 6.500000 255 51 51
1.500000 0.500000 6.000000 0 255 51
2.000000 0.500000 6.000000 0 255 51
1.500000 0.500000 6.000000 255 51 51
1.000000 0.500000 6.500000 255 51 51
1.000000 0.250000 6.250000 255 51 51
5.000000 1.000000 6.000000 255 204 102
6.000000 1.000000 6.000000 255 204 102
5.000000 0.000000 6.000000 255 204 102
-4.500000 1.000000 6.500000 255 204 102
-5.000000 1.500000 6.500000 255 204 102
-1.500000 1.500000 6.000000 0 255 51
-2.000000 1.500000 5.500000 0 255 51
-2.000000 1.500000 6.000000 0 255 51
-1.500000 1.500000 6.000000 255 51 51
-1.000000 1.500000 6.500000 255 51 51
-1.000000 1.750000 6.250000 255 51 51
1.500000 1.500000 6.000000 0 255 51
2.000000 1.500000 6.000000 0 255 51
2.000000 1.500000 5.500000 0 255 51
1.500000 1.500000 6.000000 255 51 51
1.000000 1.750000 6.250000 255 51 51
1.000000 1.500000 6.500000 255 51 51
4.500000 1.000000 6.500000 255 204 102
5.000000 1.500000 6.500000 255 204 102
-3.500000 -2.000000 6.500000 255 204 102
-4.000000 -2.000000 7.000000 255 204 102
-4.000000 -2.500000 6.500000 255 204 102
4.000000 -2.000000 7.000000 255 204 102
3.500000 -2.000000 6.500000 255 204 102
4.000000 -2.500000 6.500000 255 204 102
-4.000000 -1.000000 7.000000 255 204 102
-5.000000 -2.000000 7.000000 255 204 102
5.000000 -2.000000 7.000000 255 204 102
4.000000 -1.000000 7.000000 255 204 102
-2.000000 -2.500000 16.500000 255 204 102
0.000000 -2.500000 16.500000 255 204 102
-1.000000 -2.500000 17.500000 255 204 102
0.500000 -2.500000 21.000000 255 255 102
0.000000 -2.500000 21.500000 255 255 102
-0.500000 -2.500000 21.000000 255 255 102
1.000000 -0.500000 10.500000 255 51 51
1.000000 -1.500000 11.500000 255 51 51
0.000000 -0.500000 11.500000 255 51 51
5.000000 -1.000000 11.000000 255 204 102
4.500000 -1.000000 10.500000 255 204 102
5.000000 -1.500000 10.500000 255 204 102
-4.000000 -0.500000 11.500000 255 204 102
-5.000000 -0.500000 11.500000 255 204 102
-4.000000 0.000000 11.000000 255 204 102
4.500000 0.000000 10.500000 255 204 102
-3.500000 2.500000 11.000000 255 51 51
-3.250000 3.000000 10.750000 255 51 51
-3.000000 3.000000 11.000000 255 51 51
-3.500000 2.500000 11.000000 255 204 102
-3.750000 2.000000 10.750000 255 204 102
-4.000000 2.000000 11.000000 255 204 102
3.500000 2.500000 11.000000 255 51 51
3.000000 3.000000 11.000000 255 51 51
3.250000 3.000000 10.750000 255 51 51
3.500000 2.500000 11.000000 255 204 102
4.000000 2.000000 11.000000 255 204 102
3.750000 2.000000 10.750000 255 204 102
-1.000000 -1.500000 11.500000 255 51 51
-1.000000 -0.500000 10.500000 255 51 51
-0.500000 -2.000000 25.500000 255 255 102
-0.500000 2.000000 21.500000 255 255 102
-0.500000 -2.000000 21.500000 255 255 102
-1.000000 0.000000 4.000000 0 255 51
-0.500000 -1.500000 14.000000 255 204 102
-1.000000 -2.000000 14.000000 255 204 102
-1.000000 -1.750000 13.750000 255 204 102
0.500000 -1.500000 14.000000 255 204 102
1.000000 -1.750000 13.750000 255 204 102
1.000000 -2.000000 14.000000 255 204 102
-6.000000 0.000000 14.000000 255 204 102
-6.500000 0.000000 13.500000 255 204 102
-6.000000 -0.500000 13.500000 255 204 102
0.500000 2.500000 21.000000 255 255 102
-0.500000 2.500000 21.000000 255 255 102
0.000000 2.500000 21.500000 255 255 102
6.500000 0.000000 13.500000 255 204 102
6.000000 0.000000 14.000000 255 204 102
6.000000 -0.500000 13.500000 255 204 102
-2.500000 0.500000 14.000000 255 51 51
-3.000000 0.000000 14.000000 255 51 51
-2.750000 0.000000 14.250000 255 51 51
-1.500000 1.500000 14.000000 255 51 51
-1.833330 0.833333 14.333300 255 51 51
2.500000 0.500000 14.000000 255 51 51
2.750000 0.000000 14.250000 255 51 51
3.000000 0.000000 14.000000 255 51 51
2.500000 1.000000 8.500000 255 51 51
2.500000 2.000000 9.500000 255 51 51
2.500000 0.000000 9.500000 255 51 51
-1.000000 1.750000 14.250000 255 51 51
-1.000000 2.000000 14.000000 255 51 51
1.500000 1.500000 14.000000 255 51 51
1.000000 2.000000 14.000000 255 51 51
1.000000 1.750000 14.250000 255 51 51
-2.500000 2.000000 9.500000 255 51 51
-2.500000 1.000000 8.500000 255 51 51
-2.500000 0.000000 9.500000 255 51 51
-6.000000 2.500000 13.500000 255 204 102
-6.500000 2.000000 13.500000 255 204 102
-6.000000 2.000000 14.000000 255 204 102
6.500000 2.000000 13.500000 255 204 102
6.000000 2.500000 13.500000 255 204 102
6.000000 2.000000 14.000000 255 204 102
-1.000000 1.500000 14.500000 255 204 102
-1.000000 1.500000 15.500000 255 204 102
0.000000 1.500000 14.500000 255 204 102
1.000000 1.500000 14.500000 255 204 102
1.000000 1.500000 15.500000 255 204 102
1.000000 0.000000 4.000000 0 255 51
0.000000 -4.500000 17.500000 255 204 102
-0.500000 -4.000000 17.500000 255 204 102
0.000000 -4.000000 17.000000 255 204 102
0.500000 -4.000000 17.500000 255 204 102
-0.500000 -3.000000 17.500000 255 204 102
-0.500000 -3.000000 18.500000 255 204 102
0.500000 -3.000000 17.500000 255 204 102
0.500000 -3.000000 18.500000 255 204 102
2.000000 -2.500000 16.500000 255 204 102
1.000000 -2.500000 17.500000 255 204 102
-1.500000 -1.500000 18.000000 255 204 102
-1.500000 -2.000000 17.500000 255 204 102
-1.500000 -2.000000 18.000000 255 204 102
1.500000 -1.500000 18.000000 255 204 102
1.500000 -2.000000 18.000000 255 204 102
1.500000 -2.000000 17.500000 255 204 102
0.500000 2.000000 21.500000 255 255 102
0.500000 -2.000000 25.500000 255 255 102
0.500000 -2.000000 21.500000 255 255 102
1.833330 0.833333 14.333300 255 51 51
0.000000 -2.000000 26.000000 255 255 102
0.000000 -2.500000 25.500000 255 255 102
3.750000 0.000000 10.750000 255 51 51
-3.000000 -1.500000 13.500000 255 51 51
-3.000000 -1.500000 11.500000 255 51 51
2.000000 1.500000 6.000000 255 51 51
2.000000 1.500000 8.500000 255 51 51
-3.750000 0.000000 10.750000 255 51 51
-2.500000 0.000000 14.500000 255 204 102
-2.500000 0.000000 15.500000 255 204 102
1.500000 2.000000 20.500000 255 204 102
0.750000 -2.000000 21.250000 255 204 102
1.500000 -2.000000 20.500000 255 204 102
-3.000000 3.500000 12.500000 255 51 51
-3.750000 2.750000 13.500000 255 51 51
-3.000000 3.500000 13.500000 255 51 51
2.500000 -3.000000 15.500000 255 204 102
1.000000 -4.500000 14.500000 255 204 102
2.500000 -3.000000 14.500000 255 204 102
-2.000000 0.500000 1.500000 0 255 51
5.500000 -1.000000 4.500000 255 204 102
-3.750000 -0.750000 13.500000 255 51 51
1.500000 -2.000000 18.000000 204 255 255
0.750000 -2.750000 18.500000 204 255 255
0.750000 -2.750000 18.000000 204 255 255
2.000000 1.500000 1.000000 255 255 0
-3.000000 3.000000 14.000000 255 51 51
4.000000 -0.500000 11.500000 255 204 102
3.500000 -0.500000 11.000000 255 204 102
4.000000 0.000000 11.000000 255 204 102
0.166667 -0.833333 13.666700 255 204 102
0.000000 -1.000000 14.000000 255 204 102
0.000000 -0.750000 13.750000 255 204 102
-1.000000 -4.500000 15.500000 255 204 102
-2.500000 -3.000000 14.500000 255 204 102
-1.000000 -4.500000 14.500000 255 204 102
2.750000 -1.000000 14.250000 255 51 51
3.000000 -1.000000 14.000000 255 51 51
-3.500000 -0.500000 11.000000 255 204 102
-2.000000 0.500000 6.000000 255 51 51
-2.500000 1.000000 6.000000 255 51 51
-6.000000 1.500000 7.500000 255 204 102
-6.500000 3.000000 9.500000 255 204 102
-6.000000 3.500000 9.500000 255 204 102
3.000000 3.500000 13.500000 255 51 51
3.750000 2.750000 12.500000 255 51 51
3.000000 3.500000 12.500000 255 51 51
-4.500000 2.000000 10.500000 255 204 102
4.000000 -0.500000 13.500000 255 204 102
3.500000 -0.500000 14.000000 255 204 102
3.750000 -0.750000 13.500000 255 204 102
6.000000 -0.500000 11.500000 255 204 102
6.500000 0.000000 11.500000 255 204 102
-3.500000 3.500000 11.000000 255 51 51
-3.000000 3.500000 11.500000 255 51 51
4.000000 2.500000 12.500000 255 204 102
3.750000 2.750000 13.500000 255 204 102
4.000000 2.500000 13.500000 255 204 102
-1.000000 1.750000 6.250000 0 255 51
0.166667 -0.833333 13.666700 255 51 51
1.000000 -1.500000 13.500000 255 51 51
0.500000 -1.500000 14.000000 255 51 51
2.500000 2.000000 17.500000 255 204 102
1.500000 -1.000000 18.500000 255 204 102
2.500000 -1.000000 17.500000 255 204 102
2.000000 0.500000 1.500000 0 255 51
2.000000 0.250000 1.250000 0 255 51
3.000000 3.000000 14.000000 255 51 51
-1.500000 -2.000000 18.000000 204 255 255
-0.750000 -2.750000 18.500000 204 255 255
-1.500000 -2.000000 18.500000 204 255 255
6.500000 2.000000 12.500000 255 204 102
-5.000000 -0.500000 8.500000 255 204 102
-4.500000 -1.000000 9.500000 255 204 102
-5.000000 -1.500000 9.500000 255 204 102
-3.500000 -1.000000 6.500000 255 204 102
-2.000000 -2.000000 14.000000 255 204 102
-2.000000 -3.000000 14.000000 255 204 102
-5.000000 1.500000 7.500000 255 204 102
-4.500000 1.000000 7.500000 255 204 102
1.500000 0.000000 0.500000 255 255 0
6.000000 1.500000 7.500000 255 204 102
6.500000 3.000000 9.500000 255 204 102
6.500000 1.000000 7.500000 255 204 102
-4.500000 -1.000000 10.500000 255 204 102
1.833330 0.833333 14.333300 255 204 102
2.500000 0.000000 14.500000 255 204 102
2.500000 0.500000 14.000000 255 204 102
-2.500000 -1.000000 14.500000 255 204 102
-2.750000 -1.000000 14.250000 255 204 102
-2.500000 -1.500000 14.000000 255 204 102
2.500000 -1.000000 14.500000 255 204 102
2.750000 0.000000 14.250000 255 204 102
-5.000000 -2.500000 5.500000 255 204 102
3.500000 3.500000 11.000000 255 51 51
2.500000 -1.500000 14.000000 255 204 102
2.000000 -2.000000 14.000000 255 204 102
2.500000 0.000000 15.500000 255 204 102
0.750000 2.000000 21.250000 255 255 102
0.750000 -2.000000 21.250000 255 255 102
5.500000 -1.000000 5.500000 255 204 102
4.500000 -2.000000 5.500000 255 204 102
6.500000 -1.000000 10.500000 255 204 102
6.000000 -1.500000 9.500000 255 204 102
6.500000 -1.000000 9.500000 255 204 102
5.000000 -1.000000 6.000000 255 204 102
5.500000 0.000000 5.500000 255 204 102
-2.500000 0.000000 0.500000 255 255 0
-4.000000 2.500000 13.500000 255 204 102
-3.500000 2.500000 14.000000 255 204 102
-3.750000 2.750000 13.500000 255 204 102
-5.000000 -1.500000 10.500000 255 204 102
-6.000000 -0.500000 11.500000 255 204 102
-6.000000 -1.500000 10.500000 255 204 102
0.000000 -3.000000 17.000000 255 204 102
2.000000 0.000000 1.000000 255 255 0
1.500000 0.500000 1.000000 255 255 0
4.500000 0.000000 6.500000 255 204 102
3.500000 -1.000000 6.500000 255 204 102
6.000000 0.500000 5.500000 255 204 102
2.500000 0.000000 0.500000 255 255 0
1.000000 0.000000 6.000000 0 255 51
2.000000 -3.000000 16.000000 255 204 102
-2.000000 -3.000000 16.000000 255 204 102
-4.500000 -2.000000 5.500000 255 204 102
2.500000 1.000000 1.000000 255 255 0
-6.500000 3.000000 11.500000 255 204 102
-6.000000 2.500000 12.500000 255 204 102
-6.000000 3.500000 11.500000 255 204 102
-6.000000 0.500000 5.500000 255 204 102
-1.000000 -2.500000 20.500000 255 204 102
-0.750000 -2.000000 21.250000 255 204 102
-1.500000 -2.000000 20.500000 255 204 102
-1.000000 -4.000000 14.000000 255 204 102
1.000000 1.750000 6.250000 0 255 51
3.000000 3.500000 11.500000 255 51 51
-6.500000 1.000000 6.500000 255 204 102
-6.500000 1.000000 7.500000 255 204 102
-4.000000 -2.000000 6.000000 255 204 102
6.000000 2.500000 12.500000 255 204 102
6.500000 3.000000 11.500000 255 204 102
6.000000 3.500000 11.500000 255 204 102
-6.500000 -2.000000 6.500000 255 204 102
-6.000000 -2.500000 6.500000 255 204 102
-1.000000 2.500000 20.500000 255 204 102
-1.500000 2.000000 18.500000 255 204 102
-1.500000 2.000000 20.500000 255 204 102
-5.500000 -1.000000 5.500000 255 204 102
-5.500000 -1.000000 4.500000 255 204 102
2.000000 0.500000 8.500000 255 51 51
-2.000000 -0.500000 9.500000 255 51 51
-2.000000 0.500000 8.500000 255 51 51
-1.500000 0.000000 0.500000 255 255 0
2.000000 2.500000 17.500000 255 204 102
1.500000 2.000000 18.500000 255 204 102
6.500000 1.000000 6.500000 255 204 102
6.500000 0.000000 5.500000 255 204 102
-4.000000 -0.500000 13.500000 255 204 102
1.000000 -2.500000 20.500000 255 204 102
-0.500000 -2.500000 21.000000 255 204 102
6.000000 -2.500000 6.500000 255 204 102
5.000000 -2.500000 5.500000 255 204 102
4.000000 -2.000000 6.000000 255 204 102
1.500000 -1.500000 19.000000 255 204 102
-2.500000 0.500000 1.000000 255 255 0
0.000000 -0.500000 13.500000 255 51 51
-5.000000 3.500000 9.500000 255 204 102
-0.750000 2.000000 21.250000 255 255 102
-0.750000 2.000000 21.250000 255 204 102
-4.500000 0.000000 6.500000 255 204 102
2.000000 -3.000000 14.000000 255 204 102
0.000000 2.500000 15.500000 255 204 102
-1.000000 1.750000 14.250000 255 204 102
1.000000 1.750000 14.250000 255 204 102
1.000000 2.500000 18.500000 255 204 102
-2.000000 1.500000 1.000000 255 255 0
3.750000 2.750000 13.500000 255 51 51
-6.000000 1.500000 6.500000 255 204 102
1.000000 -4.000000 14.000000 255 204 102
5.000000 -1.500000 9.500000 255 204 102
4.500000 -1.000000 9.500000 255 204 102
-3.500000 -0.500000 14.000000 255 204 102
-4.000000 0.000000 14.000000 255 204 102
1.500000 -2.000000 18.500000 204 255 255
1.500000 -1.500000 18.000000 204 255 255
1.500000 -1.500000 19.000000 204 255 255
6.000000 -0.500000 8.500000 255 204 102
6.500000 -2.000000 6.500000 255 204 102
6.500000 0.000000 8.500000 255 204 102
-2.000000 1.500000 4.500000 0 255 51
-2.000000 1.500000 1.000000 0 255 51
-4.000000 -1.000000 6.000000 255 204 102
-4.000000 2.000000 14.000000 255 204 102
-0.166667 -0.833333 13.666700 255 51 51
-1.000000 -1.500000 13.500000 255 51 51
2.500000 0.500000 1.000000 255 255 0
2.000000 0.250000 1.250000 255 255 0
-0.166667 -0.833333 13.666700 255 204 102
-1.500000 -2.500000 19.000000 204 255 255
-0.833333 -2.833330 18.666700 204 255 255
3.250000 3.000000 10.750000 255 204 102
4.500000 2.000000 10.500000 255 204 102
-2.000000 1.500000 8.500000 255 51 51
2.000000 2.500000 9.500000 255 51 51
-3.250000 3.000000 10.750000 255 204 102
-2.000000 0.000000 1.000000 255 255 0
-1.500000 0.500000 1.000000 255 255 0
-2.000000 0.250000 1.250000 255 255 0
2.500000 1.000000 6.000000 0 255 51
-5.500000 0.000000 5.500000 255 204 102
-5.000000 -1.000000 6.000000 255 204 102
-2.000000 0.250000 1.250000 0 255 51
-4.000000 2.500000 12.500000 255 204 102
-4.000000 3.500000 11.500000 255 204 102
-6.500000 2.000000 12.500000 255 204 102
3.000000 -1.500000 13.500000 255 51 51
3.750000 -0.750000 11.500000 255 51 51
3.750000 -0.750000 13.500000 255 51 51
2.500000 -1.750000 13.750000 255 204 102
3.500000 2.500000 14.000000 255 204 102
4.000000 2.000000 14.000000 255 204 102
-1.000000 -4.000000 16.000000 255 204 102
-1.000000 0.250000 6.250000 0 255 51
-1.000000 0.000000 6.000000 0 255 51
3.000000 2.500000 10.500000 255 51 51
-4.500000 0.000000 8.500000 255 204 102
5.000000 1.500000 7.500000 255 204 102
3.750000 -0.750000 11.500000 255 204 102
5.000000 -0.500000 8.500000 255 204 102
4.500000 0.000000 8.500000 255 204 102
-1.500000 1.000000 1.000000 255 255 0
4.500000 1.000000 7.500000 255 204 102
4.000000 -1.000000 6.000000 255 204 102
-6.000000 -0.500000 8.500000 255 204 102
3.000000 -0.500000 10.500000 255 51 51
3.000000 -1.500000 11.500000 255 51 51
1.000000 -4.000000 16.000000 255 204 102
2.000000 1.500000 1.000000 0 255 51
2.000000 -0.500000 9.500000 255 51 51
3.500000 3.500000 12.000000 255 51 51
-6.000000 -1.500000 9.500000 255 204 102
1.000000 2.500000 20.500000 255 204 102
0.750000 2.000000 21.250000 255 204 102
-1.500000 -3.000000 19.500000 255 204 102
-0.833333 -2.833330 18.666700 255 204 102
-3.833330 2.833330 12.333300 255 204 102
-2.500000 2.000000 17.500000 255 204 102
-2.000000 2.500000 17.500000 255 204 102
2.500000 1.000000 6.000000 255 51 51
-6.500000 0.000000 5.500000 255 204 102
-6.500000 -1.000000 10.500000 255 204 102
-6.500000 -1.000000 9.500000 255 204 102
-2.500000 -1.000000 17.500000 255 204 102
-2.500000 -3.000000 15.500000 255 204 102
0.750000 -2.750000 18.000000 255 204 102
-1.500000 -1.000000 18.500000 255 204 102
-3.750000 2.750000 12.500000 255 204 102
2.000000 1.500000 4.500000 0 255 51
4.000000 0.000000 14.000000 255 204 102
1.500000 -2.500000 19.000000 204 255 255
-3.000000 -0.500000 10.500000 255 51 51
-3.500000 3.500000 11.000000 255 204 102
-4.500000 3.000000 9.500000 255 204 102
-1.500000 -1.500000 19.000000 255 204 102
-2.500000 -1.500000 14.000000 255 51 51
-3.000000 -1.000000 14.000000 255 51 51
0.833333 -2.833330 18.666700 255 204 102
4.000000 3.500000 11.500000 255 204 102
5.000000 3.500000 9.500000 255 204 102
3.500000 3.500000 11.000000 255 204 102
-3.750000 -0.750000 13.500000 255 204 102
4.500000 3.000000 9.500000 255 204 102
-2.500000 1.000000 6.000000 0 255 51
0.500000 -2.500000 21.000000 255 204 102
-4.500000 -1.000000 7.500000 255 204 102
-2.500000 -1.750000 13.750000 255 51 51
-1.000000 -1.750000 13.750000 255 51 51
-6.500000 0.000000 11.500000 255 204 102
-6.500000 0.000000 8.500000 255 204 102
3.833330 2.833330 12.333300 255 204 102
2.500000 -1.750000 13.750000 255 51 51
6.000000 3.500000 9.500000 255 204 102
4.500000 -1.000000 7.500000 255 204 102
-1.833330 0.833333 14.333300 255 204 102
-1.500000 -1.500000 18.000000 204 255 255
-0.750000 -2.750000 18.000000 255 204 102
-2.000000 2.500000 9.500000 255 51 51
-3.000000 2.500000 10.500000 255 51 51
-3.500000 3.500000 12.000000 255 51 51
-3.750000 2.750000 12.500000 255 51 51
3.500000 -0.500000 11.000000 255 51 51
-2.000000 1.500000 6.000000 255 51 51
3.750000 2.000000 10.750000 255 51 51
-3.750000 2.000000 10.750000 255 51 51
1.000000 -4.500000 15.500000 255 204 102
-3.750000 -0.750000 11.500000 255 51 51
1.500000 1.000000 1.000000 255 255 0
-3.500000 2.500000 14.000000 255 51 51
3.750000 0.000000 10.750000 255 204 102
-3.750000 -0.750000 11.500000 255 204 102
-3.750000 0.000000 10.750000 255 204 102
3.750000 2.750000 12.500000 255 204 102
0.000000 -0.750000 13.750000 255 51 51
1.000000 -1.750000 13.750000 255 51 51
-3.500000 -0.500000 14.000000 255 51 51
3.500000 2.500000 14.000000 255 51 51
3.500000 -0.500000 14.000000 255 51 51
-0.750000 -2.750000 18.000000 204 255 255
1.500000 1.500000 14.000000 255 204 102
-2.500000 -1.750000 13.750000 255 204 102
2.750000 -1.000000 14.250000 255 204 102
6.000000 -1.500000 10.500000 255 204 102
1.000000 0.250000 6.250000 0 255 51
-0.750000 -2.000000 21.250000 255 255 102
-1.000000 2.500000 18.500000 255 204 102
6.000000 1.500000 6.500000 255 204 102
1.500000 -3.000000 19.500000 255 204 102
1.500000 -2.500000 19.000000 255 204 102
-2.500000 1.000000 1.000000 255 255 0
-0.500000 2.500000 21.000000 255 204 102
-0.500000 -1.500000 14.000000 255 51 51
2.000000 0.500000 6.000000 255 51 51
-2.750000 0.000000 14.250000 255 204 102
3.833330 2.833330 12.333300 255 51 51
0.500000 2.500000 21.000000 255 204 102
-1.500000 -2.500000 19.000000 255 204 102
-0.750000 -2.750000 18.500000 255 204 102
-3.500000 3.500000 12.000000 255 204 102
0.750000 -2.750000 18.500000 255 204 102
2.500000 -1.500000 14.000000 255 51 51
0.833333 -2.833330 18.666700 204 255 255
-3.500000 -0.500000 11.000000 255 51 51
-2.750000 -1.000000 14.250000 255 51 51
3.500000 3.500000 12.000000 255 204 102
-1.500000 1.500000 14.000000 255 204 102
-2.500000 0.500000 14.000000 255 204 102
-1.500000 -1.500000 19.000000 204 255 255
-3.833330 2.833330 12.333300 255 51 51
3 0 1 2
3 3 0 2
3 4 5 6
3 7 4 6
3 8 9 10
3 11 8 10
3 12 13 14
3 15 12 14
3 1 0 16
3 16 0 3
3 17 5 4
3 7 17 4
3 18 19 20
3 21 22 23
3 24 25 26
3 27 28 29
3 30 31 32
3 33 34 35
3 36 37 38
3 39 40 41
3 42 43 44
3 35 45 38
3 46 47 48
3 49 50 51
3 44 41 52
3 53 54 55
3 56 53 55
3 57 58 59
3 60 57 59
3 61 62 63
3 62 64 63
3 64 65 63
3 63 65 66
3 67 68 69
3 69 68 70
3 70 68 71
3 68 72 71
3 73 63 74
3 75 76 68
3 73 74 77
3 76 75 78
3 79 80 81
3 82 83 84
3 85 86 87
3 88 89 64
3 90 91 92
3 93 70 94
3 95 96 97
3 98 99 100
3 101 85 102
3 103 104 105
3 106 107 108
3 109 110 111
3 112 113 114
3 98 115 116
3 117 118 119
3 120 121 122
3 118 123 124
3 120 125 126
3 127 128 129
3 130 131 132
3 133 134 135
3 136 137 138
3 139 140 141
3 137 136 142
3 143 144 145
3 146 147 148
3 149 150 151
3 152 153 154
3 155 156 135
3 157 158 159
3 61 63 160
3 161 162 163
3 164 165 166
3 167 168 169
3 170 171 172
3 173 174 175
3 176 177 178
3 179 176 180
3 181 182 183
3 184 185 186
3 179 187 188
3 189 190 191
3 192 193 194
3 195 196 197
3 198 199 200
3 201 202 203
3 204 203 205
3 68 67 206
3 207 208 209
3 210 207 209
3 211 208 212
3 213 214 210
3 128 215 216
3 217 218 219
3 220 221 222
3 223 224 225
3 189 226 181
3 227 157 228
3 224 227 228
3 185 229 186
3 155 230 231
3 184 232 233
3 234 192 194
3 202 235 236
3 237 238 239
3 240 241 242
3 243 244 245
3 66 246 23
3 206 63 68
3 57 247 58
3 248 231 230
3 249 250 251
3 13 252 14
3 241 253 242
3 79 62 80
3 254 255 256
3 224 131 225
3 257 258 259
3 260 261 262
3 183 263 264
3 141 265 139
3 266 193 267
3 268 269 270
3 271 272 273
3 141 274 148
3 275 276 277
3 173 278 279
3 145 280 281
3 282 283 284
3 77 74 285
3 286 287 288
3 289 290 291
3 292 24 293
3 190 294 253
3 295 296 297
3 298 199 198
3 299 300 301
3 302 118 117
3 261 303 304
3 101 305 306
3 6 307 12
3 308 309 310
3 311 301 300
3 312 313 314
3 253 271 242
3 315 316 317
3 318 319 313
3 33 37 320
3 140 311 141
3 150 321 151
3 322 318 323
3 313 205 324
3 325 225 326
3 327 40 328
3 329 330 331
3 332 333 327
3 231 156 155
3 75 77 78
3 2 334 8
3 335 336 337
3 338 339 340
3 131 157 159
3 129 341 211
3 342 343 307
3 126 344 345
3 100 346 333
3 347 17 7
3 69 93 348
3 349 128 350
3 147 141 148
3 351 37 36
3 14 352 15
3 353 354 355
3 159 132 131
3 86 356 87
3 357 358 359
3 261 360 262
3 77 361 78
3 145 362 150
3 49 206 67
3 69 83 82
3 198 174 173
3 268 363 364
3 365 119 351
3 366 367 368
3 369 33 370
3 371 372 373
3 42 44 52
3 210 341 213
3 374 36 375
3 15 347 12
3 376 377 378
3 243 318 324
3 8 11 379
3 380 381 289
3 382 383 346
3 169 140 384
3 247 41 40
3 385 386 357
3 278 329 279
3 60 346 383
3 387 388 43
3 256 154 153
3 122 389 328
3 290 237 390
3 391 9 334
3 28 357 29
3 134 392 135
3 25 71 72
3 268 393 305
3 394 159 158
3 41 43 39
3 54 45 34
3 395 371 373
3 396 123 302
3 323 245 397
3 205 398 380
3 46 80 47
3 399 203 400
3 401 237 381
3 116 99 98
3 9 402 10
3 375 38 45
3 17 307 5
3 294 403 271
3 404 85 87
3 245 405 397
3 406 137 407
3 384 408 409
3 410 411 412
3 328 332 327
3 125 122 387
3 413 414 415
3 416 417 19
3 382 308 310
3 418 396 302
3 225 130 326
3 409 419 167
3 420 421 392
3 342 422 423
3 341 208 211
3 92 96 376
3 258 424 259
3 87 356 363
3 305 404 268
3 425 296 426
3 427 428 152
3 27 208 207
3 395 359 358
3 429 430 233
3 274 431 146
3 432 433 434
3 71 435 70
3 278 254 136
3 227 223 172
3 436 437 374
3 246 18 438
3 92 97 96
3 206 48 160
3 309 368 367
3 355 439 440
3 195 441 196
3 442 443 444
3 323 165 445
3 284 446 447
3 448 349 350
3 348 449 450
3 292 30 32
3 451 185 430
3 240 273 362
3 341 216 213
3 306 452 396
3 308 116 453
3 335 354 195
3 275 454 254
3 455 407 456
3 10 457 11
3 453 115 458
3 235 316 315
3 459 121 345
3 460 369 370
3 134 461 462
3 450 449 88
3 27 210 214
3 343 13 307
3 330 138 406
3 63 416 74
3 387 42 414
3 260 463 448
3 464 26 25
3 465 133 156
3 272 466 273
3 301 340 467
3 83 450 79
3 468 469 237
3 470 471 29
3 433 11 457
3 437 418 365
3 246 21 23
3 270 353 355
3 16 334 1
3 459 332 389
3 439 472 440
3 199 447 200
3 379 16 3
3 256 428 142
3 202 473 474
3 376 475 184
3 351 437 365
3 356 54 476
3 467 477 478
3 127 479 480
3 481 216 221
3 56 356 436
3 444 264 442
3 396 85 101
3 473 482 372
3 335 483 439
3 75 63 73
3 484 68 76
3 120 345 121
3 275 174 485
3 375 436 374
3 486 250 410
3 197 168 167
3 188 191 190
3 197 335 195
3 194 487 234
3 39 328 40
3 98 344 115
3 488 431 489
3 490 373 482
3 23 22 417
3 114 108 107
3 244 260 262
3 236 479 473
3 254 142 136
3 333 247 327
3 230 491 492
3 28 214 493
3 413 331 330
3 494 495 496
3 160 47 61
3 139 497 384
3 171 394 158
3 498 496 495
3 339 477 340
3 35 37 33
3 167 384 409
3 64 89 499
3 62 47 80
3 233 107 429
3 238 500 385
3 117 418 302
3 124 501 299
3 442 134 462
3 50 81 46
3 215 291 222
3 375 53 56
3 392 155 135
3 81 83 79
3 346 58 333
3 124 460 370
3 51 46 48
3 432 391 334
3 401 371 468
3 275 278 175
3 502 421 503
3 169 504 339
3 161 164 166
3 505 269 364
3 494 506 282
3 456 428 458
3 440 393 355
3 309 279 415
3 507 287 442
3 82 50 49
3 508 453 495
3 301 460 299
3 460 478 505
3 484 435 32
3 509 455 456
3 485 447 276
3 492 178 177
3 372 474 473
3 510 235 201
3 511 295 297
3 199 282 284
3 512 211 212
3 49 69 82
3 109 111 76
3 422 15 352
3 451 513 514
3 303 163 162
3 344 459 345
3 515 516 240
3 282 368 494
3 513 429 192
3 405 262 360
3 229 517 461
3 413 406 455
3 518 193 429
3 185 519 229
3 155 421 230
3 184 475 232
3 234 520 192
3 202 201 235
3 237 469 238
3 240 516 241
3 243 521 244
3 66 65 246
3 206 160 63
3 57 52 247
3 248 522 231
3 249 410 250
3 13 523 252
3 241 524 253
3 79 450 62
3 525 256 255
3 254 454 255
3 224 228 131
3 257 164 258
3 260 480 261
3 183 182 263
3 526 139 265
3 141 527 265
3 266 378 193
3 268 364 269
3 271 403 272
3 141 311 274
3 275 485 276
3 173 175 278
3 145 144 280
3 282 528 283
3 103 285 74
3 74 104 103
3 286 529 392
3 392 287 286
3 530 288 287
3 289 381 290
3 292 25 24
3 177 176 524
3 176 179 524
3 531 492 177
3 253 524 179
3 532 294 189
3 264 533 183
3 189 181 532
3 183 533 532
3 524 531 177
3 253 179 188
3 181 183 532
3 253 188 190
3 190 189 294
3 295 534 296
3 298 366 199
3 299 452 300
3 302 123 118
3 261 315 303
3 101 102 305
3 13 12 307
3 6 5 307
3 308 508 309
3 311 338 301
3 312 535 204
3 400 204 535
3 313 319 314
3 312 204 313
3 253 294 271
3 303 315 317
3 317 536 303
3 318 537 319
3 370 33 320
3 320 119 370
3 140 338 311
3 150 362 321
3 322 537 318
3 323 445 322
3 313 204 205
3 325 223 225
3 327 247 40
3 329 538 330
3 332 100 333
3 231 487 156
3 75 73 77
3 9 8 334
3 2 1 334
3 335 419 336
3 338 140 339
3 131 228 157
3 129 128 341
3 342 423 343
3 126 509 344
3 100 99 346
3 347 342 17
3 539 348 93
3 69 70 93
3 127 350 128
3 349 215 128
3 147 527 141
3 351 320 37
3 14 252 352
3 353 441 354
3 159 540 132
3 86 436 356
3 359 470 357
3 357 386 358
3 470 29 357
3 261 304 360
3 77 285 361
3 451 514 145
3 145 281 362
3 150 451 145
3 49 51 206
3 69 348 83
3 198 200 174
3 268 404 363
3 320 351 119
3 365 117 119
3 366 298 367
3 369 34 33
3 371 541 372
3 52 57 60
3 60 42 52
3 210 209 341
3 374 351 36
3 6 12 347
3 347 7 6
3 376 465 377
3 289 291 324
3 243 245 318
3 318 313 324
3 324 291 243
3 379 3 2
3 2 8 379
3 380 401 381
3 346 99 382
3 542 382 99
3 139 384 140
3 169 339 140
3 247 52 41
3 385 500 386
3 278 538 329
3 60 59 346
3 387 122 388
3 388 39 43
3 256 525 154
3 328 388 122
3 122 121 389
3 290 381 237
3 237 239 390
3 543 544 239
3 390 220 290
3 239 544 390
3 391 545 9
3 28 385 357
3 134 287 392
3 25 292 71
3 268 270 393
3 394 540 159
3 41 44 43
3 35 34 45
3 54 53 45
3 395 546 371
3 396 501 123
3 323 318 245
3 380 289 205
3 205 203 398
3 289 324 205
3 46 81 80
3 204 400 203
3 399 201 203
3 401 468 237
3 116 542 99
3 9 545 402
3 375 36 38
3 17 342 307
3 294 532 403
3 404 102 85
3 245 244 405
3 406 138 137
3 384 497 408
3 410 249 411
3 412 486 410
3 328 389 332
3 387 413 125
3 125 120 122
3 413 455 125
3 413 387 414
3 19 499 416
3 104 74 416
3 499 105 104
3 417 20 19
3 499 104 416
3 382 542 308
3 418 86 396
3 225 131 130
3 409 408 336
3 419 197 167
3 409 336 419
3 420 547 421
3 503 421 547
3 392 529 420
3 342 347 422
3 341 209 208
3 376 378 92
3 266 90 92
3 96 95 548
3 378 266 92
3 96 548 376
3 258 161 424
3 476 363 356
3 404 87 363
3 305 102 404
3 425 297 296
3 153 152 428
3 427 498 428
3 27 212 208
3 395 373 359
3 429 513 430
3 146 148 274
3 274 489 431
3 432 379 433
3 94 70 435
3 71 292 32
3 32 435 71
3 136 138 538
3 538 278 136
3 170 172 223
3 227 224 223
3 223 325 170
3 436 86 437
3 246 19 18
3 92 91 97
3 206 51 48
3 309 508 368
3 355 354 439
3 195 354 441
3 442 462 443
3 323 166 165
3 284 283 446
3 448 463 349
3 348 539 449
3 292 293 30
3 233 430 185
3 451 150 149
3 149 519 451
3 185 184 233
3 451 519 185
3 280 515 281
3 240 242 271
3 273 466 362
3 240 271 273
3 281 515 240
3 466 321 362
3 362 281 240
3 341 128 216
3 306 489 274
3 274 311 300
3 452 501 396
3 274 300 452
3 396 101 306
3 306 274 452
3 308 542 116
3 335 439 354
3 275 277 454
3 455 406 407
3 10 402 457
3 453 116 115
3 235 549 316
3 459 389 121
3 460 505 369
3 134 133 461
3 88 64 62
3 62 450 88
3 27 207 210
3 343 523 13
3 330 538 138
3 63 66 416
3 387 43 42
3 260 521 463
3 25 72 484
3 484 464 25
3 487 377 156
3 465 461 133
3 133 135 156
3 156 377 465
3 272 550 466
3 301 338 340
3 83 348 450
3 468 551 469
3 27 29 212
3 470 552 471
3 471 553 212
3 212 29 471
3 433 379 11
3 437 86 418
3 246 438 21
3 270 269 353
3 16 432 334
3 459 100 332
3 439 483 472
3 472 554 440
3 199 284 447
3 379 432 16
3 256 153 428
3 474 398 202
3 202 236 473
3 398 203 202
3 376 548 475
3 351 374 437
3 356 55 54
3 467 340 477
3 127 129 218
3 217 482 479
3 127 218 479
3 260 448 350
3 218 217 479
3 480 260 350
3 350 127 480
3 222 221 216
3 481 555 214
3 213 216 481
3 481 214 213
3 56 55 356
3 507 442 556
3 444 533 264
3 264 263 556
3 556 442 264
3 396 86 85
3 473 479 482
3 335 337 483
3 75 68 63
3 484 72 68
3 120 126 345
3 275 175 174
3 375 56 436
3 486 557 250
3 197 196 168
3 188 187 191
3 197 419 335
3 194 193 378
3 378 377 194
3 487 231 558
3 558 234 487
3 231 522 558
3 194 377 487
3 39 388 328
3 98 100 344
3 306 305 489
3 393 488 489
3 489 305 393
3 490 552 359
3 470 359 552
3 373 372 482
3 482 217 490
3 490 359 373
3 417 416 23
3 66 23 416
3 114 113 108
3 244 521 260
3 236 235 315
3 315 261 480
3 480 479 236
3 236 315 480
3 254 256 142
3 333 58 247
3 531 248 492
3 230 502 491
3 491 559 492
3 492 248 230
3 544 543 493
3 28 27 214
3 214 555 493
3 493 543 28
3 413 415 331
3 494 368 495
3 508 495 368
3 496 560 494
3 160 48 47
3 139 526 497
3 157 227 158
3 172 171 158
3 158 227 172
3 495 453 498
3 498 427 496
3 453 458 498
3 339 504 477
3 35 38 37
3 167 169 384
3 499 19 65
3 65 64 499
3 19 246 65
3 62 61 47
3 518 429 107
3 233 232 114
3 232 112 114
3 107 106 518
3 233 114 107
3 28 543 385
3 239 238 385
3 385 543 239
3 117 365 418
3 124 123 501
3 501 452 299
3 442 287 134
3 50 84 81
3 222 216 215
3 349 463 521
3 220 222 291
3 349 521 243
3 290 220 291
3 215 349 243
3 243 291 215
3 375 45 53
3 392 421 155
3 81 84 83
3 346 59 58
3 370 119 124
3 124 299 460
3 119 118 124
3 51 50 46
3 432 434 391
3 551 468 546
3 401 380 398
3 398 474 541
3 541 371 401
3 546 468 371
3 401 398 541
3 275 254 278
3 502 230 421
3 169 168 504
3 397 405 166
3 360 304 162
3 162 161 166
3 304 303 162
3 323 397 166
3 258 164 161
3 166 405 360
3 360 162 166
3 34 369 476
3 505 478 477
3 504 168 441
3 505 477 504
3 476 54 34
3 364 363 476
3 353 269 504
3 168 196 441
3 441 353 504
3 364 476 369
3 505 504 269
3 364 369 505
3 494 560 506
3 506 528 282
3 344 509 456
3 456 407 142
3 142 428 456
3 407 137 142
3 115 344 458
3 428 498 458
3 458 344 456
3 440 554 488
3 488 393 440
3 270 355 393
3 415 414 310
3 42 60 383
3 383 382 310
3 310 309 415
3 298 198 173
3 309 367 279
3 42 383 414
3 329 331 415
3 414 383 310
3 367 298 279
3 279 329 415
3 298 173 279
3 507 530 287
3 82 84 50
3 508 308 453
3 301 467 460
3 460 467 478
3 484 76 111
3 111 110 435
3 32 31 464
3 111 435 484
3 32 464 484
3 509 126 125
3 125 455 509
3 485 174 200
3 447 446 276
3 485 200 447
3 492 559 178
3 372 541 474
3 201 399 561
3 510 562 235
3 201 561 510
3 549 235 562
3 563 511 297
3 297 425 563
3 199 366 282
3 512 219 129
3 218 129 219
3 212 553 512
3 512 129 211
3 49 67 69
3 76 78 361
3 361 109 76
3 422 347 15
3 451 430 513
3 303 536 163
3 344 100 459
3 515 564 516
3 282 366 368
3 520 143 514
3 514 513 192
3 143 145 514
3 429 193 192
3 192 520 514
3 405 244 262
3 461 465 186
3 376 184 186
3 186 229 461
3 517 443 462
3 465 376 186
3 517 462 461
3 413 330 406
3 518 267 193
