ply
format ascii 1.0
comment Created by Blender 2.78 (sub 0) - www.blender.org, source file: ''
element vertex 57
property float x
property float y
property float z
property uchar red
property uchar green
property uchar blue
element face 110
property list uchar uint vertex_indices
end_header
-3.000000 -4.500000 20.500000 0 255 255
-3.500000 -4.000000 20.500000 0 255 255
-3.000000 -4.000000 20.000000 0 255 255
3.000000 4.000000 20.000000 0 255 255
-3.000000 4.500000 20.500000 0 255 255
3.000000 4.500000 20.500000 0 255 255
3.500000 -4.000000 20.500000 0 255 255
3.000000 -4.500000 20.500000 0 255 255
3.000000 -4.000000 20.000000 0 255 255
1.000000 -2.500000 22.500000 0 255 255
0.000000 -2.500000 23.500000 0 255 255
-1.000000 -2.500000 22.500000 0 255 255
-3.000000 4.000000 20.000000 0 255 255
-3.500000 4.000000 20.500000 0 255 255
-2.000000 -3.000000 22.000000 0 255 255
-3.000000 -3.000000 21.000000 0 255 255
-2.000000 -4.000000 21.000000 0 255 255
-1.000000 3.000000 22.000000 0 255 255
-2.000000 2.000000 22.000000 0 255 255
-1.000000 2.000000 23.000000 0 255 255
3.500000 4.000000 20.500000 0 255 255
-3.000000 -4.000000 21.000000 0 255 255
3.000000 -4.000000 21.000000 0 255 255
3.000000 -3.000000 21.000000 0 255 255
2.000000 -4.000000 21.000000 0 255 255
2.000000 -3.000000 22.000000 0 255 255
-3.000000 4.000000 21.000000 0 255 255
-3.000000 3.000000 21.000000 0 255 255
-2.000000 4.000000 21.000000 0 255 255
-2.000000 3.000000 22.000000 0 255 255
3.000000 4.000000 21.000000 0 255 255
2.000000 4.000000 21.000000 0 255 255
3.000000 3.000000 21.000000 0 255 255
2.000000 3.000000 22.000000 0 255 255
-1.000000 -3.000000 22.000000 0 255 255
-2.000000 -2.000000 22.000000 0 255 255
2.000000 -2.000000 22.000000 0 255 255
1.000000 -3.000000 22.000000 0 255 255
1.000000 3.000000 22.000000 0 255 255
2.000000 2.000000 22.000000 0 255 255
1.000000 2.000000 23.000000 0 255 255
-1.000000 1.000000 23.000000 0 255 255
0.000000 2.000000 23.000000 0 255 255
1.000000 1.000000 23.000000 0 255 255
-0.500000 1.000000 23.500000 0 255 255
0.000000 1.500000 23.500000 0 255 255
0.000000 1.500000 26.500000 0 255 255
0.500000 1.000000 23.500000 0 255 255
0.000000 -2.000000 27.000000 0 255 255
-0.500000 -2.000000 26.500000 0 255 255
0.000000 -2.500000 26.500000 0 255 255
0.500000 -2.000000 26.500000 0 255 255
-0.500000 1.000000 26.500000 0 255 255
0.000000 1.000000 27.000000 0 255 255
0.500000 1.000000 26.500000 0 255 255
0.500000 -2.000000 23.500000 0 255 255
-0.500000 -2.000000 23.500000 0 255 255
3 0 1 2
3 3 4 5
3 6 7 8
3 9 10 11
3 12 13 4
3 14 15 16
3 17 18 19
3 20 3 5
3 1 0 21
3 6 22 7
3 21 16 15
3 22 23 24
3 24 23 25
3 26 27 28
3 29 28 27
3 30 31 32
3 33 32 31
3 4 13 26
3 20 5 30
3 14 34 35
3 12 1 13
3 25 36 37
3 29 18 17
3 33 38 39
3 40 39 38
3 19 41 42
3 40 42 43
3 42 44 45
3 46 47 45
3 48 49 50
3 51 48 50
3 8 0 2
3 46 52 53
3 54 46 53
3 48 54 53
3 35 18 27
3 45 52 46
3 16 24 37
3 3 2 12
3 50 55 51
3 50 56 10
3 38 17 42
3 35 11 56
3 43 45 47
3 56 52 44
3 55 10 9
3 23 20 32
3 47 51 55
3 20 8 3
3 48 52 49
3 3 12 4
3 12 2 1
3 42 41 44
3 46 54 47
3 8 7 0
3 48 51 54
3 13 1 15
3 15 14 35
3 1 21 15
3 27 26 13
3 18 29 27
3 41 19 18
3 56 44 41
3 13 15 27
3 35 56 41
3 41 18 35
3 27 15 35
3 45 44 52
3 9 11 34
3 34 14 16
3 16 21 0
3 0 7 24
3 24 25 37
3 7 22 24
3 9 34 37
3 16 0 24
3 37 34 16
3 3 8 2
3 50 10 55
3 50 49 56
3 38 33 31
3 31 30 5
3 5 4 28
3 28 29 17
3 4 26 28
3 31 5 28
3 17 19 42
3 31 28 17
3 42 40 38
3 38 31 17
3 35 34 11
3 11 10 56
3 43 42 45
3 56 49 52
3 36 55 9
3 9 37 36
3 39 40 43
3 43 47 55
3 36 25 23
3 43 55 36
3 32 33 39
3 39 43 36
3 23 22 6
3 39 36 23
3 20 30 32
3 32 39 23
3 23 6 20
3 47 54 51
3 20 6 8
3 48 53 52
