ply
format ascii 1.0
comment Created by Blender 2.78 (sub 0) - www.blender.org, source file: ''
element vertex 565
property float x
property float y
property float z
property uchar red
property uchar green
property uchar blue
element face 928
property list uchar uint vertex_indices
end_header
-2.000000 -1.500000 0.500000 255 255 0
-2.500000 -1.000000 0.500000 255 255 0
-2.000000 -1.000000 0.000000 255 255 0
-1.500000 -1.000000 0.500000 255 255 0
2.000000 -1.500000 0.500000 255 255 0
1.500000 -1.000000 0.500000 255 255 0
2.000000 -1.000000 0.000000 255 255 0
2.500000 -1.000000 0.500000 255 255 0
-2.000000 1.000000 0.000000 255 255 0
-2.500000 1.000000 0.500000 255 255 0
-2.000000 1.500000 0.500000 255 255 0
-1.500000 1.000000 0.500000 255 255 0
2.000000 1.000000 0.000000 255 255 0
1.500000 1.000000 0.500000 255 255 0
2.000000 1.500000 0.500000 255 255 0
2.500000 1.000000 0.500000 255 255 0
-2.000000 -1.000000 1.000000 255 255 0
2.000000 -1.000000 1.000000 255 255 0
-2.500000 0.500000 1.000000 0 255 51
-2.500000 1.000000 1.500000 0 255 51
-2.500000 1.000000 1.000000 0 255 51
-1.500000 0.500000 1.000000 0 255 51
-1.500000 1.000000 1.000000 0 255 51
-1.500000 1.000000 1.500000 0 255 51
1.500000 0.500000 1.000000 0 255 51
1.500000 1.000000 1.500000 0 255 51
1.500000 1.000000 1.000000 0 255 51
0.000000 -3.500000 18.500000 255 204 102
1.000000 -3.500000 19.500000 255 204 102
-1.000000 -3.500000 19.500000 255 204 102
2.500000 0.500000 1.000000 0 255 51
2.500000 1.000000 1.000000 0 255 51
2.500000 1.000000 1.500000 0 255 51
-6.000000 -2.500000 4.500000 255 204 102
-6.500000 -2.000000 4.500000 255 204 102
-6.000000 -2.000000 4.000000 255 204 102
-4.500000 -2.000000 4.500000 255 204 102
-5.000000 -2.500000 4.500000 255 204 102
-5.000000 -2.000000 4.000000 255 204 102
5.000000 -2.500000 4.500000 255 204 102
4.500000 -2.000000 4.500000 255 204 102
5.000000 -2.000000 4.000000 255 204 102
6.500000 -2.000000 4.500000 255 204 102
6.000000 -2.500000 4.500000 255 204 102
6.000000 -2.000000 4.000000 255 204 102
-6.000000 -1.000000 4.000000 255 204 102
-1.000000 -1.500000 4.500000 0 255 51
-1.500000 -1.000000 4.500000 0 255 51
-1.000000 -1.000000 4.000000 0 255 51
1.500000 -1.000000 4.500000 0 255 51
1.000000 -1.500000 4.500000 0 255 51
1.000000 -1.000000 4.000000 0 255 51
6.000000 -1.000000 4.000000 255 204 102
-6.000000 0.000000 4.000000 255 204 102
-6.500000 0.000000 4.500000 255 204 102
-6.000000 0.500000 4.500000 255 204 102
-5.500000 0.000000 4.500000 255 204 102
-1.500000 -2.000000 20.500000 255 204 102
-0.750000 2.000000 21.250000 255 204 102
-1.500000 2.000000 20.500000 255 204 102
6.000000 0.000000 4.000000 255 204 102
5.500000 0.000000 4.500000 255 204 102
6.000000 0.500000 4.500000 255 204 102
6.500000 0.000000 4.500000 255 204 102
-1.500000 0.000000 4.500000 0 255 51
-1.500000 0.000000 5.500000 0 255 51
-1.000000 1.000000 5.000000 0 255 51
-2.000000 0.500000 5.500000 0 255 51
-2.000000 0.500000 4.500000 0 255 51
-1.500000 1.000000 4.500000 0 255 51
1.500000 0.000000 4.500000 0 255 51
1.000000 1.000000 5.000000 0 255 51
1.500000 0.000000 5.500000 0 255 51
2.000000 0.500000 5.500000 0 255 51
2.000000 0.500000 4.500000 0 255 51
1.500000 1.000000 4.500000 0 255 51
-1.000000 2.000000 5.000000 0 255 51
-1.500000 2.000000 5.500000 0 255 51
1.000000 2.000000 5.000000 0 255 51
1.500000 2.000000 5.500000 0 255 51
-1.000000 2.500000 5.500000 0 255 51
1.000000 2.500000 5.500000 0 255 51
-1.000000 -1.000000 6.000000 0 255 51
-1.500000 -1.000000 5.500000 0 255 51
-1.000000 -1.500000 5.500000 0 255 51
1.500000 -1.000000 5.500000 0 255 51
1.000000 -1.000000 6.000000 0 255 51
1.000000 -1.500000 5.500000 0 255 51
-5.000000 1.000000 6.000000 255 204 102
-5.000000 0.000000 6.000000 255 204 102
-6.000000 1.000000 6.000000 255 204 102
-1.500000 0.500000 6.000000 0 255 51
-2.000000 0.500000 6.000000 0 255 51
-1.500000 0.500000 6.000000 255 51 51
-1.000000 0.250000 6.250000 255 51 51
-1.000000 0.500000 6.500000 255 51 51
1.500000 0.500000 6.000000 0 255 51
2.000000 0.500000 6.000000 0 255 51
1.500000 0.500000 6.000000 255 51 51
1.000000 0.500000 6.500000 255 51 51
1.000000 0.250000 6.250000 255 51 51
5.000000 1.000000 6.000000 255 204 102
6.000000 1.000000 6.000000 255 204 102
5.000000 0.000000 6.000000 255 204 102
-4.500000 1.000000 6.500000 255 204 102
-5.000000 1.500000 6.500000 255 204 102
-1.500000 1.500000 6.000000 0 255 51
-2.000000 1.500000 5.500000 0 255 51
-2.000000 1.500000 6.000000 0 255 51
-1.500000 1.500000 6.000000 255 51 51
-1.000000 1.500000 6.500000 255 51 51
-1.000000 1.750000 6.250000 255 51 51
1.500000 1.500000 6.000000 0 255 51
2.000000 1.500000 6.000000 0 255 51
2.000000 1.500000 5.500000 0 255 51
1.500000 1.500000 6.000000 255 51 51
1.000000 1.750000 6.250000 255 51 51
1.000000 1.500000 6.500000 255 51 51
4.500000 1.000000 6.500000 255 204 102
5.000000 1.500000 6.500000 255 204 102
-3.500000 -2.000000 6.500000 255 204 102
-4.000000 -2.000000 7.000000 255 204 102
-4.000000 -2.500000 6.500000 255 204 102
4.000000 -2.000000 7.000000 255 204 102
3.500000 -2.000000 6.500000 255 204 102
4.000000 -2.500000 6.500000 255 204 102
-4.000000 -1.000000 7.000000 255 204 102
-5.000000 -2.000000 7.000000 255 204 102
5.000000 -2.000000 7.000000 255 204 102
4.000000 -1.000000 7.000000 255 204 102
-2.000000 -2.500000 16.500000 255 204 102
0.000000 -2.500000 16.500000 255 204 102
-1.000000 -2.500000 17.500000 255 204 102
1.000000 1.500000 15.500000 255 204 102
2.500000 0.000000 14.500000 255 204 102
1.000000 1.500000 14.500000 255 204 102
0.500000 -2.500000 21.000000 255 255 102
0.000000 -2.500000 21.500000 255 255 102
-0.500000 -2.500000 21.000000 255 255 102
2.000000 0.500000 1.500000 0 255 51
1.000000 -0.500000 10.500000 255 51 51
1.000000 -1.500000 11.500000 255 51 51
0.000000 -0.500000 11.500000 255 51 51
5.000000 -1.000000 11.000000 255 204 102
4.500000 -1.000000 10.500000 255 204 102
5.000000 -1.500000 10.500000 255 204 102
-4.000000 -0.500000 11.500000 255 204 102
-5.000000 -0.500000 11.500000 255 204 102
-4.000000 0.000000 11.000000 255 204 102
4.500000 0.000000 10.500000 255 204 102
-3.500000 2.500000 11.000000 255 51 51
-3.250000 3.000000 10.750000 255 51 51
-3.000000 3.000000 11.000000 255 51 51
-3.500000 2.500000 11.000000 255 204 102
-3.750000 2.000000 10.750000 255 204 102
-4.000000 2.000000 11.000000 255 204 102
3.500000 2.500000 11.000000 255 51 51
3.000000 3.000000 11.000000 255 51 51
3.250000 3.000000 10.750000 255 51 51
3.500000 2.500000 11.000000 255 204 102
4.000000 2.000000 11.000000 255 204 102
3.750000 2.000000 10.750000 255 204 102
-1.000000 -1.500000 11.500000 255 51 51
-1.000000 -0.500000 10.500000 255 51 51
-2.500000 2.000000 9.500000 255 51 51
-3.750000 0.000000 10.750000 255 51 51
-3.750000 2.000000 10.750000 255 51 51
-0.500000 -2.000000 25.500000 255 255 102
-0.500000 2.000000 21.500000 255 255 102
-0.500000 -2.000000 21.500000 255 255 102
-1.000000 0.000000 4.000000 0 255 51
-0.500000 -1.500000 14.000000 255 204 102
-1.000000 -2.000000 14.000000 255 204 102
-1.000000 -1.750000 13.750000 255 204 102
0.500000 -1.500000 14.000000 255 204 102
1.000000 -1.750000 13.750000 255 204 102
1.000000 -2.000000 14.000000 255 204 102
-6.000000 0.000000 14.000000 255 204 102
-6.500000 0.000000 13.500000 255 204 102
-6.000000 -0.500000 13.500000 255 204 102
0.500000 2.500000 21.000000 255 255 102
-0.500000 2.500000 21.000000 255 255 102
0.000000 2.500000 21.500000 255 255 102
6.500000 0.000000 13.500000 255 204 102
6.000000 0.000000 14.000000 255 204 102
6.000000 -0.500000 13.500000 255 204 102
-2.500000 0.500000 14.000000 255 51 51
-3.000000 0.000000 14.000000 255 51 51
-2.750000 0.000000 14.250000 255 51 51
-1.500000 1.500000 14.000000 255 51 51
-1.833330 0.833333 14.333300 255 51 51
2.500000 0.500000 14.000000 255 51 51
2.750000 0.000000 14.250000 255 51 51
3.000000 0.000000 14.000000 255 51 51
2.500000 1.000000 8.500000 255 51 51
2.500000 2.000000 9.500000 255 51 51
2.500000 0.000000 9.500000 255 51 51
-1.000000 1.750000 14.250000 255 51 51
-1.000000 2.000000 14.000000 255 51 51
1.500000 1.500000 14.000000 255 51 51
1.000000 2.000000 14.000000 255 51 51
1.000000 1.750000 14.250000 255 51 51
-2.500000 1.000000 8.500000 255 51 51
-2.500000 0.000000 9.500000 255 51 51
-6.000000 2.500000 13.500000 255 204 102
-6.500000 2.000000 13.500000 255 204 102
-6.000000 2.000000 14.000000 255 204 102
6.500000 2.000000 13.500000 255 204 102
6.000000 2.500000 13.500000 255 204 102
6.000000 2.000000 14.000000 255 204 102
-1.000000 1.500000 14.500000 255 204 102
-1.000000 1.500000 15.500000 255 204 102
0.000000 1.500000 14.500000 255 204 102
1.000000 0.000000 4.000000 0 255 51
0.000000 -4.500000 17.500000 255 204 102
-0.500000 -4.000000 17.500000 255 204 102
0.000000 -4.000000 17.000000 255 204 102
0.500000 -4.000000 17.500000 255 204 102
-0.500000 -3.000000 17.500000 255 204 102
-0.500000 -3.000000 18.500000 255 204 102
0.500000 -3.000000 17.500000 255 204 102
0.500000 -3.000000 18.500000 255 204 102
2.000000 -2.500000 16.500000 255 204 102
1.000000 -2.500000 17.500000 255 204 102
-1.500000 -1.500000 18.000000 255 204 102
-1.500000 -2.000000 17.500000 255 204 102
-1.500000 -2.000000 18.000000 255 204 102
1.500000 -1.500000 18.000000 255 204 102
1.500000 -2.000000 18.000000 255 204 102
1.500000 -2.000000 17.500000 255 204 102
-3.000000 -1.500000 11.500000 255 51 51
-3.750000 -0.750000 13.500000 255 51 51
-3.750000 -0.750000 11.500000 255 51 51
0.500000 2.000000 21.500000 255 255 102
0.500000 -2.000000 25.500000 255 255 102
0.500000 -2.000000 21.500000 255 255 102
1.833330 0.833333 14.333300 255 51 51
0.000000 -2.000000 26.000000 255 255 102
0.000000 -2.500000 25.500000 255 255 102
2.500000 1.000000 6.000000 255 51 51
2.000000 0.500000 8.500000 255 51 51
2.000000 0.500000 6.000000 255 51 51
5.000000 1.500000 7.500000 255 204 102
6.000000 3.500000 9.500000 255 204 102
6.000000 1.500000 7.500000 255 204 102
3.750000 0.000000 10.750000 255 51 51
3.750000 2.000000 10.750000 255 51 51
3.000000 3.500000 11.500000 255 51 51
0.750000 -2.000000 21.250000 255 204 102
1.500000 2.000000 20.500000 255 204 102
0.750000 2.000000 21.250000 255 204 102
4.500000 2.000000 10.500000 255 204 102
4.000000 0.000000 11.000000 255 204 102
2.500000 0.000000 0.500000 255 255 0
2.000000 0.000000 1.000000 255 255 0
1.000000 -4.500000 14.500000 255 204 102
2.500000 -3.000000 15.500000 255 204 102
1.000000 -4.500000 15.500000 255 204 102
3.000000 3.500000 12.500000 255 51 51
-3.000000 3.500000 11.500000 255 51 51
-3.000000 3.500000 12.500000 255 51 51
-3.750000 2.750000 13.500000 255 51 51
-3.750000 2.750000 12.500000 255 51 51
1.500000 0.000000 0.500000 255 255 0
-3.500000 -1.000000 6.500000 255 204 102
-3.000000 -1.000000 14.000000 255 51 51
-2.750000 -1.000000 14.250000 255 51 51
1.500000 -1.500000 19.000000 204 255 255
1.500000 -2.000000 18.500000 204 255 255
1.500000 -1.500000 18.000000 204 255 255
3.750000 -0.750000 11.500000 255 51 51
3.000000 -1.500000 13.500000 255 51 51
3.000000 -1.500000 11.500000 255 51 51
1.000000 -4.000000 16.000000 255 204 102
-1.000000 -4.500000 15.500000 255 204 102
-4.500000 -2.000000 5.500000 255 204 102
-4.000000 -2.000000 6.000000 255 204 102
3.750000 2.750000 12.500000 255 51 51
3.000000 3.500000 13.500000 255 51 51
3.750000 2.750000 13.500000 255 51 51
-6.000000 0.500000 5.500000 255 204 102
4.000000 2.000000 14.000000 255 204 102
4.000000 2.500000 13.500000 255 204 102
2.000000 -3.000000 16.000000 255 204 102
5.500000 -1.000000 4.500000 255 204 102
0.000000 -3.000000 17.000000 255 204 102
-3.000000 3.000000 14.000000 255 51 51
3.000000 3.000000 14.000000 255 51 51
1.000000 1.750000 6.250000 0 255 51
-1.000000 1.750000 6.250000 0 255 51
-6.500000 -2.000000 6.500000 255 204 102
1.000000 2.500000 20.500000 255 204 102
3.500000 -1.000000 6.500000 255 204 102
6.000000 0.500000 5.500000 255 204 102
5.500000 0.000000 5.500000 255 204 102
3.500000 3.500000 11.000000 255 51 51
-5.500000 -1.000000 5.500000 255 204 102
-2.500000 -1.000000 17.500000 255 204 102
-2.500000 -3.000000 15.500000 255 204 102
-2.000000 0.000000 1.000000 255 255 0
-1.500000 0.500000 1.000000 255 255 0
-2.000000 0.250000 1.250000 255 255 0
2.000000 1.500000 6.000000 255 51 51
-1.000000 0.000000 6.000000 0 255 51
4.500000 -2.000000 5.500000 255 204 102
5.000000 -1.000000 6.000000 255 204 102
5.500000 -1.000000 5.500000 255 204 102
-2.500000 -1.500000 14.000000 255 51 51
-3.000000 -1.500000 13.500000 255 51 51
-1.500000 -1.000000 18.500000 255 204 102
-2.500000 2.000000 17.500000 255 204 102
-2.750000 -1.000000 14.250000 255 204 102
-2.500000 0.000000 14.500000 255 204 102
-2.750000 0.000000 14.250000 255 204 102
-6.000000 -0.500000 8.500000 255 204 102
-6.000000 -2.500000 6.500000 255 204 102
-2.000000 0.500000 6.000000 255 51 51
-2.000000 0.500000 8.500000 255 51 51
5.000000 -0.500000 8.500000 255 204 102
4.500000 0.000000 8.500000 255 204 102
4.500000 -1.000000 7.500000 255 204 102
-0.750000 -2.750000 18.500000 204 255 255
-1.500000 -2.000000 18.000000 204 255 255
-0.750000 -2.750000 18.000000 204 255 255
-2.500000 0.000000 0.500000 255 255 0
5.000000 -2.500000 5.500000 255 204 102
6.000000 -2.500000 6.500000 255 204 102
3.750000 -0.750000 13.500000 255 51 51
3.000000 -1.000000 14.000000 255 51 51
-4.500000 2.000000 10.500000 255 204 102
1.500000 0.500000 1.000000 255 255 0
2.000000 -2.000000 14.000000 255 204 102
2.500000 -3.000000 14.500000 255 204 102
2.000000 -3.000000 14.000000 255 204 102
5.000000 3.500000 9.500000 255 204 102
4.500000 3.000000 9.500000 255 204 102
3.500000 3.500000 11.000000 255 204 102
-5.000000 -0.500000 8.500000 255 204 102
-4.500000 -1.000000 9.500000 255 204 102
-5.000000 -1.500000 9.500000 255 204 102
-6.500000 -1.000000 9.500000 255 204 102
-6.500000 0.000000 8.500000 255 204 102
-1.500000 2.000000 18.500000 255 204 102
-1.000000 2.500000 20.500000 255 204 102
-1.000000 2.500000 18.500000 255 204 102
-5.000000 -2.500000 5.500000 255 204 102
-2.000000 -0.500000 9.500000 255 51 51
2.000000 -0.500000 9.500000 255 51 51
2.750000 -1.000000 14.250000 255 51 51
-4.500000 -1.000000 10.500000 255 204 102
-5.000000 -1.500000 10.500000 255 204 102
0.750000 -2.750000 18.500000 204 255 255
1.500000 -2.000000 18.000000 204 255 255
6.000000 -0.500000 11.500000 255 204 102
6.500000 -1.000000 10.500000 255 204 102
6.500000 0.000000 11.500000 255 204 102
4.000000 2.500000 12.500000 255 204 102
6.000000 2.500000 12.500000 255 204 102
-1.000000 -4.500000 14.500000 255 204 102
1.000000 -4.000000 14.000000 255 204 102
-2.000000 0.500000 1.500000 0 255 51
-6.000000 1.500000 6.500000 255 204 102
0.000000 -0.500000 13.500000 255 51 51
-1.000000 -1.500000 13.500000 255 51 51
-2.000000 1.500000 1.000000 255 255 0
-2.500000 1.000000 1.000000 255 255 0
-3.000000 3.500000 13.500000 255 51 51
0.000000 -1.000000 14.000000 255 204 102
-0.166667 -0.833333 13.666700 255 204 102
0.000000 -0.750000 13.750000 255 204 102
2.000000 1.500000 4.500000 0 255 51
2.500000 1.000000 6.000000 0 255 51
-3.000000 -0.500000 10.500000 255 51 51
4.000000 -0.500000 13.500000 255 204 102
5.000000 -1.500000 9.500000 255 204 102
-3.500000 3.500000 11.000000 255 51 51
-6.500000 0.000000 11.500000 255 204 102
-6.500000 3.000000 11.500000 255 204 102
-6.000000 2.500000 12.500000 255 204 102
-6.000000 3.500000 11.500000 255 204 102
6.000000 -1.500000 10.500000 255 204 102
2.750000 0.000000 14.250000 255 204 102
2.500000 -1.000000 14.500000 255 204 102
2.750000 -1.000000 14.250000 255 204 102
-3.750000 0.000000 10.750000 255 204 102
6.000000 3.500000 11.500000 255 204 102
-1.500000 1.000000 1.000000 255 255 0
3.750000 0.000000 10.750000 255 204 102
-4.500000 0.000000 6.500000 255 204 102
-1.000000 0.250000 6.250000 0 255 51
6.000000 -1.500000 9.500000 255 204 102
-6.000000 -1.500000 10.500000 255 204 102
4.500000 0.000000 6.500000 255 204 102
2.500000 2.000000 17.500000 255 204 102
2.000000 2.500000 17.500000 255 204 102
4.000000 -0.500000 11.500000 255 204 102
3.500000 -0.500000 11.000000 255 204 102
4.000000 -2.000000 6.000000 255 204 102
1.000000 -1.500000 13.500000 255 51 51
-4.000000 2.500000 13.500000 255 204 102
-4.000000 2.000000 14.000000 255 204 102
-6.000000 1.500000 7.500000 255 204 102
-6.500000 3.000000 9.500000 255 204 102
-6.000000 3.500000 9.500000 255 204 102
3.833330 2.833330 12.333300 255 204 102
4.000000 3.500000 11.500000 255 204 102
-1.500000 0.000000 0.500000 255 255 0
-4.000000 2.500000 12.500000 255 204 102
-3.833330 2.833330 12.333300 255 204 102
-4.000000 3.500000 11.500000 255 204 102
-5.000000 -1.000000 6.000000 255 204 102
-4.000000 -1.000000 6.000000 255 204 102
2.500000 -1.500000 14.000000 255 204 102
-4.000000 -0.500000 13.500000 255 204 102
3.750000 -0.750000 11.500000 255 204 102
3.750000 -0.750000 13.500000 255 204 102
-5.500000 -1.000000 4.500000 255 204 102
6.500000 3.000000 11.500000 255 204 102
-6.500000 2.000000 12.500000 255 204 102
2.500000 0.500000 1.000000 255 255 0
2.000000 0.250000 1.250000 255 255 0
6.000000 -0.500000 8.500000 255 204 102
-5.500000 0.000000 5.500000 255 204 102
2.500000 -1.000000 17.500000 255 204 102
-2.000000 2.500000 17.500000 255 204 102
4.000000 0.000000 14.000000 255 204 102
3.500000 -0.500000 14.000000 255 204 102
-5.000000 1.500000 7.500000 255 204 102
1.500000 -1.000000 18.500000 255 204 102
1.500000 2.000000 18.500000 255 204 102
6.000000 1.500000 6.500000 255 204 102
1.500000 -2.500000 19.000000 204 255 255
-6.000000 -1.500000 9.500000 255 204 102
-6.500000 1.000000 6.500000 255 204 102
-3.500000 -0.500000 14.000000 255 204 102
-4.000000 0.000000 14.000000 255 204 102
-1.000000 -4.000000 14.000000 255 204 102
-2.500000 -3.000000 14.500000 255 204 102
-2.000000 -3.000000 14.000000 255 204 102
3.750000 2.750000 13.500000 255 204 102
3.750000 2.750000 12.500000 255 204 102
-2.000000 1.500000 4.500000 0 255 51
-2.000000 1.500000 1.000000 0 255 51
0.750000 -2.000000 21.250000 255 255 102
-0.500000 -2.500000 21.000000 255 204 102
1.000000 -2.500000 20.500000 255 204 102
0.500000 -2.500000 21.000000 255 204 102
-2.000000 0.250000 1.250000 0 255 51
6.500000 3.000000 9.500000 255 204 102
3.250000 3.000000 10.750000 255 204 102
4.500000 -1.000000 9.500000 255 204 102
4.000000 -1.000000 6.000000 255 204 102
-0.750000 2.000000 21.250000 255 255 102
6.500000 1.000000 6.500000 255 204 102
-3.750000 -0.750000 13.500000 255 204 102
-3.750000 -0.750000 11.500000 255 204 102
-2.500000 0.500000 1.000000 255 255 0
0.750000 -2.750000 18.000000 255 204 102
-2.000000 -2.000000 14.000000 255 204 102
3.500000 3.500000 12.000000 255 51 51
-2.500000 -1.750000 13.750000 255 51 51
-1.000000 -1.750000 13.750000 255 51 51
6.500000 1.000000 7.500000 255 204 102
0.750000 2.000000 21.250000 255 255 102
6.500000 2.000000 12.500000 255 204 102
-1.500000 -3.000000 19.500000 255 204 102
-0.833333 -2.833330 18.666700 255 204 102
2.500000 1.000000 1.000000 255 255 0
2.000000 1.500000 1.000000 255 255 0
2.000000 0.250000 1.250000 0 255 51
-3.500000 -0.500000 11.000000 255 204 102
-6.000000 -0.500000 11.500000 255 204 102
1.500000 1.000000 1.000000 255 255 0
-4.500000 -1.000000 7.500000 255 204 102
-3.500000 3.500000 11.000000 255 204 102
-3.250000 3.000000 10.750000 255 204 102
-4.500000 3.000000 9.500000 255 204 102
3.000000 -0.500000 10.500000 255 51 51
-2.000000 1.500000 6.000000 255 51 51
-2.500000 1.000000 6.000000 255 51 51
1.000000 1.750000 14.250000 255 204 102
-1.000000 1.750000 14.250000 255 204 102
0.833333 -2.833330 18.666700 255 204 102
-6.500000 -1.000000 10.500000 255 204 102
6.500000 -2.000000 6.500000 255 204 102
6.500000 0.000000 8.500000 255 204 102
1.000000 2.500000 18.500000 255 204 102
-1.500000 -2.000000 18.500000 204 255 255
-1.500000 -1.500000 18.000000 204 255 255
-2.500000 -1.500000 14.000000 255 204 102
-2.500000 -1.000000 14.500000 255 204 102
2.000000 1.500000 1.000000 0 255 51
1.000000 0.000000 6.000000 0 255 51
-3.750000 2.750000 12.500000 255 204 102
-3.750000 2.750000 13.500000 255 204 102
-1.000000 -2.500000 20.500000 255 204 102
2.000000 2.500000 9.500000 255 51 51
3.000000 2.500000 10.500000 255 51 51
0.500000 -1.500000 14.000000 255 51 51
0.166667 -0.833333 13.666700 255 51 51
4.500000 1.000000 7.500000 255 204 102
-2.000000 2.500000 9.500000 255 51 51
-3.500000 3.500000 12.000000 255 51 51
2.500000 -1.750000 13.750000 255 51 51
3.500000 2.500000 14.000000 255 204 102
-1.500000 -1.500000 19.000000 255 204 102
2.500000 -1.750000 13.750000 255 204 102
1.833330 0.833333 14.333300 255 204 102
-2.000000 1.500000 8.500000 255 51 51
2.500000 0.000000 15.500000 255 204 102
-6.500000 1.000000 7.500000 255 204 102
-1.500000 1.500000 14.000000 255 204 102
-1.833330 0.833333 14.333300 255 204 102
0.000000 2.500000 15.500000 255 204 102
-3.500000 2.500000 14.000000 255 204 102
-2.500000 1.000000 6.000000 0 255 51
6.500000 -1.000000 9.500000 255 204 102
-0.750000 -2.000000 21.250000 255 255 102
-0.166667 -0.833333 13.666700 255 51 51
1.500000 -2.000000 20.500000 255 204 102
1.500000 -1.500000 19.000000 255 204 102
-4.500000 1.000000 7.500000 255 204 102
-4.500000 0.000000 8.500000 255 204 102
-0.750000 -2.750000 18.000000 255 204 102
-5.000000 3.500000 9.500000 255 204 102
0.166667 -0.833333 13.666700 255 204 102
-1.500000 -2.500000 19.000000 204 255 255
-0.833333 -2.833330 18.666700 204 255 255
-1.000000 -4.000000 16.000000 255 204 102
-2.500000 0.000000 15.500000 255 204 102
-3.000000 2.500000 10.500000 255 51 51
1.000000 0.250000 6.250000 0 255 51
3.500000 -0.500000 11.000000 255 51 51
-0.750000 -2.000000 21.250000 255 204 102
-2.000000 -3.000000 16.000000 255 204 102
0.500000 2.500000 21.000000 255 204 102
2.000000 1.500000 8.500000 255 51 51
-3.500000 -0.500000 14.000000 255 51 51
2.500000 -1.500000 14.000000 255 51 51
3.500000 -0.500000 14.000000 255 51 51
0.750000 -2.750000 18.000000 204 255 255
-3.500000 2.500000 14.000000 255 51 51
-3.500000 -0.500000 11.000000 255 51 51
-0.500000 2.500000 21.000000 255 204 102
-6.500000 0.000000 5.500000 255 204 102
3.500000 3.500000 12.000000 255 204 102
-3.500000 3.500000 12.000000 255 204 102
0.833333 -2.833330 18.666700 204 255 255
6.500000 0.000000 5.500000 255 204 102
0.750000 -2.750000 18.500000 255 204 102
-2.500000 -1.750000 13.750000 255 204 102
3.833330 2.833330 12.333300 255 51 51
-1.500000 -2.500000 19.000000 255 204 102
-0.750000 -2.750000 18.500000 255 204 102
1.500000 -2.500000 19.000000 255 204 102
1.500000 -3.000000 19.500000 255 204 102
3.500000 2.500000 14.000000 255 51 51
-1.500000 -1.500000 19.000000 204 255 255
1.000000 -1.750000 13.750000 255 51 51
0.000000 -0.750000 13.750000 255 51 51
-3.833330 2.833330 12.333300 255 51 51
1.500000 1.500000 14.000000 255 204 102
2.500000 0.500000 14.000000 255 204 102
-2.500000 0.500000 14.000000 255 204 102
-0.500000 -1.500000 14.000000 255 51 51
3 0 1 2
3 3 0 2
3 4 5 6
3 7 4 6
3 8 9 10
3 11 8 10
3 12 13 14
3 15 12 14
3 1 0 16
3 16 0 3
3 17 5 4
3 7 17 4
3 18 19 20
3 21 22 23
3 24 25 26
3 27 28 29
3 30 31 32
3 33 34 35
3 36 37 38
3 39 40 41
3 42 43 44
3 35 45 38
3 46 47 48
3 49 50 51
3 44 41 52
3 53 54 55
3 56 53 55
3 57 58 59
3 60 61 62
3 63 60 62
3 64 65 66
3 65 67 66
3 67 68 66
3 66 68 69
3 70 71 72
3 72 71 73
3 73 71 74
3 71 75 74
3 76 66 77
3 78 79 71
3 76 77 80
3 79 78 81
3 82 83 84
3 85 86 87
3 88 89 90
3 91 92 67
3 93 94 95
3 96 73 97
3 98 99 100
3 101 102 103
3 104 88 105
3 106 107 108
3 109 110 111
3 112 113 114
3 115 116 117
3 101 118 119
3 120 121 122
3 123 124 125
3 121 126 127
3 123 128 129
3 130 131 132
3 133 134 135
3 136 137 138
3 74 25 139
3 140 141 142
3 143 144 145
3 146 147 148
3 144 143 149
3 150 151 152
3 153 154 155
3 156 157 158
3 159 160 161
3 162 163 142
3 164 165 166
3 167 168 169
3 64 66 170
3 171 172 173
3 174 175 176
3 177 178 179
3 180 181 182
3 183 184 185
3 186 187 188
3 189 186 190
3 191 192 193
3 194 195 196
3 189 197 198
3 199 200 201
3 164 202 203
3 204 205 206
3 207 208 209
3 210 211 212
3 135 212 133
3 71 70 213
3 214 215 216
3 217 214 216
3 218 215 219
3 220 221 217
3 131 222 223
3 224 225 226
3 227 228 229
3 230 231 232
3 233 234 235
3 199 236 191
3 237 167 238
3 234 237 238
3 239 240 241
3 242 243 244
3 245 195 246
3 152 247 157
3 248 249 250
3 251 252 160
3 17 253 254
3 255 256 257
3 258 259 260
3 261 260 262
3 5 263 6
3 121 264 126
3 188 265 266
3 267 268 269
3 72 73 96
3 270 271 272
3 273 274 257
3 263 17 254
3 44 52 42
3 275 276 122
3 277 278 279
3 280 56 55
3 281 208 282
3 222 131 283
3 284 60 52
3 132 285 218
3 111 117 116
3 278 286 287
3 288 80 289
3 33 290 34
3 291 250 249
3 292 123 129
3 103 293 294
3 157 295 158
3 36 296 275
3 130 297 298
3 299 300 301
3 302 194 239
3 65 82 303
3 304 305 306
3 307 265 308
3 309 310 297
3 118 242 119
3 311 312 313
3 314 290 315
3 202 316 317
3 318 319 320
3 321 322 323
3 43 41 44
3 2 1 324
3 325 43 326
3 271 327 328
3 148 329 155
3 312 211 210
3 47 170 48
3 254 330 263
3 331 332 333
3 213 49 51
3 334 335 336
3 337 338 339
3 314 340 341
3 342 343 344
3 37 275 345
3 46 51 50
3 346 240 347
3 348 193 192
3 304 39 325
3 339 349 350
3 351 352 268
3 353 354 355
3 356 208 357
3 358 359 255
3 360 69 68
3 88 361 105
3 162 362 363
3 364 9 365
3 27 215 214
3 261 286 366
3 367 368 369
3 61 293 62
3 370 371 32
3 372 203 346
3 184 373 185
3 144 374 145
3 152 375 259
3 376 179 178
3 377 378 379
3 353 143 380
3 139 30 32
3 58 343 59
3 84 50 87
3 381 382 383
3 148 154 384
3 385 356 357
3 386 10 364
3 161 252 387
3 88 388 89
3 303 389 91
3 390 354 380
3 83 46 84
3 391 339 350
3 392 101 103
3 89 280 90
3 50 85 87
3 393 133 394
3 395 396 252
3 125 397 304
3 362 141 398
3 399 206 400
3 129 392 292
3 54 280 55
3 401 402 403
3 404 356 405
3 8 406 2
3 12 253 6
3 54 45 34
3 66 213 170
3 407 408 409
3 410 411 276
3 147 349 148
3 411 388 264
3 42 326 43
3 412 382 331
3 147 413 179
3 414 373 415
3 416 38 45
3 357 417 385
3 418 204 378
3 353 183 185
3 254 419 420
3 374 421 390
3 360 21 23
3 422 416 56
3 353 373 395
3 27 217 221
3 167 137 238
3 423 229 222
3 342 424 310
3 72 49 70
3 425 209 281
3 373 426 415
3 427 104 105
3 428 393 429
3 102 119 430
3 378 399 407
3 431 351 268
3 294 305 103
3 314 339 432
3 433 401 361
3 413 434 435
3 100 95 94
3 436 437 438
3 439 356 440
3 441 442 19
3 293 63 62
3 361 427 105
3 235 136 443
3 66 78 71
3 32 371 74
3 444 445 446
3 360 18 447
3 385 448 243
3 449 251 159
3 318 450 319
3 71 370 75
3 285 217 216
3 451 305 397
3 181 452 168
3 169 138 137
3 244 453 430
3 454 146 455
3 145 390 380
3 215 285 216
3 33 37 345
3 299 456 324
3 37 35 38
3 220 457 221
3 458 173 172
3 277 459 258
3 184 207 209
3 460 363 461
3 244 448 462
3 235 463 233
3 437 458 438
3 149 395 252
3 208 464 357
3 465 466 29
3 419 15 467
3 284 41 40
3 86 84 87
3 467 14 468
3 139 24 469
3 470 146 148
3 471 350 147
3 468 13 472
3 178 206 205
3 127 473 337
3 377 403 402
3 275 410 276
3 474 475 476
3 477 141 140
3 53 416 45
3 202 478 479
3 480 481 212
3 482 28 221
3 287 279 278
3 471 483 391
3 411 120 276
3 286 198 200
3 421 484 485
3 308 162 363
3 119 244 430
3 102 453 293
3 163 230 372
3 249 486 291
3 289 77 106
3 16 406 299
3 127 122 121
3 487 488 322
3 489 490 311
3 124 451 397
3 491 26 25
3 201 198 197
3 407 379 378
3 86 72 492
3 483 432 391
3 493 399 494
3 388 126 264
3 347 140 163
3 433 361 90
3 441 66 69
3 495 28 445
3 195 496 497
3 285 223 220
3 398 498 499
3 500 319 251
3 501 497 496
3 176 359 172
3 300 11 386
3 421 318 128
3 392 451 292
3 410 422 89
3 465 29 495
3 274 255 257
3 502 262 260
3 48 213 51
3 503 398 271
3 112 79 288
3 248 446 445
3 282 504 281
3 309 505 59
3 486 343 291
3 331 175 506
3 134 507 135
3 508 117 110
3 382 509 423
3 40 306 284
3 303 86 492
3 456 9 324
3 341 402 510
3 210 511 512
3 394 429 393
3 513 211 424
3 385 243 334
3 400 177 435
3 399 514 494
3 359 332 255
3 67 515 68
3 421 516 390
3 80 78 76
3 169 452 517
3 518 363 362
3 240 95 99
3 519 520 249
3 330 13 263
3 284 294 61
3 521 522 388
3 23 22 442
3 182 234 233
3 218 523 132
3 141 271 398
3 409 474 524
3 525 367 369
3 526 321 527
3 448 355 485
3 283 528 273
3 137 234 238
3 297 529 490
3 329 475 153
3 47 65 64
3 524 401 403
3 496 508 501
3 166 150 530
3 389 492 531
3 413 177 179
3 324 16 299
3 245 532 477
3 437 274 298
3 57 533 58
3 133 509 134
3 74 75 25
3 164 203 165
3 230 308 231
3 239 194 240
3 242 334 243
3 245 196 195
3 497 530 152
3 152 259 247
3 157 497 152
3 248 519 249
3 251 149 252
3 17 7 253
3 255 332 256
3 258 459 247
3 459 295 247
3 366 278 258
3 375 502 259
3 260 366 258
3 258 247 259
3 259 502 260
3 261 366 260
3 12 6 263
3 263 13 12
3 121 120 264
3 188 187 265
3 267 431 268
3 268 352 269
3 96 531 492
3 492 72 96
3 270 327 271
3 273 528 274
3 263 5 17
3 63 42 52
3 52 60 63
3 122 345 275
3 276 120 122
3 277 258 278
3 280 422 56
3 281 209 208
3 534 283 131
3 131 130 534
3 284 61 60
3 132 131 285
3 111 110 117
3 278 366 286
3 288 81 80
3 33 315 290
3 291 535 250
3 292 124 123
3 103 102 293
3 157 247 295
3 36 416 296
3 130 132 225
3 224 309 297
3 130 225 297
3 274 528 534
3 225 224 297
3 298 274 534
3 534 130 298
3 299 406 300
3 302 536 194
3 65 83 82
3 304 397 305
3 308 460 307
3 307 266 265
3 265 537 231
3 231 308 265
3 309 342 310
3 118 500 242
3 311 490 312
3 314 341 290
3 202 479 316
3 128 318 320
3 320 129 128
3 321 487 322
3 43 39 41
3 324 9 8
3 8 2 324
3 325 39 43
3 326 125 325
3 348 538 328
3 503 271 538
3 327 539 328
3 328 538 271
3 148 349 329
3 312 529 211
3 47 64 170
3 254 420 330
3 331 382 332
3 213 70 49
3 334 242 335
3 335 449 336
3 242 500 335
3 337 522 338
3 314 432 340
3 342 59 343
3 37 36 275
3 46 48 51
3 346 317 240
3 348 328 193
3 304 40 39
3 339 338 349
3 351 540 352
3 353 380 354
3 356 282 208
3 358 436 359
3 360 23 69
3 88 90 361
3 162 142 362
3 364 10 9
3 27 219 215
3 261 541 286
3 367 171 368
3 61 294 293
3 370 79 114
3 114 113 371
3 32 31 491
3 114 371 370
3 32 491 370
3 317 346 203
3 372 230 542
3 542 165 372
3 230 232 542
3 203 202 317
3 372 165 203
3 184 425 373
3 144 450 374
3 152 151 375
3 376 471 179
3 377 418 378
3 145 380 143
3 353 395 143
3 139 469 30
3 58 543 343
3 84 46 50
3 381 134 382
3 148 155 154
3 385 405 356
3 386 11 10
3 161 160 252
3 88 104 388
3 91 67 65
3 65 303 91
3 390 516 354
3 83 47 46
3 391 432 339
3 392 118 101
3 89 422 280
3 50 49 85
3 513 394 133
3 393 509 133
3 133 212 513
3 387 252 396
3 395 414 396
3 304 325 125
3 125 124 397
3 362 142 141
3 399 204 206
3 129 320 392
3 54 544 280
3 401 510 402
3 404 440 356
3 405 545 404
3 3 2 406
3 8 11 406
3 7 6 253
3 12 15 253
3 35 34 45
3 54 53 45
3 66 71 213
3 407 493 408
3 408 546 409
3 410 89 411
3 147 350 349
3 411 89 388
3 42 484 326
3 412 383 382
3 331 506 412
3 179 471 147
3 147 146 413
3 414 395 373
3 416 36 38
3 357 464 417
3 418 205 204
3 353 355 183
3 254 253 419
3 374 318 421
3 360 447 21
3 422 296 416
3 353 185 373
3 27 214 217
3 167 169 137
3 273 257 256
3 256 423 222
3 423 428 227
3 283 273 256
3 229 223 222
3 222 283 256
3 423 227 229
3 342 344 424
3 72 85 49
3 504 426 425
3 425 184 209
3 281 504 425
3 373 425 426
3 427 521 104
3 428 423 393
3 102 101 119
3 378 204 399
3 431 547 351
3 294 306 305
3 314 337 339
3 433 510 401
3 413 454 434
3 100 99 95
3 436 358 437
3 439 282 356
3 19 515 441
3 107 77 441
3 515 108 107
3 442 20 19
3 515 107 441
3 293 548 63
3 361 401 427
3 235 137 136
3 66 76 78
3 73 74 371
3 139 32 74
3 371 97 73
3 444 495 445
3 360 19 18
3 385 417 448
3 160 159 251
3 449 335 251
3 318 374 450
3 71 79 370
3 285 220 217
3 451 103 305
3 167 237 168
3 182 181 168
3 168 237 182
3 169 517 138
3 244 462 453
3 454 413 146
3 145 374 390
3 215 218 285
3 315 33 345
3 345 122 315
3 299 301 456
3 37 33 35
3 220 223 457
3 229 228 223
3 457 549 221
3 223 228 457
3 458 550 173
3 277 551 459
3 184 183 207
3 460 308 363
3 244 243 448
3 235 443 463
3 437 490 458
3 149 143 395
3 208 207 464
3 27 29 219
3 465 552 466
3 466 553 219
3 219 29 466
3 419 253 15
3 284 52 41
3 86 82 84
3 467 15 14
3 139 25 24
3 148 384 470
3 470 455 146
3 471 391 350
3 468 14 13
3 178 177 206
3 127 126 473
3 473 522 337
3 377 379 403
3 275 296 410
3 521 427 476
3 524 474 476
3 476 427 524
3 477 272 141
3 53 56 416
3 202 508 478
3 210 212 481
3 135 480 212
3 221 549 482
3 482 554 555
3 555 28 482
3 27 221 28
3 287 556 279
3 471 376 483
3 411 264 120
3 199 556 287
3 193 328 539
3 539 556 193
3 287 286 200
3 541 537 187
3 187 186 541
3 537 265 187
3 193 556 191
3 200 199 287
3 541 186 189
3 541 189 286
3 191 556 199
3 189 198 286
3 421 326 484
3 308 230 162
3 119 242 244
3 548 293 453
3 102 430 453
3 163 162 230
3 249 429 486
3 107 106 77
3 289 80 77
3 16 3 406
3 127 337 314
3 315 122 127
3 127 314 315
3 487 526 557
3 557 488 487
3 489 550 458
3 458 490 489
3 124 292 451
3 25 75 370
3 370 491 25
3 201 200 198
3 407 409 379
3 86 85 72
3 483 340 432
3 493 407 399
3 388 473 126
3 372 346 163
3 347 477 140
3 140 142 163
3 163 346 347
3 90 280 544
3 544 433 90
3 441 77 66
3 495 29 28
3 157 156 497
3 195 194 536
3 497 156 246
3 536 496 195
3 497 246 195
3 285 131 223
3 362 398 499
3 558 498 398
3 499 559 362
3 251 335 500
3 500 118 392
3 392 320 319
3 319 450 149
3 149 251 319
3 450 144 149
3 500 392 319
3 501 530 497
3 171 367 174
3 176 331 333
3 171 174 176
3 438 458 172
3 172 171 176
3 176 333 359
3 359 436 172
3 438 172 436
3 300 406 11
3 123 125 128
3 326 421 128
3 128 125 326
3 392 103 451
3 410 296 422
3 444 533 495
3 57 465 495
3 495 533 57
3 274 358 255
3 502 560 262
3 48 170 213
3 503 558 398
3 81 288 79
3 112 114 79
3 28 555 445
3 519 248 445
3 445 555 519
3 282 439 504
3 309 224 505
3 505 552 57
3 465 57 552
3 59 342 309
3 505 57 59
3 535 291 543
3 486 394 513
3 513 424 344
3 344 343 486
3 543 291 343
3 486 513 344
3 331 176 175
3 480 135 561
3 134 381 562
3 507 561 135
3 134 562 507
3 109 478 110
3 508 536 117
3 302 115 117
3 110 478 508
3 536 302 117
3 423 256 382
3 382 134 509
3 256 332 382
3 509 393 423
3 40 304 306
3 303 82 86
3 456 365 9
3 341 340 483
3 376 178 418
3 341 483 376
3 34 290 544
3 544 54 34
3 510 433 544
3 377 402 376
3 178 205 418
3 418 377 376
3 510 544 290
3 341 376 402
3 510 290 341
3 563 313 312
3 312 210 512
3 481 511 210
3 512 563 312
3 394 486 429
3 310 424 211
3 513 212 211
3 211 529 310
3 334 336 405
3 405 385 334
3 336 545 405
3 434 514 400
3 400 206 177
3 435 434 400
3 399 400 514
3 359 333 332
3 360 68 19
3 67 92 515
3 515 19 68
3 421 485 516
3 80 81 78
3 169 168 452
3 518 564 363
3 461 363 564
3 362 559 518
3 98 241 99
3 240 317 95
3 316 93 95
3 99 241 240
3 317 316 95
3 429 249 428
3 519 555 554
3 520 227 428
3 519 554 520
3 428 249 520
3 330 472 13
3 284 306 294
3 521 476 329
3 329 349 338
3 522 473 388
3 329 338 522
3 388 104 521
3 521 329 522
3 442 441 23
3 69 23 441
3 463 180 233
3 182 237 234
3 233 180 182
3 225 132 226
3 218 219 523
3 523 226 132
3 219 553 523
3 141 272 271
3 524 403 379
3 409 546 474
3 524 379 409
3 525 174 367
3 526 487 321
3 485 484 462
3 42 63 548
3 548 453 462
3 462 448 485
3 464 207 183
3 448 417 355
3 42 548 484
3 354 516 485
3 484 548 462
3 417 464 355
3 355 354 485
3 464 183 355
3 283 534 528
3 137 235 234
3 437 298 490
3 297 310 529
3 529 312 490
3 490 298 297
3 153 155 329
3 329 476 475
3 47 83 65
3 524 427 401
3 496 536 508
3 501 508 164
3 164 166 530
3 508 202 164
3 150 152 530
3 530 501 164
3 389 303 492
3 413 435 177
3 324 1 16
3 477 347 196
3 240 194 196
3 196 245 477
3 532 270 272
3 347 240 196
3 532 272 477
3 437 358 274
