ply
format ascii 1.0
comment Created by Blender 2.78 (sub 0) - www.blender.org, source file: ''
element vertex 565
property float x
property float y
property float z
property uchar red
property uchar green
property uchar blue
element face 928
property list uchar uint vertex_indices
end_header
-2.000000 -1.500000 0.500000 255 255 0
-2.500000 -1.000000 0.500000 255 255 0
-2.000000 -1.000000 0.000000 255 255 0
-1.500000 -1.000000 0.500000 255 255 0
2.000000 -1.500000 0.500000 255 255 0
1.500000 -1.000000 0.500000 255 255 0
2.000000 -1.000000 0.000000 255 255 0
2.500000 -1.000000 0.500000 255 255 0
-2.000000 1.000000 0.000000 255 255 0
-2.500000 1.000000 0.500000 255 255 0
-2.000000 1.500000 0.500000 255 255 0
-1.500000 1.000000 0.500000 255 255 0
2.000000 1.000000 0.000000 255 255 0
1.500000 1.000000 0.500000 255 255 0
2.000000 1.500000 0.500000 255 255 0
2.500000 1.000000 0.500000 255 255 0
-2.000000 -1.000000 1.000000 255 255 0
2.000000 -1.000000 1.000000 255 255 0
-2.500000 0.500000 1.000000 0 255 51
-2.500000 1.000000 1.500000 0 255 51
-2.500000 1.000000 1.000000 0 255 51
-1.500000 0.500000 1.000000 0 255 51
-1.500000 1.000000 1.000000 0 255 51
-1.500000 1.000000 1.500000 0 255 51
1.500000 0.500000 1.000000 0 255 51
1.500000 1.000000 1.500000 0 255 51
1.500000 1.000000 1.000000 0 255 51
0.000000 -3.500000 18.500000 255 204 102
1.000000 -3.500000 19.500000 255 204 102
-1.000000 -3.500000 19.500000 255 204 102
2.500000 0.500000 1.000000 0 255 51
2.500000 1.000000 1.000000 0 255 51
2.500000 1.000000 1.500000 0 255 51
-3.750000 2.750000 12.500000 255 51 51
-3.000000 3.500000 13.500000 255 51 51
-3.000000 3.500000 12.500000 255 51 51
-6.000000 -2.500000 4.500000 255 204 102
-6.500000 -2.000000 4.500000 255 204 102
-6.000000 -2.000000 4.000000 255 204 102
-4.500000 -2.000000 4.500000 255 204 102
-5.000000 -2.500000 4.500000 255 204 102
-5.000000 -2.000000 4.000000 255 204 102
5.000000 -2.500000 4.500000 255 204 102
4.500000 -2.000000 4.500000 255 204 102
5.000000 -2.000000 4.000000 255 204 102
6.500000 -2.000000 4.500000 255 204 102
6.000000 -2.500000 4.500000 255 204 102
6.000000 -2.000000 4.000000 255 204 102
-6.000000 -1.000000 4.000000 255 204 102
-1.000000 -1.500000 4.500000 0 255 51
-1.500000 -1.000000 4.500000 0 255 51
-1.000000 -1.000000 4.000000 0 255 51
1.500000 -1.000000 4.500000 0 255 51
1.000000 -1.500000 4.500000 0 255 51
1.000000 -1.000000 4.000000 0 255 51
6.000000 -1.000000 4.000000 255 204 102
-6.000000 0.000000 4.000000 255 204 102
-6.500000 0.000000 4.500000 255 204 102
-6.000000 0.500000 4.500000 255 204 102
-5.500000 0.000000 4.500000 255 204 102
3.000000 -1.500000 11.500000 255 51 51
3.750000 -0.750000 13.500000 255 51 51
3.000000 -1.500000 13.500000 255 51 51
6.000000 0.000000 4.000000 255 204 102
5.500000 0.000000 4.500000 255 204 102
6.000000 0.500000 4.500000 255 204 102
6.500000 0.000000 4.500000 255 204 102
-1.500000 0.000000 4.500000 0 255 51
-1.500000 0.000000 5.500000 0 255 51
-1.000000 1.000000 5.000000 0 255 51
-2.000000 0.500000 5.500000 0 255 51
-2.000000 0.500000 4.500000 0 255 51
-1.500000 1.000000 4.500000 0 255 51
1.500000 0.000000 4.500000 0 255 51
1.000000 1.000000 5.000000 0 255 51
1.500000 0.000000 5.500000 0 255 51
2.000000 0.500000 5.500000 0 255 51
2.000000 0.500000 4.500000 0 255 51
1.500000 1.000000 4.500000 0 255 51
-1.000000 2.000000 5.000000 0 255 51
-1.500000 2.000000 5.500000 0 255 51
1.000000 2.000000 5.000000 0 255 51
1.500000 2.000000 5.500000 0 255 51
-1.000000 2.500000 5.500000 0 255 51
1.000000 2.500000 5.500000 0 255 51
-1.000000 -1.000000 6.000000 0 255 51
-1.500000 -1.000000 5.500000 0 255 51
-1.000000 -1.500000 5.500000 0 255 51
1.500000 -1.000000 5.500000 0 255 51
1.000000 -1.000000 6.000000 0 255 51
1.000000 -1.500000 5.500000 0 255 51
-5.000000 1.000000 6.000000 255 204 102
-5.000000 0.000000 6.000000 255 204 102
-6.000000 1.000000 6.000000 255 204 102
-1.500000 0.500000 6.000000 0 255 51
-2.000000 0.500000 6.000000 0 255 51
-1.500000 0.500000 6.000000 255 51 51
-1.000000 0.250000 6.250000 255 51 51
-1.000000 0.500000 6.500000 255 51 51
1.500000 0.500000 6.000000 0 255 51
2.000000 0.500000 6.000000 0 255 51
1.500000 0.500000 6.000000 255 51 51
1.000000 0.500000 6.500000 255 51 51
1.000000 0.250000 6.250000 255 51 51
5.000000 1.000000 6.000000 255 204 102
6.000000 1.000000 6.000000 255 204 102
5.000000 0.000000 6.000000 255 204 102
-4.500000 1.000000 6.500000 255 204 102
-5.000000 1.500000 6.500000 255 204 102
-1.500000 1.500000 6.000000 0 255 51
-2.000000 1.500000 5.500000 0 255 51
-2.000000 1.500000 6.000000 0 255 51
-1.500000 1.500000 6.000000 255 51 51
-1.000000 1.500000 6.500000 255 51 51
-1.000000 1.750000 6.250000 255 51 51
-0.750000 -2.750000 18.000000 204 255 255
-1.500000 -2.000000 18.500000 204 255 255
-1.500000 -2.000000 18.000000 204 255 255
1.500000 1.500000 6.000000 0 255 51
2.000000 1.500000 6.000000 0 255 51
2.000000 1.500000 5.500000 0 255 51
1.500000 1.500000 6.000000 255 51 51
1.000000 1.750000 6.250000 255 51 51
1.000000 1.500000 6.500000 255 51 51
4.500000 1.000000 6.500000 255 204 102
5.000000 1.500000 6.500000 255 204 102
-3.500000 -2.000000 6.500000 255 204 102
-4.000000 -2.000000 7.000000 255 204 102
-4.000000 -2.500000 6.500000 255 204 102
4.000000 -2.000000 7.000000 255 204 102
3.500000 -2.000000 6.500000 255 204 102
4.000000 -2.500000 6.500000 255 204 102
-4.000000 -1.000000 7.000000 255 204 102
-5.000000 -2.000000 7.000000 255 204 102
5.000000 -2.000000 7.000000 255 204 102
4.000000 -1.000000 7.000000 255 204 102
-2.000000 -2.500000 16.500000 255 204 102
0.000000 -2.500000 16.500000 255 204 102
-1.000000 -2.500000 17.500000 255 204 102
-1.000000 1.750000 6.250000 0 255 51
0.500000 -2.500000 21.000000 255 255 102
0.000000 -2.500000 21.500000 255 255 102
-0.500000 -2.500000 21.000000 255 255 102
-3.750000 2.000000 10.750000 255 51 51
-2.500000 0.000000 9.500000 255 51 51
-3.750000 0.000000 10.750000 255 51 51
-4.500000 1.000000 7.500000 255 204 102
1.000000 -0.500000 10.500000 255 51 51
1.000000 -1.500000 11.500000 255 51 51
0.000000 -0.500000 11.500000 255 51 51
5.000000 -1.000000 11.000000 255 204 102
4.500000 -1.000000 10.500000 255 204 102
5.000000 -1.500000 10.500000 255 204 102
-4.000000 -0.500000 11.500000 255 204 102
-5.000000 -0.500000 11.500000 255 204 102
-4.000000 0.000000 11.000000 255 204 102
4.500000 0.000000 10.500000 255 204 102
-3.500000 2.500000 11.000000 255 51 51
-3.250000 3.000000 10.750000 255 51 51
-3.000000 3.000000 11.000000 255 51 51
-3.500000 2.500000 11.000000 255 204 102
-3.750000 2.000000 10.750000 255 204 102
-4.000000 2.000000 11.000000 255 204 102
3.500000 2.500000 11.000000 255 51 51
3.000000 3.000000 11.000000 255 51 51
3.250000 3.000000 10.750000 255 51 51
3.500000 2.500000 11.000000 255 204 102
4.000000 2.000000 11.000000 255 204 102
3.750000 2.000000 10.750000 255 204 102
-1.000000 -1.500000 11.500000 255 51 51
-1.000000 -0.500000 10.500000 255 51 51
3.000000 3.000000 14.000000 255 51 51
-3.000000 3.000000 14.000000 255 51 51
4.500000 -1.000000 9.500000 255 204 102
5.000000 -1.500000 9.500000 255 204 102
3.750000 2.000000 10.750000 255 51 51
2.500000 0.000000 9.500000 255 51 51
2.500000 2.000000 9.500000 255 51 51
-0.500000 -2.000000 25.500000 255 255 102
-0.500000 2.000000 21.500000 255 255 102
-0.500000 -2.000000 21.500000 255 255 102
-1.000000 0.000000 4.000000 0 255 51
-0.500000 -1.500000 14.000000 255 204 102
-1.000000 -2.000000 14.000000 255 204 102
-1.000000 -1.750000 13.750000 255 204 102
0.500000 -1.500000 14.000000 255 204 102
1.000000 -1.750000 13.750000 255 204 102
1.000000 -2.000000 14.000000 255 204 102
-6.000000 0.000000 14.000000 255 204 102
-6.500000 0.000000 13.500000 255 204 102
-6.000000 -0.500000 13.500000 255 204 102
0.500000 2.500000 21.000000 255 255 102
-0.500000 2.500000 21.000000 255 255 102
0.000000 2.500000 21.500000 255 255 102
6.500000 0.000000 13.500000 255 204 102
6.000000 0.000000 14.000000 255 204 102
6.000000 -0.500000 13.500000 255 204 102
-2.500000 0.500000 14.000000 255 51 51
-3.000000 0.000000 14.000000 255 51 51
-2.750000 0.000000 14.250000 255 51 51
-1.500000 1.500000 14.000000 255 51 51
-1.833330 0.833333 14.333300 255 51 51
2.500000 0.500000 14.000000 255 51 51
2.750000 0.000000 14.250000 255 51 51
3.000000 0.000000 14.000000 255 51 51
-3.500000 -0.500000 11.000000 255 204 102
-3.750000 -0.750000 11.500000 255 204 102
2.500000 1.000000 8.500000 255 51 51
-1.000000 1.750000 14.250000 255 51 51
-1.000000 2.000000 14.000000 255 51 51
-1.000000 1.750000 14.250000 255 204 102
-1.000000 1.500000 14.500000 255 204 102
0.000000 1.500000 14.500000 255 204 102
1.500000 1.500000 14.000000 255 51 51
1.000000 2.000000 14.000000 255 51 51
1.000000 1.750000 14.250000 255 51 51
-2.500000 2.000000 9.500000 255 51 51
-2.500000 1.000000 8.500000 255 51 51
-6.000000 2.500000 13.500000 255 204 102
-6.500000 2.000000 13.500000 255 204 102
-6.000000 2.000000 14.000000 255 204 102
6.500000 2.000000 13.500000 255 204 102
6.000000 2.500000 13.500000 255 204 102
6.000000 2.000000 14.000000 255 204 102
2.500000 1.000000 6.000000 255 51 51
2.000000 1.500000 8.500000 255 51 51
0.750000 2.000000 21.250000 255 204 102
1.500000 -2.000000 20.500000 255 204 102
1.500000 2.000000 20.500000 255 204 102
-1.000000 1.500000 15.500000 255 204 102
1.000000 1.500000 14.500000 255 204 102
1.000000 1.500000 15.500000 255 204 102
1.000000 0.000000 4.000000 0 255 51
0.000000 -4.500000 17.500000 255 204 102
-0.500000 -4.000000 17.500000 255 204 102
0.000000 -4.000000 17.000000 255 204 102
0.500000 -4.000000 17.500000 255 204 102
-6.000000 -0.500000 8.500000 255 204 102
-6.500000 -2.000000 6.500000 255 204 102
-6.000000 -2.500000 6.500000 255 204 102
-0.500000 -3.000000 17.500000 255 204 102
-0.500000 -3.000000 18.500000 255 204 102
0.500000 -3.000000 17.500000 255 204 102
0.500000 -3.000000 18.500000 255 204 102
2.000000 -2.500000 16.500000 255 204 102
1.000000 -2.500000 17.500000 255 204 102
-1.500000 -1.500000 18.000000 255 204 102
-1.500000 -2.000000 17.500000 255 204 102
-1.500000 -2.000000 18.000000 255 204 102
1.500000 -1.500000 18.000000 255 204 102
1.500000 -2.000000 18.000000 255 204 102
1.500000 -2.000000 17.500000 255 204 102
-2.500000 -3.000000 15.500000 255 204 102
-1.000000 -4.500000 14.500000 255 204 102
-1.000000 -4.500000 15.500000 255 204 102
0.500000 2.000000 21.500000 255 255 102
0.500000 -2.000000 25.500000 255 255 102
0.500000 -2.000000 21.500000 255 255 102
1.500000 2.000000 18.500000 255 204 102
2.500000 -1.000000 17.500000 255 204 102
2.500000 2.000000 17.500000 255 204 102
-6.000000 -1.500000 10.500000 255 204 102
-5.000000 -1.500000 10.500000 255 204 102
1.833330 0.833333 14.333300 255 51 51
-2.500000 0.000000 15.500000 255 204 102
0.000000 -2.000000 26.000000 255 255 102
0.000000 -2.500000 25.500000 255 255 102
-2.500000 0.500000 1.000000 255 255 0
-2.500000 0.000000 0.500000 255 255 0
-1.500000 0.000000 0.500000 255 255 0
-3.750000 2.750000 13.500000 255 204 102
-4.000000 2.500000 12.500000 255 204 102
-4.000000 2.500000 13.500000 255 204 102
-2.000000 0.500000 8.500000 255 51 51
-2.500000 1.000000 6.000000 255 51 51
-2.000000 0.500000 6.000000 255 51 51
1.000000 1.750000 6.250000 0 255 51
4.000000 -0.500000 11.500000 255 204 102
3.750000 -0.750000 11.500000 255 204 102
3.500000 -0.500000 11.000000 255 204 102
2.000000 0.500000 1.500000 0 255 51
2.000000 0.250000 1.250000 0 255 51
1.000000 0.000000 6.000000 0 255 51
1.000000 -4.500000 14.500000 255 204 102
2.000000 -3.000000 14.000000 255 204 102
2.500000 -3.000000 14.500000 255 204 102
-5.500000 -1.000000 5.500000 255 204 102
-5.500000 0.000000 5.500000 255 204 102
-1.000000 0.000000 6.000000 0 255 51
2.500000 0.000000 15.500000 255 204 102
2.500000 0.000000 14.500000 255 204 102
-4.000000 -0.500000 13.500000 255 204 102
-2.000000 1.500000 1.000000 255 255 0
6.000000 2.500000 12.500000 255 204 102
6.500000 2.000000 12.500000 255 204 102
6.000000 -1.500000 9.500000 255 204 102
5.000000 -0.500000 8.500000 255 204 102
6.000000 -0.500000 8.500000 255 204 102
-2.000000 0.500000 1.500000 0 255 51
-6.500000 1.000000 6.500000 255 204 102
-6.000000 0.500000 5.500000 255 204 102
-5.000000 -2.500000 5.500000 255 204 102
-4.500000 -2.000000 5.500000 255 204 102
-2.000000 1.500000 8.500000 255 51 51
-2.000000 1.500000 6.000000 255 51 51
-6.000000 1.500000 6.500000 255 204 102
2.000000 2.500000 17.500000 255 204 102
-4.000000 -1.000000 6.000000 255 204 102
-4.500000 0.000000 6.500000 255 204 102
-3.500000 -1.000000 6.500000 255 204 102
-2.750000 -1.000000 14.250000 255 51 51
-3.000000 -1.000000 14.000000 255 51 51
6.500000 -2.000000 6.500000 255 204 102
6.500000 0.000000 8.500000 255 204 102
-0.750000 2.000000 21.250000 255 204 102
-1.000000 2.500000 20.500000 255 204 102
-1.500000 2.000000 20.500000 255 204 102
-3.500000 3.500000 11.000000 255 204 102
-3.250000 3.000000 10.750000 255 204 102
-4.500000 3.000000 9.500000 255 204 102
6.000000 1.500000 7.500000 255 204 102
5.000000 3.500000 9.500000 255 204 102
6.000000 3.500000 9.500000 255 204 102
6.000000 0.500000 5.500000 255 204 102
5.500000 0.000000 5.500000 255 204 102
1.000000 -4.500000 15.500000 255 204 102
2.500000 -3.000000 15.500000 255 204 102
0.750000 -2.000000 21.250000 255 255 102
0.750000 2.000000 21.250000 255 255 102
1.500000 -2.000000 18.500000 204 255 255
0.750000 -2.750000 18.000000 204 255 255
1.500000 -2.000000 18.000000 204 255 255
3.750000 -0.750000 13.500000 255 204 102
4.000000 -0.500000 13.500000 255 204 102
-4.000000 -2.000000 6.000000 255 204 102
-4.000000 2.000000 14.000000 255 204 102
-0.750000 -2.750000 18.000000 255 204 102
1.000000 2.500000 20.500000 255 204 102
-3.750000 -0.750000 11.500000 255 51 51
-3.000000 -1.500000 13.500000 255 51 51
-3.750000 -0.750000 13.500000 255 51 51
-4.500000 2.000000 10.500000 255 204 102
2.000000 0.000000 1.000000 255 255 0
-3.500000 3.500000 11.000000 255 51 51
-3.000000 3.500000 11.500000 255 51 51
-1.500000 0.500000 1.000000 255 255 0
-1.500000 1.000000 1.000000 255 255 0
3.750000 0.000000 10.750000 255 204 102
4.000000 0.000000 11.000000 255 204 102
1.000000 -1.500000 13.500000 255 51 51
1.000000 -2.500000 20.500000 255 204 102
2.000000 1.500000 4.500000 0 255 51
2.500000 1.000000 6.000000 0 255 51
3.750000 2.750000 13.500000 255 51 51
3.000000 3.500000 12.500000 255 51 51
3.000000 3.500000 13.500000 255 51 51
4.000000 -1.000000 6.000000 255 204 102
5.000000 -1.000000 6.000000 255 204 102
4.000000 -2.000000 6.000000 255 204 102
4.000000 3.500000 11.500000 255 204 102
4.000000 2.500000 12.500000 255 204 102
-3.750000 0.000000 10.750000 255 204 102
4.000000 2.500000 13.500000 255 204 102
3.500000 2.500000 14.000000 255 204 102
4.000000 2.000000 14.000000 255 204 102
2.500000 0.000000 0.500000 255 255 0
6.500000 3.000000 11.500000 255 204 102
6.500000 3.000000 9.500000 255 204 102
-6.500000 0.000000 5.500000 255 204 102
5.000000 -2.500000 5.500000 255 204 102
6.000000 -2.500000 6.500000 255 204 102
-2.000000 -3.000000 14.000000 255 204 102
-2.500000 -3.000000 14.500000 255 204 102
2.000000 -2.000000 14.000000 255 204 102
2.500000 -1.750000 13.750000 255 204 102
-5.000000 -1.000000 6.000000 255 204 102
-6.000000 2.500000 12.500000 255 204 102
-1.000000 -4.000000 16.000000 255 204 102
-2.500000 -1.750000 13.750000 255 51 51
-1.000000 -1.500000 13.500000 255 51 51
-1.000000 -1.750000 13.750000 255 51 51
-6.500000 1.000000 7.500000 255 204 102
-6.000000 1.500000 7.500000 255 204 102
-5.000000 -0.500000 8.500000 255 204 102
-4.500000 -1.000000 9.500000 255 204 102
-5.000000 -1.500000 9.500000 255 204 102
-6.000000 -1.500000 9.500000 255 204 102
0.000000 -3.000000 17.000000 255 204 102
-4.500000 0.000000 8.500000 255 204 102
1.000000 0.250000 6.250000 0 255 51
-1.500000 -1.500000 18.000000 204 255 255
6.000000 1.500000 6.500000 255 204 102
6.500000 1.000000 6.500000 255 204 102
-2.500000 -1.000000 14.500000 255 204 102
-2.750000 -1.000000 14.250000 255 204 102
-2.500000 -1.500000 14.000000 255 204 102
-3.000000 -0.500000 10.500000 255 51 51
-3.000000 -1.500000 11.500000 255 51 51
2.000000 1.500000 1.000000 255 255 0
4.500000 0.000000 8.500000 255 204 102
4.500000 1.000000 7.500000 255 204 102
5.000000 1.500000 7.500000 255 204 102
-2.000000 2.500000 17.500000 255 204 102
0.000000 2.500000 15.500000 255 204 102
0.500000 -2.500000 21.000000 255 204 102
-1.000000 -2.500000 20.500000 255 204 102
-4.500000 -1.000000 10.500000 255 204 102
-4.000000 0.000000 14.000000 255 204 102
-3.750000 2.750000 13.500000 255 51 51
3.500000 -0.500000 14.000000 255 204 102
-6.500000 -1.000000 9.500000 255 204 102
-6.500000 0.000000 8.500000 255 204 102
1.500000 0.000000 0.500000 255 255 0
-5.500000 -1.000000 4.500000 255 204 102
-1.500000 2.000000 18.500000 255 204 102
-2.500000 2.000000 17.500000 255 204 102
6.000000 -0.500000 11.500000 255 204 102
6.500000 -1.000000 10.500000 255 204 102
6.500000 0.000000 11.500000 255 204 102
4.500000 3.000000 9.500000 255 204 102
3.500000 3.500000 11.000000 255 204 102
6.500000 1.000000 7.500000 255 204 102
2.500000 -1.500000 14.000000 255 204 102
2.500000 -1.000000 14.500000 255 204 102
-3.833330 2.833330 12.333300 255 204 102
-4.000000 3.500000 11.500000 255 204 102
0.166667 -0.833333 13.666700 255 51 51
0.500000 -1.500000 14.000000 255 51 51
4.500000 0.000000 6.500000 255 204 102
3.500000 -1.000000 6.500000 255 204 102
-2.500000 -1.000000 17.500000 255 204 102
2.000000 -0.500000 9.500000 255 51 51
2.000000 0.500000 8.500000 255 51 51
2.750000 -1.000000 14.250000 255 204 102
2.000000 -3.000000 16.000000 255 204 102
1.000000 2.500000 18.500000 255 204 102
-6.500000 3.000000 11.500000 255 204 102
-6.000000 3.500000 11.500000 255 204 102
-2.000000 0.000000 1.000000 255 255 0
-2.000000 0.250000 1.250000 0 255 51
1.500000 0.500000 1.000000 255 255 0
-6.500000 3.000000 9.500000 255 204 102
-6.000000 3.500000 9.500000 255 204 102
-2.000000 -2.000000 14.000000 255 204 102
3.750000 2.750000 12.500000 255 204 102
6.000000 3.500000 11.500000 255 204 102
1.500000 -1.000000 18.500000 255 204 102
1.500000 -1.500000 19.000000 255 204 102
-1.000000 -4.000000 14.000000 255 204 102
1.000000 -4.000000 14.000000 255 204 102
-1.000000 2.500000 18.500000 255 204 102
-5.000000 1.500000 7.500000 255 204 102
2.000000 0.500000 6.000000 255 51 51
6.000000 -1.500000 10.500000 255 204 102
-1.500000 -2.500000 19.000000 204 255 255
-0.750000 -2.750000 18.500000 204 255 255
-0.833333 -2.833330 18.666700 204 255 255
-3.500000 2.500000 14.000000 255 204 102
-2.750000 0.000000 14.250000 255 204 102
-2.500000 0.000000 14.500000 255 204 102
0.000000 -0.500000 13.500000 255 51 51
4.000000 0.000000 14.000000 255 204 102
1.500000 -1.500000 19.000000 204 255 255
1.500000 -1.500000 18.000000 204 255 255
0.166667 -0.833333 13.666700 255 204 102
0.000000 -1.000000 14.000000 255 204 102
0.000000 -0.750000 13.750000 255 204 102
-0.750000 -2.000000 21.250000 255 255 102
-0.750000 2.000000 21.250000 255 255 102
6.500000 -1.000000 9.500000 255 204 102
1.500000 1.000000 1.000000 255 255 0
-2.000000 0.250000 1.250000 255 255 0
-0.750000 -2.000000 21.250000 255 204 102
-3.500000 -0.500000 14.000000 255 204 102
-0.166667 -0.833333 13.666700 255 51 51
3.000000 -1.000000 14.000000 255 51 51
-1.500000 -2.000000 20.500000 255 204 102
2.500000 0.500000 14.000000 255 204 102
1.833330 0.833333 14.333300 255 204 102
-2.000000 -0.500000 9.500000 255 51 51
2.500000 0.500000 1.000000 255 255 0
2.500000 1.000000 1.000000 255 255 0
-1.500000 -1.500000 19.000000 255 204 102
-1.500000 -1.000000 18.500000 255 204 102
3.750000 2.750000 12.500000 255 51 51
3.500000 3.500000 12.000000 255 51 51
2.000000 2.500000 9.500000 255 51 51
-3.000000 2.500000 10.500000 255 51 51
3.000000 2.500000 10.500000 255 51 51
3.833330 2.833330 12.333300 255 204 102
3.500000 3.500000 11.000000 255 51 51
-6.000000 -0.500000 11.500000 255 204 102
-1.833330 0.833333 14.333300 255 204 102
0.833333 -2.833330 18.666700 255 204 102
-2.500000 1.000000 1.000000 255 255 0
-2.500000 1.000000 6.000000 0 255 51
-1.500000 -3.000000 19.500000 255 204 102
-0.833333 -2.833330 18.666700 255 204 102
2.000000 0.250000 1.250000 255 255 0
5.500000 -1.000000 5.500000 255 204 102
2.500000 -1.750000 13.750000 255 51 51
-4.500000 -1.000000 7.500000 255 204 102
-2.000000 1.500000 4.500000 0 255 51
-2.000000 1.500000 1.000000 0 255 51
5.500000 -1.000000 4.500000 255 204 102
3.250000 3.000000 10.750000 255 204 102
4.500000 2.000000 10.500000 255 204 102
4.500000 -2.000000 5.500000 255 204 102
6.500000 0.000000 5.500000 255 204 102
-0.166667 -0.833333 13.666700 255 204 102
2.000000 1.500000 1.000000 0 255 51
-5.000000 3.500000 9.500000 255 204 102
1.500000 -2.500000 19.000000 204 255 255
0.750000 -2.750000 18.500000 204 255 255
1.000000 -4.000000 16.000000 255 204 102
-2.000000 -3.000000 16.000000 255 204 102
-6.500000 -1.000000 10.500000 255 204 102
0.750000 -2.750000 18.000000 255 204 102
-2.500000 -1.500000 14.000000 255 51 51
-3.500000 3.500000 12.000000 255 51 51
-2.000000 2.500000 9.500000 255 51 51
0.750000 -2.000000 21.250000 255 204 102
4.500000 -1.000000 7.500000 255 204 102
3.000000 -0.500000 10.500000 255 51 51
3.750000 0.000000 10.750000 255 51 51
3.500000 -0.500000 11.000000 255 51 51
3.750000 -0.750000 11.500000 255 51 51
1.000000 1.750000 14.250000 255 204 102
2.000000 1.500000 6.000000 255 51 51
-3.750000 2.750000 12.500000 255 204 102
-0.500000 2.500000 21.000000 255 204 102
-0.750000 -2.750000 18.500000 255 204 102
0.500000 2.500000 21.000000 255 204 102
-3.750000 -0.750000 13.500000 255 204 102
3.750000 2.750000 13.500000 255 204 102
3.500000 2.500000 14.000000 255 51 51
3.500000 -0.500000 14.000000 255 51 51
-3.500000 2.500000 14.000000 255 51 51
-3.500000 -0.500000 14.000000 255 51 51
-6.500000 2.000000 12.500000 255 204 102
-1.000000 0.250000 6.250000 0 255 51
-1.500000 -1.500000 19.000000 204 255 255
-2.500000 -1.750000 13.750000 255 204 102
-0.500000 -2.500000 21.000000 255 204 102
-3.500000 3.500000 12.000000 255 204 102
0.000000 -0.750000 13.750000 255 51 51
1.000000 -1.750000 13.750000 255 51 51
2.750000 0.000000 14.250000 255 204 102
-6.500000 0.000000 11.500000 255 204 102
1.500000 -3.000000 19.500000 255 204 102
1.500000 -2.500000 19.000000 255 204 102
3.500000 3.500000 12.000000 255 204 102
-0.500000 -1.500000 14.000000 255 51 51
2.500000 -1.500000 14.000000 255 51 51
2.750000 -1.000000 14.250000 255 51 51
1.500000 1.500000 14.000000 255 204 102
-3.500000 -0.500000 11.000000 255 51 51
-1.500000 -2.500000 19.000000 255 204 102
3.833330 2.833330 12.333300 255 51 51
3.000000 3.500000 11.500000 255 51 51
-1.500000 1.500000 14.000000 255 204 102
-2.500000 0.500000 14.000000 255 204 102
0.750000 -2.750000 18.500000 255 204 102
0.833333 -2.833330 18.666700 204 255 255
-3.833330 2.833330 12.333300 255 51 51
3 0 1 2
3 3 0 2
3 4 5 6
3 7 4 6
3 8 9 10
3 11 8 10
3 12 13 14
3 15 12 14
3 1 0 16
3 16 0 3
3 17 5 4
3 7 17 4
3 18 19 20
3 21 22 23
3 24 25 26
3 27 28 29
3 30 31 32
3 33 34 35
3 36 37 38
3 39 40 41
3 42 43 44
3 45 46 47
3 38 48 41
3 49 50 51
3 52 53 54
3 47 44 55
3 56 57 58
3 59 56 58
3 60 61 62
3 63 64 65
3 66 63 65
3 67 68 69
3 68 70 69
3 70 71 69
3 69 71 72
3 73 74 75
3 75 74 76
3 76 74 77
3 74 78 77
3 79 69 80
3 81 82 74
3 79 80 83
3 82 81 84
3 85 86 87
3 88 89 90
3 91 92 93
3 94 95 70
3 96 97 98
3 99 76 100
3 101 102 103
3 104 105 106
3 107 91 108
3 109 110 111
3 112 113 114
3 115 116 117
3 118 119 120
3 121 122 123
3 104 124 125
3 126 127 128
3 129 130 131
3 127 132 133
3 129 134 135
3 136 137 138
3 139 84 83
3 140 141 142
3 143 144 145
3 108 146 107
3 147 148 149
3 150 151 152
3 153 154 155
3 151 150 156
3 157 158 159
3 160 161 162
3 163 164 165
3 166 167 168
3 169 170 149
3 171 34 172
3 152 173 174
3 175 176 177
3 178 179 180
3 67 69 181
3 182 183 184
3 185 186 187
3 188 189 190
3 191 192 193
3 194 195 196
3 197 198 199
3 200 197 201
3 202 203 204
3 205 206 153
3 207 177 176
3 200 208 209
3 210 211 212
3 213 214 215
3 216 217 144
3 218 219 220
3 221 222 223
3 224 225 207
3 226 227 228
3 211 229 212
3 230 212 231
3 74 73 232
3 233 234 235
3 236 233 235
3 237 238 239
3 240 234 241
3 242 243 236
3 137 244 245
3 246 247 248
3 249 250 251
3 252 253 254
3 255 256 257
3 258 259 260
3 154 261 262
3 213 263 202
3 211 264 229
3 265 178 266
3 256 265 266
3 267 9 268
3 8 11 269
3 270 271 272
3 273 274 275
3 276 118 82
3 271 218 272
3 277 278 279
3 280 78 25
3 280 24 281
3 282 88 75
3 283 284 285
3 92 286 287
3 288 86 85
3 230 289 290
3 190 154 291
3 90 52 88
3 292 11 10
3 293 221 294
3 295 296 297
3 298 21 23
3 299 93 300
3 301 39 302
3 274 303 304
3 108 93 305
3 135 130 129
3 306 258 260
3 307 308 309
3 310 198 311
3 57 56 48
3 297 312 313
3 314 315 316
3 317 318 319
3 27 236 243
3 90 85 87
3 320 321 322
3 106 323 324
3 106 124 104
3 27 234 233
3 325 285 326
3 122 113 123
3 255 327 328
3 329 330 331
3 332 277 333
3 334 309 126
3 335 218 220
3 336 138 240
3 337 226 228
3 338 339 340
3 260 289 231
3 341 319 318
3 2 268 8
3 342 5 17
3 206 291 153
3 159 343 344
3 345 11 346
3 92 300 93
3 347 167 348
3 349 60 62
3 350 29 28
3 351 352 32
3 353 354 355
3 356 357 358
3 266 257 256
3 293 359 360
3 361 162 161
3 362 363 364
3 12 15 365
3 130 358 131
3 322 366 367
3 58 368 300
3 369 46 370
3 371 253 372
3 373 186 374
3 375 307 334
3 172 209 214
3 376 219 218
3 46 312 370
3 325 377 254
3 208 214 209
3 378 379 380
3 305 381 382
3 383 384 385
3 288 94 68
3 362 223 222
3 262 386 385
3 235 240 387
3 388 146 341
3 55 64 63
3 389 288 282
3 390 117 116
3 105 391 392
3 155 341 162
3 97 102 98
3 393 394 395
3 396 169 397
3 398 15 14
3 386 383 385
3 296 173 399
3 125 400 401
3 257 140 327
3 391 401 320
3 229 402 403
3 404 405 350
3 154 406 155
3 190 407 188
3 408 172 34
3 333 409 332
3 237 410 411
3 6 412 12
3 59 286 413
3 414 402 415
3 416 417 418
3 87 50 49
3 321 419 420
3 65 324 323
3 320 367 421
3 422 423 373
3 280 30 32
3 271 424 425
3 67 86 68
3 426 349 427
3 180 142 141
3 428 356 429
3 132 126 309
3 430 264 393
3 181 74 232
3 54 73 52
3 431 273 432
3 369 43 42
3 413 41 48
3 433 290 423
3 244 137 434
3 337 258 435
3 349 149 148
3 436 376 437
3 381 368 411
3 135 428 429
3 438 267 268
3 298 18 439
3 308 132 309
3 391 421 392
3 302 413 286
3 72 80 69
3 342 440 412
3 342 7 365
3 370 134 131
3 348 150 277
3 301 334 128
3 239 133 237
3 382 441 442
3 358 429 356
3 438 3 269
3 443 184 183
3 444 362 360
3 372 443 371
3 54 181 232
3 293 366 445
3 325 253 283
3 446 228 447
3 79 84 81
3 416 277 150
3 47 42 44
3 283 448 449
3 450 316 315
3 442 451 382
3 452 207 432
3 453 174 295
3 51 67 181
3 432 98 102
3 379 397 169
3 36 40 301
3 454 455 456
3 359 321 420
3 438 1 16
3 261 410 386
3 272 457 270
3 458 393 459
3 78 82 351
3 74 79 81
3 379 149 460
3 461 364 409
3 373 285 284
3 462 329 463
3 223 194 221
3 464 465 466
3 467 179 468
3 167 156 348
3 297 469 295
3 470 14 13
3 438 345 471
3 262 384 406
3 53 51 54
3 316 472 314
3 291 473 407
3 379 460 474
3 61 475 62
3 58 287 59
3 37 239 238
3 203 475 204
3 387 245 242
3 376 425 437
3 405 472 476
3 219 188 220
3 192 179 193
3 75 99 282
3 266 180 141
3 235 242 236
3 290 477 478
3 144 479 396
3 196 418 194
3 41 36 38
3 480 15 481
3 482 316 483
3 282 85 89
3 92 107 308
3 147 60 148
3 430 252 136
3 73 88 52
3 484 485 354
3 486 487 488
3 419 400 399
3 90 49 53
3 359 489 360
3 164 490 165
3 189 491 190
3 352 76 77
3 66 45 55
3 453 469 417
3 492 459 211
3 391 104 125
3 138 387 240
3 277 196 333
3 294 194 418
3 259 251 244
3 109 139 80
3 48 59 413
3 493 28 243
3 494 10 9
3 71 23 72
3 344 164 159
3 70 495 71
3 123 113 303
3 293 362 222
3 496 497 29
3 354 344 35
3 342 480 498
3 488 175 177
3 64 499 324
3 500 349 62
3 171 353 355
3 133 501 383
3 196 461 333
3 502 503 19
3 504 44 43
3 505 419 506
3 106 499 357
3 507 357 499
3 187 448 183
3 65 508 66
3 465 509 466
3 441 437 442
3 431 147 170
3 510 25 351
3 335 188 407
3 511 437 425
3 504 507 499
3 255 193 265
3 440 13 412
3 512 513 329
3 514 515 377
3 491 516 261
3 450 435 403
3 23 503 502
3 517 242 245
3 339 518 311
3 519 33 35
3 108 382 451
3 326 423 289
3 143 157 487
3 520 225 303
3 521 404 350
3 302 375 334
3 296 399 522
3 523 524 525
3 430 414 415
3 33 408 34
3 60 526 61
3 115 455 116
3 139 276 84
3 143 216 144
3 108 451 146
3 171 355 34
3 152 151 173
3 175 524 176
3 153 155 205
3 361 205 155
3 212 230 527
3 527 210 212
3 224 528 225
3 226 521 227
3 237 411 238
3 252 372 253
3 258 446 259
3 154 491 261
3 211 459 264
3 267 494 9
3 269 3 2
3 2 8 269
3 270 529 271
3 273 217 274
3 120 82 118
3 84 276 82
3 271 376 218
3 279 347 348
3 348 277 279
3 280 77 78
3 280 25 24
3 282 89 88
3 283 449 284
3 92 375 286
3 288 68 86
3 230 231 289
3 153 291 154
3 190 491 154
3 90 53 52
3 292 346 11
3 293 222 221
3 295 174 296
3 298 439 21
3 300 368 299
3 299 305 93
3 301 40 39
3 274 217 303
3 108 91 93
3 135 429 130
3 306 435 258
3 307 92 308
3 310 199 198
3 48 38 37
3 37 57 48
3 297 370 312
3 314 530 315
3 146 451 319
3 511 317 319
3 319 451 511
3 27 233 236
3 90 89 85
3 320 401 321
3 106 105 323
3 106 428 124
3 27 241 234
3 325 283 285
3 122 114 113
3 255 257 327
3 329 513 330
3 332 278 277
3 334 307 309
3 335 272 218
3 240 241 336
3 336 248 138
3 241 531 336
3 248 247 138
3 337 532 226
3 338 397 339
3 212 403 231
3 306 260 231
3 231 403 306
3 318 160 341
3 162 341 160
3 9 8 268
3 2 1 268
3 342 412 5
3 206 533 291
3 159 158 343
3 345 269 11
3 92 287 300
3 347 168 167
3 349 148 60
3 350 405 29
3 351 82 120
3 120 119 352
3 32 31 510
3 120 352 351
3 32 510 351
3 353 484 354
3 356 106 357
3 266 141 257
3 293 445 359
3 361 155 162
3 362 534 363
3 365 7 6
3 6 12 365
3 369 131 358
3 358 507 369
3 322 445 366
3 58 57 368
3 369 42 46
3 370 131 369
3 371 448 253
3 373 187 186
3 375 92 307
3 213 535 171
3 204 475 536
3 536 535 204
3 171 172 214
3 537 538 198
3 198 197 537
3 538 311 198
3 204 535 202
3 214 213 171
3 537 197 200
3 537 200 172
3 202 535 213
3 200 209 172
3 376 539 219
3 46 45 312
3 325 514 377
3 208 215 214
3 378 339 379
3 305 299 381
3 383 388 384
3 70 68 94
3 288 540 94
3 362 364 223
3 262 261 386
3 235 234 240
3 388 501 308
3 308 107 146
3 146 319 341
3 341 406 384
3 388 308 146
3 341 384 388
3 55 504 64
3 389 540 288
3 541 390 116
3 116 454 541
3 392 508 323
3 323 105 392
3 155 406 341
3 97 103 102
3 443 393 395
3 395 542 443
3 396 170 169
3 398 481 15
3 386 237 383
3 296 174 173
3 125 124 400
3 257 141 140
3 391 125 401
3 229 264 415
3 415 402 229
3 403 212 229
3 404 543 405
3 154 262 406
3 190 291 407
3 408 537 172
3 333 461 409
3 237 386 410
3 13 12 412
3 6 5 412
3 59 287 286
3 414 450 402
3 416 453 417
3 87 86 50
3 321 401 419
3 419 505 420
3 401 400 419
3 65 64 324
3 320 322 367
3 422 433 423
3 373 374 422
3 280 281 30
3 271 529 424
3 424 544 425
3 67 50 86
3 426 545 460
3 460 349 426
3 546 427 349
3 180 467 142
3 428 106 356
3 132 127 126
3 372 252 393
3 430 415 264
3 264 459 393
3 393 252 430
3 181 69 74
3 54 232 73
3 431 479 273
3 369 507 43
3 413 39 41
3 433 547 290
3 515 434 137
3 137 136 515
3 337 228 258
3 349 460 149
3 436 539 376
3 539 436 548
3 381 299 368
3 436 441 548
3 189 219 539
3 410 516 548
3 548 189 539
3 441 381 411
3 368 57 37
3 37 238 368
3 411 410 548
3 368 238 411
3 411 548 441
3 135 522 428
3 438 471 267
3 298 19 18
3 308 501 132
3 391 320 421
3 302 39 413
3 72 502 80
3 342 498 440
3 342 17 7
3 370 297 134
3 134 129 131
3 297 296 134
3 348 156 150
3 126 128 334
3 301 302 334
3 239 128 133
3 133 383 237
3 128 127 133
3 382 381 441
3 358 130 429
3 438 16 3
3 443 542 184
3 444 534 362
3 372 393 443
3 54 51 181
3 293 294 366
3 325 254 253
3 446 258 228
3 228 227 447
3 549 550 227
3 447 249 446
3 227 550 447
3 79 83 84
3 150 152 453
3 453 416 150
3 47 46 42
3 283 253 448
3 450 414 316
3 442 511 451
3 452 224 207
3 453 152 174
3 51 50 67
3 101 452 102
3 432 273 98
3 275 96 98
3 102 452 432
3 273 275 98
3 379 339 397
3 239 36 301
3 301 128 239
3 454 116 455
3 359 445 321
3 322 321 445
3 420 551 359
3 438 268 1
3 261 516 410
3 272 335 457
3 458 394 393
3 78 74 82
3 74 69 79
3 379 169 149
3 461 195 223
3 364 363 409
3 461 223 364
3 373 423 285
3 462 512 329
3 329 331 463
3 223 195 194
3 464 185 465
3 467 180 179
3 167 506 156
3 297 313 469
3 470 398 14
3 438 269 345
3 262 385 384
3 53 49 51
3 316 476 472
3 291 533 473
3 552 380 379
3 460 545 474
3 474 552 379
3 500 62 553
3 61 536 475
3 475 554 553
3 553 62 475
3 58 300 287
3 37 36 239
3 203 554 475
3 387 137 245
3 376 271 425
3 476 496 405
3 405 543 472
3 496 29 405
3 219 189 188
3 265 193 179
3 192 468 179
3 179 178 265
3 389 282 99
3 75 76 99
3 266 178 180
3 235 387 242
3 555 527 230
3 230 290 478
3 547 477 290
3 478 555 230
3 396 397 556
3 556 145 396
3 397 338 556
3 273 479 144
3 144 217 273
3 396 145 144
3 196 416 418
3 41 40 36
3 480 365 15
3 482 557 476
3 496 476 557
3 316 414 483
3 483 246 482
3 482 476 316
3 282 288 85
3 92 91 107
3 147 523 60
3 246 483 430
3 252 254 377
3 252 377 515
3 246 430 247
3 136 138 247
3 247 430 136
3 252 515 136
3 73 75 88
3 484 558 485
3 486 520 487
3 399 173 156
3 156 506 399
3 173 151 156
3 428 522 399
3 400 124 428
3 506 419 399
3 400 428 399
3 90 87 49
3 359 551 489
3 489 444 360
3 164 559 490
3 189 548 491
3 77 280 32
3 32 352 77
3 100 76 352
3 47 55 45
3 63 66 55
3 453 295 469
3 210 560 211
3 492 561 459
3 458 459 561
3 211 560 492
3 391 105 104
3 138 137 387
3 277 416 196
3 417 469 313
3 313 312 421
3 45 66 508
3 508 392 421
3 421 367 313
3 294 221 194
3 367 366 418
3 45 508 312
3 418 417 313
3 312 508 421
3 366 294 418
3 418 313 367
3 326 259 244
3 259 446 249
3 514 325 326
3 434 514 326
3 259 249 251
3 251 245 244
3 244 434 326
3 83 80 139
3 110 109 80
3 48 56 59
3 243 562 493
3 493 550 549
3 549 28 493
3 27 243 28
3 494 292 10
3 71 298 23
3 487 159 164
3 344 559 164
3 164 488 487
3 298 71 19
3 70 95 495
3 495 19 71
3 303 225 123
3 528 121 123
3 113 112 304
3 225 528 123
3 113 304 303
3 293 360 362
3 27 29 241
3 496 557 497
3 497 531 241
3 241 29 497
3 34 355 354
3 354 485 559
3 485 490 559
3 35 34 354
3 343 519 344
3 354 559 344
3 344 519 35
3 342 365 480
3 207 225 177
3 488 164 163
3 177 225 486
3 163 175 488
3 486 488 177
3 64 504 499
3 500 546 349
3 171 535 353
3 133 132 501
3 501 388 383
3 196 195 461
3 19 495 502
3 110 80 502
3 495 111 110
3 503 20 19
3 495 110 502
3 504 55 44
3 506 167 166
3 166 505 506
3 106 324 499
3 507 358 357
3 465 185 182
3 187 373 284
3 284 449 187
3 448 371 183
3 183 182 185
3 371 443 183
3 187 449 448
3 183 185 187
3 65 323 508
3 465 182 509
3 441 436 437
3 396 479 170
3 431 523 147
3 147 149 170
3 170 479 431
3 78 351 25
3 510 26 25
3 473 457 335
3 335 220 188
3 407 473 335
3 544 317 425
3 511 442 437
3 425 317 511
3 504 43 507
3 255 328 191
3 191 193 255
3 265 256 255
3 440 470 13
3 512 563 513
3 514 434 515
3 491 548 516
3 450 315 435
3 530 532 337
3 435 306 403
3 530 337 315
3 403 402 450
3 315 337 435
3 502 72 23
3 23 22 503
3 245 251 250
3 517 562 243
3 245 250 517
3 517 243 242
3 538 340 311
3 339 378 518
3 518 310 311
3 311 340 339
3 519 564 33
3 108 305 382
3 260 259 289
3 326 285 423
3 423 290 289
3 289 259 326
3 520 303 216
3 216 143 487
3 303 217 216
3 157 159 487
3 487 520 216
3 520 486 225
3 28 549 350
3 227 521 350
3 350 549 227
3 302 286 375
3 134 296 522
3 522 135 134
3 526 60 525
3 523 431 176
3 432 207 176
3 176 524 523
3 525 60 523
3 431 432 176
3 430 483 414
