ply
format ascii 1.0
comment Created by Blender 2.78 (sub 0) - www.blender.org, source file: ''
element vertex 565
property float x
property float y
property float z
property uchar red
property uchar green
property uchar blue
element face 928
property list uchar uint vertex_indices
end_header
-2.000000 -1.500000 0.500000 255 255 0
-2.500000 -1.000000 0.500000 255 255 0
-2.000000 -1.000000 0.000000 255 255 0
-1.500000 -1.000000 0.500000 255 255 0
2.000000 -1.500000 0.500000 255 255 0
1.500000 -1.000000 0.500000 255 255 0
2.000000 -1.000000 0.000000 255 255 0
2.500000 -1.000000 0.500000 255 255 0
-2.000000 1.000000 0.000000 255 255 0
-2.500000 1.000000 0.500000 255 255 0
-2.000000 1.500000 0.500000 255 255 0
-1.500000 1.000000 0.500000 255 255 0
2.000000 1.000000 0.000000 255 255 0
1.500000 1.000000 0.500000 255 255 0
2.000000 1.500000 0.500000 255 255 0
2.500000 1.000000 0.500000 255 255 0
-2.000000 -1.000000 1.000000 255 255 0
2.000000 -1.000000 1.000000 255 255 0
-2.500000 0.500000 1.000000 0 255 51
-2.500000 1.000000 1.500000 0 255 51
-2.500000 1.000000 1.000000 0 255 51
-1.500000 0.500000 1.000000 0 255 51
-1.500000 1.000000 1.000000 0 255 51
-1.500000 1.000000 1.500000 0 255 51
1.500000 0.500000 1.000000 0 255 51
1.500000 1.000000 1.500000 0 255 51
1.500000 1.000000 1.000000 0 255 51
0.000000 -3.500000 18.500000 255 204 102
1.000000 -3.500000 19.500000 255 204 102
-1.000000 -3.500000 19.500000 255 204 102
2.500000 0.500000 1.000000 0 255 51
2.500000 1.000000 1.000000 0 255 51
2.500000 1.000000 1.500000 0 255 51
-6.000000 -2.500000 4.500000 255 204 102
-6.500000 -2.000000 4.500000 255 204 102
-6.000000 -2.000000 4.000000 255 204 102
-4.500000 -2.000000 4.500000 255 204 102
-5.000000 -2.500000 4.500000 255 204 102
-5.000000 -2.000000 4.000000 255 204 102
5.000000 -2.500000 4.500000 255 204 102
4.500000 -2.000000 4.500000 255 204 102
5.000000 -2.000000 4.000000 255 204 102
6.500000 -2.000000 4.500000 255 204 102
6.000000 -2.500000 4.500000 255 204 102
6.000000 -2.000000 4.000000 255 204 102
-6.000000 -1.000000 4.000000 255 204 102
-1.000000 -1.500000 4.500000 0 255 51
-1.500000 -1.000000 4.500000 0 255 51
-1.000000 -1.000000 4.000000 0 255 51
1.500000 -1.000000 4.500000 0 255 51
1.000000 -1.500000 4.500000 0 255 51
1.000000 -1.000000 4.000000 0 255 51
6.000000 -1.000000 4.000000 255 204 102
-6.000000 0.000000 4.000000 255 204 102
-6.500000 0.000000 4.500000 255 204 102
-6.000000 0.500000 4.500000 255 204 102
-5.500000 0.000000 4.500000 255 204 102
6.000000 0.000000 4.000000 255 204 102
5.500000 0.000000 4.500000 255 204 102
6.000000 0.500000 4.500000 255 204 102
6.500000 0.000000 4.500000 255 204 102
-1.500000 0.000000 4.500000 0 255 51
-1.500000 0.000000 5.500000 0 255 51
-1.000000 1.000000 5.000000 0 255 51
-2.000000 0.500000 5.500000 0 255 51
-2.000000 0.500000 4.500000 0 255 51
-1.500000 1.000000 4.500000 0 255 51
1.500000 0.000000 4.500000 0 255 51
1.000000 1.000000 5.000000 0 255 51
1.500000 0.000000 5.500000 0 255 51
2.000000 0.500000 5.500000 0 255 51
2.000000 0.500000 4.500000 0 255 51
1.500000 1.000000 4.500000 0 255 51
-1.000000 2.000000 5.000000 0 255 51
-1.500000 2.000000 5.500000 0 255 51
1.000000 2.000000 5.000000 0 255 51
1.500000 2.000000 5.500000 0 255 51
-1.000000 2.500000 5.500000 0 255 51
1.000000 2.500000 5.500000 0 255 51
-1.000000 -1.000000 6.000000 0 255 51
-1.500000 -1.000000 5.500000 0 255 51
-1.000000 -1.500000 5.500000 0 255 51
1.500000 -1.000000 5.500000 0 255 51
1.000000 -1.000000 6.000000 0 255 51
1.000000 -1.500000 5.500000 0 255 51
-5.000000 1.000000 6.000000 255 204 102
-5.000000 0.000000 6.000000 255 204 102
-6.000000 1.000000 6.000000 255 204 102
-1.500000 0.500000 6.000000 0 255 51
-2.000000 0.500000 6.000000 0 255 51
-1.500000 0.500000 6.000000 255 51 51
-1.000000 0.250000 6.250000 255 51 51
-1.000000 0.500000 6.500000 255 51 51
1.500000 0.500000 6.000000 0 255 51
2.000000 0.500000 6.000000 0 255 51
1.500000 0.500000 6.000000 255 51 51
1.000000 0.500000 6.500000 255 51 51
1.000000 0.250000 6.250000 255 51 51
5.000000 1.000000 6.000000 255 204 102
6.000000 1.000000 6.000000 255 204 102
5.000000 0.000000 6.000000 255 204 102
-4.500000 1.000000 6.500000 255 204 102
-5.000000 1.500000 6.500000 255 204 102
-1.500000 1.500000 6.000000 0 255 51
-2.000000 1.500000 5.500000 0 255 51
-2.000000 1.500000 6.000000 0 255 51
-1.500000 1.500000 6.000000 255 51 51
-1.000000 1.500000 6.500000 255 51 51
-1.000000 1.750000 6.250000 255 51 51
1.500000 1.500000 6.000000 0 255 51
2.000000 1.500000 6.000000 0 255 51
2.000000 1.500000 5.500000 0 255 51
1.500000 1.500000 6.000000 255 51 51
1.000000 1.750000 6.250000 255 51 51
1.000000 1.500000 6.500000 255 51 51
4.500000 1.000000 6.500000 255 204 102
5.000000 1.500000 6.500000 255 204 102
-3.500000 -2.000000 6.500000 255 204 102
-4.000000 -2.000000 7.000000 255 204 102
-4.000000 -2.500000 6.500000 255 204 102
4.000000 -2.000000 7.000000 255 204 102
3.500000 -2.000000 6.500000 255 204 102
4.000000 -2.500000 6.500000 255 204 102
-4.000000 -1.000000 7.000000 255 204 102
-5.000000 -2.000000 7.000000 255 204 102
5.000000 -2.000000 7.000000 255 204 102
4.000000 -1.000000 7.000000 255 204 102
-2.000000 -2.500000 16.500000 255 204 102
0.000000 -2.500000 16.500000 255 204 102
-1.000000 -2.500000 17.500000 255 204 102
0.500000 -2.500000 21.000000 255 255 102
0.000000 -2.500000 21.500000 255 255 102
-0.500000 -2.500000 21.000000 255 255 102
1.000000 -0.500000 10.500000 255 51 51
1.000000 -1.500000 11.500000 255 51 51
0.000000 -0.500000 11.500000 255 51 51
5.000000 -1.000000 11.000000 255 204 102
4.500000 -1.000000 10.500000 255 204 102
5.000000 -1.500000 10.500000 255 204 102
-4.000000 -0.500000 11.500000 255 204 102
-5.000000 -0.500000 11.500000 255 204 102
-4.000000 0.000000 11.000000 255 204 102
4.500000 0.000000 10.500000 255 204 102
-3.500000 2.500000 11.000000 255 51 51
-3.250000 3.000000 10.750000 255 51 51
-3.000000 3.000000 11.000000 255 51 51
-3.500000 2.500000 11.000000 255 204 102
-3.750000 2.000000 10.750000 255 204 102
-4.000000 2.000000 11.000000 255 204 102
3.500000 2.500000 11.000000 255 51 51
3.000000 3.000000 11.000000 255 51 51
3.250000 3.000000 10.750000 255 51 51
3.500000 2.500000 11.000000 255 204 102
4.000000 2.000000 11.000000 255 204 102
3.750000 2.000000 10.750000 255 204 102
-1.000000 -1.500000 11.500000 255 51 51
-1.000000 -0.500000 10.500000 255 51 51
-0.500000 -2.000000 25.500000 255 255 102
-0.500000 2.000000 21.500000 255 255 102
-0.500000 -2.000000 21.500000 255 255 102
-1.000000 0.000000 4.000000 0 255 51
-0.500000 -1.500000 14.000000 255 204 102
-1.000000 -2.000000 14.000000 255 204 102
-1.000000 -1.750000 13.750000 255 204 102
0.500000 -1.500000 14.000000 255 204 102
1.000000 -1.750000 13.750000 255 204 102
1.000000 -2.000000 14.000000 255 204 102
-6.000000 0.000000 14.000000 255 204 102
-6.500000 0.000000 13.500000 255 204 102
-6.000000 -0.500000 13.500000 255 204 102
0.500000 2.500000 21.000000 255 255 102
-0.500000 2.500000 21.000000 255 255 102
0.000000 2.500000 21.500000 255 255 102
6.500000 0.000000 13.500000 255 204 102
6.000000 0.000000 14.000000 255 204 102
6.000000 -0.500000 13.500000 255 204 102
-2.500000 0.500000 14.000000 255 51 51
-3.000000 0.000000 14.000000 255 51 51
-2.750000 0.000000 14.250000 255 51 51
-1.500000 1.500000 14.000000 255 51 51
-1.833330 0.833333 14.333300 255 51 51
2.500000 0.500000 14.000000 255 51 51
2.750000 0.000000 14.250000 255 51 51
3.000000 0.000000 14.000000 255 51 51
2.500000 1.000000 8.500000 255 51 51
2.500000 2.000000 9.500000 255 51 51
2.500000 0.000000 9.500000 255 51 51
-1.000000 1.750000 14.250000 255 51 51
-1.000000 2.000000 14.000000 255 51 51
1.500000 1.500000 14.000000 255 51 51
1.000000 2.000000 14.000000 255 51 51
1.000000 1.750000 14.250000 255 51 51
-2.500000 2.000000 9.500000 255 51 51
-2.500000 1.000000 8.500000 255 51 51
-2.500000 0.000000 9.500000 255 51 51
-6.000000 2.500000 13.500000 255 204 102
-6.500000 2.000000 13.500000 255 204 102
-6.000000 2.000000 14.000000 255 204 102
6.500000 2.000000 13.500000 255 204 102
6.000000 2.500000 13.500000 255 204 102
6.000000 2.000000 14.000000 255 204 102
-1.000000 1.500000 14.500000 255 204 102
-1.000000 1.500000 15.500000 255 204 102
0.000000 1.500000 14.500000 255 204 102
1.000000 1.500000 14.500000 255 204 102
1.000000 1.500000 15.500000 255 204 102
1.000000 0.000000 4.000000 0 255 51
0.000000 -4.500000 17.500000 255 204 102
-0.500000 -4.000000 17.500000 255 204 102
0.000000 -4.000000 17.000000 255 204 102
0.500000 -4.000000 17.500000 255 204 102
-0.500000 -3.000000 17.500000 255 204 102
-0.500000 -3.000000 18.500000 255 204 102
0.500000 -3.000000 17.500000 255 204 102
0.500000 -3.000000 18.500000 255 204 102
2.000000 -2.500000 16.500000 255 204 102
1.000000 -2.500000 17.500000 255 204 102
-1.500000 -1.500000 18.000000 255 204 102
-1.500000 -2.000000 17.500000 255 204 102
-1.500000 -2.000000 18.000000 255 204 102
1.500000 -1.500000 18.000000 255 204 102
1.500000 -2.000000 18.000000 255 204 102
1.500000 -2.000000 17.500000 255 204 102
0.500000 2.000000 21.500000 255 255 102
0.500000 -2.000000 25.500000 255 255 102
0.500000 -2.000000 21.500000 255 255 102
1.833330 0.833333 14.333300 255 51 51
0.000000 -2.000000 26.000000 255 255 102
0.000000 -2.500000 25.500000 255 255 102
2.500000 0.000000 14.500000 255 204 102
2.500000 0.000000 15.500000 255 204 102
2.000000 1.500000 6.000000 255 51 51
2.000000 1.500000 8.500000 255 51 51
1.500000 -2.000000 18.000000 204 255 255
0.750000 -2.750000 18.500000 204 255 255
0.750000 -2.750000 18.000000 204 255 255
-2.500000 0.000000 14.500000 255 204 102
-2.500000 0.000000 15.500000 255 204 102
-2.000000 0.500000 6.000000 255 51 51
-2.500000 1.000000 6.000000 255 51 51
-3.000000 -1.500000 11.500000 255 51 51
-1.000000 -4.500000 15.500000 255 204 102
-2.500000 -3.000000 14.500000 255 204 102
-1.000000 -4.500000 14.500000 255 204 102
2.500000 -3.000000 15.500000 255 204 102
1.000000 -4.500000 14.500000 255 204 102
2.500000 -3.000000 14.500000 255 204 102
-3.000000 3.500000 12.500000 255 51 51
-3.750000 2.750000 13.500000 255 51 51
-3.000000 3.500000 13.500000 255 51 51
1.000000 1.750000 6.250000 0 255 51
2.500000 -1.750000 13.750000 255 51 51
1.000000 -1.500000 13.500000 255 51 51
3.000000 -1.500000 13.500000 255 51 51
3.750000 -0.750000 11.500000 255 51 51
3.750000 -0.750000 13.500000 255 51 51
-5.000000 1.500000 7.500000 255 204 102
-4.500000 1.000000 7.500000 255 204 102
-2.500000 -1.000000 17.500000 255 204 102
-2.500000 -3.000000 15.500000 255 204 102
-4.500000 0.000000 6.500000 255 204 102
-3.500000 -1.000000 6.500000 255 204 102
2.000000 0.500000 1.500000 0 255 51
2.000000 0.250000 1.250000 0 255 51
-2.500000 0.000000 0.500000 255 255 0
1.500000 2.000000 20.500000 255 204 102
0.750000 -2.000000 21.250000 255 204 102
1.500000 -2.000000 20.500000 255 204 102
-6.500000 1.000000 6.500000 255 204 102
-6.000000 0.500000 5.500000 255 204 102
6.000000 -0.500000 11.500000 255 204 102
6.500000 0.000000 11.500000 255 204 102
-4.000000 2.500000 13.500000 255 204 102
-3.750000 2.750000 12.500000 255 204 102
-4.000000 2.500000 12.500000 255 204 102
-4.000000 -1.000000 6.000000 255 204 102
-6.000000 -0.500000 11.500000 255 204 102
-4.000000 -0.500000 13.500000 255 204 102
-4.000000 0.000000 14.000000 255 204 102
4.500000 0.000000 6.500000 255 204 102
4.000000 -1.000000 6.000000 255 204 102
3.500000 -1.000000 6.500000 255 204 102
0.000000 -3.000000 17.000000 255 204 102
-1.500000 -2.000000 18.000000 204 255 255
-0.750000 -2.750000 18.500000 204 255 255
-1.500000 -2.000000 18.500000 204 255 255
1.000000 -4.000000 14.000000 255 204 102
-1.000000 -4.000000 14.000000 255 204 102
-3.000000 -1.000000 14.000000 255 51 51
-3.000000 -1.500000 13.500000 255 51 51
-2.500000 -1.500000 14.000000 255 51 51
-1.500000 2.000000 18.500000 255 204 102
-2.000000 2.500000 17.500000 255 204 102
-2.500000 2.000000 17.500000 255 204 102
2.500000 0.000000 0.500000 255 255 0
0.000000 2.500000 15.500000 255 204 102
-5.000000 -2.500000 5.500000 255 204 102
4.000000 0.000000 11.000000 255 204 102
4.500000 2.000000 10.500000 255 204 102
3.000000 3.500000 13.500000 255 51 51
3.750000 2.750000 12.500000 255 51 51
3.000000 3.500000 12.500000 255 51 51
-5.000000 -1.500000 10.500000 255 204 102
-6.000000 -1.500000 10.500000 255 204 102
-1.500000 -1.000000 18.500000 255 204 102
3.000000 3.000000 14.000000 255 51 51
3.750000 2.750000 13.500000 255 51 51
4.000000 -0.500000 13.500000 255 204 102
4.000000 0.000000 14.000000 255 204 102
-3.500000 -0.500000 14.000000 255 204 102
-2.000000 1.500000 6.000000 255 51 51
-2.000000 1.500000 8.500000 255 51 51
-1.500000 0.000000 0.500000 255 255 0
-2.000000 0.000000 1.000000 255 255 0
-1.500000 0.500000 1.000000 255 255 0
-2.000000 0.250000 1.250000 255 255 0
4.000000 -2.000000 6.000000 255 204 102
6.500000 3.000000 9.500000 255 204 102
6.000000 3.500000 11.500000 255 204 102
6.500000 3.000000 11.500000 255 204 102
-3.750000 -0.750000 13.500000 255 204 102
-6.500000 0.000000 11.500000 255 204 102
6.000000 0.500000 5.500000 255 204 102
6.500000 0.000000 5.500000 255 204 102
1.000000 -2.500000 20.500000 255 204 102
-0.500000 -2.500000 21.000000 255 204 102
-1.000000 -2.500000 20.500000 255 204 102
2.000000 -3.000000 14.000000 255 204 102
2.000000 -2.000000 14.000000 255 204 102
2.500000 -1.500000 14.000000 255 204 102
2.500000 -1.000000 14.500000 255 204 102
-3.750000 0.000000 10.750000 255 51 51
4.000000 2.500000 13.500000 255 204 102
3.500000 2.500000 14.000000 255 204 102
4.000000 2.000000 14.000000 255 204 102
-4.500000 -2.000000 5.500000 255 204 102
-5.000000 -1.000000 6.000000 255 204 102
-4.000000 -2.000000 6.000000 255 204 102
3.500000 -0.500000 14.000000 255 204 102
3.750000 -0.750000 13.500000 255 204 102
3.000000 -1.000000 14.000000 255 51 51
3.500000 -0.500000 14.000000 255 51 51
5.000000 -2.500000 5.500000 255 204 102
6.000000 -2.500000 6.500000 255 204 102
2.000000 2.500000 9.500000 255 51 51
6.500000 0.000000 8.500000 255 204 102
2.000000 0.000000 1.000000 255 255 0
2.500000 0.500000 1.000000 255 255 0
2.000000 0.250000 1.250000 255 255 0
-3.500000 -0.500000 11.000000 255 204 102
-2.000000 1.500000 1.000000 255 255 0
1.500000 -2.000000 18.500000 204 255 255
1.500000 -1.500000 18.000000 204 255 255
1.500000 -1.500000 19.000000 204 255 255
2.750000 0.000000 14.250000 255 204 102
2.500000 1.000000 1.000000 255 255 0
5.000000 -0.500000 8.500000 255 204 102
4.500000 -1.000000 9.500000 255 204 102
4.500000 0.000000 8.500000 255 204 102
1.500000 0.000000 0.500000 255 255 0
6.000000 -0.500000 8.500000 255 204 102
2.000000 0.500000 8.500000 255 51 51
2.500000 1.000000 6.000000 255 51 51
0.750000 -2.000000 21.250000 255 255 102
-5.500000 -1.000000 4.500000 255 204 102
4.500000 -2.000000 5.500000 255 204 102
5.000000 -1.000000 6.000000 255 204 102
5.500000 -1.000000 5.500000 255 204 102
-4.500000 -1.000000 10.500000 255 204 102
-3.000000 3.000000 14.000000 255 51 51
4.000000 2.500000 12.500000 255 204 102
3.750000 2.750000 13.500000 255 204 102
2.500000 2.000000 17.500000 255 204 102
1.500000 -1.000000 18.500000 255 204 102
2.500000 -1.000000 17.500000 255 204 102
5.500000 0.000000 5.500000 255 204 102
-1.500000 -2.500000 19.000000 204 255 255
-0.833333 -2.833330 18.666700 204 255 255
-6.000000 -1.500000 9.500000 255 204 102
-6.500000 -1.000000 10.500000 255 204 102
-6.500000 -1.000000 9.500000 255 204 102
1.500000 0.500000 1.000000 255 255 0
-3.750000 -0.750000 13.500000 255 51 51
-2.000000 -3.000000 16.000000 255 204 102
2.000000 -3.000000 16.000000 255 204 102
6.500000 1.000000 6.500000 255 204 102
-1.000000 0.000000 6.000000 0 255 51
0.500000 -2.500000 21.000000 255 204 102
1.000000 2.500000 18.500000 255 204 102
1.500000 2.000000 18.500000 255 204 102
-6.000000 3.500000 11.500000 255 204 102
-4.000000 3.500000 11.500000 255 204 102
-6.000000 -0.500000 8.500000 255 204 102
-6.500000 0.000000 8.500000 255 204 102
4.000000 -0.500000 11.500000 255 204 102
3.500000 -0.500000 11.000000 255 204 102
-2.000000 -0.500000 9.500000 255 51 51
-2.000000 0.500000 8.500000 255 51 51
0.750000 -2.750000 18.000000 255 204 102
4.000000 3.500000 11.500000 255 204 102
-3.833330 2.833330 12.333300 255 204 102
3.500000 3.500000 12.000000 255 51 51
2.000000 1.500000 1.000000 0 255 51
6.500000 2.000000 12.500000 255 204 102
6.000000 3.500000 9.500000 255 204 102
5.000000 1.500000 7.500000 255 204 102
5.000000 3.500000 9.500000 255 204 102
-2.000000 1.500000 4.500000 0 255 51
3.750000 -0.750000 11.500000 255 204 102
-6.000000 1.500000 7.500000 255 204 102
-6.500000 1.000000 7.500000 255 204 102
6.000000 1.500000 7.500000 255 204 102
6.500000 1.000000 7.500000 255 204 102
-6.000000 3.500000 9.500000 255 204 102
-6.500000 3.000000 11.500000 255 204 102
-2.500000 0.500000 1.000000 255 255 0
-1.500000 -1.500000 18.000000 204 255 255
3.000000 3.500000 11.500000 255 51 51
3.833330 2.833330 12.333300 255 204 102
3.000000 -1.500000 11.500000 255 51 51
-3.500000 3.500000 12.000000 255 51 51
-3.750000 2.750000 12.500000 255 51 51
-5.000000 -1.500000 9.500000 255 204 102
-5.000000 3.500000 9.500000 255 204 102
-1.000000 -4.000000 16.000000 255 204 102
0.500000 -1.500000 14.000000 255 51 51
0.166667 -0.833333 13.666700 255 51 51
-6.000000 1.500000 6.500000 255 204 102
-6.500000 2.000000 12.500000 255 204 102
-6.500000 -2.000000 6.500000 255 204 102
-6.000000 -2.500000 6.500000 255 204 102
3.250000 3.000000 10.750000 255 204 102
2.500000 -1.750000 13.750000 255 204 102
6.000000 -1.500000 9.500000 255 204 102
5.000000 -1.500000 9.500000 255 204 102
-1.500000 1.000000 1.000000 255 255 0
-6.500000 3.000000 9.500000 255 204 102
-1.000000 2.500000 20.500000 255 204 102
-1.500000 2.000000 20.500000 255 204 102
3.000000 -0.500000 10.500000 255 51 51
-2.750000 -1.000000 14.250000 255 204 102
-2.500000 -1.000000 14.500000 255 204 102
-0.166667 -0.833333 13.666700 255 51 51
-1.000000 -1.500000 13.500000 255 51 51
0.000000 -0.500000 13.500000 255 51 51
-2.000000 0.500000 1.500000 0 255 51
-2.000000 0.250000 1.250000 0 255 51
4.500000 -1.000000 7.500000 255 204 102
2.000000 1.500000 1.000000 255 255 0
-5.000000 -0.500000 8.500000 255 204 102
-4.500000 -1.000000 9.500000 255 204 102
-5.500000 0.000000 5.500000 255 204 102
-5.500000 -1.000000 5.500000 255 204 102
-0.750000 2.000000 21.250000 255 255 102
6.000000 2.500000 12.500000 255 204 102
5.500000 -1.000000 4.500000 255 204 102
-2.000000 1.500000 1.000000 0 255 51
1.000000 2.500000 20.500000 255 204 102
0.750000 2.000000 21.250000 255 204 102
-2.000000 -2.000000 14.000000 255 204 102
-2.000000 -3.000000 14.000000 255 204 102
-6.500000 0.000000 5.500000 255 204 102
-2.500000 -1.750000 13.750000 255 51 51
-1.000000 -1.750000 13.750000 255 51 51
1.000000 0.000000 6.000000 0 255 51
-1.000000 0.250000 6.250000 0 255 51
-4.500000 2.000000 10.500000 255 204 102
-3.250000 3.000000 10.750000 255 204 102
-0.750000 2.000000 21.250000 255 204 102
-1.500000 -2.000000 20.500000 255 204 102
-0.750000 -2.000000 21.250000 255 204 102
-1.500000 -1.500000 19.000000 255 204 102
0.166667 -0.833333 13.666700 255 204 102
0.000000 -1.000000 14.000000 255 204 102
0.000000 -0.750000 13.750000 255 204 102
6.500000 -2.000000 6.500000 255 204 102
-6.000000 2.500000 12.500000 255 204 102
2.000000 2.500000 17.500000 255 204 102
4.500000 3.000000 9.500000 255 204 102
3.500000 3.500000 11.000000 255 204 102
6.500000 -1.000000 10.500000 255 204 102
6.500000 -1.000000 9.500000 255 204 102
-4.500000 -1.000000 7.500000 255 204 102
-3.500000 3.500000 11.000000 255 51 51
-3.000000 3.500000 11.500000 255 51 51
2.000000 -0.500000 9.500000 255 51 51
4.500000 1.000000 7.500000 255 204 102
3.000000 2.500000 10.500000 255 51 51
-2.000000 2.500000 9.500000 255 51 51
-3.000000 2.500000 10.500000 255 51 51
3.500000 3.500000 11.000000 255 51 51
-3.000000 -0.500000 10.500000 255 51 51
-1.000000 1.750000 14.250000 255 204 102
1.000000 1.750000 14.250000 255 204 102
2.000000 1.500000 4.500000 0 255 51
-3.500000 2.500000 14.000000 255 204 102
-4.000000 2.000000 14.000000 255 204 102
2.500000 1.000000 6.000000 0 255 51
-0.750000 -2.750000 18.000000 255 204 102
3.750000 2.000000 10.750000 255 51 51
0.750000 2.000000 21.250000 255 255 102
-3.750000 2.750000 13.500000 255 204 102
-2.500000 -1.500000 14.000000 255 204 102
-0.166667 -0.833333 13.666700 255 204 102
1.000000 -4.000000 16.000000 255 204 102
6.000000 -1.500000 10.500000 255 204 102
1.500000 -2.500000 19.000000 204 255 255
-3.500000 3.500000 11.000000 255 204 102
-4.500000 3.000000 9.500000 255 204 102
0.833333 -2.833330 18.666700 255 204 102
1.833330 0.833333 14.333300 255 204 102
-1.000000 2.500000 18.500000 255 204 102
-1.500000 -3.000000 19.500000 255 204 102
-0.833333 -2.833330 18.666700 255 204 102
-2.500000 1.000000 6.000000 0 255 51
-4.500000 0.000000 8.500000 255 204 102
1.500000 -1.500000 19.000000 255 204 102
-1.833330 0.833333 14.333300 255 204 102
-1.000000 1.750000 6.250000 0 255 51
2.750000 -1.000000 14.250000 255 51 51
-3.750000 2.000000 10.750000 255 51 51
3.750000 0.000000 10.750000 255 51 51
3.500000 -0.500000 11.000000 255 51 51
1.000000 -4.500000 15.500000 255 204 102
1.000000 -1.750000 13.750000 255 51 51
6.000000 1.500000 6.500000 255 204 102
-0.750000 -2.750000 18.000000 204 255 255
-3.500000 -0.500000 14.000000 255 51 51
-2.750000 -1.000000 14.250000 255 51 51
3.500000 2.500000 14.000000 255 51 51
-3.750000 -0.750000 11.500000 255 204 102
2.750000 -1.000000 14.250000 255 204 102
2.500000 -1.500000 14.000000 255 51 51
-3.750000 0.000000 10.750000 255 204 102
-2.500000 1.000000 1.000000 255 255 0
2.000000 0.500000 6.000000 255 51 51
3.750000 0.000000 10.750000 255 204 102
-3.500000 2.500000 14.000000 255 51 51
3.750000 2.750000 12.500000 255 204 102
-3.750000 -0.750000 11.500000 255 51 51
1.500000 -3.000000 19.500000 255 204 102
0.750000 -2.750000 18.500000 255 204 102
-3.500000 3.500000 12.000000 255 204 102
3.833330 2.833330 12.333300 255 51 51
-1.500000 -1.500000 19.000000 204 255 255
3.500000 3.500000 12.000000 255 204 102
-3.833330 2.833330 12.333300 255 51 51
0.000000 -0.750000 13.750000 255 51 51
-0.750000 -2.000000 21.250000 255 255 102
-2.750000 0.000000 14.250000 255 204 102
-0.500000 -1.500000 14.000000 255 51 51
1.500000 1.000000 1.000000 255 255 0
0.500000 2.500000 21.000000 255 204 102
1.000000 0.250000 6.250000 0 255 51
-1.500000 -2.500000 19.000000 255 204 102
-3.500000 -0.500000 11.000000 255 51 51
-0.500000 2.500000 21.000000 255 204 102
-0.750000 -2.750000 18.500000 255 204 102
-2.500000 -1.750000 13.750000 255 204 102
0.833333 -2.833330 18.666700 204 255 255
1.500000 -2.500000 19.000000 255 204 102
2.500000 0.500000 14.000000 255 204 102
1.500000 1.500000 14.000000 255 204 102
-1.500000 1.500000 14.000000 255 204 102
-2.500000 0.500000 14.000000 255 204 102
3 0 1 2
3 3 0 2
3 4 5 6
3 7 4 6
3 8 9 10
3 11 8 10
3 12 13 14
3 15 12 14
3 1 0 16
3 16 0 3
3 17 5 4
3 7 17 4
3 18 19 20
3 21 22 23
3 24 25 26
3 27 28 29
3 30 31 32
3 33 34 35
3 36 37 38
3 39 40 41
3 42 43 44
3 35 45 38
3 46 47 48
3 49 50 51
3 44 41 52
3 53 54 55
3 56 53 55
3 57 58 59
3 60 57 59
3 61 62 63
3 62 64 63
3 64 65 63
3 63 65 66
3 67 68 69
3 69 68 70
3 70 68 71
3 68 72 71
3 73 63 74
3 75 76 68
3 73 74 77
3 76 75 78
3 79 80 81
3 82 83 84
3 85 86 87
3 88 89 64
3 90 91 92
3 93 70 94
3 95 96 97
3 98 99 100
3 101 85 102
3 103 104 105
3 106 107 108
3 109 110 111
3 112 113 114
3 98 115 116
3 117 118 119
3 120 121 122
3 118 123 124
3 120 125 126
3 127 128 129
3 130 131 132
3 133 134 135
3 136 137 138
3 139 140 141
3 137 136 142
3 143 144 145
3 146 147 148
3 149 150 151
3 152 153 154
3 155 156 135
3 157 158 159
3 61 63 160
3 161 162 163
3 164 165 166
3 167 168 169
3 170 171 172
3 173 174 175
3 176 177 178
3 179 176 180
3 181 182 183
3 184 185 186
3 179 187 188
3 189 190 191
3 192 193 194
3 195 196 197
3 198 199 200
3 201 202 203
3 204 203 205
3 68 67 206
3 207 208 209
3 210 207 209
3 211 208 212
3 213 214 210
3 128 215 216
3 217 218 219
3 220 221 222
3 223 224 225
3 189 226 181
3 227 157 228
3 224 227 228
3 229 205 230
3 50 81 46
3 184 231 232
3 233 234 235
3 202 236 237
3 238 193 239
3 240 156 155
3 241 242 243
3 244 245 246
3 247 248 249
3 77 250 78
3 251 252 253
3 253 254 255
3 101 256 257
3 127 258 259
3 116 99 98
3 260 123 261
3 262 24 263
3 16 264 1
3 265 266 267
3 268 87 269
3 173 270 271
3 272 273 274
3 275 260 261
3 169 276 140
3 167 277 278
3 279 280 281
3 282 216 213
3 283 284 285
3 286 243 287
3 288 289 290
3 291 292 293
3 294 17 7
3 124 119 118
3 295 203 202
3 33 37 296
3 297 298 142
3 299 300 301
3 302 276 303
3 293 304 291
3 46 80 47
3 305 306 299
3 307 174 308
3 15 294 12
3 277 309 278
3 310 193 311
3 75 63 73
3 8 312 2
3 126 279 281
3 313 314 315
3 122 121 316
3 317 318 319
3 41 43 39
3 42 44 52
3 224 131 225
3 139 320 277
3 169 321 276
3 60 322 323
3 188 191 190
3 206 48 160
3 324 325 326
3 246 286 327
3 25 71 72
3 35 37 33
3 328 329 330
3 27 210 214
3 331 192 194
3 332 333 334
3 335 336 337
3 307 338 339
3 117 275 261
3 340 255 341
3 342 43 343
3 51 46 48
3 79 62 80
3 311 344 232
3 345 317 271
3 346 347 348
3 141 349 139
3 262 30 32
3 86 269 87
3 9 350 10
3 351 352 353
3 330 354 229
3 14 355 15
3 356 357 358
3 17 359 5
3 119 335 337
3 125 360 356
3 361 362 184
3 225 130 363
3 297 154 153
3 206 63 68
3 364 53 56
3 312 16 3
3 365 366 367
3 140 368 141
3 248 369 249
3 370 371 332
3 307 270 175
3 372 373 374
3 366 375 367
3 376 284 377
3 81 83 79
3 27 208 207
3 367 40 365
3 378 379 380
3 197 272 195
3 346 381 359
3 382 240 289
3 383 384 128
3 99 385 322
3 88 62 386
3 266 387 324
3 129 282 211
3 388 265 389
3 390 274 391
3 210 282 213
3 392 380 393
3 394 395 297
3 280 121 281
3 361 396 397
3 213 398 214
3 370 318 399
3 274 400 391
3 300 401 301
3 336 275 337
3 402 26 25
3 100 322 375
3 374 222 215
3 403 199 198
3 404 405 406
3 63 407 74
3 307 408 394
3 409 268 410
3 385 411 412
3 413 414 390
3 313 415 264
3 416 283 285
3 247 301 417
3 399 418 370
3 253 134 419
3 420 421 247
3 422 303 378
3 423 390 391
3 424 384 383
3 252 425 426
3 159 132 131
3 427 85 87
3 195 428 196
3 369 299 249
3 1 264 2
3 242 287 243
3 392 429 430
3 431 298 152
3 69 83 82
3 83 386 79
3 328 165 432
3 261 118 117
3 120 281 121
3 394 142 136
3 433 138 434
3 314 11 435
3 411 116 405
3 28 326 29
3 410 393 436
3 437 291 438
3 134 439 419
3 236 440 441
3 10 435 11
3 49 206 67
3 75 77 78
3 442 443 444
3 445 18 446
3 447 356 358
3 13 448 14
3 449 450 422
3 364 451 452
3 453 159 158
3 454 319 318
3 49 69 82
3 223 170 172
3 39 365 40
3 199 370 332
3 171 453 158
3 455 41 40
3 56 269 451
3 411 317 412
3 422 392 449
3 147 141 148
3 282 208 211
3 23 22 456
3 457 458 265
3 242 459 460
3 269 54 461
3 462 443 463
3 375 455 367
3 445 21 23
3 464 465 386
3 409 436 413
3 322 58 375
3 114 108 107
3 466 467 146
3 468 469 470
3 471 438 304
3 472 473 474
3 343 42 475
3 155 289 240
3 272 476 195
3 66 445 23
3 98 279 115
3 477 389 372
3 407 456 19
3 360 434 356
3 406 478 479
3 480 433 481
3 124 482 449
3 451 336 452
3 199 334 200
3 145 483 484
3 368 422 450
3 270 480 271
3 133 485 439
3 245 241 243
3 486 358 298
3 487 488 489
3 150 490 151
3 250 109 76
3 160 47 61
3 194 491 331
3 287 162 166
3 409 423 256
3 492 203 493
3 429 33 430
3 494 68 76
3 434 137 357
3 328 246 327
3 62 47 80
3 278 495 496
3 364 38 45
3 360 475 345
3 468 437 438
3 494 497 32
3 6 359 12
3 54 45 34
3 498 211 212
3 134 444 135
3 82 50 49
3 487 499 185
3 500 225 363
3 272 495 501
3 92 97 96
3 57 455 58
3 71 32 497
3 502 441 440
3 473 503 474
3 334 308 200
3 241 504 424
3 198 174 173
3 288 178 177
3 270 136 505
3 414 476 390
3 318 404 406
3 258 237 441
3 506 234 351
3 69 93 464
3 405 115 486
3 369 188 190
3 280 366 316
3 507 467 508
3 256 427 409
3 459 163 162
3 205 477 372
3 360 481 433
3 28 214 509
3 335 37 36
3 244 330 230
3 510 204 229
3 381 13 359
3 511 388 295
3 276 379 303
3 141 466 148
3 512 513 29
3 512 29 326
3 514 19 65
3 444 155 135
3 415 9 264
3 92 96 361
3 515 257 466
3 373 265 516
3 517 236 201
3 260 85 101
3 150 489 145
3 77 74 518
3 452 36 364
3 347 15 355
3 114 107 311
3 183 519 340
3 520 143 489
3 197 168 167
3 131 157 159
3 521 522 439
3 185 521 186
3 229 204 205
3 50 84 81
3 184 362 231
3 233 351 234
3 202 201 236
3 238 397 193
3 240 491 156
3 241 259 242
3 244 523 245
3 247 421 248
3 77 518 250
3 251 524 252
3 253 419 254
3 101 102 256
3 241 424 383
3 127 129 218
3 259 241 383
3 127 218 258
3 259 383 127
3 304 258 217
3 218 217 258
3 116 525 99
3 260 482 123
3 262 25 24
3 16 313 264
3 265 458 266
3 269 461 268
3 268 427 87
3 173 175 270
3 272 501 273
3 275 86 260
3 140 139 277
3 277 169 140
3 167 169 277
3 279 100 280
3 282 128 216
3 283 526 284
3 286 245 243
3 462 290 289
3 288 527 382
3 290 528 288
3 382 289 288
3 291 511 292
3 294 346 17
3 124 449 392
3 430 119 124
3 124 392 430
3 237 293 202
3 292 295 202
3 202 293 292
3 430 33 296
3 296 119 430
3 297 153 298
3 299 306 300
3 302 140 276
3 293 258 304
3 46 81 80
3 305 529 306
3 307 175 174
3 6 12 294
3 294 7 6
3 277 320 309
3 310 239 193
3 75 68 63
3 3 2 312
3 8 11 312
3 126 447 279
3 313 312 314
3 316 365 342
3 342 122 316
3 317 404 318
3 41 44 43
3 52 57 60
3 60 42 52
3 224 228 131
3 139 530 320
3 169 168 321
3 60 59 322
3 188 187 191
3 206 51 48
3 324 387 325
3 246 245 286
3 25 262 71
3 35 38 37
3 328 432 329
3 329 531 330
3 27 207 210
3 331 520 192
3 332 371 333
3 335 452 336
3 307 308 338
3 117 337 275
3 340 519 532
3 532 251 253
3 253 255 340
3 340 532 253
3 342 39 43
3 343 122 342
3 51 50 46
3 79 386 62
3 311 488 344
3 198 173 403
3 271 480 481
3 345 475 323
3 271 481 345
3 403 173 271
3 317 319 271
3 323 385 412
3 412 317 345
3 403 271 319
3 42 60 323
3 323 412 345
3 475 42 323
3 346 294 347
3 530 139 349
3 141 533 349
3 262 263 30
3 86 451 269
3 9 534 350
3 351 233 352
3 353 506 351
3 330 531 354
3 14 448 355
3 356 434 357
3 17 346 359
3 337 117 119
3 119 296 335
3 125 120 122
3 343 360 125
3 125 122 343
3 361 535 362
3 225 131 130
3 297 536 154
3 206 160 63
3 364 45 53
3 312 313 16
3 365 316 366
3 140 302 368
3 248 537 369
3 370 538 371
3 307 394 270
3 372 389 373
3 366 100 375
3 376 285 284
3 81 84 83
3 27 212 208
3 367 455 40
3 378 303 379
3 197 496 272
3 346 348 381
3 382 539 240
3 215 128 384
3 127 383 128
3 323 322 385
3 99 525 385
3 386 465 88
3 88 64 62
3 28 540 324
3 267 266 324
3 324 540 267
3 129 128 282
3 388 457 265
3 390 476 274
3 210 209 282
3 392 378 380
3 536 297 395
3 394 408 395
3 280 316 121
3 361 485 396
3 213 216 398
3 222 221 216
3 398 541 214
3 216 221 398
3 370 454 318
3 274 273 400
3 400 542 391
3 300 543 401
3 336 86 275
3 25 72 494
3 494 402 25
3 100 99 322
3 244 374 215
3 374 373 220
3 504 523 244
3 384 504 244
3 374 220 222
3 222 216 215
3 215 384 244
3 403 454 199
3 404 411 405
3 63 66 407
3 307 339 408
3 409 427 268
3 385 525 411
3 413 436 414
3 313 315 415
3 544 416 285
3 285 376 544
3 483 420 484
3 247 249 299
3 301 401 417
3 247 299 301
3 484 420 247
3 401 490 417
3 417 484 247
3 399 545 418
3 418 538 370
3 253 252 134
3 420 546 421
3 422 302 303
3 542 507 391
3 423 413 390
3 391 507 423
3 424 504 384
3 444 252 426
3 524 425 252
3 426 547 444
3 159 548 132
3 427 102 85
3 195 476 428
3 369 305 299
3 8 2 264
3 264 9 8
3 242 460 287
3 392 393 429
3 153 152 298
3 431 478 298
3 69 464 83
3 83 464 386
3 328 166 165
3 261 123 118
3 120 126 281
3 394 297 142
3 433 505 138
3 314 312 11
3 411 525 116
3 28 324 326
3 414 436 321
3 410 268 461
3 461 54 34
3 34 429 461
3 393 380 379
3 321 168 428
3 393 379 321
3 461 429 393
3 428 414 321
3 410 461 393
3 393 321 436
3 196 428 168
3 437 511 291
3 134 133 439
3 236 549 440
3 10 350 435
3 49 51 206
3 75 73 77
3 442 550 443
3 463 443 550
3 444 547 442
3 445 19 18
3 447 126 125
3 125 356 447
3 13 551 448
3 449 515 450
3 364 56 451
3 453 548 159
3 454 403 319
3 49 67 69
3 172 227 223
3 223 500 170
3 227 224 223
3 39 342 365
3 199 454 370
3 157 227 158
3 172 171 158
3 158 227 172
3 455 52 41
3 56 55 269
3 411 404 317
3 422 378 392
3 147 533 141
3 282 209 208
3 456 407 23
3 66 23 407
3 457 552 458
3 242 441 459
3 269 55 54
3 462 289 443
3 375 58 455
3 445 446 21
3 464 553 465
3 409 410 436
3 322 59 58
3 114 113 108
3 146 148 466
3 466 508 467
3 468 438 469
3 471 554 469
3 512 469 554
3 438 291 304
3 304 217 471
3 471 469 438
3 472 164 473
3 343 43 42
3 155 443 289
3 272 274 476
3 66 65 445
3 98 100 279
3 477 388 389
3 19 514 407
3 104 74 407
3 514 105 104
3 456 20 19
3 514 104 407
3 360 433 434
3 406 405 478
3 478 431 479
3 405 486 478
3 480 505 433
3 124 123 482
3 482 515 449
3 451 86 336
3 199 332 334
3 145 144 483
3 368 302 422
3 270 505 480
3 133 135 156
3 156 491 396
3 396 485 133
3 133 156 396
3 245 523 241
3 137 142 357
3 298 478 486
3 486 115 279
3 279 447 358
3 358 357 142
3 142 298 358
3 486 279 358
3 487 344 488
3 150 417 490
3 111 76 109
3 78 250 76
3 160 48 47
3 555 331 491
3 194 193 397
3 397 396 194
3 491 240 555
3 539 555 240
3 194 396 491
3 166 328 327
3 327 286 166
3 287 460 162
3 162 161 164
3 460 459 162
3 166 286 287
3 161 473 164
3 164 166 162
3 409 413 423
3 204 493 203
3 492 201 203
3 429 34 33
3 494 72 68
3 434 138 137
3 328 330 246
3 62 61 47
3 197 167 278
3 278 309 495
3 496 197 278
3 364 36 38
3 360 343 475
3 468 556 437
3 494 76 111
3 111 110 497
3 32 31 402
3 111 497 494
3 32 402 494
3 13 12 359
3 6 5 359
3 35 34 45
3 54 53 45
3 498 219 129
3 218 129 219
3 212 557 498
3 498 129 211
3 134 252 444
3 82 84 50
3 184 232 185
3 487 150 149
3 185 232 344
3 149 499 487
3 344 487 185
3 500 223 225
3 272 496 495
3 92 91 97
3 57 52 455
3 497 94 70
3 71 262 32
3 497 70 71
3 502 558 459
3 459 441 502
3 473 161 503
3 334 333 338
3 308 174 200
3 334 338 308
3 241 523 504
3 198 200 174
3 288 528 178
3 138 505 136
3 270 394 136
3 414 428 476
3 406 479 399
3 399 318 406
3 479 545 399
3 242 259 441
3 258 293 237
3 237 236 441
3 441 259 258
3 506 559 234
3 553 464 93
3 69 70 93
3 405 116 115
3 189 529 305
3 183 340 341
3 341 529 183
3 305 369 190
3 537 527 177
3 177 176 537
3 527 288 177
3 183 529 181
3 190 189 305
3 537 176 179
3 537 179 369
3 181 529 189
3 179 188 369
3 280 100 366
3 257 256 508
3 423 507 508
3 508 256 423
3 256 102 427
3 459 558 163
3 205 203 295
3 295 477 205
3 372 230 205
3 360 345 481
3 560 540 509
3 28 27 214
3 214 541 509
3 509 540 28
3 335 296 37
3 372 374 230
3 244 246 330
3 330 229 230
3 230 374 244
3 354 561 229
3 510 562 204
3 493 204 562
3 229 561 510
3 381 551 13
3 511 437 388
3 556 552 457
3 388 477 295
3 556 457 437
3 295 292 511
3 437 457 388
3 276 321 379
3 141 368 466
3 27 29 212
3 512 554 513
3 513 557 212
3 212 29 513
3 325 470 326
3 469 512 326
3 326 470 469
3 65 64 514
3 89 514 64
3 19 445 65
3 444 443 155
3 415 534 9
3 361 397 92
3 238 90 92
3 96 95 535
3 397 238 92
3 96 535 361
3 368 450 515
3 515 482 260
3 260 101 257
3 257 508 466
3 466 368 515
3 515 260 257
3 373 389 265
3 265 267 516
3 540 560 267
3 516 220 373
3 267 560 516
3 492 563 201
3 517 564 236
3 549 236 564
3 201 563 517
3 260 86 85
3 145 484 417
3 150 487 489
3 145 417 150
3 103 518 74
3 74 104 103
3 452 335 36
3 347 294 15
3 311 232 114
3 231 112 114
3 107 106 310
3 232 231 114
3 107 310 311
3 183 182 519
3 489 488 192
3 311 193 192
3 192 520 489
3 143 145 489
3 488 311 192
3 197 196 168
3 131 228 157
3 439 485 186
3 361 184 186
3 186 521 439
3 522 254 419
3 485 361 186
3 522 419 439
3 185 499 521
