ply
format ascii 1.0
comment Created by Blender 2.78 (sub 0) - www.blender.org, source file: ''
element vertex 570
property float x
property float y
property float z
property uchar red
property uchar green
property uchar blue
element face 930
property list uchar uint vertex_indices
end_header
-2.000000 2.500000 0.500000 255 255 0
-2.500000 3.000000 0.500000 255 255 0
-2.000000 3.000000 0.000000 255 255 0
-1.500000 3.000000 0.500000 255 255 0
-1.000000 2.500000 5.500000 0 255 51
-1.000000 2.000000 5.000000 0 255 51
-2.000000 1.500000 5.500000 0 255 51
-2.500000 2.000000 9.500000 255 51 51
-2.500000 1.000000 8.500000 255 51 51
-2.500000 0.000000 9.500000 255 51 51
-2.000000 5.500000 2.500000 255 255 0
-2.500000 5.000000 2.500000 255 255 0
-2.000000 5.000000 3.000000 255 255 0
-1.500000 5.000000 2.500000 255 255 0
-6.000000 -4.500000 4.500000 255 204 102
-6.500000 -4.000000 4.500000 255 204 102
-6.000000 -4.000000 4.000000 255 204 102
-4.500000 -4.000000 4.500000 255 204 102
-5.000000 -4.500000 4.500000 255 204 102
-5.000000 -4.000000 4.000000 255 204 102
2.000000 -4.000000 4.000000 255 255 0
1.500000 -4.000000 3.500000 255 255 0
2.000000 -4.500000 3.500000 255 255 0
2.500000 -4.000000 3.500000 255 255 0
-6.000000 -3.000000 4.000000 255 204 102
-6.000000 -2.000000 4.000000 255 204 102
-6.500000 -2.000000 4.500000 255 204 102
-6.000000 -1.500000 4.500000 255 204 102
-5.500000 -2.000000 4.500000 255 204 102
-1.000000 -1.500000 4.500000 0 255 51
-1.500000 -1.000000 4.500000 0 255 51
-1.000000 -1.000000 4.000000 0 255 51
1.000000 -1.000000 4.000000 0 255 51
1.000000 0.000000 4.000000 0 255 51
2.000000 -0.500000 4.500000 0 255 51
1.500000 0.000000 3.500000 0 255 51
1.500000 -1.000000 3.500000 0 255 51
5.000000 1.500000 4.500000 255 204 102
4.500000 2.000000 4.500000 255 204 102
5.000000 2.000000 4.000000 255 204 102
6.500000 2.000000 4.500000 255 204 102
6.000000 1.500000 4.500000 255 204 102
6.000000 2.000000 4.000000 255 204 102
6.000000 3.000000 4.000000 255 204 102
6.000000 4.000000 4.000000 255 204 102
5.500000 4.000000 4.500000 255 204 102
6.000000 4.500000 4.500000 255 204 102
6.500000 4.000000 4.500000 255 204 102
0.000000 -3.500000 18.500000 255 204 102
1.000000 -3.500000 19.500000 255 204 102
-1.000000 -3.500000 19.500000 255 204 102
0.500000 2.500000 21.000000 255 255 102
-0.500000 2.500000 21.000000 255 255 102
0.000000 2.500000 21.500000 255 255 102
1.500000 -1.000000 5.500000 0 255 51
1.500000 -1.000000 4.500000 0 255 51
1.500000 0.000000 5.500000 0 255 51
-1.500000 0.000000 4.500000 0 255 51
-1.500000 0.000000 5.500000 0 255 51
-1.000000 1.000000 5.000000 0 255 51
-2.000000 0.500000 5.500000 0 255 51
-2.000000 0.500000 4.500000 0 255 51
-1.500000 2.000000 4.500000 0 255 51
-1.500000 1.000000 4.500000 0 255 51
1.000000 2.000000 5.000000 0 255 51
1.500000 2.000000 5.500000 0 255 51
1.000000 1.000000 5.000000 0 255 51
1.000000 2.500000 5.500000 0 255 51
0.500000 -2.500000 21.000000 255 255 102
0.000000 -2.500000 21.500000 255 255 102
-0.500000 -2.500000 21.000000 255 255 102
-1.000000 -1.000000 6.000000 0 255 51
-1.500000 -1.000000 5.500000 0 255 51
-1.000000 -1.500000 5.500000 0 255 51
1.000000 -1.000000 6.000000 0 255 51
1.000000 -1.500000 5.500000 0 255 51
-3.500000 -1.000000 6.500000 255 204 102
-4.000000 -1.000000 6.000000 255 204 102
-4.000000 -0.500000 6.500000 255 204 102
-1.500000 0.500000 6.000000 0 255 51
-2.000000 0.500000 6.000000 0 255 51
-1.500000 0.500000 6.000000 255 51 51
-1.000000 0.250000 6.250000 255 51 51
-1.000000 0.500000 6.500000 255 51 51
1.500000 0.500000 6.000000 0 255 51
2.000000 0.500000 5.500000 0 255 51
2.000000 0.500000 6.000000 0 255 51
1.500000 0.500000 6.000000 255 51 51
1.000000 0.500000 6.500000 255 51 51
1.000000 0.250000 6.250000 255 51 51
4.000000 0.500000 6.500000 255 204 102
3.500000 1.000000 6.500000 255 204 102
4.000000 1.000000 6.000000 255 204 102
-1.500000 1.500000 6.000000 0 255 51
-2.000000 1.500000 6.000000 0 255 51
-1.500000 1.500000 6.000000 255 51 51
-1.000000 1.500000 6.500000 255 51 51
-1.000000 1.750000 6.250000 255 51 51
1.500000 1.500000 6.000000 0 255 51
2.000000 1.500000 6.000000 0 255 51
2.000000 1.500000 5.500000 0 255 51
1.500000 1.500000 6.000000 255 51 51
1.000000 1.750000 6.250000 255 51 51
1.000000 1.500000 6.500000 255 51 51
6.000000 4.500000 6.500000 255 204 102
6.000000 4.500000 5.500000 255 204 102
5.000000 4.500000 6.500000 255 204 102
-3.500000 -4.000000 6.500000 255 204 102
-4.000000 -4.000000 7.000000 255 204 102
-4.000000 -4.500000 6.500000 255 204 102
-4.500000 -3.000000 7.500000 255 204 102
-5.000000 -3.500000 7.500000 255 204 102
-4.500000 -3.000000 6.500000 255 204 102
4.000000 1.000000 7.000000 255 204 102
4.500000 1.000000 6.500000 255 204 102
5.000000 1.500000 6.500000 255 204 102
5.000000 1.500000 7.500000 255 204 102
4.000000 2.000000 7.000000 255 204 102
-4.500000 2.000000 9.500000 255 204 102
-5.000000 2.500000 9.500000 255 204 102
-4.500000 2.000000 10.500000 255 204 102
0.000000 -0.500000 11.500000 255 51 51
-1.000000 -1.500000 11.500000 255 51 51
-1.000000 -0.500000 10.500000 255 51 51
-4.000000 -0.500000 11.500000 255 204 102
-5.000000 -0.500000 11.500000 255 204 102
-4.000000 0.000000 11.000000 255 204 102
-1.000000 0.000000 4.000000 0 255 51
1.000000 -0.500000 10.500000 255 51 51
1.000000 -1.500000 11.500000 255 51 51
-3.500000 2.500000 11.000000 255 51 51
-3.250000 3.000000 10.750000 255 51 51
-3.000000 3.000000 11.000000 255 51 51
-3.500000 2.500000 11.000000 255 204 102
-3.750000 2.000000 10.750000 255 204 102
-4.000000 2.000000 11.000000 255 204 102
3.500000 2.500000 11.000000 255 51 51
3.000000 3.000000 11.000000 255 51 51
3.250000 3.000000 10.750000 255 51 51
3.500000 2.500000 11.000000 255 204 102
4.000000 2.000000 11.000000 255 204 102
3.750000 2.000000 10.750000 255 204 102
-2.000000 -2.500000 16.500000 255 204 102
0.000000 -2.500000 16.500000 255 204 102
-1.000000 -2.500000 17.500000 255 204 102
2.000000 -2.500000 16.500000 255 204 102
1.000000 -2.500000 17.500000 255 204 102
-0.500000 -1.500000 14.000000 255 204 102
-1.000000 -2.000000 14.000000 255 204 102
-1.000000 -1.750000 13.750000 255 204 102
0.500000 -1.500000 14.000000 255 204 102
1.000000 -1.750000 13.750000 255 204 102
1.000000 -2.000000 14.000000 255 204 102
-6.000000 0.000000 14.000000 255 204 102
-6.500000 0.000000 13.500000 255 204 102
-6.000000 -0.500000 13.500000 255 204 102
-4.500000 -1.000000 7.500000 255 204 102
-4.500000 -2.000000 6.500000 255 204 102
6.500000 0.000000 13.500000 255 204 102
6.000000 0.000000 14.000000 255 204 102
6.000000 -0.500000 13.500000 255 204 102
-2.500000 0.500000 14.000000 255 51 51
-3.000000 0.000000 14.000000 255 51 51
-2.750000 0.000000 14.250000 255 51 51
-1.833330 0.833333 14.333300 255 51 51
-1.500000 1.500000 14.000000 255 51 51
2.500000 1.000000 8.500000 255 51 51
2.500000 2.000000 9.500000 255 51 51
2.500000 0.000000 9.500000 255 51 51
2.500000 0.500000 14.000000 255 51 51
2.750000 0.000000 14.250000 255 51 51
3.000000 0.000000 14.000000 255 51 51
-1.000000 1.750000 14.250000 255 51 51
-1.000000 2.000000 14.000000 255 51 51
1.500000 1.500000 14.000000 255 51 51
1.000000 2.000000 14.000000 255 51 51
1.000000 1.750000 14.250000 255 51 51
-6.000000 2.500000 13.500000 255 204 102
-6.500000 2.000000 13.500000 255 204 102
-6.000000 2.000000 14.000000 255 204 102
-6.000000 -1.000000 6.000000 255 204 102
-5.000000 -2.000000 6.000000 255 204 102
6.500000 2.000000 13.500000 255 204 102
6.000000 2.500000 13.500000 255 204 102
6.000000 2.000000 14.000000 255 204 102
-0.500000 -2.000000 21.500000 255 255 102
-0.500000 -2.000000 25.500000 255 255 102
-0.500000 2.000000 21.500000 255 255 102
-1.000000 1.500000 14.500000 255 204 102
-1.000000 1.500000 15.500000 255 204 102
0.000000 1.500000 14.500000 255 204 102
1.000000 1.500000 14.500000 255 204 102
1.000000 1.500000 15.500000 255 204 102
0.000000 -4.500000 17.500000 255 204 102
-0.500000 -4.000000 17.500000 255 204 102
0.000000 -4.000000 17.000000 255 204 102
0.500000 -4.000000 17.500000 255 204 102
-0.500000 -3.000000 17.500000 255 204 102
-0.500000 -3.000000 18.500000 255 204 102
0.500000 -3.000000 17.500000 255 204 102
0.500000 -3.000000 18.500000 255 204 102
-1.500000 -1.500000 18.000000 255 204 102
-1.500000 -2.000000 17.500000 255 204 102
-1.500000 -2.000000 18.000000 255 204 102
1.500000 -1.500000 18.000000 255 204 102
1.500000 -2.000000 18.000000 255 204 102
1.500000 -2.000000 17.500000 255 204 102
0.500000 -2.000000 21.500000 255 255 102
0.500000 2.000000 21.500000 255 255 102
0.500000 -2.000000 25.500000 255 255 102
1.833330 0.833333 14.333300 255 51 51
0.000000 -2.000000 26.000000 255 255 102
0.000000 -2.500000 25.500000 255 255 102
1.500000 2.000000 20.500000 255 204 102
0.750000 -2.000000 21.250000 255 204 102
1.500000 -2.000000 20.500000 255 204 102
-2.000000 3.500000 1.500000 255 255 0
-1.500000 3.500000 2.000000 255 255 0
-2.000000 3.250000 1.750000 255 255 0
2.500000 -1.500000 14.000000 255 204 102
2.500000 -1.000000 14.500000 255 204 102
2.000000 -2.000000 14.000000 255 204 102
-4.500000 1.000000 8.500000 255 204 102
-5.000000 0.000000 8.000000 255 204 102
-5.000000 1.000000 8.000000 255 204 102
6.000000 1.500000 7.500000 255 204 102
6.000000 -0.500000 9.500000 255 204 102
6.500000 0.000000 9.500000 255 204 102
-3.750000 2.750000 13.500000 255 51 51
-3.000000 3.500000 12.500000 255 51 51
-3.750000 2.750000 12.500000 255 51 51
-2.500000 0.000000 15.500000 255 204 102
-2.500000 0.000000 14.500000 255 204 102
-5.000000 -0.500000 7.500000 255 204 102
-2.000000 -0.500000 9.500000 255 51 51
2.000000 0.500000 8.500000 255 51 51
2.000000 -0.500000 9.500000 255 51 51
2.000000 -3.000000 3.000000 255 255 0
2.500000 -2.500000 2.500000 255 255 0
2.000000 -2.500000 3.000000 255 255 0
-5.500000 -3.000000 5.500000 255 204 102
3.750000 0.000000 10.750000 255 204 102
3.000000 3.000000 14.000000 255 51 51
3.750000 2.750000 13.500000 255 51 51
3.000000 3.500000 13.500000 255 51 51
-3.750000 2.000000 10.750000 255 51 51
-0.750000 -2.750000 18.000000 204 255 255
-1.500000 -2.000000 18.500000 204 255 255
-1.500000 -2.000000 18.000000 204 255 255
-2.750000 -1.000000 14.250000 255 51 51
-2.000000 1.500000 6.000000 255 51 51
-2.000000 1.500000 8.500000 255 51 51
-6.500000 3.000000 10.500000 255 204 102
-6.000000 1.000000 8.000000 255 204 102
-6.500000 1.000000 8.500000 255 204 102
6.500000 4.000000 6.500000 255 204 102
6.000000 3.500000 7.500000 255 204 102
6.500000 3.000000 7.500000 255 204 102
2.000000 1.500000 8.500000 255 51 51
2.500000 1.000000 6.000000 255 51 51
2.000000 1.500000 6.000000 255 51 51
3.500000 2.000000 6.500000 255 204 102
2.000000 -1.250000 1.750000 255 255 0
2.500000 -2.000000 1.500000 255 255 0
2.000000 -2.000000 1.000000 255 255 0
-2.500000 -1.500000 14.000000 255 51 51
-3.000000 -1.000000 14.000000 255 51 51
-3.000000 -1.500000 13.500000 255 51 51
1.000000 0.000000 6.000000 0 255 51
1.000000 2.500000 20.500000 255 204 102
0.750000 2.000000 21.250000 255 204 102
2.500000 -4.000000 2.500000 255 255 0
2.000000 -4.500000 2.500000 255 255 0
-6.000000 0.000000 8.000000 255 204 102
-6.000000 -0.500000 7.500000 255 204 102
-3.750000 -0.750000 13.500000 255 204 102
-4.000000 -0.500000 13.500000 255 204 102
2.500000 -1.000000 17.500000 255 204 102
-1.500000 4.000000 0.500000 255 255 0
-2.000000 4.000000 0.000000 255 255 0
4.000000 2.500000 13.500000 255 204 102
3.000000 -1.000000 14.000000 255 51 51
3.750000 -0.750000 13.500000 255 51 51
3.500000 -0.500000 14.000000 255 51 51
3.500000 2.500000 14.000000 255 204 102
4.000000 2.000000 14.000000 255 204 102
2.000000 -3.000000 16.000000 255 204 102
-1.500000 2.000000 18.500000 255 204 102
-2.000000 2.500000 17.500000 255 204 102
-2.500000 2.000000 17.500000 255 204 102
-6.000000 -0.500000 11.500000 255 204 102
-6.500000 -1.000000 10.500000 255 204 102
-6.000000 -1.500000 10.500000 255 204 102
4.500000 2.000000 5.500000 255 204 102
2.500000 -2.000000 2.500000 0 255 51
2.000000 -2.500000 3.000000 0 255 51
2.500000 -2.500000 2.500000 0 255 51
5.500000 3.000000 4.500000 255 204 102
4.500000 2.000000 7.500000 255 204 102
-4.500000 -1.000000 10.500000 255 204 102
0.000000 -3.000000 17.000000 255 204 102
-1.000000 -4.500000 15.500000 255 204 102
-2.500000 -3.000000 14.500000 255 204 102
-1.000000 -4.500000 14.500000 255 204 102
4.500000 3.000000 6.500000 255 204 102
3.750000 2.750000 12.500000 255 51 51
3.500000 3.500000 12.000000 255 51 51
3.000000 3.500000 12.500000 255 51 51
2.000000 -2.000000 3.000000 0 255 51
-3.500000 3.500000 11.000000 255 51 51
-3.000000 3.500000 11.500000 255 51 51
1.000000 -1.500000 4.500000 0 255 51
5.000000 -0.500000 9.500000 255 204 102
1.500000 -1.000000 18.500000 255 204 102
2.500000 2.000000 17.500000 255 204 102
1.500000 2.000000 18.500000 255 204 102
-4.000000 2.000000 14.000000 255 204 102
-2.500000 -1.000000 17.500000 255 204 102
-1.500000 -1.000000 18.500000 255 204 102
-4.500000 -1.000000 9.500000 255 204 102
-5.000000 -1.500000 10.500000 255 204 102
-5.000000 -1.500000 9.500000 255 204 102
2.000000 1.500000 4.500000 0 255 51
-5.500000 -3.000000 4.500000 255 204 102
-2.500000 5.000000 1.500000 255 255 0
-2.500000 4.000000 0.500000 255 255 0
1.000000 -4.000000 14.000000 255 204 102
2.500000 -3.000000 14.500000 255 204 102
1.000000 -4.500000 14.500000 255 204 102
1.500000 -2.000000 18.500000 204 255 255
1.500000 -1.500000 18.000000 204 255 255
1.500000 -1.500000 19.000000 204 255 255
3.000000 3.500000 11.500000 255 51 51
5.500000 3.000000 5.500000 255 204 102
4.000000 -0.500000 13.500000 255 204 102
3.750000 -0.750000 11.500000 255 204 102
4.000000 -0.500000 11.500000 255 204 102
-3.000000 -1.500000 11.500000 255 51 51
-3.750000 -0.750000 13.500000 255 51 51
-3.750000 -0.750000 11.500000 255 51 51
0.750000 -2.750000 18.000000 204 255 255
0.750000 -2.750000 18.500000 204 255 255
3.500000 3.500000 11.000000 255 51 51
1.000000 -4.500000 15.500000 255 204 102
-1.000000 -4.000000 16.000000 255 204 102
-6.500000 -2.000000 5.500000 255 204 102
-4.000000 2.500000 13.500000 255 204 102
-3.500000 2.500000 14.000000 255 204 102
-3.750000 2.750000 13.500000 255 204 102
-2.500000 3.500000 2.000000 255 255 0
-2.500000 4.000000 1.500000 255 255 0
4.000000 0.000000 14.000000 255 204 102
1.500000 -2.000000 1.500000 255 255 0
2.000000 -3.000000 1.000000 255 255 0
1.500000 -3.000000 1.500000 255 255 0
-2.000000 2.500000 9.500000 255 51 51
-2.000000 5.500000 1.500000 255 255 0
-1.500000 5.000000 1.500000 255 255 0
4.500000 0.000000 10.500000 255 204 102
5.000000 -0.500000 10.500000 255 204 102
2.500000 1.000000 6.000000 0 255 51
4.000000 0.000000 11.000000 255 204 102
-4.500000 -4.000000 5.500000 255 204 102
-3.000000 3.500000 13.500000 255 51 51
-1.500000 -2.000000 20.500000 255 204 102
-0.750000 2.000000 21.250000 255 204 102
-1.500000 2.000000 20.500000 255 204 102
-5.000000 -4.500000 5.500000 255 204 102
0.750000 2.000000 21.250000 255 255 102
0.750000 -2.000000 21.250000 255 255 102
4.500000 0.000000 9.500000 255 204 102
-2.500000 -3.000000 15.500000 255 204 102
2.000000 0.500000 6.000000 255 51 51
1.500000 -3.000000 2.500000 255 255 0
1.500000 -2.500000 2.500000 255 255 0
0.000000 -0.500000 13.500000 255 51 51
-6.000000 -1.500000 9.500000 255 204 102
-2.500000 4.000000 2.500000 0 255 51
-2.000000 4.500000 3.000000 0 255 51
-2.500000 4.500000 2.500000 0 255 51
-1.000000 2.500000 18.500000 255 204 102
2.500000 -3.000000 1.500000 255 255 0
-3.750000 0.000000 10.750000 255 204 102
1.000000 -2.500000 20.500000 255 204 102
-1.000000 -2.500000 20.500000 255 204 102
-2.000000 4.500000 3.000000 255 255 0
-1.500000 4.500000 2.500000 255 255 0
-1.000000 0.000000 6.000000 0 255 51
1.000000 0.250000 6.250000 0 255 51
-1.000000 0.250000 6.250000 0 255 51
0.166667 -0.833333 13.666700 255 51 51
1.000000 -1.500000 13.500000 255 51 51
0.500000 -1.500000 14.000000 255 51 51
-6.000000 -1.500000 5.500000 255 204 102
-5.500000 -2.000000 5.500000 255 204 102
2.500000 0.000000 15.500000 255 204 102
6.000000 3.500000 11.500000 255 204 102
6.500000 3.000000 11.500000 255 204 102
3.750000 -0.750000 11.500000 255 51 51
3.000000 -1.500000 13.500000 255 51 51
3.000000 -1.500000 11.500000 255 51 51
3.000000 2.500000 10.500000 255 51 51
-3.000000 2.500000 10.500000 255 51 51
-6.000000 3.500000 11.500000 255 204 102
-4.000000 2.500000 12.500000 255 204 102
-4.000000 3.500000 11.500000 255 204 102
-0.750000 -2.750000 18.000000 255 204 102
-6.500000 -1.000000 6.500000 255 204 102
-1.000000 1.750000 6.250000 0 255 51
1.000000 1.750000 6.250000 0 255 51
-6.500000 3.000000 11.500000 255 204 102
-6.000000 3.500000 10.500000 255 204 102
-0.750000 -2.000000 21.250000 255 204 102
-2.000000 3.250000 1.750000 0 255 51
-1.500000 3.500000 2.000000 0 255 51
0.166667 -0.833333 13.666700 255 204 102
0.000000 -1.000000 14.000000 255 204 102
0.000000 -0.750000 13.750000 255 204 102
5.000000 3.500000 7.500000 255 204 102
4.500000 4.000000 6.500000 255 204 102
4.500000 3.000000 7.500000 255 204 102
-4.000000 0.000000 14.000000 255 204 102
-3.500000 -0.500000 11.000000 255 204 102
-6.000000 2.500000 12.500000 255 204 102
-2.500000 1.000000 4.500000 0 255 51
-2.500000 3.500000 2.000000 0 255 51
-6.500000 2.000000 12.500000 255 204 102
3.500000 -0.500000 14.000000 255 204 102
3.750000 -0.750000 13.500000 255 204 102
-4.500000 0.000000 8.500000 255 204 102
2.000000 2.500000 17.500000 255 204 102
-1.000000 2.500000 20.500000 255 204 102
-0.500000 2.500000 21.000000 255 204 102
-3.000000 3.000000 14.000000 255 51 51
-3.833330 2.833330 12.333300 255 204 102
6.000000 2.500000 12.500000 255 204 102
4.000000 2.500000 12.500000 255 204 102
1.500000 -1.500000 2.000000 0 255 51
-4.000000 3.500000 10.500000 255 204 102
-3.250000 3.000000 10.750000 255 204 102
-4.000000 3.000000 10.000000 255 204 102
0.750000 -2.750000 18.000000 255 204 102
3.750000 0.000000 10.750000 255 51 51
-6.500000 -1.000000 9.500000 255 204 102
-6.500000 0.000000 8.500000 255 204 102
-6.000000 -4.500000 6.500000 255 204 102
-6.500000 -4.000000 6.500000 255 204 102
-2.500000 4.500000 2.500000 255 255 0
1.000000 2.500000 18.500000 255 204 102
-6.500000 -1.000000 7.500000 255 204 102
-6.000000 -0.500000 6.500000 255 204 102
-3.000000 -0.500000 10.500000 255 51 51
3.500000 -0.500000 11.000000 255 204 102
1.500000 -1.500000 19.000000 255 204 102
5.500000 4.000000 5.500000 255 204 102
2.750000 -1.000000 14.250000 255 51 51
-2.500000 1.000000 6.000000 255 51 51
-2.000000 0.500000 8.500000 255 51 51
2.500000 -2.500000 2.000000 0 255 51
2.500000 -1.500000 2.000000 0 255 51
4.000000 3.500000 11.500000 255 204 102
-2.500000 -1.750000 13.750000 255 51 51
-1.000000 -1.500000 13.500000 255 51 51
-1.000000 -1.750000 13.750000 255 51 51
3.833330 2.833330 12.333300 255 204 102
1.500000 -2.500000 19.000000 204 255 255
0.833333 -2.833330 18.666700 204 255 255
-2.000000 -2.000000 14.000000 255 204 102
-2.000000 -3.000000 14.000000 255 204 102
1.500000 -4.000000 2.500000 255 255 0
-2.000000 4.000000 3.000000 0 255 51
-1.500000 4.500000 2.500000 0 255 51
0.000000 2.500000 15.500000 255 204 102
-1.500000 -2.500000 19.000000 204 255 255
-0.750000 -2.750000 18.500000 204 255 255
-0.833333 -2.833330 18.666700 204 255 255
-1.833330 0.833333 14.333300 255 204 102
2.500000 -3.000000 15.500000 255 204 102
-2.500000 1.000000 6.000000 0 255 51
-3.500000 -0.500000 14.000000 255 204 102
2.500000 1.000000 5.500000 0 255 51
1.500000 -2.500000 2.500000 0 255 51
2.000000 -3.000000 14.000000 255 204 102
2.000000 2.500000 9.500000 255 51 51
2.500000 0.000000 14.500000 255 204 102
2.750000 -1.000000 14.250000 255 204 102
2.750000 0.000000 14.250000 255 204 102
3.250000 3.000000 10.750000 255 204 102
4.500000 2.000000 10.500000 255 204 102
-2.500000 -1.000000 14.500000 255 204 102
-2.750000 0.000000 14.250000 255 204 102
-2.750000 -1.000000 14.250000 255 204 102
3.750000 2.750000 12.500000 255 204 102
3.750000 2.750000 13.500000 255 204 102
2.500000 -2.500000 2.000000 255 255 0
2.500000 -3.000000 2.500000 255 255 0
-1.000000 1.750000 14.250000 255 204 102
1.000000 1.750000 14.250000 255 204 102
-2.500000 1.000000 5.500000 0 255 51
-1.000000 -4.000000 14.000000 255 204 102
-0.750000 2.000000 21.250000 255 255 102
-0.750000 -2.000000 21.250000 255 255 102
-1.500000 -1.500000 18.000000 204 255 255
-2.500000 4.500000 2.000000 255 255 0
-6.500000 0.000000 11.500000 255 204 102
-3.750000 2.750000 12.500000 255 204 102
6.500000 2.000000 12.500000 255 204 102
-2.500000 -1.500000 14.000000 255 204 102
2.000000 -1.250000 1.750000 0 255 51
2.500000 1.000000 4.500000 0 255 51
-0.166667 -0.833333 13.666700 255 204 102
0.500000 -2.500000 21.000000 255 204 102
6.500000 2.000000 7.500000 255 204 102
1.833330 0.833333 14.333300 255 204 102
4.500000 3.000000 9.500000 255 204 102
3.500000 3.500000 11.000000 255 204 102
5.000000 3.500000 9.500000 255 204 102
-2.000000 -3.000000 16.000000 255 204 102
-0.166667 -0.833333 13.666700 255 51 51
-1.500000 4.000000 1.500000 255 255 0
-0.500000 -2.500000 21.000000 255 204 102
2.500000 -1.750000 13.750000 255 51 51
-3.500000 3.500000 12.000000 255 51 51
-1.500000 4.500000 2.000000 255 255 0
-1.500000 -3.000000 19.500000 255 204 102
-0.833333 -2.833330 18.666700 255 204 102
-1.500000 -1.500000 19.000000 255 204 102
0.833333 -2.833330 18.666700 255 204 102
-1.500000 4.000000 2.500000 0 255 51
3.000000 -0.500000 10.500000 255 51 51
3.500000 -0.500000 11.000000 255 51 51
2.500000 -1.750000 13.750000 255 204 102
3.500000 2.500000 14.000000 255 51 51
-3.750000 0.000000 10.750000 255 51 51
2.500000 -1.500000 2.000000 255 255 0
-3.500000 -0.500000 14.000000 255 51 51
0.500000 2.500000 21.000000 255 204 102
-3.750000 -0.750000 11.500000 255 204 102
1.000000 -4.000000 16.000000 255 204 102
2.500000 -1.500000 14.000000 255 51 51
3.833330 2.833330 12.333300 255 51 51
1.500000 -2.000000 2.500000 0 255 51
1.500000 -2.000000 18.000000 204 255 255
0.000000 -0.750000 13.750000 255 51 51
1.000000 -1.750000 13.750000 255 51 51
-0.750000 -2.750000 18.500000 255 204 102
-3.500000 2.500000 14.000000 255 51 51
-3.500000 3.500000 12.000000 255 204 102
1.500000 -2.500000 2.000000 0 255 51
-3.500000 3.500000 11.000000 255 204 102
0.750000 -2.750000 18.500000 255 204 102
3.750000 2.000000 10.750000 255 51 51
-3.500000 -0.500000 11.000000 255 51 51
-2.500000 4.500000 2.000000 0 255 51
1.500000 -3.000000 19.500000 255 204 102
1.500000 -2.500000 19.000000 255 204 102
-2.000000 0.500000 6.000000 255 51 51
3.500000 3.500000 12.000000 255 204 102
-2.500000 -1.750000 13.750000 255 204 102
-1.500000 1.500000 14.000000 255 204 102
-2.500000 0.500000 14.000000 255 204 102
-1.500000 -1.500000 19.000000 204 255 255
-1.500000 4.500000 2.000000 0 255 51
1.500000 -2.500000 2.000000 255 255 0
1.500000 -1.500000 2.000000 255 255 0
1.500000 1.500000 14.000000 255 204 102
2.500000 0.500000 14.000000 255 204 102
-0.500000 -1.500000 14.000000 255 51 51
-3.833330 2.833330 12.333300 255 51 51
-1.500000 -2.500000 19.000000 255 204 102
3 0 1 2
3 3 0 2
3 4 5 6
3 7 8 9
3 10 11 12
3 13 10 12
3 14 15 16
3 17 18 19
3 20 21 22
3 23 20 22
3 16 24 19
3 25 26 27
3 28 25 27
3 29 30 31
3 32 33 34
3 33 35 34
3 35 36 34
3 37 38 39
3 40 41 42
3 42 39 43
3 44 45 46
3 47 44 46
3 48 49 50
3 51 52 53
3 54 55 56
3 57 58 59
3 58 60 59
3 60 61 59
3 62 6 63
3 63 6 59
3 59 6 5
3 64 65 66
3 65 64 67
3 68 69 70
3 71 72 73
3 54 74 75
3 76 77 78
3 79 80 60
3 81 82 83
3 84 85 86
3 87 88 89
3 90 91 92
3 93 6 94
3 95 96 97
3 98 99 100
3 101 102 103
3 104 105 106
3 107 108 109
3 110 111 112
3 113 91 90
3 114 113 90
3 115 116 114
3 113 114 117
3 118 119 120
3 121 122 123
3 124 125 126
3 57 59 127
3 121 128 129
3 130 131 132
3 133 134 135
3 136 137 138
3 139 140 141
3 142 143 144
3 143 145 146
3 147 148 149
3 150 151 152
3 153 154 155
3 76 156 157
3 158 159 160
3 161 162 163
3 161 164 165
3 166 167 168
3 169 170 171
3 165 172 173
3 174 175 176
3 177 178 179
3 180 77 181
3 182 183 184
3 185 186 187
3 188 189 190
3 191 190 192
3 193 194 195
3 196 193 195
3 197 194 198
3 199 200 196
3 201 202 203
3 204 205 206
3 207 208 209
3 174 210 169
3 211 186 212
3 209 211 212
3 213 214 215
3 216 217 218
3 219 220 221
3 222 223 224
3 40 225 41
3 158 226 227
3 228 229 230
3 231 188 232
3 4 64 5
3 197 195 194
3 157 77 76
3 223 156 233
3 234 235 236
3 237 238 239
3 240 181 112
3 140 241 141
3 185 212 186
3 242 243 244
3 9 245 7
3 246 247 248
3 162 249 163
3 250 8 251
3 207 212 69
3 252 253 254
3 255 256 257
3 258 259 260
3 91 117 261
3 262 263 264
3 265 266 267
3 54 268 74
3 269 270 213
3 271 22 272
3 273 233 274
3 71 75 74
3 124 275 276
3 277 206 145
3 278 2 279
3 280 184 183
3 281 282 283
3 280 284 285
3 286 145 143
3 287 288 289
3 290 291 292
3 92 293 115
3 172 175 173
3 294 295 296
3 297 39 38
3 114 298 117
3 125 299 126
3 300 146 199
3 301 302 303
3 185 70 69
3 304 293 261
3 305 306 307
3 30 73 72
3 36 308 34
3 132 309 310
3 32 55 311
3 14 19 18
3 116 226 312
3 313 314 315
3 316 177 179
3 287 317 318
3 85 56 34
3 319 320 321
3 28 24 25
3 92 261 293
3 33 66 322
3 19 323 17
3 324 279 325
3 326 327 328
3 112 108 107
3 96 102 97
3 329 330 331
3 31 311 29
3 332 229 307
3 333 45 297
3 334 335 336
3 337 338 339
3 48 196 200
3 340 329 341
3 137 342 138
3 343 344 301
3 345 27 26
3 346 347 348
3 216 349 350
3 285 351 184
3 352 353 354
3 355 258 251
3 179 154 153
3 47 46 105
3 278 356 357
3 336 358 359
3 85 360 86
3 199 195 300
3 293 37 115
3 140 358 361
3 362 112 107
3 334 159 351
3 363 242 244
3 364 365 366
3 17 367 18
3 321 110 319
3 368 207 369
3 263 353 264
3 116 370 298
3 317 371 142
3 127 66 33
3 259 235 372
3 373 239 374
3 88 82 89
3 375 122 121
3 376 320 292
3 11 356 324
3 40 43 47
3 57 31 30
3 29 75 73
3 377 378 379
3 366 380 287
3 381 272 353
3 126 134 382
3 50 383 384
3 72 57 30
3 13 385 386
3 387 388 389
3 48 194 193
3 325 2 1
3 390 391 392
3 26 24 15
3 393 181 394
3 395 191 192
3 37 42 41
3 304 117 298
3 257 396 397
3 126 120 135
3 303 326 328
3 328 301 303
3 293 297 38
3 398 399 400
3 401 355 402
3 370 359 358
3 403 404 405
3 197 406 144
3 240 17 323
3 407 180 393
3 67 408 409
3 410 411 252
3 384 412 364
3 63 413 414
3 415 416 417
3 418 419 420
3 316 421 347
3 126 422 124
3 177 404 423
3 413 424 425
3 178 423 426
3 207 68 369
3 334 427 428
3 394 27 393
3 128 400 129
3 319 156 429
3 430 315 314
3 431 365 432
3 182 159 158
3 242 433 173
3 132 332 137
3 434 405 404
3 280 435 436
3 36 35 437
3 109 362 107
3 387 79 58
3 438 439 440
3 441 146 205
3 167 442 168
3 443 292 291
3 153 276 421
3 254 273 444
3 375 129 391
3 15 445 446
3 216 1 0
3 12 447 385
3 213 448 269
3 449 273 274
3 77 450 78
3 451 9 234
3 452 241 361
3 377 425 424
3 215 453 213
3 454 46 45
3 93 4 6
3 281 170 455
3 456 457 8
3 294 458 459
3 160 336 359
3 88 457 83
3 253 223 273
3 435 460 436
3 461 462 463
3 464 436 460
3 292 125 290
3 72 387 58
3 151 221 152
3 341 465 466
3 45 43 297
3 302 467 468
3 333 419 454
3 21 237 373
3 353 469 354
3 470 471 378
3 189 288 472
3 418 104 106
3 467 149 148
3 473 474 475
3 476 232 188
3 477 328 327
3 469 22 21
3 208 51 53
3 127 32 31
3 6 478 94
3 182 435 183
3 276 479 421
3 240 28 394
3 322 100 480
3 438 403 405
3 308 481 295
3 13 356 10
3 23 237 20
3 221 327 482
3 55 75 311
3 167 483 401
3 484 485 486
3 144 300 197
3 487 488 139
3 489 490 491
3 228 433 363
3 280 492 493
3 494 495 381
3 496 190 497
3 470 498 6
3 303 468 499
3 454 106 105
3 192 430 314
3 185 500 501
3 247 502 248
3 503 11 324
3 376 446 445
3 367 14 18
3 187 53 52
3 423 410 426
3 504 155 154
3 404 348 505
3 397 435 506
3 506 227 397
3 62 63 414
3 449 450 407
3 71 268 387
3 156 78 233
3 354 469 373
3 155 125 276
3 122 267 337
3 489 491 507
3 133 120 440
3 508 509 459
3 445 108 111
3 128 123 234
3 231 489 371
3 510 416 147
3 233 450 274
3 214 511 383
3 227 225 512
3 484 513 191
3 119 222 224
3 514 515 516
3 352 262 264
3 344 286 517
3 375 518 462
3 514 418 420
3 216 3 519
3 514 420 298
3 384 511 520
3 521 391 399
3 251 103 96
3 411 440 119
3 5 66 59
3 147 150 152
3 522 230 229
3 449 443 444
3 220 395 277
3 225 115 41
3 129 399 391
3 519 357 523
3 524 525 50
3 318 526 366
3 380 448 472
3 98 100 65
3 527 49 200
3 516 460 396
3 123 337 451
3 470 62 528
3 529 442 530
3 424 60 498
3 245 130 402
3 243 307 244
3 213 270 214
3 216 519 217
3 219 485 220
3 221 531 219
3 222 429 223
3 40 512 225
3 158 160 226
3 228 363 229
3 231 189 188
3 4 67 64
3 197 300 195
3 157 181 77
3 223 429 156
3 234 457 235
3 237 495 238
3 157 112 181
3 240 394 181
3 140 361 241
3 185 69 212
3 242 532 243
3 9 533 245
3 246 474 247
3 162 266 249
3 250 456 8
3 207 209 212
3 252 411 253
3 255 104 256
3 258 166 259
3 91 113 117
3 262 534 263
3 267 461 265
3 265 249 266
3 266 535 338
3 338 267 266
3 54 56 268
3 269 536 270
3 271 23 22
3 273 223 233
3 71 73 75
3 124 537 275
3 477 277 145
3 277 313 204
3 538 343 477
3 286 538 477
3 277 204 206
3 206 146 145
3 145 286 477
3 278 3 2
3 280 285 184
3 281 455 539
3 539 521 399
3 399 282 281
3 281 539 399
3 280 493 284
3 143 142 517
3 517 286 143
3 287 380 288
3 290 504 291
3 115 114 92
3 90 92 114
3 172 176 175
3 294 308 295
3 297 43 39
3 114 116 298
3 125 320 299
3 300 143 146
3 301 371 302
3 185 501 70
3 304 333 293
3 305 540 306
3 30 29 73
3 36 541 308
3 132 131 309
3 32 34 55
3 14 16 19
3 116 225 226
3 313 277 314
3 316 346 177
3 287 289 317
3 294 480 34
3 85 84 56
3 388 268 84
3 56 55 34
3 34 308 294
3 84 268 56
3 34 480 85
3 319 299 320
3 28 323 24
3 92 91 261
3 65 322 66
3 508 437 35
3 35 33 322
3 322 508 35
3 19 24 323
3 324 356 279
3 326 482 327
3 112 111 108
3 96 103 102
3 329 542 330
3 331 465 329
3 31 32 311
3 310 309 522
3 229 363 244
3 310 522 229
3 306 342 332
3 332 310 229
3 229 244 307
3 307 306 332
3 333 454 45
3 334 428 335
3 337 267 338
3 48 193 196
3 340 542 329
3 137 332 342
3 343 538 344
3 345 393 27
3 346 316 347
3 216 218 349
3 285 284 427
3 351 159 184
3 285 427 351
3 352 264 353
3 355 483 258
3 179 178 154
3 105 104 255
3 255 47 105
3 278 279 356
3 336 361 358
3 85 480 360
3 199 196 195
3 293 38 37
3 140 488 358
3 362 240 112
3 334 160 159
3 363 433 242
3 364 412 365
3 17 362 367
3 321 111 110
3 368 208 207
3 263 381 353
3 116 312 370
3 201 318 317
3 371 301 344
3 371 344 517
3 201 317 202
3 142 144 202
3 202 317 142
3 371 517 142
3 127 59 66
3 259 166 235
3 373 237 239
3 88 83 82
3 375 462 122
3 376 321 320
3 11 10 356
3 44 47 43
3 40 42 43
3 57 127 31
3 29 311 75
3 377 470 378
3 366 431 380
3 381 271 272
3 126 135 134
3 50 49 383
3 72 58 57
3 13 12 385
3 387 268 388
3 48 198 194
3 325 279 2
3 390 543 375
3 375 391 390
3 544 392 391
3 16 15 24
3 26 25 24
3 393 180 181
3 395 484 191
3 37 39 42
3 304 261 117
3 257 256 396
3 126 299 120
3 303 499 326
3 328 343 301
3 293 333 297
3 398 282 399
3 401 483 355
3 370 312 359
3 403 423 404
3 202 144 203
3 197 198 406
3 406 203 144
3 198 545 406
3 240 362 17
3 393 345 407
3 407 450 180
3 67 4 408
3 410 403 411
3 364 524 384
3 384 520 412
3 524 50 384
3 63 59 61
3 61 413 63
3 415 150 416
3 418 106 419
3 316 179 153
3 421 479 347
3 316 153 421
3 537 124 422
3 126 382 422
3 177 346 404
3 413 61 424
3 178 177 423
3 207 69 68
3 334 351 427
3 394 28 27
3 128 529 400
3 222 118 120
3 120 299 319
3 319 110 156
3 112 157 110
3 429 222 120
3 157 156 110
3 120 319 429
3 430 448 315
3 431 366 365
3 182 184 159
3 175 174 242
3 171 281 283
3 174 169 532
3 171 283 532
3 532 242 174
3 433 546 165
3 535 266 162
3 161 165 546
3 546 535 162
3 162 161 546
3 169 171 532
3 433 165 173
3 173 175 242
3 401 402 132
3 132 310 332
3 137 401 132
3 434 547 405
3 404 505 434
3 280 183 435
3 437 548 541
3 541 36 437
3 548 481 541
3 109 367 362
3 60 58 79
3 387 389 79
3 438 549 439
3 206 205 146
3 441 550 200
3 199 146 441
3 441 200 199
3 167 551 442
3 443 376 292
3 153 155 276
3 254 253 273
3 375 121 129
3 15 14 445
3 216 350 1
3 12 11 447
3 213 315 448
3 449 444 273
3 77 180 450
3 457 234 9
3 451 337 552
3 552 533 451
3 337 339 552
3 9 8 457
3 451 533 9
3 361 336 452
3 335 452 336
3 377 379 553
3 553 425 377
3 424 498 377
3 315 213 313
3 215 554 555
3 453 204 313
3 215 555 453
3 313 213 453
3 454 105 46
3 93 408 4
3 281 171 170
3 456 556 457
3 459 509 294
3 294 296 458
3 509 480 294
3 312 226 359
3 160 334 336
3 359 226 160
3 88 87 372
3 372 235 88
3 457 556 83
3 556 81 83
3 88 235 457
3 253 224 223
3 435 396 460
3 461 267 462
3 464 492 436
3 460 557 464
3 292 320 125
3 72 71 387
3 151 531 221
3 341 329 465
3 45 44 43
3 302 489 467
3 333 304 419
3 21 20 237
3 353 272 469
3 470 528 471
3 189 231 289
3 289 288 189
3 472 190 189
3 418 256 104
3 467 558 149
3 473 247 474
3 188 496 559
3 476 560 232
3 188 559 476
3 490 232 560
3 477 343 328
3 469 272 22
3 53 211 208
3 208 368 51
3 211 209 208
3 127 33 32
3 6 498 478
3 182 506 435
3 276 275 479
3 240 323 28
3 480 509 322
3 322 65 100
3 100 99 360
3 360 480 100
3 547 549 405
3 438 411 403
3 405 549 438
3 308 541 481
3 13 357 356
3 23 495 237
3 221 220 327
3 55 54 75
3 137 136 401
3 167 166 258
3 401 136 551
3 258 483 167
3 401 551 167
3 484 220 485
3 144 143 300
3 140 139 488
3 487 514 488
3 489 232 490
3 228 546 433
3 280 436 492
3 271 381 495
3 263 534 494
3 494 238 495
3 495 23 271
3 381 263 494
3 191 497 190
3 496 188 190
3 470 377 498
3 303 302 468
3 454 419 106
3 192 190 472
3 472 430 192
3 314 395 192
3 185 187 500
3 247 473 561
3 561 502 247
3 324 325 350
3 350 349 503
3 325 1 350
3 447 11 503
3 324 350 503
3 376 443 446
3 367 109 445
3 445 14 367
3 187 186 211
3 211 53 187
3 52 500 187
3 423 403 410
3 504 290 155
3 404 346 348
3 397 396 435
3 47 255 40
3 257 397 512
3 506 182 158
3 158 227 506
3 512 40 257
3 397 227 512
3 40 255 257
3 414 562 528
3 528 62 414
3 562 471 528
3 449 274 450
3 71 74 268
3 156 76 78
3 563 564 352
3 352 354 563
3 469 21 373
3 373 374 563
3 563 354 373
3 124 276 125
3 155 290 125
3 122 462 267
3 467 489 507
3 507 558 467
3 440 439 133
3 133 135 120
3 120 119 440
3 508 322 509
3 321 376 111
3 445 109 108
3 111 376 445
3 234 236 128
3 128 121 123
3 236 529 128
3 123 451 234
3 371 317 231
3 231 232 489
3 317 289 231
3 489 302 371
3 510 417 416
3 233 78 450
3 49 554 383
3 215 214 383
3 383 554 215
3 227 226 225
3 497 191 565
3 484 486 566
3 513 565 191
3 484 566 513
3 119 118 222
3 514 487 515
3 352 564 262
3 344 538 286
3 375 543 518
3 518 567 462
3 463 462 567
3 514 516 418
3 216 0 3
3 304 298 420
3 370 358 488
3 488 514 298
3 420 419 304
3 298 370 488
3 384 383 511
3 521 544 391
3 95 250 96
3 251 258 103
3 260 101 103
3 96 250 251
3 258 260 103
3 224 253 119
3 411 438 440
3 119 253 411
3 5 64 66
3 482 326 152
3 499 468 148
3 148 147 152
3 468 467 148
3 221 482 152
3 416 150 147
3 152 326 499
3 499 148 152
3 522 568 230
3 449 407 345
3 345 26 15
3 15 446 345
3 443 291 504
3 504 154 426
3 426 410 252
3 154 178 426
3 345 446 449
3 443 504 444
3 426 252 504
3 252 254 504
3 449 446 443
3 254 444 504
3 277 477 220
3 220 484 395
3 477 327 220
3 395 314 277
3 37 41 115
3 225 116 115
3 129 400 399
3 519 3 278
3 278 357 519
3 13 386 523
3 523 217 519
3 357 13 523
3 48 50 198
3 524 569 525
3 525 545 198
3 198 50 525
3 318 201 526
3 526 569 364
3 524 364 569
3 366 287 318
3 526 364 366
3 380 431 448
3 432 536 269
3 448 430 472
3 432 269 431
3 472 288 380
3 431 269 448
3 65 67 409
3 409 98 65
3 200 550 527
3 527 555 554
3 554 49 527
3 48 200 49
3 396 256 516
3 516 515 460
3 256 418 516
3 515 557 460
3 123 122 337
3 470 6 62
3 398 400 530
3 529 236 168
3 235 166 168
3 168 442 529
3 530 400 529
3 236 235 168
3 478 498 60
3 424 61 60
3 60 80 478
3 355 251 7
3 7 245 402
3 251 8 7
3 130 132 402
3 402 355 7
3 243 305 307
