ply
format ascii 1.0
comment Created by Blender 2.78 (sub 0) - www.blender.org, source file: ''
element vertex 570
property float x
property float y
property float z
property uchar red
property uchar green
property uchar blue
element face 930
property list uchar uint vertex_indices
end_header
-2.000000 2.500000 0.500000 255 255 0
-2.500000 3.000000 0.500000 255 255 0
-2.000000 3.000000 0.000000 255 255 0
-1.500000 3.000000 0.500000 255 255 0
-1.000000 2.500000 5.500000 0 255 51
-1.000000 2.000000 5.000000 0 255 51
-2.000000 1.500000 5.500000 0 255 51
-2.500000 2.000000 9.500000 255 51 51
-2.500000 1.000000 8.500000 255 51 51
-2.500000 0.000000 9.500000 255 51 51
-2.000000 5.500000 2.500000 255 255 0
-2.500000 5.000000 2.500000 255 255 0
-2.000000 5.000000 3.000000 255 255 0
-1.500000 5.000000 2.500000 255 255 0
-6.000000 -4.500000 4.500000 255 204 102
-6.500000 -4.000000 4.500000 255 204 102
-6.000000 -4.000000 4.000000 255 204 102
-4.500000 -4.000000 4.500000 255 204 102
-5.000000 -4.500000 4.500000 255 204 102
-5.000000 -4.000000 4.000000 255 204 102
2.000000 -4.000000 4.000000 255 255 0
1.500000 -4.000000 3.500000 255 255 0
2.000000 -4.500000 3.500000 255 255 0
2.500000 -4.000000 3.500000 255 255 0
-6.000000 -3.000000 4.000000 255 204 102
-6.000000 -2.000000 4.000000 255 204 102
-6.500000 -2.000000 4.500000 255 204 102
-6.000000 -1.500000 4.500000 255 204 102
-5.500000 -2.000000 4.500000 255 204 102
-1.000000 -1.500000 4.500000 0 255 51
-1.500000 -1.000000 4.500000 0 255 51
-1.000000 -1.000000 4.000000 0 255 51
1.000000 -1.000000 4.000000 0 255 51
1.000000 0.000000 4.000000 0 255 51
2.000000 -0.500000 4.500000 0 255 51
1.500000 0.000000 3.500000 0 255 51
1.500000 -1.000000 3.500000 0 255 51
5.000000 1.500000 4.500000 255 204 102
4.500000 2.000000 4.500000 255 204 102
5.000000 2.000000 4.000000 255 204 102
6.500000 2.000000 4.500000 255 204 102
6.000000 1.500000 4.500000 255 204 102
6.000000 2.000000 4.000000 255 204 102
6.000000 3.000000 4.000000 255 204 102
6.000000 4.000000 4.000000 255 204 102
5.500000 4.000000 4.500000 255 204 102
6.000000 4.500000 4.500000 255 204 102
6.500000 4.000000 4.500000 255 204 102
0.000000 -3.500000 18.500000 255 204 102
1.000000 -3.500000 19.500000 255 204 102
-1.000000 -3.500000 19.500000 255 204 102
0.500000 2.500000 21.000000 255 255 102
-0.500000 2.500000 21.000000 255 255 102
0.000000 2.500000 21.500000 255 255 102
1.500000 -1.000000 5.500000 0 255 51
1.500000 -1.000000 4.500000 0 255 51
1.500000 0.000000 5.500000 0 255 51
-1.500000 0.000000 4.500000 0 255 51
-1.500000 0.000000 5.500000 0 255 51
-1.000000 1.000000 5.000000 0 255 51
-2.000000 0.500000 5.500000 0 255 51
-2.000000 0.500000 4.500000 0 255 51
-1.500000 2.000000 4.500000 0 255 51
-1.500000 1.000000 4.500000 0 255 51
1.000000 2.000000 5.000000 0 255 51
1.500000 2.000000 5.500000 0 255 51
1.000000 1.000000 5.000000 0 255 51
1.000000 2.500000 5.500000 0 255 51
0.500000 -2.500000 21.000000 255 255 102
0.000000 -2.500000 21.500000 255 255 102
-0.500000 -2.500000 21.000000 255 255 102
-1.000000 -1.000000 6.000000 0 255 51
-1.500000 -1.000000 5.500000 0 255 51
-1.000000 -1.500000 5.500000 0 255 51
1.000000 -1.000000 6.000000 0 255 51
1.000000 -1.500000 5.500000 0 255 51
-3.500000 -1.000000 6.500000 255 204 102
-4.000000 -1.000000 6.000000 255 204 102
-4.000000 -0.500000 6.500000 255 204 102
-1.500000 0.500000 6.000000 0 255 51
-2.000000 0.500000 6.000000 0 255 51
-1.500000 0.500000 6.000000 255 51 51
-1.000000 0.250000 6.250000 255 51 51
-1.000000 0.500000 6.500000 255 51 51
1.500000 0.500000 6.000000 0 255 51
2.000000 0.500000 5.500000 0 255 51
2.000000 0.500000 6.000000 0 255 51
1.500000 0.500000 6.000000 255 51 51
1.000000 0.500000 6.500000 255 51 51
1.000000 0.250000 6.250000 255 51 51
4.000000 0.500000 6.500000 255 204 102
3.500000 1.000000 6.500000 255 204 102
4.000000 1.000000 6.000000 255 204 102
-1.500000 1.500000 6.000000 0 255 51
-2.000000 1.500000 6.000000 0 255 51
-1.500000 1.500000 6.000000 255 51 51
-1.000000 1.500000 6.500000 255 51 51
-1.000000 1.750000 6.250000 255 51 51
1.500000 1.500000 6.000000 0 255 51
2.000000 1.500000 6.000000 0 255 51
2.000000 1.500000 5.500000 0 255 51
1.500000 1.500000 6.000000 255 51 51
1.000000 1.750000 6.250000 255 51 51
1.000000 1.500000 6.500000 255 51 51
6.000000 4.500000 6.500000 255 204 102
6.000000 4.500000 5.500000 255 204 102
5.000000 4.500000 6.500000 255 204 102
-3.500000 -4.000000 6.500000 255 204 102
-4.000000 -4.000000 7.000000 255 204 102
-4.000000 -4.500000 6.500000 255 204 102
-4.500000 -3.000000 7.500000 255 204 102
-5.000000 -3.500000 7.500000 255 204 102
-4.500000 -3.000000 6.500000 255 204 102
4.000000 1.000000 7.000000 255 204 102
4.500000 1.000000 6.500000 255 204 102
5.000000 1.500000 6.500000 255 204 102
5.000000 1.500000 7.500000 255 204 102
4.000000 2.000000 7.000000 255 204 102
-4.500000 2.000000 9.500000 255 204 102
-5.000000 2.500000 9.500000 255 204 102
-4.500000 2.000000 10.500000 255 204 102
0.000000 -0.500000 11.500000 255 51 51
-1.000000 -1.500000 11.500000 255 51 51
-1.000000 -0.500000 10.500000 255 51 51
-4.000000 -0.500000 11.500000 255 204 102
-5.000000 -0.500000 11.500000 255 204 102
-4.000000 0.000000 11.000000 255 204 102
-1.000000 0.000000 4.000000 0 255 51
1.000000 -0.500000 10.500000 255 51 51
1.000000 -1.500000 11.500000 255 51 51
-3.500000 2.500000 11.000000 255 51 51
-3.250000 3.000000 10.750000 255 51 51
-3.000000 3.000000 11.000000 255 51 51
-3.500000 2.500000 11.000000 255 204 102
-3.750000 2.000000 10.750000 255 204 102
-4.000000 2.000000 11.000000 255 204 102
3.500000 2.500000 11.000000 255 51 51
3.000000 3.000000 11.000000 255 51 51
3.250000 3.000000 10.750000 255 51 51
3.500000 2.500000 11.000000 255 204 102
4.000000 2.000000 11.000000 255 204 102
3.750000 2.000000 10.750000 255 204 102
-2.000000 -2.500000 16.500000 255 204 102
0.000000 -2.500000 16.500000 255 204 102
-1.000000 -2.500000 17.500000 255 204 102
2.000000 -2.500000 16.500000 255 204 102
1.000000 -2.500000 17.500000 255 204 102
-0.500000 -1.500000 14.000000 255 204 102
-1.000000 -2.000000 14.000000 255 204 102
-1.000000 -1.750000 13.750000 255 204 102
0.500000 -1.500000 14.000000 255 204 102
1.000000 -1.750000 13.750000 255 204 102
1.000000 -2.000000 14.000000 255 204 102
-6.000000 0.000000 14.000000 255 204 102
-6.500000 0.000000 13.500000 255 204 102
-6.000000 -0.500000 13.500000 255 204 102
-4.500000 -1.000000 7.500000 255 204 102
-4.500000 -2.000000 6.500000 255 204 102
6.500000 0.000000 13.500000 255 204 102
6.000000 0.000000 14.000000 255 204 102
6.000000 -0.500000 13.500000 255 204 102
-2.500000 0.500000 14.000000 255 51 51
-3.000000 0.000000 14.000000 255 51 51
-2.750000 0.000000 14.250000 255 51 51
-1.833330 0.833333 14.333300 255 51 51
-1.500000 1.500000 14.000000 255 51 51
2.500000 1.000000 8.500000 255 51 51
2.500000 2.000000 9.500000 255 51 51
2.500000 0.000000 9.500000 255 51 51
2.500000 0.500000 14.000000 255 51 51
2.750000 0.000000 14.250000 255 51 51
3.000000 0.000000 14.000000 255 51 51
-1.000000 1.750000 14.250000 255 51 51
-1.000000 2.000000 14.000000 255 51 51
1.500000 1.500000 14.000000 255 51 51
1.000000 2.000000 14.000000 255 51 51
1.000000 1.750000 14.250000 255 51 51
-6.000000 2.500000 13.500000 255 204 102
-6.500000 2.000000 13.500000 255 204 102
-6.000000 2.000000 14.000000 255 204 102
-6.000000 -1.000000 6.000000 255 204 102
-5.000000 -2.000000 6.000000 255 204 102
6.500000 2.000000 13.500000 255 204 102
6.000000 2.500000 13.500000 255 204 102
6.000000 2.000000 14.000000 255 204 102
-0.500000 -2.000000 21.500000 255 255 102
-0.500000 -2.000000 25.500000 255 255 102
-0.500000 2.000000 21.500000 255 255 102
-1.000000 1.500000 14.500000 255 204 102
-1.000000 1.500000 15.500000 255 204 102
0.000000 1.500000 14.500000 255 204 102
1.000000 1.500000 14.500000 255 204 102
1.000000 1.500000 15.500000 255 204 102
0.000000 -4.500000 17.500000 255 204 102
-0.500000 -4.000000 17.500000 255 204 102
0.000000 -4.000000 17.000000 255 204 102
0.500000 -4.000000 17.500000 255 204 102
-0.500000 -3.000000 17.500000 255 204 102
-0.500000 -3.000000 18.500000 255 204 102
0.500000 -3.000000 17.500000 255 204 102
0.500000 -3.000000 18.500000 255 204 102
-1.500000 -1.500000 18.000000 255 204 102
-1.500000 -2.000000 17.500000 255 204 102
-1.500000 -2.000000 18.000000 255 204 102
1.500000 -1.500000 18.000000 255 204 102
1.500000 -2.000000 18.000000 255 204 102
1.500000 -2.000000 17.500000 255 204 102
0.500000 -2.000000 21.500000 255 255 102
0.500000 2.000000 21.500000 255 255 102
0.500000 -2.000000 25.500000 255 255 102
1.833330 0.833333 14.333300 255 51 51
0.000000 -2.000000 26.000000 255 255 102
0.000000 -2.500000 25.500000 255 255 102
3.750000 -0.750000 13.500000 255 51 51
3.000000 -1.500000 11.500000 255 51 51
3.750000 -0.750000 11.500000 255 51 51
2.000000 1.500000 6.000000 255 51 51
2.000000 1.500000 8.500000 255 51 51
-2.000000 4.000000 3.000000 0 255 51
-2.500000 4.500000 2.500000 0 255 51
-2.500000 4.000000 2.500000 0 255 51
0.750000 -2.000000 21.250000 255 255 102
0.750000 2.000000 21.250000 255 255 102
6.500000 2.000000 7.500000 255 204 102
-3.750000 -0.750000 11.500000 255 204 102
-4.000000 -0.500000 13.500000 255 204 102
-0.750000 -2.000000 21.250000 255 204 102
-1.500000 2.000000 20.500000 255 204 102
-1.500000 -2.000000 20.500000 255 204 102
4.500000 3.000000 9.500000 255 204 102
3.500000 3.500000 11.000000 255 204 102
5.000000 3.500000 9.500000 255 204 102
1.000000 2.500000 20.500000 255 204 102
0.750000 2.000000 21.250000 255 204 102
1.500000 2.000000 20.500000 255 204 102
-2.500000 1.000000 6.000000 255 51 51
-2.000000 1.500000 8.500000 255 51 51
-2.000000 1.500000 6.000000 255 51 51
1.500000 -2.000000 18.000000 204 255 255
0.750000 -2.750000 18.500000 204 255 255
0.750000 -2.750000 18.000000 204 255 255
3.750000 2.750000 12.500000 255 51 51
3.000000 3.500000 13.500000 255 51 51
3.750000 2.750000 13.500000 255 51 51
-4.000000 3.500000 10.500000 255 204 102
-3.250000 3.000000 10.750000 255 204 102
-4.000000 3.000000 10.000000 255 204 102
-4.000000 2.500000 13.500000 255 204 102
-6.000000 2.500000 12.500000 255 204 102
-2.000000 3.250000 1.750000 0 255 51
-1.500000 3.500000 2.000000 0 255 51
6.500000 3.000000 11.500000 255 204 102
6.000000 2.500000 12.500000 255 204 102
6.500000 2.000000 12.500000 255 204 102
-2.500000 5.000000 1.500000 255 255 0
-6.000000 -1.500000 5.500000 255 204 102
-5.500000 -2.000000 5.500000 255 204 102
3.500000 -0.500000 11.000000 255 204 102
4.000000 0.000000 11.000000 255 204 102
4.000000 -0.500000 11.500000 255 204 102
-6.000000 1.000000 8.000000 255 204 102
-6.500000 0.000000 8.500000 255 204 102
-6.500000 1.000000 8.500000 255 204 102
2.500000 -3.000000 2.500000 255 255 0
2.000000 -2.500000 3.000000 255 255 0
2.000000 -3.000000 3.000000 255 255 0
-3.750000 0.000000 10.750000 255 204 102
2.500000 1.000000 5.500000 0 255 51
-4.000000 2.000000 14.000000 255 204 102
-2.500000 -3.000000 15.500000 255 204 102
-1.000000 -4.500000 14.500000 255 204 102
-1.000000 -4.500000 15.500000 255 204 102
-5.500000 -3.000000 5.500000 255 204 102
-4.500000 -4.000000 5.500000 255 204 102
1.000000 -1.500000 13.500000 255 51 51
0.000000 -0.500000 13.500000 255 51 51
6.000000 1.500000 7.500000 255 204 102
5.000000 -0.500000 9.500000 255 204 102
0.000000 -3.000000 17.000000 255 204 102
2.500000 -2.000000 2.500000 0 255 51
2.500000 -1.500000 2.000000 0 255 51
2.500000 1.000000 4.500000 0 255 51
-6.500000 3.000000 11.500000 255 204 102
-6.500000 2.000000 12.500000 255 204 102
-4.500000 -1.000000 10.500000 255 204 102
-5.000000 -1.500000 9.500000 255 204 102
-4.500000 -1.000000 9.500000 255 204 102
2.000000 0.500000 6.000000 255 51 51
2.500000 1.000000 6.000000 255 51 51
-1.500000 4.000000 0.500000 255 255 0
-2.000000 5.500000 1.500000 255 255 0
-1.500000 5.000000 1.500000 255 255 0
2.000000 -4.500000 2.500000 255 255 0
2.500000 -4.000000 2.500000 255 255 0
5.500000 3.000000 4.500000 255 204 102
-1.500000 -3.000000 19.500000 255 204 102
-1.000000 -2.500000 20.500000 255 204 102
-5.500000 -3.000000 4.500000 255 204 102
-2.000000 0.500000 6.000000 255 51 51
2.000000 1.500000 4.500000 0 255 51
5.500000 4.000000 5.500000 255 204 102
3.750000 2.000000 10.750000 255 51 51
4.500000 0.000000 10.500000 255 204 102
4.500000 0.000000 9.500000 255 204 102
2.000000 -2.000000 3.000000 0 255 51
4.500000 3.000000 6.500000 255 204 102
4.500000 2.000000 5.500000 255 204 102
3.500000 2.000000 6.500000 255 204 102
2.000000 -3.000000 14.000000 255 204 102
1.000000 -4.500000 14.500000 255 204 102
1.000000 -4.000000 14.000000 255 204 102
1.000000 1.750000 6.250000 0 255 51
0.000000 2.500000 15.500000 255 204 102
-2.000000 2.500000 17.500000 255 204 102
-6.000000 -0.500000 11.500000 255 204 102
-6.500000 -1.000000 10.500000 255 204 102
-6.000000 -1.500000 10.500000 255 204 102
-1.000000 2.500000 20.500000 255 204 102
-1.500000 2.000000 18.500000 255 204 102
-3.500000 -0.500000 11.000000 255 204 102
6.000000 3.500000 7.500000 255 204 102
5.000000 3.500000 7.500000 255 204 102
3.833330 2.833330 12.333300 255 204 102
4.000000 2.500000 12.500000 255 204 102
4.000000 3.500000 11.500000 255 204 102
-6.000000 -1.500000 9.500000 255 204 102
-6.500000 -1.000000 9.500000 255 204 102
1.000000 0.000000 6.000000 0 255 51
-1.000000 0.250000 6.250000 0 255 51
-1.000000 0.000000 6.000000 0 255 51
-3.833330 2.833330 12.333300 255 204 102
-4.000000 3.500000 11.500000 255 204 102
-4.000000 2.500000 12.500000 255 204 102
2.500000 -3.000000 1.500000 255 255 0
2.000000 -2.000000 1.000000 255 255 0
2.500000 -2.000000 1.500000 255 255 0
3.000000 3.000000 14.000000 255 51 51
1.500000 2.000000 18.500000 255 204 102
1.500000 -2.000000 20.500000 255 204 102
4.500000 2.000000 7.500000 255 204 102
-1.500000 4.000000 2.500000 0 255 51
-2.000000 4.500000 3.000000 0 255 51
3.000000 -0.500000 10.500000 255 51 51
2.500000 -1.000000 14.500000 255 204 102
2.750000 0.000000 14.250000 255 204 102
2.500000 0.000000 14.500000 255 204 102
-2.500000 -3.000000 14.500000 255 204 102
-1.000000 -4.000000 14.000000 255 204 102
-2.000000 -2.000000 14.000000 255 204 102
-2.000000 -3.000000 14.000000 255 204 102
1.500000 -4.000000 2.500000 255 255 0
6.000000 3.500000 11.500000 255 204 102
2.000000 -3.000000 1.000000 255 255 0
3.000000 3.500000 12.500000 255 51 51
-3.000000 3.500000 11.500000 255 51 51
-3.000000 3.500000 12.500000 255 51 51
-2.000000 4.000000 0.000000 255 255 0
4.500000 3.000000 7.500000 255 204 102
-2.000000 -3.000000 16.000000 255 204 102
2.000000 -3.000000 16.000000 255 204 102
3.000000 -1.000000 14.000000 255 51 51
3.500000 -0.500000 14.000000 255 51 51
-1.000000 1.750000 14.250000 255 204 102
2.500000 -2.500000 2.500000 0 255 51
-5.000000 -1.500000 10.500000 255 204 102
1.500000 -3.000000 1.500000 255 255 0
2.000000 -1.250000 1.750000 255 255 0
1.000000 -1.500000 4.500000 0 255 51
2.000000 -2.000000 14.000000 255 204 102
0.750000 -2.000000 21.250000 255 204 102
0.500000 -2.500000 21.000000 255 204 102
1.000000 -2.500000 20.500000 255 204 102
-2.500000 1.000000 5.500000 0 255 51
2.500000 -1.000000 17.500000 255 204 102
-6.500000 -4.000000 6.500000 255 204 102
-6.000000 -4.500000 6.500000 255 204 102
-3.750000 2.750000 12.500000 255 204 102
0.750000 -2.750000 18.000000 255 204 102
-0.750000 -2.750000 18.500000 204 255 255
-1.500000 -2.000000 18.000000 204 255 255
-0.750000 -2.750000 18.000000 204 255 255
-1.000000 -1.500000 13.500000 255 51 51
-3.000000 -1.500000 11.500000 255 51 51
-2.500000 2.000000 17.500000 255 204 102
-1.500000 -1.000000 18.500000 255 204 102
0.166667 -0.833333 13.666700 255 51 51
0.500000 -1.500000 14.000000 255 51 51
2.500000 0.000000 15.500000 255 204 102
-6.000000 3.500000 11.500000 255 204 102
1.500000 -3.000000 2.500000 255 255 0
4.500000 2.000000 10.500000 255 204 102
-6.000000 -0.500000 7.500000 255 204 102
-6.500000 -1.000000 6.500000 255 204 102
-6.500000 -1.000000 7.500000 255 204 102
-5.000000 -0.500000 7.500000 255 204 102
-6.000000 -0.500000 6.500000 255 204 102
2.750000 -1.000000 14.250000 255 51 51
-3.000000 -0.500000 10.500000 255 51 51
-2.000000 -0.500000 9.500000 255 51 51
-6.500000 -2.000000 5.500000 255 204 102
4.000000 2.000000 14.000000 255 204 102
4.000000 2.500000 13.500000 255 204 102
-1.500000 -2.500000 19.000000 204 255 255
-0.833333 -2.833330 18.666700 204 255 255
-3.000000 -1.000000 14.000000 255 51 51
6.500000 0.000000 9.500000 255 204 102
-3.500000 3.500000 11.000000 255 51 51
3.750000 -0.750000 13.500000 255 204 102
4.000000 -0.500000 13.500000 255 204 102
-0.750000 2.000000 21.250000 255 204 102
-0.500000 2.500000 21.000000 255 204 102
2.000000 2.500000 17.500000 255 204 102
2.500000 2.000000 17.500000 255 204 102
3.500000 3.500000 11.000000 255 51 51
-6.000000 3.500000 10.500000 255 204 102
-6.500000 3.000000 10.500000 255 204 102
1.000000 -4.500000 15.500000 255 204 102
2.500000 -3.000000 14.500000 255 204 102
2.500000 -3.000000 15.500000 255 204 102
-2.500000 4.000000 0.500000 255 255 0
2.000000 -1.250000 1.750000 0 255 51
5.500000 3.000000 5.500000 255 204 102
-3.000000 3.500000 13.500000 255 51 51
-3.750000 2.750000 12.500000 255 51 51
-3.750000 2.750000 13.500000 255 51 51
-5.000000 0.000000 8.000000 255 204 102
-6.000000 0.000000 8.000000 255 204 102
-2.000000 3.500000 1.500000 255 255 0
1.500000 -2.000000 1.500000 255 255 0
4.000000 0.000000 14.000000 255 204 102
1.000000 -4.000000 16.000000 255 204 102
-1.500000 -1.500000 18.000000 204 255 255
-1.500000 -2.000000 18.500000 204 255 255
-0.750000 -2.750000 18.000000 255 204 102
4.500000 4.000000 6.500000 255 204 102
-2.500000 1.000000 4.500000 0 255 51
-2.500000 3.500000 2.000000 0 255 51
-5.000000 -4.500000 5.500000 255 204 102
2.500000 -1.750000 13.750000 255 51 51
3.000000 -1.500000 13.500000 255 51 51
1.500000 -2.500000 2.500000 255 255 0
1.500000 -1.500000 19.000000 204 255 255
1.500000 -2.000000 18.500000 204 255 255
1.500000 -1.500000 18.000000 204 255 255
6.500000 4.000000 6.500000 255 204 102
6.500000 3.000000 7.500000 255 204 102
-3.500000 -0.500000 14.000000 255 204 102
-4.000000 0.000000 14.000000 255 204 102
-2.500000 4.000000 1.500000 255 255 0
-3.000000 -1.500000 13.500000 255 51 51
-3.750000 -0.750000 11.500000 255 51 51
-6.500000 0.000000 11.500000 255 204 102
3.750000 2.750000 13.500000 255 204 102
2.000000 2.500000 9.500000 255 51 51
-3.000000 2.500000 10.500000 255 51 51
3.000000 2.500000 10.500000 255 51 51
5.000000 -0.500000 10.500000 255 204 102
2.000000 -0.500000 9.500000 255 51 51
-3.000000 3.000000 14.000000 255 51 51
3.250000 3.000000 10.750000 255 204 102
-1.500000 4.500000 2.000000 255 255 0
-1.500000 4.000000 1.500000 255 255 0
1.500000 -1.000000 18.500000 255 204 102
1.500000 -2.500000 19.000000 204 255 255
0.833333 -2.833330 18.666700 204 255 255
-1.000000 -4.000000 16.000000 255 204 102
-4.500000 1.000000 8.500000 255 204 102
-5.000000 1.000000 8.000000 255 204 102
-2.500000 1.000000 6.000000 0 255 51
-1.500000 4.500000 2.500000 255 255 0
-0.500000 -2.500000 21.000000 255 204 102
-3.750000 0.000000 10.750000 255 51 51
-2.500000 0.000000 14.500000 255 204 102
-2.750000 -1.000000 14.250000 255 204 102
-2.500000 -1.000000 14.500000 255 204 102
3.500000 3.500000 12.000000 255 51 51
-2.500000 3.500000 2.000000 255 255 0
3.000000 3.500000 11.500000 255 51 51
-4.500000 0.000000 8.500000 255 204 102
-2.000000 4.500000 3.000000 255 255 0
3.500000 2.500000 14.000000 255 204 102
-2.000000 2.500000 9.500000 255 51 51
-2.000000 0.500000 8.500000 255 51 51
-2.500000 -1.500000 14.000000 255 204 102
0.833333 -2.833330 18.666700 255 204 102
1.833330 0.833333 14.333300 255 204 102
-2.500000 -1.750000 13.750000 255 51 51
-1.000000 -1.750000 13.750000 255 51 51
2.500000 -2.500000 2.000000 255 255 0
-3.500000 3.500000 12.000000 255 51 51
1.500000 -2.000000 2.500000 0 255 51
2.000000 -2.500000 3.000000 0 255 51
-2.500000 0.000000 15.500000 255 204 102
3.500000 -0.500000 14.000000 255 204 102
-0.166667 -0.833333 13.666700 255 204 102
0.000000 -1.000000 14.000000 255 204 102
-0.750000 -2.000000 21.250000 255 255 102
-1.833330 0.833333 14.333300 255 204 102
0.166667 -0.833333 13.666700 255 204 102
0.000000 -0.750000 13.750000 255 204 102
-3.500000 2.500000 14.000000 255 204 102
-3.750000 2.750000 13.500000 255 204 102
6.000000 -0.500000 9.500000 255 204 102
-2.500000 -1.500000 14.000000 255 51 51
-0.833333 -2.833330 18.666700 255 204 102
-1.000000 2.500000 18.500000 255 204 102
1.000000 2.500000 18.500000 255 204 102
-1.500000 4.500000 2.000000 0 255 51
1.500000 -2.500000 2.000000 0 255 51
1.500000 -1.500000 2.000000 0 255 51
-1.500000 -1.500000 19.000000 255 204 102
-1.500000 3.500000 2.000000 255 255 0
-2.000000 3.250000 1.750000 255 255 0
-2.500000 -1.000000 17.500000 255 204 102
2.500000 -1.500000 14.000000 255 204 102
1.500000 -1.500000 19.000000 255 204 102
-0.166667 -0.833333 13.666700 255 51 51
2.000000 0.500000 8.500000 255 51 51
3.750000 0.000000 10.750000 255 51 51
3.500000 -0.500000 11.000000 255 51 51
-3.750000 2.000000 10.750000 255 51 51
-3.750000 -0.750000 13.500000 255 204 102
-1.000000 1.750000 6.250000 0 255 51
0.500000 2.500000 21.000000 255 204 102
-3.500000 3.500000 11.000000 255 204 102
3.750000 -0.750000 11.500000 255 204 102
3.750000 0.000000 10.750000 255 204 102
2.500000 -2.500000 2.500000 255 255 0
2.500000 1.000000 6.000000 0 255 51
2.500000 -2.500000 2.000000 0 255 51
3.750000 2.750000 12.500000 255 204 102
3.500000 3.500000 12.000000 255 204 102
1.000000 0.250000 6.250000 0 255 51
-3.500000 3.500000 12.000000 255 204 102
3.500000 2.500000 14.000000 255 51 51
-1.500000 4.500000 2.500000 0 255 51
2.750000 -1.000000 14.250000 255 204 102
2.500000 -1.500000 14.000000 255 51 51
1.000000 1.750000 14.250000 255 204 102
2.500000 -1.500000 2.000000 255 255 0
2.500000 -1.750000 13.750000 255 204 102
1.500000 -3.000000 19.500000 255 204 102
0.750000 -2.750000 18.500000 255 204 102
0.000000 -0.750000 13.750000 255 51 51
1.000000 -1.750000 13.750000 255 51 51
-3.500000 -0.500000 11.000000 255 51 51
-2.750000 -1.000000 14.250000 255 51 51
-2.500000 -1.750000 13.750000 255 204 102
-1.500000 -1.500000 19.000000 204 255 255
-0.750000 -2.750000 18.500000 255 204 102
-2.500000 4.500000 2.000000 255 255 0
-2.500000 4.500000 2.500000 255 255 0
-3.750000 -0.750000 13.500000 255 51 51
-2.750000 0.000000 14.250000 255 204 102
3.833330 2.833330 12.333300 255 51 51
1.500000 -1.500000 2.000000 255 255 0
-0.750000 2.000000 21.250000 255 255 102
1.500000 -2.500000 19.000000 255 204 102
1.500000 1.500000 14.000000 255 204 102
2.500000 0.500000 14.000000 255 204 102
-3.833330 2.833330 12.333300 255 51 51
1.500000 -2.500000 2.500000 0 255 51
-2.500000 0.500000 14.000000 255 204 102
-1.500000 1.500000 14.000000 255 204 102
1.500000 -2.500000 2.000000 255 255 0
-3.500000 -0.500000 14.000000 255 51 51
-1.500000 -2.500000 19.000000 255 204 102
-2.500000 4.500000 2.000000 0 255 51
-3.500000 2.500000 14.000000 255 51 51
-0.500000 -1.500000 14.000000 255 51 51
3 0 1 2
3 3 0 2
3 4 5 6
3 7 8 9
3 10 11 12
3 13 10 12
3 14 15 16
3 17 18 19
3 20 21 22
3 23 20 22
3 16 24 19
3 25 26 27
3 28 25 27
3 29 30 31
3 32 33 34
3 33 35 34
3 35 36 34
3 37 38 39
3 40 41 42
3 42 39 43
3 44 45 46
3 47 44 46
3 48 49 50
3 51 52 53
3 54 55 56
3 57 58 59
3 58 60 59
3 60 61 59
3 62 6 63
3 63 6 59
3 59 6 5
3 64 65 66
3 65 64 67
3 68 69 70
3 71 72 73
3 54 74 75
3 76 77 78
3 79 80 60
3 81 82 83
3 84 85 86
3 87 88 89
3 90 91 92
3 93 6 94
3 95 96 97
3 98 99 100
3 101 102 103
3 104 105 106
3 107 108 109
3 110 111 112
3 113 91 90
3 114 113 90
3 115 116 114
3 113 114 117
3 118 119 120
3 121 122 123
3 124 125 126
3 57 59 127
3 121 128 129
3 130 131 132
3 133 134 135
3 136 137 138
3 139 140 141
3 142 143 144
3 143 145 146
3 147 148 149
3 150 151 152
3 153 154 155
3 76 156 157
3 158 159 160
3 161 162 163
3 161 164 165
3 166 167 168
3 169 170 171
3 165 172 173
3 174 175 176
3 177 178 179
3 180 77 181
3 182 183 184
3 185 186 187
3 188 189 190
3 191 190 192
3 193 194 195
3 196 193 195
3 197 194 198
3 199 200 196
3 201 202 203
3 204 205 206
3 207 208 209
3 174 210 169
3 211 186 212
3 209 211 212
3 213 214 215
3 166 216 217
3 218 219 220
3 208 221 222
3 223 41 40
3 224 225 124
3 226 227 228
3 93 4 6
3 229 230 231
3 232 233 234
3 235 236 237
3 238 239 240
3 241 242 243
3 244 245 246
3 247 248 177
3 249 250 63
3 251 252 253
3 10 254 11
3 255 181 256
3 257 258 259
3 260 261 262
3 263 264 265
3 135 266 126
3 267 86 85
3 247 179 268
3 269 270 271
3 272 256 181
3 273 18 17
3 121 274 275
3 276 277 116
3 196 278 199
3 279 280 281
3 248 282 283
3 284 285 286
3 207 68 221
3 166 287 288
3 39 41 37
3 289 290 291
3 23 292 293
3 44 294 45
3 295 50 296
3 297 25 28
3 298 8 235
3 299 100 267
3 300 106 105
3 42 43 40
3 301 168 167
3 277 302 303
3 36 304 34
3 305 306 307
3 103 97 96
3 53 209 208
3 308 309 310
3 4 311 67
3 276 116 115
3 312 189 313
3 314 315 316
3 317 318 227
3 319 224 124
3 320 106 321
3 322 323 324
3 325 315 326
3 327 328 329
3 330 331 332
3 333 334 335
3 69 186 185
3 336 243 242
3 337 232 234
3 233 338 234
3 116 303 339
3 71 58 72
3 340 341 218
3 19 297 17
3 342 129 128
3 343 344 345
3 285 110 286
3 346 347 270
3 346 348 349
3 292 21 350
3 157 77 76
3 83 89 88
3 351 323 252
3 144 278 197
3 278 146 199
3 293 352 333
3 305 117 339
3 353 354 355
3 67 5 4
3 3 356 289
3 231 357 229
3 143 358 359
3 360 213 361
3 188 190 362
3 59 33 127
3 304 363 279
3 127 30 57
3 364 314 316
3 292 365 352
3 33 66 299
3 366 335 334
3 32 55 367
3 151 368 152
3 92 307 306
3 369 370 371
3 372 94 6
3 278 194 197
3 145 373 206
3 325 374 375
3 247 376 332
3 377 146 205
3 294 39 38
3 378 379 380
3 381 382 122
3 383 384 318
3 385 274 386
3 345 192 387
3 318 313 383
3 248 331 388
3 178 153 179
3 58 30 72
3 56 34 85
3 21 265 389
3 390 258 140
3 391 392 393
3 394 395 391
3 29 72 30
3 171 396 360
3 16 18 14
3 397 9 398
3 255 26 399
3 400 183 401
3 402 378 403
3 367 73 29
3 177 283 178
3 404 163 162
3 405 276 223
3 132 406 354
3 49 296 50
3 407 259 408
3 209 69 207
3 112 108 107
3 48 194 193
3 116 117 114
3 246 133 135
3 348 149 148
3 229 357 339
3 317 409 410
3 411 337 412
3 137 413 138
3 414 262 415
3 416 417 418
3 73 74 71
3 356 1 419
3 253 183 182
3 420 281 280
3 414 246 119
3 421 38 306
3 422 423 424
3 425 391 426
3 113 307 91
3 427 1 0
3 33 31 127
3 334 365 428
3 416 270 309
3 368 417 308
3 56 74 54
3 429 184 400
3 184 158 182
3 430 271 416
3 431 379 432
3 395 180 392
3 65 311 98
3 28 255 256
3 433 197 198
3 321 434 357
3 26 25 24
3 249 435 436
3 329 328 79
3 185 70 69
3 14 18 437
3 438 274 439
3 305 300 421
3 109 273 107
3 23 265 20
3 265 440 389
3 441 442 443
3 444 320 445
3 225 446 447
3 254 356 419
3 448 254 419
3 449 450 382
3 306 37 115
3 314 154 451
3 323 452 401
3 453 454 455
3 214 274 129
3 258 456 259
3 457 128 123
3 300 294 421
3 447 268 153
3 458 242 422
3 459 229 390
3 291 460 461
3 160 405 158
3 393 426 391
3 373 337 462
3 239 463 464
3 430 358 465
3 119 466 467
3 105 45 300
3 60 468 372
3 12 469 13
3 371 470 296
3 471 7 9
3 273 297 272
3 273 112 107
3 472 473 474
3 183 323 401
3 241 475 353
3 125 284 126
3 427 476 448
3 132 477 137
3 428 366 334
3 478 467 466
3 48 196 200
3 11 479 12
3 52 187 53
3 74 329 71
3 381 121 275
3 401 480 400
3 418 343 387
3 160 429 408
3 47 105 444
3 453 236 481
3 218 372 6
3 482 457 398
3 92 115 114
3 261 393 326
3 467 426 260
3 483 474 473
3 54 367 55
3 49 200 484
3 425 156 394
3 345 485 191
3 486 381 487
3 488 263 333
3 489 423 355
3 490 491 304
3 455 301 167
3 492 474 269
3 156 78 394
3 408 493 407
3 412 192 411
3 494 495 147
3 187 496 185
3 32 29 31
3 188 497 472
3 498 495 499
3 155 447 153
3 427 3 461
3 247 500 501
3 176 173 172
3 253 405 251
3 389 365 350
3 456 502 160
3 218 62 340
3 449 503 404
3 103 96 236
3 285 316 325
3 295 504 50
3 155 314 125
3 505 506 312
3 340 250 507
3 508 490 509
3 220 436 435
3 331 244 414
3 351 320 231
3 173 336 458
3 189 472 492
3 297 256 272
3 126 120 135
3 320 251 445
3 122 397 123
3 424 458 422
3 180 78 77
3 227 510 228
3 427 511 512
3 388 415 282
3 269 142 513
3 291 10 13
3 152 310 347
3 64 59 5
3 368 514 343
3 347 309 270
3 462 234 515
3 375 108 111
3 275 516 381
3 478 286 156
3 482 88 517
3 518 519 342
3 14 374 15
3 258 141 140
3 520 130 454
3 213 439 214
3 166 288 216
3 218 341 219
3 208 207 221
3 223 276 41
3 224 521 225
3 226 409 227
3 93 522 4
3 229 459 230
3 232 523 233
3 235 8 236
3 238 442 239
3 241 353 242
3 244 524 245
3 247 332 248
3 61 249 63
3 63 59 61
3 251 351 252
3 10 290 254
3 255 180 181
3 259 525 257
3 257 526 258
3 260 426 261
3 263 527 264
3 135 134 266
3 267 528 86
3 247 177 179
3 269 346 270
3 181 157 112
3 112 272 181
3 273 437 18
3 121 129 274
3 276 502 277
3 196 195 278
3 279 363 529
3 529 280 279
3 281 267 279
3 248 388 282
3 284 364 285
3 207 69 68
3 166 517 287
3 39 42 41
3 289 356 290
3 23 22 292
3 44 43 294
3 470 226 296
3 228 295 296
3 296 226 228
3 297 24 25
3 298 482 8
3 267 281 299
3 299 65 100
3 100 99 528
3 528 267 100
3 300 434 106
3 47 40 43
3 43 44 47
3 301 518 168
3 277 456 302
3 36 490 304
3 305 421 306
3 103 102 97
3 222 51 208
3 53 211 209
3 208 51 53
3 308 417 309
3 4 522 311
3 115 37 41
3 41 276 115
3 383 313 189
3 312 190 189
3 189 492 383
3 314 451 315
3 317 505 318
3 124 126 319
3 266 319 126
3 320 104 106
3 322 530 323
3 324 531 322
3 325 316 315
3 327 532 328
3 330 533 331
3 332 376 330
3 333 352 334
3 69 212 186
3 336 534 243
3 337 506 232
3 233 369 338
3 116 277 303
3 71 329 58
3 340 535 341
3 19 24 297
3 342 214 129
3 343 536 344
3 285 111 110
3 346 349 347
3 346 474 348
3 292 22 21
3 157 181 77
3 83 82 89
3 351 324 323
3 144 143 278
3 278 143 146
3 293 292 352
3 305 307 117
3 353 475 477
3 475 413 477
3 422 242 353
3 406 489 354
3 355 422 353
3 353 477 354
3 354 489 355
3 67 64 5
3 3 2 356
3 231 321 357
3 359 145 143
3 143 142 358
3 360 396 537
3 537 438 439
3 439 213 360
3 360 537 439
3 538 362 190
3 190 191 538
3 59 66 33
3 304 491 363
3 127 31 30
3 364 125 314
3 292 350 365
3 65 299 66
3 420 509 35
3 35 33 299
3 299 420 35
3 366 539 335
3 32 34 55
3 151 540 368
3 92 91 307
3 49 541 371
3 338 369 371
3 371 541 338
3 372 468 94
3 278 195 194
3 359 430 416
3 418 373 145
3 373 462 204
3 359 416 418
3 206 146 145
3 145 359 418
3 373 204 206
3 325 326 374
3 247 501 376
3 206 205 146
3 377 542 200
3 199 146 377
3 377 200 199
3 294 43 39
3 378 432 379
3 381 449 382
3 383 513 384
3 385 543 275
3 275 274 385
3 544 386 274
3 345 191 192
3 318 505 313
3 248 332 331
3 178 154 153
3 58 57 30
3 532 327 84
3 56 55 34
3 34 304 279
3 279 267 34
3 85 84 56
3 84 327 56
3 34 267 85
3 21 20 265
3 390 302 258
3 391 395 392
3 394 78 395
3 29 73 72
3 171 170 396
3 16 19 18
3 482 398 9
3 397 382 545
3 545 471 397
3 382 450 545
3 9 8 482
3 397 471 9
3 255 27 26
3 400 184 183
3 402 432 378
3 367 75 73
3 177 248 283
3 404 546 163
3 405 502 276
3 132 131 406
3 49 371 296
3 407 525 259
3 209 212 69
3 112 111 108
3 48 198 194
3 116 339 117
3 135 120 246
3 119 246 120
3 245 133 246
3 348 547 149
3 305 339 357
3 303 302 390
3 390 229 339
3 357 434 305
3 339 303 390
3 317 227 409
3 411 506 337
3 137 477 413
3 414 260 262
3 416 309 417
3 73 75 74
3 356 2 1
3 253 252 183
3 420 299 281
3 467 260 119
3 414 244 246
3 119 260 414
3 421 294 38
3 422 355 423
3 425 394 391
3 113 117 307
3 427 448 1
3 33 32 31
3 334 352 365
3 416 271 270
3 368 343 417
3 56 327 74
3 480 493 429
3 429 159 184
3 400 480 429
3 184 159 158
3 430 465 271
3 548 431 432
3 432 402 548
3 399 392 180
3 180 255 399
3 98 100 65
3 65 67 311
3 28 27 255
3 433 203 144
3 202 144 203
3 198 549 433
3 433 144 197
3 321 106 434
3 24 16 15
3 15 26 24
3 249 61 435
3 79 60 58
3 58 329 79
3 185 496 70
3 375 14 437
3 437 109 375
3 438 544 274
3 305 434 300
3 109 437 273
3 23 263 265
3 265 264 440
3 441 463 442
3 442 238 443
3 444 104 320
3 225 521 446
3 254 290 356
3 448 476 550
3 550 551 11
3 11 254 550
3 419 1 448
3 550 254 448
3 449 552 450
3 306 38 37
3 314 155 154
3 323 530 452
3 453 481 454
3 214 439 274
3 258 302 456
3 397 398 123
3 457 342 128
3 128 121 123
3 123 398 457
3 300 45 294
3 447 446 500
3 268 179 153
3 447 500 268
3 458 336 242
3 390 140 139
3 139 459 390
3 3 289 461
3 291 13 460
3 460 511 461
3 13 469 460
3 461 289 291
3 160 502 405
3 393 261 426
3 373 412 337
3 239 442 463
3 430 359 358
3 119 118 466
3 105 46 45
3 435 61 60
3 60 80 468
3 372 435 60
3 12 479 469
3 371 370 470
3 471 520 7
3 273 17 297
3 273 272 112
3 472 553 473
3 183 252 323
3 241 554 475
3 125 364 284
3 427 512 476
3 455 454 132
3 132 354 477
3 137 455 132
3 428 555 366
3 478 425 467
3 48 193 196
3 11 551 479
3 211 53 187
3 52 556 187
3 187 186 211
3 74 327 329
3 381 122 121
3 401 452 480
3 412 373 387
3 418 417 343
3 343 345 387
3 387 373 418
3 160 159 429
3 104 444 105
3 47 46 105
3 453 217 236
3 218 220 372
3 482 517 457
3 114 90 92
3 92 306 115
3 15 374 399
3 326 315 451
3 451 154 283
3 283 282 415
3 154 178 283
3 326 451 261
3 283 415 451
3 415 262 451
3 374 326 393
3 399 26 15
3 393 392 399
3 262 261 451
3 393 399 374
3 467 425 426
3 483 547 348
3 348 474 483
3 54 75 367
3 557 541 484
3 49 48 200
3 200 542 484
3 484 541 49
3 425 478 156
3 538 191 558
3 345 344 559
3 485 558 191
3 345 559 485
3 486 449 381
3 293 333 263
3 335 539 488
3 488 527 263
3 263 23 293
3 333 335 488
3 489 560 423
3 490 561 491
3 166 217 167
3 455 137 136
3 167 217 453
3 136 301 455
3 453 455 167
3 269 513 492
3 492 472 474
3 513 383 492
3 474 346 269
3 156 76 78
3 408 429 493
3 312 411 192
3 412 387 192
3 192 190 312
3 494 499 495
3 187 556 496
3 32 367 29
3 553 472 562
3 188 362 563
3 497 562 472
3 188 563 497
3 498 150 495
3 155 225 447
3 427 0 3
3 247 268 500
3 176 175 173
3 40 47 444
3 445 251 223
3 40 444 445
3 158 405 253
3 223 40 445
3 253 182 158
3 223 251 405
3 389 440 564
3 564 555 428
3 428 365 564
3 350 21 389
3 564 365 389
3 160 408 259
3 456 277 502
3 160 259 456
3 218 6 62
3 565 552 404
3 449 486 503
3 503 546 404
3 404 552 449
3 236 217 103
3 216 101 103
3 96 95 237
3 217 216 103
3 96 237 236
3 285 364 316
3 48 50 198
3 295 566 504
3 504 549 198
3 198 50 504
3 125 124 225
3 225 155 125
3 505 317 506
3 410 523 232
3 506 411 312
3 410 232 317
3 312 313 505
3 317 232 506
3 340 62 250
3 63 250 62
3 507 535 340
3 35 509 36
3 508 561 490
3 490 36 509
3 220 219 567
3 567 436 220
3 435 372 220
3 414 388 331
3 331 533 524
3 524 244 331
3 231 230 324
3 230 531 324
3 320 321 231
3 231 324 351
3 175 174 336
3 171 360 361
3 174 169 534
3 171 361 534
3 534 336 174
3 458 568 165
3 565 404 162
3 161 165 568
3 568 565 162
3 162 161 568
3 169 171 534
3 458 165 173
3 173 175 336
3 189 188 472
3 297 28 256
3 126 284 120
3 320 351 251
3 122 382 397
3 424 568 458
3 180 395 78
3 295 228 566
3 227 318 384
3 384 201 510
3 510 566 228
3 227 384 510
3 427 461 511
3 388 414 415
3 384 513 201
3 269 271 465
3 269 465 358
3 201 513 202
3 142 144 202
3 202 513 142
3 269 358 142
3 291 290 10
3 148 147 150
3 495 150 147
3 349 348 148
3 148 150 152
3 152 368 308
3 308 310 152
3 347 349 148
3 148 152 347
3 64 66 59
3 368 540 514
3 514 536 343
3 347 310 309
3 462 337 234
3 234 338 515
3 541 557 338
3 515 204 462
3 338 557 515
3 285 325 111
3 375 109 108
3 111 325 375
3 275 543 516
3 516 569 381
3 487 381 569
3 478 466 118
3 118 120 284
3 286 110 156
3 118 284 286
3 157 156 110
3 478 118 286
3 110 112 157
3 287 517 88
3 482 298 83
3 298 81 83
3 88 87 287
3 482 83 88
3 342 457 168
3 517 166 168
3 168 518 342
3 519 215 214
3 457 517 168
3 519 214 342
3 14 375 374
3 258 526 141
3 481 236 7
3 7 520 454
3 236 8 7
3 130 132 454
3 454 481 7
