ply
format ascii 1.0
comment Created by Blender 2.78 (sub 0) - www.blender.org, source file: ''
element vertex 570
property float x
property float y
property float z
property uchar red
property uchar green
property uchar blue
element face 930
property list uchar uint vertex_indices
end_header
-2.000000 2.500000 0.500000 255 255 0
-2.500000 3.000000 0.500000 255 255 0
-2.000000 3.000000 0.000000 255 255 0
-1.500000 3.000000 0.500000 255 255 0
-1.000000 2.500000 5.500000 0 255 51
-1.000000 2.000000 5.000000 0 255 51
-2.000000 1.500000 5.500000 0 255 51
-2.500000 2.000000 9.500000 255 51 51
-2.500000 1.000000 8.500000 255 51 51
-2.500000 0.000000 9.500000 255 51 51
-2.000000 5.500000 2.500000 255 255 0
-2.500000 5.000000 2.500000 255 255 0
-2.000000 5.000000 3.000000 255 255 0
-1.500000 5.000000 2.500000 255 255 0
-6.000000 -4.500000 4.500000 255 204 102
-6.500000 -4.000000 4.500000 255 204 102
-6.000000 -4.000000 4.000000 255 204 102
-4.500000 -4.000000 4.500000 255 204 102
-5.000000 -4.500000 4.500000 255 204 102
-5.000000 -4.000000 4.000000 255 204 102
2.000000 -4.000000 4.000000 255 255 0
1.500000 -4.000000 3.500000 255 255 0
2.000000 -4.500000 3.500000 255 255 0
2.500000 -4.000000 3.500000 255 255 0
-6.000000 -3.000000 4.000000 255 204 102
-6.000000 -2.000000 4.000000 255 204 102
-6.500000 -2.000000 4.500000 255 204 102
-6.000000 -1.500000 4.500000 255 204 102
-5.500000 -2.000000 4.500000 255 204 102
-1.000000 -1.500000 4.500000 0 255 51
-1.500000 -1.000000 4.500000 0 255 51
-1.000000 -1.000000 4.000000 0 255 51
1.000000 -1.000000 4.000000 0 255 51
1.000000 0.000000 4.000000 0 255 51
2.000000 -0.500000 4.500000 0 255 51
1.500000 0.000000 3.500000 0 255 51
1.500000 -1.000000 3.500000 0 255 51
5.000000 1.500000 4.500000 255 204 102
4.500000 2.000000 4.500000 255 204 102
5.000000 2.000000 4.000000 255 204 102
6.500000 2.000000 4.500000 255 204 102
6.000000 1.500000 4.500000 255 204 102
6.000000 2.000000 4.000000 255 204 102
6.000000 3.000000 4.000000 255 204 102
6.000000 4.000000 4.000000 255 204 102
5.500000 4.000000 4.500000 255 204 102
6.000000 4.500000 4.500000 255 204 102
6.500000 4.000000 4.500000 255 204 102
0.000000 -3.500000 18.500000 255 204 102
1.000000 -3.500000 19.500000 255 204 102
-1.000000 -3.500000 19.500000 255 204 102
0.500000 2.500000 21.000000 255 255 102
-0.500000 2.500000 21.000000 255 255 102
0.000000 2.500000 21.500000 255 255 102
1.500000 -1.000000 5.500000 0 255 51
1.500000 -1.000000 4.500000 0 255 51
1.500000 0.000000 5.500000 0 255 51
-1.500000 0.000000 4.500000 0 255 51
-1.500000 0.000000 5.500000 0 255 51
-1.000000 1.000000 5.000000 0 255 51
-2.000000 0.500000 5.500000 0 255 51
-2.000000 0.500000 4.500000 0 255 51
-1.500000 2.000000 4.500000 0 255 51
-1.500000 1.000000 4.500000 0 255 51
1.000000 2.000000 5.000000 0 255 51
1.500000 2.000000 5.500000 0 255 51
1.000000 1.000000 5.000000 0 255 51
1.000000 2.500000 5.500000 0 255 51
0.500000 -2.500000 21.000000 255 255 102
0.000000 -2.500000 21.500000 255 255 102
-0.500000 -2.500000 21.000000 255 255 102
-1.000000 -1.000000 6.000000 0 255 51
-1.500000 -1.000000 5.500000 0 255 51
-1.000000 -1.500000 5.500000 0 255 51
1.000000 -1.000000 6.000000 0 255 51
1.000000 -1.500000 5.500000 0 255 51
-3.500000 -1.000000 6.500000 255 204 102
-4.000000 -1.000000 6.000000 255 204 102
-4.000000 -0.500000 6.500000 255 204 102
-1.500000 0.500000 6.000000 0 255 51
-2.000000 0.500000 6.000000 0 255 51
-1.500000 0.500000 6.000000 255 51 51
-1.000000 0.250000 6.250000 255 51 51
-1.000000 0.500000 6.500000 255 51 51
1.500000 0.500000 6.000000 0 255 51
2.000000 0.500000 5.500000 0 255 51
2.000000 0.500000 6.000000 0 255 51
1.500000 0.500000 6.000000 255 51 51
1.000000 0.500000 6.500000 255 51 51
1.000000 0.250000 6.250000 255 51 51
4.000000 0.500000 6.500000 255 204 102
3.500000 1.000000 6.500000 255 204 102
4.000000 1.000000 6.000000 255 204 102
-1.500000 1.500000 6.000000 0 255 51
-2.000000 1.500000 6.000000 0 255 51
-1.500000 1.500000 6.000000 255 51 51
-1.000000 1.500000 6.500000 255 51 51
-1.000000 1.750000 6.250000 255 51 51
1.500000 1.500000 6.000000 0 255 51
2.000000 1.500000 6.000000 0 255 51
2.000000 1.500000 5.500000 0 255 51
1.500000 1.500000 6.000000 255 51 51
1.000000 1.750000 6.250000 255 51 51
1.000000 1.500000 6.500000 255 51 51
6.000000 4.500000 6.500000 255 204 102
6.000000 4.500000 5.500000 255 204 102
5.000000 4.500000 6.500000 255 204 102
-3.500000 -4.000000 6.500000 255 204 102
-4.000000 -4.000000 7.000000 255 204 102
-4.000000 -4.500000 6.500000 255 204 102
-4.500000 -3.000000 7.500000 255 204 102
-5.000000 -3.500000 7.500000 255 204 102
-4.500000 -3.000000 6.500000 255 204 102
4.000000 1.000000 7.000000 255 204 102
4.500000 1.000000 6.500000 255 204 102
5.000000 1.500000 6.500000 255 204 102
5.000000 1.500000 7.500000 255 204 102
4.000000 2.000000 7.000000 255 204 102
-4.500000 2.000000 9.500000 255 204 102
-5.000000 2.500000 9.500000 255 204 102
-4.500000 2.000000 10.500000 255 204 102
0.000000 -0.500000 11.500000 255 51 51
-1.000000 -1.500000 11.500000 255 51 51
-1.000000 -0.500000 10.500000 255 51 51
-4.000000 -0.500000 11.500000 255 204 102
-5.000000 -0.500000 11.500000 255 204 102
-4.000000 0.000000 11.000000 255 204 102
-1.000000 0.000000 4.000000 0 255 51
1.000000 -0.500000 10.500000 255 51 51
1.000000 -1.500000 11.500000 255 51 51
-3.500000 2.500000 11.000000 255 51 51
-3.250000 3.000000 10.750000 255 51 51
-3.000000 3.000000 11.000000 255 51 51
-3.500000 2.500000 11.000000 255 204 102
-3.750000 2.000000 10.750000 255 204 102
-4.000000 2.000000 11.000000 255 204 102
3.500000 2.500000 11.000000 255 51 51
3.000000 3.000000 11.000000 255 51 51
3.250000 3.000000 10.750000 255 51 51
3.500000 2.500000 11.000000 255 204 102
4.000000 2.000000 11.000000 255 204 102
3.750000 2.000000 10.750000 255 204 102
-2.000000 -2.500000 16.500000 255 204 102
0.000000 -2.500000 16.500000 255 204 102
-1.000000 -2.500000 17.500000 255 204 102
2.000000 -2.500000 16.500000 255 204 102
1.000000 -2.500000 17.500000 255 204 102
-0.500000 -1.500000 14.000000 255 204 102
-1.000000 -2.000000 14.000000 255 204 102
-1.000000 -1.750000 13.750000 255 204 102
0.500000 -1.500000 14.000000 255 204 102
1.000000 -1.750000 13.750000 255 204 102
1.000000 -2.000000 14.000000 255 204 102
-6.000000 0.000000 14.000000 255 204 102
-6.500000 0.000000 13.500000 255 204 102
-6.000000 -0.500000 13.500000 255 204 102
-4.500000 -1.000000 7.500000 255 204 102
-4.500000 -2.000000 6.500000 255 204 102
6.500000 0.000000 13.500000 255 204 102
6.000000 0.000000 14.000000 255 204 102
6.000000 -0.500000 13.500000 255 204 102
-2.500000 0.500000 14.000000 255 51 51
-3.000000 0.000000 14.000000 255 51 51
-2.750000 0.000000 14.250000 255 51 51
-1.833330 0.833333 14.333300 255 51 51
-1.500000 1.500000 14.000000 255 51 51
2.500000 1.000000 8.500000 255 51 51
2.500000 2.000000 9.500000 255 51 51
2.500000 0.000000 9.500000 255 51 51
2.500000 0.500000 14.000000 255 51 51
2.750000 0.000000 14.250000 255 51 51
3.000000 0.000000 14.000000 255 51 51
-1.000000 1.750000 14.250000 255 51 51
-1.000000 2.000000 14.000000 255 51 51
1.500000 1.500000 14.000000 255 51 51
1.000000 2.000000 14.000000 255 51 51
1.000000 1.750000 14.250000 255 51 51
-6.000000 2.500000 13.500000 255 204 102
-6.500000 2.000000 13.500000 255 204 102
-6.000000 2.000000 14.000000 255 204 102
-6.000000 -1.000000 6.000000 255 204 102
-5.000000 -2.000000 6.000000 255 204 102
6.500000 2.000000 13.500000 255 204 102
6.000000 2.500000 13.500000 255 204 102
6.000000 2.000000 14.000000 255 204 102
-0.500000 -2.000000 21.500000 255 255 102
-0.500000 -2.000000 25.500000 255 255 102
-0.500000 2.000000 21.500000 255 255 102
-1.000000 1.500000 14.500000 255 204 102
-1.000000 1.500000 15.500000 255 204 102
0.000000 1.500000 14.500000 255 204 102
1.000000 1.500000 14.500000 255 204 102
1.000000 1.500000 15.500000 255 204 102
0.000000 -4.500000 17.500000 255 204 102
-0.500000 -4.000000 17.500000 255 204 102
0.000000 -4.000000 17.000000 255 204 102
0.500000 -4.000000 17.500000 255 204 102
-0.500000 -3.000000 17.500000 255 204 102
-0.500000 -3.000000 18.500000 255 204 102
0.500000 -3.000000 17.500000 255 204 102
0.500000 -3.000000 18.500000 255 204 102
-1.500000 -1.500000 18.000000 255 204 102
-1.500000 -2.000000 17.500000 255 204 102
-1.500000 -2.000000 18.000000 255 204 102
1.500000 -1.500000 18.000000 255 204 102
1.500000 -2.000000 18.000000 255 204 102
1.500000 -2.000000 17.500000 255 204 102
0.500000 -2.000000 21.500000 255 255 102
0.500000 2.000000 21.500000 255 255 102
0.500000 -2.000000 25.500000 255 255 102
1.833330 0.833333 14.333300 255 51 51
0.000000 -2.000000 26.000000 255 255 102
0.000000 -2.500000 25.500000 255 255 102
-1.500000 -2.000000 20.500000 255 204 102
-0.750000 2.000000 21.250000 255 204 102
-1.500000 2.000000 20.500000 255 204 102
2.000000 -2.000000 14.000000 255 204 102
2.500000 -1.500000 14.000000 255 204 102
2.500000 -1.000000 14.500000 255 204 102
1.500000 -1.000000 18.500000 255 204 102
2.500000 2.000000 17.500000 255 204 102
1.500000 2.000000 18.500000 255 204 102
-0.750000 -2.750000 18.000000 204 255 255
-1.500000 -2.000000 18.500000 204 255 255
-1.500000 -2.000000 18.000000 204 255 255
-3.750000 2.750000 13.500000 255 51 51
-3.000000 3.500000 12.500000 255 51 51
-3.750000 2.750000 12.500000 255 51 51
-4.500000 -1.000000 9.500000 255 204 102
-5.000000 -1.500000 10.500000 255 204 102
-5.000000 -1.500000 9.500000 255 204 102
-3.000000 -1.500000 11.500000 255 51 51
-3.750000 -0.750000 13.500000 255 51 51
-3.750000 -0.750000 11.500000 255 51 51
-2.500000 0.000000 15.500000 255 204 102
-2.500000 0.000000 14.500000 255 204 102
0.166667 -0.833333 13.666700 255 51 51
1.000000 -1.500000 13.500000 255 51 51
0.500000 -1.500000 14.000000 255 51 51
-1.500000 4.000000 0.500000 255 255 0
-2.000000 5.500000 1.500000 255 255 0
-1.500000 5.000000 1.500000 255 255 0
-4.000000 2.500000 13.500000 255 204 102
-3.500000 2.500000 14.000000 255 204 102
-3.750000 2.750000 13.500000 255 204 102
1.000000 -4.500000 15.500000 255 204 102
-1.000000 -4.000000 16.000000 255 204 102
-1.000000 -4.500000 15.500000 255 204 102
3.750000 0.000000 10.750000 255 51 51
-2.500000 4.000000 2.500000 0 255 51
-2.000000 4.500000 3.000000 0 255 51
-2.500000 4.500000 2.500000 0 255 51
-1.000000 0.000000 6.000000 0 255 51
1.000000 0.250000 6.250000 0 255 51
-1.000000 0.250000 6.250000 0 255 51
-3.500000 -0.500000 11.000000 255 204 102
-2.500000 1.000000 6.000000 255 51 51
-2.000000 0.500000 8.500000 255 51 51
2.500000 0.000000 14.500000 255 204 102
2.750000 -1.000000 14.250000 255 204 102
2.750000 0.000000 14.250000 255 204 102
-4.000000 2.500000 12.500000 255 204 102
-3.833330 2.833330 12.333300 255 204 102
-4.000000 3.500000 11.500000 255 204 102
0.750000 -2.750000 18.000000 204 255 255
1.500000 -2.000000 18.500000 204 255 255
0.750000 -2.750000 18.500000 204 255 255
4.000000 3.500000 11.500000 255 204 102
3.833330 2.833330 12.333300 255 204 102
4.000000 2.500000 12.500000 255 204 102
-5.000000 0.000000 8.000000 255 204 102
-5.000000 -0.500000 7.500000 255 204 102
4.500000 3.000000 9.500000 255 204 102
5.000000 3.500000 7.500000 255 204 102
4.500000 3.000000 7.500000 255 204 102
1.000000 -2.500000 20.500000 255 204 102
-1.000000 -2.500000 20.500000 255 204 102
-6.000000 -4.500000 6.500000 255 204 102
-6.500000 -4.000000 6.500000 255 204 102
-6.000000 2.500000 12.500000 255 204 102
-6.500000 3.000000 11.500000 255 204 102
-6.500000 2.000000 12.500000 255 204 102
2.500000 -1.000000 17.500000 255 204 102
0.000000 -3.000000 17.000000 255 204 102
-4.500000 1.000000 8.500000 255 204 102
-5.000000 1.000000 8.000000 255 204 102
2.000000 2.500000 17.500000 255 204 102
-1.000000 -4.500000 14.500000 255 204 102
1.000000 -4.000000 14.000000 255 204 102
1.000000 -4.500000 14.500000 255 204 102
6.500000 3.000000 7.500000 255 204 102
6.000000 3.500000 11.500000 255 204 102
6.500000 3.000000 11.500000 255 204 102
2.000000 -3.000000 3.000000 255 255 0
1.500000 -3.000000 2.500000 255 255 0
0.750000 -2.000000 21.250000 255 255 102
-2.000000 3.500000 1.500000 255 255 0
-1.500000 4.000000 1.500000 255 255 0
-2.000000 -3.000000 14.000000 255 204 102
-1.000000 -4.000000 14.000000 255 204 102
2.000000 -1.250000 1.750000 0 255 51
2.500000 1.000000 4.500000 0 255 51
2.500000 -1.500000 2.000000 0 255 51
2.500000 -4.000000 2.500000 255 255 0
2.000000 -4.500000 2.500000 255 255 0
-6.500000 1.000000 8.500000 255 204 102
-6.000000 0.000000 8.000000 255 204 102
-6.500000 0.000000 8.500000 255 204 102
3.750000 2.750000 13.500000 255 51 51
3.000000 3.500000 12.500000 255 51 51
3.000000 3.500000 13.500000 255 51 51
-6.000000 3.500000 10.500000 255 204 102
-6.500000 3.000000 10.500000 255 204 102
-5.500000 -3.000000 5.500000 255 204 102
-5.500000 -3.000000 4.500000 255 204 102
4.500000 0.000000 10.500000 255 204 102
4.000000 0.000000 11.000000 255 204 102
-3.500000 3.500000 11.000000 255 51 51
-3.000000 3.500000 11.500000 255 51 51
-2.500000 1.000000 6.000000 0 255 51
2.000000 -2.500000 3.000000 255 255 0
1.500000 -2.500000 2.500000 255 255 0
1.500000 -1.500000 19.000000 204 255 255
1.500000 -1.500000 18.000000 204 255 255
-2.000000 3.250000 1.750000 0 255 51
-2.500000 1.000000 4.500000 0 255 51
-2.500000 3.500000 2.000000 0 255 51
-3.000000 -0.500000 10.500000 255 51 51
-2.000000 -0.500000 9.500000 255 51 51
1.500000 2.000000 20.500000 255 204 102
0.750000 -2.000000 21.250000 255 204 102
1.500000 -2.000000 20.500000 255 204 102
-2.500000 4.000000 0.500000 255 255 0
1.500000 -4.000000 2.500000 255 255 0
3.500000 2.000000 6.500000 255 204 102
4.500000 2.000000 5.500000 255 204 102
2.500000 -3.000000 14.500000 255 204 102
-4.000000 2.000000 14.000000 255 204 102
-1.000000 1.750000 14.250000 255 204 102
1.000000 1.750000 14.250000 255 204 102
-2.500000 1.000000 5.500000 0 255 51
6.000000 -0.500000 9.500000 255 204 102
5.000000 -0.500000 9.500000 255 204 102
-1.500000 3.500000 2.000000 0 255 51
-4.000000 3.000000 10.000000 255 204 102
2.000000 -3.000000 1.000000 255 255 0
1.500000 -3.000000 1.500000 255 255 0
2.000000 -2.000000 3.000000 0 255 51
1.500000 -2.500000 2.500000 0 255 51
2.000000 -2.500000 3.000000 0 255 51
1.000000 2.500000 18.500000 255 204 102
1.000000 2.500000 20.500000 255 204 102
-1.000000 1.750000 6.250000 0 255 51
1.000000 1.750000 6.250000 0 255 51
-2.500000 -1.000000 17.500000 255 204 102
-2.500000 -3.000000 15.500000 255 204 102
-4.000000 -0.500000 13.500000 255 204 102
-3.500000 -0.500000 14.000000 255 204 102
-4.000000 0.000000 14.000000 255 204 102
-2.750000 -1.000000 14.250000 255 51 51
-1.500000 2.000000 18.500000 255 204 102
-1.500000 -1.000000 18.500000 255 204 102
-6.500000 -1.000000 9.500000 255 204 102
-6.000000 -1.500000 10.500000 255 204 102
-6.500000 -1.000000 10.500000 255 204 102
2.000000 1.500000 8.500000 255 51 51
2.500000 1.000000 6.000000 255 51 51
2.000000 1.500000 6.000000 255 51 51
4.500000 3.000000 6.500000 255 204 102
-6.000000 -0.500000 11.500000 255 204 102
1.500000 -2.000000 1.500000 255 255 0
-2.000000 2.500000 9.500000 255 51 51
-2.000000 1.500000 8.500000 255 51 51
-5.500000 -2.000000 5.500000 255 204 102
-3.750000 2.000000 10.750000 255 51 51
6.000000 2.500000 12.500000 255 204 102
-2.500000 4.500000 2.500000 255 255 0
-2.000000 4.500000 3.000000 255 255 0
6.000000 1.500000 7.500000 255 204 102
3.750000 0.000000 10.750000 255 204 102
-6.000000 1.000000 8.000000 255 204 102
4.500000 0.000000 9.500000 255 204 102
4.500000 2.000000 7.500000 255 204 102
0.000000 -0.500000 13.500000 255 51 51
5.500000 4.000000 5.500000 255 204 102
2.000000 -1.250000 1.750000 255 255 0
2.500000 -2.000000 1.500000 255 255 0
2.000000 -2.000000 1.000000 255 255 0
5.500000 3.000000 4.500000 255 204 102
-2.500000 3.500000 2.000000 255 255 0
-2.500000 4.000000 1.500000 255 255 0
-0.750000 2.000000 21.250000 255 255 102
-0.750000 -2.000000 21.250000 255 255 102
2.500000 0.000000 15.500000 255 204 102
6.500000 4.000000 6.500000 255 204 102
6.000000 3.500000 7.500000 255 204 102
3.000000 -1.000000 14.000000 255 51 51
2.750000 -1.000000 14.250000 255 51 51
-1.500000 3.500000 2.000000 255 255 0
-2.000000 3.250000 1.750000 255 255 0
4.000000 2.500000 13.500000 255 204 102
3.750000 2.750000 12.500000 255 204 102
3.750000 2.750000 13.500000 255 204 102
3.500000 3.500000 11.000000 255 204 102
5.000000 3.500000 9.500000 255 204 102
-2.500000 -3.000000 14.500000 255 204 102
-2.000000 -2.000000 14.000000 255 204 102
-3.750000 0.000000 10.750000 255 204 102
3.000000 3.000000 14.000000 255 51 51
-3.000000 3.000000 14.000000 255 51 51
0.750000 2.000000 21.250000 255 204 102
3.750000 2.750000 12.500000 255 51 51
3.500000 3.500000 12.000000 255 51 51
1.000000 -1.500000 4.500000 0 255 51
2.000000 2.500000 9.500000 255 51 51
3.000000 2.500000 10.500000 255 51 51
5.000000 -0.500000 10.500000 255 204 102
4.000000 -0.500000 11.500000 255 204 102
2.500000 -1.750000 13.750000 255 51 51
3.000000 -1.500000 13.500000 255 51 51
2.000000 0.500000 8.500000 255 51 51
2.000000 0.500000 6.000000 255 51 51
-1.000000 2.500000 20.500000 255 204 102
-0.500000 2.500000 21.000000 255 204 102
-4.500000 -1.000000 10.500000 255 204 102
-6.500000 -1.000000 6.500000 255 204 102
-6.000000 -1.500000 5.500000 255 204 102
-6.000000 3.500000 11.500000 255 204 102
-6.000000 -1.500000 9.500000 255 204 102
2.500000 -3.000000 1.500000 255 255 0
-6.500000 -1.000000 7.500000 255 204 102
-6.000000 -0.500000 7.500000 255 204 102
-5.000000 -4.500000 5.500000 255 204 102
-2.500000 5.000000 1.500000 255 255 0
2.000000 -3.000000 16.000000 255 204 102
2.500000 -2.500000 2.500000 255 255 0
-6.500000 0.000000 11.500000 255 204 102
-2.500000 -1.000000 14.500000 255 204 102
-2.750000 -1.000000 14.250000 255 204 102
-2.500000 -1.500000 14.000000 255 204 102
6.500000 0.000000 9.500000 255 204 102
-4.000000 3.500000 10.500000 255 204 102
-3.250000 3.000000 10.750000 255 204 102
2.000000 -0.500000 9.500000 255 51 51
-3.000000 3.500000 13.500000 255 51 51
4.500000 4.000000 6.500000 255 204 102
-6.000000 -0.500000 6.500000 255 204 102
-2.500000 4.500000 2.000000 255 255 0
0.166667 -0.833333 13.666700 255 204 102
0.000000 -1.000000 14.000000 255 204 102
0.000000 -0.750000 13.750000 255 204 102
-1.500000 -1.500000 19.000000 255 204 102
-4.500000 0.000000 8.500000 255 204 102
-6.500000 -2.000000 5.500000 255 204 102
-3.000000 -1.500000 13.500000 255 51 51
0.750000 2.000000 21.250000 255 255 102
2.500000 1.000000 6.000000 0 255 51
-2.000000 4.000000 0.000000 255 255 0
-3.750000 -0.750000 13.500000 255 204 102
2.500000 -2.000000 2.500000 0 255 51
2.500000 -2.500000 2.500000 0 255 51
-1.000000 2.500000 18.500000 255 204 102
3.250000 3.000000 10.750000 255 204 102
4.500000 2.000000 10.500000 255 204 102
2.000000 1.500000 4.500000 0 255 51
2.500000 -3.000000 15.500000 255 204 102
4.000000 2.000000 14.000000 255 204 102
3.500000 -0.500000 14.000000 255 204 102
4.000000 0.000000 14.000000 255 204 102
-0.750000 -2.750000 18.000000 255 204 102
1.500000 -1.500000 2.000000 0 255 51
0.750000 -2.750000 18.000000 255 204 102
3.750000 -0.750000 11.500000 255 51 51
3.000000 -1.500000 11.500000 255 51 51
-1.500000 4.500000 2.500000 255 255 0
5.500000 3.000000 5.500000 255 204 102
-0.750000 -2.000000 21.250000 255 204 102
0.500000 -2.500000 21.000000 255 204 102
-0.500000 -2.500000 21.000000 255 204 102
2.000000 -3.000000 14.000000 255 204 102
-2.750000 0.000000 14.250000 255 204 102
-1.500000 -1.500000 18.000000 204 255 255
1.500000 -1.500000 19.000000 255 204 102
1.500000 -2.500000 19.000000 255 204 102
1.500000 -2.500000 19.000000 204 255 255
0.833333 -2.833330 18.666700 204 255 255
-2.500000 -1.750000 13.750000 255 51 51
-1.000000 -1.500000 13.500000 255 51 51
-1.000000 -1.750000 13.750000 255 51 51
-3.000000 2.500000 10.500000 255 51 51
-4.500000 -4.000000 5.500000 255 204 102
4.000000 -0.500000 13.500000 255 204 102
1.000000 0.000000 6.000000 0 255 51
3.500000 2.500000 14.000000 255 204 102
-1.500000 -2.500000 19.000000 204 255 255
-0.750000 -2.750000 18.500000 204 255 255
-0.833333 -2.833330 18.666700 204 255 255
3.500000 -0.500000 11.000000 255 204 102
-1.500000 1.500000 14.000000 255 204 102
-1.833330 0.833333 14.333300 255 204 102
2.500000 1.000000 5.500000 0 255 51
3.750000 -0.750000 13.500000 255 51 51
3.500000 -0.500000 14.000000 255 51 51
-1.500000 -3.000000 19.500000 255 204 102
-0.833333 -2.833330 18.666700 255 204 102
-2.000000 2.500000 17.500000 255 204 102
-2.500000 2.000000 17.500000 255 204 102
-2.000000 4.000000 3.000000 0 255 51
-1.500000 4.000000 2.500000 0 255 51
1.500000 -2.500000 2.000000 255 255 0
-2.000000 -3.000000 16.000000 255 204 102
-2.500000 -1.500000 14.000000 255 51 51
-3.000000 -1.000000 14.000000 255 51 51
6.500000 2.000000 12.500000 255 204 102
-0.166667 -0.833333 13.666700 255 51 51
3.750000 -0.750000 13.500000 255 204 102
1.833330 0.833333 14.333300 255 204 102
-1.500000 4.500000 2.500000 0 255 51
2.500000 -2.500000 2.000000 255 255 0
2.500000 -3.000000 2.500000 255 255 0
3.750000 -0.750000 11.500000 255 204 102
-1.500000 4.500000 2.000000 0 255 51
-0.166667 -0.833333 13.666700 255 204 102
-3.500000 3.500000 12.000000 255 51 51
-1.500000 4.500000 2.000000 255 255 0
3.000000 3.500000 11.500000 255 51 51
-3.750000 2.750000 12.500000 255 204 102
3.500000 3.500000 11.000000 255 51 51
0.833333 -2.833330 18.666700 255 204 102
3.500000 -0.500000 11.000000 255 51 51
3.000000 -0.500000 10.500000 255 51 51
0.000000 2.500000 15.500000 255 204 102
6.500000 2.000000 7.500000 255 204 102
-2.000000 1.500000 6.000000 255 51 51
2.500000 -1.750000 13.750000 255 204 102
0.000000 -0.750000 13.750000 255 51 51
1.000000 -1.750000 13.750000 255 51 51
1.000000 -4.000000 16.000000 255 204 102
3.750000 2.000000 10.750000 255 51 51
-3.750000 -0.750000 11.500000 255 204 102
-2.000000 0.500000 6.000000 255 51 51
-3.500000 3.500000 12.000000 255 204 102
1.500000 -2.000000 18.000000 204 255 255
3.500000 3.500000 12.000000 255 204 102
-3.500000 -0.500000 11.000000 255 51 51
-3.750000 0.000000 10.750000 255 51 51
-2.500000 4.500000 2.000000 0 255 51
1.500000 -2.000000 2.500000 0 255 51
2.500000 -1.500000 2.000000 255 255 0
1.500000 -3.000000 19.500000 255 204 102
3.500000 2.500000 14.000000 255 51 51
-3.500000 2.500000 14.000000 255 51 51
-3.500000 -0.500000 14.000000 255 51 51
0.500000 2.500000 21.000000 255 204 102
3.833330 2.833330 12.333300 255 51 51
-2.500000 -1.750000 13.750000 255 204 102
1.500000 -1.500000 2.000000 255 255 0
-3.500000 3.500000 11.000000 255 204 102
-1.500000 -2.500000 19.000000 255 204 102
-0.750000 -2.750000 18.500000 255 204 102
1.500000 -2.500000 2.000000 0 255 51
0.750000 -2.750000 18.500000 255 204 102
-1.500000 -1.500000 19.000000 204 255 255
-2.500000 0.500000 14.000000 255 204 102
2.500000 -2.500000 2.000000 0 255 51
2.500000 -1.500000 14.000000 255 51 51
-0.500000 -1.500000 14.000000 255 51 51
1.500000 1.500000 14.000000 255 204 102
2.500000 0.500000 14.000000 255 204 102
-3.833330 2.833330 12.333300 255 51 51
3 0 1 2
3 3 0 2
3 4 5 6
3 7 8 9
3 10 11 12
3 13 10 12
3 14 15 16
3 17 18 19
3 20 21 22
3 23 20 22
3 16 24 19
3 25 26 27
3 28 25 27
3 29 30 31
3 32 33 34
3 33 35 34
3 35 36 34
3 37 38 39
3 40 41 42
3 42 39 43
3 44 45 46
3 47 44 46
3 48 49 50
3 51 52 53
3 54 55 56
3 57 58 59
3 58 60 59
3 60 61 59
3 62 6 63
3 63 6 59
3 59 6 5
3 64 65 66
3 65 64 67
3 68 69 70
3 71 72 73
3 54 74 75
3 76 77 78
3 79 80 60
3 81 82 83
3 84 85 86
3 87 88 89
3 90 91 92
3 93 6 94
3 95 96 97
3 98 99 100
3 101 102 103
3 104 105 106
3 107 108 109
3 110 111 112
3 113 91 90
3 114 113 90
3 115 116 114
3 113 114 117
3 118 119 120
3 121 122 123
3 124 125 126
3 57 59 127
3 121 128 129
3 130 131 132
3 133 134 135
3 136 137 138
3 139 140 141
3 142 143 144
3 143 145 146
3 147 148 149
3 150 151 152
3 153 154 155
3 76 156 157
3 158 159 160
3 161 162 163
3 161 164 165
3 166 167 168
3 169 170 171
3 165 172 173
3 174 175 176
3 177 178 179
3 180 77 181
3 182 183 184
3 185 186 187
3 188 189 190
3 191 190 192
3 193 194 195
3 196 193 195
3 197 194 198
3 199 200 196
3 201 202 203
3 204 205 206
3 207 208 209
3 174 210 169
3 211 186 212
3 209 211 212
3 213 214 215
3 216 217 218
3 219 220 221
3 222 223 224
3 225 226 227
3 228 229 230
3 231 232 233
3 234 188 235
3 48 196 200
3 236 237 238
3 239 240 241
3 242 243 244
3 30 73 72
3 245 246 247
3 48 194 193
3 167 248 168
3 249 250 251
3 252 253 254
3 40 43 47
3 126 255 124
3 256 257 8
3 258 259 260
3 261 262 263
3 264 265 266
3 207 212 69
3 267 268 269
3 270 156 271
3 272 273 274
3 50 275 276
3 15 277 278
3 279 280 281
3 145 282 206
3 199 195 283
3 284 270 285
3 286 221 220
3 287 288 289
3 290 291 292
3 156 78 271
3 26 24 15
3 21 293 294
3 207 68 295
3 296 3 297
3 287 298 299
3 300 301 302
3 303 22 304
3 252 79 58
3 305 306 307
3 308 309 310
3 280 311 312
3 313 17 314
3 197 195 194
3 140 315 316
3 132 317 318
3 6 319 94
3 294 320 321
3 322 265 323
3 289 247 287
3 96 102 97
3 324 325 326
3 327 9 328
3 57 31 30
3 329 330 331
3 332 2 1
3 333 22 21
3 92 334 335
3 273 104 106
3 288 336 289
3 337 177 179
3 338 190 339
3 325 340 249
3 116 341 342
3 5 66 59
3 63 324 343
3 157 77 76
3 28 24 25
3 133 120 344
3 345 333 346
3 347 348 349
3 329 350 351
3 67 352 353
3 354 355 142
3 91 117 334
3 356 357 358
3 162 359 163
3 360 354 361
3 362 363 364
3 365 366 367
3 368 335 334
3 369 364 363
3 370 345 346
3 13 240 10
3 179 154 153
3 371 365 372
3 373 181 313
3 127 66 33
3 9 374 7
3 182 375 183
3 12 376 377
3 40 378 41
3 172 175 173
3 140 379 141
3 312 380 305
3 116 381 382
3 383 129 237
3 384 46 45
3 385 386 387
3 335 388 38
3 296 389 390
3 185 391 392
3 393 191 192
3 182 159 158
3 340 60 80
3 29 75 73
3 394 395 290
3 396 170 397
3 384 106 105
3 112 108 107
3 275 331 330
3 296 398 399
3 400 401 402
3 272 403 404
3 405 406 298
3 4 64 5
3 247 405 287
3 126 134 407
3 408 308 310
3 65 353 98
3 14 19 18
3 409 173 175
3 144 283 197
3 375 267 269
3 36 347 34
3 351 410 329
3 411 412 309
3 31 413 29
3 406 149 148
3 72 252 58
3 114 92 335
3 88 82 89
3 152 288 299
3 167 414 415
3 55 75 413
3 388 39 38
3 416 160 417
3 400 184 183
3 382 272 274
3 418 237 419
3 366 420 421
3 422 214 423
3 114 382 117
3 125 424 126
3 425 180 426
3 381 416 315
3 373 27 426
3 427 261 263
3 428 278 277
3 370 385 387
3 19 314 17
3 429 304 345
3 430 306 431
3 296 1 0
3 337 153 358
3 105 394 47
3 17 432 18
3 185 212 186
3 11 240 433
3 145 143 434
3 155 125 356
3 293 435 320
3 436 155 154
3 437 438 439
3 158 341 440
3 400 375 269
3 441 442 344
3 328 420 443
3 225 409 444
3 273 445 274
3 77 446 78
3 119 284 285
3 390 447 433
3 448 449 450
3 215 361 451
3 378 115 41
3 452 228 156
3 363 125 369
3 453 27 26
3 71 75 74
3 122 454 231
3 368 117 382
3 386 345 387
3 455 207 295
3 85 456 86
3 433 457 332
3 124 458 356
3 459 349 460
3 215 461 360
3 462 463 139
3 428 229 363
3 33 66 464
3 83 88 420
3 465 289 336
3 466 467 468
3 144 197 469
3 36 35 470
3 471 146 205
3 472 419 473
3 178 279 281
3 383 122 121
3 13 377 474
3 475 445 384
3 417 315 416
3 93 4 6
3 276 476 213
3 380 270 306
3 276 477 478
3 23 293 20
3 123 231 327
3 128 473 129
3 444 408 310
3 306 271 431
3 208 53 211
3 216 336 479
3 185 70 69
3 437 480 438
3 230 110 228
3 223 481 224
3 482 331 483
3 266 484 485
3 486 487 488
3 415 371 489
3 490 112 107
3 491 159 468
3 84 492 56
3 400 493 466
3 494 495 496
3 475 45 388
3 137 489 132
3 14 18 432
3 417 497 316
3 188 498 499
3 301 500 459
3 396 501 502
3 151 216 152
3 126 120 135
3 177 261 279
3 503 504 50
3 109 490 107
3 360 505 506
3 507 62 508
3 335 37 115
3 153 356 358
3 32 55 413
3 271 446 431
3 71 492 252
3 294 509 346
3 246 434 510
3 54 492 74
3 45 43 388
3 454 511 512
3 507 340 6
3 292 375 513
3 239 2 457
3 383 514 487
3 426 181 373
3 129 419 237
3 192 286 220
3 491 467 515
3 234 437 355
3 443 128 123
3 258 516 191
3 393 282 218
3 441 427 263
3 430 446 425
3 507 517 250
3 100 500 464
3 307 430 362
3 429 518 519
3 291 395 404
3 491 520 417
3 37 42 41
3 508 343 521
3 127 32 31
3 522 449 147
3 523 227 226
3 292 513 440
3 422 423 351
3 283 146 199
3 524 241 13
3 226 309 525
3 187 211 53
3 261 244 526
3 137 527 138
3 72 57 30
3 311 344 119
3 313 28 373
3 96 372 365
3 528 49 200
3 277 108 111
3 248 529 530
3 531 189 505
3 374 130 489
3 440 378 532
3 533 8 372
3 213 476 214
3 216 534 217
3 217 259 218
3 219 282 220
3 222 495 223
3 225 444 226
3 228 424 229
3 231 454 232
3 234 189 188
3 48 193 196
3 236 535 383
3 383 237 236
3 536 238 237
3 239 457 240
3 242 337 243
3 30 29 73
3 245 537 246
3 48 198 194
3 167 538 248
3 249 507 250
3 252 492 253
3 44 47 43
3 40 42 43
3 539 124 255
3 126 407 255
3 256 540 257
3 258 218 259
3 261 526 262
3 262 541 263
3 264 542 265
3 207 209 212
3 267 543 268
3 268 401 269
3 270 452 156
3 272 404 273
3 50 49 275
3 15 14 277
3 279 427 280
3 434 537 245
3 465 282 145
3 282 219 204
3 434 245 465
3 206 146 145
3 145 434 465
3 282 204 206
3 199 196 195
3 284 452 270
3 286 350 221
3 287 299 288
3 290 395 291
3 156 76 78
3 16 15 24
3 26 25 24
3 21 20 293
3 207 69 68
3 296 0 3
3 287 405 298
3 300 464 301
3 303 23 22
3 60 58 79
3 252 254 79
3 305 380 306
3 308 411 309
3 280 427 311
3 313 490 17
3 197 283 195
3 140 463 315
3 132 131 317
3 6 340 319
3 294 293 320
3 322 484 265
3 265 542 323
3 289 245 247
3 96 103 102
3 324 61 325
3 257 328 9
3 327 231 544
3 544 545 327
3 231 233 544
3 9 8 257
3 327 545 9
3 57 127 31
3 329 410 330
3 332 457 2
3 333 304 22
3 92 91 334
3 273 395 104
3 288 479 336
3 337 242 177
3 191 339 190
3 338 188 190
3 251 546 249
3 326 325 249
3 249 546 326
3 116 378 341
3 5 64 66
3 63 59 61
3 61 324 63
3 157 181 77
3 28 314 24
3 344 442 133
3 133 135 120
3 120 119 344
3 345 304 333
3 347 547 348
3 329 221 350
3 67 4 352
3 201 361 354
3 355 247 246
3 355 246 510
3 201 354 202
3 142 144 202
3 202 354 142
3 355 510 142
3 91 113 117
3 356 458 357
3 162 512 359
3 360 506 354
3 362 428 363
3 365 166 366
3 368 475 335
3 369 436 364
3 370 387 345
3 13 241 240
3 179 178 154
3 371 414 365
3 112 313 181
3 181 157 112
3 127 59 66
3 9 545 374
3 182 513 375
3 12 11 376
3 40 532 378
3 172 176 175
3 140 316 379
3 312 311 380
3 116 342 381
3 383 121 129
3 384 105 46
3 385 548 386
3 335 475 388
3 296 399 389
3 185 187 391
3 393 258 191
3 182 184 159
3 80 319 340
3 340 325 61
3 61 60 340
3 29 413 75
3 394 104 395
3 396 171 170
3 384 445 106
3 112 111 108
3 275 49 549
3 549 331 275
3 330 477 275
3 296 297 398
3 400 269 401
3 272 462 403
3 405 437 406
3 4 67 64
3 247 355 405
3 126 135 134
3 408 550 308
3 98 100 65
3 65 67 353
3 14 16 19
3 174 550 408
3 171 396 502
3 502 550 171
3 408 409 175
3 551 552 162
3 162 161 551
3 552 512 162
3 171 550 169
3 175 174 408
3 551 161 165
3 551 165 409
3 169 550 174
3 165 173 409
3 144 143 283
3 375 291 267
3 36 547 347
3 351 553 410
3 411 554 412
3 31 32 413
3 406 555 149
3 72 71 252
3 335 115 114
3 114 90 92
3 88 83 82
3 148 147 150
3 449 150 147
3 298 406 148
3 148 150 152
3 152 216 479
3 479 288 152
3 299 298 148
3 148 152 299
3 137 136 415
3 167 166 365
3 415 136 538
3 365 414 167
3 415 538 167
3 55 54 75
3 388 43 39
3 491 417 160
3 416 342 341
3 341 160 416
3 400 466 184
3 445 368 274
3 382 381 272
3 315 463 381
3 274 368 382
3 463 272 381
3 418 536 237
3 366 166 420
3 422 215 214
3 114 116 382
3 125 229 424
3 426 453 425
3 425 446 180
3 381 342 416
3 373 28 27
3 427 279 261
3 428 362 278
3 370 556 385
3 19 24 314
3 429 303 304
3 430 307 306
3 296 390 1
3 357 243 337
3 337 179 153
3 358 357 337
3 47 46 105
3 105 104 394
3 17 490 432
3 185 69 212
3 11 10 240
3 510 434 143
3 143 142 510
3 124 356 125
3 155 369 125
3 293 519 435
3 436 369 155
3 406 437 439
3 439 555 406
3 158 160 341
3 400 183 375
3 441 557 442
3 328 257 420
3 225 551 409
3 273 106 445
3 77 180 446
3 119 118 284
3 11 433 447
3 332 1 390
3 390 389 447
3 447 376 11
3 332 390 433
3 448 150 449
3 558 503 213
3 213 215 451
3 361 201 451
3 215 360 361
3 451 558 213
3 37 41 115
3 378 116 115
3 157 110 112
3 452 284 118
3 118 120 424
3 228 110 156
3 118 424 228
3 157 156 110
3 452 118 228
3 363 229 125
3 453 426 27
3 71 73 75
3 122 487 454
3 368 334 117
3 386 429 345
3 455 208 207
3 85 500 456
3 433 240 457
3 124 539 458
3 459 347 349
3 215 422 461
3 140 139 463
3 462 272 463
3 428 230 229
3 65 464 66
3 300 470 35
3 35 33 464
3 464 300 35
3 420 257 83
3 540 81 83
3 88 87 421
3 257 540 83
3 88 421 420
3 465 245 289
3 159 184 466
3 466 493 467
3 468 159 466
3 203 202 144
3 197 198 469
3 469 203 144
3 198 559 469
3 470 560 547
3 547 36 470
3 560 348 547
3 206 205 146
3 471 561 200
3 199 146 471
3 471 200 199
3 472 501 419
3 178 177 279
3 383 487 122
3 13 12 377
3 475 368 445
3 417 316 315
3 93 352 4
3 213 503 276
3 276 478 476
3 503 50 276
3 380 285 270
3 276 275 477
3 23 519 293
3 123 122 231
3 128 530 473
3 444 409 408
3 306 270 271
3 208 455 51
3 51 53 208
3 211 209 208
3 216 218 336
3 185 392 70
3 437 235 480
3 230 111 110
3 223 494 562
3 562 481 223
3 549 483 331
3 482 204 219
3 219 221 329
3 329 331 482
3 482 219 329
3 266 265 484
3 486 454 487
3 415 414 371
3 490 313 112
3 491 160 159
3 347 459 34
3 85 84 56
3 459 500 34
3 56 55 34
3 34 500 85
3 84 253 492
3 56 34 85
3 400 402 493
3 494 223 495
3 475 384 45
3 318 525 137
3 137 415 489
3 132 318 137
3 277 14 432
3 432 109 277
3 379 316 497
3 417 520 497
3 563 480 235
3 235 188 499
3 338 498 188
3 499 563 235
3 460 564 459
3 302 301 459
3 459 564 302
3 396 397 565
3 565 418 419
3 419 501 396
3 396 565 419
3 151 534 216
3 126 424 120
3 177 242 261
3 48 50 198
3 503 558 504
3 504 559 198
3 198 50 504
3 109 432 490
3 360 461 505
3 507 6 62
3 335 38 37
3 153 155 356
3 32 34 55
3 271 78 446
3 71 74 492
3 370 346 509
3 333 21 294
3 294 321 509
3 509 556 370
3 333 294 346
3 246 537 434
3 54 56 492
3 45 44 43
3 552 232 512
3 454 486 511
3 511 359 512
3 512 232 454
3 507 249 340
3 292 291 375
3 239 3 2
3 383 535 514
3 514 566 487
3 488 487 566
3 426 180 181
3 129 473 419
3 192 190 531
3 531 286 192
3 220 393 192
3 491 468 467
3 355 354 234
3 234 235 437
3 354 506 234
3 437 405 355
3 327 328 123
3 443 530 128
3 128 121 123
3 123 328 443
3 339 191 567
3 258 260 568
3 516 567 191
3 258 568 516
3 393 220 282
3 282 465 218
3 218 258 393
3 465 336 218
3 541 557 263
3 441 311 427
3 263 557 441
3 430 431 446
3 507 508 517
3 100 99 456
3 500 301 464
3 100 456 500
3 464 65 100
3 436 154 281
3 281 280 312
3 154 178 281
3 362 364 436
3 15 278 453
3 453 26 15
3 430 425 453
3 312 305 436
3 430 453 278
3 281 312 436
3 430 278 362
3 305 307 436
3 362 436 307
3 23 303 519
3 429 386 518
3 518 435 519
3 386 548 518
3 519 303 429
3 404 403 267
3 403 543 267
3 395 273 404
3 404 267 291
3 491 515 520
3 37 39 42
3 508 62 343
3 63 343 62
3 521 517 508
3 127 33 32
3 522 450 449
3 523 569 227
3 532 40 290
3 47 394 40
3 290 292 532
3 513 182 158
3 158 440 513
3 40 394 290
3 292 440 532
3 350 286 531
3 531 505 461
3 461 422 351
3 423 553 351
3 351 350 461
3 531 461 350
3 283 143 146
3 524 398 297
3 297 3 239
3 239 241 297
3 13 474 524
3 524 297 241
3 226 444 310
3 309 412 525
3 226 310 309
3 317 523 318
3 318 523 226
3 412 527 525
3 525 318 226
3 53 52 187
3 187 186 211
3 52 391 187
3 261 242 244
3 137 525 527
3 72 58 57
3 285 380 119
3 311 441 344
3 119 380 311
3 313 314 28
3 365 367 103
3 367 101 103
3 533 372 96
3 96 95 533
3 365 103 96
3 200 561 528
3 528 483 549
3 549 49 528
3 48 200 49
3 230 428 111
3 277 109 108
3 111 428 277
3 530 443 168
3 420 166 168
3 168 248 530
3 529 472 473
3 443 420 168
3 529 473 530
3 506 505 189
3 531 190 189
3 189 234 506
3 371 372 7
3 7 374 489
3 372 8 7
3 130 132 489
3 489 371 7
3 440 341 378
3 533 256 8
