ply
format ascii 1.0
comment Created by Blender 2.78 (sub 0) - www.blender.org, source file: ''
element vertex 569
property float x
property float y
property float z
property uchar red
property uchar green
property uchar blue
element face 938
property list uchar uint vertex_indices
end_header
2.000000 -1.500000 0.500000 255 255 0
1.500000 -1.000000 0.500000 255 255 0
2.000000 -1.000000 0.000000 255 255 0
2.500000 -1.000000 0.500000 255 255 0
2.000000 1.000000 0.000000 255 255 0
1.500000 1.000000 0.500000 255 255 0
2.000000 1.500000 0.500000 255 255 0
2.500000 1.000000 0.500000 255 255 0
2.000000 -1.000000 1.000000 255 255 0
-2.000000 0.500000 1.500000 255 255 0
-2.500000 1.000000 1.500000 255 255 0
-2.000000 1.000000 1.000000 255 255 0
-1.500000 1.000000 1.500000 255 255 0
1.500000 0.500000 1.000000 0 255 51
1.500000 1.000000 1.500000 0 255 51
1.500000 1.000000 1.000000 0 255 51
2.500000 0.500000 1.000000 0 255 51
2.500000 1.000000 1.000000 0 255 51
2.500000 1.000000 1.500000 0 255 51
-2.000000 1.500000 1.500000 255 255 0
-2.000000 -2.500000 3.500000 0 255 51
-2.500000 -2.000000 3.500000 0 255 51
-2.000000 -2.000000 3.000000 0 255 51
-1.500000 -2.000000 3.500000 0 255 51
-2.500000 0.500000 3.000000 0 255 51
-2.500000 0.000000 3.500000 0 255 51
-2.500000 0.500000 3.500000 0 255 51
-1.500000 0.500000 3.000000 0 255 51
-1.500000 0.500000 3.500000 0 255 51
-1.500000 0.000000 3.500000 0 255 51
-6.000000 -2.500000 4.500000 255 204 102
-6.500000 -2.000000 4.500000 255 204 102
-6.000000 -2.000000 4.000000 255 204 102
-4.500000 -2.000000 4.500000 255 204 102
-5.000000 -2.500000 4.500000 255 204 102
-5.000000 -2.000000 4.000000 255 204 102
5.000000 -2.500000 4.500000 255 204 102
4.500000 -2.000000 4.500000 255 204 102
5.000000 -2.000000 4.000000 255 204 102
6.500000 -2.000000 4.500000 255 204 102
6.000000 -2.500000 4.500000 255 204 102
6.000000 -2.000000 4.000000 255 204 102
-6.000000 -1.000000 4.000000 255 204 102
1.500000 -1.000000 4.500000 0 255 51
1.000000 -1.500000 4.500000 0 255 51
1.000000 -1.000000 4.000000 0 255 51
6.000000 -1.000000 4.000000 255 204 102
-2.000000 0.000000 4.000000 0 255 51
-2.000000 -0.500000 4.500000 0 255 51
-1.500000 -1.000000 3.500000 0 255 51
-1.000000 -1.000000 4.000000 0 255 51
-1.000000 0.000000 4.000000 0 255 51
2.500000 1.000000 8.500000 255 51 51
2.500000 2.000000 9.500000 255 51 51
2.500000 0.000000 9.500000 255 51 51
-6.000000 0.000000 4.000000 255 204 102
-6.500000 0.000000 4.500000 255 204 102
-6.000000 0.500000 4.500000 255 204 102
-5.500000 0.000000 4.500000 255 204 102
6.000000 0.000000 4.000000 255 204 102
5.500000 0.000000 4.500000 255 204 102
6.000000 0.500000 4.500000 255 204 102
6.500000 0.000000 4.500000 255 204 102
-2.000000 1.500000 3.500000 255 255 0
-2.500000 1.000000 3.500000 255 255 0
-2.000000 1.000000 4.000000 255 255 0
-1.500000 1.000000 3.500000 255 255 0
0.500000 -2.500000 21.000000 255 255 102
0.000000 -2.500000 21.500000 255 255 102
-0.500000 -2.500000 21.000000 255 255 102
1.500000 0.000000 4.500000 0 255 51
1.000000 1.000000 5.000000 0 255 51
1.500000 0.000000 5.500000 0 255 51
2.000000 0.500000 5.500000 0 255 51
2.000000 0.500000 4.500000 0 255 51
1.500000 1.000000 4.500000 0 255 51
0.500000 2.500000 21.000000 255 255 102
-0.500000 2.500000 21.000000 255 255 102
0.000000 2.500000 21.500000 255 255 102
1.000000 2.000000 5.000000 0 255 51
1.500000 2.000000 5.500000 0 255 51
1.000000 2.500000 5.500000 0 255 51
1.500000 -1.000000 5.500000 0 255 51
1.000000 -1.000000 6.000000 0 255 51
1.000000 -1.500000 5.500000 0 255 51
-5.000000 1.000000 6.000000 255 204 102
-5.000000 0.000000 6.000000 255 204 102
-6.000000 1.000000 6.000000 255 204 102
-2.500000 2.000000 9.500000 255 51 51
-2.500000 1.000000 8.500000 255 51 51
-2.500000 0.000000 9.500000 255 51 51
-2.500000 0.500000 6.000000 255 51 51
-2.500000 1.000000 6.500000 255 51 51
-2.500000 1.000000 6.000000 255 51 51
1.500000 0.500000 6.000000 0 255 51
2.000000 0.500000 6.000000 0 255 51
1.500000 0.500000 6.000000 255 51 51
1.000000 0.500000 6.500000 255 51 51
1.000000 0.250000 6.250000 255 51 51
5.000000 1.000000 6.000000 255 204 102
6.000000 1.000000 6.000000 255 204 102
5.000000 0.000000 6.000000 255 204 102
-4.500000 1.000000 6.500000 255 204 102
-5.000000 1.500000 6.500000 255 204 102
-1.500000 1.500000 6.000000 0 255 51
-2.000000 1.500000 5.500000 0 255 51
-2.000000 1.500000 6.000000 0 255 51
-1.500000 1.500000 6.000000 255 51 51
-1.000000 1.500000 6.500000 255 51 51
-1.000000 1.750000 6.250000 255 51 51
1.500000 1.500000 6.000000 0 255 51
2.000000 1.500000 6.000000 0 255 51
2.000000 1.500000 5.500000 0 255 51
1.500000 1.500000 6.000000 255 51 51
1.000000 1.750000 6.250000 255 51 51
1.000000 1.500000 6.500000 255 51 51
4.500000 1.000000 6.500000 255 204 102
5.000000 1.500000 6.500000 255 204 102
-3.500000 -2.000000 6.500000 255 204 102
-4.000000 -2.000000 7.000000 255 204 102
-4.000000 -2.500000 6.500000 255 204 102
4.000000 -2.000000 7.000000 255 204 102
3.500000 -2.000000 6.500000 255 204 102
4.000000 -2.500000 6.500000 255 204 102
-4.000000 -1.000000 7.000000 255 204 102
-5.000000 -2.000000 7.000000 255 204 102
5.000000 -2.000000 7.000000 255 204 102
4.000000 -1.000000 7.000000 255 204 102
-1.000000 -1.500000 11.500000 255 51 51
-1.000000 -0.500000 10.500000 255 51 51
0.000000 -0.500000 11.500000 255 51 51
5.000000 -1.000000 11.000000 255 204 102
4.500000 -1.000000 10.500000 255 204 102
5.000000 -1.500000 10.500000 255 204 102
-4.000000 -0.500000 11.500000 255 204 102
-5.000000 -0.500000 11.500000 255 204 102
-4.000000 0.000000 11.000000 255 204 102
1.000000 -1.500000 11.500000 255 51 51
1.000000 -0.500000 10.500000 255 51 51
4.500000 0.000000 10.500000 255 204 102
-3.500000 2.500000 11.000000 255 51 51
-3.250000 3.000000 10.750000 255 51 51
-3.000000 3.000000 11.000000 255 51 51
-3.500000 2.500000 11.000000 255 204 102
-3.750000 2.000000 10.750000 255 204 102
-4.000000 2.000000 11.000000 255 204 102
3.500000 2.500000 11.000000 255 51 51
3.000000 3.000000 11.000000 255 51 51
3.250000 3.000000 10.750000 255 51 51
3.500000 2.500000 11.000000 255 204 102
4.000000 2.000000 11.000000 255 204 102
3.750000 2.000000 10.750000 255 204 102
-2.000000 -2.500000 16.500000 255 204 102
0.000000 -2.500000 16.500000 255 204 102
-1.000000 -2.500000 17.500000 255 204 102
-0.500000 -1.500000 14.000000 255 204 102
-1.000000 -2.000000 14.000000 255 204 102
-1.000000 -1.750000 13.750000 255 204 102
0.500000 -1.500000 14.000000 255 204 102
1.000000 -1.750000 13.750000 255 204 102
1.000000 -2.000000 14.000000 255 204 102
-6.000000 0.000000 14.000000 255 204 102
-6.500000 0.000000 13.500000 255 204 102
-6.000000 -0.500000 13.500000 255 204 102
6.500000 0.000000 13.500000 255 204 102
6.000000 0.000000 14.000000 255 204 102
6.000000 -0.500000 13.500000 255 204 102
-2.500000 0.500000 14.000000 255 51 51
-3.000000 0.000000 14.000000 255 51 51
-2.750000 0.000000 14.250000 255 51 51
2.500000 0.500000 14.000000 255 51 51
1.500000 1.500000 14.000000 255 51 51
1.833330 0.833333 14.333300 255 51 51
2.750000 0.000000 14.250000 255 51 51
3.000000 0.000000 14.000000 255 51 51
-1.500000 1.500000 14.000000 255 51 51
-1.000000 1.750000 14.250000 255 51 51
-1.000000 2.000000 14.000000 255 51 51
1.000000 2.000000 14.000000 255 51 51
1.000000 1.750000 14.250000 255 51 51
-6.000000 2.500000 13.500000 255 204 102
-6.500000 2.000000 13.500000 255 204 102
-6.000000 2.000000 14.000000 255 204 102
6.500000 2.000000 13.500000 255 204 102
6.000000 2.500000 13.500000 255 204 102
6.000000 2.000000 14.000000 255 204 102
-1.000000 1.500000 14.500000 255 204 102
-1.000000 1.500000 15.500000 255 204 102
0.000000 1.500000 14.500000 255 204 102
1.000000 1.500000 14.500000 255 204 102
1.000000 1.500000 15.500000 255 204 102
0.000000 -4.500000 17.500000 255 204 102
-0.500000 -4.000000 17.500000 255 204 102
0.000000 -4.000000 17.000000 255 204 102
0.500000 -4.000000 17.500000 255 204 102
-0.500000 -3.000000 17.500000 255 204 102
-0.500000 -3.000000 18.500000 255 204 102
0.500000 -3.000000 17.500000 255 204 102
0.500000 -3.000000 18.500000 255 204 102
-1.500000 -1.500000 18.000000 255 204 102
-1.500000 -2.000000 17.500000 255 204 102
-1.500000 -2.000000 18.000000 255 204 102
1.500000 -1.500000 18.000000 255 204 102
1.500000 -2.000000 18.000000 255 204 102
1.500000 -2.000000 17.500000 255 204 102
-2.500000 -1.000000 4.500000 0 255 51
-1.833330 0.833333 14.333300 255 51 51
0.000000 -3.500000 18.500000 255 204 102
1.000000 -3.500000 19.500000 255 204 102
-1.000000 -3.500000 19.500000 255 204 102
1.000000 0.000000 4.000000 0 255 51
0.500000 -2.000000 25.500000 255 255 102
0.500000 -2.000000 21.500000 255 255 102
0.500000 2.000000 21.500000 255 255 102
-0.500000 -2.000000 25.500000 255 255 102
-0.500000 2.000000 21.500000 255 255 102
-0.500000 -2.000000 21.500000 255 255 102
2.000000 -2.500000 16.500000 255 204 102
1.000000 -2.500000 17.500000 255 204 102
0.000000 -2.000000 26.000000 255 255 102
0.000000 -2.500000 25.500000 255 255 102
1.500000 -2.000000 20.500000 255 204 102
0.750000 2.000000 21.250000 255 204 102
0.750000 -2.000000 21.250000 255 204 102
-1.500000 0.000000 4.500000 0 255 51
-1.000000 1.000000 5.000000 0 255 51
-0.750000 -2.750000 18.500000 204 255 255
-1.500000 -2.000000 18.000000 204 255 255
-0.750000 -2.750000 18.000000 204 255 255
-2.000000 0.500000 2.500000 255 255 0
-2.500000 1.000000 2.500000 255 255 0
6.000000 2.500000 12.500000 255 204 102
2.500000 -3.000000 14.500000 255 204 102
1.000000 -4.500000 15.500000 255 204 102
1.000000 -4.500000 14.500000 255 204 102
-0.750000 -2.750000 18.000000 255 204 102
3.000000 3.000000 14.000000 255 51 51
-3.000000 3.500000 13.500000 255 51 51
-3.000000 3.000000 14.000000 255 51 51
-0.750000 2.000000 21.250000 255 204 102
-1.500000 -2.000000 20.500000 255 204 102
-0.750000 -2.000000 21.250000 255 204 102
4.000000 -0.500000 11.500000 255 204 102
6.000000 -0.500000 11.500000 255 204 102
2.500000 1.000000 6.000000 255 51 51
2.000000 1.500000 8.500000 255 51 51
-4.500000 2.000000 10.500000 255 204 102
-4.500000 3.000000 9.500000 255 204 102
-3.250000 3.000000 10.750000 255 204 102
2.500000 0.000000 14.500000 255 204 102
2.000000 -2.000000 14.000000 255 204 102
2.000000 -3.000000 14.000000 255 204 102
3.750000 2.000000 10.750000 255 51 51
-0.833333 -2.833330 18.666700 255 204 102
-1.500000 -3.000000 19.500000 255 204 102
-1.500000 -2.500000 19.000000 255 204 102
-2.000000 0.500000 4.000000 255 255 0
-1.500000 0.500000 3.500000 255 255 0
2.000000 0.500000 1.500000 0 255 51
4.000000 -0.500000 13.500000 255 204 102
3.500000 -0.500000 14.000000 255 204 102
3.750000 -0.750000 13.500000 255 204 102
-2.000000 0.500000 8.500000 255 51 51
-3.000000 -0.500000 10.500000 255 51 51
-3.000000 -1.500000 11.500000 255 51 51
2.500000 -1.000000 17.500000 255 204 102
1.500000 2.000000 18.500000 255 204 102
1.500000 -1.000000 18.500000 255 204 102
-2.000000 0.500000 4.000000 0 255 51
-3.500000 -0.500000 11.000000 255 204 102
5.500000 -1.000000 4.500000 255 204 102
6.500000 3.000000 11.500000 255 204 102
6.000000 3.500000 11.500000 255 204 102
0.500000 -2.500000 21.000000 255 204 102
1.000000 -2.500000 20.500000 255 204 102
1.500000 -1.500000 19.000000 204 255 255
1.500000 -2.000000 18.500000 204 255 255
1.500000 -1.500000 18.000000 204 255 255
-1.500000 -1.000000 5.500000 0 255 51
-1.000000 -1.000000 6.000000 0 255 51
-2.000000 0.000000 6.000000 0 255 51
-1.000000 -4.500000 15.500000 255 204 102
1.000000 -4.000000 16.000000 255 204 102
-1.000000 -4.000000 16.000000 255 204 102
-2.750000 -1.000000 14.250000 255 51 51
-4.500000 -2.000000 5.500000 255 204 102
-5.000000 -1.000000 6.000000 255 204 102
-4.000000 -2.000000 6.000000 255 204 102
-2.500000 0.000000 15.500000 255 204 102
-2.500000 0.000000 14.500000 255 204 102
3.500000 -0.500000 11.000000 255 204 102
4.000000 0.000000 11.000000 255 204 102
-1.000000 2.500000 20.500000 255 204 102
-0.500000 2.500000 21.000000 255 204 102
-3.000000 -1.500000 13.500000 255 51 51
-3.750000 -0.750000 11.500000 255 51 51
3.000000 3.500000 12.500000 255 51 51
3.750000 2.750000 13.500000 255 51 51
3.750000 2.750000 12.500000 255 51 51
-5.000000 -2.500000 5.500000 255 204 102
1.000000 0.000000 6.000000 0 255 51
-2.000000 0.250000 6.250000 0 255 51
1.000000 -4.000000 14.000000 255 204 102
6.500000 -1.000000 9.500000 255 204 102
6.000000 -1.500000 10.500000 255 204 102
6.000000 -1.500000 9.500000 255 204 102
-6.000000 -2.500000 6.500000 255 204 102
-6.500000 -2.000000 6.500000 255 204 102
2.500000 -1.500000 14.000000 255 204 102
2.500000 -1.000000 14.500000 255 204 102
-6.500000 3.000000 9.500000 255 204 102
-6.000000 1.500000 7.500000 255 204 102
-6.500000 1.000000 7.500000 255 204 102
-3.500000 3.500000 11.000000 255 51 51
-3.000000 3.500000 11.500000 255 51 51
-0.750000 2.000000 21.250000 255 255 102
-3.750000 2.750000 13.500000 255 51 51
-3.000000 3.500000 12.500000 255 51 51
-3.750000 2.750000 12.500000 255 51 51
6.500000 -1.000000 10.500000 255 204 102
6.500000 0.000000 11.500000 255 204 102
-4.000000 2.500000 12.500000 255 204 102
-6.000000 2.500000 12.500000 255 204 102
0.750000 -2.750000 18.000000 204 255 255
0.750000 -2.750000 18.500000 204 255 255
4.000000 -2.000000 6.000000 255 204 102
4.500000 -2.000000 5.500000 255 204 102
1.000000 2.500000 20.500000 255 204 102
1.500000 2.000000 20.500000 255 204 102
-2.000000 -3.000000 14.000000 255 204 102
-1.000000 -4.500000 14.500000 255 204 102
-2.500000 -3.000000 14.500000 255 204 102
2.000000 -0.500000 9.500000 255 51 51
-2.000000 -0.500000 9.500000 255 51 51
-1.500000 -1.500000 18.000000 204 255 255
-1.500000 -2.000000 18.500000 204 255 255
3.750000 -0.750000 11.500000 255 51 51
3.000000 -1.500000 13.500000 255 51 51
3.000000 -1.500000 11.500000 255 51 51
-5.500000 -1.000000 5.500000 255 204 102
-6.000000 0.500000 5.500000 255 204 102
1.500000 1.000000 1.000000 255 255 0
2.000000 1.500000 1.000000 255 255 0
-6.000000 1.500000 6.500000 255 204 102
3.750000 -0.750000 13.500000 255 51 51
3.000000 -1.000000 14.000000 255 51 51
5.000000 -2.500000 5.500000 255 204 102
3.000000 -0.500000 10.500000 255 51 51
-2.500000 1.000000 6.000000 0 255 51
-1.000000 -2.500000 20.500000 255 204 102
4.500000 2.000000 10.500000 255 204 102
1.500000 0.000000 0.500000 255 255 0
-6.000000 3.500000 11.500000 255 204 102
-6.500000 3.000000 11.500000 255 204 102
-1.000000 1.750000 14.250000 255 204 102
1.000000 1.750000 14.250000 255 204 102
-3.833330 2.833330 12.333300 255 204 102
-4.000000 3.500000 11.500000 255 204 102
2.000000 0.000000 1.000000 255 255 0
-2.000000 2.500000 9.500000 255 51 51
-2.000000 1.500000 8.500000 255 51 51
-1.500000 -2.500000 19.000000 204 255 255
-0.833333 -2.833330 18.666700 204 255 255
-2.000000 -1.500000 4.500000 0 255 51
-2.000000 0.500000 6.500000 255 51 51
-2.000000 0.250000 6.250000 255 51 51
-4.500000 1.000000 7.500000 255 204 102
-5.000000 1.500000 7.500000 255 204 102
2.000000 0.250000 1.250000 0 255 51
3.750000 -0.750000 11.500000 255 204 102
4.500000 0.000000 6.500000 255 204 102
4.500000 0.000000 8.500000 255 204 102
4.500000 1.000000 7.500000 255 204 102
-3.750000 2.750000 13.500000 255 204 102
-3.750000 2.750000 12.500000 255 204 102
-6.500000 2.000000 12.500000 255 204 102
5.000000 -1.000000 6.000000 255 204 102
5.500000 -1.000000 5.500000 255 204 102
1.833330 0.833333 14.333300 255 204 102
2.500000 0.500000 14.000000 255 204 102
-5.000000 -0.500000 8.500000 255 204 102
-6.000000 -1.500000 9.500000 255 204 102
-6.000000 -0.500000 8.500000 255 204 102
-1.000000 2.500000 5.500000 0 255 51
-1.000000 -1.500000 13.500000 255 51 51
0.000000 -0.500000 13.500000 255 51 51
-2.500000 -3.000000 15.500000 255 204 102
-2.500000 -1.000000 17.500000 255 204 102
-1.000000 1.750000 6.250000 0 255 51
1.000000 1.750000 6.250000 0 255 51
5.000000 -0.500000 8.500000 255 204 102
4.500000 -1.000000 7.500000 255 204 102
4.000000 2.500000 13.500000 255 204 102
-6.500000 -1.000000 9.500000 255 204 102
-6.000000 -1.500000 10.500000 255 204 102
-6.500000 -1.000000 10.500000 255 204 102
6.000000 -0.500000 8.500000 255 204 102
-5.500000 -1.000000 4.500000 255 204 102
-6.500000 0.000000 5.500000 255 204 102
-0.750000 -2.000000 21.250000 255 255 102
-3.750000 -0.750000 11.500000 255 204 102
-4.000000 -0.500000 13.500000 255 204 102
-2.500000 -1.000000 14.500000 255 204 102
-2.750000 -1.000000 14.250000 255 204 102
-2.500000 -1.500000 14.000000 255 204 102
1.000000 2.500000 18.500000 255 204 102
-6.000000 -0.500000 11.500000 255 204 102
0.000000 -3.000000 17.000000 255 204 102
3.500000 -1.000000 6.500000 255 204 102
4.000000 0.000000 14.000000 255 204 102
1.500000 0.500000 1.000000 255 255 0
1.000000 -1.500000 13.500000 255 51 51
-1.000000 2.000000 5.000000 0 255 51
-3.750000 0.000000 10.750000 255 204 102
3.750000 2.750000 12.500000 255 204 102
3.750000 2.750000 13.500000 255 204 102
3.833330 2.833330 12.333300 255 204 102
4.000000 2.500000 12.500000 255 204 102
4.000000 3.500000 11.500000 255 204 102
3.000000 3.500000 11.500000 255 51 51
-1.500000 2.000000 18.500000 255 204 102
-2.000000 2.500000 17.500000 255 204 102
-2.500000 2.000000 17.500000 255 204 102
-1.500000 0.500000 3.000000 255 255 0
-2.000000 0.250000 2.750000 255 255 0
-2.000000 1.000000 5.000000 0 255 51
2.000000 2.500000 17.500000 255 204 102
-1.000000 -1.500000 5.500000 0 255 51
-3.500000 3.500000 12.000000 255 51 51
-3.500000 -1.000000 6.500000 255 204 102
-4.000000 -1.000000 6.000000 255 204 102
2.500000 -1.750000 13.750000 255 204 102
4.500000 -1.000000 9.500000 255 204 102
-4.500000 -1.000000 9.500000 255 204 102
-5.000000 -1.500000 10.500000 255 204 102
-5.000000 -1.500000 9.500000 255 204 102
2.500000 0.000000 0.500000 255 255 0
5.500000 0.000000 5.500000 255 204 102
-1.500000 1.000000 2.500000 255 255 0
4.000000 -1.000000 6.000000 255 204 102
2.500000 0.500000 1.000000 255 255 0
2.000000 0.250000 1.250000 255 255 0
-6.500000 0.000000 8.500000 255 204 102
2.000000 0.500000 8.500000 255 51 51
2.000000 0.500000 6.000000 255 51 51
-2.500000 0.500000 3.000000 255 255 0
3.250000 3.000000 10.750000 255 204 102
-4.000000 0.000000 14.000000 255 204 102
-1.500000 2.000000 20.500000 255 204 102
-1.000000 2.500000 18.500000 255 204 102
6.000000 -2.500000 6.500000 255 204 102
0.750000 -2.000000 21.250000 255 255 102
4.500000 3.000000 9.500000 255 204 102
3.500000 3.500000 11.000000 255 204 102
5.000000 3.500000 9.500000 255 204 102
6.500000 1.000000 6.500000 255 204 102
6.500000 0.000000 5.500000 255 204 102
6.000000 0.500000 5.500000 255 204 102
-2.500000 1.000000 5.500000 0 255 51
-2.000000 0.000000 5.000000 0 255 51
-2.500000 0.000000 5.500000 0 255 51
2.500000 1.000000 1.000000 255 255 0
6.500000 1.000000 7.500000 255 204 102
6.000000 1.500000 6.500000 255 204 102
6.000000 1.500000 7.500000 255 204 102
-2.500000 -1.750000 13.750000 255 51 51
-1.000000 -1.750000 13.750000 255 51 51
-5.000000 3.500000 9.500000 255 204 102
3.750000 0.000000 10.750000 255 204 102
-5.500000 0.000000 5.500000 255 204 102
0.000000 2.500000 15.500000 255 204 102
-2.000000 -3.000000 16.000000 255 204 102
2.000000 -3.000000 16.000000 255 204 102
-4.000000 2.000000 14.000000 255 204 102
3.500000 3.500000 12.000000 255 51 51
3.500000 2.500000 14.000000 255 204 102
4.000000 2.000000 14.000000 255 204 102
3.000000 2.500000 10.500000 255 51 51
-3.000000 2.500000 10.500000 255 51 51
0.750000 2.000000 21.250000 255 255 102
6.500000 -2.000000 6.500000 255 204 102
0.500000 -1.500000 14.000000 255 51 51
0.166667 -0.833333 13.666700 255 51 51
-2.000000 0.000000 3.000000 0 255 51
6.000000 3.500000 9.500000 255 204 102
-6.500000 1.000000 6.500000 255 204 102
-2.500000 0.500000 3.500000 255 255 0
0.166667 -0.833333 13.666700 255 204 102
0.000000 -1.000000 14.000000 255 204 102
0.000000 -0.750000 13.750000 255 204 102
-6.500000 0.000000 11.500000 255 204 102
2.000000 1.500000 4.500000 0 255 51
2.500000 1.000000 6.000000 0 255 51
-3.750000 2.000000 10.750000 255 51 51
-6.000000 3.500000 9.500000 255 204 102
-4.500000 -1.000000 7.500000 255 204 102
-4.000000 2.500000 13.500000 255 204 102
-3.500000 2.500000 14.000000 255 204 102
2.500000 2.000000 17.500000 255 204 102
2.500000 0.000000 15.500000 255 204 102
2.750000 -1.000000 14.250000 255 204 102
2.750000 0.000000 14.250000 255 204 102
-2.000000 -2.000000 14.000000 255 204 102
-2.500000 -1.750000 13.750000 255 204 102
-1.500000 -1.500000 19.000000 255 204 102
1.500000 -2.500000 19.000000 204 255 255
-2.000000 0.250000 2.750000 0 255 51
0.833333 -2.833330 18.666700 255 204 102
-4.500000 0.000000 8.500000 255 204 102
-0.166667 -0.833333 13.666700 255 204 102
-4.500000 -1.000000 10.500000 255 204 102
-0.166667 -0.833333 13.666700 255 51 51
-1.000000 -4.000000 14.000000 255 204 102
-3.000000 -1.000000 14.000000 255 51 51
-2.500000 -1.500000 14.000000 255 51 51
3.000000 3.500000 13.500000 255 51 51
-2.750000 0.000000 14.250000 255 204 102
6.500000 0.000000 8.500000 255 204 102
6.500000 3.000000 9.500000 255 204 102
-0.500000 -2.500000 21.000000 255 204 102
2.750000 -1.000000 14.250000 255 51 51
5.000000 1.500000 7.500000 255 204 102
3.500000 3.500000 11.000000 255 51 51
2.000000 2.500000 9.500000 255 51 51
-3.500000 3.500000 11.000000 255 204 102
2.500000 -3.000000 15.500000 255 204 102
5.000000 -1.500000 9.500000 255 204 102
1.500000 -1.500000 19.000000 255 204 102
-1.833330 0.833333 14.333300 255 204 102
-1.500000 1.500000 14.000000 255 204 102
-2.000000 1.500000 6.000000 255 51 51
-2.500000 0.500000 6.000000 0 255 51
2.500000 -1.750000 13.750000 255 51 51
-3.500000 -0.500000 14.000000 255 204 102
0.750000 -2.750000 18.000000 255 204 102
-4.500000 0.000000 6.500000 255 204 102
3.750000 0.000000 10.750000 255 51 51
3.500000 -0.500000 11.000000 255 51 51
2.000000 1.500000 1.000000 0 255 51
6.500000 2.000000 12.500000 255 204 102
-0.750000 -2.750000 18.500000 255 204 102
2.000000 1.500000 6.000000 255 51 51
1.500000 -3.000000 19.500000 255 204 102
1.500000 -2.000000 18.000000 204 255 255
-3.750000 -0.750000 13.500000 255 51 51
1.000000 0.250000 6.250000 0 255 51
0.500000 2.500000 21.000000 255 204 102
-1.500000 -1.500000 19.000000 204 255 255
2.500000 -1.500000 14.000000 255 51 51
3.500000 -0.500000 14.000000 255 51 51
-3.500000 3.500000 12.000000 255 204 102
1.500000 1.500000 14.000000 255 204 102
-1.500000 -1.000000 18.500000 255 204 102
-3.750000 -0.750000 13.500000 255 204 102
3.500000 3.500000 12.000000 255 204 102
-3.833330 2.833330 12.333300 255 51 51
3.833330 2.833330 12.333300 255 51 51
3.500000 2.500000 14.000000 255 51 51
-3.500000 2.500000 14.000000 255 51 51
-3.500000 -0.500000 14.000000 255 51 51
1.000000 -1.750000 13.750000 255 51 51
0.000000 -0.750000 13.750000 255 51 51
-3.750000 0.000000 10.750000 255 51 51
0.833333 -2.833330 18.666700 204 255 255
0.750000 -2.750000 18.500000 255 204 102
1.500000 -2.500000 19.000000 255 204 102
-0.500000 -1.500000 14.000000 255 51 51
-3.500000 -0.500000 11.000000 255 51 51
-2.500000 0.500000 14.000000 255 204 102
3 0 1 2
3 3 0 2
3 4 5 6
3 7 4 6
3 1 0 8
3 8 0 3
3 9 10 11
3 12 9 11
3 13 14 15
3 16 17 18
3 11 10 19
3 12 11 19
3 20 21 22
3 23 20 22
3 24 25 26
3 27 28 29
3 30 31 32
3 33 34 35
3 36 37 38
3 39 40 41
3 32 42 35
3 43 44 45
3 41 38 46
3 47 48 29
3 29 48 49
3 49 48 50
3 50 48 51
3 52 53 54
3 55 56 57
3 58 55 57
3 59 60 61
3 62 59 61
3 63 64 65
3 66 63 65
3 67 68 69
3 70 71 72
3 72 71 73
3 73 71 74
3 71 75 74
3 76 77 78
3 79 80 71
3 80 79 81
3 82 83 84
3 85 86 87
3 88 89 90
3 91 92 93
3 94 73 95
3 96 97 98
3 99 100 101
3 102 85 103
3 104 105 106
3 107 108 109
3 110 111 112
3 113 114 115
3 99 116 117
3 118 119 120
3 121 122 123
3 119 124 125
3 121 126 127
3 128 129 130
3 131 132 133
3 134 135 136
3 137 130 138
3 132 131 139
3 140 141 142
3 143 144 145
3 146 147 148
3 149 150 151
3 152 153 154
3 155 156 157
3 158 159 160
3 161 162 163
3 164 165 166
3 167 168 169
3 170 171 172
3 170 173 174
3 175 176 177
3 171 178 179
3 180 181 182
3 183 184 185
3 186 187 188
3 189 188 190
3 191 192 193
3 194 191 193
3 195 192 196
3 197 198 194
3 199 200 201
3 202 203 204
3 205 25 21
3 175 167 206
3 207 208 209
3 210 71 70
3 211 212 213
3 214 215 216
3 217 218 153
3 219 214 220
3 211 219 220
3 221 222 223
3 51 224 225
3 226 227 228
3 10 229 230
3 162 182 181
3 183 231 184
3 232 233 234
3 12 229 9
3 235 154 195
3 236 237 238
3 225 210 51
3 239 240 241
3 166 242 243
3 244 245 52
3 246 247 248
3 190 249 189
3 250 232 251
3 252 54 53
3 253 254 255
3 87 103 85
3 66 256 257
3 74 14 258
3 259 260 261
3 25 22 21
3 92 262 89
3 263 128 264
3 265 266 267
3 25 268 26
3 134 136 269
3 60 46 270
3 231 271 272
3 223 273 274
3 275 276 277
3 176 178 177
3 278 279 280
3 281 282 283
3 168 284 169
3 285 286 287
3 288 186 289
3 242 290 291
3 292 239 293
3 294 295 264
3 296 297 298
3 33 299 34
3 300 301 280
3 251 234 302
3 303 304 305
3 31 306 307
3 250 308 309
3 310 311 312
3 142 313 314
3 77 315 215
3 10 230 19
3 316 317 318
3 243 319 320
3 30 35 34
3 180 321 322
3 110 112 80
3 323 276 324
3 123 325 326
3 327 222 328
3 329 330 331
3 262 332 333
3 334 227 335
3 336 337 338
3 33 339 285
3 86 340 87
3 80 75 71
3 6 341 342
3 311 103 343
3 344 345 337
3 37 346 326
3 338 138 347
3 105 348 106
3 209 274 349
3 350 291 150
3 1 351 2
3 352 310 353
3 354 188 355
3 356 357 321
3 1 358 351
3 359 245 360
3 361 226 362
3 363 23 50
3 364 91 365
3 366 103 367
3 258 13 368
3 285 287 120
3 58 42 55
3 242 261 369
3 370 371 372
3 108 114 109
3 321 373 374
3 181 322 375
3 326 376 377
3 378 249 379
3 380 381 382
3 104 383 105
3 384 130 385
3 386 152 387
3 207 192 191
3 322 357 352
3 81 388 389
3 390 371 391
3 392 185 184
3 393 394 395
3 396 303 305
3 207 194 198
3 397 35 42
3 216 69 68
3 398 57 56
3 216 315 399
3 128 294 264
3 400 401 134
3 402 403 404
3 405 328 266
3 406 395 394
3 154 407 195
3 408 325 122
3 409 166 165
3 358 410 351
3 127 370 408
3 82 70 72
3 338 411 137
3 30 34 299
3 349 241 240
3 383 79 412
3 163 135 401
3 44 50 45
3 56 42 31
3 136 144 413
3 392 414 415
3 82 300 83
3 47 28 268
3 416 417 418
3 419 317 296
3 420 421 422
3 229 423 424
3 425 105 412
3 411 130 137
3 266 426 405
3 427 44 84
3 377 60 270
3 428 318 317
3 429 287 430
3 250 159 431
3 432 133 132
3 3 358 8
3 433 434 435
3 97 365 98
3 7 436 4
3 437 61 60
3 49 23 22
3 63 66 438
3 243 242 131
3 370 439 408
3 122 127 408
3 412 71 225
3 390 432 371
3 358 440 441
3 382 393 442
3 306 125 382
3 439 376 325
3 244 443 444
3 380 433 435
3 445 64 230
3 446 350 149
3 43 84 44
3 270 38 37
3 161 401 447
3 448 449 420
3 450 126 123
3 377 101 437
3 212 67 451
3 452 453 454
3 455 456 457
3 212 220 68
3 458 459 460
3 7 342 461
3 462 463 464
3 465 384 466
3 352 357 467
3 150 468 151
3 116 101 370
3 469 57 340
3 99 463 100
3 372 117 116
3 449 405 470
3 471 282 472
3 410 5 351
3 118 124 119
3 473 161 447
3 392 231 417
3 97 443 262
3 298 474 296
3 392 475 476
3 330 302 234
3 238 177 178
3 477 359 478
3 346 40 450
3 212 479 213
3 258 16 18
3 480 40 39
3 411 481 482
3 387 420 422
3 164 185 165
3 483 27 29
3 459 278 460
3 72 94 300
3 36 41 40
3 382 307 306
3 272 484 454
3 312 343 485
3 456 61 457
3 229 445 230
3 65 486 256
3 70 45 210
3 316 238 237
3 470 188 187
3 487 488 489
3 490 163 162
3 491 492 18
3 386 387 288
3 423 66 257
3 339 58 469
3 398 307 442
3 90 493 88
3 427 83 279
3 477 142 147
3 367 494 467
3 115 108 360
3 125 495 380
3 472 153 471
3 496 497 373
3 39 46 62
3 498 499 190
3 249 500 501
3 353 322 352
3 157 502 503
3 504 255 240
3 505 324 276
3 483 24 506
3 406 434 135
3 74 18 492
3 286 430 287
3 507 208 198
3 508 366 246
3 509 488 155
3 135 510 136
3 78 211 213
3 385 511 384
3 320 166 243
3 160 302 512
3 136 246 145
3 51 45 50
3 513 294 514
3 236 297 515
3 205 278 48
3 131 291 139
3 195 193 192
3 102 86 85
3 402 516 403
3 517 518 320
3 409 476 260
3 381 434 394
3 349 273 519
3 231 418 417
3 331 502 329
3 339 86 286
3 345 173 520
3 521 484 464
3 90 333 263
3 396 480 517
3 271 484 272
3 147 522 148
3 53 523 477
3 524 248 247
3 525 309 499
3 526 304 133
3 221 527 328
3 485 87 340
3 407 218 197
3 396 526 390
3 528 186 529
3 92 360 530
3 440 7 461
3 531 458 460
3 532 411 337
3 220 216 68
3 401 533 447
3 101 457 437
3 326 270 37
3 217 265 204
3 138 129 333
3 330 233 281
3 197 218 534
3 521 463 117
3 535 124 429
3 464 518 462
3 300 279 83
3 430 535 429
3 536 537 347
3 538 15 14
3 197 193 407
3 180 473 496
3 359 360 88
3 386 330 281
3 221 328 222
3 51 48 224
3 224 459 225
3 226 335 227
3 10 9 229
3 162 161 182
3 183 539 231
3 232 525 233
3 12 438 229
3 195 196 235
3 235 201 154
3 196 540 235
3 201 200 154
3 236 515 237
3 225 71 210
3 239 448 240
3 166 259 242
3 244 541 245
3 248 143 246
3 145 246 143
3 190 499 249
3 250 309 232
3 252 536 54
3 253 540 196
3 196 207 209
3 209 254 253
3 253 196 209
3 87 343 103
3 66 65 256
3 74 75 14
3 259 409 260
3 25 483 22
3 92 364 262
3 263 129 128
3 265 498 266
3 25 47 268
3 413 269 136
3 400 134 269
3 60 59 46
3 231 539 271
3 208 542 274
3 221 223 274
3 274 542 221
3 275 505 276
3 276 543 277
3 176 179 178
3 205 21 363
3 363 427 278
3 21 20 363
3 531 460 280
3 278 205 363
3 280 301 531
3 278 427 279
3 280 460 278
3 281 233 282
3 168 513 284
3 285 339 286
3 288 187 186
3 468 291 290
3 242 369 290
3 292 448 239
3 294 544 295
3 296 515 297
3 33 285 299
3 300 545 301
3 251 232 234
3 303 319 304
3 31 30 306
3 250 431 308
3 308 500 309
3 310 494 311
3 142 141 313
3 214 219 215
3 78 77 215
3 215 219 78
3 63 19 230
3 230 64 63
3 316 237 317
3 243 304 319
3 30 32 35
3 180 496 321
3 80 81 389
3 389 110 80
3 323 543 276
3 326 346 123
3 123 122 325
3 327 546 222
3 329 512 330
3 262 443 332
3 547 334 335
3 335 361 547
3 336 344 337
3 33 397 339
3 86 469 340
3 80 491 75
3 6 5 341
3 311 367 103
3 532 337 548
3 344 549 345
3 345 520 548
3 548 337 345
3 37 36 346
3 338 137 138
3 105 458 348
3 209 208 274
3 350 139 291
3 4 2 351
3 351 5 4
3 352 494 310
3 189 355 188
3 354 186 188
3 356 550 357
3 321 374 356
3 1 8 358
3 359 523 245
3 361 335 226
3 363 20 23
3 364 92 91
3 366 102 103
3 258 14 13
3 120 299 285
3 287 118 120
3 58 397 42
3 242 259 261
3 139 350 371
3 372 116 370
3 350 452 371
3 432 132 139
3 370 391 371
3 371 432 139
3 452 372 371
3 108 115 114
3 321 496 373
3 181 180 322
3 326 325 376
3 378 551 189
3 355 189 551
3 249 501 379
3 378 189 249
3 380 435 381
3 104 388 383
3 384 128 130
3 552 387 199
3 386 281 283
3 386 283 471
3 199 387 200
3 152 154 200
3 200 387 152
3 386 471 152
3 207 196 192
3 322 321 357
3 81 383 388
3 126 390 391
3 391 127 126
3 392 476 185
3 393 381 394
3 396 517 303
3 207 191 194
3 397 33 35
3 216 399 69
3 398 340 57
3 216 215 315
3 128 384 294
3 400 553 401
3 502 402 404
3 404 503 502
3 405 327 328
3 406 490 395
3 154 153 407
3 408 439 325
3 409 259 166
3 358 441 410
3 127 391 370
3 82 43 70
3 338 337 411
3 306 30 299
3 299 120 306
3 240 254 349
3 349 519 241
3 254 209 349
3 383 81 79
3 134 401 135
3 163 406 135
3 44 363 50
3 32 31 42
3 56 55 42
3 136 145 144
3 392 417 414
3 82 72 300
3 47 29 28
3 416 414 417
3 418 554 416
3 314 313 428
3 317 237 515
3 314 428 317
3 474 522 419
3 419 314 317
3 317 515 296
3 296 474 419
3 420 449 421
3 229 438 423
3 383 412 105
3 425 458 105
3 411 385 130
3 266 498 426
3 427 363 44
3 377 437 60
3 428 555 318
3 429 118 287
3 250 160 159
3 432 526 133
3 3 436 358
3 433 510 434
3 97 364 365
3 2 4 436
3 436 3 2
3 437 457 61
3 22 483 49
3 49 50 23
3 483 29 49
3 438 12 19
3 19 63 438
3 131 133 304
3 304 243 131
3 370 101 439
3 122 121 127
3 459 425 225
3 412 79 71
3 225 425 412
3 390 526 432
3 358 436 440
3 382 381 393
3 306 120 125
3 125 380 382
3 120 119 125
3 439 101 376
3 244 52 443
3 380 508 433
3 445 486 64
3 150 149 350
3 446 452 350
3 43 82 84
3 270 46 38
3 161 163 401
3 448 292 449
3 450 396 126
3 126 121 123
3 396 390 126
3 377 376 101
3 212 68 67
3 454 521 452
3 452 446 453
3 521 372 452
3 457 100 455
3 463 455 100
3 212 211 220
3 458 425 459
3 7 6 342
3 462 455 463
3 465 294 384
3 524 467 357
3 494 352 467
3 357 550 524
3 150 291 468
3 116 99 101
3 469 58 57
3 99 117 463
3 372 521 117
3 449 292 405
3 293 546 327
3 405 426 470
3 293 327 292
3 470 421 449
3 292 327 405
3 471 283 282
3 410 341 5
3 118 429 124
3 533 497 473
3 473 182 161
3 447 533 473
3 392 184 231
3 97 96 444
3 444 443 97
3 262 364 97
3 298 556 474
3 392 415 475
3 330 512 302
3 549 557 174
3 236 238 178
3 558 559 168
3 168 167 558
3 559 513 168
3 174 345 549
3 178 171 236
3 174 557 170
3 171 557 236
3 558 167 175
3 558 175 238
3 170 557 171
3 175 177 238
3 477 523 359
3 346 36 40
3 450 123 346
3 212 451 479
3 258 368 16
3 480 450 40
3 385 411 482
3 560 481 411
3 482 561 385
3 387 552 420
3 164 183 185
3 483 506 27
3 459 224 278
3 545 300 94
3 72 73 94
3 36 38 41
3 382 442 307
3 454 453 418
3 418 272 454
3 453 554 418
3 312 311 343
3 456 62 61
3 229 424 445
3 65 64 486
3 70 43 45
3 316 558 238
3 288 422 187
3 421 470 187
3 187 422 421
3 487 158 488
3 490 406 163
3 491 80 112
3 112 111 492
3 18 17 538
3 112 492 491
3 18 538 491
3 289 402 288
3 331 386 402
3 387 422 288
3 288 402 386
3 423 438 66
3 339 397 58
3 490 162 375
3 375 353 490
3 162 181 375
3 393 395 490
3 31 307 398
3 442 393 490
3 490 353 310
3 312 485 398
3 490 310 442
3 442 310 312
3 398 56 31
3 442 312 398
3 90 562 493
3 427 84 83
3 419 147 142
3 477 478 142
3 142 314 419
3 367 311 494
3 360 245 115
3 541 113 115
3 108 107 530
3 245 541 115
3 108 530 360
3 125 124 495
3 495 508 380
3 152 471 153
3 472 217 153
3 496 473 497
3 59 62 46
3 39 41 46
3 188 470 190
3 426 498 190
3 190 470 426
3 249 309 500
3 353 375 322
3 157 156 502
3 240 448 504
3 552 199 504
3 448 420 552
3 255 254 240
3 448 552 504
3 505 563 324
3 483 25 24
3 406 394 434
3 492 95 73
3 74 258 18
3 492 73 74
3 286 86 430
3 198 564 507
3 507 565 542
3 542 208 507
3 207 198 208
3 508 495 535
3 535 102 366
3 366 247 246
3 246 510 433
3 508 535 366
3 246 433 508
3 509 489 488
3 135 434 510
3 479 76 213
3 78 219 211
3 213 76 78
3 385 561 511
3 511 566 384
3 466 384 566
3 320 164 166
3 156 155 158
3 488 158 155
3 329 502 156
3 156 158 160
3 160 250 251
3 251 302 160
3 512 329 156
3 156 160 512
3 136 510 246
3 51 210 45
3 465 514 294
3 513 559 544
3 514 284 513
3 544 294 513
3 236 557 297
3 47 25 48
3 278 224 48
3 48 25 205
3 131 242 291
3 195 407 193
3 102 535 86
3 402 289 516
3 517 480 462
3 39 62 456
3 456 455 462
3 462 518 517
3 539 183 164
3 518 271 320
3 39 456 480
3 319 303 517
3 480 456 462
3 271 539 320
3 320 319 517
3 539 164 320
3 409 165 185
3 476 475 260
3 409 185 476
3 381 435 434
3 349 274 273
3 231 272 418
3 331 402 502
3 339 469 86
3 345 174 173
3 521 454 484
3 263 264 567
3 567 562 263
3 264 295 567
3 262 333 90
3 90 89 262
3 263 562 90
3 396 450 480
3 271 518 484
3 147 419 522
3 147 146 477
3 53 52 245
3 477 146 252
3 245 523 53
3 477 252 53
3 366 367 247
3 467 524 247
3 247 367 467
3 498 265 499
3 525 232 309
3 309 249 499
3 499 265 525
3 526 305 304
3 266 328 267
3 221 542 565
3 527 202 267
3 221 565 527
3 267 328 527
3 340 398 485
3 485 343 87
3 407 153 218
3 396 305 526
3 528 568 289
3 516 289 568
3 186 354 529
3 528 289 186
3 530 93 92
3 92 89 360
3 440 436 7
3 531 348 458
3 532 560 411
3 220 214 216
3 401 553 533
3 101 100 457
3 326 377 270
3 204 218 217
3 472 282 233
3 202 204 265
3 472 233 525
3 267 202 265
3 217 472 525
3 525 265 217
3 333 332 138
3 138 130 129
3 332 347 138
3 129 263 333
3 330 234 233
3 564 198 534
3 218 204 203
3 534 198 197
3 218 203 534
3 521 464 463
3 535 495 124
3 464 484 518
3 300 280 279
3 430 86 535
3 347 332 54
3 443 52 54
3 54 536 347
3 537 336 338
3 332 443 54
3 537 338 347
3 14 75 491
3 491 538 14
3 197 194 193
3 180 182 473
3 493 140 478
3 478 359 88
3 140 142 478
3 360 89 88
3 88 493 478
3 386 331 330
