ply
format ascii 1.0
comment Created by Blender 2.78 (sub 0) - www.blender.org, source file: ''
element vertex 569
property float x
property float y
property float z
property uchar red
property uchar green
property uchar blue
element face 938
property list uchar uint vertex_indices
end_header
2.000000 -1.500000 0.500000 255 255 0
1.500000 -1.000000 0.500000 255 255 0
2.000000 -1.000000 0.000000 255 255 0
2.500000 -1.000000 0.500000 255 255 0
2.000000 1.000000 0.000000 255 255 0
1.500000 1.000000 0.500000 255 255 0
2.000000 1.500000 0.500000 255 255 0
2.500000 1.000000 0.500000 255 255 0
2.000000 -1.000000 1.000000 255 255 0
-2.000000 0.500000 1.500000 255 255 0
-2.500000 1.000000 1.500000 255 255 0
-2.000000 1.000000 1.000000 255 255 0
-1.500000 1.000000 1.500000 255 255 0
1.500000 0.500000 1.000000 0 255 51
1.500000 1.000000 1.500000 0 255 51
1.500000 1.000000 1.000000 0 255 51
2.500000 0.500000 1.000000 0 255 51
2.500000 1.000000 1.000000 0 255 51
2.500000 1.000000 1.500000 0 255 51
-2.000000 1.500000 1.500000 255 255 0
-2.000000 -2.500000 3.500000 0 255 51
-2.500000 -2.000000 3.500000 0 255 51
-2.000000 -2.000000 3.000000 0 255 51
-1.500000 -2.000000 3.500000 0 255 51
-2.500000 0.500000 3.000000 0 255 51
-2.500000 0.000000 3.500000 0 255 51
-2.500000 0.500000 3.500000 0 255 51
-1.500000 0.500000 3.000000 0 255 51
-1.500000 0.500000 3.500000 0 255 51
-1.500000 0.000000 3.500000 0 255 51
-6.000000 -2.500000 4.500000 255 204 102
-6.500000 -2.000000 4.500000 255 204 102
-6.000000 -2.000000 4.000000 255 204 102
-4.500000 -2.000000 4.500000 255 204 102
-5.000000 -2.500000 4.500000 255 204 102
-5.000000 -2.000000 4.000000 255 204 102
5.000000 -2.500000 4.500000 255 204 102
4.500000 -2.000000 4.500000 255 204 102
5.000000 -2.000000 4.000000 255 204 102
6.500000 -2.000000 4.500000 255 204 102
6.000000 -2.500000 4.500000 255 204 102
6.000000 -2.000000 4.000000 255 204 102
-6.000000 -1.000000 4.000000 255 204 102
1.500000 -1.000000 4.500000 0 255 51
1.000000 -1.500000 4.500000 0 255 51
1.000000 -1.000000 4.000000 0 255 51
6.000000 -1.000000 4.000000 255 204 102
-2.000000 0.000000 4.000000 0 255 51
-2.000000 -0.500000 4.500000 0 255 51
-1.500000 -1.000000 3.500000 0 255 51
-1.000000 -1.000000 4.000000 0 255 51
-1.000000 0.000000 4.000000 0 255 51
2.500000 1.000000 8.500000 255 51 51
2.500000 2.000000 9.500000 255 51 51
2.500000 0.000000 9.500000 255 51 51
-6.000000 0.000000 4.000000 255 204 102
-6.500000 0.000000 4.500000 255 204 102
-6.000000 0.500000 4.500000 255 204 102
-5.500000 0.000000 4.500000 255 204 102
6.000000 0.000000 4.000000 255 204 102
5.500000 0.000000 4.500000 255 204 102
6.000000 0.500000 4.500000 255 204 102
6.500000 0.000000 4.500000 255 204 102
-2.000000 1.500000 3.500000 255 255 0
-2.500000 1.000000 3.500000 255 255 0
-2.000000 1.000000 4.000000 255 255 0
-1.500000 1.000000 3.500000 255 255 0
0.500000 -2.500000 21.000000 255 255 102
0.000000 -2.500000 21.500000 255 255 102
-0.500000 -2.500000 21.000000 255 255 102
1.500000 0.000000 4.500000 0 255 51
1.000000 1.000000 5.000000 0 255 51
1.500000 0.000000 5.500000 0 255 51
2.000000 0.500000 5.500000 0 255 51
2.000000 0.500000 4.500000 0 255 51
1.500000 1.000000 4.500000 0 255 51
0.500000 2.500000 21.000000 255 255 102
-0.500000 2.500000 21.000000 255 255 102
0.000000 2.500000 21.500000 255 255 102
1.000000 2.000000 5.000000 0 255 51
1.500000 2.000000 5.500000 0 255 51
1.000000 2.500000 5.500000 0 255 51
1.500000 -1.000000 5.500000 0 255 51
1.000000 -1.000000 6.000000 0 255 51
1.000000 -1.500000 5.500000 0 255 51
-5.000000 1.000000 6.000000 255 204 102
-5.000000 0.000000 6.000000 255 204 102
-6.000000 1.000000 6.000000 255 204 102
-2.500000 2.000000 9.500000 255 51 51
-2.500000 1.000000 8.500000 255 51 51
-2.500000 0.000000 9.500000 255 51 51
-2.500000 0.500000 6.000000 255 51 51
-2.500000 1.000000 6.500000 255 51 51
-2.500000 1.000000 6.000000 255 51 51
1.500000 0.500000 6.000000 0 255 51
2.000000 0.500000 6.000000 0 255 51
1.500000 0.500000 6.000000 255 51 51
1.000000 0.500000 6.500000 255 51 51
1.000000 0.250000 6.250000 255 51 51
5.000000 1.000000 6.000000 255 204 102
6.000000 1.000000 6.000000 255 204 102
5.000000 0.000000 6.000000 255 204 102
-4.500000 1.000000 6.500000 255 204 102
-5.000000 1.500000 6.500000 255 204 102
-1.500000 1.500000 6.000000 0 255 51
-2.000000 1.500000 5.500000 0 255 51
-2.000000 1.500000 6.000000 0 255 51
-1.500000 1.500000 6.000000 255 51 51
-1.000000 1.500000 6.500000 255 51 51
-1.000000 1.750000 6.250000 255 51 51
1.500000 1.500000 6.000000 0 255 51
2.000000 1.500000 6.000000 0 255 51
2.000000 1.500000 5.500000 0 255 51
1.500000 1.500000 6.000000 255 51 51
1.000000 1.750000 6.250000 255 51 51
1.000000 1.500000 6.500000 255 51 51
4.500000 1.000000 6.500000 255 204 102
5.000000 1.500000 6.500000 255 204 102
-3.500000 -2.000000 6.500000 255 204 102
-4.000000 -2.000000 7.000000 255 204 102
-4.000000 -2.500000 6.500000 255 204 102
4.000000 -2.000000 7.000000 255 204 102
3.500000 -2.000000 6.500000 255 204 102
4.000000 -2.500000 6.500000 255 204 102
-4.000000 -1.000000 7.000000 255 204 102
-5.000000 -2.000000 7.000000 255 204 102
5.000000 -2.000000 7.000000 255 204 102
4.000000 -1.000000 7.000000 255 204 102
-1.000000 -1.500000 11.500000 255 51 51
-1.000000 -0.500000 10.500000 255 51 51
0.000000 -0.500000 11.500000 255 51 51
5.000000 -1.000000 11.000000 255 204 102
4.500000 -1.000000 10.500000 255 204 102
5.000000 -1.500000 10.500000 255 204 102
-4.000000 -0.500000 11.500000 255 204 102
-5.000000 -0.500000 11.500000 255 204 102
-4.000000 0.000000 11.000000 255 204 102
1.000000 -1.500000 11.500000 255 51 51
1.000000 -0.500000 10.500000 255 51 51
4.500000 0.000000 10.500000 255 204 102
-3.500000 2.500000 11.000000 255 51 51
-3.250000 3.000000 10.750000 255 51 51
-3.000000 3.000000 11.000000 255 51 51
-3.500000 2.500000 11.000000 255 204 102
-3.750000 2.000000 10.750000 255 204 102
-4.000000 2.000000 11.000000 255 204 102
3.500000 2.500000 11.000000 255 51 51
3.000000 3.000000 11.000000 255 51 51
3.250000 3.000000 10.750000 255 51 51
3.500000 2.500000 11.000000 255 204 102
4.000000 2.000000 11.000000 255 204 102
3.750000 2.000000 10.750000 255 204 102
-2.000000 -2.500000 16.500000 255 204 102
0.000000 -2.500000 16.500000 255 204 102
-1.000000 -2.500000 17.500000 255 204 102
-0.500000 -1.500000 14.000000 255 204 102
-1.000000 -2.000000 14.000000 255 204 102
-1.000000 -1.750000 13.750000 255 204 102
0.500000 -1.500000 14.000000 255 204 102
1.000000 -1.750000 13.750000 255 204 102
1.000000 -2.000000 14.000000 255 204 102
-6.000000 0.000000 14.000000 255 204 102
-6.500000 0.000000 13.500000 255 204 102
-6.000000 -0.500000 13.500000 255 204 102
6.500000 0.000000 13.500000 255 204 102
6.000000 0.000000 14.000000 255 204 102
6.000000 -0.500000 13.500000 255 204 102
-2.500000 0.500000 14.000000 255 51 51
-3.000000 0.000000 14.000000 255 51 51
-2.750000 0.000000 14.250000 255 51 51
2.500000 0.500000 14.000000 255 51 51
1.500000 1.500000 14.000000 255 51 51
1.833330 0.833333 14.333300 255 51 51
2.750000 0.000000 14.250000 255 51 51
3.000000 0.000000 14.000000 255 51 51
-1.500000 1.500000 14.000000 255 51 51
-1.000000 1.750000 14.250000 255 51 51
-1.000000 2.000000 14.000000 255 51 51
1.000000 2.000000 14.000000 255 51 51
1.000000 1.750000 14.250000 255 51 51
-6.000000 2.500000 13.500000 255 204 102
-6.500000 2.000000 13.500000 255 204 102
-6.000000 2.000000 14.000000 255 204 102
6.500000 2.000000 13.500000 255 204 102
6.000000 2.500000 13.500000 255 204 102
6.000000 2.000000 14.000000 255 204 102
-1.000000 1.500000 14.500000 255 204 102
-1.000000 1.500000 15.500000 255 204 102
0.000000 1.500000 14.500000 255 204 102
1.000000 1.500000 14.500000 255 204 102
1.000000 1.500000 15.500000 255 204 102
0.000000 -4.500000 17.500000 255 204 102
-0.500000 -4.000000 17.500000 255 204 102
0.000000 -4.000000 17.000000 255 204 102
0.500000 -4.000000 17.500000 255 204 102
-0.500000 -3.000000 17.500000 255 204 102
-0.500000 -3.000000 18.500000 255 204 102
0.500000 -3.000000 17.500000 255 204 102
0.500000 -3.000000 18.500000 255 204 102
-1.500000 -1.500000 18.000000 255 204 102
-1.500000 -2.000000 17.500000 255 204 102
-1.500000 -2.000000 18.000000 255 204 102
1.500000 -1.500000 18.000000 255 204 102
1.500000 -2.000000 18.000000 255 204 102
1.500000 -2.000000 17.500000 255 204 102
-2.500000 -1.000000 4.500000 0 255 51
-1.833330 0.833333 14.333300 255 51 51
0.000000 -3.500000 18.500000 255 204 102
1.000000 -3.500000 19.500000 255 204 102
-1.000000 -3.500000 19.500000 255 204 102
1.000000 0.000000 4.000000 0 255 51
0.500000 -2.000000 25.500000 255 255 102
0.500000 -2.000000 21.500000 255 255 102
0.500000 2.000000 21.500000 255 255 102
-0.500000 -2.000000 25.500000 255 255 102
-0.500000 2.000000 21.500000 255 255 102
-0.500000 -2.000000 21.500000 255 255 102
2.000000 -2.500000 16.500000 255 204 102
1.000000 -2.500000 17.500000 255 204 102
0.000000 -2.000000 26.000000 255 255 102
0.000000 -2.500000 25.500000 255 255 102
3.750000 2.000000 10.750000 255 51 51
3.000000 3.500000 12.500000 255 51 51
3.750000 2.750000 13.500000 255 51 51
3.750000 2.750000 12.500000 255 51 51
1.500000 -2.000000 20.500000 255 204 102
0.750000 2.000000 21.250000 255 204 102
0.750000 -2.000000 21.250000 255 204 102
-3.750000 2.000000 10.750000 255 51 51
2.500000 -1.000000 17.500000 255 204 102
1.500000 2.000000 18.500000 255 204 102
1.500000 -1.000000 18.500000 255 204 102
-2.500000 -1.000000 17.500000 255 204 102
-1.500000 2.000000 18.500000 255 204 102
-2.500000 2.000000 17.500000 255 204 102
2.000000 0.500000 1.500000 0 255 51
-2.000000 0.250000 6.250000 255 51 51
1.500000 -1.500000 19.000000 204 255 255
1.500000 -2.000000 18.500000 204 255 255
1.500000 -1.500000 18.000000 204 255 255
2.500000 0.000000 14.500000 255 204 102
1.000000 0.000000 6.000000 0 255 51
-2.000000 0.250000 6.250000 0 255 51
-2.000000 0.000000 6.000000 0 255 51
-2.500000 -3.000000 15.500000 255 204 102
-1.000000 -4.500000 14.500000 255 204 102
-1.000000 -4.500000 15.500000 255 204 102
-0.750000 2.000000 21.250000 255 204 102
-1.500000 -2.000000 20.500000 255 204 102
-0.750000 -2.000000 21.250000 255 204 102
6.000000 -0.500000 8.500000 255 204 102
6.500000 -1.000000 9.500000 255 204 102
6.000000 -1.500000 9.500000 255 204 102
-4.000000 -0.500000 13.500000 255 204 102
-3.500000 -0.500000 14.000000 255 204 102
-4.000000 0.000000 14.000000 255 204 102
6.000000 -0.500000 11.500000 255 204 102
6.500000 -1.000000 10.500000 255 204 102
6.500000 0.000000 11.500000 255 204 102
3.750000 -0.750000 11.500000 255 51 51
3.000000 -1.500000 13.500000 255 51 51
3.000000 -1.500000 11.500000 255 51 51
-2.500000 -1.000000 14.500000 255 204 102
-2.750000 0.000000 14.250000 255 204 102
-2.750000 -1.000000 14.250000 255 204 102
-2.500000 0.000000 15.500000 255 204 102
-2.500000 0.000000 14.500000 255 204 102
6.000000 2.500000 12.500000 255 204 102
-1.000000 -1.000000 6.000000 0 255 51
2.500000 -1.500000 14.000000 255 204 102
2.500000 -1.000000 14.500000 255 204 102
2.000000 -2.000000 14.000000 255 204 102
2.500000 -3.000000 14.500000 255 204 102
1.000000 -4.500000 15.500000 255 204 102
1.000000 -4.500000 14.500000 255 204 102
-5.000000 1.500000 7.500000 255 204 102
-6.000000 3.500000 9.500000 255 204 102
-5.000000 3.500000 9.500000 255 204 102
-3.750000 -0.750000 11.500000 255 204 102
4.500000 2.000000 10.500000 255 204 102
4.000000 0.000000 11.000000 255 204 102
2.000000 0.000000 1.000000 255 255 0
1.500000 0.000000 0.500000 255 255 0
-6.000000 0.500000 5.500000 255 204 102
-6.500000 1.000000 6.500000 255 204 102
-0.750000 2.000000 21.250000 255 255 102
-0.750000 -2.000000 21.250000 255 255 102
-0.750000 -2.750000 18.500000 204 255 255
-1.500000 -2.000000 18.000000 204 255 255
-0.750000 -2.750000 18.000000 204 255 255
-6.500000 3.000000 11.500000 255 204 102
-6.000000 2.500000 12.500000 255 204 102
-6.000000 3.500000 11.500000 255 204 102
-2.000000 0.500000 4.000000 0 255 51
-2.500000 1.000000 6.000000 0 255 51
2.500000 1.000000 6.000000 255 51 51
2.000000 0.500000 8.500000 255 51 51
2.000000 0.500000 6.000000 255 51 51
-2.000000 -3.000000 14.000000 255 204 102
-2.500000 -3.000000 14.500000 255 204 102
-1.500000 2.000000 20.500000 255 204 102
-1.000000 2.500000 18.500000 255 204 102
-2.000000 0.000000 5.000000 0 255 51
-1.500000 -1.000000 5.500000 0 255 51
-2.500000 0.000000 5.500000 0 255 51
-2.500000 1.000000 5.500000 0 255 51
3.000000 3.000000 14.000000 255 51 51
-3.000000 3.500000 13.500000 255 51 51
-3.000000 3.000000 14.000000 255 51 51
3.833330 2.833330 12.333300 255 204 102
4.000000 2.500000 12.500000 255 204 102
4.000000 3.500000 11.500000 255 204 102
-4.000000 -1.000000 6.000000 255 204 102
-4.500000 0.000000 6.500000 255 204 102
-3.500000 -1.000000 6.500000 255 204 102
4.500000 1.000000 7.500000 255 204 102
3.250000 3.000000 10.750000 255 204 102
-3.000000 -0.500000 10.500000 255 51 51
-3.000000 -1.500000 11.500000 255 51 51
3.000000 3.500000 13.500000 255 51 51
4.500000 0.000000 6.500000 255 204 102
3.500000 -1.000000 6.500000 255 204 102
-3.833330 2.833330 12.333300 255 204 102
-4.000000 3.500000 11.500000 255 204 102
-4.000000 2.500000 12.500000 255 204 102
-1.000000 -1.500000 13.500000 255 51 51
0.000000 -0.500000 13.500000 255 51 51
2.500000 -1.750000 13.750000 255 51 51
1.000000 -1.500000 13.500000 255 51 51
5.000000 -2.500000 5.500000 255 204 102
4.500000 -2.000000 5.500000 255 204 102
4.000000 -1.000000 6.000000 255 204 102
-2.000000 2.500000 17.500000 255 204 102
-2.000000 1.000000 5.000000 0 255 51
-1.000000 2.000000 5.000000 0 255 51
2.750000 -1.000000 14.250000 255 204 102
2.750000 0.000000 14.250000 255 204 102
-1.000000 1.750000 14.250000 255 204 102
1.000000 1.750000 14.250000 255 204 102
1.000000 2.500000 20.500000 255 204 102
1.500000 2.000000 20.500000 255 204 102
3.500000 3.500000 11.000000 255 51 51
-6.000000 -0.500000 8.500000 255 204 102
-6.500000 -1.000000 9.500000 255 204 102
-6.500000 0.000000 8.500000 255 204 102
-2.000000 0.500000 2.500000 255 255 0
-2.500000 1.000000 2.500000 255 255 0
2.000000 1.500000 4.500000 0 255 51
2.500000 1.000000 6.000000 0 255 51
-5.000000 -2.500000 5.500000 255 204 102
-4.000000 -2.000000 6.000000 255 204 102
-3.750000 2.750000 13.500000 255 51 51
5.000000 -0.500000 8.500000 255 204 102
4.500000 -1.000000 9.500000 255 204 102
4.500000 0.000000 8.500000 255 204 102
-2.000000 1.500000 8.500000 255 51 51
-2.000000 0.000000 3.000000 0 255 51
-2.000000 0.250000 2.750000 0 255 51
-4.500000 1.000000 7.500000 255 204 102
-6.000000 -0.500000 11.500000 255 204 102
-5.000000 -0.500000 8.500000 255 204 102
-4.500000 -1.000000 9.500000 255 204 102
-5.000000 -1.500000 9.500000 255 204 102
-2.000000 0.500000 8.500000 255 51 51
5.500000 -1.000000 5.500000 255 204 102
5.500000 -1.000000 4.500000 255 204 102
-3.500000 3.500000 11.000000 255 51 51
-3.000000 3.500000 11.500000 255 51 51
-1.000000 1.750000 6.250000 0 255 51
1.000000 1.750000 6.250000 0 255 51
4.000000 -0.500000 11.500000 255 204 102
3.750000 -0.750000 11.500000 255 204 102
3.500000 -0.500000 11.000000 255 204 102
-6.500000 -1.000000 10.500000 255 204 102
-6.000000 -1.500000 10.500000 255 204 102
2.500000 0.000000 0.500000 255 255 0
-1.500000 1.000000 2.500000 255 255 0
6.000000 -1.500000 10.500000 255 204 102
1.000000 -4.000000 16.000000 255 204 102
-1.000000 -4.000000 16.000000 255 204 102
6.000000 1.500000 7.500000 255 204 102
6.500000 3.000000 9.500000 255 204 102
6.500000 1.000000 7.500000 255 204 102
2.000000 0.250000 1.250000 0 255 51
1.000000 2.500000 18.500000 255 204 102
6.500000 1.000000 6.500000 255 204 102
6.000000 0.500000 5.500000 255 204 102
1.500000 -1.500000 19.000000 255 204 102
1.500000 -2.500000 19.000000 255 204 102
-1.000000 2.500000 5.500000 0 255 51
-4.000000 2.000000 14.000000 255 204 102
-4.000000 2.500000 13.500000 255 204 102
-5.000000 -1.500000 10.500000 255 204 102
-5.500000 -1.000000 5.500000 255 204 102
-4.500000 -2.000000 5.500000 255 204 102
5.000000 1.500000 7.500000 255 204 102
6.000000 1.500000 6.500000 255 204 102
2.000000 1.500000 8.500000 255 51 51
-6.500000 -2.000000 6.500000 255 204 102
-6.000000 -2.500000 6.500000 255 204 102
4.000000 2.500000 13.500000 255 204 102
3.750000 2.750000 12.500000 255 204 102
3.750000 2.750000 13.500000 255 204 102
2.500000 0.500000 1.000000 255 255 0
2.500000 1.000000 1.000000 255 255 0
5.000000 -1.000000 6.000000 255 204 102
4.000000 -2.000000 6.000000 255 204 102
-4.500000 -1.000000 10.500000 255 204 102
3.500000 2.500000 14.000000 255 204 102
4.000000 2.000000 14.000000 255 204 102
3.000000 3.500000 11.500000 255 51 51
6.500000 -2.000000 6.500000 255 204 102
6.500000 0.000000 8.500000 255 204 102
-6.500000 3.000000 9.500000 255 204 102
6.500000 3.000000 11.500000 255 204 102
6.000000 3.500000 11.500000 255 204 102
5.500000 0.000000 5.500000 255 204 102
-0.166667 -0.833333 13.666700 255 51 51
4.000000 0.000000 14.000000 255 204 102
2.000000 0.250000 1.250000 255 255 0
0.166667 -0.833333 13.666700 255 51 51
-2.000000 2.500000 9.500000 255 51 51
0.000000 -3.000000 17.000000 255 204 102
-1.000000 -2.500000 20.500000 255 204 102
0.500000 -2.500000 21.000000 255 204 102
-0.500000 -2.500000 21.000000 255 204 102
-2.000000 -2.000000 14.000000 255 204 102
-3.750000 0.000000 10.750000 255 204 102
-5.000000 -1.000000 6.000000 255 204 102
-1.500000 -2.500000 19.000000 204 255 255
-0.833333 -2.833330 18.666700 204 255 255
-1.500000 0.000000 4.500000 0 255 51
-1.000000 1.000000 5.000000 0 255 51
-5.500000 -1.000000 4.500000 255 204 102
3.750000 0.000000 10.750000 255 204 102
1.500000 0.500000 1.000000 255 255 0
2.000000 -0.500000 9.500000 255 51 51
-3.000000 -1.500000 13.500000 255 51 51
-6.000000 1.500000 7.500000 255 204 102
-6.000000 1.500000 6.500000 255 204 102
-3.000000 3.500000 12.500000 255 51 51
-3.750000 2.750000 12.500000 255 51 51
-6.500000 0.000000 11.500000 255 204 102
6.500000 0.000000 5.500000 255 204 102
-2.000000 -0.500000 9.500000 255 51 51
6.000000 -2.500000 6.500000 255 204 102
3.750000 -0.750000 13.500000 255 51 51
3.000000 -1.000000 14.000000 255 51 51
1.000000 -2.500000 20.500000 255 204 102
-1.500000 -1.500000 18.000000 204 255 255
-1.500000 -2.000000 18.500000 204 255 255
5.000000 -1.500000 9.500000 255 204 102
-1.500000 0.500000 3.000000 255 255 0
-2.000000 0.250000 2.750000 255 255 0
3.000000 2.500000 10.500000 255 51 51
-3.000000 2.500000 10.500000 255 51 51
1.000000 -4.000000 14.000000 255 204 102
-2.500000 0.500000 3.500000 255 255 0
-2.000000 0.500000 4.000000 255 255 0
1.500000 -2.500000 19.000000 204 255 255
0.750000 -2.750000 18.500000 204 255 255
-1.000000 -1.500000 5.500000 0 255 51
2.000000 2.500000 17.500000 255 204 102
2.500000 2.000000 17.500000 255 204 102
6.000000 3.500000 9.500000 255 204 102
3.000000 -0.500000 10.500000 255 51 51
1.500000 1.000000 1.000000 255 255 0
2.000000 1.500000 1.000000 255 255 0
-2.500000 0.500000 3.000000 255 255 0
-1.500000 0.500000 3.500000 255 255 0
-3.500000 -0.500000 11.000000 255 204 102
-2.000000 1.500000 6.000000 255 51 51
0.750000 2.000000 21.250000 255 255 102
2.000000 1.500000 1.000000 0 255 51
3.500000 3.500000 12.000000 255 51 51
-4.500000 2.000000 10.500000 255 204 102
4.500000 3.000000 9.500000 255 204 102
3.500000 3.500000 11.000000 255 204 102
5.000000 3.500000 9.500000 255 204 102
0.750000 -2.000000 21.250000 255 255 102
3.750000 -0.750000 13.500000 255 204 102
2.750000 -1.000000 14.250000 255 51 51
1.833330 0.833333 14.333300 255 204 102
2.500000 0.500000 14.000000 255 204 102
-4.500000 -1.000000 7.500000 255 204 102
2.500000 -1.750000 13.750000 255 204 102
-5.500000 0.000000 5.500000 255 204 102
-2.750000 -1.000000 14.250000 255 51 51
-0.166667 -0.833333 13.666700 255 204 102
0.000000 -1.000000 14.000000 255 204 102
0.166667 -0.833333 13.666700 255 204 102
0.000000 -0.750000 13.750000 255 204 102
-6.500000 1.000000 7.500000 255 204 102
-1.000000 2.500000 20.500000 255 204 102
-0.500000 2.500000 21.000000 255 204 102
2.000000 -3.000000 14.000000 255 204 102
-3.500000 2.500000 14.000000 255 204 102
-3.750000 2.750000 13.500000 255 204 102
-3.750000 2.750000 12.500000 255 204 102
0.750000 -2.750000 18.000000 255 204 102
-3.500000 3.500000 12.000000 255 51 51
4.000000 -0.500000 13.500000 255 204 102
3.500000 -0.500000 14.000000 255 204 102
-3.500000 3.500000 11.000000 255 204 102
-3.250000 3.000000 10.750000 255 204 102
-4.500000 3.000000 9.500000 255 204 102
-2.500000 0.500000 6.000000 0 255 51
-1.500000 -3.000000 19.500000 255 204 102
-0.833333 -2.833330 18.666700 255 204 102
-6.000000 -1.500000 9.500000 255 204 102
2.000000 -3.000000 16.000000 255 204 102
-2.000000 -3.000000 16.000000 255 204 102
-2.500000 -1.750000 13.750000 255 204 102
2.500000 0.000000 15.500000 255 204 102
2.500000 -3.000000 15.500000 255 204 102
0.000000 2.500000 15.500000 255 204 102
-1.500000 -1.000000 18.500000 255 204 102
-1.500000 -1.500000 19.000000 255 204 102
-2.500000 -1.500000 14.000000 255 204 102
-2.500000 -1.750000 13.750000 255 51 51
-1.000000 -1.750000 13.750000 255 51 51
0.833333 -2.833330 18.666700 255 204 102
0.750000 -2.750000 18.000000 204 255 255
-0.750000 -2.750000 18.000000 255 204 102
-2.000000 0.500000 6.500000 255 51 51
-2.000000 -1.500000 4.500000 0 255 51
-2.500000 -1.500000 14.000000 255 51 51
-3.000000 -1.000000 14.000000 255 51 51
-4.500000 0.000000 8.500000 255 204 102
-6.500000 0.000000 5.500000 255 204 102
-1.833330 0.833333 14.333300 255 204 102
-1.000000 -4.000000 14.000000 255 204 102
-6.500000 2.000000 12.500000 255 204 102
4.500000 -1.000000 7.500000 255 204 102
3.750000 0.000000 10.750000 255 51 51
3.500000 -0.500000 11.000000 255 51 51
-3.750000 -0.750000 11.500000 255 51 51
-3.750000 0.000000 10.750000 255 51 51
1.500000 -2.000000 18.000000 204 255 255
1.000000 0.250000 6.250000 0 255 51
-3.750000 -0.750000 13.500000 255 204 102
6.500000 2.000000 12.500000 255 204 102
3.500000 3.500000 12.000000 255 204 102
3.500000 2.500000 14.000000 255 51 51
-3.500000 3.500000 12.000000 255 204 102
1.000000 -1.750000 13.750000 255 51 51
0.500000 2.500000 21.000000 255 204 102
-3.500000 2.500000 14.000000 255 51 51
2.000000 1.500000 6.000000 255 51 51
1.500000 -3.000000 19.500000 255 204 102
0.000000 -0.750000 13.750000 255 51 51
-0.500000 -1.500000 14.000000 255 51 51
0.500000 -1.500000 14.000000 255 51 51
2.000000 2.500000 9.500000 255 51 51
3.500000 -0.500000 14.000000 255 51 51
-3.500000 -0.500000 14.000000 255 51 51
-3.500000 -0.500000 11.000000 255 51 51
2.500000 -1.500000 14.000000 255 51 51
-1.500000 -1.500000 19.000000 204 255 255
0.833333 -2.833330 18.666700 204 255 255
3.833330 2.833330 12.333300 255 51 51
1.500000 1.500000 14.000000 255 204 102
0.750000 -2.750000 18.500000 255 204 102
-3.833330 2.833330 12.333300 255 51 51
-1.500000 -2.500000 19.000000 255 204 102
-0.750000 -2.750000 18.500000 255 204 102
-3.750000 -0.750000 13.500000 255 51 51
-1.500000 1.500000 14.000000 255 204 102
-2.500000 0.500000 14.000000 255 204 102
3 0 1 2
3 3 0 2
3 4 5 6
3 7 4 6
3 1 0 8
3 8 0 3
3 9 10 11
3 12 9 11
3 13 14 15
3 16 17 18
3 11 10 19
3 12 11 19
3 20 21 22
3 23 20 22
3 24 25 26
3 27 28 29
3 30 31 32
3 33 34 35
3 36 37 38
3 39 40 41
3 32 42 35
3 43 44 45
3 41 38 46
3 47 48 29
3 29 48 49
3 49 48 50
3 50 48 51
3 52 53 54
3 55 56 57
3 58 55 57
3 59 60 61
3 62 59 61
3 63 64 65
3 66 63 65
3 67 68 69
3 70 71 72
3 72 71 73
3 73 71 74
3 71 75 74
3 76 77 78
3 79 80 71
3 80 79 81
3 82 83 84
3 85 86 87
3 88 89 90
3 91 92 93
3 94 73 95
3 96 97 98
3 99 100 101
3 102 85 103
3 104 105 106
3 107 108 109
3 110 111 112
3 113 114 115
3 99 116 117
3 118 119 120
3 121 122 123
3 119 124 125
3 121 126 127
3 128 129 130
3 131 132 133
3 134 135 136
3 137 130 138
3 132 131 139
3 140 141 142
3 143 144 145
3 146 147 148
3 149 150 151
3 152 153 154
3 155 156 157
3 158 159 160
3 161 162 163
3 164 165 166
3 167 168 169
3 170 171 172
3 170 173 174
3 175 176 177
3 171 178 179
3 180 181 182
3 183 184 185
3 186 187 188
3 189 188 190
3 191 192 193
3 194 191 193
3 195 192 196
3 197 198 194
3 199 200 201
3 202 203 204
3 205 25 21
3 175 167 206
3 207 208 209
3 210 71 70
3 211 212 213
3 214 215 216
3 217 218 153
3 219 214 220
3 211 219 220
3 221 54 53
3 222 223 224
3 225 226 227
3 90 228 88
3 229 230 231
3 232 233 234
3 74 14 235
3 97 236 98
3 237 238 239
3 190 240 189
3 241 242 243
3 244 245 246
3 162 182 181
3 247 248 249
3 250 251 252
3 253 254 255
3 256 257 258
3 87 103 85
3 259 260 261
3 262 263 264
3 265 186 266
3 183 267 184
3 241 268 83
3 269 270 271
3 272 273 274
3 275 276 277
3 278 253 134
3 279 280 150
3 176 178 177
3 1 281 282
3 87 283 284
3 216 285 286
3 287 288 289
3 290 291 292
3 72 94 241
3 25 293 26
3 105 294 106
3 295 296 297
3 298 245 299
3 164 185 165
3 300 301 233
3 302 303 304
3 305 302 304
3 306 307 308
3 309 310 311
3 312 313 314
3 315 117 116
3 316 279 149
3 317 128 318
3 306 223 319
3 127 320 321
3 322 323 324
3 325 130 326
3 327 328 260
3 37 329 330
3 320 331 321
3 235 16 18
3 233 332 234
3 333 105 334
3 240 335 336
3 337 188 338
3 339 226 340
3 147 341 148
3 342 343 344
3 10 345 346
3 347 348 18
3 195 193 192
3 349 350 120
3 351 308 307
3 352 353 354
3 355 115 108
3 33 349 34
3 244 152 232
3 356 24 357
3 358 103 275
3 80 75 71
3 163 359 135
3 360 361 362
3 92 363 89
3 364 60 365
3 142 366 367
3 81 368 369
3 370 371 372
3 220 216 68
3 2 1 282
3 359 373 374
3 375 2 4
3 108 114 109
3 229 204 217
3 66 376 63
3 256 131 377
3 180 324 291
3 246 378 379
3 80 369 110
3 380 381 382
3 10 346 19
3 235 13 383
3 384 340 230
3 100 385 386
3 122 127 321
3 387 225 388
3 389 79 334
3 116 101 320
3 291 323 292
3 180 390 391
3 251 377 252
3 361 392 362
3 343 374 373
3 33 393 394
3 395 396 117
3 295 397 52
3 342 398 399
3 382 396 380
3 400 401 402
3 403 7 404
3 331 405 406
3 135 407 136
3 400 408 409
3 142 410 147
3 99 396 100
3 36 41 40
3 82 241 83
3 250 411 412
3 292 413 290
3 267 414 415
3 56 42 31
3 207 194 198
3 101 386 416
3 326 417 325
3 166 370 256
3 418 166 165
3 281 403 419
3 420 326 328
3 123 406 330
3 421 397 355
3 197 193 422
3 423 424 425
3 47 28 293
3 299 426 298
3 308 177 178
3 136 144 427
3 394 428 350
3 429 287 430
3 51 431 432
3 216 69 68
3 433 35 42
3 150 434 151
3 353 133 132
3 435 5 282
3 436 138 129
3 128 437 318
3 102 86 85
3 438 103 439
3 422 218 197
3 267 311 310
3 281 435 282
3 330 405 364
3 104 389 105
3 351 440 441
3 442 163 162
3 207 192 191
3 400 185 184
3 443 61 386
3 90 444 317
3 445 329 40
3 446 447 260
3 209 448 423
3 449 288 450
3 250 451 352
3 345 452 453
3 428 312 350
3 454 421 455
3 365 38 37
3 245 456 274
3 313 124 314
3 18 348 74
3 432 334 79
3 120 119 125
3 65 457 458
3 459 460 238
3 461 44 84
3 323 277 292
3 58 42 55
3 190 462 463
3 25 22 21
3 43 84 44
3 395 464 380
3 261 138 465
3 6 466 467
3 60 46 365
3 345 468 346
3 452 66 469
3 136 427 470
3 471 92 355
3 212 472 213
3 454 221 53
3 473 15 14
3 432 210 51
3 224 474 222
3 136 475 145
3 416 61 60
3 381 258 412
3 476 477 478
3 82 70 72
3 212 67 479
3 370 480 371
3 447 173 481
3 70 45 210
3 330 365 37
3 482 240 483
3 125 484 360
3 271 159 485
3 486 57 283
3 168 487 169
3 488 489 155
3 490 489 491
3 468 64 346
3 492 439 284
3 493 247 494
3 271 272 495
3 356 27 29
3 363 436 444
3 328 130 137
3 391 496 497
3 44 50 45
3 324 497 498
3 31 399 398
3 363 97 296
3 499 218 203
3 12 345 9
3 7 467 404
3 303 268 243
3 86 283 87
3 321 406 122
3 354 476 315
3 500 441 440
3 501 502 480
3 503 504 505
3 78 211 213
3 506 305 304
3 507 508 209
3 360 509 342
3 510 153 511
3 39 46 62
3 157 426 512
3 513 514 270
3 131 280 139
3 511 378 510
3 265 262 244
3 314 350 312
3 400 267 310
3 227 424 448
3 515 188 187
3 349 30 34
3 261 328 137
3 516 517 300
3 518 262 264
3 519 325 520
3 301 339 384
3 411 40 39
3 410 440 222
3 393 58 486
3 255 390 161
3 212 220 68
3 208 198 521
3 413 438 492
3 522 238 460
3 118 124 119
3 364 101 416
3 66 458 469
3 523 154 195
3 495 274 456
3 524 91 236
3 507 209 423
3 356 29 49
3 3 281 8
3 525 23 50
3 154 422 195
3 230 462 384
3 475 505 504
3 258 166 256
3 526 527 437
3 30 35 34
3 51 45 50
3 126 123 445
3 509 392 374
3 358 528 313
3 529 57 56
3 311 478 477
3 393 86 428
3 530 266 186
3 418 185 409
3 48 205 303
3 77 215 78
3 161 253 255
3 451 377 133
3 156 160 531
3 344 413 492
3 245 273 246
3 461 83 268
3 181 291 532
3 533 352 354
3 414 464 415
3 465 534 535
3 228 140 455
3 359 392 135
3 437 536 318
3 221 534 54
3 222 319 223
3 225 340 226
3 90 537 228
3 229 463 230
3 232 516 233
3 74 75 14
3 97 524 236
3 237 459 238
3 238 538 239
3 190 513 240
3 241 539 242
3 244 299 245
3 162 161 182
3 247 300 248
3 250 412 251
3 253 540 254
3 256 377 257
3 87 439 103
3 259 446 260
3 262 266 263
3 265 187 186
3 183 541 267
3 241 243 268
3 269 335 270
3 271 485 269
3 272 514 273
3 275 438 276
3 278 540 253
3 279 139 280
3 176 179 178
3 1 8 281
3 529 284 283
3 439 87 284
3 216 215 285
3 287 450 288
3 290 532 291
3 539 241 94
3 72 73 94
3 25 47 293
3 105 305 294
3 295 52 296
3 298 531 245
3 164 183 185
3 300 493 301
3 302 431 303
3 305 333 302
3 306 319 307
3 309 401 310
3 311 542 309
3 312 86 313
3 315 395 117
3 150 149 279
3 316 476 279
3 317 129 128
3 306 543 223
3 127 533 320
3 322 544 323
3 324 498 322
3 325 128 130
3 327 545 328
3 37 36 329
3 320 101 331
3 235 383 16
3 233 301 332
3 389 334 105
3 333 305 105
3 240 270 335
3 189 338 188
3 337 186 188
3 339 546 226
3 147 410 341
3 342 509 343
3 10 9 345
3 347 80 112
3 112 111 348
3 18 17 473
3 112 348 347
3 18 473 347
3 195 422 193
3 118 120 350
3 349 394 350
3 351 547 308
3 352 451 353
3 107 471 108
3 355 397 115
3 548 113 115
3 108 471 355
3 397 548 115
3 33 394 349
3 244 246 379
3 244 379 511
3 516 232 199
3 199 232 200
3 244 511 152
3 152 154 200
3 200 232 152
3 356 25 24
3 358 102 103
3 80 347 75
3 135 134 253
3 253 163 135
3 360 528 361
3 92 524 363
3 364 416 60
3 142 141 366
3 81 389 368
3 372 434 280
3 280 370 372
3 220 214 216
3 282 5 4
3 4 2 282
3 359 442 373
3 4 7 375
3 375 3 2
3 108 115 114
3 510 378 273
3 514 229 217
3 229 231 202
3 510 273 514
3 204 218 217
3 217 510 514
3 229 202 204
3 19 63 376
3 376 12 19
3 133 377 131
3 256 370 131
3 180 391 324
3 246 273 378
3 110 112 80
3 80 81 369
3 380 464 381
3 63 19 346
3 346 64 63
3 235 14 13
3 384 339 340
3 443 386 385
3 100 396 385
3 122 121 127
3 549 388 225
3 387 202 231
3 231 230 340
3 340 225 387
3 387 231 340
3 389 81 79
3 116 99 101
3 291 324 323
3 180 182 390
3 251 257 377
3 361 407 392
3 343 509 374
3 33 433 393
3 395 380 396
3 295 548 397
3 342 344 398
3 382 385 396
3 400 310 401
3 403 375 7
3 331 101 405
3 135 392 407
3 400 402 408
3 454 455 142
3 142 367 410
3 147 454 142
3 99 117 396
3 36 38 41
3 82 72 241
3 250 445 411
3 292 276 413
3 267 541 414
3 32 31 42
3 56 55 42
3 207 191 194
3 101 100 386
3 326 550 417
3 417 551 325
3 520 325 551
3 166 501 370
3 418 501 166
3 281 375 403
3 328 545 552
3 420 550 326
3 328 552 420
3 330 329 123
3 123 122 406
3 421 553 397
3 197 194 193
3 423 448 424
3 47 29 28
3 299 262 426
3 171 543 306
3 174 447 554
3 554 543 174
3 306 308 178
3 547 555 168
3 168 167 547
3 555 527 168
3 174 543 170
3 178 171 306
3 547 167 175
3 547 175 308
3 170 543 171
3 175 177 308
3 136 145 144
3 394 393 428
3 429 450 287
3 51 48 431
3 431 302 432
3 216 286 69
3 433 33 35
3 150 280 434
3 353 451 133
3 435 466 5
3 317 444 129
3 436 465 138
3 138 130 129
3 129 444 436
3 128 325 437
3 102 313 86
3 438 275 103
3 422 153 218
3 267 415 311
3 281 419 435
3 330 406 405
3 104 368 389
3 351 307 440
3 442 359 163
3 207 196 192
3 400 409 185
3 443 62 61
3 317 318 556
3 556 537 317
3 318 536 556
3 363 444 90
3 90 89 363
3 317 537 90
3 445 123 329
3 329 36 40
3 327 260 557
3 446 554 447
3 447 481 557
3 557 260 447
3 209 208 448
3 558 449 450
3 450 429 558
3 250 252 451
3 345 376 452
3 428 86 312
3 454 553 421
3 365 46 38
3 245 531 456
3 313 484 124
3 73 74 348
3 235 18 74
3 348 95 73
3 432 302 333
3 333 334 432
3 79 71 432
3 360 342 125
3 399 120 125
3 125 342 399
3 65 64 457
3 459 559 460
3 461 525 44
3 323 544 503
3 503 277 323
3 276 292 277
3 58 433 42
3 190 188 515
3 515 462 190
3 463 513 190
3 25 356 22
3 43 82 84
3 395 478 464
3 261 137 138
3 6 5 466
3 60 59 46
3 345 453 468
3 452 376 66
3 470 278 134
3 134 136 470
3 89 355 92
3 471 93 92
3 212 479 472
3 52 397 53
3 454 147 146
3 53 397 553
3 146 221 454
3 553 454 53
3 14 75 347
3 347 473 14
3 432 71 210
3 224 560 474
3 136 407 475
3 416 386 61
3 412 411 382
3 39 62 443
3 443 385 382
3 382 381 412
3 541 183 164
3 381 414 258
3 39 443 411
3 257 251 412
3 411 443 382
3 414 541 258
3 258 257 412
3 541 164 258
3 478 395 476
3 476 316 477
3 395 315 476
3 82 43 70
3 212 68 67
3 370 501 480
3 447 174 173
3 70 43 45
3 330 364 365
3 482 561 189
3 338 189 561
3 240 336 483
3 482 189 240
3 125 124 484
3 484 528 360
3 271 160 159
3 486 58 57
3 168 527 487
3 488 491 489
3 490 158 489
3 468 457 64
3 492 438 439
3 493 300 247
3 271 270 272
3 356 357 27
3 363 296 436
3 328 326 130
3 391 390 496
3 44 525 50
3 324 391 497
3 31 30 399
3 297 296 97
3 363 524 97
3 97 96 297
3 204 203 218
3 499 562 198
3 197 218 499
3 499 198 197
3 12 376 345
3 7 6 467
3 506 304 243
3 205 21 525
3 525 461 303
3 21 20 525
3 303 205 525
3 243 242 506
3 303 461 268
3 243 304 303
3 86 486 283
3 321 331 406
3 354 353 139
3 139 279 354
3 353 132 139
3 320 533 354
3 315 116 320
3 279 476 354
3 315 320 354
3 500 563 441
3 501 418 502
3 358 275 505
3 277 503 505
3 505 275 277
3 472 76 213
3 78 219 211
3 213 76 78
3 506 294 305
3 207 209 196
3 507 564 508
3 508 565 196
3 196 209 508
3 360 362 509
3 152 511 153
3 510 217 153
3 59 62 46
3 39 41 46
3 157 156 426
3 272 270 514
3 513 463 229
3 270 240 513
3 229 514 513
3 131 370 280
3 511 379 378
3 244 232 265
3 265 266 262
3 232 234 265
3 262 299 244
3 314 118 350
3 400 184 267
3 208 549 448
3 225 227 448
3 448 549 225
3 265 234 187
3 332 515 187
3 187 234 332
3 349 120 399
3 399 30 349
3 261 260 328
3 516 199 517
3 517 564 248
3 507 248 564
3 300 233 516
3 517 248 300
3 518 512 426
3 426 262 518
3 519 437 325
3 462 515 384
3 301 493 339
3 515 332 301
3 546 339 493
3 384 515 301
3 493 494 546
3 411 445 40
3 367 366 500
3 440 307 319
3 367 500 440
3 474 341 410
3 410 367 440
3 440 319 222
3 222 474 410
3 393 433 58
3 255 254 496
3 390 182 161
3 255 496 390
3 212 211 220
3 388 549 521
3 208 207 198
3 198 562 521
3 521 549 208
3 413 276 438
3 522 538 238
3 118 314 124
3 364 405 101
3 66 65 458
3 195 196 523
3 523 201 154
3 196 565 523
3 201 200 154
3 495 272 274
3 524 92 91
3 425 249 423
3 248 507 423
3 423 249 248
3 50 23 49
3 22 356 49
3 49 23 22
3 3 375 281
3 525 20 23
3 154 153 422
3 230 463 462
3 504 143 475
3 145 475 143
3 258 164 166
3 566 437 527
3 519 526 437
3 527 555 566
3 526 487 527
3 30 32 35
3 51 210 45
3 445 250 126
3 126 121 123
3 250 352 126
3 509 362 392
3 358 505 475
3 475 407 361
3 528 484 313
3 475 361 528
3 313 102 358
3 358 475 528
3 529 283 57
3 311 415 478
3 464 478 415
3 477 542 311
3 393 486 86
3 337 567 186
3 530 568 266
3 263 266 568
3 186 567 530
3 408 502 418
3 418 165 185
3 409 408 418
3 48 47 25
3 303 431 48
3 48 25 205
3 219 78 215
3 77 285 215
3 215 214 219
3 161 163 253
3 451 252 377
3 531 298 156
3 156 155 158
3 298 426 156
3 495 456 160
3 160 271 495
3 155 489 158
3 160 456 531
3 156 158 160
3 344 343 373
3 442 162 532
3 344 373 442
3 31 398 529
3 529 56 31
3 492 284 529
3 290 413 442
3 162 181 532
3 532 290 442
3 492 529 398
3 344 442 413
3 492 398 344
3 245 274 273
3 461 84 83
3 181 180 291
3 533 127 126
3 126 352 533
3 414 381 464
3 259 261 535
3 465 436 54
3 296 52 54
3 54 534 465
3 535 261 465
3 436 296 54
3 421 355 88
3 88 228 455
3 355 89 88
3 140 142 455
3 455 421 88
3 359 374 392
3 437 566 536
