ply
format ascii 1.0
comment Created by Blender 2.78 (sub 0) - www.blender.org, source file: ''
element vertex 569
property float x
property float y
property float z
property uchar red
property uchar green
property uchar blue
element face 938
property list uchar uint vertex_indices
end_header
2.000000 -1.500000 0.500000 255 255 0
1.500000 -1.000000 0.500000 255 255 0
2.000000 -1.000000 0.000000 255 255 0
2.500000 -1.000000 0.500000 255 255 0
2.000000 1.000000 0.000000 255 255 0
1.500000 1.000000 0.500000 255 255 0
2.000000 1.500000 0.500000 255 255 0
2.500000 1.000000 0.500000 255 255 0
2.000000 -1.000000 1.000000 255 255 0
-2.000000 0.500000 1.500000 255 255 0
-2.500000 1.000000 1.500000 255 255 0
-2.000000 1.000000 1.000000 255 255 0
-1.500000 1.000000 1.500000 255 255 0
1.500000 0.500000 1.000000 0 255 51
1.500000 1.000000 1.500000 0 255 51
1.500000 1.000000 1.000000 0 255 51
2.500000 0.500000 1.000000 0 255 51
2.500000 1.000000 1.000000 0 255 51
2.500000 1.000000 1.500000 0 255 51
-2.000000 1.500000 1.500000 255 255 0
-2.000000 -2.500000 3.500000 0 255 51
-2.500000 -2.000000 3.500000 0 255 51
-2.000000 -2.000000 3.000000 0 255 51
-1.500000 -2.000000 3.500000 0 255 51
-2.500000 0.500000 3.000000 0 255 51
-2.500000 0.000000 3.500000 0 255 51
-2.500000 0.500000 3.500000 0 255 51
-1.500000 0.500000 3.000000 0 255 51
-1.500000 0.500000 3.500000 0 255 51
-1.500000 0.000000 3.500000 0 255 51
-6.000000 -2.500000 4.500000 255 204 102
-6.500000 -2.000000 4.500000 255 204 102
-6.000000 -2.000000 4.000000 255 204 102
-4.500000 -2.000000 4.500000 255 204 102
-5.000000 -2.500000 4.500000 255 204 102
-5.000000 -2.000000 4.000000 255 204 102
5.000000 -2.500000 4.500000 255 204 102
4.500000 -2.000000 4.500000 255 204 102
5.000000 -2.000000 4.000000 255 204 102
6.500000 -2.000000 4.500000 255 204 102
6.000000 -2.500000 4.500000 255 204 102
6.000000 -2.000000 4.000000 255 204 102
-6.000000 -1.000000 4.000000 255 204 102
1.500000 -1.000000 4.500000 0 255 51
1.000000 -1.500000 4.500000 0 255 51
1.000000 -1.000000 4.000000 0 255 51
6.000000 -1.000000 4.000000 255 204 102
-2.000000 0.000000 4.000000 0 255 51
-2.000000 -0.500000 4.500000 0 255 51
-1.500000 -1.000000 3.500000 0 255 51
-1.000000 -1.000000 4.000000 0 255 51
-1.000000 0.000000 4.000000 0 255 51
2.500000 1.000000 8.500000 255 51 51
2.500000 2.000000 9.500000 255 51 51
2.500000 0.000000 9.500000 255 51 51
-6.000000 0.000000 4.000000 255 204 102
-6.500000 0.000000 4.500000 255 204 102
-6.000000 0.500000 4.500000 255 204 102
-5.500000 0.000000 4.500000 255 204 102
6.000000 0.000000 4.000000 255 204 102
5.500000 0.000000 4.500000 255 204 102
6.000000 0.500000 4.500000 255 204 102
6.500000 0.000000 4.500000 255 204 102
-2.000000 1.500000 3.500000 255 255 0
-2.500000 1.000000 3.500000 255 255 0
-2.000000 1.000000 4.000000 255 255 0
-1.500000 1.000000 3.500000 255 255 0
0.500000 -2.500000 21.000000 255 255 102
0.000000 -2.500000 21.500000 255 255 102
-0.500000 -2.500000 21.000000 255 255 102
1.500000 0.000000 4.500000 0 255 51
1.000000 1.000000 5.000000 0 255 51
1.500000 0.000000 5.500000 0 255 51
2.000000 0.500000 5.500000 0 255 51
2.000000 0.500000 4.500000 0 255 51
1.500000 1.000000 4.500000 0 255 51
0.500000 2.500000 21.000000 255 255 102
-0.500000 2.500000 21.000000 255 255 102
0.000000 2.500000 21.500000 255 255 102
1.000000 2.000000 5.000000 0 255 51
1.500000 2.000000 5.500000 0 255 51
1.000000 2.500000 5.500000 0 255 51
1.500000 -1.000000 5.500000 0 255 51
1.000000 -1.000000 6.000000 0 255 51
1.000000 -1.500000 5.500000 0 255 51
-5.000000 1.000000 6.000000 255 204 102
-5.000000 0.000000 6.000000 255 204 102
-6.000000 1.000000 6.000000 255 204 102
-2.500000 2.000000 9.500000 255 51 51
-2.500000 1.000000 8.500000 255 51 51
-2.500000 0.000000 9.500000 255 51 51
-2.500000 0.500000 6.000000 255 51 51
-2.500000 1.000000 6.500000 255 51 51
-2.500000 1.000000 6.000000 255 51 51
1.500000 0.500000 6.000000 0 255 51
2.000000 0.500000 6.000000 0 255 51
1.500000 0.500000 6.000000 255 51 51
1.000000 0.500000 6.500000 255 51 51
1.000000 0.250000 6.250000 255 51 51
5.000000 1.000000 6.000000 255 204 102
6.000000 1.000000 6.000000 255 204 102
5.000000 0.000000 6.000000 255 204 102
-4.500000 1.000000 6.500000 255 204 102
-5.000000 1.500000 6.500000 255 204 102
-1.500000 1.500000 6.000000 0 255 51
-2.000000 1.500000 5.500000 0 255 51
-2.000000 1.500000 6.000000 0 255 51
-1.500000 1.500000 6.000000 255 51 51
-1.000000 1.500000 6.500000 255 51 51
-1.000000 1.750000 6.250000 255 51 51
1.500000 1.500000 6.000000 0 255 51
2.000000 1.500000 6.000000 0 255 51
2.000000 1.500000 5.500000 0 255 51
1.500000 1.500000 6.000000 255 51 51
1.000000 1.750000 6.250000 255 51 51
1.000000 1.500000 6.500000 255 51 51
4.500000 1.000000 6.500000 255 204 102
5.000000 1.500000 6.500000 255 204 102
-3.500000 -2.000000 6.500000 255 204 102
-4.000000 -2.000000 7.000000 255 204 102
-4.000000 -2.500000 6.500000 255 204 102
4.000000 -2.000000 7.000000 255 204 102
3.500000 -2.000000 6.500000 255 204 102
4.000000 -2.500000 6.500000 255 204 102
-4.000000 -1.000000 7.000000 255 204 102
-5.000000 -2.000000 7.000000 255 204 102
5.000000 -2.000000 7.000000 255 204 102
4.000000 -1.000000 7.000000 255 204 102
2.000000 1.500000 6.000000 255 51 51
2.500000 1.000000 6.000000 255 51 51
-1.000000 -1.500000 11.500000 255 51 51
-1.000000 -0.500000 10.500000 255 51 51
0.000000 -0.500000 11.500000 255 51 51
5.000000 -1.000000 11.000000 255 204 102
4.500000 -1.000000 10.500000 255 204 102
5.000000 -1.500000 10.500000 255 204 102
-4.000000 -0.500000 11.500000 255 204 102
-5.000000 -0.500000 11.500000 255 204 102
-4.000000 0.000000 11.000000 255 204 102
1.000000 -1.500000 11.500000 255 51 51
1.000000 -0.500000 10.500000 255 51 51
4.500000 0.000000 10.500000 255 204 102
-3.500000 2.500000 11.000000 255 51 51
-3.250000 3.000000 10.750000 255 51 51
-3.000000 3.000000 11.000000 255 51 51
-3.500000 2.500000 11.000000 255 204 102
-3.750000 2.000000 10.750000 255 204 102
-4.000000 2.000000 11.000000 255 204 102
3.500000 2.500000 11.000000 255 51 51
3.000000 3.000000 11.000000 255 51 51
3.250000 3.000000 10.750000 255 51 51
3.500000 2.500000 11.000000 255 204 102
4.000000 2.000000 11.000000 255 204 102
3.750000 2.000000 10.750000 255 204 102
-2.000000 -2.500000 16.500000 255 204 102
0.000000 -2.500000 16.500000 255 204 102
-1.000000 -2.500000 17.500000 255 204 102
-0.500000 -1.500000 14.000000 255 204 102
-1.000000 -2.000000 14.000000 255 204 102
-1.000000 -1.750000 13.750000 255 204 102
0.500000 -1.500000 14.000000 255 204 102
1.000000 -1.750000 13.750000 255 204 102
1.000000 -2.000000 14.000000 255 204 102
-6.000000 0.000000 14.000000 255 204 102
-6.500000 0.000000 13.500000 255 204 102
-6.000000 -0.500000 13.500000 255 204 102
6.500000 0.000000 13.500000 255 204 102
6.000000 0.000000 14.000000 255 204 102
6.000000 -0.500000 13.500000 255 204 102
-2.500000 0.500000 14.000000 255 51 51
-3.000000 0.000000 14.000000 255 51 51
-2.750000 0.000000 14.250000 255 51 51
2.500000 0.500000 14.000000 255 51 51
1.500000 1.500000 14.000000 255 51 51
1.833330 0.833333 14.333300 255 51 51
2.750000 0.000000 14.250000 255 51 51
3.000000 0.000000 14.000000 255 51 51
-1.500000 1.500000 14.000000 255 51 51
-1.000000 1.750000 14.250000 255 51 51
-1.000000 2.000000 14.000000 255 51 51
1.000000 2.000000 14.000000 255 51 51
1.000000 1.750000 14.250000 255 51 51
-6.000000 2.500000 13.500000 255 204 102
-6.500000 2.000000 13.500000 255 204 102
-6.000000 2.000000 14.000000 255 204 102
6.500000 2.000000 13.500000 255 204 102
6.000000 2.500000 13.500000 255 204 102
6.000000 2.000000 14.000000 255 204 102
-1.000000 1.500000 14.500000 255 204 102
-1.000000 1.500000 15.500000 255 204 102
0.000000 1.500000 14.500000 255 204 102
1.000000 1.500000 14.500000 255 204 102
1.000000 1.500000 15.500000 255 204 102
0.000000 -4.500000 17.500000 255 204 102
-0.500000 -4.000000 17.500000 255 204 102
0.000000 -4.000000 17.000000 255 204 102
0.500000 -4.000000 17.500000 255 204 102
-0.500000 -3.000000 17.500000 255 204 102
-0.500000 -3.000000 18.500000 255 204 102
0.500000 -3.000000 17.500000 255 204 102
0.500000 -3.000000 18.500000 255 204 102
4.000000 -0.500000 13.500000 255 204 102
3.750000 -0.750000 11.500000 255 204 102
4.000000 -0.500000 11.500000 255 204 102
-1.500000 -1.500000 18.000000 255 204 102
-1.500000 -2.000000 17.500000 255 204 102
-1.500000 -2.000000 18.000000 255 204 102
1.500000 -1.500000 18.000000 255 204 102
1.500000 -2.000000 18.000000 255 204 102
1.500000 -2.000000 17.500000 255 204 102
-2.500000 -1.000000 4.500000 0 255 51
-2.500000 -3.000000 14.500000 255 204 102
-1.000000 -4.500000 15.500000 255 204 102
-2.500000 -3.000000 15.500000 255 204 102
-1.833330 0.833333 14.333300 255 51 51
0.000000 -3.500000 18.500000 255 204 102
1.000000 -3.500000 19.500000 255 204 102
-1.000000 -3.500000 19.500000 255 204 102
1.000000 0.000000 4.000000 0 255 51
0.500000 -2.000000 25.500000 255 255 102
0.500000 -2.000000 21.500000 255 255 102
0.500000 2.000000 21.500000 255 255 102
-0.500000 -2.000000 25.500000 255 255 102
-0.500000 2.000000 21.500000 255 255 102
-0.500000 -2.000000 21.500000 255 255 102
2.000000 -2.500000 16.500000 255 204 102
1.000000 -2.500000 17.500000 255 204 102
0.000000 -2.000000 26.000000 255 255 102
0.000000 -2.500000 25.500000 255 255 102
3.750000 0.000000 10.750000 255 51 51
3.750000 2.000000 10.750000 255 51 51
-1.500000 0.000000 4.500000 0 255 51
-1.000000 1.000000 5.000000 0 255 51
-1.500000 -2.000000 18.500000 204 255 255
-0.750000 -2.750000 18.000000 204 255 255
-0.750000 -2.750000 18.500000 204 255 255
0.000000 -0.500000 13.500000 255 51 51
-1.000000 -1.500000 13.500000 255 51 51
-5.500000 -1.000000 4.500000 255 204 102
2.000000 0.500000 8.500000 255 51 51
-2.000000 -0.500000 9.500000 255 51 51
-2.000000 0.500000 8.500000 255 51 51
2.000000 0.500000 1.500000 0 255 51
1.500000 -2.000000 18.000000 204 255 255
0.750000 -2.750000 18.500000 204 255 255
0.750000 -2.750000 18.000000 204 255 255
2.500000 0.000000 0.500000 255 255 0
-1.000000 2.500000 5.500000 0 255 51
0.000000 -3.000000 17.000000 255 204 102
-3.750000 -0.750000 13.500000 255 51 51
-3.000000 -1.500000 11.500000 255 51 51
-3.000000 -1.500000 13.500000 255 51 51
4.000000 -1.000000 6.000000 255 204 102
3.500000 -1.000000 6.500000 255 204 102
-4.000000 2.500000 12.500000 255 204 102
-6.000000 3.500000 11.500000 255 204 102
-6.000000 2.500000 12.500000 255 204 102
3.750000 -0.750000 13.500000 255 51 51
3.000000 -1.500000 11.500000 255 51 51
3.750000 -0.750000 11.500000 255 51 51
2.500000 1.000000 1.000000 255 255 0
-1.500000 2.000000 18.500000 255 204 102
-2.000000 2.500000 17.500000 255 204 102
-2.500000 2.000000 17.500000 255 204 102
1.000000 0.250000 6.250000 0 255 51
-2.000000 0.000000 6.000000 0 255 51
1.000000 0.000000 6.000000 0 255 51
-3.750000 2.750000 13.500000 255 51 51
-3.000000 3.000000 14.000000 255 51 51
-3.000000 3.500000 13.500000 255 51 51
2.500000 2.000000 17.500000 255 204 102
2.500000 0.000000 15.500000 255 204 102
6.000000 -2.500000 6.500000 255 204 102
5.000000 -2.500000 5.500000 255 204 102
2.500000 -3.000000 15.500000 255 204 102
1.000000 -4.500000 14.500000 255 204 102
2.500000 -3.000000 14.500000 255 204 102
4.500000 0.000000 6.500000 255 204 102
-5.000000 1.500000 7.500000 255 204 102
-4.500000 1.000000 7.500000 255 204 102
3.500000 3.500000 11.000000 255 51 51
3.000000 -0.500000 10.500000 255 51 51
-6.500000 3.000000 9.500000 255 204 102
-6.000000 1.500000 7.500000 255 204 102
-6.500000 1.000000 7.500000 255 204 102
-4.000000 2.500000 13.500000 255 204 102
-3.750000 2.750000 12.500000 255 204 102
-1.500000 -1.000000 18.500000 255 204 102
-2.500000 -1.000000 17.500000 255 204 102
-2.500000 1.000000 5.500000 0 255 51
-6.000000 -1.500000 10.500000 255 204 102
-6.000000 -0.500000 11.500000 255 204 102
3.500000 -0.500000 14.000000 255 204 102
3.750000 -0.750000 13.500000 255 204 102
3.000000 3.500000 13.500000 255 51 51
3.750000 2.750000 12.500000 255 51 51
3.000000 3.500000 12.500000 255 51 51
3.000000 -1.000000 14.000000 255 51 51
3.000000 -1.500000 13.500000 255 51 51
-2.000000 0.500000 6.500000 255 51 51
-2.000000 0.250000 6.250000 255 51 51
-2.000000 0.500000 4.000000 255 255 0
-5.000000 -1.500000 9.500000 255 204 102
-6.000000 -0.500000 8.500000 255 204 102
-5.000000 -0.500000 8.500000 255 204 102
2.750000 -1.000000 14.250000 255 51 51
-4.500000 -2.000000 5.500000 255 204 102
2.000000 0.000000 1.000000 255 255 0
2.500000 0.500000 1.000000 255 255 0
2.000000 0.250000 1.250000 255 255 0
3.500000 -0.500000 11.000000 255 204 102
3.750000 0.000000 10.750000 255 204 102
4.000000 0.000000 11.000000 255 204 102
-3.750000 0.000000 10.750000 255 204 102
-4.000000 -1.000000 6.000000 255 204 102
-3.500000 -1.000000 6.500000 255 204 102
-2.000000 1.000000 5.000000 0 255 51
-2.500000 0.000000 5.500000 0 255 51
-3.750000 0.000000 10.750000 255 51 51
2.500000 -1.000000 14.500000 255 204 102
2.750000 0.000000 14.250000 255 204 102
2.500000 0.000000 14.500000 255 204 102
-4.500000 -1.000000 9.500000 255 204 102
2.000000 0.500000 6.000000 255 51 51
-0.750000 -2.000000 21.250000 255 255 102
2.000000 1.500000 4.500000 0 255 51
-3.750000 2.750000 12.500000 255 51 51
-6.500000 -2.000000 6.500000 255 204 102
5.500000 -1.000000 5.500000 255 204 102
4.500000 -2.000000 5.500000 255 204 102
6.500000 2.000000 12.500000 255 204 102
6.500000 3.000000 9.500000 255 204 102
6.000000 3.500000 11.500000 255 204 102
6.500000 3.000000 11.500000 255 204 102
0.750000 -2.000000 21.250000 255 204 102
0.500000 -2.500000 21.000000 255 204 102
1.000000 -2.500000 20.500000 255 204 102
1.500000 2.000000 18.500000 255 204 102
2.000000 2.500000 17.500000 255 204 102
1.000000 2.500000 18.500000 255 204 102
1.500000 -1.500000 19.000000 204 255 255
1.500000 -2.000000 18.500000 204 255 255
1.500000 -1.500000 18.000000 204 255 255
1.500000 -1.500000 19.000000 255 204 102
1.500000 -2.000000 20.500000 255 204 102
1.500000 -2.500000 19.000000 255 204 102
3.833330 2.833330 12.333300 255 204 102
4.000000 2.500000 12.500000 255 204 102
4.000000 3.500000 11.500000 255 204 102
3.250000 3.000000 10.750000 255 204 102
4.500000 3.000000 9.500000 255 204 102
4.500000 2.000000 10.500000 255 204 102
-6.000000 0.500000 5.500000 255 204 102
-6.500000 1.000000 6.500000 255 204 102
3.000000 3.000000 14.000000 255 51 51
3.750000 2.750000 13.500000 255 51 51
-4.000000 3.500000 11.500000 255 204 102
-3.500000 3.500000 11.000000 255 204 102
-5.000000 3.500000 9.500000 255 204 102
2.000000 -3.000000 16.000000 255 204 102
2.500000 -1.000000 17.500000 255 204 102
5.000000 -1.000000 6.000000 255 204 102
5.500000 -1.000000 4.500000 255 204 102
2.000000 -2.000000 14.000000 255 204 102
2.500000 -1.500000 14.000000 255 204 102
-5.500000 0.000000 5.500000 255 204 102
-1.000000 -1.000000 6.000000 0 255 51
-1.500000 -1.000000 5.500000 0 255 51
-2.000000 0.000000 3.000000 0 255 51
-2.500000 -1.750000 13.750000 255 51 51
-1.000000 -1.750000 13.750000 255 51 51
5.000000 -0.500000 8.500000 255 204 102
4.500000 -1.000000 9.500000 255 204 102
4.500000 0.000000 8.500000 255 204 102
1.500000 -1.000000 18.500000 255 204 102
3.000000 2.500000 10.500000 255 51 51
-2.000000 -2.000000 14.000000 255 204 102
-2.000000 -3.000000 14.000000 255 204 102
-2.000000 0.500000 2.500000 255 255 0
-1.500000 0.500000 3.000000 255 255 0
-2.000000 0.250000 2.750000 255 255 0
2.000000 -3.000000 14.000000 255 204 102
6.000000 1.500000 7.500000 255 204 102
6.500000 1.000000 7.500000 255 204 102
-1.500000 2.000000 20.500000 255 204 102
-0.750000 -2.000000 21.250000 255 204 102
-0.750000 2.000000 21.250000 255 204 102
1.000000 2.500000 20.500000 255 204 102
-2.500000 0.500000 3.000000 255 255 0
-2.500000 1.000000 2.500000 255 255 0
-2.000000 0.500000 4.000000 0 255 51
-1.000000 2.500000 20.500000 255 204 102
-0.500000 2.500000 21.000000 255 204 102
6.500000 0.000000 11.500000 255 204 102
6.500000 0.000000 8.500000 255 204 102
4.000000 2.500000 13.500000 255 204 102
3.500000 2.500000 14.000000 255 204 102
4.000000 2.000000 14.000000 255 204 102
4.500000 -1.000000 7.500000 255 204 102
-1.500000 1.000000 2.500000 255 255 0
4.000000 0.000000 14.000000 255 204 102
6.000000 -0.500000 11.500000 255 204 102
6.000000 -1.500000 10.500000 255 204 102
2.000000 2.500000 9.500000 255 51 51
-2.000000 1.500000 8.500000 255 51 51
-2.000000 2.500000 9.500000 255 51 51
2.000000 0.250000 1.250000 0 255 51
6.000000 0.500000 5.500000 255 204 102
5.500000 0.000000 5.500000 255 204 102
2.000000 1.500000 1.000000 255 255 0
-1.000000 -4.000000 14.000000 255 204 102
-1.000000 -4.500000 14.500000 255 204 102
-2.000000 -1.500000 4.500000 0 255 51
-2.500000 0.000000 14.500000 255 204 102
-2.500000 0.000000 15.500000 255 204 102
-4.500000 -1.000000 10.500000 255 204 102
5.000000 -1.500000 9.500000 255 204 102
-6.000000 3.500000 9.500000 255 204 102
-6.500000 3.000000 11.500000 255 204 102
-6.500000 0.000000 11.500000 255 204 102
-6.500000 0.000000 8.500000 255 204 102
-3.833330 2.833330 12.333300 255 204 102
-3.750000 -0.750000 13.500000 255 204 102
-3.750000 -0.750000 11.500000 255 204 102
1.000000 -4.500000 15.500000 255 204 102
-1.000000 -4.000000 16.000000 255 204 102
1.000000 -4.000000 14.000000 255 204 102
-4.500000 0.000000 8.500000 255 204 102
-4.500000 0.000000 6.500000 255 204 102
5.000000 1.500000 7.500000 255 204 102
-3.500000 3.500000 11.000000 255 51 51
-3.000000 3.500000 11.500000 255 51 51
6.500000 -1.000000 10.500000 255 204 102
1.500000 2.000000 20.500000 255 204 102
-1.000000 -1.500000 5.500000 0 255 51
4.000000 -2.000000 6.000000 255 204 102
6.500000 0.000000 5.500000 255 204 102
4.500000 1.000000 7.500000 255 204 102
-5.000000 -2.500000 5.500000 255 204 102
-4.000000 -2.000000 6.000000 255 204 102
6.500000 1.000000 6.500000 255 204 102
1.000000 -1.500000 13.500000 255 51 51
0.500000 -1.500000 14.000000 255 51 51
0.166667 -0.833333 13.666700 255 51 51
-5.000000 -1.000000 6.000000 255 204 102
-1.500000 -1.500000 18.000000 204 255 255
-1.500000 -2.000000 18.000000 204 255 255
0.750000 2.000000 21.250000 255 204 102
0.750000 -2.000000 21.250000 255 255 102
6.000000 -0.500000 8.500000 255 204 102
6.500000 -1.000000 9.500000 255 204 102
6.000000 -1.500000 9.500000 255 204 102
2.000000 1.500000 1.000000 0 255 51
-3.000000 -1.000000 14.000000 255 51 51
6.000000 2.500000 12.500000 255 204 102
-2.750000 -1.000000 14.250000 255 204 102
-2.500000 -1.000000 14.500000 255 204 102
-6.000000 -2.500000 6.500000 255 204 102
6.500000 -2.000000 6.500000 255 204 102
-0.833333 -2.833330 18.666700 255 204 102
-1.500000 -3.000000 19.500000 255 204 102
-1.500000 -2.500000 19.000000 255 204 102
-6.000000 -1.500000 9.500000 255 204 102
-4.000000 2.000000 14.000000 255 204 102
-4.000000 0.000000 14.000000 255 204 102
-3.500000 2.500000 14.000000 255 204 102
-3.750000 2.750000 13.500000 255 204 102
-4.000000 -0.500000 13.500000 255 204 102
-3.500000 -0.500000 14.000000 255 204 102
2.500000 1.000000 6.000000 0 255 51
-3.500000 -0.500000 11.000000 255 204 102
1.500000 0.000000 0.500000 255 255 0
-4.500000 2.000000 10.500000 255 204 102
2.500000 -1.750000 13.750000 255 204 102
-2.500000 0.500000 6.000000 0 255 51
1.000000 1.750000 14.250000 255 204 102
-1.000000 1.750000 14.250000 255 204 102
-5.500000 -1.000000 5.500000 255 204 102
2.500000 -1.750000 13.750000 255 51 51
1.500000 0.500000 1.000000 255 255 0
-1.000000 2.000000 5.000000 0 255 51
-2.500000 -1.500000 14.000000 255 204 102
-2.000000 1.500000 6.000000 255 51 51
-3.000000 -0.500000 10.500000 255 51 51
-2.500000 -1.500000 14.000000 255 51 51
1.000000 1.750000 6.250000 0 255 51
-6.000000 1.500000 6.500000 255 204 102
3.500000 3.500000 12.000000 255 51 51
-6.500000 2.000000 12.500000 255 204 102
1.500000 -2.500000 19.000000 204 255 255
-2.000000 0.000000 5.000000 0 255 51
3.750000 2.750000 13.500000 255 204 102
-6.500000 -1.000000 9.500000 255 204 102
-2.000000 0.250000 2.750000 0 255 51
5.000000 3.500000 9.500000 255 204 102
-6.500000 0.000000 5.500000 255 204 102
-0.750000 -2.750000 18.000000 255 204 102
-6.500000 -1.000000 10.500000 255 204 102
0.000000 2.500000 15.500000 255 204 102
-1.000000 2.500000 18.500000 255 204 102
-3.250000 3.000000 10.750000 255 204 102
-4.500000 3.000000 9.500000 255 204 102
0.750000 -2.750000 18.000000 255 204 102
-0.500000 -2.500000 21.000000 255 204 102
-1.000000 -2.500000 20.500000 255 204 102
0.833333 -2.833330 18.666700 255 204 102
3.500000 3.500000 11.000000 255 204 102
-2.500000 -1.750000 13.750000 255 204 102
-4.500000 -1.000000 7.500000 255 204 102
-1.500000 -2.000000 20.500000 255 204 102
-1.833330 0.833333 14.333300 255 204 102
-1.500000 0.500000 3.500000 255 255 0
-2.000000 -3.000000 16.000000 255 204 102
-3.500000 3.500000 12.000000 255 51 51
-3.000000 3.500000 12.500000 255 51 51
0.166667 -0.833333 13.666700 255 204 102
0.000000 -1.000000 14.000000 255 204 102
0.000000 -0.750000 13.750000 255 204 102
-1.500000 -2.500000 19.000000 204 255 255
-0.833333 -2.833330 18.666700 204 255 255
1.833330 0.833333 14.333300 255 204 102
-0.166667 -0.833333 13.666700 255 204 102
-1.500000 -1.500000 19.000000 255 204 102
-0.166667 -0.833333 13.666700 255 51 51
-3.000000 2.500000 10.500000 255 51 51
3.500000 -0.500000 11.000000 255 51 51
-3.750000 2.000000 10.750000 255 51 51
2.000000 1.500000 8.500000 255 51 51
2.000000 -0.500000 9.500000 255 51 51
-1.000000 1.750000 6.250000 0 255 51
-3.750000 -0.750000 11.500000 255 51 51
-2.000000 0.250000 6.250000 0 255 51
-3.500000 2.500000 14.000000 255 51 51
3.000000 3.500000 11.500000 255 51 51
-2.500000 1.000000 6.000000 0 255 51
-5.000000 -1.500000 10.500000 255 204 102
2.500000 -1.500000 14.000000 255 51 51
3.500000 -0.500000 14.000000 255 51 51
-2.500000 0.500000 3.500000 255 255 0
2.750000 -1.000000 14.250000 255 204 102
-0.750000 2.000000 21.250000 255 255 102
6.000000 3.500000 9.500000 255 204 102
1.500000 -3.000000 19.500000 255 204 102
3.750000 2.750000 12.500000 255 204 102
3.500000 3.500000 12.000000 255 204 102
3.500000 2.500000 14.000000 255 51 51
-3.500000 3.500000 12.000000 255 204 102
1.000000 -4.000000 16.000000 255 204 102
6.000000 1.500000 6.500000 255 204 102
1.500000 1.000000 1.000000 255 255 0
0.750000 2.000000 21.250000 255 255 102
1.000000 -1.750000 13.750000 255 51 51
0.000000 -0.750000 13.750000 255 51 51
-1.500000 -1.500000 19.000000 204 255 255
0.500000 2.500000 21.000000 255 204 102
-3.500000 -0.500000 14.000000 255 51 51
-2.750000 -1.000000 14.250000 255 51 51
-2.750000 0.000000 14.250000 255 204 102
-0.750000 -2.750000 18.500000 255 204 102
-3.500000 -0.500000 11.000000 255 51 51
3.833330 2.833330 12.333300 255 51 51
0.833333 -2.833330 18.666700 204 255 255
0.750000 -2.750000 18.500000 255 204 102
-1.500000 1.500000 14.000000 255 204 102
-2.500000 0.500000 14.000000 255 204 102
-3.833330 2.833330 12.333300 255 51 51
2.500000 0.500000 14.000000 255 204 102
1.500000 1.500000 14.000000 255 204 102
-0.500000 -1.500000 14.000000 255 51 51
3 0 1 2
3 3 0 2
3 4 5 6
3 7 4 6
3 1 0 8
3 8 0 3
3 9 10 11
3 12 9 11
3 13 14 15
3 16 17 18
3 11 10 19
3 12 11 19
3 20 21 22
3 23 20 22
3 24 25 26
3 27 28 29
3 30 31 32
3 33 34 35
3 36 37 38
3 39 40 41
3 32 42 35
3 43 44 45
3 41 38 46
3 47 48 29
3 29 48 49
3 49 48 50
3 50 48 51
3 52 53 54
3 55 56 57
3 58 55 57
3 59 60 61
3 62 59 61
3 63 64 65
3 66 63 65
3 67 68 69
3 70 71 72
3 72 71 73
3 73 71 74
3 71 75 74
3 76 77 78
3 79 80 71
3 80 79 81
3 82 83 84
3 85 86 87
3 88 89 90
3 91 92 93
3 94 73 95
3 96 97 98
3 99 100 101
3 102 85 103
3 104 105 106
3 107 108 109
3 110 111 112
3 113 114 115
3 99 116 117
3 118 119 120
3 121 122 123
3 119 124 125
3 121 126 127
3 128 52 129
3 130 131 132
3 133 134 135
3 136 137 138
3 139 132 140
3 134 133 141
3 142 143 144
3 145 146 147
3 148 149 150
3 151 152 153
3 154 155 156
3 157 158 159
3 160 161 162
3 163 164 165
3 166 167 168
3 169 170 171
3 172 173 174
3 172 175 176
3 177 178 179
3 173 180 181
3 182 183 184
3 185 186 187
3 188 189 190
3 191 190 192
3 193 194 195
3 196 193 195
3 197 194 198
3 199 200 196
3 201 202 203
3 204 205 206
3 207 208 209
3 210 25 21
3 211 212 213
3 177 169 214
3 215 216 217
3 218 71 70
3 219 220 221
3 222 223 224
3 225 226 155
3 227 222 228
3 219 227 228
3 163 183 164
3 229 53 230
3 231 232 51
3 233 234 235
3 130 236 237
3 238 55 58
3 239 240 241
3 75 242 74
3 243 244 245
3 4 246 2
3 104 247 105
3 196 248 199
3 249 250 251
3 252 122 253
3 254 255 256
3 257 258 259
3 6 260 7
3 261 262 263
3 264 265 266
3 267 268 269
3 270 271 192
3 272 273 40
3 274 275 276
3 99 277 116
3 102 278 279
3 149 280 150
3 139 281 258
3 282 283 284
3 285 286 254
3 287 263 288
3 289 106 105
3 290 137 291
3 201 292 293
3 294 295 296
3 257 297 298
3 219 68 220
3 43 72 82
3 299 91 300
3 64 301 65
3 302 303 304
3 176 305 297
3 299 98 97
3 248 194 197
3 154 288 213
3 306 34 33
3 156 248 197
3 307 308 309
3 310 311 312
3 224 69 68
3 147 313 138
3 118 314 315
3 316 317 289
3 115 109 108
3 318 88 90
3 319 320 321
3 304 322 302
3 52 323 129
3 223 324 224
3 325 71 80
3 269 326 267
3 30 327 31
3 328 37 329
3 330 186 185
3 277 252 253
3 331 332 333
3 334 335 336
3 337 338 339
3 340 341 342
3 121 253 122
3 343 344 345
3 346 347 348
3 349 350 351
3 43 218 70
3 87 352 353
3 354 355 294
3 248 226 199
3 356 357 358
3 225 155 359
3 225 360 209
3 329 361 328
3 117 100 99
3 362 38 37
3 203 141 133
3 41 46 39
3 363 364 319
3 58 352 365
3 366 265 367
3 289 105 316
3 72 73 94
3 49 22 368
3 369 237 370
3 294 268 354
3 59 362 60
3 371 372 373
3 270 374 360
3 375 144 149
3 211 376 377
3 378 379 380
3 363 276 381
3 382 331 383
3 86 352 87
3 384 385 386
3 387 337 339
3 378 388 389
3 29 390 47
3 266 366 83
3 391 386 392
3 331 393 394
3 395 396 397
3 371 373 398
3 63 399 19
3 201 167 400
3 401 133 402
3 403 404 405
3 242 13 406
3 407 60 408
3 5 409 6
3 410 275 411
3 19 389 63
3 412 23 50
3 189 413 414
3 415 302 322
3 368 27 29
3 137 415 138
3 215 194 193
3 165 291 137
3 416 134 372
3 399 9 12
3 417 418 255
3 185 167 166
3 419 282 420
3 400 187 397
3 421 356 254
3 71 51 232
3 422 136 423
3 424 425 212
3 276 426 381
3 279 427 428
3 382 117 429
3 274 319 271
3 144 430 431
3 401 432 393
3 222 68 228
3 433 334 344
3 84 366 434
3 123 122 435
3 62 407 436
3 237 250 130
3 218 50 51
3 299 89 92
3 429 116 437
3 101 407 408
3 30 34 438
3 428 124 315
3 120 306 439
3 246 8 3
3 47 26 25
3 181 179 178
3 368 21 25
3 78 219 221
3 440 382 383
3 441 442 443
3 215 196 200
3 306 444 439
3 445 446 233
3 387 447 433
3 268 179 180
3 448 221 220
3 56 55 42
3 36 329 37
3 449 450 451
3 452 14 325
3 453 171 170
3 332 347 454
3 32 34 30
3 291 164 419
3 418 256 255
3 127 277 253
3 44 50 45
3 413 455 456
3 303 327 457
3 449 458 394
3 315 119 118
3 459 460 461
3 302 290 462
3 388 64 389
3 463 163 464
3 48 210 367
3 285 465 466
3 467 468 464
3 238 306 33
3 454 333 332
3 271 191 192
3 312 153 152
3 391 261 384
3 325 469 18
3 73 74 469
3 238 35 42
3 470 136 138
3 184 285 182
3 397 186 395
3 72 83 82
3 2 471 4
3 138 472 147
3 363 161 473
3 285 256 182
3 474 289 317
3 475 476 190
3 275 212 411
3 451 135 416
3 298 139 258
3 238 365 477
3 478 441 298
3 307 479 471
3 283 353 284
3 272 39 458
3 81 480 247
3 428 85 102
3 434 44 84
3 404 115 108
3 481 456 455
3 444 314 439
3 82 44 43
3 404 482 92
3 166 401 393
3 141 152 351
3 483 318 90
3 201 401 168
3 484 453 251
3 410 211 377
3 220 67 448
3 361 408 328
3 110 80 485
3 486 85 87
3 252 361 435
3 408 362 328
3 158 162 426
3 295 487 296
3 182 488 183
3 100 440 407
3 242 16 18
3 489 244 341
3 490 367 317
3 347 491 395
3 314 428 315
3 8 471 1
3 303 492 420
3 278 486 283
3 368 24 493
3 241 299 97
3 451 371 449
3 494 382 429
3 38 40 36
3 352 56 495
3 432 451 450
3 197 496 156
3 462 497 492
3 339 498 499
3 357 500 501
3 502 226 208
3 336 503 504
3 505 216 200
3 165 464 163
3 216 504 217
3 472 500 145
3 479 5 471
3 350 506 494
3 375 230 53
3 131 240 140
3 159 376 507
3 508 304 125
3 272 126 123
3 498 190 189
3 120 119 125
3 504 385 509
3 77 223 78
3 480 71 232
3 365 444 477
3 291 497 290
3 9 389 10
3 186 347 395
3 510 413 188
3 236 139 441
3 379 66 511
3 308 7 260
3 348 494 506
3 277 373 437
3 288 414 456
3 425 359 512
3 513 326 514
3 515 516 517
3 518 235 519
3 131 250 483
3 520 191 321
3 521 516 157
3 522 384 287
3 523 237 236
3 403 524 375
3 296 431 514
3 283 358 278
3 281 229 525
3 524 526 142
3 65 511 66
3 247 485 81
3 128 527 52
3 201 293 202
3 211 411 212
3 163 184 183
3 229 54 53
3 231 490 232
3 51 48 231
3 233 446 234
3 130 132 236
3 238 42 55
3 239 528 240
3 75 14 242
3 243 341 244
3 3 2 246
3 4 7 246
3 104 529 247
3 196 195 248
3 249 530 250
3 252 435 122
3 254 356 255
3 257 298 258
3 6 409 260
3 261 499 262
3 264 531 265
3 267 532 268
3 190 498 192
3 338 270 192
3 192 498 338
3 272 123 273
3 273 36 40
3 274 424 275
3 99 101 277
3 102 103 278
3 149 533 280
3 139 140 281
3 282 417 283
3 285 466 286
3 287 261 263
3 289 534 106
3 290 535 137
3 201 400 292
3 294 355 295
3 478 298 536
3 257 537 297
3 297 305 536
3 536 298 297
3 219 228 68
3 43 70 72
3 299 92 91
3 64 538 301
3 302 462 303
3 176 175 305
3 299 300 98
3 248 195 194
3 154 156 205
3 204 287 288
3 154 205 288
3 212 425 512
3 205 204 288
3 213 212 512
3 512 154 213
3 306 438 34
3 156 155 248
3 307 246 308
3 312 203 310
3 202 310 203
3 224 324 69
3 147 146 313
3 118 439 314
3 316 490 317
3 115 114 109
3 318 526 88
3 319 539 320
3 304 427 322
3 52 239 323
3 223 540 324
3 325 75 71
3 269 514 326
3 30 457 327
3 328 362 37
3 330 454 186
3 277 101 252
3 331 541 332
3 216 542 336
3 344 334 336
3 336 542 344
3 337 270 338
3 340 489 341
3 341 243 342
3 121 127 253
3 343 207 374
3 374 337 433
3 433 344 343
3 542 345 344
3 343 374 433
3 346 543 347
3 348 544 346
3 351 152 151
3 151 349 351
3 43 45 218
3 495 353 352
3 486 87 353
3 354 545 355
3 248 155 226
3 358 417 255
3 356 546 357
3 358 255 356
3 512 359 155
3 155 154 512
3 359 547 424
3 274 360 225
3 360 374 207
3 359 424 274
3 209 226 225
3 225 359 274
3 360 207 209
3 329 435 361
3 117 548 100
3 362 46 38
3 203 312 141
3 62 39 46
3 46 59 62
3 363 473 364
3 364 539 319
3 58 57 352
3 210 21 412
3 412 434 367
3 21 20 412
3 474 317 265
3 367 210 412
3 265 531 474
3 367 434 366
3 265 317 367
3 480 316 105
3 105 247 480
3 94 264 266
3 266 72 94
3 49 50 23
3 23 22 49
3 368 29 49
3 369 251 237
3 294 269 268
3 59 46 362
3 371 416 372
3 270 337 374
3 533 149 144
3 375 524 144
3 144 431 533
3 211 456 376
3 378 399 379
3 363 319 276
3 382 541 331
3 86 365 352
3 384 509 385
3 387 433 337
3 378 380 388
3 29 28 390
3 266 265 366
3 391 384 386
3 394 458 383
3 39 62 436
3 436 440 383
3 383 331 394
3 330 185 166
3 331 333 393
3 39 436 458
3 432 450 394
3 458 436 383
3 333 330 393
3 393 432 394
3 330 166 393
3 395 491 396
3 126 371 398
3 398 127 126
3 12 19 399
3 63 66 399
3 201 168 167
3 135 402 133
3 401 203 133
3 403 527 404
3 242 14 13
3 407 61 60
3 5 549 409
3 410 426 275
3 64 63 389
3 19 10 389
3 412 20 23
3 189 188 413
3 415 535 302
3 368 493 27
3 137 535 415
3 215 198 194
3 137 136 467
3 467 165 137
3 416 135 134
3 399 378 9
3 417 282 418
3 185 187 167
3 56 31 495
3 420 492 497
3 495 31 327
3 284 353 495
3 418 282 419
3 164 183 488
3 488 418 419
3 284 495 327
3 420 497 419
3 284 327 420
3 164 488 419
3 284 420 282
3 396 292 400
3 400 167 187
3 397 396 400
3 421 546 356
3 254 286 421
3 71 218 51
3 422 467 136
3 424 547 425
3 276 275 426
3 279 501 472
3 472 415 322
3 427 508 428
3 472 322 427
3 428 102 279
3 279 472 427
3 382 548 117
3 270 360 271
3 274 276 319
3 319 321 271
3 271 360 274
3 144 143 430
3 401 402 432
3 222 224 68
3 433 447 334
3 84 83 366
3 435 329 273
3 273 123 435
3 62 61 407
3 237 251 250
3 218 45 50
3 299 241 89
3 429 117 116
3 101 100 407
3 457 30 438
3 438 120 457
3 428 508 124
3 439 118 120
3 120 438 306
3 246 307 8
3 47 390 26
3 181 180 179
3 368 22 21
3 550 76 221
3 78 227 219
3 221 76 78
3 440 548 382
3 236 441 443
3 551 442 441
3 443 552 236
3 215 193 196
3 306 477 444
3 553 445 233
3 233 518 553
3 387 554 447
3 173 545 354
3 176 297 537
3 537 545 176
3 354 268 180
3 532 555 170
3 170 169 532
3 555 453 170
3 176 545 172
3 180 173 354
3 532 169 177
3 532 177 268
3 172 545 173
3 177 179 268
3 448 550 221
3 42 32 31
3 31 56 42
3 36 273 329
3 449 394 450
3 75 325 14
3 452 15 14
3 453 556 171
3 332 348 347
3 32 35 34
3 291 165 164
3 418 488 256
3 127 398 277
3 44 412 50
3 413 557 455
3 303 420 327
3 449 272 458
3 315 124 119
3 459 558 198
3 198 215 217
3 217 460 459
3 459 198 217
3 302 535 290
3 388 538 64
3 468 465 463
3 463 184 163
3 464 468 463
3 48 47 25
3 367 231 48
3 48 25 210
3 285 463 465
3 467 422 468
3 238 477 306
3 454 330 333
3 271 321 191
3 312 311 153
3 391 499 261
3 325 80 112
3 112 111 469
3 18 17 452
3 112 469 325
3 18 452 325
3 18 469 74
3 95 73 469
3 74 242 18
3 238 33 35
3 138 313 470
3 470 423 136
3 184 463 285
3 397 187 186
3 72 266 83
3 5 4 471
3 2 1 471
3 138 415 472
3 363 162 161
3 285 254 256
3 474 534 289
3 188 190 476
3 191 475 190
3 275 424 212
3 451 402 135
3 298 441 139
3 238 58 365
3 478 551 441
3 307 309 479
3 283 486 353
3 272 40 39
3 81 79 480
3 428 86 85
3 434 412 44
3 107 482 108
3 404 527 115
3 128 113 115
3 108 482 404
3 527 128 115
3 481 507 376
3 376 456 481
3 444 86 314
3 82 84 44
3 93 92 482
3 89 404 92
3 166 168 401
3 141 312 152
3 89 241 90
3 483 250 559
3 90 241 240
3 559 318 483
3 250 530 559
3 90 240 483
3 201 203 401
3 249 251 453
3 369 484 251
3 453 555 249
3 484 556 453
3 410 411 211
3 220 68 67
3 361 101 408
3 81 485 80
3 110 112 80
3 486 103 85
3 252 101 361
3 408 60 362
3 426 410 158
3 377 376 158
3 157 516 160
3 410 377 158
3 158 157 160
3 162 363 381
3 158 160 162
3 381 426 162
3 295 560 487
3 182 256 488
3 436 407 440
3 100 548 440
3 242 406 16
3 489 561 244
3 490 231 367
3 347 543 491
3 314 86 428
3 8 307 471
3 303 462 492
3 278 103 486
3 368 25 24
3 96 323 97
3 239 241 97
3 97 323 239
3 451 416 371
3 494 541 382
3 38 41 40
3 352 57 56
3 432 402 451
3 205 156 206
3 197 198 496
3 496 206 156
3 198 558 496
3 462 290 497
3 391 392 554
3 554 387 391
3 339 338 498
3 498 262 499
3 499 391 387
3 387 339 499
3 279 278 501
3 358 357 501
3 501 278 358
3 209 208 226
3 502 562 200
3 199 226 502
3 502 200 199
3 336 335 503
3 200 562 505
3 505 345 542
3 542 216 505
3 215 200 216
3 165 467 464
3 216 336 504
3 145 147 472
3 472 501 500
3 479 549 5
3 494 429 350
3 350 349 506
3 429 437 350
3 52 527 53
3 375 149 148
3 53 527 403
3 148 230 375
3 403 375 53
3 131 483 240
3 240 528 140
3 140 132 131
3 528 281 140
3 159 158 376
3 508 427 304
3 125 124 508
3 272 449 126
3 126 121 123
3 449 371 126
3 414 263 189
3 262 498 189
3 189 263 262
3 304 303 125
3 457 120 125
3 125 303 457
3 509 460 504
3 504 503 385
3 460 217 504
3 227 78 223
3 77 540 223
3 223 222 227
3 490 316 232
3 480 79 71
3 232 316 480
3 365 86 444
3 291 419 497
3 9 378 389
3 186 454 347
3 476 563 188
3 510 564 413
3 557 413 564
3 188 563 510
3 236 132 139
3 379 399 66
3 308 246 7
3 348 332 494
3 541 494 332
3 506 544 348
3 141 351 373
3 437 116 277
3 351 350 373
3 372 134 141
3 277 398 373
3 373 372 141
3 350 437 373
3 211 213 456
3 288 263 414
3 414 413 456
3 456 213 288
3 425 547 359
3 513 565 326
3 515 160 516
3 518 233 235
3 131 130 250
3 320 566 321
3 520 567 191
3 475 191 567
3 321 566 520
3 521 517 516
3 522 461 509
3 460 509 461
3 384 261 287
3 287 204 522
3 522 509 384
3 523 568 237
3 370 237 568
3 236 552 523
3 403 405 524
3 296 487 533
3 487 280 533
3 269 294 296
3 430 513 431
3 514 269 296
3 296 533 431
3 431 513 514
3 283 417 358
3 259 258 525
3 281 528 54
3 239 52 54
3 54 229 281
3 525 258 281
3 528 239 54
3 524 405 88
3 404 89 88
3 88 526 524
3 142 144 524
3 405 404 88
3 65 301 511
3 247 529 485
