ply
format ascii 1.0
comment Created by Blender 2.78 (sub 0) - www.blender.org, source file: ''
element vertex 571
property float x
property float y
property float z
property uchar red
property uchar green
property uchar blue
element face 932
property list uchar uint vertex_indices
end_header
2.000000 2.500000 0.500000 255 255 0
1.500000 3.000000 0.500000 255 255 0
2.000000 3.000000 0.000000 255 255 0
2.500000 3.000000 0.500000 255 255 0
1.000000 1.000000 5.000000 0 255 51
1.500000 0.000000 4.500000 0 255 51
1.000000 0.000000 4.000000 0 255 51
2.000000 5.500000 2.500000 255 255 0
1.500000 5.000000 2.500000 255 255 0
2.000000 5.000000 3.000000 255 255 0
2.500000 5.000000 2.500000 255 255 0
-2.000000 -4.000000 4.000000 255 255 0
-2.500000 -4.000000 3.500000 255 255 0
-2.000000 -4.500000 3.500000 255 255 0
-1.500000 -4.000000 3.500000 255 255 0
5.000000 -4.500000 4.500000 255 204 102
4.500000 -4.000000 4.500000 255 204 102
5.000000 -4.000000 4.000000 255 204 102
6.500000 -4.000000 4.500000 255 204 102
6.000000 -4.500000 4.500000 255 204 102
6.000000 -4.000000 4.000000 255 204 102
6.000000 -3.000000 4.000000 255 204 102
1.500000 -1.000000 4.500000 0 255 51
1.000000 -1.500000 4.500000 0 255 51
1.000000 -1.000000 4.000000 0 255 51
6.000000 -2.000000 4.000000 255 204 102
5.500000 -2.000000 4.500000 255 204 102
6.000000 -1.500000 4.500000 255 204 102
6.500000 -2.000000 4.500000 255 204 102
-1.000000 -1.000000 4.000000 0 255 51
-2.000000 -0.500000 4.500000 0 255 51
-1.000000 0.000000 4.000000 0 255 51
-1.500000 0.000000 3.500000 0 255 51
-1.500000 -1.000000 3.500000 0 255 51
-6.000000 1.500000 4.500000 255 204 102
-6.500000 2.000000 4.500000 255 204 102
-6.000000 2.000000 4.000000 255 204 102
-4.500000 2.000000 4.500000 255 204 102
-5.000000 1.500000 4.500000 255 204 102
-5.000000 2.000000 4.000000 255 204 102
-6.000000 3.000000 4.000000 255 204 102
-6.000000 4.000000 4.000000 255 204 102
-6.500000 4.000000 4.500000 255 204 102
-6.000000 4.500000 4.500000 255 204 102
-5.500000 4.000000 4.500000 255 204 102
2.500000 1.000000 8.500000 255 51 51
2.500000 2.000000 9.500000 255 51 51
2.500000 0.000000 9.500000 255 51 51
-1.500000 -1.000000 5.500000 0 255 51
-1.500000 0.000000 5.500000 0 255 51
-1.500000 -1.000000 4.500000 0 255 51
1.500000 0.000000 5.500000 0 255 51
2.000000 0.500000 5.500000 0 255 51
2.000000 0.500000 4.500000 0 255 51
-1.000000 2.000000 5.000000 0 255 51
-1.000000 1.000000 5.000000 0 255 51
-1.500000 2.000000 5.500000 0 255 51
1.500000 2.000000 4.500000 0 255 51
1.500000 1.000000 4.500000 0 255 51
2.000000 1.500000 5.500000 0 255 51
1.000000 2.000000 5.000000 0 255 51
-1.000000 2.500000 5.500000 0 255 51
-1.000000 -1.000000 6.000000 0 255 51
-1.000000 -1.500000 5.500000 0 255 51
1.500000 -1.000000 5.500000 0 255 51
1.000000 -1.000000 6.000000 0 255 51
1.000000 -1.500000 5.500000 0 255 51
4.000000 -1.000000 6.000000 255 204 102
3.500000 -1.000000 6.500000 255 204 102
4.000000 -0.500000 6.500000 255 204 102
-3.500000 1.000000 6.500000 255 204 102
-4.000000 0.500000 6.500000 255 204 102
-4.000000 1.000000 6.000000 255 204 102
-1.500000 0.500000 6.000000 0 255 51
-2.000000 0.500000 6.000000 0 255 51
-2.000000 0.500000 5.500000 0 255 51
-1.500000 0.500000 6.000000 255 51 51
-1.000000 0.250000 6.250000 255 51 51
-1.000000 0.500000 6.500000 255 51 51
1.500000 0.500000 6.000000 0 255 51
2.000000 0.500000 6.000000 0 255 51
1.500000 0.500000 6.000000 255 51 51
1.000000 0.500000 6.500000 255 51 51
1.000000 0.250000 6.250000 255 51 51
-1.500000 1.500000 6.000000 0 255 51
-2.000000 1.500000 5.500000 0 255 51
-2.000000 1.500000 6.000000 0 255 51
-1.500000 1.500000 6.000000 255 51 51
-1.000000 1.500000 6.500000 255 51 51
-1.000000 1.750000 6.250000 255 51 51
1.500000 1.500000 6.000000 0 255 51
2.000000 1.500000 6.000000 0 255 51
1.500000 1.500000 6.000000 255 51 51
1.000000 1.750000 6.250000 255 51 51
1.000000 1.500000 6.500000 255 51 51
-6.000000 4.500000 6.500000 255 204 102
-5.000000 4.500000 6.500000 255 204 102
-6.000000 4.500000 5.500000 255 204 102
4.000000 -4.000000 7.000000 255 204 102
3.500000 -4.000000 6.500000 255 204 102
4.000000 -4.500000 6.500000 255 204 102
4.500000 -3.000000 7.500000 255 204 102
4.500000 -3.000000 6.500000 255 204 102
5.000000 -3.500000 7.500000 255 204 102
4.500000 -1.000000 7.500000 255 204 102
4.500000 -2.000000 6.500000 255 204 102
-4.000000 1.000000 7.000000 255 204 102
-4.500000 1.000000 6.500000 255 204 102
-5.000000 1.500000 6.500000 255 204 102
-5.000000 1.500000 7.500000 255 204 102
-4.000000 2.000000 7.000000 255 204 102
-1.000000 -1.500000 11.500000 255 51 51
-1.000000 -0.500000 10.500000 255 51 51
0.000000 -0.500000 11.500000 255 51 51
0.500000 2.500000 21.000000 255 255 102
-0.500000 2.500000 21.000000 255 255 102
0.000000 2.500000 21.500000 255 255 102
0.000000 -3.500000 18.500000 255 204 102
1.000000 -3.500000 19.500000 255 204 102
-1.000000 -3.500000 19.500000 255 204 102
4.500000 2.000000 9.500000 255 204 102
4.500000 2.000000 10.500000 255 204 102
5.000000 2.500000 9.500000 255 204 102
1.000000 -0.500000 10.500000 255 51 51
1.000000 -1.500000 11.500000 255 51 51
5.000000 -1.000000 11.000000 255 204 102
4.500000 -1.000000 10.500000 255 204 102
5.000000 -1.500000 10.500000 255 204 102
4.500000 0.000000 10.500000 255 204 102
-3.500000 2.500000 11.000000 255 51 51
-3.250000 3.000000 10.750000 255 51 51
-3.000000 3.000000 11.000000 255 51 51
-3.500000 2.500000 11.000000 255 204 102
-3.750000 2.000000 10.750000 255 204 102
-4.000000 2.000000 11.000000 255 204 102
3.500000 2.500000 11.000000 255 51 51
3.000000 3.000000 11.000000 255 51 51
3.250000 3.000000 10.750000 255 51 51
3.500000 2.500000 11.000000 255 204 102
4.000000 2.000000 11.000000 255 204 102
3.750000 2.000000 10.750000 255 204 102
-0.500000 2.000000 21.500000 255 255 102
-0.500000 -2.000000 21.500000 255 255 102
-0.500000 -2.000000 25.500000 255 255 102
-2.000000 -2.500000 16.500000 255 204 102
0.000000 -2.500000 16.500000 255 204 102
-1.000000 -2.500000 17.500000 255 204 102
2.000000 -2.500000 16.500000 255 204 102
1.000000 -2.500000 17.500000 255 204 102
-0.500000 -1.500000 14.000000 255 204 102
-1.000000 -2.000000 14.000000 255 204 102
-1.000000 -1.750000 13.750000 255 204 102
0.500000 -1.500000 14.000000 255 204 102
1.000000 -1.750000 13.750000 255 204 102
1.000000 -2.000000 14.000000 255 204 102
-6.000000 0.000000 14.000000 255 204 102
-6.500000 0.000000 13.500000 255 204 102
-6.000000 -0.500000 13.500000 255 204 102
0.500000 -2.500000 21.000000 255 255 102
0.000000 -2.500000 21.500000 255 255 102
-0.500000 -2.500000 21.000000 255 255 102
6.500000 0.000000 13.500000 255 204 102
6.000000 0.000000 14.000000 255 204 102
6.000000 -0.500000 13.500000 255 204 102
-2.500000 0.500000 14.000000 255 51 51
-3.000000 0.000000 14.000000 255 51 51
-2.750000 0.000000 14.250000 255 51 51
-1.500000 1.500000 14.000000 255 51 51
-1.833330 0.833333 14.333300 255 51 51
2.500000 0.500000 14.000000 255 51 51
2.750000 0.000000 14.250000 255 51 51
3.000000 0.000000 14.000000 255 51 51
1.500000 1.500000 14.000000 255 51 51
1.833330 0.833333 14.333300 255 51 51
-1.000000 1.750000 14.250000 255 51 51
-1.000000 2.000000 14.000000 255 51 51
1.000000 2.000000 14.000000 255 51 51
1.000000 1.750000 14.250000 255 51 51
-6.000000 2.500000 13.500000 255 204 102
-6.500000 2.000000 13.500000 255 204 102
-6.000000 2.000000 14.000000 255 204 102
6.000000 -1.000000 6.000000 255 204 102
5.000000 -2.000000 6.000000 255 204 102
6.500000 2.000000 13.500000 255 204 102
6.000000 2.500000 13.500000 255 204 102
6.000000 2.000000 14.000000 255 204 102
-1.000000 1.500000 14.500000 255 204 102
-1.000000 1.500000 15.500000 255 204 102
0.000000 1.500000 14.500000 255 204 102
1.000000 1.500000 14.500000 255 204 102
1.000000 1.500000 15.500000 255 204 102
0.000000 -4.500000 17.500000 255 204 102
-0.500000 -4.000000 17.500000 255 204 102
0.000000 -4.000000 17.000000 255 204 102
0.500000 -4.000000 17.500000 255 204 102
-0.500000 -3.000000 17.500000 255 204 102
-0.500000 -3.000000 18.500000 255 204 102
0.500000 -3.000000 17.500000 255 204 102
0.500000 -3.000000 18.500000 255 204 102
1.000000 2.500000 5.500000 0 255 51
-1.500000 -1.500000 18.000000 255 204 102
-1.500000 -2.000000 17.500000 255 204 102
-1.500000 -2.000000 18.000000 255 204 102
1.500000 -1.500000 18.000000 255 204 102
1.500000 -2.000000 18.000000 255 204 102
1.500000 -2.000000 17.500000 255 204 102
0.500000 -2.000000 25.500000 255 255 102
0.500000 -2.000000 21.500000 255 255 102
0.500000 2.000000 21.500000 255 255 102
-2.500000 2.000000 9.500000 255 51 51
-2.500000 1.000000 8.500000 255 51 51
-2.500000 0.000000 9.500000 255 51 51
0.000000 -2.000000 26.000000 255 255 102
0.000000 -2.500000 25.500000 255 255 102
0.750000 -2.750000 18.000000 204 255 255
1.500000 -2.000000 18.500000 204 255 255
0.750000 -2.750000 18.500000 204 255 255
-4.500000 2.000000 5.500000 255 204 102
-4.500000 3.000000 6.500000 255 204 102
-3.500000 2.000000 6.500000 255 204 102
3.750000 0.000000 10.750000 255 51 51
3.750000 2.000000 10.750000 255 51 51
-0.750000 -2.750000 18.500000 204 255 255
-1.500000 -2.000000 18.000000 204 255 255
-0.750000 -2.750000 18.000000 204 255 255
2.000000 4.000000 3.000000 0 255 51
-6.000000 2.500000 12.500000 255 204 102
-6.500000 2.000000 12.500000 255 204 102
1.500000 2.000000 20.500000 255 204 102
0.750000 -2.000000 21.250000 255 204 102
1.500000 -2.000000 20.500000 255 204 102
3.000000 -0.500000 10.500000 255 51 51
3.000000 -1.500000 11.500000 255 51 51
6.000000 -1.500000 5.500000 255 204 102
6.500000 -1.000000 6.500000 255 204 102
2.500000 0.000000 15.500000 255 204 102
2.500000 0.000000 14.500000 255 204 102
-6.000000 3.500000 7.500000 255 204 102
-6.500000 4.000000 6.500000 255 204 102
-6.500000 3.000000 7.500000 255 204 102
-3.833330 2.833330 12.333300 255 204 102
-4.000000 3.500000 11.500000 255 204 102
-4.000000 2.500000 12.500000 255 204 102
-6.000000 1.500000 7.500000 255 204 102
-6.500000 2.000000 7.500000 255 204 102
6.000000 2.500000 12.500000 255 204 102
6.500000 3.000000 11.500000 255 204 102
6.000000 3.500000 11.500000 255 204 102
4.000000 0.000000 11.000000 255 204 102
6.000000 -4.500000 6.500000 255 204 102
5.000000 -4.500000 5.500000 255 204 102
1.000000 -4.500000 14.500000 255 204 102
2.500000 -3.000000 15.500000 255 204 102
1.000000 -4.500000 15.500000 255 204 102
4.000000 3.000000 10.000000 255 204 102
2.000000 1.500000 6.000000 255 51 51
2.000000 1.500000 8.500000 255 51 51
1.000000 2.500000 20.500000 255 204 102
0.750000 2.000000 21.250000 255 204 102
2.000000 5.500000 1.500000 255 255 0
1.500000 5.000000 1.500000 255 255 0
1.000000 0.250000 6.250000 0 255 51
1.000000 0.000000 6.000000 0 255 51
-5.500000 3.000000 4.500000 255 204 102
-1.000000 -1.500000 4.500000 0 255 51
-3.750000 2.750000 13.500000 255 51 51
-3.000000 3.000000 14.000000 255 51 51
-3.000000 3.500000 13.500000 255 51 51
-4.000000 0.000000 11.000000 255 204 102
-3.750000 0.000000 10.750000 255 204 102
4.000000 0.000000 14.000000 255 204 102
2.000000 3.250000 1.750000 0 255 51
-6.500000 0.000000 9.500000 255 204 102
3.000000 -1.500000 13.500000 255 51 51
3.750000 -0.750000 11.500000 255 51 51
3.750000 -0.750000 13.500000 255 51 51
-1.833330 0.833333 14.333300 255 204 102
-2.500000 0.000000 14.500000 255 204 102
4.000000 2.500000 13.500000 255 204 102
3.750000 2.750000 12.500000 255 204 102
3.750000 2.750000 13.500000 255 204 102
3.000000 3.000000 14.000000 255 51 51
3.750000 2.750000 13.500000 255 51 51
3.000000 3.500000 13.500000 255 51 51
-2.000000 -3.000000 3.000000 255 255 0
2.500000 2.000000 17.500000 255 204 102
2.000000 0.500000 8.500000 255 51 51
-2.000000 -0.500000 9.500000 255 51 51
-2.000000 0.500000 8.500000 255 51 51
2.000000 3.500000 1.500000 255 255 0
2.500000 4.000000 1.500000 255 255 0
0.000000 -3.000000 17.000000 255 204 102
-3.500000 -0.500000 11.000000 255 204 102
-4.000000 -0.500000 11.500000 255 204 102
6.000000 -0.500000 11.500000 255 204 102
6.500000 -1.000000 10.500000 255 204 102
6.500000 0.000000 11.500000 255 204 102
-2.000000 -1.250000 1.750000 255 255 0
-1.500000 -2.000000 1.500000 255 255 0
-2.000000 -2.000000 1.000000 255 255 0
2.000000 -2.000000 14.000000 255 204 102
2.500000 -1.500000 14.000000 255 204 102
2.500000 -1.000000 14.500000 255 204 102
1.500000 -1.000000 18.500000 255 204 102
1.500000 2.000000 18.500000 255 204 102
3.000000 2.500000 10.500000 255 51 51
-2.000000 2.500000 9.500000 255 51 51
-3.000000 2.500000 10.500000 255 51 51
-3.000000 -1.500000 11.500000 255 51 51
-3.750000 -0.750000 13.500000 255 51 51
-3.750000 -0.750000 11.500000 255 51 51
2.500000 4.000000 0.500000 255 255 0
2.000000 4.000000 0.000000 255 255 0
-5.500000 4.000000 5.500000 255 204 102
-4.500000 4.000000 6.500000 255 204 102
5.500000 -3.000000 5.500000 255 204 102
2.000000 0.500000 6.000000 255 51 51
2.500000 1.000000 6.000000 255 51 51
4.000000 -0.500000 11.500000 255 204 102
3.500000 -0.500000 11.000000 255 204 102
0.833333 -2.833330 18.666700 255 204 102
-5.000000 -0.500000 10.500000 255 204 102
-4.500000 0.000000 10.500000 255 204 102
2.500000 3.500000 2.000000 255 255 0
2.000000 3.250000 1.750000 255 255 0
-3.000000 -1.000000 14.000000 255 51 51
-3.000000 -1.500000 13.500000 255 51 51
-2.500000 -1.500000 14.000000 255 51 51
-4.500000 0.000000 9.500000 255 204 102
-5.000000 -0.500000 9.500000 255 204 102
-2.500000 1.000000 6.000000 255 51 51
6.500000 -1.000000 9.500000 255 204 102
6.000000 -1.500000 10.500000 255 204 102
6.000000 -1.500000 9.500000 255 204 102
4.500000 -4.000000 5.500000 255 204 102
3.750000 0.000000 10.750000 255 204 102
-2.000000 -3.000000 1.000000 255 255 0
1.000000 1.750000 6.250000 0 255 51
2.500000 -1.750000 13.750000 255 51 51
1.000000 -1.500000 13.500000 255 51 51
2.500000 -1.000000 17.500000 255 204 102
3.833330 2.833330 12.333300 255 204 102
4.000000 2.500000 12.500000 255 204 102
4.000000 3.500000 11.500000 255 204 102
1.000000 -2.500000 20.500000 255 204 102
-0.500000 -2.500000 21.000000 255 204 102
-1.000000 -2.500000 20.500000 255 204 102
-1.000000 -4.500000 14.500000 255 204 102
-2.000000 -3.000000 14.000000 255 204 102
-1.000000 -4.000000 14.000000 255 204 102
-0.750000 2.000000 21.250000 255 204 102
-1.000000 2.500000 20.500000 255 204 102
-1.500000 2.000000 20.500000 255 204 102
-1.500000 -1.500000 2.000000 0 255 51
-1.500000 -2.000000 2.500000 0 255 51
6.000000 3.500000 10.500000 255 204 102
2.500000 4.500000 2.500000 0 255 51
2.000000 4.500000 3.000000 0 255 51
5.500000 -2.000000 5.500000 255 204 102
-2.500000 -3.000000 14.500000 255 204 102
-2.000000 -2.000000 14.000000 255 204 102
0.750000 -2.000000 21.250000 255 255 102
0.750000 2.000000 21.250000 255 255 102
1.000000 2.500000 18.500000 255 204 102
1.000000 -4.000000 14.000000 255 204 102
2.500000 -3.000000 14.500000 255 204 102
1.500000 4.500000 2.500000 255 255 0
2.000000 4.500000 3.000000 255 255 0
2.000000 2.500000 17.500000 255 204 102
1.500000 4.000000 0.500000 255 255 0
5.500000 -3.000000 4.500000 255 204 102
-3.750000 2.750000 12.500000 255 51 51
-2.500000 1.000000 5.500000 0 255 51
-2.500000 1.000000 6.000000 0 255 51
0.000000 2.500000 15.500000 255 204 102
-3.500000 3.500000 11.000000 255 51 51
-3.000000 3.500000 11.500000 255 51 51
-4.000000 2.500000 13.500000 255 204 102
-3.500000 2.500000 14.000000 255 204 102
-3.750000 2.750000 13.500000 255 204 102
-0.750000 -2.750000 18.000000 255 204 102
-2.500000 -1.000000 17.500000 255 204 102
-2.500000 -3.000000 15.500000 255 204 102
-2.500000 0.000000 15.500000 255 204 102
5.000000 0.000000 8.000000 255 204 102
5.000000 -0.500000 7.500000 255 204 102
2.750000 -1.000000 14.250000 255 204 102
2.750000 0.000000 14.250000 255 204 102
6.500000 -4.000000 6.500000 255 204 102
4.500000 -1.000000 9.500000 255 204 102
6.500000 -2.000000 5.500000 255 204 102
-4.500000 2.000000 7.500000 255 204 102
-2.500000 -1.000000 14.500000 255 204 102
-2.750000 0.000000 14.250000 255 204 102
-2.750000 -1.000000 14.250000 255 204 102
4.000000 -0.500000 13.500000 255 204 102
-3.750000 0.000000 10.750000 255 51 51
2.000000 -3.000000 16.000000 255 204 102
-2.000000 -3.000000 16.000000 255 204 102
3.000000 3.500000 12.500000 255 51 51
-2.500000 -4.000000 2.500000 255 255 0
-1.500000 -3.000000 19.500000 255 204 102
-0.833333 -2.833330 18.666700 255 204 102
-1.500000 2.000000 18.500000 255 204 102
-2.500000 2.000000 17.500000 255 204 102
-6.500000 3.000000 11.500000 255 204 102
3.750000 2.750000 12.500000 255 51 51
3.500000 3.500000 12.000000 255 51 51
2.500000 5.000000 1.500000 255 255 0
-2.000000 1.500000 8.500000 255 51 51
2.000000 2.500000 9.500000 255 51 51
-2.500000 -3.000000 2.500000 255 255 0
-2.000000 -2.500000 3.000000 255 255 0
-2.500000 -2.500000 2.500000 255 255 0
-4.500000 3.000000 7.500000 255 204 102
-5.000000 3.500000 9.500000 255 204 102
-4.500000 3.000000 9.500000 255 204 102
-5.500000 3.000000 5.500000 255 204 102
-5.000000 3.500000 7.500000 255 204 102
6.500000 -1.000000 7.500000 255 204 102
6.000000 -0.500000 6.500000 255 204 102
6.000000 -0.500000 7.500000 255 204 102
-0.750000 -2.000000 21.250000 255 255 102
2.500000 1.000000 4.500000 0 255 51
2.500000 3.500000 2.000000 0 255 51
-3.000000 -0.500000 10.500000 255 51 51
3.500000 -0.500000 14.000000 255 204 102
3.750000 -0.750000 13.500000 255 204 102
-1.000000 0.000000 6.000000 0 255 51
-2.000000 -2.500000 3.000000 0 255 51
-1.500000 -2.500000 2.500000 0 255 51
4.000000 3.500000 10.500000 255 204 102
3.500000 3.500000 11.000000 255 204 102
-3.500000 3.500000 12.000000 255 51 51
-3.000000 3.500000 12.500000 255 51 51
2.500000 1.000000 5.500000 0 255 51
1.500000 3.500000 2.000000 255 255 0
1.500000 4.000000 1.500000 255 255 0
-2.500000 -1.750000 13.750000 255 51 51
-1.000000 -1.500000 13.500000 255 51 51
-1.000000 -1.750000 13.750000 255 51 51
-4.000000 2.000000 14.000000 255 204 102
-2.000000 -2.000000 3.000000 0 255 51
-2.500000 -2.500000 2.500000 0 255 51
5.000000 -1.500000 9.500000 255 204 102
3.500000 2.500000 14.000000 255 204 102
4.000000 2.000000 14.000000 255 204 102
-6.000000 3.500000 11.500000 255 204 102
3.500000 3.500000 11.000000 255 51 51
-1.000000 1.750000 6.250000 0 255 51
-3.750000 2.750000 12.500000 255 204 102
-1.000000 2.500000 18.500000 255 204 102
-1.000000 1.750000 14.250000 255 204 102
6.500000 1.000000 8.500000 255 204 102
6.500000 3.000000 10.500000 255 204 102
-2.000000 -1.250000 1.750000 0 255 51
-2.500000 1.000000 4.500000 0 255 51
-2.000000 1.500000 4.500000 0 255 51
4.500000 1.000000 8.500000 255 204 102
5.000000 1.000000 8.000000 255 204 102
-2.500000 -3.000000 1.500000 255 255 0
-2.500000 -2.500000 2.000000 255 255 0
-4.000000 -0.500000 13.500000 255 204 102
-3.750000 -0.750000 11.500000 255 204 102
-3.750000 -0.750000 13.500000 255 204 102
-0.166667 -0.833333 13.666700 255 51 51
0.000000 -0.500000 13.500000 255 51 51
-3.500000 -0.500000 14.000000 255 204 102
-4.000000 0.000000 14.000000 255 204 102
-1.000000 0.250000 6.250000 0 255 51
-2.000000 -4.500000 2.500000 255 255 0
-1.500000 -3.000000 1.500000 255 255 0
-1.500000 -4.000000 2.500000 255 255 0
2.500000 4.500000 2.500000 255 255 0
0.166667 -0.833333 13.666700 255 51 51
0.500000 -1.500000 14.000000 255 51 51
0.000000 -1.000000 14.000000 255 204 102
0.166667 -0.833333 13.666700 255 204 102
1.500000 4.000000 2.500000 0 255 51
1.500000 4.500000 2.500000 0 255 51
-6.000000 -0.500000 9.500000 255 204 102
-4.500000 2.000000 10.500000 255 204 102
-3.250000 3.000000 10.750000 255 204 102
-1.000000 -4.500000 15.500000 255 204 102
-1.500000 -2.500000 19.000000 204 255 255
-0.833333 -2.833330 18.666700 204 255 255
-1.500000 -2.500000 2.500000 255 255 0
0.500000 -2.500000 21.000000 255 204 102
6.000000 0.000000 8.000000 255 204 102
3.000000 -1.000000 14.000000 255 51 51
3.500000 -0.500000 14.000000 255 51 51
-2.000000 2.500000 17.500000 255 204 102
-0.166667 -0.833333 13.666700 255 204 102
0.000000 -0.750000 13.750000 255 204 102
2.500000 1.000000 6.000000 0 255 51
3.250000 3.000000 10.750000 255 204 102
1.500000 4.500000 2.000000 255 255 0
-2.500000 -2.000000 1.500000 255 255 0
1.500000 -1.500000 19.000000 204 255 255
1.500000 -1.500000 18.000000 204 255 255
-2.500000 -1.500000 14.000000 255 204 102
1.500000 4.500000 2.000000 0 255 51
1.500000 3.500000 2.000000 0 255 51
-3.500000 3.500000 11.000000 255 204 102
1.500000 -2.500000 19.000000 204 255 255
6.500000 2.000000 12.500000 255 204 102
2.000000 -3.000000 14.000000 255 204 102
-1.500000 -2.000000 18.500000 204 255 255
-1.500000 -1.500000 18.000000 204 255 255
-1.000000 -4.000000 16.000000 255 204 102
1.000000 -4.000000 16.000000 255 204 102
-2.750000 -1.000000 14.250000 255 51 51
2.500000 4.500000 2.000000 0 255 51
2.500000 4.000000 2.500000 0 255 51
-2.500000 -2.000000 2.500000 0 255 51
-2.500000 -1.500000 2.000000 0 255 51
3.750000 -0.750000 11.500000 255 204 102
-1.500000 -2.000000 20.500000 255 204 102
-0.750000 -2.000000 21.250000 255 204 102
4.500000 0.000000 8.500000 255 204 102
6.000000 1.000000 8.000000 255 204 102
-1.500000 -1.000000 18.500000 255 204 102
-1.500000 -1.500000 19.000000 255 204 102
3.000000 3.500000 11.500000 255 51 51
1.833330 0.833333 14.333300 255 204 102
2.500000 0.500000 14.000000 255 204 102
2.500000 4.500000 2.000000 255 255 0
1.500000 -1.500000 19.000000 255 204 102
0.750000 -2.750000 18.000000 255 204 102
-1.500000 -2.500000 2.000000 255 255 0
-1.500000 -3.000000 2.500000 255 255 0
2.750000 -1.000000 14.250000 255 51 51
-3.750000 2.000000 10.750000 255 51 51
3.500000 -0.500000 11.000000 255 51 51
1.500000 -2.000000 18.000000 204 255 255
-3.500000 3.500000 12.000000 255 204 102
0.500000 2.500000 21.000000 255 204 102
-3.500000 2.500000 14.000000 255 51 51
-2.500000 0.500000 14.000000 255 204 102
-1.500000 1.500000 14.000000 255 204 102
3.500000 2.500000 14.000000 255 51 51
2.000000 -0.500000 9.500000 255 51 51
-1.500000 -1.500000 2.000000 255 255 0
2.500000 -1.750000 13.750000 255 204 102
1.500000 -2.500000 19.000000 255 204 102
1.500000 -3.000000 19.500000 255 204 102
0.750000 -2.750000 18.500000 255 204 102
-3.500000 -0.500000 14.000000 255 51 51
-2.000000 0.500000 6.000000 255 51 51
1.000000 -1.750000 13.750000 255 51 51
3.500000 3.500000 12.000000 255 204 102
-0.500000 2.500000 21.000000 255 204 102
-1.500000 -2.500000 2.000000 0 255 51
-0.750000 -2.750000 18.500000 255 204 102
-2.500000 -1.750000 13.750000 255 204 102
-1.500000 -2.500000 19.000000 255 204 102
3.833330 2.833330 12.333300 255 51 51
-0.750000 2.000000 21.250000 255 255 102
-3.500000 -0.500000 11.000000 255 51 51
-3.833330 2.833330 12.333300 255 51 51
1.000000 1.750000 14.250000 255 204 102
-2.500000 -1.500000 2.000000 255 255 0
-0.500000 -1.500000 14.000000 255 51 51
0.000000 -0.750000 13.750000 255 51 51
6.500000 0.000000 8.500000 255 204 102
2.500000 -1.500000 14.000000 255 51 51
0.833333 -2.833330 18.666700 204 255 255
-1.500000 -1.500000 19.000000 204 255 255
-2.500000 -2.500000 2.000000 0 255 51
1.500000 1.500000 14.000000 255 204 102
-2.000000 1.500000 6.000000 255 51 51
3 0 1 2
3 3 0 2
3 4 5 6
3 7 8 9
3 10 7 9
3 11 12 13
3 14 11 13
3 15 16 17
3 18 19 20
3 20 17 21
3 22 23 24
3 25 26 27
3 28 25 27
3 29 30 31
3 31 30 32
3 32 30 33
3 34 35 36
3 37 38 39
3 36 40 39
3 41 42 43
3 44 41 43
3 45 46 47
3 48 49 50
3 5 4 51
3 51 4 52
3 52 4 53
3 54 55 56
3 57 58 59
3 58 4 59
3 4 60 59
3 54 56 61
3 62 48 63
3 64 65 66
3 67 68 69
3 70 71 72
3 73 74 75
3 76 77 78
3 79 52 80
3 81 82 83
3 84 85 86
3 87 88 89
3 90 91 59
3 92 93 94
3 95 96 97
3 98 99 100
3 101 102 103
3 104 68 105
3 106 107 71
3 70 106 71
3 108 107 109
3 106 110 107
3 111 112 113
3 114 115 116
3 117 118 119
3 120 121 122
3 123 124 113
3 125 126 127
3 126 125 128
3 129 130 131
3 132 133 134
3 135 136 137
3 138 139 140
3 141 142 143
3 144 145 146
3 145 147 148
3 149 150 151
3 152 153 154
3 155 156 157
3 158 159 160
3 161 162 163
3 164 165 166
3 167 164 168
3 169 170 171
3 169 172 173
3 167 174 175
3 172 176 177
3 178 179 180
3 67 181 182
3 183 184 185
3 186 187 188
3 189 188 190
3 191 192 193
3 194 191 193
3 195 192 196
3 197 198 194
3 60 199 59
3 200 201 202
3 203 204 205
3 206 207 208
3 209 210 211
3 212 143 213
3 206 212 213
3 214 215 216
3 217 218 219
3 220 46 221
3 222 223 224
3 225 57 59
3 179 226 227
3 104 69 68
3 228 229 230
3 124 231 232
3 233 181 234
3 189 235 236
3 237 238 239
3 240 241 242
3 72 219 70
3 238 95 97
3 65 63 66
3 35 243 244
3 245 246 247
3 125 248 128
3 161 185 162
3 249 250 19
3 251 252 253
3 121 139 254
3 45 255 256
3 257 258 228
3 8 259 260
3 79 261 262
3 263 217 37
3 24 264 29
3 50 63 48
3 265 266 267
3 268 133 269
3 270 163 162
3 53 58 271
3 272 157 156
3 273 274 275
3 186 276 277
3 278 279 280
3 281 282 283
3 14 284 11
3 285 235 190
3 286 287 288
3 289 3 290
3 146 291 195
3 292 293 268
3 294 295 296
3 297 298 299
3 300 301 302
3 303 285 304
3 305 306 307
3 117 194 198
3 308 309 310
3 311 2 312
3 313 96 314
3 102 182 315
3 45 316 317
3 22 66 23
3 318 319 248
3 118 198 320
3 268 321 322
3 289 323 324
3 325 326 327
3 109 328 329
3 330 288 210
3 331 332 333
3 334 102 315
3 329 243 109
3 139 335 140
3 298 336 299
3 90 199 337
3 338 339 273
3 302 235 340
3 341 342 343
3 344 345 346
3 347 348 349
3 147 340 205
3 350 351 352
3 353 33 354
3 246 355 247
3 225 356 357
3 313 43 97
3 182 233 358
3 359 360 348
3 243 272 244
3 208 361 362
3 72 71 107
3 363 228 304
3 364 365 251
3 207 213 159
3 278 245 342
3 9 366 367
3 368 304 285
3 369 2 1
3 296 163 294
3 370 17 16
3 267 371 265
3 372 74 373
3 374 188 187
3 131 375 376
3 377 378 379
3 380 195 196
3 381 382 144
3 139 128 248
3 383 186 277
3 291 148 197
3 104 384 385
3 236 386 387
3 88 93 89
3 42 41 40
3 360 151 150
3 388 19 18
3 389 127 126
3 390 27 233
3 107 391 109
3 392 393 394
3 50 29 264
3 395 294 163
3 370 334 315
3 396 209 211
3 397 145 398
3 117 192 191
3 281 266 175
3 282 399 283
3 400 13 12
3 401 402 119
3 381 403 404
3 180 156 155
3 405 237 239
3 102 98 103
3 401 119 346
3 4 31 55
3 406 407 399
3 312 408 311
3 409 410 256
3 411 412 413
3 414 415 416
3 314 417 313
3 418 314 96
3 419 420 421
3 141 422 142
3 64 5 51
3 423 271 424
3 425 211 287
3 294 125 332
3 395 426 427
3 48 428 49
3 312 260 259
3 354 429 430
3 286 78 82
3 343 431 432
3 433 371 434
3 53 435 52
3 176 174 177
3 289 436 437
3 438 439 440
3 178 441 377
3 119 344 346
3 442 443 429
3 444 101 103
3 82 77 83
3 142 160 159
3 122 431 355
3 328 321 329
3 278 445 446
3 197 193 291
3 65 428 62
3 242 447 226
3 111 326 308
3 136 448 137
3 449 56 84
3 60 61 199
3 242 379 450
3 337 61 449
3 352 451 403
3 452 186 188
3 453 355 454
3 455 456 457
3 112 308 425
3 435 225 59
3 458 122 459
3 460 411 461
3 462 463 464
3 239 244 405
3 44 40 41
3 208 116 212
3 405 226 447
3 10 259 7
3 465 439 466
3 462 467 468
3 428 261 469
3 218 110 219
3 289 1 0
3 213 142 159
3 470 471 472
3 10 367 473
3 474 339 475
3 420 385 421
3 470 460 336
3 476 477 152
3 478 357 479
3 334 100 99
3 447 241 415
3 315 26 370
3 480 329 321
3 358 27 26
3 481 416 482
3 38 108 34
3 153 300 154
3 333 388 331
3 359 483 382
3 466 124 339
3 64 262 65
3 484 222 485
3 278 185 184
3 284 486 412
3 229 487 344
3 16 250 334
3 105 67 182
3 34 39 38
3 30 49 75
3 488 419 421
3 489 275 490
3 403 491 404
3 5 24 6
3 476 492 493
3 446 426 270
3 115 141 116
3 435 91 494
3 495 431 254
3 322 134 268
3 496 8 260
3 497 297 299
3 498 215 499
3 500 392 394
3 478 501 502
3 416 503 482
3 504 216 215
3 381 383 392
3 505 296 246
3 300 365 506
3 18 21 28
3 457 31 32
3 284 12 11
3 507 508 223
3 509 253 510
3 165 511 166
3 46 410 305
3 26 21 370
3 466 111 113
3 472 13 470
3 39 263 37
3 420 67 69
3 512 513 424
3 514 456 515
3 384 421 385
3 318 427 516
3 264 66 63
3 442 33 30
3 398 510 397
3 444 332 127
3 350 517 518
3 267 281 283
3 183 245 184
3 349 251 347
3 497 336 460
3 418 95 237
3 458 384 519
3 391 416 481
3 155 462 468
3 453 488 520
3 521 522 352
3 434 399 523
3 524 236 525
3 459 488 384
3 408 526 290
3 230 527 228
3 207 158 361
3 451 363 374
3 197 148 528
3 70 110 106
3 178 242 226
3 123 112 287
3 195 193 192
3 124 273 339
3 529 530 471
3 364 150 154
3 54 4 55
3 256 88 409
3 31 24 29
3 251 483 347
3 372 85 457
3 519 128 458
3 417 44 313
3 468 441 155
3 249 103 100
3 131 523 136
3 489 170 531
3 532 129 307
3 15 20 19
3 245 343 342
3 38 217 108
3 220 533 231
3 409 330 210
3 214 534 215
3 217 417 218
3 220 47 46
3 222 507 223
3 225 478 57
3 179 178 226
3 104 385 69
3 228 258 229
3 124 123 231
3 234 390 233
3 181 420 234
3 189 190 235
3 237 95 238
3 240 535 241
3 242 450 240
3 72 217 219
3 97 43 42
3 42 238 97
3 65 62 63
3 35 34 243
3 245 505 246
3 125 318 248
3 161 183 185
3 249 100 250
3 250 15 19
3 251 365 252
3 495 254 138
3 122 121 254
3 139 138 254
3 45 317 255
3 257 536 258
3 8 7 259
3 262 51 79
3 52 79 51
3 263 417 217
3 24 23 264
3 50 264 63
3 265 537 266
3 268 134 133
3 270 395 163
3 53 4 58
3 58 502 271
3 272 480 157
3 273 232 274
3 393 277 538
3 186 452 539
3 276 538 277
3 186 539 276
3 278 342 279
3 281 540 282
3 14 530 284
3 188 374 190
3 368 285 190
3 190 374 368
3 286 541 287
3 289 0 3
3 146 145 291
3 268 269 292
3 292 463 293
3 294 332 295
3 297 542 298
3 300 543 301
3 301 386 302
3 303 340 285
3 305 410 306
3 117 191 194
3 308 326 309
3 311 3 2
3 313 97 96
3 358 315 182
3 102 105 182
3 45 286 316
3 22 64 66
3 335 248 319
3 318 516 319
3 544 545 320
3 118 117 198
3 198 546 320
3 320 545 118
3 268 293 321
3 289 290 323
3 438 327 326
3 325 547 309
3 327 511 325
3 309 326 325
3 109 391 328
3 330 548 288
3 331 295 332
3 334 99 102
3 329 480 243
3 139 248 335
3 298 471 336
3 90 59 199
3 338 549 339
3 340 252 302
3 302 236 235
3 252 365 302
3 235 285 340
3 341 279 342
3 343 550 341
3 344 487 345
3 347 359 348
3 205 148 147
3 397 510 253
3 203 205 340
3 397 253 252
3 303 203 340
3 147 397 252
3 252 340 147
3 350 551 351
3 430 552 354
3 353 32 33
3 354 552 353
3 246 454 355
3 225 513 356
3 313 44 43
3 182 181 233
3 359 392 360
3 243 480 272
3 208 207 361
3 107 108 217
3 217 72 107
3 363 257 228
3 364 506 365
3 207 206 213
3 278 184 245
3 9 8 366
3 368 363 304
3 369 312 2
3 296 161 163
3 370 21 17
3 267 434 371
3 372 75 74
3 383 404 187
3 491 374 187
3 187 404 491
3 131 130 375
3 377 441 378
3 380 202 146
3 201 146 202
3 196 553 380
3 380 146 195
3 200 521 381
3 382 483 509
3 382 509 398
3 200 381 201
3 144 146 201
3 201 381 144
3 382 398 144
3 139 121 128
3 383 187 186
3 291 145 148
3 104 519 384
3 236 302 386
3 88 94 93
3 40 36 35
3 35 42 40
3 360 554 151
3 388 249 19
3 389 444 127
3 390 28 27
3 107 110 391
3 392 277 393
3 50 30 29
3 395 318 294
3 370 16 334
3 396 532 209
3 144 398 145
3 397 147 145
3 117 196 192
3 176 172 281
3 171 489 490
3 172 169 540
3 171 490 540
3 540 281 172
3 266 537 167
3 547 325 165
3 164 167 537
3 537 547 165
3 165 164 537
3 169 171 540
3 266 167 175
3 175 176 281
3 282 406 399
3 400 470 13
3 117 119 196
3 401 555 402
3 402 553 196
3 196 119 402
3 381 521 403
3 180 179 156
3 405 447 237
3 102 99 98
3 345 518 346
3 517 401 346
3 346 518 517
3 4 6 31
3 406 556 407
3 312 259 408
3 409 306 410
3 411 284 412
3 414 418 415
3 314 218 417
3 418 414 314
3 419 234 420
3 141 557 422
3 64 22 5
3 423 53 271
3 425 308 558
3 558 396 425
3 308 310 558
3 288 287 211
3 211 210 288
3 425 396 211
3 127 332 125
3 294 318 125
3 395 270 426
3 48 62 428
3 312 369 260
3 354 442 429
3 81 316 82
3 286 288 78
3 548 76 78
3 82 316 286
3 288 548 78
3 343 247 355
3 355 431 343
3 432 550 343
3 433 559 371
3 80 52 435
3 53 423 435
3 435 494 80
3 176 175 174
3 289 324 436
3 438 326 439
3 178 180 441
3 119 118 344
3 442 514 443
3 444 389 101
3 82 78 77
3 142 422 160
3 355 520 122
3 122 254 431
3 520 459 122
3 328 322 321
3 278 280 445
3 197 194 193
3 65 262 428
3 242 241 447
3 111 439 326
3 136 523 448
3 85 84 56
3 449 61 56
3 60 54 61
3 242 377 379
3 337 199 61
3 352 351 451
3 188 189 560
3 560 452 188
3 453 520 355
3 455 515 456
3 112 111 308
3 435 513 225
3 458 120 122
3 561 497 461
3 460 400 411
3 411 413 461
3 400 12 411
3 461 497 460
3 462 293 463
3 227 405 272
3 239 238 35
3 42 35 238
3 244 272 405
3 156 179 227
3 239 35 244
3 156 227 272
3 44 263 40
3 208 362 114
3 114 116 208
3 212 206 208
3 405 227 226
3 10 408 259
3 465 562 439
3 440 439 562
3 466 563 465
3 462 464 467
3 428 262 261
3 218 391 110
3 289 437 1
3 213 143 142
3 470 336 471
3 10 9 367
3 474 563 466
3 466 339 474
3 549 475 339
3 420 69 385
3 470 400 460
3 476 493 477
3 478 225 357
3 334 250 100
3 418 237 415
3 241 535 503
3 415 237 447
3 241 503 415
3 315 358 26
3 293 462 157
3 157 480 321
3 321 293 157
3 358 233 27
3 482 132 481
3 134 481 132
3 243 34 108
3 108 109 243
3 153 543 300
3 333 249 388
3 359 347 483
3 466 113 124
3 64 51 262
3 484 507 222
3 278 446 185
3 284 530 486
3 118 545 344
3 230 229 344
3 344 545 230
3 16 15 250
3 105 68 67
3 34 36 39
3 75 372 30
3 514 442 30
3 30 50 49
3 49 428 73
3 469 73 428
3 372 514 30
3 49 73 75
3 488 564 419
3 489 531 565
3 565 338 273
3 273 275 489
3 489 565 273
3 403 451 491
3 5 22 24
3 476 149 492
3 162 185 446
3 446 445 426
3 270 162 446
3 212 116 141
3 115 557 141
3 141 143 212
3 435 59 91
3 495 432 431
3 322 481 134
3 260 369 437
3 437 436 496
3 369 1 437
3 366 8 496
3 260 437 496
3 497 561 297
3 498 504 215
3 215 534 499
3 500 554 360
3 360 392 500
3 502 58 57
3 478 479 501
3 502 57 478
3 416 415 503
3 504 566 216
3 359 382 392
3 381 404 383
3 383 277 392
3 392 382 381
3 331 388 419
3 18 28 390
3 390 234 419
3 564 453 296
3 18 390 388
3 453 454 296
3 388 390 419
3 419 564 331
3 505 183 161
3 454 246 296
3 296 295 331
3 331 564 296
3 505 161 296
3 300 302 365
3 25 28 21
3 18 20 21
3 353 455 32
3 457 56 55
3 55 31 457
3 32 455 457
3 284 411 12
3 507 484 567
3 567 508 507
3 509 483 253
3 165 325 511
3 136 135 305
3 46 45 256
3 305 135 221
3 256 410 46
3 305 221 46
3 26 25 21
3 466 439 111
3 472 14 13
3 39 40 263
3 420 181 67
3 423 424 513
3 512 356 513
3 513 435 423
3 515 568 514
3 514 372 456
3 568 443 514
3 384 488 421
3 318 395 427
3 264 23 66
3 442 354 33
3 398 509 510
3 444 333 332
3 350 352 517
3 267 266 281
3 183 505 245
3 349 364 251
3 497 299 336
3 418 96 95
3 458 459 384
3 322 328 481
3 391 218 414
3 414 416 391
3 218 314 414
3 481 328 391
3 155 157 462
3 453 564 488
3 521 200 522
3 522 555 517
3 401 517 555
3 352 403 521
3 522 517 352
3 434 267 283
3 399 407 523
3 434 283 399
3 375 433 376
3 376 433 434
3 407 448 523
3 523 376 434
3 524 569 189
3 560 189 569
3 236 387 525
3 524 189 236
3 459 520 488
3 3 311 290
3 408 10 526
3 526 323 290
3 10 473 526
3 290 311 408
3 304 228 303
3 230 545 544
3 527 203 303
3 230 544 527
3 303 228 527
3 207 159 158
3 451 351 363
3 551 536 257
3 363 368 374
3 551 257 351
3 374 491 451
3 351 257 363
3 546 198 528
3 148 205 204
3 528 198 197
3 148 204 528
3 70 219 110
3 178 377 242
3 287 541 123
3 123 113 112
3 541 231 123
3 112 425 287
3 195 291 193
3 124 232 273
3 472 471 530
3 298 542 529
3 529 486 530
3 530 14 472
3 471 298 529
3 300 506 154
3 364 349 150
3 348 360 150
3 149 476 152
3 349 348 150
3 150 149 152
3 154 506 364
3 150 152 154
3 54 60 4
3 570 409 88
3 256 255 94
3 255 92 94
3 88 87 570
3 256 94 88
3 31 6 24
3 251 253 483
3 372 373 86
3 85 56 457
3 372 86 85
3 457 456 372
3 519 104 389
3 105 102 101
3 389 126 128
3 105 101 104
3 120 458 128
3 104 101 389
3 389 128 519
3 121 120 128
3 417 263 44
3 468 467 378
3 441 180 155
3 468 378 441
3 249 333 103
3 103 98 100
3 333 444 103
3 305 307 131
3 131 376 523
3 136 305 131
3 489 171 170
3 306 409 209
3 209 532 307
3 409 210 209
3 129 131 307
3 307 306 209
3 15 17 20
3 245 247 343
3 38 37 217
3 231 541 47
3 286 45 47
3 47 220 231
3 533 274 232
3 541 286 47
3 533 232 231
3 409 570 330
