ply
format ascii 1.0
comment Created by Blender 2.78 (sub 0) - www.blender.org, source file: ''
element vertex 571
property float x
property float y
property float z
property uchar red
property uchar green
property uchar blue
element face 932
property list uchar uint vertex_indices
end_header
2.000000 2.500000 0.500000 255 255 0
1.500000 3.000000 0.500000 255 255 0
2.000000 3.000000 0.000000 255 255 0
2.500000 3.000000 0.500000 255 255 0
1.000000 1.000000 5.000000 0 255 51
1.500000 0.000000 4.500000 0 255 51
1.000000 0.000000 4.000000 0 255 51
2.000000 5.500000 2.500000 255 255 0
1.500000 5.000000 2.500000 255 255 0
2.000000 5.000000 3.000000 255 255 0
2.500000 5.000000 2.500000 255 255 0
-2.000000 -4.000000 4.000000 255 255 0
-2.500000 -4.000000 3.500000 255 255 0
-2.000000 -4.500000 3.500000 255 255 0
-1.500000 -4.000000 3.500000 255 255 0
5.000000 -4.500000 4.500000 255 204 102
4.500000 -4.000000 4.500000 255 204 102
5.000000 -4.000000 4.000000 255 204 102
6.500000 -4.000000 4.500000 255 204 102
6.000000 -4.500000 4.500000 255 204 102
6.000000 -4.000000 4.000000 255 204 102
6.000000 -3.000000 4.000000 255 204 102
1.500000 -1.000000 4.500000 0 255 51
1.000000 -1.500000 4.500000 0 255 51
1.000000 -1.000000 4.000000 0 255 51
6.000000 -2.000000 4.000000 255 204 102
5.500000 -2.000000 4.500000 255 204 102
6.000000 -1.500000 4.500000 255 204 102
6.500000 -2.000000 4.500000 255 204 102
-1.000000 -1.000000 4.000000 0 255 51
-2.000000 -0.500000 4.500000 0 255 51
-1.000000 0.000000 4.000000 0 255 51
-1.500000 0.000000 3.500000 0 255 51
-1.500000 -1.000000 3.500000 0 255 51
-6.000000 1.500000 4.500000 255 204 102
-6.500000 2.000000 4.500000 255 204 102
-6.000000 2.000000 4.000000 255 204 102
-4.500000 2.000000 4.500000 255 204 102
-5.000000 1.500000 4.500000 255 204 102
-5.000000 2.000000 4.000000 255 204 102
-6.000000 3.000000 4.000000 255 204 102
-6.000000 4.000000 4.000000 255 204 102
-6.500000 4.000000 4.500000 255 204 102
-6.000000 4.500000 4.500000 255 204 102
-5.500000 4.000000 4.500000 255 204 102
2.500000 1.000000 8.500000 255 51 51
2.500000 2.000000 9.500000 255 51 51
2.500000 0.000000 9.500000 255 51 51
-1.500000 -1.000000 5.500000 0 255 51
-1.500000 0.000000 5.500000 0 255 51
-1.500000 -1.000000 4.500000 0 255 51
1.500000 0.000000 5.500000 0 255 51
2.000000 0.500000 5.500000 0 255 51
2.000000 0.500000 4.500000 0 255 51
-1.000000 2.000000 5.000000 0 255 51
-1.000000 1.000000 5.000000 0 255 51
-1.500000 2.000000 5.500000 0 255 51
1.500000 2.000000 4.500000 0 255 51
1.500000 1.000000 4.500000 0 255 51
2.000000 1.500000 5.500000 0 255 51
1.000000 2.000000 5.000000 0 255 51
-1.000000 2.500000 5.500000 0 255 51
-1.000000 -1.000000 6.000000 0 255 51
-1.000000 -1.500000 5.500000 0 255 51
1.500000 -1.000000 5.500000 0 255 51
1.000000 -1.000000 6.000000 0 255 51
1.000000 -1.500000 5.500000 0 255 51
4.000000 -1.000000 6.000000 255 204 102
3.500000 -1.000000 6.500000 255 204 102
4.000000 -0.500000 6.500000 255 204 102
-3.500000 1.000000 6.500000 255 204 102
-4.000000 0.500000 6.500000 255 204 102
-4.000000 1.000000 6.000000 255 204 102
-1.500000 0.500000 6.000000 0 255 51
-2.000000 0.500000 6.000000 0 255 51
-2.000000 0.500000 5.500000 0 255 51
-1.500000 0.500000 6.000000 255 51 51
-1.000000 0.250000 6.250000 255 51 51
-1.000000 0.500000 6.500000 255 51 51
1.500000 0.500000 6.000000 0 255 51
2.000000 0.500000 6.000000 0 255 51
1.500000 0.500000 6.000000 255 51 51
1.000000 0.500000 6.500000 255 51 51
1.000000 0.250000 6.250000 255 51 51
-1.500000 1.500000 6.000000 0 255 51
-2.000000 1.500000 5.500000 0 255 51
-2.000000 1.500000 6.000000 0 255 51
-1.500000 1.500000 6.000000 255 51 51
-1.000000 1.500000 6.500000 255 51 51
-1.000000 1.750000 6.250000 255 51 51
1.500000 1.500000 6.000000 0 255 51
2.000000 1.500000 6.000000 0 255 51
-0.750000 2.000000 21.250000 255 204 102
-1.500000 -2.000000 20.500000 255 204 102
-0.750000 -2.000000 21.250000 255 204 102
1.500000 1.500000 6.000000 255 51 51
1.000000 1.750000 6.250000 255 51 51
1.000000 1.500000 6.500000 255 51 51
-6.000000 4.500000 6.500000 255 204 102
-5.000000 4.500000 6.500000 255 204 102
-6.000000 4.500000 5.500000 255 204 102
4.000000 -4.000000 7.000000 255 204 102
3.500000 -4.000000 6.500000 255 204 102
4.000000 -4.500000 6.500000 255 204 102
4.500000 -3.000000 7.500000 255 204 102
4.500000 -3.000000 6.500000 255 204 102
5.000000 -3.500000 7.500000 255 204 102
4.500000 -1.000000 7.500000 255 204 102
4.500000 -2.000000 6.500000 255 204 102
-4.000000 1.000000 7.000000 255 204 102
-4.500000 1.000000 6.500000 255 204 102
-5.000000 1.500000 6.500000 255 204 102
-5.000000 1.500000 7.500000 255 204 102
-4.000000 2.000000 7.000000 255 204 102
-1.000000 -1.500000 11.500000 255 51 51
-1.000000 -0.500000 10.500000 255 51 51
0.000000 -0.500000 11.500000 255 51 51
0.500000 2.500000 21.000000 255 255 102
-0.500000 2.500000 21.000000 255 255 102
0.000000 2.500000 21.500000 255 255 102
0.000000 -3.500000 18.500000 255 204 102
1.000000 -3.500000 19.500000 255 204 102
-1.000000 -3.500000 19.500000 255 204 102
4.500000 2.000000 9.500000 255 204 102
4.500000 2.000000 10.500000 255 204 102
5.000000 2.500000 9.500000 255 204 102
1.000000 -0.500000 10.500000 255 51 51
1.000000 -1.500000 11.500000 255 51 51
5.000000 -1.000000 11.000000 255 204 102
4.500000 -1.000000 10.500000 255 204 102
5.000000 -1.500000 10.500000 255 204 102
4.500000 0.000000 10.500000 255 204 102
-3.500000 2.500000 11.000000 255 51 51
-3.250000 3.000000 10.750000 255 51 51
-3.000000 3.000000 11.000000 255 51 51
-3.500000 2.500000 11.000000 255 204 102
-3.750000 2.000000 10.750000 255 204 102
-4.000000 2.000000 11.000000 255 204 102
3.500000 2.500000 11.000000 255 51 51
3.000000 3.000000 11.000000 255 51 51
3.250000 3.000000 10.750000 255 51 51
3.500000 2.500000 11.000000 255 204 102
4.000000 2.000000 11.000000 255 204 102
3.750000 2.000000 10.750000 255 204 102
-0.500000 2.000000 21.500000 255 255 102
-0.500000 -2.000000 21.500000 255 255 102
-0.500000 -2.000000 25.500000 255 255 102
-2.000000 -2.500000 16.500000 255 204 102
0.000000 -2.500000 16.500000 255 204 102
-1.000000 -2.500000 17.500000 255 204 102
2.000000 -2.500000 16.500000 255 204 102
1.000000 -2.500000 17.500000 255 204 102
-0.500000 -1.500000 14.000000 255 204 102
-1.000000 -2.000000 14.000000 255 204 102
-1.000000 -1.750000 13.750000 255 204 102
0.500000 -1.500000 14.000000 255 204 102
1.000000 -1.750000 13.750000 255 204 102
1.000000 -2.000000 14.000000 255 204 102
-6.000000 0.000000 14.000000 255 204 102
-6.500000 0.000000 13.500000 255 204 102
-6.000000 -0.500000 13.500000 255 204 102
0.500000 -2.500000 21.000000 255 255 102
0.000000 -2.500000 21.500000 255 255 102
-0.500000 -2.500000 21.000000 255 255 102
6.500000 0.000000 13.500000 255 204 102
6.000000 0.000000 14.000000 255 204 102
6.000000 -0.500000 13.500000 255 204 102
-2.500000 0.500000 14.000000 255 51 51
-3.000000 0.000000 14.000000 255 51 51
-2.750000 0.000000 14.250000 255 51 51
-1.500000 1.500000 14.000000 255 51 51
-1.833330 0.833333 14.333300 255 51 51
2.500000 0.500000 14.000000 255 51 51
2.750000 0.000000 14.250000 255 51 51
3.000000 0.000000 14.000000 255 51 51
1.500000 1.500000 14.000000 255 51 51
1.833330 0.833333 14.333300 255 51 51
-1.000000 1.750000 14.250000 255 51 51
-1.000000 2.000000 14.000000 255 51 51
1.000000 2.000000 14.000000 255 51 51
1.000000 1.750000 14.250000 255 51 51
-6.000000 2.500000 13.500000 255 204 102
-6.500000 2.000000 13.500000 255 204 102
-6.000000 2.000000 14.000000 255 204 102
6.000000 -1.000000 6.000000 255 204 102
5.000000 -2.000000 6.000000 255 204 102
6.500000 2.000000 13.500000 255 204 102
6.000000 2.500000 13.500000 255 204 102
6.000000 2.000000 14.000000 255 204 102
-1.000000 1.500000 14.500000 255 204 102
-1.000000 1.500000 15.500000 255 204 102
0.000000 1.500000 14.500000 255 204 102
1.000000 1.500000 14.500000 255 204 102
1.000000 1.500000 15.500000 255 204 102
0.000000 -4.500000 17.500000 255 204 102
-0.500000 -4.000000 17.500000 255 204 102
0.000000 -4.000000 17.000000 255 204 102
0.500000 -4.000000 17.500000 255 204 102
-0.500000 -3.000000 17.500000 255 204 102
-0.500000 -3.000000 18.500000 255 204 102
0.500000 -3.000000 17.500000 255 204 102
0.500000 -3.000000 18.500000 255 204 102
1.000000 2.500000 5.500000 0 255 51
-1.500000 -1.500000 18.000000 255 204 102
-1.500000 -2.000000 17.500000 255 204 102
-1.500000 -2.000000 18.000000 255 204 102
1.500000 -1.500000 18.000000 255 204 102
1.500000 -2.000000 18.000000 255 204 102
1.500000 -2.000000 17.500000 255 204 102
0.500000 -2.000000 25.500000 255 255 102
0.500000 -2.000000 21.500000 255 255 102
0.500000 2.000000 21.500000 255 255 102
-2.500000 2.000000 9.500000 255 51 51
-2.500000 1.000000 8.500000 255 51 51
-2.500000 0.000000 9.500000 255 51 51
0.000000 -2.000000 26.000000 255 255 102
0.000000 -2.500000 25.500000 255 255 102
3.000000 -1.500000 13.500000 255 51 51
3.750000 -0.750000 11.500000 255 51 51
3.750000 -0.750000 13.500000 255 51 51
1.000000 -4.500000 14.500000 255 204 102
2.500000 -3.000000 15.500000 255 204 102
1.000000 -4.500000 15.500000 255 204 102
-2.000000 -3.000000 3.000000 255 255 0
3.750000 0.000000 10.750000 255 204 102
-5.500000 4.000000 5.500000 255 204 102
-1.000000 0.000000 6.000000 0 255 51
-5.500000 3.000000 4.500000 255 204 102
-4.500000 2.000000 5.500000 255 204 102
-3.000000 -1.500000 11.500000 255 51 51
-3.750000 -0.750000 13.500000 255 51 51
-3.750000 -0.750000 11.500000 255 51 51
6.000000 2.500000 12.500000 255 204 102
4.000000 3.500000 11.500000 255 204 102
4.000000 2.500000 12.500000 255 204 102
6.500000 0.000000 11.500000 255 204 102
6.500000 3.000000 11.500000 255 204 102
6.500000 2.000000 12.500000 255 204 102
-3.000000 3.500000 13.500000 255 51 51
-3.750000 2.750000 12.500000 255 51 51
-3.750000 2.750000 13.500000 255 51 51
6.000000 -0.500000 11.500000 255 204 102
-6.000000 1.500000 7.500000 255 204 102
-6.500000 2.000000 7.500000 255 204 102
-4.500000 3.000000 9.500000 255 204 102
-3.500000 3.500000 11.000000 255 204 102
-3.250000 3.000000 10.750000 255 204 102
0.000000 -3.000000 17.000000 255 204 102
2.500000 -1.500000 14.000000 255 204 102
2.500000 -1.000000 14.500000 255 204 102
2.000000 -2.000000 14.000000 255 204 102
1.500000 -1.000000 18.500000 255 204 102
2.500000 2.000000 17.500000 255 204 102
1.500000 2.000000 18.500000 255 204 102
-2.500000 1.000000 6.000000 255 51 51
-2.000000 0.500000 8.500000 255 51 51
6.000000 0.000000 8.000000 255 204 102
6.500000 -1.000000 7.500000 255 204 102
6.000000 -0.500000 7.500000 255 204 102
5.500000 -3.000000 4.500000 255 204 102
4.500000 -4.000000 5.500000 255 204 102
5.500000 -3.000000 5.500000 255 204 102
-4.000000 -0.500000 13.500000 255 204 102
-3.500000 -0.500000 14.000000 255 204 102
-4.000000 0.000000 14.000000 255 204 102
-4.000000 2.500000 12.500000 255 204 102
-6.000000 3.500000 11.500000 255 204 102
-6.000000 2.500000 12.500000 255 204 102
1.000000 0.000000 6.000000 0 255 51
2.500000 0.000000 14.500000 255 204 102
2.750000 -1.000000 14.250000 255 204 102
2.750000 0.000000 14.250000 255 204 102
2.000000 2.500000 17.500000 255 204 102
-4.000000 0.000000 11.000000 255 204 102
-3.500000 -0.500000 11.000000 255 204 102
-4.000000 -0.500000 11.500000 255 204 102
-2.500000 -3.000000 14.500000 255 204 102
-1.000000 -4.500000 15.500000 255 204 102
-2.500000 -3.000000 15.500000 255 204 102
6.500000 -4.000000 6.500000 255 204 102
-2.500000 -1.000000 17.500000 255 204 102
-1.500000 2.000000 18.500000 255 204 102
-2.500000 2.000000 17.500000 255 204 102
-4.500000 3.000000 6.500000 255 204 102
-3.500000 2.000000 6.500000 255 204 102
1.500000 2.000000 20.500000 255 204 102
0.750000 -2.000000 21.250000 255 204 102
1.500000 -2.000000 20.500000 255 204 102
2.000000 3.500000 1.500000 255 255 0
2.500000 3.500000 2.000000 255 255 0
2.000000 3.250000 1.750000 255 255 0
0.750000 -2.750000 18.000000 204 255 255
1.500000 -2.000000 18.500000 204 255 255
0.750000 -2.750000 18.500000 204 255 255
5.000000 0.000000 8.000000 255 204 102
5.000000 -0.500000 7.500000 255 204 102
6.500000 -1.000000 9.500000 255 204 102
6.000000 -1.500000 10.500000 255 204 102
6.000000 -1.500000 9.500000 255 204 102
4.000000 -0.500000 11.500000 255 204 102
3.500000 -0.500000 11.000000 255 204 102
4.000000 0.000000 11.000000 255 204 102
2.000000 0.500000 8.500000 255 51 51
-2.000000 -0.500000 9.500000 255 51 51
-2.000000 1.500000 8.500000 255 51 51
2.500000 1.000000 5.500000 0 255 51
2.500000 1.000000 6.000000 0 255 51
-4.500000 3.000000 7.500000 255 204 102
-5.000000 3.500000 9.500000 255 204 102
1.000000 2.500000 18.500000 255 204 102
2.500000 -3.000000 14.500000 255 204 102
2.000000 -3.000000 14.000000 255 204 102
1.000000 -4.000000 14.000000 255 204 102
1.500000 4.500000 2.500000 255 255 0
2.000000 4.500000 3.000000 255 255 0
2.000000 4.000000 0.000000 255 255 0
2.500000 5.000000 1.500000 255 255 0
2.500000 4.000000 0.500000 255 255 0
4.000000 0.000000 14.000000 255 204 102
3.000000 -1.000000 14.000000 255 51 51
2.750000 -1.000000 14.250000 255 51 51
-3.833330 2.833330 12.333300 255 204 102
-4.000000 3.500000 11.500000 255 204 102
1.000000 1.750000 6.250000 0 255 51
-1.000000 1.750000 6.250000 0 255 51
6.000000 3.500000 10.500000 255 204 102
6.000000 3.500000 11.500000 255 204 102
-1.500000 -2.500000 2.500000 255 255 0
-2.000000 -2.500000 3.000000 255 255 0
-4.500000 4.000000 6.500000 255 204 102
-5.500000 3.000000 5.500000 255 204 102
-2.500000 1.000000 5.500000 0 255 51
-2.500000 1.000000 6.000000 0 255 51
-3.750000 -0.750000 11.500000 255 204 102
-3.750000 -0.750000 13.500000 255 204 102
-3.750000 0.000000 10.750000 255 204 102
-1.000000 -4.500000 14.500000 255 204 102
-2.000000 -3.000000 14.000000 255 204 102
-1.000000 -4.000000 14.000000 255 204 102
1.500000 5.000000 1.500000 255 255 0
2.000000 5.500000 1.500000 255 255 0
-6.500000 0.000000 9.500000 255 204 102
2.500000 4.500000 2.000000 0 255 51
2.500000 4.500000 2.500000 0 255 51
2.500000 4.000000 2.500000 0 255 51
1.000000 0.250000 6.250000 0 255 51
-1.000000 0.250000 6.250000 0 255 51
1.000000 2.500000 20.500000 255 204 102
0.750000 2.000000 21.250000 255 204 102
-1.000000 -1.500000 4.500000 0 255 51
4.500000 1.000000 8.500000 255 204 102
4.500000 0.000000 8.500000 255 204 102
2.000000 1.500000 6.000000 255 51 51
2.000000 1.500000 8.500000 255 51 51
-6.500000 4.000000 6.500000 255 204 102
1.000000 -2.500000 20.500000 255 204 102
-1.000000 -2.500000 20.500000 255 204 102
3.250000 3.000000 10.750000 255 204 102
4.000000 3.500000 10.500000 255 204 102
4.000000 3.000000 10.000000 255 204 102
-1.500000 -2.000000 2.500000 0 255 51
-2.000000 -2.500000 3.000000 0 255 51
-1.500000 -2.500000 2.500000 0 255 51
1.500000 4.000000 0.500000 255 255 0
2.000000 -3.000000 16.000000 255 204 102
-2.000000 -3.000000 16.000000 255 204 102
6.000000 -0.500000 6.500000 255 204 102
3.000000 3.000000 14.000000 255 51 51
3.000000 3.500000 13.500000 255 51 51
3.833330 2.833330 12.333300 255 204 102
1.500000 3.500000 2.000000 255 255 0
1.500000 4.000000 1.500000 255 255 0
-2.000000 2.500000 17.500000 255 204 102
6.000000 -4.500000 6.500000 255 204 102
-0.750000 -2.000000 21.250000 255 255 102
-2.000000 -4.500000 2.500000 255 255 0
-1.500000 -3.000000 1.500000 255 255 0
-1.500000 -4.000000 2.500000 255 255 0
-2.000000 -2.000000 14.000000 255 204 102
5.000000 -4.500000 5.500000 255 204 102
-1.000000 1.750000 14.250000 255 204 102
-3.000000 3.000000 14.000000 255 51 51
-3.000000 -0.500000 10.500000 255 51 51
-2.500000 -3.000000 1.500000 255 255 0
-2.000000 -3.000000 1.000000 255 255 0
3.750000 2.750000 12.500000 255 51 51
3.500000 3.500000 12.000000 255 51 51
3.000000 3.500000 12.500000 255 51 51
-2.500000 -2.500000 2.000000 0 255 51
-2.500000 -2.500000 2.500000 0 255 51
-2.500000 -2.000000 2.500000 0 255 51
3.750000 2.750000 13.500000 255 51 51
-3.750000 0.000000 10.750000 255 51 51
-4.000000 2.000000 14.000000 255 204 102
-4.000000 2.500000 13.500000 255 204 102
3.000000 -0.500000 10.500000 255 51 51
3.000000 -1.500000 11.500000 255 51 51
2.000000 3.250000 1.750000 0 255 51
-2.500000 0.000000 15.500000 255 204 102
-2.500000 0.000000 14.500000 255 204 102
2.500000 4.500000 2.500000 255 255 0
-3.000000 3.500000 11.500000 255 51 51
-2.000000 1.500000 4.500000 0 255 51
-3.750000 2.750000 13.500000 255 204 102
-3.750000 2.750000 12.500000 255 204 102
6.000000 -1.500000 5.500000 255 204 102
6.500000 -1.000000 6.500000 255 204 102
4.000000 2.500000 13.500000 255 204 102
2.000000 0.500000 6.000000 255 51 51
2.500000 1.000000 6.000000 255 51 51
-4.500000 2.000000 7.500000 255 204 102
3.500000 3.500000 11.000000 255 51 51
3.500000 2.500000 14.000000 255 204 102
4.000000 2.000000 14.000000 255 204 102
-5.000000 3.500000 7.500000 255 204 102
-6.000000 3.500000 7.500000 255 204 102
0.750000 -2.750000 18.000000 255 204 102
-5.000000 -0.500000 9.500000 255 204 102
-1.000000 2.500000 20.500000 255 204 102
-1.500000 2.000000 20.500000 255 204 102
5.000000 -1.500000 9.500000 255 204 102
-1.500000 -3.000000 19.500000 255 204 102
-0.833333 -2.833330 18.666700 255 204 102
2.000000 4.000000 3.000000 0 255 51
2.000000 4.500000 3.000000 0 255 51
1.500000 -1.500000 18.000000 204 255 255
1.500000 -1.500000 19.000000 204 255 255
3.000000 2.500000 10.500000 255 51 51
-2.000000 2.500000 9.500000 255 51 51
-3.000000 2.500000 10.500000 255 51 51
1.500000 4.000000 2.500000 0 255 51
1.500000 4.500000 2.500000 0 255 51
-3.500000 2.500000 14.000000 255 204 102
-4.500000 2.000000 10.500000 255 204 102
6.500000 -2.000000 5.500000 255 204 102
-2.500000 -2.000000 1.500000 255 255 0
-0.750000 -2.750000 18.000000 255 204 102
4.500000 -1.000000 9.500000 255 204 102
0.000000 2.500000 15.500000 255 204 102
2.500000 0.000000 15.500000 255 204 102
-2.500000 -1.000000 14.500000 255 204 102
-2.750000 0.000000 14.250000 255 204 102
-2.750000 -1.000000 14.250000 255 204 102
-2.750000 -1.000000 14.250000 255 51 51
2.000000 2.500000 9.500000 255 51 51
6.500000 -1.000000 10.500000 255 204 102
3.500000 3.500000 11.000000 255 204 102
-2.000000 -1.250000 1.750000 255 255 0
-2.000000 -2.000000 1.000000 255 255 0
5.500000 -2.000000 5.500000 255 204 102
6.000000 1.000000 8.000000 255 204 102
5.000000 1.000000 8.000000 255 204 102
-1.000000 -4.000000 16.000000 255 204 102
1.000000 -4.000000 16.000000 255 204 102
0.750000 -2.000000 21.250000 255 255 102
-3.500000 3.500000 11.000000 255 51 51
0.000000 -0.500000 13.500000 255 51 51
-0.166667 -0.833333 13.666700 255 51 51
-1.000000 -1.500000 13.500000 255 51 51
3.750000 0.000000 10.750000 255 51 51
3.750000 2.000000 10.750000 255 51 51
0.166667 -0.833333 13.666700 255 51 51
1.000000 -1.500000 13.500000 255 51 51
0.500000 -1.500000 14.000000 255 51 51
2.500000 4.000000 1.500000 255 255 0
2.500000 4.500000 2.000000 255 255 0
2.500000 -1.000000 17.500000 255 204 102
2.500000 -1.750000 13.750000 255 51 51
6.500000 1.000000 8.500000 255 204 102
-4.500000 0.000000 9.500000 255 204 102
-6.500000 3.000000 11.500000 255 204 102
6.500000 3.000000 10.500000 255 204 102
0.833333 -2.833330 18.666700 255 204 102
-2.000000 -2.000000 3.000000 0 255 51
-1.500000 -2.000000 1.500000 255 255 0
-2.500000 -3.000000 2.500000 255 255 0
-2.500000 -2.500000 2.500000 255 255 0
3.750000 2.750000 12.500000 255 204 102
3.750000 2.750000 13.500000 255 204 102
3.750000 -0.750000 13.500000 255 204 102
3.750000 -0.750000 11.500000 255 204 102
-3.000000 3.500000 12.500000 255 51 51
-2.500000 -4.000000 2.500000 255 255 0
4.000000 -0.500000 13.500000 255 204 102
3.500000 -0.500000 14.000000 255 204 102
-3.000000 -1.500000 13.500000 255 51 51
-2.500000 -1.500000 14.000000 255 204 102
-2.000000 -1.250000 1.750000 0 255 51
-2.500000 1.000000 4.500000 0 255 51
0.000000 -1.000000 14.000000 255 204 102
-0.166667 -0.833333 13.666700 255 204 102
0.000000 -0.750000 13.750000 255 204 102
1.500000 3.500000 2.000000 0 255 51
-6.500000 3.000000 7.500000 255 204 102
0.750000 2.000000 21.250000 255 255 102
1.500000 -1.500000 19.000000 255 204 102
1.500000 -2.500000 19.000000 255 204 102
1.500000 4.500000 2.000000 255 255 0
0.500000 -2.500000 21.000000 255 204 102
-1.500000 -2.500000 2.000000 255 255 0
-1.500000 -3.000000 2.500000 255 255 0
-1.500000 -2.500000 19.000000 204 255 255
-0.750000 -2.750000 18.500000 204 255 255
-0.833333 -2.833330 18.666700 204 255 255
-1.500000 -1.500000 18.000000 204 255 255
-1.500000 -2.000000 18.000000 204 255 255
-1.500000 -2.000000 18.500000 204 255 255
1.833330 0.833333 14.333300 255 204 102
2.500000 1.000000 4.500000 0 255 51
2.500000 3.500000 2.000000 0 255 51
-1.000000 2.500000 18.500000 255 204 102
-1.833330 0.833333 14.333300 255 204 102
-1.500000 1.500000 14.000000 255 204 102
1.500000 -2.500000 19.000000 204 255 255
-2.500000 -1.750000 13.750000 255 51 51
-1.000000 -1.750000 13.750000 255 51 51
-1.500000 -1.500000 19.000000 255 204 102
-2.500000 -2.500000 2.000000 255 255 0
-4.500000 0.000000 10.500000 255 204 102
-1.500000 -1.500000 2.000000 0 255 51
-0.500000 -2.500000 21.000000 255 204 102
-6.500000 2.000000 12.500000 255 204 102
-3.000000 -1.000000 14.000000 255 51 51
-2.500000 -1.500000 14.000000 255 51 51
0.166667 -0.833333 13.666700 255 204 102
-3.500000 3.500000 12.000000 255 51 51
-5.000000 -0.500000 10.500000 255 204 102
3.500000 -0.500000 11.000000 255 51 51
-0.750000 -2.750000 18.000000 204 255 255
6.500000 0.000000 8.500000 255 204 102
2.500000 -1.750000 13.750000 255 204 102
-2.000000 0.500000 6.000000 255 51 51
-1.500000 -1.000000 18.500000 255 204 102
1.500000 -2.000000 18.000000 204 255 255
2.000000 -0.500000 9.500000 255 51 51
-2.000000 1.500000 6.000000 255 51 51
-3.500000 3.500000 12.000000 255 204 102
-6.000000 -0.500000 9.500000 255 204 102
0.500000 2.500000 21.000000 255 204 102
3.500000 3.500000 12.000000 255 204 102
-0.750000 2.000000 21.250000 255 255 102
1.000000 1.750000 14.250000 255 204 102
3.500000 2.500000 14.000000 255 51 51
3.500000 -0.500000 14.000000 255 51 51
-3.500000 2.500000 14.000000 255 51 51
-3.500000 -0.500000 14.000000 255 51 51
3.833330 2.833330 12.333300 255 51 51
-2.500000 -1.500000 2.000000 0 255 51
-3.750000 2.000000 10.750000 255 51 51
3.000000 3.500000 11.500000 255 51 51
0.750000 -2.750000 18.500000 255 204 102
-0.500000 2.500000 21.000000 255 204 102
-1.500000 -2.500000 19.000000 255 204 102
-0.750000 -2.750000 18.500000 255 204 102
-2.500000 -1.500000 2.000000 255 255 0
0.000000 -0.750000 13.750000 255 51 51
-0.500000 -1.500000 14.000000 255 51 51
1.000000 -1.750000 13.750000 255 51 51
1.500000 -3.000000 19.500000 255 204 102
-2.500000 -1.750000 13.750000 255 204 102
2.500000 -1.500000 14.000000 255 51 51
1.500000 4.500000 2.000000 0 255 51
-1.500000 -1.500000 2.000000 255 255 0
-1.500000 -1.500000 19.000000 204 255 255
1.500000 1.500000 14.000000 255 204 102
2.500000 0.500000 14.000000 255 204 102
-3.500000 -0.500000 11.000000 255 51 51
-2.500000 0.500000 14.000000 255 204 102
0.833333 -2.833330 18.666700 204 255 255
-1.500000 -2.500000 2.000000 0 255 51
-3.833330 2.833330 12.333300 255 51 51
3 0 1 2
3 3 0 2
3 4 5 6
3 7 8 9
3 10 7 9
3 11 12 13
3 14 11 13
3 15 16 17
3 18 19 20
3 20 17 21
3 22 23 24
3 25 26 27
3 28 25 27
3 29 30 31
3 31 30 32
3 32 30 33
3 34 35 36
3 37 38 39
3 36 40 39
3 41 42 43
3 44 41 43
3 45 46 47
3 48 49 50
3 5 4 51
3 51 4 52
3 52 4 53
3 54 55 56
3 57 58 59
3 58 4 59
3 4 60 59
3 54 56 61
3 62 48 63
3 64 65 66
3 67 68 69
3 70 71 72
3 73 74 75
3 76 77 78
3 79 52 80
3 81 82 83
3 84 85 86
3 87 88 89
3 90 91 59
3 92 93 94
3 95 96 97
3 98 99 100
3 101 102 103
3 104 105 106
3 107 68 108
3 109 110 71
3 70 109 71
3 111 110 112
3 109 113 110
3 114 115 116
3 117 118 119
3 120 121 122
3 123 124 125
3 126 127 116
3 128 129 130
3 129 128 131
3 132 133 134
3 135 136 137
3 138 139 140
3 141 142 143
3 144 145 146
3 147 148 149
3 148 150 151
3 152 153 154
3 155 156 157
3 158 159 160
3 161 162 163
3 164 165 166
3 167 168 169
3 170 167 171
3 172 173 174
3 172 175 176
3 170 177 178
3 175 179 180
3 181 182 183
3 67 184 185
3 186 187 188
3 189 190 191
3 192 191 193
3 194 195 196
3 197 194 196
3 198 195 199
3 200 201 197
3 60 202 59
3 203 204 205
3 206 207 208
3 209 210 211
3 212 213 214
3 215 146 216
3 209 215 216
3 217 218 219
3 220 221 222
3 51 52 79
3 14 223 11
3 142 224 143
3 225 43 100
3 48 226 49
3 227 228 37
3 229 230 231
3 232 233 234
3 235 236 237
3 107 69 68
3 238 239 240
3 235 166 241
3 35 242 243
3 244 245 246
3 247 151 200
3 248 249 250
3 251 252 253
3 254 255 213
3 256 257 258
3 259 260 261
3 262 263 264
3 265 266 267
3 64 268 65
3 269 270 271
3 272 253 252
3 260 103 102
3 273 274 275
3 260 105 261
3 276 277 278
3 279 19 18
3 280 281 282
3 228 283 284
3 285 286 287
3 288 289 290
3 291 292 293
3 120 195 194
3 107 294 295
3 296 297 298
3 299 300 301
3 302 303 255
3 304 254 213
3 305 91 306
3 307 308 244
3 72 71 110
3 309 285 253
3 250 310 311
3 312 310 220
3 9 313 314
3 315 316 317
3 72 284 70
3 318 166 165
3 108 67 185
3 319 173 320
3 321 322 265
3 323 61 324
3 236 325 326
3 183 159 158
3 223 327 328
3 329 330 225
3 331 74 332
3 262 333 334
3 273 136 335
3 336 337 338
3 315 339 340
3 341 160 159
3 342 343 344
3 226 345 346
3 347 348 285
3 24 349 29
3 179 177 180
3 350 294 351
3 45 352 353
3 354 98 100
3 88 96 89
3 122 355 356
3 357 358 359
3 5 24 6
3 360 361 362
3 363 2 1
3 364 148 365
3 366 67 69
3 238 367 368
3 120 197 201
3 10 340 7
3 369 234 233
3 288 370 371
3 50 29 349
3 242 341 243
3 281 372 282
3 106 103 373
3 34 111 242
3 144 374 145
3 375 376 377
3 8 340 339
3 276 378 337
3 223 12 11
3 373 379 19
3 90 202 323
3 189 191 380
3 381 178 179
3 115 229 382
3 375 383 384
3 385 386 387
3 388 389 390
3 391 387 368
3 392 212 214
3 181 393 394
3 50 63 48
3 127 395 396
3 4 31 55
3 44 40 41
3 53 58 397
3 232 236 326
3 398 189 399
3 10 314 400
3 401 139 134
3 32 402 31
3 265 403 404
3 181 265 267
3 28 18 21
3 405 184 406
3 407 188 187
3 45 408 409
3 110 410 112
3 211 117 119
3 139 411 140
3 200 196 247
3 407 412 413
3 414 98 415
3 416 200 151
3 417 242 112
3 39 227 37
3 92 418 419
3 420 104 106
3 421 422 122
3 266 322 308
3 423 343 424
3 220 277 336
3 292 425 426
3 420 297 130
3 427 428 429
3 430 424 431
3 158 262 264
3 394 432 403
3 40 35 42
3 433 244 246
3 210 216 162
3 434 27 405
3 435 384 383
3 436 198 199
3 164 188 165
3 437 130 129
3 438 191 190
3 283 113 284
3 439 221 249
3 15 20 19
3 193 438 272
3 440 441 442
3 168 443 169
3 259 17 16
3 46 444 427
3 241 445 235
3 317 2 315
3 233 358 446
3 34 39 38
3 435 447 448
3 38 228 111
3 449 27 26
3 216 145 162
3 125 450 451
3 452 222 453
3 210 161 454
3 134 455 401
3 456 457 458
3 22 66 23
3 459 46 460
3 461 462 463
3 288 3 464
3 465 464 316
3 466 208 150
3 456 127 462
3 128 301 131
3 64 5 51
3 365 453 364
3 330 44 225
3 467 462 217
3 264 393 158
3 468 256 450
3 127 217 462
3 112 469 417
3 305 423 59
3 142 131 301
3 97 88 304
3 470 267 266
3 468 325 471
3 472 121 201
3 70 113 109
3 473 33 30
3 338 220 336
3 367 391 368
3 240 381 238
3 186 232 187
3 474 384 448
3 192 439 269
3 294 258 295
3 414 329 99
3 118 144 119
3 475 328 476
3 26 21 259
3 407 477 478
3 288 1 0
3 225 99 329
3 299 479 480
3 473 389 361
3 257 366 258
3 145 163 162
3 275 262 160
3 401 481 387
3 60 61 202
3 482 13 12
3 483 484 479
3 54 4 55
3 114 485 229
3 440 442 486
3 219 319 217
3 487 488 402
3 82 77 83
3 261 105 185
3 366 295 258
3 377 13 375
3 489 490 491
3 492 57 430
3 470 493 243
3 407 232 234
3 211 454 494
3 470 415 493
3 415 354 493
3 198 196 195
3 451 256 294
3 495 287 496
3 349 66 63
3 128 241 299
3 304 444 353
3 447 474 448
3 413 484 318
3 497 8 339
3 156 250 157
3 456 114 116
3 305 52 53
3 286 498 355
3 376 499 500
3 501 502 503
3 30 49 75
3 185 405 449
3 142 359 124
3 126 115 303
3 504 505 506
3 269 507 192
3 508 397 509
3 298 279 296
3 105 101 106
3 423 57 59
3 16 379 260
3 419 510 281
3 214 382 392
3 421 356 93
3 511 189 512
3 255 82 302
3 513 293 292
3 514 458 515
3 261 26 259
3 419 516 93
3 517 435 383
3 518 137 273
3 510 309 438
3 65 226 62
3 33 360 519
3 31 24 29
3 398 440 278
3 147 280 278
3 149 247 198
3 61 56 324
3 355 520 356
3 182 267 521
3 522 485 523
3 483 241 166
3 489 524 155
3 312 153 157
3 131 350 351
3 525 239 481
3 378 154 153
3 273 526 518
3 488 331 85
3 244 433 410
3 350 125 451
3 428 304 212
3 469 526 417
3 65 63 66
3 395 459 527
3 502 505 528
3 92 419 93
3 217 396 218
3 220 310 221
3 79 345 268
3 268 51 79
3 14 500 223
3 142 301 224
3 225 44 43
3 48 62 226
3 227 330 228
3 229 485 230
3 232 326 233
3 186 164 237
3 235 445 296
3 296 279 257
3 18 28 434
3 434 406 257
3 529 468 235
3 18 434 279
3 468 471 235
3 279 434 257
3 257 529 296
3 237 164 235
3 471 236 235
3 235 296 529
3 107 295 69
3 238 481 239
3 235 164 166
3 35 34 242
3 244 308 245
3 247 148 151
3 248 270 249
3 250 530 248
3 251 466 252
3 254 531 255
3 256 529 257
3 259 16 260
3 262 334 263
3 265 322 266
3 64 51 268
3 269 249 270
3 272 309 253
3 260 379 103
3 333 275 274
3 273 335 274
3 260 102 105
3 276 336 277
3 279 373 19
3 280 532 281
3 228 330 283
3 285 348 286
3 288 464 289
3 291 533 292
3 120 199 195
3 107 351 294
3 296 445 297
3 224 301 300
3 299 480 300
3 302 534 303
3 304 535 254
3 305 59 91
3 307 414 308
3 110 111 228
3 228 72 110
3 309 347 285
3 250 249 310
3 312 311 310
3 9 8 313
3 315 340 316
3 72 228 284
3 318 483 166
3 108 68 67
3 319 174 173
3 321 536 322
3 265 404 321
3 323 202 61
3 236 471 325
3 183 182 159
3 223 500 327
3 329 283 330
3 331 75 74
3 262 275 333
3 273 137 136
3 336 276 337
3 315 363 339
3 341 537 160
3 305 508 344
3 509 342 344
3 344 508 509
3 226 268 345
3 347 538 348
3 24 23 349
3 179 178 177
3 350 451 294
3 45 409 352
3 100 43 42
3 42 354 100
3 88 97 96
3 122 121 355
3 357 446 358
3 5 22 24
3 360 473 361
3 363 315 2
3 147 365 148
3 364 150 148
3 366 184 67
3 238 381 367
3 120 194 197
3 10 316 340
3 369 477 234
3 233 539 369
3 288 290 370
3 50 30 29
3 242 537 341
3 281 510 372
3 373 298 106
3 106 101 103
3 298 420 106
3 112 242 111
3 34 38 111
3 144 540 374
3 375 384 376
3 8 7 340
3 276 440 378
3 223 475 12
3 373 103 379
3 379 15 19
3 90 59 202
3 541 380 191
3 191 192 541
3 175 542 367
3 174 319 543
3 543 542 174
3 367 381 179
3 544 545 168
3 168 167 544
3 545 522 168
3 174 542 172
3 179 175 367
3 544 167 170
3 544 170 381
3 172 542 175
3 170 178 381
3 115 114 229
3 375 482 383
3 385 546 386
3 331 488 390
3 547 388 390
3 390 488 547
3 391 385 387
3 392 548 212
3 181 183 393
3 50 349 63
3 127 126 395
3 4 6 31
3 44 227 40
3 53 4 58
3 58 492 397
3 232 237 236
3 398 190 189
3 10 9 314
3 429 134 139
3 401 549 139
3 139 427 429
3 56 55 402
3 32 519 487
3 55 31 402
3 487 402 32
3 265 394 403
3 181 394 265
3 20 21 18
3 25 28 21
3 406 434 405
3 184 366 406
3 407 413 188
3 45 302 408
3 110 113 410
3 119 215 211
3 211 494 117
3 215 209 211
3 139 549 411
3 200 197 196
3 407 478 412
3 414 99 98
3 151 208 207
3 416 550 201
3 151 207 416
3 416 201 200
3 417 537 242
3 39 40 227
3 92 551 418
3 420 437 104
3 120 122 199
3 421 552 422
3 422 553 199
3 199 122 422
3 414 415 308
3 322 536 245
3 308 415 266
3 322 245 308
3 423 344 343
3 220 222 277
3 292 533 425
3 426 513 292
3 420 298 297
3 427 444 428
3 430 423 424
3 158 160 262
3 394 393 432
3 42 41 40
3 40 36 35
3 246 135 433
3 137 433 135
3 210 209 216
3 434 28 27
3 435 448 384
3 436 205 149
3 204 149 205
3 199 553 436
3 436 149 198
3 164 186 188
3 437 420 130
3 398 282 190
3 372 438 190
3 190 282 372
3 283 410 113
3 310 249 221
3 439 252 466
3 249 269 439
3 466 221 439
3 15 17 20
3 272 252 193
3 193 191 438
3 252 439 193
3 440 399 441
3 168 522 443
3 259 21 17
3 139 138 427
3 46 45 353
3 427 138 460
3 353 444 46
3 427 460 46
3 241 297 445
3 317 3 2
3 233 326 325
3 325 358 233
3 446 539 233
3 34 36 39
3 435 554 447
3 38 37 228
3 449 405 27
3 216 146 145
3 125 359 358
3 325 450 125
3 125 358 325
3 452 277 222
3 210 162 161
3 134 133 455
3 456 555 457
3 457 556 458
3 515 458 556
3 22 64 66
3 459 47 46
3 461 555 456
3 456 462 461
3 557 463 462
3 288 0 3
3 317 316 464
3 10 400 465
3 465 289 464
3 464 3 317
3 316 10 465
3 364 453 222
3 221 466 150
3 466 251 206
3 364 222 221
3 208 151 150
3 150 364 221
3 466 206 208
3 456 116 127
3 128 299 301
3 64 22 5
3 365 452 453
3 330 227 44
3 467 557 462
3 264 263 432
3 393 183 158
3 264 432 393
3 468 529 256
3 127 396 217
3 112 410 469
3 305 344 423
3 142 124 131
3 304 353 97
3 352 95 97
3 88 87 535
3 353 352 97
3 88 535 304
3 470 521 267
3 468 450 325
3 201 550 472
3 472 496 558
3 558 121 472
3 120 201 121
3 70 284 113
3 473 360 33
3 338 312 220
3 367 542 391
3 240 544 381
3 186 237 232
3 474 376 384
3 192 193 439
3 294 256 258
3 414 307 329
3 215 119 144
3 118 540 144
3 144 146 215
3 475 223 328
3 26 25 21
3 407 234 477
3 288 371 1
3 225 100 99
3 299 483 479
3 473 390 389
3 257 406 366
3 145 374 163
3 160 537 526
3 526 275 160
3 537 417 526
3 387 386 549
3 386 411 549
3 238 368 387
3 455 525 401
3 481 238 387
3 387 549 401
3 401 525 481
3 60 54 61
3 482 375 13
3 483 318 484
3 54 60 4
3 114 458 485
3 378 440 486
3 486 559 378
3 467 217 560
3 219 543 319
3 319 320 560
3 560 217 319
3 487 547 488
3 82 78 77
3 108 185 105
3 449 261 185
3 366 69 295
3 377 14 13
3 489 152 490
3 431 561 430
3 492 58 57
3 430 561 492
3 42 35 354
3 243 341 470
3 159 182 521
3 521 470 341
3 493 354 35
3 35 243 493
3 159 521 341
3 407 187 232
3 211 210 454
3 470 266 415
3 415 98 354
3 198 247 196
3 451 450 256
3 558 496 287
3 495 206 251
3 251 253 285
3 285 287 495
3 495 251 285
3 349 23 66
3 128 130 297
3 297 241 128
3 304 428 444
3 447 562 474
3 165 188 413
3 413 412 484
3 318 165 413
3 339 363 371
3 371 370 497
3 363 1 371
3 313 8 497
3 339 371 497
3 156 530 250
3 456 458 114
3 53 508 305
3 305 306 80
3 80 52 305
3 121 558 355
3 287 286 355
3 355 558 287
3 14 377 500
3 376 474 499
3 499 327 500
3 474 562 499
3 500 377 376
3 501 506 502
3 75 331 30
3 390 473 30
3 30 50 49
3 49 226 73
3 346 73 226
3 331 390 30
3 49 73 75
3 185 184 405
3 125 124 359
3 142 141 359
3 357 359 141
3 303 534 126
3 126 116 115
3 534 395 126
3 115 382 303
3 563 504 506
3 506 501 563
3 541 192 564
3 269 271 565
3 507 564 192
3 269 565 507
3 508 53 397
3 298 373 279
3 105 102 101
3 423 430 57
3 16 15 379
3 419 418 510
3 214 213 255
3 255 303 214
3 382 229 566
3 566 392 382
3 229 231 566
3 214 303 382
3 94 93 356
3 421 122 356
3 356 520 94
3 511 567 399
3 441 399 567
3 189 380 512
3 511 399 189
3 408 302 82
3 255 531 78
3 531 76 78
3 82 81 408
3 255 78 82
3 513 568 293
3 514 485 458
3 261 449 26
3 421 93 552
3 419 281 532
3 532 203 516
3 516 552 93
3 419 532 516
3 383 482 475
3 475 476 517
3 482 12 475
3 554 435 517
3 383 475 517
3 518 433 137
3 510 418 309
3 551 538 347
3 309 272 438
3 551 347 418
3 438 372 510
3 418 347 309
3 65 268 226
3 569 519 360
3 32 33 519
3 360 362 569
3 31 6 24
3 278 280 398
3 398 399 440
3 280 282 398
3 440 276 278
3 147 149 204
3 203 532 280
3 147 204 280
3 277 452 365
3 204 203 280
3 278 277 365
3 365 147 278
3 149 148 247
3 84 324 56
3 56 85 84
3 355 498 520
3 182 181 267
3 514 523 485
3 522 545 230
3 523 443 522
3 230 485 522
3 483 299 241
3 489 491 524
3 250 311 157
3 312 338 153
3 337 378 153
3 152 489 155
3 338 337 153
3 153 152 155
3 157 311 312
3 153 155 157
3 351 107 437
3 108 105 104
3 437 129 131
3 108 104 107
3 123 350 131
3 107 104 437
3 437 131 351
3 124 123 131
3 525 570 239
3 378 559 154
3 273 275 526
3 56 402 85
3 331 332 86
3 85 402 488
3 331 86 85
3 307 244 410
3 433 518 469
3 410 283 307
3 433 469 410
3 283 329 307
3 350 123 125
3 548 132 429
3 429 428 212
3 132 134 429
3 304 213 212
3 212 548 429
3 469 518 526
3 65 62 63
3 218 396 527
3 395 534 47
3 302 45 47
3 47 459 395
3 527 396 395
3 534 302 47
3 502 506 505
