ply
format ascii 1.0
comment Created by Blender 2.78 (sub 0) - www.blender.org, source file: ''
element vertex 571
property float x
property float y
property float z
property uchar red
property uchar green
property uchar blue
element face 932
property list uchar uint vertex_indices
end_header
2.000000 2.500000 0.500000 255 255 0
1.500000 3.000000 0.500000 255 255 0
2.000000 3.000000 0.000000 255 255 0
2.500000 3.000000 0.500000 255 255 0
1.000000 1.000000 5.000000 0 255 51
1.500000 0.000000 4.500000 0 255 51
1.000000 0.000000 4.000000 0 255 51
2.000000 5.500000 2.500000 255 255 0
1.500000 5.000000 2.500000 255 255 0
2.000000 5.000000 3.000000 255 255 0
2.500000 5.000000 2.500000 255 255 0
-2.000000 -4.000000 4.000000 255 255 0
-2.500000 -4.000000 3.500000 255 255 0
-2.000000 -4.500000 3.500000 255 255 0
-1.500000 -4.000000 3.500000 255 255 0
5.000000 -4.500000 4.500000 255 204 102
4.500000 -4.000000 4.500000 255 204 102
5.000000 -4.000000 4.000000 255 204 102
6.500000 -4.000000 4.500000 255 204 102
6.000000 -4.500000 4.500000 255 204 102
6.000000 -4.000000 4.000000 255 204 102
6.000000 -3.000000 4.000000 255 204 102
1.500000 -1.000000 4.500000 0 255 51
1.000000 -1.500000 4.500000 0 255 51
1.000000 -1.000000 4.000000 0 255 51
6.000000 -2.000000 4.000000 255 204 102
5.500000 -2.000000 4.500000 255 204 102
6.000000 -1.500000 4.500000 255 204 102
6.500000 -2.000000 4.500000 255 204 102
-1.000000 -1.000000 4.000000 0 255 51
-2.000000 -0.500000 4.500000 0 255 51
-1.000000 0.000000 4.000000 0 255 51
-1.500000 0.000000 3.500000 0 255 51
-1.500000 -1.000000 3.500000 0 255 51
-6.000000 1.500000 4.500000 255 204 102
-6.500000 2.000000 4.500000 255 204 102
-6.000000 2.000000 4.000000 255 204 102
-4.500000 2.000000 4.500000 255 204 102
-5.000000 1.500000 4.500000 255 204 102
-5.000000 2.000000 4.000000 255 204 102
-6.000000 3.000000 4.000000 255 204 102
-6.000000 4.000000 4.000000 255 204 102
-6.500000 4.000000 4.500000 255 204 102
-6.000000 4.500000 4.500000 255 204 102
-5.500000 4.000000 4.500000 255 204 102
2.500000 1.000000 8.500000 255 51 51
2.500000 2.000000 9.500000 255 51 51
2.500000 0.000000 9.500000 255 51 51
-1.500000 -1.000000 5.500000 0 255 51
-1.500000 0.000000 5.500000 0 255 51
-1.500000 -1.000000 4.500000 0 255 51
1.500000 0.000000 5.500000 0 255 51
2.000000 0.500000 5.500000 0 255 51
2.000000 0.500000 4.500000 0 255 51
-1.000000 2.000000 5.000000 0 255 51
-1.000000 1.000000 5.000000 0 255 51
-1.500000 2.000000 5.500000 0 255 51
1.500000 2.000000 4.500000 0 255 51
1.500000 1.000000 4.500000 0 255 51
2.000000 1.500000 5.500000 0 255 51
1.000000 2.000000 5.000000 0 255 51
-1.000000 2.500000 5.500000 0 255 51
-1.000000 -1.000000 6.000000 0 255 51
-1.000000 -1.500000 5.500000 0 255 51
1.500000 -1.000000 5.500000 0 255 51
1.000000 -1.000000 6.000000 0 255 51
1.000000 -1.500000 5.500000 0 255 51
4.000000 -1.000000 6.000000 255 204 102
3.500000 -1.000000 6.500000 255 204 102
4.000000 -0.500000 6.500000 255 204 102
-3.500000 1.000000 6.500000 255 204 102
-4.000000 0.500000 6.500000 255 204 102
-4.000000 1.000000 6.000000 255 204 102
-1.500000 0.500000 6.000000 0 255 51
-2.000000 0.500000 6.000000 0 255 51
-2.000000 0.500000 5.500000 0 255 51
-1.500000 0.500000 6.000000 255 51 51
-1.000000 0.250000 6.250000 255 51 51
-1.000000 0.500000 6.500000 255 51 51
1.500000 0.500000 6.000000 0 255 51
2.000000 0.500000 6.000000 0 255 51
1.500000 0.500000 6.000000 255 51 51
1.000000 0.500000 6.500000 255 51 51
1.000000 0.250000 6.250000 255 51 51
-1.500000 1.500000 6.000000 0 255 51
-2.000000 1.500000 5.500000 0 255 51
-2.000000 1.500000 6.000000 0 255 51
-1.500000 1.500000 6.000000 255 51 51
-1.000000 1.500000 6.500000 255 51 51
-1.000000 1.750000 6.250000 255 51 51
1.500000 1.500000 6.000000 0 255 51
2.000000 1.500000 6.000000 0 255 51
-1.000000 1.500000 15.500000 255 204 102
-2.500000 0.000000 14.500000 255 204 102
-2.500000 0.000000 15.500000 255 204 102
1.500000 1.500000 6.000000 255 51 51
1.000000 1.750000 6.250000 255 51 51
1.000000 1.500000 6.500000 255 51 51
-6.000000 4.500000 6.500000 255 204 102
-5.000000 4.500000 6.500000 255 204 102
-6.000000 4.500000 5.500000 255 204 102
4.000000 -4.000000 7.000000 255 204 102
3.500000 -4.000000 6.500000 255 204 102
4.000000 -4.500000 6.500000 255 204 102
4.500000 -3.000000 7.500000 255 204 102
4.500000 -3.000000 6.500000 255 204 102
5.000000 -3.500000 7.500000 255 204 102
4.500000 -1.000000 7.500000 255 204 102
4.500000 -2.000000 6.500000 255 204 102
-4.000000 1.000000 7.000000 255 204 102
-4.500000 1.000000 6.500000 255 204 102
-5.000000 1.500000 6.500000 255 204 102
-5.000000 1.500000 7.500000 255 204 102
-4.000000 2.000000 7.000000 255 204 102
-1.000000 -1.500000 11.500000 255 51 51
-1.000000 -0.500000 10.500000 255 51 51
0.000000 -0.500000 11.500000 255 51 51
0.500000 2.500000 21.000000 255 255 102
-0.500000 2.500000 21.000000 255 255 102
0.000000 2.500000 21.500000 255 255 102
0.000000 -3.500000 18.500000 255 204 102
1.000000 -3.500000 19.500000 255 204 102
-1.000000 -3.500000 19.500000 255 204 102
4.500000 2.000000 9.500000 255 204 102
4.500000 2.000000 10.500000 255 204 102
5.000000 2.500000 9.500000 255 204 102
1.000000 -0.500000 10.500000 255 51 51
1.000000 -1.500000 11.500000 255 51 51
5.000000 -1.000000 11.000000 255 204 102
4.500000 -1.000000 10.500000 255 204 102
5.000000 -1.500000 10.500000 255 204 102
4.500000 0.000000 10.500000 255 204 102
-3.500000 2.500000 11.000000 255 51 51
-3.250000 3.000000 10.750000 255 51 51
-3.000000 3.000000 11.000000 255 51 51
-3.500000 2.500000 11.000000 255 204 102
-3.750000 2.000000 10.750000 255 204 102
-4.000000 2.000000 11.000000 255 204 102
3.500000 2.500000 11.000000 255 51 51
3.000000 3.000000 11.000000 255 51 51
3.250000 3.000000 10.750000 255 51 51
3.500000 2.500000 11.000000 255 204 102
4.000000 2.000000 11.000000 255 204 102
3.750000 2.000000 10.750000 255 204 102
-0.500000 2.000000 21.500000 255 255 102
-0.500000 -2.000000 21.500000 255 255 102
-0.500000 -2.000000 25.500000 255 255 102
-2.000000 -2.500000 16.500000 255 204 102
0.000000 -2.500000 16.500000 255 204 102
-1.000000 -2.500000 17.500000 255 204 102
2.000000 -2.500000 16.500000 255 204 102
1.000000 -2.500000 17.500000 255 204 102
-0.500000 -1.500000 14.000000 255 204 102
-1.000000 -2.000000 14.000000 255 204 102
-1.000000 -1.750000 13.750000 255 204 102
0.500000 -1.500000 14.000000 255 204 102
1.000000 -1.750000 13.750000 255 204 102
1.000000 -2.000000 14.000000 255 204 102
-6.000000 0.000000 14.000000 255 204 102
-6.500000 0.000000 13.500000 255 204 102
-6.000000 -0.500000 13.500000 255 204 102
0.500000 -2.500000 21.000000 255 255 102
0.000000 -2.500000 21.500000 255 255 102
-0.500000 -2.500000 21.000000 255 255 102
6.500000 0.000000 13.500000 255 204 102
6.000000 0.000000 14.000000 255 204 102
6.000000 -0.500000 13.500000 255 204 102
-2.500000 0.500000 14.000000 255 51 51
-3.000000 0.000000 14.000000 255 51 51
-2.750000 0.000000 14.250000 255 51 51
-1.500000 1.500000 14.000000 255 51 51
-1.833330 0.833333 14.333300 255 51 51
2.500000 0.500000 14.000000 255 51 51
2.750000 0.000000 14.250000 255 51 51
3.000000 0.000000 14.000000 255 51 51
1.500000 1.500000 14.000000 255 51 51
1.833330 0.833333 14.333300 255 51 51
-1.000000 1.750000 14.250000 255 51 51
-1.000000 2.000000 14.000000 255 51 51
1.000000 2.000000 14.000000 255 51 51
1.000000 1.750000 14.250000 255 51 51
-6.000000 2.500000 13.500000 255 204 102
-6.500000 2.000000 13.500000 255 204 102
-6.000000 2.000000 14.000000 255 204 102
6.000000 -1.000000 6.000000 255 204 102
5.000000 -2.000000 6.000000 255 204 102
6.500000 2.000000 13.500000 255 204 102
6.000000 2.500000 13.500000 255 204 102
6.000000 2.000000 14.000000 255 204 102
-1.000000 1.500000 14.500000 255 204 102
0.000000 1.500000 14.500000 255 204 102
1.000000 1.500000 14.500000 255 204 102
1.000000 1.500000 15.500000 255 204 102
0.000000 -4.500000 17.500000 255 204 102
-0.500000 -4.000000 17.500000 255 204 102
0.000000 -4.000000 17.000000 255 204 102
0.500000 -4.000000 17.500000 255 204 102
-0.500000 -3.000000 17.500000 255 204 102
-0.500000 -3.000000 18.500000 255 204 102
0.500000 -3.000000 17.500000 255 204 102
0.500000 -3.000000 18.500000 255 204 102
1.000000 2.500000 5.500000 0 255 51
-1.500000 -1.500000 18.000000 255 204 102
-1.500000 -2.000000 17.500000 255 204 102
-1.500000 -2.000000 18.000000 255 204 102
1.500000 -1.500000 18.000000 255 204 102
1.500000 -2.000000 18.000000 255 204 102
1.500000 -2.000000 17.500000 255 204 102
0.500000 -2.000000 25.500000 255 255 102
0.500000 -2.000000 21.500000 255 255 102
0.500000 2.000000 21.500000 255 255 102
-2.500000 2.000000 9.500000 255 51 51
-2.500000 1.000000 8.500000 255 51 51
-2.500000 0.000000 9.500000 255 51 51
0.000000 -2.000000 26.000000 255 255 102
0.000000 -2.500000 25.500000 255 255 102
2.500000 -3.000000 14.500000 255 204 102
1.000000 -4.500000 15.500000 255 204 102
1.000000 -4.500000 14.500000 255 204 102
-1.000000 -4.500000 14.500000 255 204 102
-2.500000 -3.000000 15.500000 255 204 102
-2.500000 -3.000000 14.500000 255 204 102
0.750000 2.000000 21.250000 255 204 102
1.500000 -2.000000 20.500000 255 204 102
1.500000 2.000000 20.500000 255 204 102
2.000000 4.000000 0.000000 255 255 0
2.500000 5.000000 1.500000 255 255 0
2.500000 4.000000 0.500000 255 255 0
2.000000 -3.000000 14.000000 255 204 102
1.000000 -4.000000 14.000000 255 204 102
1.000000 0.000000 6.000000 0 255 51
4.000000 0.000000 11.000000 255 204 102
4.500000 -4.000000 5.500000 255 204 102
-4.500000 3.000000 6.500000 255 204 102
-3.500000 2.000000 6.500000 255 204 102
-4.500000 0.000000 9.500000 255 204 102
-5.000000 -0.500000 9.500000 255 204 102
-2.000000 -3.000000 1.000000 255 255 0
-1.500000 -4.000000 2.500000 255 255 0
-2.000000 -4.500000 2.500000 255 255 0
3.500000 -0.500000 11.000000 255 204 102
3.750000 0.000000 10.750000 255 204 102
4.500000 1.000000 8.500000 255 204 102
5.000000 1.000000 8.000000 255 204 102
-1.500000 -1.000000 18.500000 255 204 102
-2.500000 2.000000 17.500000 255 204 102
-2.500000 -1.000000 17.500000 255 204 102
2.000000 3.500000 1.500000 255 255 0
2.500000 3.500000 2.000000 255 255 0
2.000000 3.250000 1.750000 255 255 0
2.500000 0.000000 14.500000 255 204 102
-0.750000 2.000000 21.250000 255 204 102
-1.000000 2.500000 20.500000 255 204 102
-1.500000 2.000000 20.500000 255 204 102
3.750000 2.000000 10.750000 255 51 51
3.750000 0.000000 10.750000 255 51 51
2.750000 -1.000000 14.250000 255 51 51
3.000000 -1.000000 14.000000 255 51 51
-2.750000 -1.000000 14.250000 255 204 102
-2.500000 -1.000000 14.500000 255 204 102
3.000000 -1.500000 11.500000 255 51 51
-6.000000 1.500000 7.500000 255 204 102
-6.500000 0.000000 9.500000 255 204 102
-6.500000 2.000000 7.500000 255 204 102
1.000000 1.750000 6.250000 0 255 51
-2.000000 0.500000 6.000000 255 51 51
-2.500000 1.000000 6.000000 255 51 51
6.500000 2.000000 12.500000 255 204 102
-2.000000 -3.000000 3.000000 255 255 0
-1.000000 -1.500000 4.500000 0 255 51
0.750000 -2.000000 21.250000 255 204 102
0.500000 -2.500000 21.000000 255 204 102
1.000000 -2.500000 20.500000 255 204 102
2.500000 -1.500000 14.000000 255 204 102
2.500000 -1.000000 14.500000 255 204 102
2.000000 -2.000000 14.000000 255 204 102
3.750000 2.750000 12.500000 255 51 51
3.000000 3.500000 13.500000 255 51 51
3.750000 2.750000 13.500000 255 51 51
-2.500000 -2.000000 1.500000 255 255 0
-2.000000 -1.250000 1.750000 255 255 0
-2.000000 -2.000000 1.000000 255 255 0
-3.000000 -1.000000 14.000000 255 51 51
6.000000 -1.500000 5.500000 255 204 102
5.500000 -2.000000 5.500000 255 204 102
3.000000 3.000000 14.000000 255 51 51
-3.000000 3.000000 14.000000 255 51 51
-4.000000 0.000000 11.000000 255 204 102
-3.750000 0.000000 10.750000 255 204 102
-3.500000 -0.500000 11.000000 255 204 102
-1.500000 -2.000000 1.500000 255 255 0
4.000000 -0.500000 13.500000 255 204 102
3.500000 -0.500000 14.000000 255 204 102
3.750000 -0.750000 13.500000 255 204 102
5.500000 -3.000000 5.500000 255 204 102
6.500000 -4.000000 6.500000 255 204 102
6.500000 -2.000000 5.500000 255 204 102
6.500000 -1.000000 7.500000 255 204 102
0.000000 -1.000000 14.000000 255 204 102
0.166667 -0.833333 13.666700 255 204 102
1.500000 4.000000 0.500000 255 255 0
2.000000 5.500000 1.500000 255 255 0
-0.750000 2.000000 21.250000 255 255 102
1.500000 -2.000000 18.000000 204 255 255
0.750000 -2.750000 18.500000 204 255 255
0.750000 -2.750000 18.000000 204 255 255
-4.500000 2.000000 5.500000 255 204 102
0.000000 2.500000 15.500000 255 204 102
2.000000 2.500000 17.500000 255 204 102
-4.000000 0.000000 14.000000 255 204 102
3.500000 3.500000 11.000000 255 51 51
6.000000 0.000000 8.000000 255 204 102
5.000000 -0.500000 7.500000 255 204 102
5.000000 0.000000 8.000000 255 204 102
6.500000 3.000000 10.500000 255 204 102
6.000000 3.500000 11.500000 255 204 102
6.500000 3.000000 11.500000 255 204 102
6.000000 -0.500000 11.500000 255 204 102
6.500000 0.000000 11.500000 255 204 102
-1.000000 1.750000 6.250000 0 255 51
6.500000 -1.000000 10.500000 255 204 102
-3.500000 3.500000 11.000000 255 51 51
-3.000000 3.500000 11.500000 255 51 51
3.750000 -0.750000 13.500000 255 51 51
3.000000 -1.500000 13.500000 255 51 51
3.250000 3.000000 10.750000 255 204 102
4.000000 3.500000 10.500000 255 204 102
4.000000 3.000000 10.000000 255 204 102
4.000000 2.500000 13.500000 255 204 102
3.500000 2.500000 14.000000 255 204 102
4.000000 2.000000 14.000000 255 204 102
1.000000 -1.500000 13.500000 255 51 51
0.000000 -0.500000 13.500000 255 51 51
-1.500000 2.000000 18.500000 255 204 102
4.000000 2.500000 12.500000 255 204 102
6.000000 2.500000 12.500000 255 204 102
6.000000 -4.500000 6.500000 255 204 102
-2.000000 -2.000000 3.000000 0 255 51
-1.500000 -2.500000 2.500000 0 255 51
-1.500000 -2.000000 2.500000 0 255 51
-5.500000 3.000000 4.500000 255 204 102
-5.500000 4.000000 5.500000 255 204 102
-5.500000 3.000000 5.500000 255 204 102
-5.000000 3.500000 7.500000 255 204 102
-4.500000 3.000000 9.500000 255 204 102
-4.500000 3.000000 7.500000 255 204 102
-1.500000 -3.000000 2.500000 255 255 0
-2.000000 -2.500000 3.000000 255 255 0
1.000000 2.500000 20.500000 255 204 102
-0.750000 -2.000000 21.250000 255 204 102
-4.000000 2.500000 13.500000 255 204 102
-6.000000 2.500000 12.500000 255 204 102
-4.000000 3.500000 11.500000 255 204 102
-4.000000 2.500000 12.500000 255 204 102
-3.750000 2.750000 13.500000 255 51 51
-3.000000 3.500000 13.500000 255 51 51
-4.500000 0.000000 10.500000 255 204 102
-6.500000 3.000000 11.500000 255 204 102
-6.000000 3.500000 11.500000 255 204 102
-6.500000 2.000000 12.500000 255 204 102
2.500000 1.000000 4.500000 0 255 51
2.000000 3.250000 1.750000 0 255 51
2.500000 3.500000 2.000000 0 255 51
6.500000 -1.000000 6.500000 255 204 102
-4.500000 4.000000 6.500000 255 204 102
2.500000 1.000000 6.000000 255 51 51
2.000000 1.500000 8.500000 255 51 51
0.166667 -0.833333 13.666700 255 51 51
0.500000 -1.500000 14.000000 255 51 51
1.500000 2.000000 18.500000 255 204 102
1.000000 2.500000 18.500000 255 204 102
4.000000 0.000000 14.000000 255 204 102
2.000000 -0.500000 9.500000 255 51 51
-2.000000 0.500000 8.500000 255 51 51
2.000000 0.500000 8.500000 255 51 51
-1.500000 -1.500000 18.000000 204 255 255
-1.500000 -2.000000 18.000000 204 255 255
-1.500000 -2.000000 18.500000 204 255 255
2.500000 4.500000 2.000000 255 255 0
2.500000 4.000000 1.500000 255 255 0
-1.500000 -3.000000 19.500000 255 204 102
-0.833333 -2.833330 18.666700 255 204 102
-1.000000 -4.500000 15.500000 255 204 102
1.000000 -4.000000 16.000000 255 204 102
-1.000000 -4.000000 16.000000 255 204 102
-6.000000 3.500000 7.500000 255 204 102
-6.500000 4.000000 6.500000 255 204 102
-6.500000 3.000000 7.500000 255 204 102
2.500000 4.500000 2.500000 255 255 0
-1.000000 -4.000000 14.000000 255 204 102
-4.000000 -0.500000 11.500000 255 204 102
-3.750000 -0.750000 13.500000 255 204 102
-4.000000 -0.500000 13.500000 255 204 102
-3.750000 2.000000 10.750000 255 51 51
-3.750000 0.000000 10.750000 255 51 51
-2.000000 2.500000 9.500000 255 51 51
-2.000000 1.500000 8.500000 255 51 51
5.500000 -3.000000 4.500000 255 204 102
-2.500000 -2.500000 2.000000 0 255 51
-2.500000 -2.500000 2.500000 0 255 51
-2.500000 -2.000000 2.500000 0 255 51
-2.500000 -2.500000 2.500000 255 255 0
-2.500000 -3.000000 2.500000 255 255 0
-3.500000 -0.500000 14.000000 255 204 102
6.500000 0.000000 8.500000 255 204 102
6.000000 1.000000 8.000000 255 204 102
6.500000 1.000000 8.500000 255 204 102
2.500000 1.000000 6.000000 0 255 51
2.500000 1.000000 5.500000 0 255 51
-3.833330 2.833330 12.333300 255 204 102
-0.750000 -2.750000 18.000000 204 255 255
-0.750000 -2.750000 18.500000 204 255 255
6.000000 -1.500000 9.500000 255 204 102
6.500000 -1.000000 9.500000 255 204 102
4.000000 -0.500000 11.500000 255 204 102
4.500000 0.000000 8.500000 255 204 102
-2.500000 0.500000 14.000000 255 204 102
-2.750000 0.000000 14.250000 255 204 102
0.750000 -2.000000 21.250000 255 255 102
5.000000 -1.500000 9.500000 255 204 102
4.500000 -1.000000 9.500000 255 204 102
0.000000 -3.000000 17.000000 255 204 102
-1.000000 0.250000 6.250000 0 255 51
-1.000000 0.000000 6.000000 0 255 51
2.500000 4.500000 2.000000 0 255 51
2.500000 4.500000 2.500000 0 255 51
2.500000 4.000000 2.500000 0 255 51
1.500000 -1.000000 18.500000 255 204 102
1.500000 -1.500000 19.000000 255 204 102
2.500000 2.000000 17.500000 255 204 102
-1.000000 -2.500000 20.500000 255 204 102
3.000000 2.500000 10.500000 255 51 51
-5.000000 -0.500000 10.500000 255 204 102
-3.500000 2.500000 14.000000 255 204 102
-3.750000 2.750000 13.500000 255 204 102
-3.000000 -0.500000 10.500000 255 51 51
6.000000 -0.500000 7.500000 255 204 102
-3.000000 -1.500000 13.500000 255 51 51
-3.750000 -0.750000 11.500000 255 51 51
-3.000000 -1.500000 11.500000 255 51 51
-2.000000 -2.000000 14.000000 255 204 102
-2.000000 -3.000000 14.000000 255 204 102
-1.000000 -1.500000 13.500000 255 51 51
2.000000 4.000000 3.000000 0 255 51
1.500000 4.500000 2.500000 0 255 51
1.500000 4.000000 2.500000 0 255 51
3.500000 3.500000 12.000000 255 51 51
3.000000 3.500000 12.500000 255 51 51
2.000000 -3.000000 16.000000 255 204 102
2.750000 0.000000 14.250000 255 204 102
0.750000 -2.750000 18.000000 255 204 102
1.833330 0.833333 14.333300 255 204 102
2.500000 0.500000 14.000000 255 204 102
3.750000 -0.750000 11.500000 255 204 102
-4.500000 2.000000 10.500000 255 204 102
-4.500000 2.000000 7.500000 255 204 102
3.833330 2.833330 12.333300 255 204 102
4.000000 3.500000 11.500000 255 204 102
1.500000 -2.500000 19.000000 204 255 255
1.500000 -2.000000 18.500000 204 255 255
-2.000000 -1.250000 1.750000 0 255 51
-2.500000 1.000000 4.500000 0 255 51
-2.000000 1.500000 4.500000 0 255 51
2.500000 -1.750000 13.750000 255 51 51
1.500000 5.000000 1.500000 255 255 0
-2.500000 -4.000000 2.500000 255 255 0
-3.000000 3.500000 12.500000 255 51 51
1.500000 -1.500000 19.000000 204 255 255
1.500000 -1.500000 18.000000 204 255 255
5.000000 -4.500000 5.500000 255 204 102
-0.750000 -2.750000 18.000000 255 204 102
3.750000 2.750000 13.500000 255 204 102
-2.000000 2.500000 17.500000 255 204 102
-2.000000 -2.500000 3.000000 0 255 51
-3.250000 3.000000 10.750000 255 204 102
-3.500000 3.500000 11.000000 255 204 102
-6.000000 -0.500000 9.500000 255 204 102
2.000000 4.500000 3.000000 0 255 51
-1.500000 -2.000000 20.500000 255 204 102
6.000000 -0.500000 6.500000 255 204 102
-0.166667 -0.833333 13.666700 255 204 102
0.000000 -0.750000 13.750000 255 204 102
-2.500000 -1.500000 14.000000 255 51 51
1.500000 3.500000 2.000000 255 255 0
1.500000 4.000000 1.500000 255 255 0
-5.000000 3.500000 9.500000 255 204 102
0.750000 2.000000 21.250000 255 255 102
-1.000000 1.750000 14.250000 255 204 102
1.000000 1.750000 14.250000 255 204 102
-3.750000 2.750000 12.500000 255 204 102
-2.000000 -3.000000 16.000000 255 204 102
-2.500000 -1.500000 14.000000 255 204 102
-3.500000 3.500000 12.000000 255 51 51
-3.750000 2.750000 12.500000 255 51 51
-1.500000 -3.000000 1.500000 255 255 0
-1.500000 -2.500000 2.000000 255 255 0
1.500000 3.500000 2.000000 0 255 51
2.000000 2.500000 9.500000 255 51 51
-3.000000 2.500000 10.500000 255 51 51
2.500000 -1.000000 17.500000 255 204 102
-2.500000 -3.000000 1.500000 255 255 0
6.000000 3.500000 10.500000 255 204 102
-0.500000 2.500000 21.000000 255 204 102
-2.500000 -1.750000 13.750000 255 51 51
-1.000000 -1.750000 13.750000 255 51 51
-1.500000 -2.500000 19.000000 204 255 255
-0.833333 -2.833330 18.666700 204 255 255
-2.500000 1.000000 5.500000 0 255 51
3.000000 3.500000 11.500000 255 51 51
-2.000000 -0.500000 9.500000 255 51 51
3.500000 3.500000 11.000000 255 204 102
-4.000000 2.000000 14.000000 255 204 102
-2.500000 1.000000 6.000000 0 255 51
0.833333 -2.833330 18.666700 255 204 102
2.000000 4.500000 3.000000 255 255 0
-2.500000 -2.500000 2.000000 255 255 0
2.500000 0.000000 15.500000 255 204 102
2.500000 -3.000000 15.500000 255 204 102
-1.500000 -2.500000 2.000000 0 255 51
-1.500000 -1.500000 2.000000 0 255 51
-1.500000 -1.500000 19.000000 255 204 102
-0.166667 -0.833333 13.666700 255 51 51
1.500000 4.500000 2.000000 255 255 0
3.000000 -0.500000 10.500000 255 51 51
3.500000 -0.500000 11.000000 255 51 51
-2.000000 1.500000 6.000000 255 51 51
1.000000 0.250000 6.250000 0 255 51
1.500000 -3.000000 19.500000 255 204 102
2.750000 -1.000000 14.250000 255 204 102
2.500000 -1.750000 13.750000 255 204 102
-2.500000 -1.500000 2.000000 255 255 0
-2.750000 -1.000000 14.250000 255 51 51
-3.500000 2.500000 14.000000 255 51 51
-3.500000 -0.500000 14.000000 255 51 51
3.500000 2.500000 14.000000 255 51 51
3.500000 -0.500000 14.000000 255 51 51
-3.750000 -0.750000 11.500000 255 204 102
-1.500000 -1.500000 2.000000 255 255 0
-0.750000 -2.000000 21.250000 255 255 102
6.000000 -1.500000 10.500000 255 204 102
3.750000 -0.750000 11.500000 255 51 51
-1.000000 2.500000 18.500000 255 204 102
-1.500000 -2.500000 2.500000 255 255 0
0.500000 2.500000 21.000000 255 204 102
2.000000 1.500000 6.000000 255 51 51
0.000000 -0.750000 13.750000 255 51 51
1.000000 -1.750000 13.750000 255 51 51
-1.500000 -1.500000 19.000000 204 255 255
-1.500000 -2.500000 19.000000 255 204 102
-0.750000 -2.750000 18.500000 255 204 102
-2.500000 -1.500000 2.000000 0 255 51
-3.500000 3.500000 12.000000 255 204 102
-1.833330 0.833333 14.333300 255 204 102
-1.500000 1.500000 14.000000 255 204 102
1.500000 -2.500000 19.000000 255 204 102
-3.750000 -0.750000 13.500000 255 51 51
3.833330 2.833330 12.333300 255 51 51
0.750000 -2.750000 18.500000 255 204 102
2.000000 0.500000 6.000000 255 51 51
1.500000 1.500000 14.000000 255 204 102
3.750000 2.750000 12.500000 255 204 102
3.500000 3.500000 12.000000 255 204 102
0.833333 -2.833330 18.666700 204 255 255
-2.500000 -1.750000 13.750000 255 204 102
-0.500000 -2.500000 21.000000 255 204 102
2.500000 -1.500000 14.000000 255 51 51
-3.500000 -0.500000 11.000000 255 51 51
-3.833330 2.833330 12.333300 255 51 51
1.500000 4.500000 2.000000 0 255 51
1.500000 4.500000 2.500000 255 255 0
-0.500000 -1.500000 14.000000 255 51 51
3 0 1 2
3 3 0 2
3 4 5 6
3 7 8 9
3 10 7 9
3 11 12 13
3 14 11 13
3 15 16 17
3 18 19 20
3 20 17 21
3 22 23 24
3 25 26 27
3 28 25 27
3 29 30 31
3 31 30 32
3 32 30 33
3 34 35 36
3 37 38 39
3 36 40 39
3 41 42 43
3 44 41 43
3 45 46 47
3 48 49 50
3 5 4 51
3 51 4 52
3 52 4 53
3 54 55 56
3 57 58 59
3 58 4 59
3 4 60 59
3 54 56 61
3 62 48 63
3 64 65 66
3 67 68 69
3 70 71 72
3 73 74 75
3 76 77 78
3 79 52 80
3 81 82 83
3 84 85 86
3 87 88 89
3 90 91 59
3 92 93 94
3 95 96 97
3 98 99 100
3 101 102 103
3 104 105 106
3 107 68 108
3 109 110 71
3 70 109 71
3 111 110 112
3 109 113 110
3 114 115 116
3 117 118 119
3 120 121 122
3 123 124 125
3 126 127 116
3 128 129 130
3 129 128 131
3 132 133 134
3 135 136 137
3 138 139 140
3 141 142 143
3 144 145 146
3 147 148 149
3 148 150 151
3 152 153 154
3 155 156 157
3 158 159 160
3 161 162 163
3 164 165 166
3 167 168 169
3 170 167 171
3 172 173 174
3 172 175 176
3 170 177 178
3 175 179 180
3 181 182 183
3 67 184 185
3 186 187 188
3 189 92 190
3 191 190 192
3 193 194 195
3 196 193 195
3 197 194 198
3 199 200 196
3 60 201 59
3 202 203 204
3 205 206 207
3 208 209 210
3 211 212 213
3 214 146 215
3 208 214 215
3 216 217 218
3 62 49 48
3 219 220 221
3 222 223 224
3 225 226 227
3 228 218 229
3 51 79 230
3 124 231 142
3 42 40 35
3 232 103 102
3 233 113 234
3 112 235 236
3 237 238 239
3 240 241 231
3 242 125 243
3 244 245 246
3 247 248 249
3 231 143 142
3 192 250 191
3 251 252 253
3 47 254 255
3 174 256 257
3 93 258 259
3 126 260 127
3 261 262 263
3 90 201 264
3 265 212 266
3 267 187 186
3 268 12 11
3 50 29 269
3 270 271 272
3 273 274 275
3 34 263 35
3 276 277 278
3 279 280 281
3 54 201 60
3 282 169 168
3 283 26 284
3 64 23 22
3 179 285 286
3 287 288 289
3 6 55 4
3 280 290 281
3 3 225 227
3 291 292 293
3 15 232 16
3 232 105 294
3 269 48 50
3 226 7 10
3 108 67 185
3 295 296 297
3 298 299 155
3 14 268 11
3 300 301 225
3 137 288 287
3 302 145 144
3 303 304 305
3 38 306 111
3 192 307 308
3 160 309 158
3 72 110 111
3 139 310 140
3 311 312 313
3 314 315 316
3 164 317 318
3 201 319 264
3 317 320 318
3 134 321 322
3 260 323 324
3 325 326 327
3 145 163 162
3 328 329 330
3 116 331 332
3 252 333 253
3 315 334 335
3 336 18 295
3 337 338 339
3 340 341 342
3 343 344 345
3 346 347 268
3 348 222 224
3 335 316 315
3 253 349 251
3 350 351 181
3 178 180 179
3 352 351 353
3 354 286 355
3 356 236 235
3 357 351 358
3 181 359 182
3 360 361 362
3 296 184 363
3 44 100 341
3 343 364 99
3 365 366 45
3 367 331 368
3 348 369 370
3 291 165 371
3 372 373 374
3 105 101 106
3 23 63 269
3 285 278 277
3 375 376 377
3 378 379 226
3 380 381 122
3 382 383 384
3 385 386 387
3 225 1 300
3 9 388 10
3 23 29 24
3 229 219 389
3 390 391 392
3 393 213 394
3 395 366 396
3 397 17 16
3 398 399 400
3 268 401 402
3 392 403 309
3 404 405 406
3 59 407 408
3 409 352 353
3 377 410 411
3 97 89 88
3 320 412 413
3 286 277 355
3 25 397 26
3 414 131 128
3 120 196 200
3 243 415 242
3 416 417 93
3 209 161 418
3 412 295 413
3 342 37 340
3 275 216 228
3 419 129 420
3 208 162 209
3 196 421 199
3 421 151 199
3 230 422 423
3 424 425 426
3 14 239 238
3 221 389 219
3 358 387 357
3 28 283 296
3 62 66 65
3 427 224 428
3 307 190 92
3 308 369 429
3 121 430 122
3 431 254 46
3 287 432 356
3 247 3 379
3 350 433 434
3 114 435 115
3 363 436 297
3 437 438 439
3 100 42 386
3 183 350 181
3 221 440 441
3 442 116 332
3 443 444 445
3 185 283 284
3 247 1 0
3 20 21 18
3 276 446 447
3 234 109 70
3 448 150 148
3 274 449 250
3 450 151 206
3 330 187 328
3 374 365 45
3 107 313 312
3 233 341 364
3 451 250 452
3 16 294 397
3 291 453 414
3 344 454 455
3 456 334 457
3 458 304 459
3 460 461 462
3 463 331 324
3 7 464 8
3 239 12 465
3 120 194 193
3 51 65 64
3 466 354 355
3 467 459 468
3 53 58 361
3 341 99 364
3 340 41 44
3 330 371 188
3 469 19 336
3 470 149 197
3 334 471 328
3 440 154 153
3 149 421 197
3 322 139 134
3 333 472 245
3 400 473 337
3 146 162 215
3 34 38 111
3 454 474 135
3 118 302 144
3 344 475 474
3 260 331 127
3 306 233 234
3 476 112 236
3 426 477 443
3 78 83 82
3 128 317 414
3 380 430 478
3 17 19 15
3 476 159 262
3 311 297 436
3 217 219 218
3 6 29 31
3 479 312 436
3 414 166 291
3 298 480 481
3 184 69 479
3 282 437 482
3 323 257 324
3 247 483 484
3 485 358 352
3 209 486 210
3 487 190 488
3 319 56 84
3 22 6 5
3 350 489 353
3 435 394 213
3 36 38 34
3 53 408 52
3 384 448 490
3 491 259 258
3 22 51 64
3 492 493 466
3 337 33 30
3 346 494 495
3 57 445 496
3 497 498 431
3 187 334 328
3 408 443 59
3 113 112 110
3 499 369 427
3 271 430 272
3 442 439 114
3 281 500 279
3 294 105 185
3 501 125 326
3 147 246 220
3 454 287 356
3 30 49 75
3 284 397 294
3 252 502 348
3 503 442 504
3 94 259 220
3 432 160 476
3 39 340 37
3 186 165 164
3 419 104 106
3 494 281 290
3 373 82 374
3 505 411 506
3 421 194 197
3 182 158 183
3 104 420 107
3 461 507 85
3 239 500 237
3 106 103 336
3 443 57 59
3 508 466 447
3 124 141 327
3 405 313 243
3 119 208 210
3 150 499 207
3 99 385 343
3 115 509 126
3 457 326 510
3 153 157 229
3 309 511 158
3 72 234 70
3 75 512 507
3 405 314 406
3 107 69 68
3 60 55 54
3 513 121 200
3 8 514 9
3 402 515 500
3 230 62 65
3 156 275 157
3 516 517 274
3 97 88 396
3 339 518 519
3 387 263 357
3 253 520 478
3 412 130 419
3 332 521 442
3 522 8 464
3 395 396 211
3 523 255 524
3 462 31 32
3 525 212 396
3 92 189 93
3 216 517 217
3 62 423 49
3 219 382 220
3 222 270 223
3 225 301 226
3 228 216 218
3 526 230 79
3 51 52 79
3 124 131 231
3 36 35 40
3 42 41 40
3 232 469 103
3 233 455 113
3 112 455 235
3 237 494 238
3 231 414 240
3 453 240 414
3 242 123 125
3 244 333 245
3 247 379 248
3 231 241 143
3 192 516 250
3 251 502 252
3 47 46 254
3 174 173 256
3 93 417 258
3 126 523 260
3 261 476 262
3 90 59 201
3 265 373 212
3 267 335 187
3 268 402 12
3 50 30 29
3 121 527 272
3 223 270 272
3 272 527 223
3 273 528 274
3 275 529 273
3 34 261 263
3 276 447 277
3 279 530 280
3 54 61 201
3 282 531 169
3 283 27 26
3 64 66 23
3 168 167 532
3 167 170 532
3 533 282 168
3 286 532 170
3 534 285 175
3 257 535 174
3 175 172 534
3 174 535 534
3 532 533 168
3 286 170 178
3 172 174 534
3 286 178 179
3 179 175 285
3 289 536 390
3 390 287 289
3 6 31 55
3 280 537 290
3 3 2 225
3 291 371 292
3 15 469 232
3 232 102 105
3 269 63 48
3 226 301 7
3 108 68 67
3 404 406 318
3 314 316 267
3 267 186 164
3 318 320 413
3 267 164 318
3 406 314 318
3 296 363 297
3 297 404 413
3 267 318 314
3 413 295 297
3 18 28 296
3 404 318 413
3 18 296 295
3 298 481 299
3 14 346 268
3 300 464 301
3 137 136 288
3 302 538 145
3 303 459 304
3 38 37 306
3 308 429 192
3 192 190 307
3 429 516 192
3 160 392 309
3 111 306 72
3 72 71 110
3 139 508 310
3 311 436 312
3 314 501 315
3 164 166 317
3 201 61 319
3 317 539 320
3 134 133 321
3 260 540 323
3 325 510 326
3 145 538 163
3 328 471 329
3 116 127 331
3 252 541 333
3 315 457 334
3 336 19 18
3 337 473 338
3 340 44 341
3 343 485 344
3 346 542 347
3 348 543 222
3 335 267 316
3 253 478 349
3 350 353 351
3 178 177 180
3 352 358 351
3 354 532 286
3 356 432 236
3 357 359 351
3 181 351 359
3 360 53 361
3 479 363 184
3 296 283 184
3 44 43 100
3 343 345 364
3 365 544 366
3 367 545 332
3 332 331 367
3 546 368 331
3 348 224 369
3 291 166 165
3 372 509 373
3 105 102 101
3 23 66 63
3 285 534 278
3 547 375 377
3 377 505 547
3 227 226 379
3 10 388 378
3 378 248 379
3 379 3 227
3 226 10 378
3 120 122 198
3 380 548 381
3 381 549 198
3 198 122 381
3 382 217 383
3 385 98 386
3 225 2 1
3 9 514 388
3 23 269 29
3 229 218 219
3 390 536 391
3 393 211 213
3 395 497 366
3 397 21 17
3 507 461 400
3 550 398 400
3 400 461 550
3 268 347 401
3 392 391 403
3 404 311 405
3 59 91 407
3 409 551 352
3 353 489 409
3 377 376 410
3 97 96 89
3 320 539 412
3 286 285 277
3 25 21 397
3 414 231 131
3 120 193 196
3 243 313 415
3 93 189 552
3 487 553 189
3 552 416 93
3 189 553 552
3 209 162 161
3 412 336 295
3 342 306 37
3 275 274 216
3 419 130 129
3 208 215 162
3 196 195 421
3 421 148 151
3 230 526 422
3 408 360 426
3 362 424 426
3 426 360 362
3 14 13 239
3 221 441 389
3 358 385 387
3 28 27 283
3 62 63 66
3 427 369 224
3 224 223 428
3 527 554 223
3 428 205 427
3 223 554 428
3 94 245 92
3 472 307 92
3 92 245 472
3 308 370 369
3 121 272 430
3 45 366 46
3 431 139 138
3 46 366 497
3 138 254 431
3 497 431 46
3 287 390 432
3 247 0 3
3 350 511 433
3 114 439 435
3 363 479 436
3 437 555 438
3 386 98 100
3 100 43 42
3 183 511 350
3 221 259 440
3 442 114 116
3 443 477 444
3 185 184 283
3 247 484 1
3 28 18 21
3 21 25 28
3 276 556 446
3 234 113 109
3 148 147 490
3 490 448 148
3 274 528 449
3 207 206 151
3 450 557 200
3 199 151 450
3 450 200 199
3 330 188 187
3 374 558 365
3 107 415 313
3 233 342 341
3 451 559 191
3 488 191 559
3 250 449 452
3 451 191 250
3 16 232 294
3 291 293 453
3 345 344 455
3 454 356 235
3 455 233 345
3 454 235 455
3 233 364 345
3 456 560 334
3 457 561 456
3 458 562 304
3 460 550 461
3 463 546 331
3 7 301 464
3 239 13 12
3 120 198 194
3 51 230 65
3 466 493 354
3 467 458 459
3 459 303 468
3 53 4 58
3 58 496 361
3 341 100 99
3 340 40 41
3 330 329 292
3 371 165 188
3 330 292 371
3 469 15 19
3 336 103 469
3 197 198 470
3 470 204 149
3 198 549 470
3 204 203 149
3 334 560 471
3 440 563 154
3 149 148 421
3 498 134 139
3 322 508 139
3 139 431 498
3 333 541 472
3 400 399 473
3 146 145 162
3 111 112 261
3 261 34 111
3 135 137 454
3 454 344 474
3 146 214 144
3 119 118 144
3 144 214 119
3 344 485 475
3 260 324 331
3 306 342 233
3 476 261 112
3 426 425 477
3 78 77 83
3 128 130 539
3 539 317 128
3 349 478 430
3 380 122 430
3 430 564 349
3 17 20 19
3 476 160 159
3 311 404 297
3 217 382 219
3 6 24 29
3 479 69 312
3 414 317 166
3 298 152 480
3 184 67 69
3 503 482 437
3 282 533 555
3 482 531 282
3 555 437 282
3 463 324 565
3 323 535 257
3 257 256 565
3 565 324 257
3 247 249 483
3 551 475 352
3 485 343 385
3 352 475 485
3 485 385 358
3 209 418 486
3 191 488 190
3 487 189 190
3 85 84 56
3 319 61 56
3 22 24 6
3 350 434 489
3 212 373 213
3 435 439 566
3 213 373 509
3 566 394 435
3 439 438 566
3 213 509 435
3 36 39 38
3 80 52 408
3 53 360 408
3 408 407 80
3 384 383 448
3 491 563 440
3 440 259 491
3 22 5 51
3 492 567 493
3 337 339 33
3 346 14 238
3 238 494 346
3 290 537 495
3 495 542 346
3 494 290 495
3 568 496 445
3 58 57 496
3 445 444 568
3 497 395 498
3 187 335 334
3 408 426 443
3 113 455 112
3 499 429 369
3 271 564 430
3 442 437 439
3 281 237 500
3 108 185 105
3 284 294 185
3 501 405 125
3 125 327 326
3 405 243 125
3 147 149 203
3 202 244 246
3 147 203 246
3 382 384 490
3 203 202 246
3 220 382 490
3 490 147 220
3 454 137 287
3 75 507 30
3 400 337 30
3 30 50 49
3 49 423 73
3 422 73 423
3 507 400 30
3 49 73 75
3 284 26 397
3 370 308 307
3 307 472 541
3 541 252 348
3 502 543 348
3 348 370 541
3 307 541 370
3 503 437 442
3 220 246 94
3 94 93 259
3 246 245 94
3 259 221 220
3 432 390 160
3 392 160 390
3 476 236 432
3 39 40 340
3 186 188 165
3 419 420 104
3 494 237 281
3 558 374 82
3 373 265 78
3 265 76 78
3 82 81 558
3 373 78 82
3 505 377 411
3 421 195 194
3 182 159 158
3 131 124 123
3 123 242 131
3 107 108 104
3 131 242 415
3 415 107 420
3 105 104 108
3 420 129 131
3 131 415 420
3 56 462 85
3 507 512 86
3 85 462 461
3 507 86 85
3 239 465 500
3 336 412 106
3 106 101 103
3 412 419 106
3 443 445 57
3 322 321 492
3 466 355 277
3 322 492 466
3 446 310 508
3 508 322 466
3 466 277 447
3 447 446 508
3 327 125 124
3 124 142 141
3 141 325 327
3 405 311 313
3 486 117 210
3 119 214 208
3 210 117 119
3 448 383 217
3 517 499 150
3 499 427 205
3 448 217 517
3 207 151 150
3 150 448 517
3 499 205 207
3 99 98 385
3 115 435 509
3 509 372 126
3 126 116 115
3 372 523 126
3 457 315 501
3 501 326 457
3 510 561 457
3 229 389 153
3 441 440 153
3 152 298 155
3 389 441 153
3 153 152 155
3 157 275 228
3 153 155 157
3 228 229 157
3 309 403 433
3 511 183 158
3 309 433 511
3 72 306 234
3 75 74 512
3 405 501 314
3 107 312 69
3 60 4 55
3 200 557 513
3 513 554 527
3 527 121 513
3 120 200 121
3 8 569 514
3 279 500 515
3 465 12 402
3 402 401 515
3 515 530 279
3 465 402 500
3 230 423 62
3 156 529 275
3 216 274 517
3 516 429 499
3 274 250 516
3 499 517 516
3 396 366 97
3 544 95 97
3 88 87 525
3 366 544 97
3 88 525 396
3 519 32 33
3 339 338 518
3 519 33 339
3 359 357 262
3 387 386 35
3 42 35 386
3 263 262 357
3 159 182 359
3 387 35 263
3 159 359 262
3 380 478 548
3 253 333 244
3 244 202 520
3 520 548 478
3 253 244 520
3 412 539 130
3 332 545 521
3 521 570 442
3 504 442 570
3 464 300 484
3 484 483 522
3 300 1 484
3 569 8 522
3 464 484 522
3 393 132 498
3 498 395 211
3 132 134 498
3 396 212 211
3 211 393 498
3 540 260 524
3 523 372 47
3 374 45 47
3 47 255 523
3 524 260 523
3 372 374 47
3 519 460 32
3 462 56 55
3 55 31 462
3 32 460 462
3 525 266 212
