ply
format ascii 1.0
comment Created by Blender 2.78 (sub 0) - www.blender.org, source file: ''
element vertex 571
property float x
property float y
property float z
property uchar red
property uchar green
property uchar blue
element face 942
property list uchar uint vertex_indices
end_header
-2.000000 -1.500000 0.500000 255 255 0
-2.500000 -1.000000 0.500000 255 255 0
-2.000000 -1.000000 0.000000 255 255 0
-1.500000 -1.000000 0.500000 255 255 0
-2.000000 1.000000 0.000000 255 255 0
-2.500000 1.000000 0.500000 255 255 0
-2.000000 1.500000 0.500000 255 255 0
-1.500000 1.000000 0.500000 255 255 0
-2.000000 -1.000000 1.000000 255 255 0
-2.500000 0.500000 1.000000 0 255 51
-2.500000 1.000000 1.500000 0 255 51
-2.500000 1.000000 1.000000 0 255 51
-1.500000 0.500000 1.000000 0 255 51
-1.500000 1.000000 1.000000 0 255 51
-1.500000 1.000000 1.500000 0 255 51
2.000000 0.500000 1.500000 255 255 0
1.500000 1.000000 1.500000 255 255 0
2.000000 1.000000 1.000000 255 255 0
2.500000 1.000000 1.500000 255 255 0
2.000000 1.500000 1.500000 255 255 0
2.000000 -2.500000 3.500000 0 255 51
1.500000 -2.000000 3.500000 0 255 51
2.000000 -2.000000 3.000000 0 255 51
2.500000 -2.000000 3.500000 0 255 51
1.500000 0.500000 3.000000 0 255 51
1.500000 0.000000 3.500000 0 255 51
1.500000 0.500000 3.500000 0 255 51
2.500000 0.500000 3.000000 0 255 51
2.500000 0.500000 3.500000 0 255 51
2.500000 0.000000 3.500000 0 255 51
-6.000000 -2.500000 4.500000 255 204 102
-6.500000 -2.000000 4.500000 255 204 102
-6.000000 -2.000000 4.000000 255 204 102
-4.500000 -2.000000 4.500000 255 204 102
-5.000000 -2.500000 4.500000 255 204 102
-5.000000 -2.000000 4.000000 255 204 102
2.000000 -2.000000 4.000000 0 255 51
5.000000 -2.500000 4.500000 255 204 102
4.500000 -2.000000 4.500000 255 204 102
5.000000 -2.000000 4.000000 255 204 102
6.500000 -2.000000 4.500000 255 204 102
6.000000 -2.500000 4.500000 255 204 102
6.000000 -2.000000 4.000000 255 204 102
-6.000000 -1.000000 4.000000 255 204 102
-1.000000 -1.500000 4.500000 0 255 51
-1.500000 -1.000000 4.500000 0 255 51
-1.000000 -1.000000 4.000000 0 255 51
2.000000 -1.500000 4.500000 0 255 51
1.000000 -1.500000 4.500000 0 255 51
1.500000 -1.000000 3.500000 0 255 51
6.000000 -1.000000 4.000000 255 204 102
-1.500000 0.000000 4.500000 0 255 51
-1.000000 1.000000 5.000000 0 255 51
-1.000000 0.000000 4.000000 0 255 51
2.000000 0.000000 4.000000 0 255 51
2.000000 -0.500000 4.500000 0 255 51
1.000000 -1.000000 4.000000 0 255 51
1.000000 0.000000 4.000000 0 255 51
-6.000000 0.000000 4.000000 255 204 102
-6.500000 0.000000 4.500000 255 204 102
-6.000000 0.500000 4.500000 255 204 102
-5.500000 0.000000 4.500000 255 204 102
6.000000 0.000000 4.000000 255 204 102
5.500000 0.000000 4.500000 255 204 102
6.000000 0.500000 4.500000 255 204 102
6.500000 0.000000 4.500000 255 204 102
2.000000 1.500000 3.500000 255 255 0
1.500000 1.000000 3.500000 255 255 0
2.000000 1.000000 4.000000 255 255 0
2.500000 1.000000 3.500000 255 255 0
-0.750000 -2.750000 18.500000 204 255 255
-1.500000 -2.000000 18.000000 204 255 255
-0.750000 -2.750000 18.000000 204 255 255
-1.500000 0.000000 5.500000 0 255 51
-2.000000 0.500000 5.500000 0 255 51
-2.000000 0.500000 4.500000 0 255 51
-1.500000 1.000000 4.500000 0 255 51
-1.000000 2.000000 5.000000 0 255 51
-1.500000 2.000000 5.500000 0 255 51
-1.000000 2.500000 5.500000 0 255 51
0.500000 -2.500000 21.000000 255 255 102
0.000000 -2.500000 21.500000 255 255 102
-0.500000 -2.500000 21.000000 255 255 102
-1.000000 -1.000000 6.000000 0 255 51
-1.500000 -1.000000 5.500000 0 255 51
-1.000000 -1.500000 5.500000 0 255 51
-5.000000 1.000000 6.000000 255 204 102
-5.000000 0.000000 6.000000 255 204 102
-6.000000 1.000000 6.000000 255 204 102
-1.500000 0.500000 6.000000 0 255 51
-2.000000 0.500000 6.000000 0 255 51
-1.500000 0.500000 6.000000 255 51 51
-1.000000 0.250000 6.250000 255 51 51
-1.000000 0.500000 6.500000 255 51 51
2.500000 1.000000 8.500000 255 51 51
2.500000 2.000000 9.500000 255 51 51
2.500000 0.000000 9.500000 255 51 51
2.500000 0.500000 6.000000 255 51 51
2.500000 1.000000 6.000000 255 51 51
2.500000 1.000000 6.500000 255 51 51
5.000000 1.000000 6.000000 255 204 102
6.000000 1.000000 6.000000 255 204 102
5.000000 0.000000 6.000000 255 204 102
-4.500000 1.000000 6.500000 255 204 102
-5.000000 1.500000 6.500000 255 204 102
-1.500000 1.500000 6.000000 0 255 51
-2.000000 1.500000 5.500000 0 255 51
-2.000000 1.500000 6.000000 0 255 51
-1.500000 1.500000 6.000000 255 51 51
-1.000000 1.500000 6.500000 255 51 51
-1.000000 1.750000 6.250000 255 51 51
1.500000 1.500000 6.000000 0 255 51
2.000000 1.500000 6.000000 0 255 51
2.000000 1.500000 5.500000 0 255 51
1.500000 1.500000 6.000000 255 51 51
1.000000 1.750000 6.250000 255 51 51
1.000000 1.500000 6.500000 255 51 51
4.500000 1.000000 6.500000 255 204 102
5.000000 1.500000 6.500000 255 204 102
-3.500000 -2.000000 6.500000 255 204 102
-4.000000 -2.000000 7.000000 255 204 102
-4.000000 -2.500000 6.500000 255 204 102
4.000000 -2.000000 7.000000 255 204 102
3.500000 -2.000000 6.500000 255 204 102
4.000000 -2.500000 6.500000 255 204 102
-4.000000 -1.000000 7.000000 255 204 102
-5.000000 -2.000000 7.000000 255 204 102
5.000000 -2.000000 7.000000 255 204 102
4.000000 -1.000000 7.000000 255 204 102
-2.000000 -2.500000 16.500000 255 204 102
0.000000 -2.500000 16.500000 255 204 102
-1.000000 -2.500000 17.500000 255 204 102
0.500000 2.500000 21.000000 255 255 102
-0.500000 2.500000 21.000000 255 255 102
0.000000 2.500000 21.500000 255 255 102
-1.000000 -1.500000 11.500000 255 51 51
-1.000000 -0.500000 10.500000 255 51 51
0.000000 -0.500000 11.500000 255 51 51
-0.500000 2.000000 21.500000 255 255 102
-0.500000 -2.000000 21.500000 255 255 102
-0.500000 -2.000000 25.500000 255 255 102
0.000000 -3.500000 18.500000 255 204 102
1.000000 -3.500000 19.500000 255 204 102
-1.000000 -3.500000 19.500000 255 204 102
1.000000 -0.500000 10.500000 255 51 51
1.000000 -1.500000 11.500000 255 51 51
5.000000 -1.000000 11.000000 255 204 102
4.500000 -1.000000 10.500000 255 204 102
5.000000 -1.500000 10.500000 255 204 102
-4.000000 -0.500000 11.500000 255 204 102
-5.000000 -0.500000 11.500000 255 204 102
-4.000000 0.000000 11.000000 255 204 102
4.500000 0.000000 10.500000 255 204 102
-3.500000 2.500000 11.000000 255 51 51
-3.250000 3.000000 10.750000 255 51 51
-3.000000 3.000000 11.000000 255 51 51
-3.500000 2.500000 11.000000 255 204 102
-3.750000 2.000000 10.750000 255 204 102
-4.000000 2.000000 11.000000 255 204 102
3.500000 2.500000 11.000000 255 51 51
3.000000 3.000000 11.000000 255 51 51
3.250000 3.000000 10.750000 255 51 51
3.500000 2.500000 11.000000 255 204 102
4.000000 2.000000 11.000000 255 204 102
3.750000 2.000000 10.750000 255 204 102
-2.500000 2.000000 9.500000 255 51 51
-2.500000 1.000000 8.500000 255 51 51
-2.500000 0.000000 9.500000 255 51 51
-0.500000 -1.500000 14.000000 255 204 102
-1.000000 -2.000000 14.000000 255 204 102
-1.000000 -1.750000 13.750000 255 204 102
0.500000 -1.500000 14.000000 255 204 102
1.000000 -1.750000 13.750000 255 204 102
1.000000 -2.000000 14.000000 255 204 102
-6.000000 0.000000 14.000000 255 204 102
-6.500000 0.000000 13.500000 255 204 102
-6.000000 -0.500000 13.500000 255 204 102
2.500000 -1.000000 4.500000 0 255 51
6.500000 0.000000 13.500000 255 204 102
6.000000 0.000000 14.000000 255 204 102
6.000000 -0.500000 13.500000 255 204 102
-2.500000 0.500000 14.000000 255 51 51
-3.000000 0.000000 14.000000 255 51 51
-2.750000 0.000000 14.250000 255 51 51
-1.500000 1.500000 14.000000 255 51 51
-1.833330 0.833333 14.333300 255 51 51
2.500000 0.500000 14.000000 255 51 51
1.500000 1.500000 14.000000 255 51 51
1.833330 0.833333 14.333300 255 51 51
2.750000 0.000000 14.250000 255 51 51
3.000000 0.000000 14.000000 255 51 51
2.000000 -2.500000 16.500000 255 204 102
1.000000 -2.500000 17.500000 255 204 102
-1.000000 1.750000 14.250000 255 51 51
-1.000000 2.000000 14.000000 255 51 51
1.000000 2.000000 14.000000 255 51 51
1.000000 1.750000 14.250000 255 51 51
-6.000000 2.500000 13.500000 255 204 102
-6.500000 2.000000 13.500000 255 204 102
-6.000000 2.000000 14.000000 255 204 102
6.500000 2.000000 13.500000 255 204 102
6.000000 2.500000 13.500000 255 204 102
6.000000 2.000000 14.000000 255 204 102
1.000000 1.500000 14.500000 255 204 102
2.500000 0.000000 15.500000 255 204 102
2.500000 0.000000 14.500000 255 204 102
-1.000000 1.500000 14.500000 255 204 102
-1.000000 1.500000 15.500000 255 204 102
0.000000 1.500000 14.500000 255 204 102
1.000000 1.500000 15.500000 255 204 102
0.000000 -4.500000 17.500000 255 204 102
-0.500000 -4.000000 17.500000 255 204 102
0.000000 -4.000000 17.000000 255 204 102
0.500000 -4.000000 17.500000 255 204 102
-0.500000 -3.000000 17.500000 255 204 102
-0.500000 -3.000000 18.500000 255 204 102
0.500000 -3.000000 17.500000 255 204 102
0.500000 -3.000000 18.500000 255 204 102
3.750000 2.750000 13.500000 255 51 51
3.000000 3.500000 12.500000 255 51 51
3.000000 3.500000 13.500000 255 51 51
-1.500000 -1.500000 18.000000 255 204 102
-1.500000 -2.000000 17.500000 255 204 102
-1.500000 -2.000000 18.000000 255 204 102
1.500000 -1.500000 18.000000 255 204 102
1.500000 -2.000000 18.000000 255 204 102
1.500000 -2.000000 17.500000 255 204 102
0.500000 2.000000 21.500000 255 255 102
0.500000 -2.000000 25.500000 255 255 102
0.500000 -2.000000 21.500000 255 255 102
0.000000 -2.000000 26.000000 255 255 102
0.000000 -2.500000 25.500000 255 255 102
2.000000 -2.000000 14.000000 255 204 102
2.500000 -1.500000 14.000000 255 204 102
2.500000 -1.000000 14.500000 255 204 102
-2.500000 -1.000000 17.500000 255 204 102
-1.500000 2.000000 18.500000 255 204 102
-2.500000 2.000000 17.500000 255 204 102
3.500000 -1.000000 6.500000 255 204 102
2.500000 -3.000000 14.500000 255 204 102
1.000000 -4.000000 14.000000 255 204 102
2.000000 -3.000000 14.000000 255 204 102
3.750000 -0.750000 11.500000 255 51 51
3.000000 -1.500000 13.500000 255 51 51
3.000000 -1.500000 11.500000 255 51 51
4.000000 -2.000000 6.000000 255 204 102
2.000000 0.250000 6.250000 255 51 51
2.000000 0.500000 6.500000 255 51 51
3.000000 -1.000000 14.000000 255 51 51
2.750000 -1.000000 14.250000 255 51 51
-1.000000 0.000000 6.000000 0 255 51
-1.000000 1.750000 6.250000 0 255 51
1.000000 2.500000 5.500000 0 255 51
2.000000 1.000000 5.000000 0 255 51
1.000000 2.000000 5.000000 0 255 51
-3.750000 0.000000 10.750000 255 51 51
-3.750000 2.000000 10.750000 255 51 51
-0.750000 -2.000000 21.250000 255 204 102
-1.500000 2.000000 20.500000 255 204 102
-1.500000 -2.000000 20.500000 255 204 102
-2.000000 0.500000 1.500000 0 255 51
1.000000 -1.500000 5.500000 0 255 51
1.000000 -1.000000 6.000000 0 255 51
0.750000 -2.750000 18.000000 204 255 255
1.500000 -2.000000 18.500000 204 255 255
0.750000 -2.750000 18.500000 204 255 255
-2.000000 0.000000 1.000000 255 255 0
-2.500000 0.000000 0.500000 255 255 0
0.750000 -2.000000 21.250000 255 204 102
0.500000 -2.500000 21.000000 255 204 102
1.000000 -2.500000 20.500000 255 204 102
-5.500000 -1.000000 5.500000 255 204 102
-5.000000 -1.000000 6.000000 255 204 102
4.000000 -0.500000 13.500000 255 204 102
4.000000 0.000000 14.000000 255 204 102
-3.500000 -0.500000 11.000000 255 204 102
2.000000 0.000000 6.000000 0 255 51
-1.000000 0.250000 6.250000 0 255 51
-6.000000 -0.500000 8.500000 255 204 102
-6.500000 -2.000000 6.500000 255 204 102
-6.000000 -2.500000 6.500000 255 204 102
6.500000 0.000000 5.500000 255 204 102
6.000000 0.500000 5.500000 255 204 102
-4.000000 2.500000 13.500000 255 204 102
-3.500000 2.500000 14.000000 255 204 102
-3.750000 2.750000 13.500000 255 204 102
-3.833330 2.833330 12.333300 255 204 102
-4.000000 3.500000 11.500000 255 204 102
-4.000000 2.500000 12.500000 255 204 102
2.500000 -1.000000 17.500000 255 204 102
1.500000 2.000000 18.500000 255 204 102
1.500000 -1.000000 18.500000 255 204 102
-1.000000 -4.500000 14.500000 255 204 102
-2.000000 -3.000000 14.000000 255 204 102
-1.000000 -4.000000 14.000000 255 204 102
4.000000 2.500000 13.500000 255 204 102
3.500000 2.500000 14.000000 255 204 102
4.000000 2.000000 14.000000 255 204 102
2.000000 0.500000 4.000000 0 255 51
-6.000000 0.500000 5.500000 255 204 102
5.000000 -0.500000 8.500000 255 204 102
4.500000 -1.000000 9.500000 255 204 102
4.500000 0.000000 8.500000 255 204 102
-4.500000 0.000000 6.500000 255 204 102
-3.500000 -1.000000 6.500000 255 204 102
-2.500000 1.000000 6.000000 255 51 51
-2.000000 0.500000 8.500000 255 51 51
-3.750000 2.750000 13.500000 255 51 51
-3.000000 3.500000 12.500000 255 51 51
-3.750000 2.750000 12.500000 255 51 51
-1.500000 0.000000 0.500000 255 255 0
6.000000 1.500000 6.500000 255 204 102
-1.500000 0.500000 1.000000 255 255 0
-2.000000 0.250000 1.250000 255 255 0
3.750000 0.000000 10.750000 255 204 102
4.000000 0.000000 11.000000 255 204 102
2.000000 1.500000 8.500000 255 51 51
2.000000 1.500000 6.000000 255 51 51
1.500000 2.000000 20.500000 255 204 102
0.750000 2.000000 21.250000 255 204 102
6.500000 1.000000 6.500000 255 204 102
5.000000 -2.500000 5.500000 255 204 102
4.500000 -2.000000 5.500000 255 204 102
2.750000 -1.000000 14.250000 255 204 102
2.750000 0.000000 14.250000 255 204 102
6.500000 0.000000 11.500000 255 204 102
6.500000 3.000000 9.500000 255 204 102
6.500000 3.000000 11.500000 255 204 102
-4.000000 2.000000 14.000000 255 204 102
-5.000000 -2.500000 5.500000 255 204 102
-2.500000 1.000000 1.000000 255 255 0
-2.000000 1.500000 1.000000 255 255 0
6.500000 -2.000000 6.500000 255 204 102
-0.750000 2.000000 21.250000 255 255 102
-0.750000 -2.000000 21.250000 255 255 102
-2.000000 2.500000 17.500000 255 204 102
-1.000000 -2.500000 20.500000 255 204 102
-1.500000 -2.500000 19.000000 204 255 255
-0.833333 -2.833330 18.666700 204 255 255
1.000000 2.500000 18.500000 255 204 102
1.000000 2.500000 20.500000 255 204 102
-3.000000 -1.500000 11.500000 255 51 51
-3.750000 -0.750000 13.500000 255 51 51
-3.750000 -0.750000 11.500000 255 51 51
-4.000000 0.000000 14.000000 255 204 102
5.500000 -1.000000 5.500000 255 204 102
5.500000 -1.000000 4.500000 255 204 102
2.000000 0.500000 8.500000 255 51 51
-4.500000 -2.000000 5.500000 255 204 102
-6.000000 -0.500000 11.500000 255 204 102
-6.500000 -1.000000 10.500000 255 204 102
-6.000000 -1.500000 10.500000 255 204 102
1.500000 -1.500000 19.000000 255 204 102
3.750000 2.000000 10.750000 255 51 51
3.750000 0.000000 10.750000 255 51 51
5.500000 0.000000 5.500000 255 204 102
-5.500000 0.000000 5.500000 255 204 102
-1.000000 2.500000 20.500000 255 204 102
-0.750000 2.000000 21.250000 255 204 102
-0.500000 2.500000 21.000000 255 204 102
3.000000 3.000000 14.000000 255 51 51
-3.000000 3.000000 14.000000 255 51 51
-6.500000 -1.000000 9.500000 255 204 102
-6.500000 0.000000 8.500000 255 204 102
-2.000000 -0.500000 9.500000 255 51 51
-3.000000 -0.500000 10.500000 255 51 51
6.000000 -0.500000 11.500000 255 204 102
0.833333 -2.833330 18.666700 255 204 102
0.000000 -3.000000 17.000000 255 204 102
-4.500000 2.000000 10.500000 255 204 102
-2.000000 0.250000 1.250000 0 255 51
-6.000000 3.500000 9.500000 255 204 102
-5.000000 1.500000 7.500000 255 204 102
-6.000000 1.500000 7.500000 255 204 102
4.500000 0.000000 6.500000 255 204 102
-1.000000 1.750000 14.250000 255 204 102
4.000000 -1.000000 6.000000 255 204 102
6.000000 2.500000 12.500000 255 204 102
6.000000 3.500000 11.500000 255 204 102
6.000000 -2.500000 6.500000 255 204 102
2.000000 0.500000 2.500000 255 255 0
1.500000 0.500000 3.000000 255 255 0
1.500000 1.000000 2.500000 255 255 0
3.750000 2.750000 12.500000 255 51 51
3.500000 3.500000 12.000000 255 51 51
-5.000000 -1.500000 9.500000 255 204 102
-6.000000 -1.500000 9.500000 255 204 102
1.000000 -4.500000 15.500000 255 204 102
-1.000000 -4.500000 15.500000 255 204 102
-6.000000 2.500000 12.500000 255 204 102
-6.000000 3.500000 11.500000 255 204 102
-2.000000 1.500000 4.500000 0 255 51
-3.750000 2.750000 12.500000 255 204 102
-1.000000 -1.500000 13.500000 255 51 51
2.000000 0.000000 3.000000 0 255 51
2.500000 1.000000 5.500000 0 255 51
2.000000 0.000000 5.000000 0 255 51
-2.500000 1.000000 6.000000 0 255 51
3.750000 2.750000 12.500000 255 204 102
3.750000 2.750000 13.500000 255 204 102
-2.500000 0.500000 1.000000 255 255 0
0.750000 2.000000 21.250000 255 255 102
-4.000000 -2.000000 6.000000 255 204 102
-4.000000 -1.000000 6.000000 255 204 102
-2.500000 -3.000000 14.500000 255 204 102
5.000000 1.500000 7.500000 255 204 102
4.000000 -0.500000 11.500000 255 204 102
-5.000000 -0.500000 8.500000 255 204 102
-4.500000 -1.000000 9.500000 255 204 102
1.500000 -1.500000 18.000000 204 255 255
1.500000 -1.500000 19.000000 204 255 255
1.000000 -4.500000 14.500000 255 204 102
5.000000 3.500000 9.500000 255 204 102
4.500000 3.000000 9.500000 255 204 102
3.500000 3.500000 11.000000 255 204 102
1.000000 1.000000 5.000000 0 255 51
-6.500000 3.000000 11.500000 255 204 102
-6.500000 3.000000 9.500000 255 204 102
-3.000000 -1.500000 13.500000 255 51 51
6.500000 -1.000000 10.500000 255 204 102
-2.000000 1.500000 8.500000 255 51 51
3.000000 2.500000 10.500000 255 51 51
6.500000 1.000000 7.500000 255 204 102
6.000000 1.500000 7.500000 255 204 102
2.000000 0.250000 2.750000 0 255 51
-1.000000 -4.000000 16.000000 255 204 102
1.000000 -4.000000 16.000000 255 204 102
4.000000 2.500000 12.500000 255 204 102
6.000000 3.500000 9.500000 255 204 102
-3.500000 3.500000 12.000000 255 51 51
3.000000 3.500000 11.500000 255 51 51
1.500000 0.500000 3.500000 255 255 0
2.000000 0.500000 4.000000 255 255 0
-2.500000 0.000000 15.500000 255 204 102
-2.500000 0.000000 14.500000 255 204 102
-6.500000 0.000000 5.500000 255 204 102
-6.500000 1.000000 6.500000 255 204 102
-2.500000 -1.000000 14.500000 255 204 102
-2.750000 0.000000 14.250000 255 204 102
-2.750000 -1.000000 14.250000 255 204 102
-1.500000 1.000000 1.000000 255 255 0
-6.500000 2.000000 12.500000 255 204 102
-5.000000 -1.500000 10.500000 255 204 102
3.833330 2.833330 12.333300 255 204 102
4.000000 3.500000 11.500000 255 204 102
2.500000 1.000000 2.500000 255 255 0
2.500000 0.500000 3.000000 255 255 0
2.000000 0.250000 2.750000 255 255 0
6.000000 -1.500000 9.500000 255 204 102
5.000000 -1.500000 9.500000 255 204 102
-2.000000 1.500000 1.000000 0 255 51
2.500000 -3.000000 15.500000 255 204 102
-4.500000 1.000000 7.500000 255 204 102
6.000000 -0.500000 8.500000 255 204 102
6.500000 0.000000 8.500000 255 204 102
-2.500000 -1.500000 14.000000 255 204 102
-0.166667 -0.833333 13.666700 255 204 102
0.000000 -1.000000 14.000000 255 204 102
1.000000 -1.500000 13.500000 255 51 51
-6.500000 1.000000 7.500000 255 204 102
-6.000000 1.500000 6.500000 255 204 102
1.833330 0.833333 14.333300 255 204 102
2.500000 0.500000 14.000000 255 204 102
3.750000 -0.750000 13.500000 255 204 102
3.750000 -0.750000 11.500000 255 204 102
-4.500000 -1.000000 7.500000 255 204 102
-0.500000 -2.500000 21.000000 255 204 102
6.500000 -1.000000 9.500000 255 204 102
6.000000 -1.500000 10.500000 255 204 102
-4.000000 -0.500000 13.500000 255 204 102
-3.500000 -0.500000 14.000000 255 204 102
-3.250000 3.000000 10.750000 255 204 102
-5.000000 3.500000 9.500000 255 204 102
-1.000000 2.500000 18.500000 255 204 102
-2.500000 -1.500000 14.000000 255 51 51
-3.000000 -1.000000 14.000000 255 51 51
-2.000000 -2.000000 14.000000 255 204 102
-6.500000 0.000000 11.500000 255 204 102
3.000000 -0.500000 10.500000 255 51 51
-3.000000 3.500000 13.500000 255 51 51
0.166667 -0.833333 13.666700 255 51 51
0.500000 -1.500000 14.000000 255 51 51
1.500000 0.000000 4.500000 0 255 51
-2.000000 1.500000 6.000000 255 51 51
1.500000 -1.000000 5.500000 0 255 51
-3.500000 3.500000 11.000000 255 204 102
-4.500000 3.000000 9.500000 255 204 102
-0.166667 -0.833333 13.666700 255 51 51
0.000000 -0.500000 13.500000 255 51 51
2.000000 -0.500000 9.500000 255 51 51
-2.000000 0.500000 6.000000 255 51 51
-2.000000 -3.000000 16.000000 255 204 102
2.000000 -3.000000 16.000000 255 204 102
-1.500000 -1.500000 19.000000 255 204 102
-1.500000 -1.000000 18.500000 255 204 102
3.500000 -0.500000 11.000000 255 204 102
0.166667 -0.833333 13.666700 255 204 102
-4.500000 -1.000000 10.500000 255 204 102
-4.500000 0.000000 8.500000 255 204 102
0.750000 -2.000000 21.250000 255 255 102
-2.500000 -3.000000 15.500000 255 204 102
-1.500000 -2.000000 18.500000 204 255 255
-1.500000 -1.500000 18.000000 204 255 255
3.500000 3.500000 12.000000 255 204 102
4.500000 2.000000 10.500000 255 204 102
2.000000 2.500000 9.500000 255 51 51
-2.750000 -1.000000 14.250000 255 51 51
4.500000 1.000000 7.500000 255 204 102
0.750000 -2.750000 18.000000 255 204 102
5.000000 -1.000000 6.000000 255 204 102
3.750000 -0.750000 13.500000 255 51 51
3.500000 -0.500000 14.000000 255 51 51
2.500000 -1.750000 13.750000 255 51 51
1.500000 -2.500000 19.000000 204 255 255
2.500000 0.500000 3.500000 255 255 0
2.500000 1.000000 6.000000 0 255 51
-1.500000 -3.000000 19.500000 255 204 102
-0.833333 -2.833330 18.666700 255 204 102
2.500000 2.000000 17.500000 255 204 102
3.500000 3.500000 11.000000 255 51 51
-1.833330 0.833333 14.333300 255 204 102
3.500000 -0.500000 14.000000 255 204 102
-2.500000 -1.750000 13.750000 255 51 51
-1.000000 -1.750000 13.750000 255 51 51
4.500000 -1.000000 7.500000 255 204 102
-0.750000 -2.750000 18.000000 255 204 102
-3.500000 3.500000 11.000000 255 51 51
-3.000000 3.500000 11.500000 255 51 51
2.500000 0.500000 6.000000 0 255 51
-2.000000 2.500000 9.500000 255 51 51
2.000000 2.500000 17.500000 255 204 102
-3.750000 -0.750000 11.500000 255 204 102
-3.750000 -0.750000 13.500000 255 204 102
-3.750000 0.000000 10.750000 255 204 102
-3.000000 2.500000 10.500000 255 51 51
3.250000 3.000000 10.750000 255 204 102
-5.500000 -1.000000 4.500000 255 204 102
3.500000 -0.500000 11.000000 255 51 51
2.500000 -1.750000 13.750000 255 204 102
1.000000 1.750000 6.250000 0 255 51
1.500000 -2.000000 18.000000 204 255 255
1.500000 -3.000000 19.500000 255 204 102
1.500000 -2.000000 20.500000 255 204 102
2.000000 0.250000 6.250000 0 255 51
-3.500000 3.500000 12.000000 255 204 102
6.500000 2.000000 12.500000 255 204 102
0.000000 2.500000 15.500000 255 204 102
1.500000 -2.500000 19.000000 255 204 102
3.500000 2.500000 14.000000 255 51 51
-3.500000 2.500000 14.000000 255 51 51
-3.500000 -0.500000 14.000000 255 51 51
-3.500000 -0.500000 11.000000 255 51 51
0.750000 -2.750000 18.500000 255 204 102
0.500000 2.500000 21.000000 255 204 102
1.000000 1.750000 14.250000 255 204 102
3.833330 2.833330 12.333300 255 51 51
2.500000 0.000000 5.500000 0 255 51
-3.833330 2.833330 12.333300 255 51 51
-2.500000 -1.750000 13.750000 255 204 102
0.000000 -0.750000 13.750000 255 204 102
1.500000 1.500000 14.000000 255 204 102
0.000000 -0.750000 13.750000 255 51 51
1.000000 -1.750000 13.750000 255 51 51
-0.500000 -1.500000 14.000000 255 51 51
-1.500000 -2.500000 19.000000 255 204 102
-1.500000 -1.500000 19.000000 204 255 255
2.500000 -1.500000 14.000000 255 51 51
0.833333 -2.833330 18.666700 204 255 255
-0.750000 -2.750000 18.500000 255 204 102
-2.500000 0.500000 14.000000 255 204 102
-1.500000 1.500000 14.000000 255 204 102
3 0 1 2
3 3 0 2
3 4 5 6
3 7 4 6
3 1 0 8
3 8 0 3
3 9 10 11
3 12 13 14
3 15 16 17
3 18 15 17
3 17 16 19
3 18 17 19
3 20 21 22
3 23 20 22
3 24 25 26
3 27 28 29
3 30 31 32
3 33 34 35
3 36 21 20
3 37 38 39
3 40 41 42
3 32 43 35
3 44 45 46
3 47 48 36
3 21 36 49
3 42 39 50
3 51 52 53
3 54 25 55
3 25 49 55
3 49 56 55
3 56 57 55
3 58 59 60
3 61 58 60
3 62 63 64
3 65 62 64
3 66 67 68
3 69 66 68
3 70 71 72
3 51 73 52
3 73 74 52
3 74 75 52
3 52 75 76
3 77 52 78
3 77 78 79
3 80 81 82
3 83 84 85
3 86 87 88
3 89 90 74
3 91 92 93
3 94 95 96
3 97 98 99
3 100 101 102
3 103 86 104
3 105 106 107
3 108 109 110
3 111 112 113
3 114 115 116
3 100 117 118
3 119 120 121
3 122 123 124
3 120 125 126
3 122 127 128
3 129 130 131
3 132 133 134
3 135 136 137
3 138 139 140
3 141 142 143
3 144 145 137
3 146 147 148
3 149 150 151
3 147 146 152
3 153 154 155
3 156 157 158
3 159 160 161
3 162 163 164
3 165 166 167
3 168 169 170
3 171 172 173
3 174 175 176
3 29 177 23
3 178 179 180
3 181 182 183
3 184 181 185
3 186 187 188
3 186 189 190
3 191 192 130
3 184 193 194
3 187 195 196
3 197 198 199
3 200 201 202
3 203 204 205
3 206 207 208
3 203 208 209
3 210 211 212
3 213 210 212
3 214 211 215
3 216 217 213
3 218 219 220
3 221 222 223
3 224 225 226
3 227 228 229
3 230 140 231
3 228 230 231
3 232 233 234
3 235 236 237
3 141 213 217
3 123 128 238
3 239 240 241
3 242 243 244
3 124 123 245
3 93 246 247
3 248 189 249
3 84 250 73
3 251 252 79
3 253 254 113
3 165 255 256
3 257 258 259
3 76 260 14
3 83 261 262
3 263 264 265
3 1 266 267
3 268 269 270
3 271 87 272
3 273 179 274
3 151 275 149
3 276 277 250
3 278 279 280
3 281 64 282
3 283 284 285
3 286 287 288
3 289 290 291
3 292 293 294
3 295 296 297
3 54 28 298
3 252 111 113
3 87 299 88
3 300 301 302
3 303 125 304
3 305 306 166
3 307 308 309
3 7 310 4
3 100 311 101
3 266 312 313
3 314 163 315
3 316 99 317
3 44 48 261
3 289 226 191
3 268 318 319
3 174 198 175
3 101 320 282
3 38 321 322
3 205 323 324
3 325 326 327
3 283 199 328
3 33 329 34
3 6 330 331
3 332 41 40
3 139 333 334
3 207 237 335
3 336 257 259
3 337 70 338
3 21 49 22
3 318 339 340
3 341 342 343
3 301 148 147
3 176 344 174
3 345 63 346
3 55 29 54
3 99 347 247
3 178 202 179
3 33 271 348
3 349 350 351
3 36 56 49
3 45 85 84
3 291 318 352
3 96 353 354
3 214 212 211
3 102 282 355
3 356 60 299
3 357 358 359
3 360 361 195
3 278 362 363
3 167 364 365
3 325 180 366
3 367 142 217
3 368 192 216
3 151 369 158
3 260 9 370
3 30 35 34
3 371 372 373
3 139 82 81
3 25 298 26
3 295 202 201
3 117 102 374
3 131 368 214
3 88 104 86
3 340 319 318
3 31 280 279
3 128 374 238
3 375 206 208
3 374 376 238
3 377 327 378
3 321 41 379
3 380 381 382
3 383 384 219
3 278 385 386
3 292 387 388
3 389 287 390
3 78 76 391
3 77 252 254
3 288 285 392
3 137 393 135
3 200 377 201
3 394 27 29
3 30 34 329
3 395 396 253
3 106 391 397
3 346 39 38
3 295 398 399
3 355 64 63
3 220 361 360
3 37 42 41
3 2 267 4
3 109 115 110
3 142 336 143
3 266 400 267
3 229 401 227
3 304 402 403
3 141 211 210
3 388 404 292
3 405 311 118
3 366 406 146
3 407 408 385
3 264 409 410
3 292 240 411
3 412 413 414
3 415 53 52
3 416 371 417
3 169 173 294
3 135 418 341
3 346 322 345
3 366 419 325
3 116 109 420
3 403 303 304
3 421 155 160
3 422 311 423
3 394 24 424
3 425 387 426
3 238 245 123
3 295 377 427
3 428 327 326
3 423 326 422
3 429 309 308
3 227 134 230
3 308 219 430
3 195 193 196
3 348 272 402
3 68 431 432
3 433 206 434
3 299 435 436
3 437 438 439
3 228 81 229
3 19 16 382
3 428 405 412
3 7 331 440
3 172 232 173
3 389 416 441
3 349 442 150
3 443 427 444
3 445 19 66
3 247 97 99
3 380 446 447
3 300 448 449
3 14 13 450
3 451 234 204
3 452 104 372
3 251 78 105
3 451 411 239
3 59 58 43
3 40 42 50
3 3 266 8
3 453 332 454
3 437 439 455
3 456 457 168
3 458 137 145
3 459 460 436
3 461 205 462
3 435 60 59
3 406 463 464
3 197 288 389
3 465 407 126
3 381 67 382
3 270 466 336
3 467 468 448
3 328 344 284
3 469 470 344
3 103 87 86
3 18 380 15
3 369 471 156
3 16 380 382
3 121 329 348
3 232 239 241
3 360 218 220
3 287 472 390
3 236 335 237
3 236 357 473
3 474 475 418
3 404 476 293
3 477 176 175
3 145 478 244
3 307 361 479
3 480 458 481
3 415 482 57
3 362 351 350
3 483 166 420
3 146 315 152
3 121 120 126
3 51 46 45
3 250 89 73
3 484 276 262
3 485 471 486
3 373 417 371
3 476 170 169
3 487 393 488
3 306 489 364
3 490 93 306
3 491 492 130
3 493 258 494
3 29 22 394
3 495 315 406
3 457 496 171
3 497 498 369
3 363 417 459
3 229 80 499
3 365 135 341
3 129 235 500
3 501 502 71
3 63 50 346
3 408 442 385
3 414 503 444
3 386 442 351
3 272 403 402
3 198 389 441
3 421 353 95
3 152 163 504
3 420 505 316
3 453 467 448
3 182 506 183
3 507 118 117
3 216 508 217
3 119 125 120
3 453 300 127
3 376 509 245
3 44 56 48
3 248 510 511
3 489 144 136
3 512 458 243
3 513 265 264
3 84 51 45
3 507 302 504
3 69 432 514
3 395 112 515
3 133 138 134
3 516 517 143
3 150 497 151
3 74 397 75
3 406 180 273
3 250 262 276
3 140 81 231
3 518 204 209
3 449 468 148
3 160 519 161
3 400 5 267
3 373 104 460
3 206 520 434
3 446 69 514
3 53 56 46
3 433 235 237
3 274 297 521
3 522 393 523
3 145 243 458
3 345 102 355
3 300 302 524
3 214 215 525
3 349 150 176
3 155 526 527
3 260 12 14
3 528 395 515
3 253 396 415
3 529 421 505
3 339 357 340
3 530 290 518
3 469 531 532
3 322 509 345
3 271 61 356
3 426 491 425
3 377 444 427
3 312 7 440
3 151 157 533
3 256 153 534
3 273 521 463
3 535 504 162
3 61 43 58
3 536 35 43
3 216 212 368
3 396 484 482
3 354 537 478
3 70 501 71
3 203 209 204
3 218 383 219
3 232 538 233
3 233 323 234
3 235 494 236
3 141 210 213
3 123 122 128
3 239 411 240
3 242 510 243
3 245 322 321
3 321 124 245
3 93 92 246
3 248 190 189
3 84 83 250
3 251 539 252
3 252 113 254
3 395 253 113
3 165 167 255
3 257 358 258
3 76 75 260
3 83 85 261
3 263 540 264
3 1 8 266
3 142 541 270
3 542 268 270
3 270 541 542
3 271 356 87
3 273 180 179
3 531 149 275
3 151 533 275
3 276 543 277
3 278 363 279
3 281 65 64
3 283 328 284
3 286 544 287
3 288 392 286
3 289 518 290
3 292 404 293
3 295 399 296
3 54 29 28
3 252 539 111
3 87 356 299
3 300 449 301
3 303 465 125
3 305 490 306
3 307 479 308
3 2 4 310
3 310 3 2
3 100 118 311
3 266 310 312
3 314 164 163
3 98 317 99
3 316 94 99
3 261 85 44
3 48 47 261
3 492 426 387
3 451 289 191
3 289 291 224
3 492 387 451
3 226 192 191
3 191 492 451
3 289 224 226
3 268 542 318
3 174 199 198
3 281 282 320
3 101 311 320
3 38 37 321
3 205 234 323
3 422 326 454
3 545 200 178
3 326 325 454
3 281 320 422
3 40 65 281
3 454 332 281
3 419 467 454
3 545 178 325
3 325 419 454
3 332 40 281
3 281 422 454
3 545 325 327
3 283 197 199
3 33 348 329
3 6 5 330
3 332 379 41
3 139 138 333
3 335 546 207
3 207 433 237
3 546 208 207
3 259 516 336
3 336 466 257
3 516 143 336
3 337 501 70
3 394 22 49
3 49 25 394
3 318 290 339
3 341 418 342
3 301 449 148
3 176 469 344
3 345 355 63
3 55 482 484
3 177 29 55
3 55 484 177
3 99 94 347
3 178 200 202
3 33 536 271
3 349 477 350
3 36 48 56
3 45 44 85
3 291 290 318
3 318 542 352
3 541 547 542
3 352 224 291
3 542 547 352
3 96 95 353
3 214 368 212
3 102 101 282
3 356 61 60
3 357 258 358
3 248 511 190
3 548 360 187
3 361 549 184
3 550 475 182
3 181 184 549
3 549 550 182
3 182 181 549
3 190 511 548
3 195 187 360
3 186 190 548
3 361 184 194
3 187 186 548
3 361 194 195
3 278 386 362
3 365 341 551
3 551 255 365
3 341 343 551
3 306 364 167
3 167 166 306
3 365 255 167
3 325 178 180
3 217 552 367
3 367 547 541
3 541 142 367
3 141 217 142
3 368 130 192
3 151 497 369
3 260 10 9
3 30 32 35
3 371 472 372
3 139 334 82
3 25 54 298
3 295 297 202
3 117 100 102
3 131 130 368
3 88 460 104
3 340 553 319
3 31 30 280
3 128 524 374
3 208 203 554
3 554 375 208
3 374 102 376
3 377 545 327
3 321 37 41
3 379 124 321
3 380 447 381
3 383 555 384
3 278 407 385
3 292 411 387
3 389 288 287
3 78 52 76
3 77 79 252
3 288 283 285
3 137 488 393
3 200 545 377
3 394 424 27
3 280 30 329
3 329 121 280
3 395 556 396
3 106 78 391
3 391 450 10
3 10 397 391
3 450 11 10
3 397 107 106
3 346 50 39
3 295 427 398
3 355 282 64
3 220 479 361
3 37 39 42
3 5 4 267
3 2 1 267
3 109 116 115
3 142 270 336
3 266 313 400
3 229 499 401
3 304 119 402
3 141 215 211
3 388 500 404
3 405 423 311
3 146 148 468
3 468 366 146
3 407 498 408
3 264 540 409
3 410 513 264
3 292 294 240
3 412 405 413
3 413 535 414
3 405 507 413
3 415 57 53
3 416 390 371
3 294 293 169
3 169 168 171
3 293 476 169
3 241 240 173
3 173 232 241
3 168 457 171
3 173 240 294
3 169 171 173
3 135 393 418
3 346 38 322
3 366 468 419
3 420 316 116
3 317 114 116
3 109 108 483
3 316 317 116
3 109 483 420
3 403 87 303
3 430 160 155
3 421 534 155
3 155 527 430
3 422 320 311
3 394 25 24
3 425 388 387
3 238 376 245
3 295 201 377
3 428 378 327
3 423 428 326
3 429 557 309
3 227 401 132
3 132 134 227
3 230 228 227
3 526 429 527
3 308 479 220
3 219 384 430
3 308 220 219
3 527 429 308
3 384 519 430
3 430 527 308
3 195 194 193
3 348 271 272
3 68 67 431
3 433 207 206
3 436 460 88
3 88 299 436
3 437 434 438
3 228 231 81
3 382 67 66
3 66 19 382
3 428 423 405
3 7 6 331
3 172 538 232
3 389 390 416
3 349 351 442
3 443 398 427
3 444 503 443
3 66 69 445
3 445 18 19
3 247 246 97
3 380 445 446
3 300 453 448
3 450 391 14
3 76 14 391
3 518 289 204
3 451 239 234
3 234 205 204
3 204 289 451
3 452 103 104
3 106 105 78
3 251 79 78
3 451 387 411
3 43 32 31
3 31 59 43
3 50 62 65
3 65 40 50
3 3 310 266
3 453 379 332
3 476 437 455
3 455 558 476
3 456 559 457
3 458 488 137
3 459 373 460
3 461 560 203
3 554 203 560
3 205 324 462
3 461 203 205
3 435 299 60
3 406 273 463
3 197 283 288
3 465 498 407
3 126 125 465
3 381 431 67
3 270 269 466
3 467 419 468
3 328 199 174
3 344 470 284
3 328 174 344
3 469 532 470
3 103 303 87
3 18 445 380
3 156 158 369
3 369 486 471
3 16 15 380
3 348 402 121
3 119 121 402
3 232 234 239
3 360 548 218
3 287 544 485
3 485 472 287
3 371 390 472
3 236 473 335
3 236 258 357
3 342 418 475
3 522 474 418
3 475 550 342
3 474 506 475
3 404 437 476
3 477 349 176
3 145 144 478
3 307 549 361
3 480 561 488
3 488 458 480
3 562 481 458
3 415 396 482
3 482 55 57
3 362 386 351
3 483 305 166
3 146 406 315
3 407 278 126
3 280 121 126
3 126 278 280
3 51 53 46
3 74 73 89
3 250 277 89
3 47 36 23
3 20 23 36
3 484 556 276
3 47 23 177
3 262 261 484
3 528 543 276
3 261 47 484
3 556 528 276
3 47 177 484
3 452 372 486
3 472 485 486
3 486 372 472
3 373 459 417
3 476 558 170
3 487 563 393
3 523 393 563
3 488 561 487
3 306 347 489
3 347 306 93
3 490 91 93
3 93 247 347
3 191 130 492
3 129 491 130
3 493 564 259
3 516 259 564
3 258 236 494
3 494 221 493
3 493 259 258
3 29 23 22
3 406 464 495
3 495 314 315
3 457 559 496
3 486 369 498
3 497 408 498
3 498 465 303
3 303 103 452
3 452 486 498
3 498 303 452
3 31 279 435
3 363 362 350
3 477 175 441
3 363 350 477
3 435 59 31
3 459 436 435
3 416 417 477
3 175 198 441
3 441 416 477
3 459 435 279
3 363 477 417
3 459 279 363
3 229 81 80
3 365 136 135
3 129 131 222
3 221 494 235
3 129 222 235
3 388 425 491
3 222 221 235
3 500 388 491
3 491 129 500
3 501 337 565
3 565 502 501
3 63 62 50
3 408 497 442
3 378 428 412
3 412 414 444
3 444 378 412
3 386 385 442
3 272 87 403
3 198 197 389
3 94 316 95
3 421 160 159
3 95 316 505
3 159 353 421
3 505 421 95
3 152 315 163
3 420 529 505
3 453 454 467
3 182 475 506
3 507 405 118
3 216 192 508
3 226 225 192
3 508 552 217
3 192 225 508
3 119 304 125
3 122 124 127
3 379 453 127
3 127 124 379
3 376 102 509
3 44 46 56
3 248 249 566
3 566 512 243
3 243 510 248
3 248 566 243
3 365 364 136
3 489 478 144
3 144 137 136
3 136 364 489
3 512 562 458
3 513 567 265
3 84 73 51
3 147 152 301
3 504 413 507
3 507 117 374
3 374 524 302
3 302 301 152
3 152 504 302
3 507 374 302
3 69 68 432
3 395 113 112
3 230 134 138
3 133 333 138
3 138 140 230
3 141 143 215
3 516 564 517
3 517 568 215
3 215 143 517
3 150 442 497
3 260 75 10
3 74 90 397
3 397 10 75
3 406 366 180
3 250 83 262
3 140 139 81
3 208 546 209
3 530 518 209
3 209 546 530
3 449 448 468
3 160 430 519
3 400 330 5
3 373 372 104
3 438 434 569
3 206 375 570
3 520 569 434
3 206 570 520
3 446 445 69
3 53 57 56
3 433 434 437
3 437 404 500
3 500 235 433
3 433 437 500
3 274 179 202
3 297 296 521
3 274 202 297
3 522 418 393
3 145 244 243
3 345 509 102
3 127 300 524
3 524 128 127
3 525 223 131
3 222 131 223
3 215 568 525
3 525 131 214
3 469 176 150
3 150 149 469
3 155 154 526
3 260 370 12
3 528 556 395
3 52 77 254
3 254 253 415
3 415 52 254
3 529 534 421
3 553 340 359
3 339 530 546
3 546 335 473
3 473 357 339
3 359 340 357
3 339 546 473
3 530 339 290
3 469 149 531
3 322 245 509
3 271 536 61
3 426 492 491
3 377 378 444
3 312 310 7
3 151 158 157
3 529 420 165
3 165 256 534
3 420 166 165
3 153 155 534
3 534 529 165
3 273 274 521
3 163 162 504
3 535 413 504
3 61 536 43
3 536 33 35
3 216 213 212
3 396 556 484
3 478 489 96
3 347 94 96
3 96 354 478
3 537 242 244
3 489 347 96
3 537 244 478
