ply
format ascii 1.0
comment Created by Blender 2.78 (sub 0) - www.blender.org, source file: ''
element vertex 571
property float x
property float y
property float z
property uchar red
property uchar green
property uchar blue
element face 942
property list uchar uint vertex_indices
end_header
-2.000000 -1.500000 0.500000 255 255 0
-2.500000 -1.000000 0.500000 255 255 0
-2.000000 -1.000000 0.000000 255 255 0
-1.500000 -1.000000 0.500000 255 255 0
-2.000000 1.000000 0.000000 255 255 0
-2.500000 1.000000 0.500000 255 255 0
-2.000000 1.500000 0.500000 255 255 0
-1.500000 1.000000 0.500000 255 255 0
-2.000000 -1.000000 1.000000 255 255 0
-2.500000 0.500000 1.000000 0 255 51
-2.500000 1.000000 1.500000 0 255 51
-2.500000 1.000000 1.000000 0 255 51
-1.500000 0.500000 1.000000 0 255 51
-1.500000 1.000000 1.000000 0 255 51
-1.500000 1.000000 1.500000 0 255 51
2.000000 0.500000 1.500000 255 255 0
1.500000 1.000000 1.500000 255 255 0
2.000000 1.000000 1.000000 255 255 0
2.500000 1.000000 1.500000 255 255 0
2.000000 1.500000 1.500000 255 255 0
2.000000 -2.500000 3.500000 0 255 51
1.500000 -2.000000 3.500000 0 255 51
2.000000 -2.000000 3.000000 0 255 51
2.500000 -2.000000 3.500000 0 255 51
1.500000 0.500000 3.000000 0 255 51
1.500000 0.000000 3.500000 0 255 51
1.500000 0.500000 3.500000 0 255 51
2.500000 0.500000 3.000000 0 255 51
2.500000 0.500000 3.500000 0 255 51
2.500000 0.000000 3.500000 0 255 51
-6.000000 -2.500000 4.500000 255 204 102
-6.500000 -2.000000 4.500000 255 204 102
-6.000000 -2.000000 4.000000 255 204 102
-4.500000 -2.000000 4.500000 255 204 102
-5.000000 -2.500000 4.500000 255 204 102
-5.000000 -2.000000 4.000000 255 204 102
2.000000 -2.000000 4.000000 0 255 51
5.000000 -2.500000 4.500000 255 204 102
4.500000 -2.000000 4.500000 255 204 102
5.000000 -2.000000 4.000000 255 204 102
6.500000 -2.000000 4.500000 255 204 102
6.000000 -2.500000 4.500000 255 204 102
6.000000 -2.000000 4.000000 255 204 102
-6.000000 -1.000000 4.000000 255 204 102
-1.000000 -1.500000 4.500000 0 255 51
-1.500000 -1.000000 4.500000 0 255 51
-1.000000 -1.000000 4.000000 0 255 51
2.000000 -1.500000 4.500000 0 255 51
1.000000 -1.500000 4.500000 0 255 51
1.500000 -1.000000 3.500000 0 255 51
6.000000 -1.000000 4.000000 255 204 102
-1.500000 0.000000 4.500000 0 255 51
-1.000000 1.000000 5.000000 0 255 51
-1.000000 0.000000 4.000000 0 255 51
2.000000 0.000000 4.000000 0 255 51
2.000000 -0.500000 4.500000 0 255 51
1.000000 -1.000000 4.000000 0 255 51
1.000000 0.000000 4.000000 0 255 51
-6.000000 0.000000 4.000000 255 204 102
-6.500000 0.000000 4.500000 255 204 102
-6.000000 0.500000 4.500000 255 204 102
-5.500000 0.000000 4.500000 255 204 102
6.000000 0.000000 4.000000 255 204 102
5.500000 0.000000 4.500000 255 204 102
6.000000 0.500000 4.500000 255 204 102
6.500000 0.000000 4.500000 255 204 102
2.000000 1.500000 3.500000 255 255 0
1.500000 1.000000 3.500000 255 255 0
2.000000 1.000000 4.000000 255 255 0
2.500000 1.000000 3.500000 255 255 0
1.000000 1.500000 15.500000 255 204 102
2.500000 0.000000 14.500000 255 204 102
1.000000 1.500000 14.500000 255 204 102
-1.500000 0.000000 5.500000 0 255 51
-2.000000 0.500000 5.500000 0 255 51
-2.000000 0.500000 4.500000 0 255 51
-1.500000 1.000000 4.500000 0 255 51
-1.000000 2.000000 5.000000 0 255 51
-1.500000 2.000000 5.500000 0 255 51
-1.000000 2.500000 5.500000 0 255 51
0.500000 -2.500000 21.000000 255 255 102
0.000000 -2.500000 21.500000 255 255 102
-0.500000 -2.500000 21.000000 255 255 102
-1.000000 -1.000000 6.000000 0 255 51
-1.500000 -1.000000 5.500000 0 255 51
-1.000000 -1.500000 5.500000 0 255 51
-5.000000 1.000000 6.000000 255 204 102
-5.000000 0.000000 6.000000 255 204 102
-6.000000 1.000000 6.000000 255 204 102
-1.500000 0.500000 6.000000 0 255 51
-2.000000 0.500000 6.000000 0 255 51
-1.500000 0.500000 6.000000 255 51 51
-1.000000 0.250000 6.250000 255 51 51
-1.000000 0.500000 6.500000 255 51 51
2.500000 1.000000 8.500000 255 51 51
2.500000 2.000000 9.500000 255 51 51
2.500000 0.000000 9.500000 255 51 51
2.500000 0.500000 6.000000 255 51 51
2.500000 1.000000 6.000000 255 51 51
2.500000 1.000000 6.500000 255 51 51
5.000000 1.000000 6.000000 255 204 102
6.000000 1.000000 6.000000 255 204 102
5.000000 0.000000 6.000000 255 204 102
-4.500000 1.000000 6.500000 255 204 102
-5.000000 1.500000 6.500000 255 204 102
-1.500000 1.500000 6.000000 0 255 51
-2.000000 1.500000 5.500000 0 255 51
-2.000000 1.500000 6.000000 0 255 51
-1.500000 1.500000 6.000000 255 51 51
-1.000000 1.500000 6.500000 255 51 51
-1.000000 1.750000 6.250000 255 51 51
1.500000 1.500000 6.000000 0 255 51
2.000000 1.500000 6.000000 0 255 51
2.000000 1.500000 5.500000 0 255 51
1.500000 1.500000 6.000000 255 51 51
1.000000 1.750000 6.250000 255 51 51
1.000000 1.500000 6.500000 255 51 51
4.500000 1.000000 6.500000 255 204 102
5.000000 1.500000 6.500000 255 204 102
-3.500000 -2.000000 6.500000 255 204 102
-4.000000 -2.000000 7.000000 255 204 102
-4.000000 -2.500000 6.500000 255 204 102
4.000000 -2.000000 7.000000 255 204 102
3.500000 -2.000000 6.500000 255 204 102
4.000000 -2.500000 6.500000 255 204 102
-4.000000 -1.000000 7.000000 255 204 102
-5.000000 -2.000000 7.000000 255 204 102
5.000000 -2.000000 7.000000 255 204 102
4.000000 -1.000000 7.000000 255 204 102
-2.000000 -2.500000 16.500000 255 204 102
0.000000 -2.500000 16.500000 255 204 102
-1.000000 -2.500000 17.500000 255 204 102
0.500000 2.500000 21.000000 255 255 102
-0.500000 2.500000 21.000000 255 255 102
0.000000 2.500000 21.500000 255 255 102
-1.000000 -1.500000 11.500000 255 51 51
-1.000000 -0.500000 10.500000 255 51 51
0.000000 -0.500000 11.500000 255 51 51
-0.500000 2.000000 21.500000 255 255 102
-0.500000 -2.000000 21.500000 255 255 102
-0.500000 -2.000000 25.500000 255 255 102
0.000000 -3.500000 18.500000 255 204 102
1.000000 -3.500000 19.500000 255 204 102
-1.000000 -3.500000 19.500000 255 204 102
1.000000 -0.500000 10.500000 255 51 51
1.000000 -1.500000 11.500000 255 51 51
5.000000 -1.000000 11.000000 255 204 102
4.500000 -1.000000 10.500000 255 204 102
5.000000 -1.500000 10.500000 255 204 102
-4.000000 -0.500000 11.500000 255 204 102
-5.000000 -0.500000 11.500000 255 204 102
-4.000000 0.000000 11.000000 255 204 102
4.500000 0.000000 10.500000 255 204 102
-3.500000 2.500000 11.000000 255 51 51
-3.250000 3.000000 10.750000 255 51 51
-3.000000 3.000000 11.000000 255 51 51
-3.500000 2.500000 11.000000 255 204 102
-3.750000 2.000000 10.750000 255 204 102
-4.000000 2.000000 11.000000 255 204 102
3.500000 2.500000 11.000000 255 51 51
3.000000 3.000000 11.000000 255 51 51
3.250000 3.000000 10.750000 255 51 51
3.500000 2.500000 11.000000 255 204 102
4.000000 2.000000 11.000000 255 204 102
3.750000 2.000000 10.750000 255 204 102
-2.500000 2.000000 9.500000 255 51 51
-2.500000 1.000000 8.500000 255 51 51
-2.500000 0.000000 9.500000 255 51 51
-0.500000 -1.500000 14.000000 255 204 102
-1.000000 -2.000000 14.000000 255 204 102
-1.000000 -1.750000 13.750000 255 204 102
0.500000 -1.500000 14.000000 255 204 102
1.000000 -1.750000 13.750000 255 204 102
1.000000 -2.000000 14.000000 255 204 102
-6.000000 0.000000 14.000000 255 204 102
-6.500000 0.000000 13.500000 255 204 102
-6.000000 -0.500000 13.500000 255 204 102
2.500000 -1.000000 4.500000 0 255 51
6.500000 0.000000 13.500000 255 204 102
6.000000 0.000000 14.000000 255 204 102
6.000000 -0.500000 13.500000 255 204 102
-2.500000 0.500000 14.000000 255 51 51
-3.000000 0.000000 14.000000 255 51 51
-2.750000 0.000000 14.250000 255 51 51
-1.500000 1.500000 14.000000 255 51 51
-1.833330 0.833333 14.333300 255 51 51
2.500000 0.500000 14.000000 255 51 51
1.500000 1.500000 14.000000 255 51 51
1.833330 0.833333 14.333300 255 51 51
2.750000 0.000000 14.250000 255 51 51
3.000000 0.000000 14.000000 255 51 51
2.000000 -2.500000 16.500000 255 204 102
1.000000 -2.500000 17.500000 255 204 102
-1.000000 1.750000 14.250000 255 51 51
-1.000000 2.000000 14.000000 255 51 51
1.000000 2.000000 14.000000 255 51 51
1.000000 1.750000 14.250000 255 51 51
-6.000000 2.500000 13.500000 255 204 102
-6.500000 2.000000 13.500000 255 204 102
-6.000000 2.000000 14.000000 255 204 102
6.500000 2.000000 13.500000 255 204 102
6.000000 2.500000 13.500000 255 204 102
6.000000 2.000000 14.000000 255 204 102
-3.000000 3.500000 13.500000 255 51 51
-3.750000 2.750000 12.500000 255 51 51
-3.750000 2.750000 13.500000 255 51 51
-1.000000 1.500000 14.500000 255 204 102
-1.000000 1.500000 15.500000 255 204 102
0.000000 1.500000 14.500000 255 204 102
0.000000 -4.500000 17.500000 255 204 102
-0.500000 -4.000000 17.500000 255 204 102
0.000000 -4.000000 17.000000 255 204 102
0.500000 -4.000000 17.500000 255 204 102
-0.500000 -3.000000 17.500000 255 204 102
-0.500000 -3.000000 18.500000 255 204 102
0.500000 -3.000000 17.500000 255 204 102
0.500000 -3.000000 18.500000 255 204 102
3.750000 -0.750000 13.500000 255 51 51
3.000000 -1.500000 11.500000 255 51 51
3.750000 -0.750000 11.500000 255 51 51
-1.500000 -1.500000 18.000000 255 204 102
-1.500000 -2.000000 17.500000 255 204 102
-1.500000 -2.000000 18.000000 255 204 102
1.500000 -1.500000 18.000000 255 204 102
1.500000 -2.000000 18.000000 255 204 102
1.500000 -2.000000 17.500000 255 204 102
0.500000 2.000000 21.500000 255 255 102
0.500000 -2.000000 25.500000 255 255 102
0.500000 -2.000000 21.500000 255 255 102
0.000000 -2.000000 26.000000 255 255 102
0.000000 -2.500000 25.500000 255 255 102
2.500000 -1.500000 14.000000 255 204 102
2.500000 -1.000000 14.500000 255 204 102
2.000000 -2.000000 14.000000 255 204 102
2.000000 0.250000 6.250000 0 255 51
-1.000000 0.000000 6.000000 0 255 51
2.000000 0.000000 6.000000 0 255 51
4.000000 -0.500000 13.500000 255 204 102
3.500000 -0.500000 14.000000 255 204 102
3.750000 -0.750000 13.500000 255 204 102
6.000000 -0.500000 11.500000 255 204 102
6.500000 0.000000 11.500000 255 204 102
-1.500000 -2.000000 18.500000 204 255 255
-0.750000 -2.750000 18.000000 204 255 255
-0.750000 -2.750000 18.500000 204 255 255
4.000000 -2.000000 6.000000 255 204 102
4.500000 -2.000000 5.500000 255 204 102
-1.500000 -1.000000 18.500000 255 204 102
-2.500000 2.000000 17.500000 255 204 102
-2.500000 -1.000000 17.500000 255 204 102
4.000000 2.500000 13.500000 255 204 102
3.500000 2.500000 14.000000 255 204 102
4.000000 2.000000 14.000000 255 204 102
1.000000 2.500000 20.500000 255 204 102
0.750000 2.000000 21.250000 255 204 102
1.500000 2.000000 20.500000 255 204 102
-2.000000 0.500000 6.000000 255 51 51
-2.500000 1.000000 6.000000 255 51 51
2.500000 0.000000 5.500000 0 255 51
2.000000 1.000000 5.000000 0 255 51
2.500000 1.000000 5.500000 0 255 51
-2.500000 0.000000 14.500000 255 204 102
-2.500000 0.000000 15.500000 255 204 102
1.500000 -1.500000 19.000000 204 255 255
1.500000 -2.000000 18.500000 204 255 255
1.500000 -1.500000 18.000000 204 255 255
-3.750000 -0.750000 13.500000 255 204 102
-4.000000 -0.500000 13.500000 255 204 102
-2.000000 1.500000 1.000000 255 255 0
6.500000 2.000000 12.500000 255 204 102
-3.750000 2.000000 10.750000 255 51 51
-3.000000 -1.500000 13.500000 255 51 51
-3.750000 -0.750000 11.500000 255 51 51
-3.000000 -1.500000 11.500000 255 51 51
4.000000 0.000000 11.000000 255 204 102
4.500000 2.000000 10.500000 255 204 102
-2.000000 0.000000 1.000000 255 255 0
-2.500000 0.500000 1.000000 255 255 0
-2.500000 0.000000 0.500000 255 255 0
1.500000 2.000000 18.500000 255 204 102
3.750000 2.750000 12.500000 255 51 51
3.000000 3.500000 13.500000 255 51 51
3.750000 2.750000 13.500000 255 51 51
2.500000 2.000000 17.500000 255 204 102
2.500000 0.000000 15.500000 255 204 102
-5.500000 -1.000000 4.500000 255 204 102
-4.500000 -2.000000 5.500000 255 204 102
2.500000 -3.000000 14.500000 255 204 102
2.000000 -3.000000 14.000000 255 204 102
5.000000 -1.500000 9.500000 255 204 102
4.500000 -1.000000 9.500000 255 204 102
1.500000 1.000000 2.500000 255 255 0
6.000000 -0.500000 8.500000 255 204 102
5.000000 -0.500000 8.500000 255 204 102
-4.000000 -1.000000 6.000000 255 204 102
-3.500000 -1.000000 6.500000 255 204 102
2.500000 0.500000 14.000000 255 204 102
1.833330 0.833333 14.333300 255 204 102
-2.000000 1.500000 4.500000 0 255 51
-3.500000 -0.500000 11.000000 255 204 102
-3.750000 -0.750000 11.500000 255 204 102
-2.500000 -3.000000 15.500000 255 204 102
-1.000000 -4.500000 14.500000 255 204 102
-1.000000 -4.500000 15.500000 255 204 102
-4.000000 2.500000 12.500000 255 204 102
-6.000000 3.500000 11.500000 255 204 102
-6.000000 2.500000 12.500000 255 204 102
-4.500000 -1.000000 10.500000 255 204 102
-1.500000 2.000000 20.500000 255 204 102
-1.000000 2.500000 18.500000 255 204 102
-1.500000 2.000000 18.500000 255 204 102
1.000000 -4.500000 15.500000 255 204 102
2.500000 -3.000000 15.500000 255 204 102
-3.833330 2.833330 12.333300 255 204 102
-4.000000 3.500000 11.500000 255 204 102
6.500000 0.000000 8.500000 255 204 102
6.500000 3.000000 9.500000 255 204 102
2.000000 0.500000 8.500000 255 51 51
-2.000000 -0.500000 9.500000 255 51 51
-2.000000 0.500000 8.500000 255 51 51
-4.500000 0.000000 6.500000 255 204 102
1.000000 2.000000 5.000000 0 255 51
1.000000 1.750000 6.250000 0 255 51
-1.000000 1.750000 6.250000 0 255 51
2.500000 1.000000 2.500000 255 255 0
-5.000000 -0.500000 8.500000 255 204 102
-4.500000 -1.000000 9.500000 255 204 102
-5.000000 -1.500000 9.500000 255 204 102
6.000000 1.500000 7.500000 255 204 102
6.500000 1.000000 7.500000 255 204 102
5.000000 -1.000000 6.000000 255 204 102
5.500000 0.000000 5.500000 255 204 102
5.500000 -1.000000 5.500000 255 204 102
-3.000000 -1.000000 14.000000 255 51 51
1.000000 -1.500000 5.500000 0 255 51
2.000000 0.000000 3.000000 0 255 51
2.000000 0.250000 2.750000 0 255 51
-5.500000 0.000000 5.500000 255 204 102
-5.000000 -1.000000 6.000000 255 204 102
-5.500000 -1.000000 5.500000 255 204 102
5.500000 -1.000000 4.500000 255 204 102
-1.500000 1.000000 1.000000 255 255 0
2.000000 0.500000 6.500000 255 51 51
-2.000000 1.500000 8.500000 255 51 51
-2.000000 1.500000 6.000000 255 51 51
-6.000000 -1.500000 10.500000 255 204 102
-6.000000 -0.500000 11.500000 255 204 102
-6.000000 -0.500000 8.500000 255 204 102
-6.500000 -1.000000 9.500000 255 204 102
-6.500000 0.000000 8.500000 255 204 102
1.500000 -2.000000 20.500000 255 204 102
0.750000 -2.000000 21.250000 255 204 102
-1.500000 0.000000 0.500000 255 255 0
0.000000 -3.000000 17.000000 255 204 102
2.500000 -1.750000 13.750000 255 51 51
1.000000 -1.500000 13.500000 255 51 51
3.000000 -1.500000 13.500000 255 51 51
3.750000 -0.750000 11.500000 255 204 102
4.000000 -0.500000 11.500000 255 204 102
-4.000000 2.000000 14.000000 255 204 102
-4.000000 2.500000 13.500000 255 204 102
-5.000000 1.500000 7.500000 255 204 102
-4.500000 1.000000 7.500000 255 204 102
5.000000 3.500000 9.500000 255 204 102
6.000000 3.500000 9.500000 255 204 102
-6.000000 0.500000 5.500000 255 204 102
-6.500000 0.000000 5.500000 255 204 102
-6.500000 -2.000000 6.500000 255 204 102
3.833330 2.833330 12.333300 255 204 102
4.000000 2.500000 12.500000 255 204 102
4.000000 3.500000 11.500000 255 204 102
1.000000 -4.500000 14.500000 255 204 102
3.750000 2.750000 13.500000 255 204 102
-0.750000 2.000000 21.250000 255 204 102
-1.500000 -2.000000 20.500000 255 204 102
-0.750000 -2.000000 21.250000 255 204 102
4.500000 0.000000 8.500000 255 204 102
-6.000000 -1.500000 9.500000 255 204 102
-6.500000 -1.000000 10.500000 255 204 102
3.500000 -1.000000 6.500000 255 204 102
6.000000 -2.500000 6.500000 255 204 102
6.500000 -2.000000 6.500000 255 204 102
-6.500000 3.000000 11.500000 255 204 102
-6.500000 2.000000 12.500000 255 204 102
-1.000000 2.500000 20.500000 255 204 102
-0.500000 2.500000 21.000000 255 204 102
2.000000 0.500000 2.500000 255 255 0
2.500000 0.500000 3.000000 255 255 0
2.000000 0.250000 2.750000 255 255 0
1.000000 2.500000 5.500000 0 255 51
-1.000000 -4.000000 14.000000 255 204 102
-6.000000 -2.500000 6.500000 255 204 102
0.750000 -2.000000 21.250000 255 255 102
-3.500000 3.500000 11.000000 255 51 51
-3.000000 3.500000 11.500000 255 51 51
6.500000 1.000000 6.500000 255 204 102
6.500000 0.000000 5.500000 255 204 102
6.000000 0.500000 5.500000 255 204 102
-4.000000 -2.000000 6.000000 255 204 102
2.500000 0.500000 3.500000 255 255 0
6.500000 -1.000000 10.500000 255 204 102
6.000000 -1.500000 9.500000 255 204 102
6.500000 -1.000000 9.500000 255 204 102
1.500000 -1.000000 18.500000 255 204 102
2.500000 -1.000000 17.500000 255 204 102
2.000000 2.500000 17.500000 255 204 102
-2.000000 -2.000000 14.000000 255 204 102
-6.000000 1.500000 7.500000 255 204 102
-6.500000 3.000000 9.500000 255 204 102
-6.000000 3.500000 9.500000 255 204 102
-2.500000 -3.000000 14.500000 255 204 102
2.000000 -3.000000 16.000000 255 204 102
-1.000000 -4.000000 16.000000 255 204 102
1.000000 -4.000000 16.000000 255 204 102
0.000000 -0.500000 13.500000 255 51 51
2.000000 1.500000 8.500000 255 51 51
3.750000 0.000000 10.750000 255 51 51
5.000000 1.500000 7.500000 255 204 102
3.500000 3.500000 11.000000 255 51 51
-3.750000 2.750000 12.500000 255 204 102
-2.000000 0.500000 1.500000 0 255 51
6.000000 2.500000 12.500000 255 204 102
6.500000 3.000000 11.500000 255 204 102
6.000000 3.500000 11.500000 255 204 102
-6.500000 1.000000 6.500000 255 204 102
-1.500000 -2.500000 19.000000 204 255 255
-0.833333 -2.833330 18.666700 204 255 255
0.833333 -2.833330 18.666700 255 204 102
3.500000 3.500000 12.000000 255 51 51
3.000000 3.500000 12.500000 255 51 51
-2.750000 -1.000000 14.250000 255 204 102
-2.500000 -1.000000 14.500000 255 204 102
4.500000 1.000000 7.500000 255 204 102
-5.000000 3.500000 9.500000 255 204 102
-2.000000 2.500000 9.500000 255 51 51
-1.833330 0.833333 14.333300 255 204 102
4.500000 3.000000 9.500000 255 204 102
3.500000 3.500000 11.000000 255 204 102
-6.500000 0.000000 11.500000 255 204 102
-1.000000 -1.500000 13.500000 255 51 51
1.500000 0.500000 3.000000 255 255 0
1.500000 -2.000000 18.000000 204 255 255
0.750000 -2.750000 18.500000 204 255 255
0.750000 -2.750000 18.000000 204 255 255
2.500000 1.000000 6.000000 0 255 51
1.500000 -1.000000 5.500000 0 255 51
-6.000000 1.500000 6.500000 255 204 102
-0.750000 -2.750000 18.000000 255 204 102
3.000000 3.500000 11.500000 255 51 51
-2.500000 -1.750000 13.750000 255 51 51
-1.000000 -1.750000 13.750000 255 51 51
-1.500000 0.500000 1.000000 255 255 0
-3.000000 -0.500000 10.500000 255 51 51
-6.500000 1.000000 7.500000 255 204 102
0.000000 -1.000000 14.000000 255 204 102
0.166667 -0.833333 13.666700 255 204 102
-1.500000 -1.500000 18.000000 204 255 255
-1.500000 -2.000000 18.000000 204 255 255
2.000000 0.000000 5.000000 0 255 51
1.500000 0.000000 4.500000 0 255 51
-3.750000 0.000000 10.750000 255 51 51
-3.500000 -0.500000 14.000000 255 204 102
-4.000000 0.000000 14.000000 255 204 102
0.500000 -2.500000 21.000000 255 204 102
-1.000000 -2.500000 20.500000 255 204 102
1.000000 -2.500000 20.500000 255 204 102
-2.000000 0.250000 1.250000 0 255 51
4.500000 0.000000 6.500000 255 204 102
0.500000 -1.500000 14.000000 255 51 51
0.166667 -0.833333 13.666700 255 51 51
4.000000 0.000000 14.000000 255 204 102
-2.000000 -3.000000 14.000000 255 204 102
-4.500000 2.000000 10.500000 255 204 102
-4.500000 3.000000 9.500000 255 204 102
-3.250000 3.000000 10.750000 255 204 102
-0.750000 -2.000000 21.250000 255 255 102
1.000000 1.000000 5.000000 0 255 51
-3.500000 2.500000 14.000000 255 204 102
-3.750000 2.750000 13.500000 255 204 102
1.000000 -1.000000 6.000000 0 255 51
4.000000 -1.000000 6.000000 255 204 102
-3.000000 3.500000 12.500000 255 51 51
2.500000 0.500000 6.000000 0 255 51
-3.500000 3.500000 11.000000 255 204 102
3.500000 3.500000 12.000000 255 204 102
-0.166667 -0.833333 13.666700 255 204 102
-3.000000 3.000000 14.000000 255 51 51
1.000000 1.750000 14.250000 255 204 102
-1.000000 1.750000 14.250000 255 204 102
1.500000 -1.500000 19.000000 255 204 102
1.500000 -2.500000 19.000000 255 204 102
-2.500000 1.000000 6.000000 0 255 51
-2.000000 -3.000000 16.000000 255 204 102
3.250000 3.000000 10.750000 255 204 102
-0.166667 -0.833333 13.666700 255 51 51
2.000000 2.500000 9.500000 255 51 51
3.000000 2.500000 10.500000 255 51 51
1.000000 2.500000 18.500000 255 204 102
5.000000 -2.500000 5.500000 255 204 102
-2.000000 0.250000 1.250000 255 255 0
-4.500000 -1.000000 7.500000 255 204 102
3.500000 -0.500000 11.000000 255 204 102
3.750000 0.000000 10.750000 255 204 102
3.000000 3.000000 14.000000 255 51 51
-2.500000 -1.500000 14.000000 255 204 102
0.000000 2.500000 15.500000 255 204 102
-1.500000 -3.000000 19.500000 255 204 102
-0.833333 -2.833330 18.666700 255 204 102
2.000000 -0.500000 9.500000 255 51 51
-2.000000 1.500000 1.000000 0 255 51
-1.500000 -1.500000 19.000000 255 204 102
-1.500000 -2.500000 19.000000 255 204 102
-3.500000 3.500000 12.000000 255 51 51
0.750000 -2.750000 18.000000 255 204 102
2.000000 0.500000 4.000000 255 255 0
2.750000 -1.000000 14.250000 255 51 51
3.000000 -1.000000 14.000000 255 51 51
-2.000000 2.500000 17.500000 255 204 102
-5.000000 -2.500000 5.500000 255 204 102
1.500000 -2.500000 19.000000 204 255 255
4.500000 -1.000000 7.500000 255 204 102
2.750000 0.000000 14.250000 255 204 102
-3.750000 0.000000 10.750000 255 204 102
-4.500000 0.000000 8.500000 255 204 102
-2.500000 -1.500000 14.000000 255 51 51
-3.000000 2.500000 10.500000 255 51 51
3.500000 -0.500000 11.000000 255 51 51
3.000000 -0.500000 10.500000 255 51 51
2.000000 0.500000 4.000000 0 255 51
2.750000 -1.000000 14.250000 255 204 102
2.500000 -1.750000 13.750000 255 204 102
-1.000000 0.250000 6.250000 0 255 51
0.500000 2.500000 21.000000 255 204 102
-2.500000 1.000000 1.000000 255 255 0
-3.750000 -0.750000 13.500000 255 51 51
1.500000 1.500000 14.000000 255 204 102
-5.000000 -1.500000 10.500000 255 204 102
-3.500000 3.500000 12.000000 255 204 102
-2.750000 -1.000000 14.250000 255 51 51
2.000000 0.250000 6.250000 255 51 51
1.000000 -1.750000 13.750000 255 51 51
3.750000 2.750000 12.500000 255 204 102
1.000000 -4.000000 14.000000 255 204 102
6.000000 1.500000 6.500000 255 204 102
6.000000 -1.500000 10.500000 255 204 102
-2.500000 -1.750000 13.750000 255 204 102
2.000000 1.500000 6.000000 255 51 51
3.750000 2.000000 10.750000 255 51 51
1.500000 -3.000000 19.500000 255 204 102
0.750000 -2.750000 18.500000 255 204 102
3.833330 2.833330 12.333300 255 51 51
-2.750000 0.000000 14.250000 255 204 102
-1.500000 1.500000 14.000000 255 204 102
-2.500000 0.500000 14.000000 255 204 102
1.500000 0.500000 3.500000 255 255 0
-0.750000 -2.750000 18.500000 255 204 102
0.000000 -0.750000 13.750000 255 204 102
-1.500000 -1.500000 19.000000 204 255 255
-3.500000 -0.500000 11.000000 255 51 51
-0.500000 -2.500000 21.000000 255 204 102
-0.750000 2.000000 21.250000 255 255 102
0.000000 -0.750000 13.750000 255 51 51
-3.500000 2.500000 14.000000 255 51 51
-0.500000 -1.500000 14.000000 255 51 51
3.500000 2.500000 14.000000 255 51 51
3.500000 -0.500000 14.000000 255 51 51
-3.500000 -0.500000 14.000000 255 51 51
-3.833330 2.833330 12.333300 255 51 51
0.833333 -2.833330 18.666700 204 255 255
0.750000 2.000000 21.250000 255 255 102
2.500000 -1.500000 14.000000 255 51 51
3 0 1 2
3 3 0 2
3 4 5 6
3 7 4 6
3 1 0 8
3 8 0 3
3 9 10 11
3 12 13 14
3 15 16 17
3 18 15 17
3 17 16 19
3 18 17 19
3 20 21 22
3 23 20 22
3 24 25 26
3 27 28 29
3 30 31 32
3 33 34 35
3 36 21 20
3 37 38 39
3 40 41 42
3 32 43 35
3 44 45 46
3 47 48 36
3 21 36 49
3 42 39 50
3 51 52 53
3 54 25 55
3 25 49 55
3 49 56 55
3 56 57 55
3 58 59 60
3 61 58 60
3 62 63 64
3 65 62 64
3 66 67 68
3 69 66 68
3 70 71 72
3 51 73 52
3 73 74 52
3 74 75 52
3 52 75 76
3 77 52 78
3 77 78 79
3 80 81 82
3 83 84 85
3 86 87 88
3 89 90 74
3 91 92 93
3 94 95 96
3 97 98 99
3 100 101 102
3 103 86 104
3 105 106 107
3 108 109 110
3 111 112 113
3 114 115 116
3 100 117 118
3 119 120 121
3 122 123 124
3 120 125 126
3 122 127 128
3 129 130 131
3 132 133 134
3 135 136 137
3 138 139 140
3 141 142 143
3 144 145 137
3 146 147 148
3 149 150 151
3 147 146 152
3 153 154 155
3 156 157 158
3 159 160 161
3 162 163 164
3 165 166 167
3 168 169 170
3 171 172 173
3 174 175 176
3 29 177 23
3 178 179 180
3 181 182 183
3 184 181 185
3 186 187 188
3 186 189 190
3 191 192 130
3 184 193 194
3 187 195 196
3 197 198 199
3 200 201 202
3 203 204 205
3 206 207 208
3 72 208 70
3 209 210 211
3 212 209 211
3 213 210 214
3 215 216 212
3 217 218 219
3 220 221 222
3 223 224 225
3 226 227 228
3 229 140 230
3 227 229 230
3 231 232 233
3 234 235 236
3 199 175 174
3 237 238 239
3 178 240 241
3 242 243 244
3 124 245 246
3 247 248 249
3 250 251 252
3 253 254 255
3 75 14 76
3 256 166 257
3 258 259 260
3 207 261 262
3 263 264 265
3 149 266 267
3 5 268 6
3 269 201 200
3 167 270 165
3 271 272 273
3 274 275 152
3 276 277 278
3 279 253 255
3 280 281 282
3 283 284 70
3 285 286 33
3 233 287 288
3 289 147 290
3 15 291 16
3 292 289 293
3 119 294 295
3 37 246 38
3 71 296 297
3 52 298 78
3 299 300 149
3 301 302 303
3 304 305 306
3 150 307 151
3 308 309 310
3 311 287 312
3 304 313 314
3 315 316 241
3 317 318 319
3 320 86 103
3 79 321 77
3 322 79 323
3 46 48 44
3 324 15 18
3 54 26 25
3 325 326 327
3 1 278 2
3 328 316 329
3 330 331 332
3 333 183 182
3 39 41 37
3 141 210 209
3 116 110 109
3 85 48 334
3 335 24 336
3 337 338 339
3 62 340 63
3 6 341 7
3 342 97 99
3 257 343 344
3 345 150 346
3 19 291 66
3 347 348 349
3 350 254 351
3 4 352 2
3 353 210 213
3 354 355 356
3 237 357 358
3 197 359 360
3 103 361 362
3 200 179 178
3 328 363 364
3 61 365 337
3 307 327 326
3 127 292 293
3 366 367 349
3 368 369 370
3 371 288 287
3 369 372 250
3 373 374 375
3 293 290 376
3 377 378 348
3 122 379 123
3 325 377 347
3 380 40 381
3 230 228 227
3 306 382 383
3 384 373 385
3 386 387 388
3 294 320 295
3 389 113 321
3 390 371 302
3 347 367 391
3 89 74 73
3 228 80 392
3 87 365 88
3 194 196 195
3 346 378 345
3 139 82 81
3 267 174 176
3 197 383 198
3 155 393 394
3 395 396 397
3 365 59 366
3 286 338 398
3 68 399 69
3 44 84 45
3 400 401 402
3 283 403 404
3 405 279 283
3 406 170 169
3 353 192 215
3 407 408 409
3 410 390 302
3 150 267 176
3 22 49 335
3 411 412 413
3 23 335 29
3 358 152 146
3 414 135 137
3 415 94 99
3 285 337 339
3 95 416 96
3 328 118 417
3 160 418 161
3 360 419 304
3 420 12 14
3 323 79 78
3 73 45 84
3 53 45 51
3 421 422 423
3 365 424 88
3 425 244 426
3 327 345 377
3 142 216 427
3 280 428 429
3 360 306 197
3 285 58 61
3 261 430 431
3 417 117 432
3 433 407 409
3 48 49 36
3 434 415 343
3 435 261 206
3 144 218 145
3 240 400 241
3 363 436 437
3 83 73 84
3 346 175 438
3 439 273 135
3 371 303 302
3 440 67 291
3 441 442 443
3 113 444 260
3 334 47 445
3 446 86 88
3 447 131 213
3 155 448 160
3 449 439 450
3 324 19 66
3 320 125 295
3 30 367 31
3 451 7 341
3 136 273 452
3 212 353 215
3 407 424 453
3 454 455 171
3 303 413 412
3 141 212 216
3 456 457 242
3 358 146 240
3 458 445 459
3 395 328 329
3 452 460 167
3 246 330 332
3 267 461 462
3 335 27 29
3 389 111 113
3 387 69 399
3 463 464 465
3 420 9 466
3 128 467 379
3 277 5 278
3 57 46 53
3 133 138 134
3 355 468 469
3 180 470 237
3 361 446 407
3 410 406 471
3 397 63 331
3 249 301 129
3 472 473 474
3 102 397 331
3 172 233 173
3 138 475 139
3 459 57 476
3 401 148 289
3 360 477 478
3 85 479 83
3 32 34 30
3 340 39 38
3 465 143 142
3 118 101 100
3 480 123 379
3 218 355 145
3 448 481 429
3 359 174 462
3 467 480 379
3 31 59 43
3 482 260 444
3 386 440 291
3 8 278 1
3 292 402 401
3 483 474 473
3 437 484 370
3 485 454 168
3 205 486 203
3 404 225 191
3 40 50 65
3 487 488 208
3 338 294 398
3 480 330 245
3 489 350 490
3 423 369 421
3 256 93 319
3 491 10 75
3 492 411 130
3 476 321 259
3 493 436 275
3 423 316 364
3 414 494 439
3 240 237 358
3 249 262 431
3 432 376 275
3 464 375 374
3 352 8 3
3 95 495 496
3 235 479 236
3 309 253 497
3 380 498 41
3 286 34 33
3 276 451 499
3 126 500 325
3 501 502 274
3 203 503 281
3 486 194 195
3 431 430 504
3 100 467 117
3 106 298 491
3 286 398 121
3 505 208 207
3 331 340 332
3 506 507 143
3 201 369 250
3 508 144 136
3 252 201 250
3 38 332 340
3 295 120 119
3 14 509 298
3 510 511 374
3 512 204 481
3 173 390 169
3 513 215 192
3 67 514 68
3 190 515 516
3 285 35 43
3 310 517 248
3 131 353 213
3 139 230 140
3 292 381 315
3 55 29 54
3 126 121 120
3 518 30 34
3 519 442 264
3 116 109 343
3 314 433 305
3 305 408 382
3 520 293 376
3 232 521 71
3 94 342 99
3 158 522 151
3 523 362 472
3 164 274 502
3 271 524 333
3 414 145 355
3 312 232 284
3 392 226 228
3 229 226 134
3 57 52 476
3 151 472 158
3 217 516 356
3 252 470 202
3 525 495 434
3 65 397 396
3 351 463 465
3 434 343 165
3 503 282 281
3 416 526 527
3 29 528 54
3 92 342 93
3 70 284 71
3 203 481 204
3 217 356 218
3 231 529 232
3 233 530 231
3 234 531 235
3 199 198 175
3 237 470 238
3 178 180 240
3 242 457 243
3 246 498 124
3 124 123 245
3 247 310 248
3 250 372 251
3 253 532 254
3 75 420 14
3 256 319 166
3 258 458 259
3 207 206 261
3 263 519 264
3 264 441 265
3 149 300 266
3 5 533 268
3 269 421 201
3 167 460 270
3 271 534 272
3 274 163 275
3 276 499 277
3 279 497 253
3 280 429 281
3 208 505 70
3 405 283 70
3 70 505 405
3 285 339 286
3 233 232 287
3 289 148 147
3 15 386 291
3 292 401 289
3 119 398 294
3 37 498 246
3 535 487 72
3 72 71 297
3 521 296 71
3 297 535 72
3 52 76 298
3 149 151 299
3 522 299 151
3 301 410 302
3 304 314 305
3 150 536 307
3 308 384 309
3 311 371 287
3 304 419 313
3 313 537 314
3 315 381 329
3 40 65 396
3 396 395 329
3 329 316 315
3 269 200 178
3 316 422 241
3 40 396 381
3 400 402 315
3 381 396 329
3 422 269 241
3 241 400 315
3 269 178 241
3 317 508 318
3 320 87 86
3 79 389 321
3 322 389 79
3 46 56 48
3 324 386 15
3 54 528 26
3 325 523 326
3 4 2 278
3 278 5 4
3 328 364 316
3 330 102 331
3 333 538 183
3 39 42 41
3 141 214 210
3 116 115 110
3 47 334 48
3 85 44 48
3 335 25 24
3 337 87 338
3 62 50 340
3 6 268 341
3 342 539 97
3 257 166 343
3 345 536 150
3 67 66 291
3 19 16 291
3 347 377 348
3 350 255 254
3 3 2 352
3 4 7 352
3 353 211 210
3 354 540 355
3 237 239 357
3 197 199 359
3 103 104 361
3 200 202 179
3 328 417 363
3 61 60 365
3 307 536 327
3 127 122 124
3 380 292 127
3 127 124 380
3 438 175 383
3 383 382 438
3 175 198 383
3 348 378 438
3 31 367 366
3 349 348 438
3 438 382 408
3 453 424 366
3 438 408 349
3 349 408 453
3 366 59 31
3 349 453 366
3 368 541 369
3 370 484 368
3 371 542 288
3 369 541 372
3 373 308 374
3 293 289 290
3 377 345 378
3 122 128 379
3 325 327 377
3 380 41 40
3 230 81 228
3 306 305 382
3 384 308 373
3 386 324 387
3 294 87 320
3 259 321 113
3 113 260 259
3 390 542 371
3 347 349 367
3 73 235 89
3 531 89 235
3 228 81 80
3 87 337 365
3 194 193 196
3 346 438 378
3 139 475 82
3 267 462 174
3 197 306 383
3 155 154 393
3 397 101 395
3 543 395 101
3 365 60 59
3 286 339 338
3 68 514 399
3 44 85 84
3 400 544 401
3 283 279 403
3 405 497 279
3 406 545 170
3 353 130 192
3 407 453 408
3 410 471 390
3 176 346 150
3 150 149 267
3 25 335 49
3 22 21 49
3 411 492 412
3 23 22 335
3 358 274 152
3 414 439 135
3 99 98 546
3 546 415 99
3 285 61 337
3 95 547 416
3 328 543 118
3 160 448 418
3 360 478 419
3 420 466 12
3 78 106 105
3 105 323 78
3 73 51 45
3 53 46 45
3 421 269 422
3 446 88 424
3 365 366 424
3 425 242 244
3 327 536 345
3 490 548 427
3 142 141 216
3 216 549 427
3 427 548 142
3 280 550 428
3 360 304 306
3 285 43 58
3 261 551 430
3 417 118 117
3 433 361 407
3 48 56 49
3 434 495 415
3 206 488 552
3 435 553 261
3 206 552 435
3 551 261 553
3 144 527 218
3 240 544 400
3 363 417 436
3 436 493 437
3 417 432 436
3 83 235 73
3 346 176 175
3 439 271 273
3 371 311 303
3 440 554 67
3 441 264 442
3 113 112 444
3 236 479 445
3 47 36 23
3 482 234 236
3 445 258 236
3 20 23 36
3 47 23 177
3 258 482 236
3 47 177 445
3 445 479 334
3 446 104 86
3 213 214 447
3 447 222 131
3 214 555 447
3 222 221 131
3 496 525 155
3 155 394 448
3 160 496 155
3 449 271 439
3 66 69 324
3 324 18 19
3 320 500 125
3 30 391 367
3 451 352 7
3 136 135 273
3 212 211 353
3 407 446 424
3 454 556 455
3 303 311 413
3 141 209 212
3 557 456 242
3 242 425 557
3 544 240 146
3 146 148 544
3 458 258 445
3 395 543 328
3 166 319 167
3 452 273 558
3 167 319 318
3 558 460 452
3 273 272 558
3 167 318 452
3 246 245 330
3 267 266 461
3 335 336 27
3 389 322 111
3 387 324 69
3 463 559 464
3 420 10 9
3 128 520 467
3 277 533 5
3 57 56 46
3 229 134 138
3 133 560 138
3 138 140 229
3 414 355 469
3 540 468 355
3 469 561 414
3 180 179 470
3 361 104 446
3 410 431 406
3 397 64 63
3 220 247 249
3 301 303 412
3 301 412 492
3 220 249 221
3 129 131 221
3 221 249 129
3 301 492 129
3 474 156 472
3 158 472 156
3 102 101 397
3 172 530 233
3 138 560 475
3 459 55 57
3 476 458 459
3 401 544 148
3 360 359 477
3 85 334 479
3 32 35 34
3 340 50 39
3 465 464 143
3 118 543 101
3 480 245 123
3 218 356 355
3 394 393 512
3 481 203 281
3 394 512 481
3 428 418 448
3 448 394 481
3 481 281 429
3 429 428 448
3 461 477 359
3 359 199 174
3 462 461 359
3 467 102 480
3 58 43 59
3 32 31 43
3 482 258 260
3 386 388 440
3 8 276 278
3 292 315 402
3 362 361 473
3 433 483 473
3 473 361 433
3 423 364 363
3 363 437 370
3 370 423 363
3 485 556 454
3 205 562 486
3 312 404 191
3 404 403 223
3 413 311 312
3 411 413 312
3 404 223 225
3 225 192 191
3 191 411 312
3 62 65 50
3 40 42 50
3 206 208 488
3 72 487 208
3 338 87 294
3 480 102 330
3 489 223 403
3 403 279 255
3 255 350 489
3 548 490 350
3 489 403 255
3 423 370 369
3 317 319 93
3 256 91 93
3 93 342 317
3 75 74 491
3 90 491 74
3 10 420 75
3 191 130 411
3 129 492 130
3 476 52 77
3 77 321 476
3 259 458 476
3 275 163 162
3 162 493 275
3 423 422 316
3 414 561 494
3 494 563 439
3 450 439 563
3 240 180 237
3 410 301 431
3 249 248 262
3 262 261 431
3 431 301 249
3 275 436 432
3 432 117 467
3 467 520 376
3 376 290 152
3 152 275 376
3 290 147 152
3 432 467 376
3 374 506 464
3 464 559 375
3 506 143 464
3 352 276 8
3 160 159 496
3 95 94 415
3 496 159 547
3 415 495 95
3 496 547 95
3 235 83 479
3 405 505 497
3 309 384 253
3 505 517 309
3 532 253 384
3 497 505 309
3 384 385 532
3 380 124 498
3 498 37 41
3 286 518 34
3 276 352 451
3 126 125 500
3 500 523 325
3 274 358 501
3 357 501 358
3 203 486 503
3 187 564 503
3 190 516 565
3 565 564 190
3 503 486 195
3 562 566 182
3 182 181 562
3 566 333 182
3 190 564 186
3 195 187 503
3 562 181 184
3 562 184 486
3 186 564 187
3 184 194 486
3 406 431 504
3 504 545 406
3 100 102 467
3 106 78 298
3 298 509 10
3 10 491 298
3 509 11 10
3 491 107 106
3 121 518 286
3 398 119 121
3 262 248 207
3 517 505 207
3 207 248 517
3 331 63 340
3 141 143 214
3 506 511 507
3 507 555 214
3 214 143 507
3 201 421 369
3 452 318 136
3 508 527 144
3 144 137 136
3 136 318 508
3 252 202 201
3 38 246 332
3 295 125 120
3 298 76 14
3 14 13 509
3 374 308 510
3 247 220 510
3 308 310 247
3 511 506 374
3 308 247 510
3 512 567 204
3 454 171 168
3 173 233 288
3 288 542 173
3 390 471 169
3 169 168 171
3 471 406 169
3 173 542 390
3 169 171 173
3 192 225 224
3 513 549 216
3 192 224 513
3 513 216 215
3 67 554 514
3 190 189 515
3 285 33 35
3 310 309 517
3 131 130 353
3 139 81 230
3 292 380 381
3 55 459 445
3 177 29 55
3 55 445 177
3 126 325 347
3 391 121 126
3 126 347 391
3 518 121 391
3 391 30 518
3 519 568 442
3 343 415 116
3 546 114 116
3 109 108 344
3 415 546 116
3 109 344 343
3 409 305 433
3 314 537 483
3 483 433 314
3 305 409 408
3 520 128 127
3 127 293 520
3 232 529 521
3 94 317 342
3 158 157 522
3 523 500 320
3 320 103 362
3 362 473 472
3 472 307 326
3 523 320 362
3 472 326 523
3 164 163 274
3 566 534 333
3 271 449 524
3 524 538 333
3 333 534 271
3 414 137 145
3 283 404 284
3 312 287 232
3 232 71 284
3 284 404 312
3 392 569 226
3 132 134 226
3 229 227 226
3 226 569 132
3 57 53 52
3 151 307 472
3 354 356 570
3 217 565 516
3 516 515 570
3 570 356 516
3 252 251 238
3 470 179 202
3 252 238 470
3 525 496 495
3 65 64 397
3 142 548 465
3 350 351 465
3 465 548 350
3 270 153 525
3 525 434 165
3 153 155 525
3 343 166 165
3 165 270 525
3 503 564 282
3 527 508 96
3 317 94 96
3 96 416 527
3 526 219 218
3 508 317 96
3 526 218 527
3 29 28 528
3 92 539 342
