ply
format ascii 1.0
comment Created by Blender 2.78 (sub 0) - www.blender.org, source file: ''
element vertex 571
property float x
property float y
property float z
property uchar red
property uchar green
property uchar blue
element face 942
property list uchar uint vertex_indices
end_header
-2.000000 -1.500000 0.500000 255 255 0
-2.500000 -1.000000 0.500000 255 255 0
-2.000000 -1.000000 0.000000 255 255 0
-1.500000 -1.000000 0.500000 255 255 0
-2.000000 1.000000 0.000000 255 255 0
-2.500000 1.000000 0.500000 255 255 0
-2.000000 1.500000 0.500000 255 255 0
-1.500000 1.000000 0.500000 255 255 0
-2.000000 -1.000000 1.000000 255 255 0
-2.500000 0.500000 1.000000 0 255 51
-2.500000 1.000000 1.500000 0 255 51
-2.500000 1.000000 1.000000 0 255 51
-1.500000 0.500000 1.000000 0 255 51
-1.500000 1.000000 1.000000 0 255 51
-1.500000 1.000000 1.500000 0 255 51
2.000000 0.500000 1.500000 255 255 0
1.500000 1.000000 1.500000 255 255 0
2.000000 1.000000 1.000000 255 255 0
2.500000 1.000000 1.500000 255 255 0
2.000000 1.500000 1.500000 255 255 0
2.000000 -2.500000 3.500000 0 255 51
1.500000 -2.000000 3.500000 0 255 51
2.000000 -2.000000 3.000000 0 255 51
2.500000 -2.000000 3.500000 0 255 51
1.500000 0.500000 3.000000 0 255 51
1.500000 0.000000 3.500000 0 255 51
1.500000 0.500000 3.500000 0 255 51
2.500000 0.500000 3.000000 0 255 51
2.500000 0.500000 3.500000 0 255 51
2.500000 0.000000 3.500000 0 255 51
-6.000000 -2.500000 4.500000 255 204 102
-6.500000 -2.000000 4.500000 255 204 102
-6.000000 -2.000000 4.000000 255 204 102
-4.500000 -2.000000 4.500000 255 204 102
-5.000000 -2.500000 4.500000 255 204 102
-5.000000 -2.000000 4.000000 255 204 102
2.000000 -2.000000 4.000000 0 255 51
5.000000 -2.500000 4.500000 255 204 102
4.500000 -2.000000 4.500000 255 204 102
5.000000 -2.000000 4.000000 255 204 102
6.500000 -2.000000 4.500000 255 204 102
6.000000 -2.500000 4.500000 255 204 102
6.000000 -2.000000 4.000000 255 204 102
-6.000000 -1.000000 4.000000 255 204 102
-1.000000 -1.500000 4.500000 0 255 51
-1.500000 -1.000000 4.500000 0 255 51
-1.000000 -1.000000 4.000000 0 255 51
2.000000 -1.500000 4.500000 0 255 51
1.000000 -1.500000 4.500000 0 255 51
1.500000 -1.000000 3.500000 0 255 51
6.000000 -1.000000 4.000000 255 204 102
-1.500000 0.000000 4.500000 0 255 51
-1.000000 1.000000 5.000000 0 255 51
-1.000000 0.000000 4.000000 0 255 51
2.000000 0.000000 4.000000 0 255 51
2.000000 -0.500000 4.500000 0 255 51
1.000000 -1.000000 4.000000 0 255 51
1.000000 0.000000 4.000000 0 255 51
-6.000000 0.000000 4.000000 255 204 102
-6.500000 0.000000 4.500000 255 204 102
-6.000000 0.500000 4.500000 255 204 102
-5.500000 0.000000 4.500000 255 204 102
6.000000 0.000000 4.000000 255 204 102
5.500000 0.000000 4.500000 255 204 102
6.000000 0.500000 4.500000 255 204 102
6.500000 0.000000 4.500000 255 204 102
2.000000 1.500000 3.500000 255 255 0
1.500000 1.000000 3.500000 255 255 0
2.000000 1.000000 4.000000 255 255 0
2.500000 1.000000 3.500000 255 255 0
2.000000 0.000000 6.000000 0 255 51
-1.000000 0.250000 6.250000 0 255 51
-1.000000 0.000000 6.000000 0 255 51
-1.500000 0.000000 5.500000 0 255 51
-2.000000 0.500000 5.500000 0 255 51
-2.000000 0.500000 4.500000 0 255 51
-1.500000 1.000000 4.500000 0 255 51
-1.000000 2.000000 5.000000 0 255 51
-1.500000 2.000000 5.500000 0 255 51
-1.000000 2.500000 5.500000 0 255 51
0.500000 -2.500000 21.000000 255 255 102
0.000000 -2.500000 21.500000 255 255 102
-0.500000 -2.500000 21.000000 255 255 102
-1.000000 -1.000000 6.000000 0 255 51
-1.500000 -1.000000 5.500000 0 255 51
-1.000000 -1.500000 5.500000 0 255 51
-5.000000 1.000000 6.000000 255 204 102
-5.000000 0.000000 6.000000 255 204 102
-6.000000 1.000000 6.000000 255 204 102
-1.500000 0.500000 6.000000 0 255 51
-2.000000 0.500000 6.000000 0 255 51
-1.500000 0.500000 6.000000 255 51 51
-1.000000 0.250000 6.250000 255 51 51
-1.000000 0.500000 6.500000 255 51 51
2.500000 1.000000 8.500000 255 51 51
2.500000 2.000000 9.500000 255 51 51
2.500000 0.000000 9.500000 255 51 51
2.500000 0.500000 6.000000 255 51 51
2.500000 1.000000 6.000000 255 51 51
2.500000 1.000000 6.500000 255 51 51
5.000000 1.000000 6.000000 255 204 102
6.000000 1.000000 6.000000 255 204 102
5.000000 0.000000 6.000000 255 204 102
-4.500000 1.000000 6.500000 255 204 102
-5.000000 1.500000 6.500000 255 204 102
-1.500000 1.500000 6.000000 0 255 51
-2.000000 1.500000 5.500000 0 255 51
-2.000000 1.500000 6.000000 0 255 51
-1.500000 1.500000 6.000000 255 51 51
-1.000000 1.500000 6.500000 255 51 51
-1.000000 1.750000 6.250000 255 51 51
1.500000 1.500000 6.000000 0 255 51
2.000000 1.500000 6.000000 0 255 51
2.000000 1.500000 5.500000 0 255 51
1.500000 1.500000 6.000000 255 51 51
1.000000 1.750000 6.250000 255 51 51
1.000000 1.500000 6.500000 255 51 51
4.500000 1.000000 6.500000 255 204 102
5.000000 1.500000 6.500000 255 204 102
-3.500000 -2.000000 6.500000 255 204 102
-4.000000 -2.000000 7.000000 255 204 102
-4.000000 -2.500000 6.500000 255 204 102
4.000000 -2.000000 7.000000 255 204 102
3.500000 -2.000000 6.500000 255 204 102
4.000000 -2.500000 6.500000 255 204 102
-4.000000 -1.000000 7.000000 255 204 102
-5.000000 -2.000000 7.000000 255 204 102
5.000000 -2.000000 7.000000 255 204 102
4.000000 -1.000000 7.000000 255 204 102
-2.000000 -2.500000 16.500000 255 204 102
0.000000 -2.500000 16.500000 255 204 102
-1.000000 -2.500000 17.500000 255 204 102
0.500000 2.500000 21.000000 255 255 102
-0.500000 2.500000 21.000000 255 255 102
0.000000 2.500000 21.500000 255 255 102
-1.000000 -1.500000 11.500000 255 51 51
-1.000000 -0.500000 10.500000 255 51 51
0.000000 -0.500000 11.500000 255 51 51
-0.500000 2.000000 21.500000 255 255 102
-0.500000 -2.000000 21.500000 255 255 102
-0.500000 -2.000000 25.500000 255 255 102
0.000000 -3.500000 18.500000 255 204 102
1.000000 -3.500000 19.500000 255 204 102
-1.000000 -3.500000 19.500000 255 204 102
1.000000 -0.500000 10.500000 255 51 51
1.000000 -1.500000 11.500000 255 51 51
5.000000 -1.000000 11.000000 255 204 102
4.500000 -1.000000 10.500000 255 204 102
5.000000 -1.500000 10.500000 255 204 102
-4.000000 -0.500000 11.500000 255 204 102
-5.000000 -0.500000 11.500000 255 204 102
-4.000000 0.000000 11.000000 255 204 102
4.500000 0.000000 10.500000 255 204 102
-3.500000 2.500000 11.000000 255 51 51
-3.250000 3.000000 10.750000 255 51 51
-3.000000 3.000000 11.000000 255 51 51
-3.500000 2.500000 11.000000 255 204 102
-3.750000 2.000000 10.750000 255 204 102
-4.000000 2.000000 11.000000 255 204 102
3.500000 2.500000 11.000000 255 51 51
3.000000 3.000000 11.000000 255 51 51
3.250000 3.000000 10.750000 255 51 51
3.500000 2.500000 11.000000 255 204 102
4.000000 2.000000 11.000000 255 204 102
3.750000 2.000000 10.750000 255 204 102
-2.500000 2.000000 9.500000 255 51 51
-2.500000 1.000000 8.500000 255 51 51
-2.500000 0.000000 9.500000 255 51 51
-0.500000 -1.500000 14.000000 255 204 102
-1.000000 -2.000000 14.000000 255 204 102
-1.000000 -1.750000 13.750000 255 204 102
0.500000 -1.500000 14.000000 255 204 102
1.000000 -1.750000 13.750000 255 204 102
1.000000 -2.000000 14.000000 255 204 102
-6.000000 0.000000 14.000000 255 204 102
-6.500000 0.000000 13.500000 255 204 102
-6.000000 -0.500000 13.500000 255 204 102
2.500000 -1.000000 4.500000 0 255 51
6.500000 0.000000 13.500000 255 204 102
6.000000 0.000000 14.000000 255 204 102
6.000000 -0.500000 13.500000 255 204 102
-2.500000 0.500000 14.000000 255 51 51
-3.000000 0.000000 14.000000 255 51 51
-2.750000 0.000000 14.250000 255 51 51
-1.500000 1.500000 14.000000 255 51 51
-1.833330 0.833333 14.333300 255 51 51
2.500000 0.500000 14.000000 255 51 51
1.500000 1.500000 14.000000 255 51 51
1.833330 0.833333 14.333300 255 51 51
2.750000 0.000000 14.250000 255 51 51
3.000000 0.000000 14.000000 255 51 51
2.000000 -2.500000 16.500000 255 204 102
1.000000 -2.500000 17.500000 255 204 102
-1.000000 1.750000 14.250000 255 51 51
-1.000000 2.000000 14.000000 255 51 51
1.000000 2.000000 14.000000 255 51 51
1.000000 1.750000 14.250000 255 51 51
-6.000000 2.500000 13.500000 255 204 102
-6.500000 2.000000 13.500000 255 204 102
-6.000000 2.000000 14.000000 255 204 102
6.500000 2.000000 13.500000 255 204 102
6.000000 2.500000 13.500000 255 204 102
6.000000 2.000000 14.000000 255 204 102
-2.000000 1.500000 6.000000 255 51 51
-2.000000 1.500000 8.500000 255 51 51
-1.000000 1.500000 14.500000 255 204 102
-1.000000 1.500000 15.500000 255 204 102
0.000000 1.500000 14.500000 255 204 102
1.000000 1.500000 14.500000 255 204 102
1.000000 1.500000 15.500000 255 204 102
0.000000 -4.500000 17.500000 255 204 102
-0.500000 -4.000000 17.500000 255 204 102
0.000000 -4.000000 17.000000 255 204 102
0.500000 -4.000000 17.500000 255 204 102
-0.500000 -3.000000 17.500000 255 204 102
-0.500000 -3.000000 18.500000 255 204 102
0.500000 -3.000000 17.500000 255 204 102
0.500000 -3.000000 18.500000 255 204 102
-1.500000 -1.500000 18.000000 255 204 102
-1.500000 -2.000000 17.500000 255 204 102
-1.500000 -2.000000 18.000000 255 204 102
1.500000 -1.500000 18.000000 255 204 102
1.500000 -2.000000 18.000000 255 204 102
1.500000 -2.000000 17.500000 255 204 102
0.500000 2.000000 21.500000 255 255 102
0.500000 -2.000000 25.500000 255 255 102
0.500000 -2.000000 21.500000 255 255 102
0.000000 -2.000000 26.000000 255 255 102
0.000000 -2.500000 25.500000 255 255 102
1.000000 1.000000 5.000000 0 255 51
2.000000 0.500000 4.000000 255 255 0
2.500000 0.500000 3.500000 255 255 0
-2.500000 0.000000 15.500000 255 204 102
-2.500000 0.000000 14.500000 255 204 102
2.500000 -3.000000 15.500000 255 204 102
1.000000 -4.500000 14.500000 255 204 102
2.500000 -3.000000 14.500000 255 204 102
-2.500000 1.000000 6.000000 255 51 51
-2.000000 0.500000 8.500000 255 51 51
-2.500000 -1.000000 14.500000 255 204 102
-2.750000 0.000000 14.250000 255 204 102
-2.750000 -1.000000 14.250000 255 204 102
-1.000000 -2.500000 20.500000 255 204 102
-0.750000 -2.000000 21.250000 255 204 102
-1.500000 -2.000000 20.500000 255 204 102
2.000000 0.250000 6.250000 255 51 51
2.000000 0.500000 6.500000 255 51 51
-2.000000 0.500000 1.500000 0 255 51
2.500000 0.000000 15.500000 255 204 102
2.500000 0.000000 14.500000 255 204 102
-2.500000 -1.000000 17.500000 255 204 102
-1.500000 2.000000 18.500000 255 204 102
-2.500000 2.000000 17.500000 255 204 102
6.000000 2.500000 12.500000 255 204 102
6.500000 3.000000 11.500000 255 204 102
6.000000 3.500000 11.500000 255 204 102
-0.750000 -2.750000 18.500000 204 255 255
-1.500000 -2.000000 18.000000 204 255 255
-0.750000 -2.750000 18.000000 204 255 255
-6.500000 3.000000 11.500000 255 204 102
-6.000000 3.500000 9.500000 255 204 102
-6.500000 3.000000 9.500000 255 204 102
-3.000000 -1.500000 11.500000 255 51 51
-3.750000 -0.750000 13.500000 255 51 51
-3.750000 -0.750000 11.500000 255 51 51
6.000000 -0.500000 8.500000 255 204 102
6.500000 -1.000000 9.500000 255 204 102
6.000000 -1.500000 9.500000 255 204 102
-0.750000 2.000000 21.250000 255 255 102
-0.750000 -2.000000 21.250000 255 255 102
4.000000 -0.500000 11.500000 255 204 102
3.750000 -0.750000 13.500000 255 204 102
3.750000 -0.750000 11.500000 255 204 102
3.750000 2.000000 10.750000 255 51 51
3.750000 0.000000 10.750000 255 51 51
1.000000 -1.500000 13.500000 255 51 51
0.500000 -1.500000 14.000000 255 51 51
0.166667 -0.833333 13.666700 255 51 51
-3.500000 3.500000 11.000000 255 51 51
-3.000000 3.500000 11.500000 255 51 51
4.000000 -0.500000 13.500000 255 204 102
3.500000 -0.500000 14.000000 255 204 102
1.500000 -2.000000 18.500000 204 255 255
1.500000 -1.500000 18.000000 204 255 255
1.500000 -1.500000 19.000000 204 255 255
4.500000 -1.000000 9.500000 255 204 102
-1.500000 2.000000 20.500000 255 204 102
3.750000 2.750000 13.500000 255 51 51
3.000000 3.500000 12.500000 255 51 51
3.000000 3.500000 13.500000 255 51 51
-3.000000 3.000000 14.000000 255 51 51
3.000000 3.000000 14.000000 255 51 51
4.000000 2.500000 13.500000 255 204 102
3.500000 2.500000 14.000000 255 204 102
4.000000 2.000000 14.000000 255 204 102
-4.000000 2.500000 13.500000 255 204 102
-4.000000 2.000000 14.000000 255 204 102
-1.000000 -1.500000 13.500000 255 51 51
-3.500000 -1.000000 6.500000 255 204 102
-4.000000 -2.000000 6.000000 255 204 102
-4.000000 -1.000000 6.000000 255 204 102
-2.000000 0.000000 1.000000 255 255 0
-1.500000 0.500000 1.000000 255 255 0
-2.000000 0.250000 1.250000 255 255 0
-6.000000 -0.500000 8.500000 255 204 102
-6.500000 -1.000000 9.500000 255 204 102
-6.500000 0.000000 8.500000 255 204 102
4.000000 -2.000000 6.000000 255 204 102
-4.000000 -0.500000 13.500000 255 204 102
-3.750000 -0.750000 11.500000 255 204 102
-3.750000 -0.750000 13.500000 255 204 102
4.500000 0.000000 6.500000 255 204 102
-1.000000 -4.500000 14.500000 255 204 102
1.000000 -4.500000 15.500000 255 204 102
-1.000000 -4.500000 15.500000 255 204 102
-3.750000 2.750000 13.500000 255 51 51
-3.000000 3.500000 12.500000 255 51 51
-3.750000 2.750000 12.500000 255 51 51
5.000000 -0.500000 8.500000 255 204 102
4.500000 0.000000 8.500000 255 204 102
6.000000 1.500000 6.500000 255 204 102
-1.000000 1.750000 6.250000 0 255 51
1.000000 2.500000 5.500000 0 255 51
1.500000 0.000000 4.500000 0 255 51
-2.750000 -1.000000 14.250000 255 51 51
6.000000 3.500000 9.500000 255 204 102
6.500000 3.000000 9.500000 255 204 102
6.500000 1.000000 7.500000 255 204 102
6.000000 1.500000 7.500000 255 204 102
-1.500000 -2.500000 19.000000 204 255 255
-0.833333 -2.833330 18.666700 204 255 255
0.750000 -2.750000 18.000000 255 204 102
0.750000 -2.000000 21.250000 255 255 102
5.000000 -2.500000 5.500000 255 204 102
6.000000 -2.500000 6.500000 255 204 102
6.500000 0.000000 5.500000 255 204 102
6.000000 0.500000 5.500000 255 204 102
-6.500000 1.000000 7.500000 255 204 102
-6.000000 1.500000 6.500000 255 204 102
-6.500000 1.000000 6.500000 255 204 102
2.000000 0.000000 3.000000 0 255 51
-1.000000 1.750000 14.250000 255 204 102
2.000000 0.500000 8.500000 255 51 51
1.500000 0.500000 3.500000 255 255 0
2.000000 -2.000000 14.000000 255 204 102
2.500000 -1.500000 14.000000 255 204 102
2.500000 -1.000000 14.500000 255 204 102
2.000000 0.500000 4.000000 0 255 51
6.500000 -2.000000 6.500000 255 204 102
3.500000 -1.000000 6.500000 255 204 102
1.000000 2.500000 20.500000 255 204 102
0.750000 2.000000 21.250000 255 204 102
1.500000 2.000000 20.500000 255 204 102
4.000000 3.500000 11.500000 255 204 102
4.000000 2.500000 12.500000 255 204 102
-2.000000 1.500000 4.500000 0 255 51
-6.000000 -0.500000 11.500000 255 204 102
-5.000000 -1.500000 10.500000 255 204 102
-6.500000 0.000000 11.500000 255 204 102
-5.000000 1.500000 7.500000 255 204 102
-6.000000 1.500000 7.500000 255 204 102
1.000000 2.000000 5.000000 0 255 51
2.500000 2.000000 17.500000 255 204 102
1.500000 -1.000000 5.500000 0 255 51
3.000000 -1.000000 14.000000 255 51 51
2.750000 -1.000000 14.250000 255 51 51
-4.500000 1.000000 7.500000 255 204 102
1.000000 2.500000 18.500000 255 204 102
-3.750000 0.000000 10.750000 255 204 102
-6.000000 -1.500000 10.500000 255 204 102
-6.500000 -1.000000 10.500000 255 204 102
2.500000 -1.000000 17.500000 255 204 102
1.500000 2.000000 18.500000 255 204 102
1.500000 -1.000000 18.500000 255 204 102
1.500000 1.000000 2.500000 255 255 0
-6.000000 2.500000 12.500000 255 204 102
-4.000000 3.500000 11.500000 255 204 102
-6.000000 3.500000 11.500000 255 204 102
6.000000 -0.500000 11.500000 255 204 102
6.000000 -1.500000 10.500000 255 204 102
4.000000 0.000000 11.000000 255 204 102
-4.500000 0.000000 6.500000 255 204 102
0.000000 -3.000000 17.000000 255 204 102
3.500000 -0.500000 11.000000 255 204 102
-4.500000 2.000000 10.500000 255 204 102
2.000000 -3.000000 16.000000 255 204 102
-4.500000 -1.000000 9.500000 255 204 102
-5.000000 -1.500000 9.500000 255 204 102
-2.500000 -3.000000 15.500000 255 204 102
2.000000 -3.000000 14.000000 255 204 102
-4.500000 -1.000000 7.500000 255 204 102
-5.000000 -0.500000 8.500000 255 204 102
2.000000 1.000000 5.000000 0 255 51
2.000000 0.500000 2.500000 255 255 0
2.500000 0.500000 3.000000 255 255 0
2.000000 0.250000 2.750000 255 255 0
-1.000000 2.500000 20.500000 255 204 102
-0.750000 2.000000 21.250000 255 204 102
-0.500000 2.500000 21.000000 255 204 102
0.750000 -2.000000 21.250000 255 204 102
-4.000000 0.000000 14.000000 255 204 102
6.500000 0.000000 11.500000 255 204 102
6.500000 0.000000 8.500000 255 204 102
5.500000 0.000000 5.500000 255 204 102
-6.500000 0.000000 5.500000 255 204 102
-1.500000 0.000000 0.500000 255 255 0
-2.000000 2.500000 17.500000 255 204 102
-5.000000 -2.500000 5.500000 255 204 102
4.500000 2.000000 10.500000 255 204 102
-1.500000 -1.500000 18.000000 204 255 255
-1.500000 -2.000000 18.500000 204 255 255
-3.000000 -0.500000 10.500000 255 51 51
-3.750000 0.000000 10.750000 255 51 51
0.833333 -2.833330 18.666700 255 204 102
-1.000000 2.500000 18.500000 255 204 102
5.000000 1.500000 7.500000 255 204 102
5.000000 3.500000 9.500000 255 204 102
4.500000 -2.000000 5.500000 255 204 102
5.000000 -1.000000 6.000000 255 204 102
5.500000 -1.000000 5.500000 255 204 102
-2.000000 -3.000000 14.000000 255 204 102
-1.000000 -4.000000 14.000000 255 204 102
-2.500000 0.000000 0.500000 255 255 0
-2.000000 0.250000 1.250000 0 255 51
-6.000000 0.500000 5.500000 255 204 102
0.750000 2.000000 21.250000 255 255 102
-4.000000 2.500000 12.500000 255 204 102
-3.833330 2.833330 12.333300 255 204 102
2.000000 0.000000 5.000000 0 255 51
-3.500000 2.500000 14.000000 255 204 102
-3.750000 2.750000 13.500000 255 204 102
-3.000000 3.500000 13.500000 255 51 51
3.000000 -1.500000 13.500000 255 51 51
3.750000 -0.750000 11.500000 255 51 51
3.000000 -1.500000 11.500000 255 51 51
2.500000 0.500000 6.000000 0 255 51
2.500000 1.000000 5.500000 0 255 51
2.500000 1.000000 6.000000 0 255 51
-2.000000 -2.000000 14.000000 255 204 102
-6.000000 -1.500000 9.500000 255 204 102
-3.500000 -0.500000 14.000000 255 204 102
3.000000 -0.500000 10.500000 255 51 51
-2.500000 -3.000000 14.500000 255 204 102
-6.500000 2.000000 12.500000 255 204 102
0.750000 -2.750000 18.000000 204 255 255
0.750000 -2.750000 18.500000 204 255 255
-3.500000 3.500000 12.000000 255 51 51
-4.500000 -1.000000 10.500000 255 204 102
-4.500000 0.000000 8.500000 255 204 102
0.000000 -1.000000 14.000000 255 204 102
0.166667 -0.833333 13.666700 255 204 102
-5.500000 -1.000000 5.500000 255 204 102
-5.500000 0.000000 5.500000 255 204 102
1.500000 0.500000 3.000000 255 255 0
3.833330 2.833330 12.333300 255 204 102
-4.500000 -2.000000 5.500000 255 204 102
-5.000000 -1.000000 6.000000 255 204 102
-2.000000 2.500000 9.500000 255 51 51
3.000000 2.500000 10.500000 255 51 51
2.000000 2.500000 9.500000 255 51 51
-3.500000 -0.500000 11.000000 255 204 102
4.000000 0.000000 14.000000 255 204 102
1.000000 -4.000000 14.000000 255 204 102
3.250000 3.000000 10.750000 255 204 102
5.000000 -1.500000 9.500000 255 204 102
-2.500000 0.500000 1.000000 255 255 0
2.000000 0.250000 2.750000 0 255 51
-2.500000 -1.750000 13.750000 255 51 51
-1.000000 -1.750000 13.750000 255 51 51
3.500000 3.500000 11.000000 255 51 51
-2.500000 -1.500000 14.000000 255 204 102
6.500000 -1.000000 10.500000 255 204 102
1.000000 -2.500000 20.500000 255 204 102
-0.500000 -2.500000 21.000000 255 204 102
2.750000 -1.000000 14.250000 255 204 102
2.750000 0.000000 14.250000 255 204 102
1.833330 0.833333 14.333300 255 204 102
2.000000 1.500000 8.500000 255 51 51
2.000000 1.500000 6.000000 255 51 51
-3.750000 2.750000 12.500000 255 204 102
-2.500000 1.000000 1.000000 255 255 0
-2.000000 1.500000 1.000000 255 255 0
1.000000 -1.500000 5.500000 0 255 51
1.000000 -1.000000 6.000000 0 255 51
-1.500000 1.000000 1.000000 255 255 0
3.750000 2.750000 12.500000 255 51 51
3.500000 3.500000 12.000000 255 51 51
4.000000 -1.000000 6.000000 255 204 102
-5.000000 3.500000 9.500000 255 204 102
3.750000 2.750000 12.500000 255 204 102
3.750000 2.750000 13.500000 255 204 102
4.500000 3.000000 9.500000 255 204 102
3.500000 3.500000 11.000000 255 204 102
2.000000 -0.500000 9.500000 255 51 51
-2.000000 -0.500000 9.500000 255 51 51
-3.250000 3.000000 10.750000 255 204 102
-3.500000 3.500000 11.000000 255 204 102
-4.500000 3.000000 9.500000 255 204 102
-0.833333 -2.833330 18.666700 255 204 102
-1.500000 -3.000000 19.500000 255 204 102
-1.500000 -2.500000 19.000000 255 204 102
-6.000000 -2.500000 6.500000 255 204 102
-6.500000 -2.000000 6.500000 255 204 102
4.500000 -1.000000 7.500000 255 204 102
3.750000 -0.750000 13.500000 255 51 51
1.000000 -4.000000 16.000000 255 204 102
-2.000000 -3.000000 16.000000 255 204 102
-1.000000 -4.000000 16.000000 255 204 102
-1.833330 0.833333 14.333300 255 204 102
-5.500000 -1.000000 4.500000 255 204 102
5.500000 -1.000000 4.500000 255 204 102
2.500000 1.000000 2.500000 255 255 0
-2.000000 1.500000 1.000000 0 255 51
6.500000 1.000000 6.500000 255 204 102
1.500000 -1.500000 19.000000 255 204 102
1.500000 -2.000000 20.500000 255 204 102
1.500000 -2.500000 19.000000 255 204 102
-3.750000 2.000000 10.750000 255 51 51
2.500000 -1.750000 13.750000 255 51 51
-0.750000 -2.750000 18.000000 255 204 102
-1.500000 -1.000000 18.500000 255 204 102
-1.500000 -1.500000 19.000000 255 204 102
-3.000000 -1.000000 14.000000 255 51 51
-3.000000 -1.500000 13.500000 255 51 51
-2.500000 -1.500000 14.000000 255 51 51
-2.000000 0.500000 6.000000 255 51 51
2.000000 2.500000 17.500000 255 204 102
-2.500000 1.000000 6.000000 0 255 51
0.500000 -2.500000 21.000000 255 204 102
4.500000 1.000000 7.500000 255 204 102
1.500000 -2.500000 19.000000 204 255 255
0.000000 -0.500000 13.500000 255 51 51
-0.166667 -0.833333 13.666700 255 51 51
3.750000 0.000000 10.750000 255 204 102
3.000000 3.500000 11.500000 255 51 51
-0.166667 -0.833333 13.666700 255 204 102
-3.000000 2.500000 10.500000 255 51 51
3.500000 -0.500000 11.000000 255 51 51
2.000000 0.250000 6.250000 0 255 51
6.500000 2.000000 12.500000 255 204 102
1.000000 -1.750000 13.750000 255 51 51
0.000000 -0.750000 13.750000 255 51 51
1.500000 -2.000000 18.000000 204 255 255
1.000000 1.750000 6.250000 0 255 51
0.750000 -2.750000 18.500000 255 204 102
1.000000 1.750000 14.250000 255 204 102
2.500000 -1.750000 13.750000 255 204 102
0.500000 2.500000 21.000000 255 204 102
0.000000 2.500000 15.500000 255 204 102
-3.500000 2.500000 14.000000 255 51 51
-3.500000 -0.500000 14.000000 255 51 51
3.500000 2.500000 14.000000 255 51 51
3.500000 -0.500000 14.000000 255 51 51
-1.500000 -1.500000 19.000000 204 255 255
-3.500000 -0.500000 11.000000 255 51 51
1.500000 -3.000000 19.500000 255 204 102
-3.500000 3.500000 12.000000 255 204 102
2.500000 0.000000 5.500000 0 255 51
-2.500000 -1.750000 13.750000 255 204 102
-3.833330 2.833330 12.333300 255 51 51
0.000000 -0.750000 13.750000 255 204 102
3.500000 3.500000 12.000000 255 204 102
1.500000 1.500000 14.000000 255 204 102
2.500000 0.500000 14.000000 255 204 102
3.833330 2.833330 12.333300 255 51 51
-0.750000 -2.750000 18.500000 255 204 102
2.500000 -1.500000 14.000000 255 51 51
-1.500000 1.500000 14.000000 255 204 102
-2.500000 0.500000 14.000000 255 204 102
0.833333 -2.833330 18.666700 204 255 255
-0.500000 -1.500000 14.000000 255 51 51
3 0 1 2
3 3 0 2
3 4 5 6
3 7 4 6
3 1 0 8
3 8 0 3
3 9 10 11
3 12 13 14
3 15 16 17
3 18 15 17
3 17 16 19
3 18 17 19
3 20 21 22
3 23 20 22
3 24 25 26
3 27 28 29
3 30 31 32
3 33 34 35
3 36 21 20
3 37 38 39
3 40 41 42
3 32 43 35
3 44 45 46
3 47 48 36
3 21 36 49
3 42 39 50
3 51 52 53
3 54 25 55
3 25 49 55
3 49 56 55
3 56 57 55
3 58 59 60
3 61 58 60
3 62 63 64
3 65 62 64
3 66 67 68
3 69 66 68
3 70 71 72
3 51 73 52
3 73 74 52
3 74 75 52
3 52 75 76
3 77 52 78
3 77 78 79
3 80 81 82
3 83 84 85
3 86 87 88
3 89 90 74
3 91 92 93
3 94 95 96
3 97 98 99
3 100 101 102
3 103 86 104
3 105 106 107
3 108 109 110
3 111 112 113
3 114 115 116
3 100 117 118
3 119 120 121
3 122 123 124
3 120 125 126
3 122 127 128
3 129 130 131
3 132 133 134
3 135 136 137
3 138 139 140
3 141 142 143
3 144 145 137
3 146 147 148
3 149 150 151
3 147 146 152
3 153 154 155
3 156 157 158
3 159 160 161
3 162 163 164
3 165 166 167
3 168 169 170
3 171 172 173
3 174 175 176
3 29 177 23
3 178 179 180
3 181 182 183
3 184 181 185
3 186 187 188
3 186 189 190
3 191 192 130
3 184 193 194
3 187 195 196
3 197 198 199
3 200 201 202
3 203 166 204
3 205 206 207
3 208 207 209
3 210 211 212
3 213 210 212
3 214 211 215
3 216 217 213
3 218 219 220
3 221 222 223
3 224 225 226
3 227 140 228
3 225 227 228
3 229 53 52
3 69 230 231
3 232 205 233
3 234 235 236
3 237 238 166
3 239 240 241
3 242 243 244
3 93 245 246
3 76 247 14
3 208 248 249
3 250 251 252
3 253 254 255
3 256 257 258
3 259 260 261
3 262 263 264
3 265 266 267
3 139 268 269
3 270 271 272
3 96 273 274
3 275 276 277
3 155 278 279
3 280 281 271
3 282 283 284
3 285 148 147
3 243 286 244
3 287 288 289
3 289 290 291
3 292 293 294
3 295 199 296
3 137 297 135
3 298 299 300
3 301 302 303
3 304 305 306
3 123 307 124
3 308 309 310
3 117 102 311
3 312 313 314
3 315 316 317
3 318 285 319
3 100 320 101
3 321 322 79
3 323 57 229
3 182 324 183
3 61 43 58
3 325 254 326
3 3 301 8
3 327 320 328
3 329 256 330
3 216 331 217
3 226 80 332
3 333 41 334
3 335 64 336
3 337 338 339
3 340 27 29
3 103 87 86
3 341 205 207
3 84 72 73
3 99 342 246
3 141 213 217
3 68 343 230
3 141 211 210
3 344 345 346
3 25 347 26
3 348 41 40
3 176 150 308
3 349 307 123
3 350 351 352
3 119 125 120
3 253 353 354
3 78 76 355
3 356 357 150
3 358 176 175
3 51 46 45
3 260 359 360
3 77 322 361
3 362 248 209
3 177 55 363
3 364 189 365
3 366 104 359
3 279 160 155
3 352 367 350
3 178 202 179
3 151 157 368
3 305 369 370
3 371 372 373
3 356 370 369
3 16 374 19
3 375 376 377
3 378 146 379
3 195 291 290
3 250 232 239
3 146 380 152
3 300 381 298
3 131 382 214
3 383 380 270
3 214 212 211
3 151 384 158
3 385 191 130
3 386 357 387
3 388 129 250
3 344 236 389
3 89 73 72
3 126 390 391
3 361 113 392
3 393 394 395
3 396 397 398
3 399 352 351
3 176 400 174
3 326 401 402
3 403 64 63
3 404 60 59
3 37 42 41
3 7 405 4
3 251 406 252
3 30 34 407
3 152 163 408
3 266 379 267
3 409 257 410
3 292 202 201
3 411 412 167
3 195 193 196
3 413 142 217
3 251 396 414
3 247 12 14
3 325 415 416
3 417 418 419
3 312 420 421
3 2 422 4
3 401 180 378
3 247 9 423
3 53 56 46
3 87 424 88
3 226 425 224
3 426 427 376
3 428 363 323
3 295 429 430
3 315 290 431
3 414 350 367
3 145 432 275
3 433 432 434
3 435 436 437
3 438 170 169
3 439 357 369
3 216 212 382
3 1 301 422
3 308 440 400
3 145 441 434
3 442 438 420
3 321 78 105
3 198 375 443
3 275 137 145
3 444 282 445
3 337 404 306
3 446 317 316
3 328 326 327
3 40 42 50
3 384 447 448
3 449 450 171
3 451 61 452
3 453 67 374
3 140 81 228
3 353 454 354
3 339 338 88
3 304 387 439
3 109 115 110
3 30 35 34
3 22 21 49
3 33 451 455
3 411 135 262
3 322 111 113
3 174 198 175
3 102 336 403
3 456 300 299
3 457 458 459
3 460 149 151
3 18 393 15
3 38 333 417
3 45 85 84
3 227 224 134
3 280 179 461
3 236 462 389
3 463 408 162
3 29 22 340
3 36 56 49
3 318 267 464
3 123 128 349
3 301 465 422
3 340 24 466
3 291 287 289
3 461 294 281
3 467 297 468
3 160 469 161
3 415 320 118
3 239 241 470
3 44 56 48
3 378 471 401
3 292 253 354
3 472 473 242
3 451 87 456
3 127 265 318
3 265 348 402
3 249 474 475
3 249 476 208
3 436 428 392
3 477 99 478
3 426 430 479
3 6 480 481
3 83 482 483
3 191 371 223
3 419 102 403
3 302 7 484
3 485 486 288
3 311 487 349
3 376 488 377
3 465 5 422
3 292 489 490
3 455 456 299
3 48 482 85
3 31 59 43
3 416 491 492
3 238 493 494
3 7 481 484
3 121 455 299
3 84 51 45
3 384 495 156
3 452 60 424
3 496 495 497
3 47 177 363
3 498 499 500
3 312 462 235
3 270 180 280
3 392 229 361
3 16 393 374
3 31 501 502
3 318 319 503
3 432 504 364
3 144 136 494
3 72 483 70
3 128 311 349
3 393 453 374
3 296 400 429
3 505 506 507
3 95 458 273
3 508 233 205
3 509 35 43
3 63 50 510
3 204 459 477
3 66 511 19
3 510 39 38
3 142 242 143
3 14 13 512
3 513 335 336
3 514 515 516
3 436 112 437
3 353 416 492
3 419 63 510
3 139 82 81
3 246 97 99
3 165 412 517
3 206 252 406
3 375 259 443
3 200 253 201
3 197 426 375
3 360 261 260
3 54 28 347
3 225 81 226
3 138 134 133
3 382 192 216
3 381 125 298
3 304 502 501
3 518 275 432
3 507 313 505
3 391 386 387
3 519 214 215
3 520 521 286
3 126 121 120
3 522 523 524
3 525 91 93
3 360 104 338
3 464 379 148
3 150 447 151
3 33 407 34
3 526 372 362
3 74 527 75
3 399 528 472
3 116 109 204
3 529 118 117
3 172 344 173
3 346 248 371
3 530 445 282
3 462 169 173
3 531 532 297
3 533 163 380
3 534 316 288
3 394 69 231
3 319 491 529
3 510 417 419
3 535 449 168
3 487 418 307
3 517 153 536
3 135 523 262
3 88 104 86
3 106 355 527
3 441 274 537
3 314 442 312
3 70 538 71
3 203 237 166
3 229 57 53
3 69 68 230
3 232 206 205
3 234 313 235
3 237 525 238
3 239 233 240
3 244 499 242
3 242 473 243
3 499 143 242
3 93 92 245
3 76 75 247
3 208 209 248
3 250 520 251
3 253 539 254
3 256 410 257
3 259 377 260
3 262 523 263
3 265 402 266
3 139 138 268
3 270 280 271
3 96 95 273
3 531 275 277
3 540 276 275
3 277 541 531
3 155 154 278
3 280 461 281
3 282 542 283
3 284 530 282
3 285 464 148
3 243 397 286
3 287 485 288
3 289 431 290
3 292 490 293
3 295 197 199
3 137 531 297
3 298 119 299
3 301 405 302
3 304 439 305
3 333 124 307
3 307 417 333
3 308 149 309
3 117 100 102
3 312 235 313
3 315 431 316
3 318 464 285
3 100 118 320
3 321 543 322
3 323 55 57
3 229 428 323
3 182 522 324
3 61 509 43
3 325 255 254
3 3 405 301
3 327 513 320
3 329 410 256
3 216 192 331
3 223 222 192
3 331 544 217
3 192 222 331
3 226 81 80
3 333 37 41
3 334 124 333
3 335 65 64
3 337 360 338
3 340 466 27
3 103 381 87
3 207 208 545
3 545 341 207
3 84 83 72
3 99 94 342
3 141 210 213
3 68 67 343
3 141 215 211
3 344 546 345
3 345 474 346
3 25 54 347
3 348 334 41
3 149 308 150
3 176 356 150
3 349 487 307
3 350 547 351
3 119 298 125
3 253 255 353
3 78 52 76
3 356 369 357
3 358 356 176
3 51 53 46
3 260 488 359
3 77 79 322
3 207 548 209
3 526 362 209
3 209 548 526
3 177 29 55
3 55 323 363
3 29 54 55
3 364 190 189
3 366 103 104
3 536 155 160
3 279 534 160
3 160 458 536
3 352 372 367
3 178 200 202
3 151 158 157
3 305 439 369
3 371 362 372
3 356 358 370
3 66 19 374
3 374 67 66
3 375 426 376
3 148 379 146
3 378 270 146
3 182 181 549
3 181 184 549
3 550 522 182
3 290 549 184
3 551 291 187
3 364 552 190
3 187 186 551
3 190 552 551
3 549 550 182
3 290 184 194
3 186 190 551
3 290 194 195
3 195 187 291
3 442 388 239
3 250 252 232
3 232 233 239
3 239 388 250
3 146 270 380
3 300 87 381
3 131 130 382
3 270 272 383
3 383 533 380
3 214 382 212
3 151 447 384
3 130 129 506
3 506 385 130
3 386 447 357
3 520 250 218
3 388 314 507
3 388 507 506
3 218 250 219
3 129 131 219
3 219 250 129
3 388 506 129
3 344 346 236
3 72 71 89
3 89 74 73
3 126 125 390
3 390 448 391
3 436 392 113
3 361 322 113
3 393 511 394
3 396 286 397
3 399 515 352
3 176 308 400
3 402 348 327
3 40 65 335
3 335 513 327
3 327 326 402
3 539 200 178
3 326 254 401
3 40 335 348
3 471 266 402
3 348 335 327
3 254 539 401
3 401 471 402
3 539 178 401
3 403 336 64
3 404 424 60
3 37 39 42
3 2 4 405
3 405 3 2
3 251 414 406
3 501 30 407
3 407 121 501
3 152 380 163
3 266 471 379
3 553 409 410
3 410 329 553
3 292 294 202
3 166 238 167
3 411 262 554
3 167 238 494
3 554 412 411
3 262 264 554
3 167 494 411
3 195 194 193
3 217 544 413
3 413 516 555
3 555 142 413
3 141 217 142
3 251 286 396
3 247 423 12
3 325 328 415
3 417 307 418
3 312 442 420
3 5 4 422
3 2 1 422
3 401 178 180
3 247 10 9
3 53 57 56
3 87 452 424
3 226 332 425
3 426 479 427
3 427 556 376
3 428 557 363
3 295 296 429
3 315 549 290
3 526 548 367
3 414 396 350
3 548 406 414
3 547 350 396
3 367 548 414
3 396 398 547
3 145 434 432
3 433 504 432
3 435 557 436
3 438 558 170
3 439 387 357
3 216 213 212
3 1 8 301
3 308 310 440
3 145 144 441
3 442 239 438
3 106 105 78
3 321 79 78
3 198 197 375
3 275 531 137
3 444 542 282
3 443 259 358
3 337 339 404
3 259 261 358
3 175 198 443
3 305 370 358
3 358 175 443
3 261 337 306
3 404 59 31
3 31 502 404
3 306 305 358
3 404 502 306
3 306 358 261
3 446 559 317
3 328 325 326
3 50 62 65
3 65 40 50
3 390 381 366
3 366 497 384
3 381 103 366
3 447 386 448
3 448 390 366
3 366 384 448
3 449 560 450
3 451 509 61
3 453 343 67
3 140 139 81
3 353 561 454
3 454 489 354
3 88 424 404
3 404 339 88
3 304 391 387
3 109 116 115
3 30 32 35
3 49 25 340
3 340 22 49
3 33 509 451
3 411 136 135
3 322 543 111
3 174 199 198
3 102 101 336
3 456 87 300
3 457 536 458
3 151 368 460
3 460 309 149
3 18 511 393
3 38 37 333
3 45 44 85
3 132 134 224
3 227 225 224
3 224 425 132
3 280 180 179
3 236 235 462
3 163 162 408
3 463 491 408
3 29 23 22
3 36 48 56
3 318 265 267
3 123 122 128
3 301 303 465
3 340 25 24
3 291 551 287
3 461 179 202
3 294 293 281
3 461 202 294
3 467 523 297
3 160 534 469
3 415 328 320
3 438 239 470
3 470 558 438
3 44 46 56
3 378 379 471
3 292 201 253
3 472 528 473
3 451 452 87
3 127 122 124
3 334 265 127
3 127 124 334
3 265 334 348
3 249 346 474
3 545 208 562
3 249 475 563
3 476 562 208
3 249 563 476
3 436 557 428
3 98 478 99
3 477 94 99
3 426 295 430
3 6 5 480
3 83 85 482
3 385 505 313
3 234 371 191
3 371 373 221
3 385 313 234
3 223 192 191
3 191 385 234
3 371 221 223
3 419 418 102
3 302 405 7
3 485 564 486
3 311 102 487
3 376 556 496
3 496 488 376
3 260 377 488
3 465 480 5
3 292 354 489
3 455 451 456
3 85 44 48
3 48 47 482
3 58 43 59
3 32 31 43
3 416 415 491
3 491 463 492
3 415 529 491
3 238 342 493
3 7 6 481
3 299 119 121
3 121 407 455
3 84 73 51
3 156 158 384
3 384 497 495
3 452 61 60
3 366 359 497
3 488 496 497
3 497 359 488
3 363 557 70
3 435 538 70
3 70 483 363
3 47 36 23
3 435 70 557
3 363 483 482
3 36 20 23
3 363 482 47
3 47 23 177
3 498 565 215
3 215 141 143
3 143 499 498
3 498 215 143
3 312 421 462
3 270 378 180
3 77 361 229
3 392 428 229
3 229 52 77
3 16 15 393
3 31 30 501
3 127 318 503
3 503 128 127
3 365 566 364
3 518 432 566
3 504 552 364
3 364 566 432
3 494 493 144
3 144 137 136
3 493 441 144
3 136 411 494
3 72 83 483
3 128 503 311
3 393 395 453
3 296 199 174
3 400 440 429
3 296 174 400
3 505 385 506
3 95 94 477
3 477 459 95
3 458 160 159
3 159 273 458
3 95 459 458
3 341 567 205
3 508 568 233
3 240 233 568
3 205 567 508
3 509 33 35
3 63 62 50
3 204 457 459
3 18 19 511
3 66 69 511
3 510 50 39
3 142 472 242
3 512 355 14
3 76 14 355
3 336 101 513
3 320 513 101
3 555 516 515
3 514 221 373
3 373 372 352
3 352 515 514
3 514 373 352
3 436 113 112
3 353 255 416
3 325 416 255
3 492 561 353
3 419 403 63
3 139 269 82
3 246 245 97
3 165 167 412
3 406 548 206
3 206 232 252
3 548 207 206
3 375 377 259
3 200 539 253
3 197 295 426
3 360 337 261
3 54 29 28
3 225 228 81
3 138 140 227
3 227 134 138
3 133 268 138
3 382 130 192
3 381 390 125
3 304 306 502
3 518 540 275
3 507 314 313
3 391 448 386
3 519 220 131
3 219 131 220
3 215 565 519
3 519 131 214
3 520 218 521
3 521 500 244
3 499 244 500
3 286 251 520
3 521 244 286
3 126 391 304
3 501 121 126
3 126 304 501
3 467 524 523
3 522 550 263
3 524 324 522
3 263 523 522
3 246 342 93
3 238 525 93
3 93 342 238
3 360 359 104
3 464 267 379
3 150 357 447
3 33 455 407
3 526 367 372
3 247 75 10
3 74 90 527
3 527 10 75
3 142 555 472
3 515 399 472
3 472 555 515
3 204 477 116
3 478 114 116
3 109 108 203
3 477 478 116
3 109 203 204
3 529 415 118
3 172 546 344
3 234 236 346
3 346 249 248
3 248 362 371
3 371 234 346
3 530 569 445
3 344 389 173
3 462 421 169
3 420 438 169
3 168 449 171
3 421 420 169
3 169 168 171
3 173 389 462
3 169 171 173
3 531 541 532
3 532 570 297
3 468 297 570
3 533 164 163
3 279 278 446
3 316 431 289
3 279 446 316
3 486 469 534
3 534 279 316
3 316 289 288
3 288 486 534
3 394 511 69
3 319 285 152
3 152 408 319
3 285 147 152
3 311 503 319
3 529 117 311
3 408 491 319
3 529 311 319
3 510 38 417
3 535 560 449
3 487 102 418
3 536 457 165
3 204 166 165
3 165 517 536
3 153 155 536
3 457 204 165
3 135 297 523
3 88 338 104
3 106 78 355
3 355 512 10
3 10 527 355
3 512 11 10
3 527 107 106
3 433 434 537
3 441 493 96
3 342 94 96
3 96 274 441
3 537 434 441
3 493 342 96
3 314 388 442
